<?xml version="1.0" encoding="utf-8"?>
<!--Generator: Adobe Illustrator 15.1.0, SVG Export Plug-In . SVG Version: 6.00 Build 0)-->
<!DOCTYPE svg PUBLIC "-//W3C//DTD SVG 1.1//EN" "http://www.w3.org/Graphics/SVG/1.1/DTD/svg11.dtd">
<svg version="1.1" id="Livello_1" xmlns="http://www.w3.org/2000/svg" xmlns:xlink="http://www.w3.org/1999/xlink" x="0px" y="0px" enable-background="new 13.858 70.261 402.052 402.052" xml:space="preserve" width="400" height="400.00204" >
<g>
<linearGradient id="d07d765a-67b2-4874-a359-5fb882a7636b" >
<stop stop-color="#FFFFFF"></stop>
</linearGradient>
<path fill="url(#d07d765a-67b2-4874-a359-5fb882a7636b)" stroke="#F1F2F2" stroke-width="3" stroke-miterlimit="10" d="M 214.884,71.287 H214.880 H 214.884z"/>
<linearGradient id="626a5a0d-9226-48cd-930b-0baf2973ddb6" >
<stop stop-color="#FFFFFF"></stop>
</linearGradient>
<path fill="url(#626a5a0d-9226-48cd-930b-0baf2973ddb6)" stroke="#F1F2F2" stroke-width="3" stroke-miterlimit="10" d="M 405.909,211.868 C411.228,228.988 414.307,247.094 414.808,265.842 C 414.788,246.766 411.629,228.554 405.909,211.868z"/>
<linearGradient id="3132ad39-cb03-4b3c-9698-d0aef1e9798b" >
<stop stop-color="#FFFFFF"></stop>
</linearGradient>
<path fill="url(#3132ad39-cb03-4b3c-9698-d0aef1e9798b)" stroke="#F1F2F2" stroke-width="3" stroke-miterlimit="10" d="M 218.988,471.236 C217.622,471.264 216.256,471.288 214.884,471.288 C 216.256,471.288 217.624,471.268 218.988,471.236z"/>
<linearGradient id="7b2e405d-5341-4a2c-bb59-b89b10422ac5" >
<stop stop-color="#FFFFFF"></stop>
</linearGradient>
<path fill="url(#7b2e405d-5341-4a2c-bb59-b89b10422ac5)" stroke="#F1F2F2" stroke-width="3" stroke-miterlimit="10" d="M 214.884,471.288 C213.511,471.288 212.145,471.264 210.780,471.236 C 212.143,471.268 213.511,471.288 214.884,471.288z"/>
<linearGradient id="5cff076e-e524-46fe-8256-6000b5294696" >
<stop stop-color="#FFFFFF"></stop>
</linearGradient>
<path fill="url(#5cff076e-e524-46fe-8256-6000b5294696)" stroke="#F1F2F2" stroke-width="3" stroke-miterlimit="10" d="M 210.781,71.339 C212.145,71.312 213.509,71.287 214.880,71.287 C 213.509,71.287 212.143,71.307 210.781,71.339z"/>
<linearGradient id="25612482-abcb-4cce-a8d5-fdc4a69e4f05" >
<stop stop-color="#FFFFFF"></stop>
</linearGradient>
<path fill="url(#25612482-abcb-4cce-a8d5-fdc4a69e4f05)" stroke="#F1F2F2" stroke-width="3" stroke-miterlimit="10" d="M 214.884,71.287 C 214.884,71.287 214.884,71.287 214.884,71.287 C216.257,71.287 217.623,71.312 218.989,71.339 C 217.624,71.307 216.257,71.287 214.884,71.287z"/>
<linearGradient id="SVGID_1_" gradientUnits="userSpaceOnUse" x1="150.12" y1="433.101" x2="251.317" y2="-67.415" gradientTransform="matrix(1 0 0 -1 -4.103 797)">
<stop offset="0" stop-color="#E62725" style=""/>
<stop offset="1" stop-color="#1C1B1C" style=""/>
</linearGradient>
<path fill="url(#SVGID_1_)" stroke="#F1F2F2" stroke-width="3" stroke-miterlimit="10" d="M 340.435,132.784 C315.853,96.942 270.813,72.566 218.989,71.339 C217.623,71.311 216.257,71.287 214.884,71.287 C214.882,71.287 214.881,71.287 214.880,71.287 C213.509,71.287 212.145,71.312 210.781,71.339 C123.814,73.091 50.481,130.348 24.744,209.139 C37.145,174.997 60.373,147.559 89.375,132.724 C104.568,124.953 121.341,120.633 138.978,120.633 C167.554,120.633 193.869,131.956 214.847,150.971 C236.146,170.279 251.938,197.520 258.991,228.919 C261.652,240.763 263.075,253.196 263.075,266.020 C263.075,282.995 260.582,299.287 256.019,314.432 C285.697,306.973 311.426,291.652 329.899,271.288 C348.935,250.304 360.271,223.974 360.271,195.382 C 360.270,172.549 353.038,151.162 340.435,132.784z"/>
<linearGradient id="24de00ab-ed69-44bd-8801-48d887ecebe6" >
<stop stop-color="#FFF200"></stop>
</linearGradient>
<path fill="url(#24de00ab-ed69-44bd-8801-48d887ecebe6)" stroke="#F1F2F2" stroke-width="3" stroke-miterlimit="10" d="M 414.808,265.842 C414.307,247.094 411.228,228.988 405.908,211.868 C380.990,131.671 306.958,73.111 218.988,71.339 C270.813,72.565 315.852,96.942 340.434,132.785 C353.038,151.162 360.269,172.549 360.269,195.382 C360.269,223.974 348.934,250.304 329.898,271.288 C311.425,291.651 285.696,306.972 256.018,314.432 C242.973,317.711 229.171,319.478 214.883,319.478 C200.566,319.478 186.736,317.703 173.669,314.411 C181.691,341.043 196.143,364.114 214.845,381.068 C235.823,400.083 262.138,411.406 290.713,411.406 C311.995,411.406 332.024,405.125 349.529,394.066 C388.396,369.511 414.810,321.381 414.810,266.020 C 414.810,265.961 414.808,265.902 414.808,265.842z"/>
<g>
<linearGradient id="SVGID_2_" gradientUnits="userSpaceOnUse" x1="197.059" y1="2.483" x2="199.998" y2="2.483" gradientTransform="matrix(1 0 0 -1 -4.103 797)">
<stop offset="0" stop-color="#0090C7" style=""/>
<stop offset="1" stop-color="#2E3192" style=""/>
</linearGradient>
<path fill="url(#SVGID_2_)" stroke="#F1F2F2" stroke-width="3" stroke-miterlimit="10" d="M 207.840,471.140 C208.817,471.180 209.797,471.212 210.779,471.236 C 209.797,471.216 208.819,471.174 207.840,471.140z"/>
<linearGradient id="SVGID_3_" gradientUnits="userSpaceOnUse" x1="4.102" y1="177.785" x2="248.209" y2="177.785" gradientTransform="matrix(1 0 0 -1 -4.103 797)">
<stop offset="0" stop-color="#0090C7" style=""/>
<stop offset="1" stop-color="#2E3192" style=""/>
</linearGradient>
<path fill="url(#SVGID_3_)" stroke="#F1F2F2" stroke-width="3" stroke-miterlimit="10" d="M 170.698,228.941 C184.633,225.150 199.477,223.098 214.884,223.098 C230.262,223.098 245.079,225.142 258.991,228.919 C251.938,197.520 236.147,170.279 214.847,150.971 C193.869,131.955 167.554,120.633 138.978,120.633 C121.341,120.633 104.568,124.953 89.375,132.724 C60.372,147.559 37.145,174.997 24.744,209.138 C18.591,227.971 15.162,248.032 14.915,268.861 C14.905,269.670 14.884,270.475 14.884,271.286 C14.884,379.385 100.649,467.426 207.841,471.139 C150.054,468.786 101.114,437.636 80.270,394.131 C73.332,379.650 69.498,363.804 69.498,347.192 C69.498,318.600 80.834,292.271 99.870,271.287 C 117.707,251.625 142.308,236.663 170.698,228.941z"/>
</g>
<linearGradient id="SVGID_4_" gradientUnits="userSpaceOnUse" x1="178.437" y1="371.398" x2="261.856" y2="39.09" gradientTransform="matrix(1 0 0 -1 -4.103 797)">
<stop offset="0" stop-color="#006838" style=""/>
<stop offset="1" stop-color="#538B2E" style=""/>
</linearGradient>
<path fill="url(#SVGID_4_)" stroke="#F1F2F2" stroke-width="3" stroke-miterlimit="10" d="M 414.884,271.287 C414.884,269.466 414.857,267.652 414.808,265.843 C414.808,265.902 414.810,265.961 414.810,266.020 C414.810,321.381 388.397,369.511 349.529,394.066 C332.024,405.126 311.996,411.406 290.714,411.406 C262.139,411.406 235.824,400.083 214.846,381.068 C196.143,364.114 181.691,341.043 173.669,314.412 C169.109,299.272 166.619,282.989 166.619,266.020 C166.619,253.205 168.041,240.779 170.698,228.941 C142.307,236.664 117.706,251.626 99.869,271.289 C80.833,292.272 69.498,318.600 69.498,347.193 C69.498,363.806 73.331,379.652 80.270,394.133 C101.466,438.373 151.716,469.839 210.779,471.237 C212.145,471.264 213.511,471.289 214.883,471.289 S217.622,471.264 218.987,471.237 C219.970,471.214 220.949,471.181 221.928,471.141 C 329.120,467.426 414.884,379.385 414.884,271.287z"/>
<linearGradient id="SVGID_5_" gradientUnits="userSpaceOnUse" x1="155.838" y1="202.383" x2="252.292" y2="202.383" gradientTransform="matrix(1 0 0 -1 -4.103 797)">
<stop offset="0" stop-color="#FFFFFF" style=""/>
<stop offset="1" stop-color="#000000" style=""/>
</linearGradient>
<path fill="url(#SVGID_5_)" fill-opacity="0" d="M 258.990,228.919 C245.078,225.142 230.262,223.098 214.884,223.098 C199.477,223.098 184.633,225.150 170.698,228.941 C168.040,240.779 166.619,253.204 166.619,266.020 C166.619,282.988 169.109,299.272 173.669,314.411 C186.737,317.702 200.566,319.477 214.884,319.477 C229.172,319.477 242.974,317.710 256.018,314.431 C260.582,299.286 263.074,282.994 263.074,266.019 C 263.074,253.196 261.651,240.763 258.990,228.919z"/>
</g>
</svg>
