<?xml version="1.0" encoding="UTF-8" standalone="no"?>
<!--Created with Inkscape (http://www.inkscape.org/)-->
<svg xmlns:dc="http://purl.org/dc/elements/1.1/" xmlns:cc="http://web.resource.org/cc/" xmlns:rdf="http://www.w3.org/1999/02/22-rdf-syntax-ns#" xmlns:svg="http://www.w3.org/2000/svg" xmlns="http://www.w3.org/2000/svg" xmlns:xlink="http://www.w3.org/1999/xlink" xmlns:sodipodi="http://inkscape.sourceforge.net/DTD/sodipodi-0.dtd" xmlns:inkscape="http://www.inkscape.org/namespaces/inkscape" id="svg1" sodipodi:version="0.32" inkscape:version="0.41" sodipodi:docbase="/home/gps" sodipodi:docname="newkon.svg" width="400" height="300.2789" >
<metadata id="metadata123">
<rdf:RDF id="RDF125">
<cc:Work rdf:about="" id="Work127">
<dc:format id="format129">image/svg+xml</dc:format>
<dc:type id="type131" rdf:resource="http://purl.org/dc/dcmitype/StillImage"/>
</cc:Work>
</rdf:RDF>
</metadata>
<defs id="defs3">
<linearGradient id="linearGradient2371">
<stop style="stop-color:#ffffff;stop-opacity:1;" offset="0.00000000" id="stop2373"/>
<stop style="stop-color:#000000;stop-opacity:1;" offset="1.00000000" id="stop2375"/>
</linearGradient>
<linearGradient id="linearGradient2320">
<stop style="stop-color:#000000;stop-opacity:1.0000000;" offset="0.0000000" id="stop2322"/>
<stop style="stop-color:#ffffff;stop-opacity:1.0000000;" offset="1.0000000" id="stop2324"/>
</linearGradient>
<linearGradient id="linearGradient715">
<stop style="stop-color:#feff86;stop-opacity:1.0000000;" offset="0.0000000" id="stop716"/>
<stop style="stop-color:#ffff04;stop-opacity:1;" offset="1.00000000" id="stop717"/>
</linearGradient>
<linearGradient id="linearGradient703">
<stop style="stop-color:#ffffff;stop-opacity:0.3125;" offset="0.00000000" id="stop704"/>
<stop style="stop-color:#ffffff;stop-opacity:0;" offset="1.00000000" id="stop705"/>
</linearGradient>
<linearGradient id="linearGradient640">
<stop style="stop-color:#35d84c;stop-opacity:1;" offset="0.00000000" id="stop641"/>
<stop style="stop-color:#235b00;stop-opacity:1;" offset="1.00000000" id="stop642"/>
</linearGradient>
<linearGradient id="linearGradient662">
<stop style="stop-color:#8f0000;stop-opacity:1;" offset="0.00000000" id="stop663"/>
<stop style="stop-color:#ff0606;stop-opacity:1;" offset="1.00000000" id="stop664"/>
</linearGradient>
<linearGradient id="linearGradient658">
<stop style="stop-color:#ff937a;stop-opacity:1;" offset="0.00000000" id="stop659"/>
<stop style="stop-color:#000000;stop-opacity:0.888889;" offset="1.00000000" id="stop660"/>
</linearGradient>
<linearGradient id="linearGradient634">
<stop style="stop-color:#000000;stop-opacity:1;" offset="0.00000000" id="stop635"/>
<stop style="stop-color:#006200;stop-opacity:0.811966;" offset="1.00000000" id="stop636"/>
</linearGradient>
<linearGradient id="linearGradient620">
<stop style="stop-color:#ffffff;stop-opacity:1;" offset="0.00000000" id="stop621"/>
<stop style="stop-color:#000000;stop-opacity:1;" offset="1.00000000" id="stop622"/>
</linearGradient>
<linearGradient id="linearGradient614">
<stop style="stop-color:#b75500;stop-opacity:1;" offset="0.00000000" id="stop615"/>
<stop style="stop-color:#622f00;stop-opacity:1;" offset="1.00000000" id="stop616"/>
</linearGradient>
<linearGradient id="linearGradient600">
<stop style="stop-color:#000000;stop-opacity:0.444444;" offset="0.00000000" id="stop601"/>
<stop style="stop-color:#ffffff;stop-opacity:1;" offset="1.00000000" id="stop602"/>
</linearGradient>
<linearGradient id="linearGradient584">
<stop style="stop-color:#000000;stop-opacity:0.709402;" offset="0.00000000" id="stop585"/>
<stop style="stop-color:#000000;stop-opacity:0;" offset="1.00000000" id="stop586"/>
</linearGradient>
<linearGradient id="linearGradient576">
<stop style="stop-color:#3f7338;stop-opacity:1;" offset="0.00000000" id="stop577"/>
<stop style="stop-color:#ffff94;stop-opacity:1;" offset="1.00000000" id="stop578"/>
</linearGradient>
<linearGradient xlink:href="#linearGradient600" id="linearGradient579" x1="169.705" y1="-2.282" x2="169.634" y2="-2.433"/>
<linearGradient xlink:href="#linearGradient620" id="linearGradient580" x1="169.515" y1="-2.378" x2="169.621" y2="-2.251"/>
<radialGradient xlink:href="#linearGradient584" id="radialGradient587" cx="-0.15555556" cy="0.89062500" r="0.49882686" fx="-0.15555556" fy="0.89062500"/>
<radialGradient xlink:href="#linearGradient584" id="radialGradient598" cx="0.41818181" cy="1.11718750" r="0.82361585" fx="0.40606058" fy="1.10937500"/>
<radialGradient xlink:href="#linearGradient614" id="radialGradient613" cx="0.53153151" cy="0.50000000" r="0.95495498" fx="0.53153151" fy="0.50000000"/>
<linearGradient xlink:href="#linearGradient634" id="linearGradient629" x1="-0.036" y1="-2.441" x2="169.557" y2="-2.411"/>
<radialGradient xlink:href="#linearGradient614" id="radialGradient630" cx="0.49572650" cy="0.49218750" r="0.71862853" fx="0.49572650" fy="0.49218750"/>
<linearGradient xlink:href="#linearGradient634" id="linearGradient638" x1="169.353" y1="-2.545" x2="169.624" y2="-2.545"/>
<radialGradient xlink:href="#linearGradient662" id="radialGradient639" cx="0.50000000" cy="0.50000000" r="0.50000000" fx="0.50000000" fy="0.50000000"/>
<linearGradient xlink:href="#linearGradient658" id="linearGradient657" x1="169.473" y1="-2.371" x2="169.666" y2="-2.507"/>
<linearGradient xlink:href="#linearGradient620" id="linearGradient667" x1="169.43" y1="-2.435" x2="169.729" y2="-2.24"/>
<linearGradient xlink:href="#linearGradient640" id="linearGradient639" x1="169.408" y1="-2.511" x2="169.569" y2="-2.348"/>
<linearGradient xlink:href="#linearGradient640" id="linearGradient644" x1="169.604" y1="-2.291" x2="169.543" y2="-2.479"/>
<radialGradient xlink:href="#linearGradient662" id="radialGradient645" cx="0.03418804" cy="0.98437500" r="0.67830050" fx="0.03418804" fy="0.98437500"/>
<linearGradient xlink:href="#linearGradient620" id="linearGradient652" x1="169.457" y1="-2.433" x2="169.652" y2="-2.223"/>
<linearGradient xlink:href="#linearGradient620" id="linearGradient654" x1="169.465" y1="-2.439" x2="169.685" y2="-2.5"/>
<linearGradient xlink:href="#linearGradient620" id="linearGradient659" x1="169.478" y1="-2.428" x2="169.646" y2="-2.28"/>
<linearGradient xlink:href="#linearGradient620" id="linearGradient671" x1="169.464" y1="-2.426" x2="169.692" y2="-0.008"/>
<linearGradient xlink:href="#linearGradient620" id="linearGradient672" x1="169.537" y1="-2.392" x2="169.641" y2="-2.447"/>
<linearGradient xlink:href="#linearGradient620" id="linearGradient673" x1="169.493" y1="-2.38" x2="169.636" y2="-2.517"/>
<linearGradient xlink:href="#linearGradient620" id="linearGradient679" x1="169.48" y1="-2.405" x2="169.648" y2="-2.196"/>
<linearGradient xlink:href="#linearGradient620" id="linearGradient680" x1="169.464" y1="-2.422" x2="169.704" y2="-2.16"/>
<linearGradient xlink:href="#linearGradient620" id="linearGradient681" x1="169.438" y1="-2.382" x2="169.806" y2="-2.174"/>
<linearGradient xlink:href="#linearGradient620" id="linearGradient691" x1="169.454" y1="-2.46" x2="169.595" y2="-2.227"/>
<linearGradient xlink:href="#linearGradient620" id="linearGradient693" x1="169.455" y1="-2.447" x2="169.559" y2="-2.251"/>
<linearGradient xlink:href="#linearGradient620" id="linearGradient695" x1="169.531" y1="-2.445" x2="169.631" y2="-2.261"/>
<linearGradient xlink:href="#linearGradient715" id="linearGradient702" x1="169.523" y1="-2.485" x2="169.516" y2="-2.394"/>
<radialGradient xlink:href="#linearGradient715" id="radialGradient706" cx="0.64285713" cy="0.84375000" r="0.41764393" fx="0.64285713" fy="0.84375000"/>
<linearGradient gradientUnits="userSpaceOnUse" gradientTransform="scale(0.218 1.24138)" y2="94.468" x2="234.34" y1="84.811" x1="226.983" id="linearGradient1408" xlink:href="#linearGradient2371" inkscape:collect="always"/>
<linearGradient gradientUnits="userSpaceOnUse" gradientTransform="scale(0.272 .99703)" y2="105.464" x2="242.95" y1="92.35" x1="232.489" id="linearGradient1411" xlink:href="#linearGradient2371" inkscape:collect="always"/>
<linearGradient gradientUnits="userSpaceOnUse" gradientTransform="scale(0.394 .68712)" y2="206.485" x2="248.142" y1="192.926" x1="241.049" id="linearGradient1414" xlink:href="#linearGradient2371" inkscape:collect="always"/>
<linearGradient gradientUnits="userSpaceOnUse" gradientTransform="scale(0.24 1.12722)" y2="256.818" x2="210.004" y1="244.307" x1="205.206" id="linearGradient1428" xlink:href="#linearGradient2371" inkscape:collect="always"/>
<linearGradient gradientUnits="userSpaceOnUse" gradientTransform="scale(0.214 1.2648)" y2="235.856" x2="241.956" y1="222.08" x1="236.693" id="linearGradient1431" xlink:href="#linearGradient2371" inkscape:collect="always"/>
<linearGradient gradientUnits="userSpaceOnUse" gradientTransform="scale(0.203 1.3349)" y2="228.055" x2="283.527" y1="212.333" x1="273.189" id="linearGradient1434" xlink:href="#linearGradient2371" inkscape:collect="always"/>
<linearGradient gradientUnits="userSpaceOnUse" gradientTransform="matrix(0.244 0 0 1.19348 -12.568 0)" y2="234.823" x2="368.451" y1="223.832" x1="379.921" id="linearGradient1439" xlink:href="#linearGradient2371" inkscape:collect="always"/>
<linearGradient gradientUnits="userSpaceOnUse" gradientTransform="scale(0.266 1.0179)" y2="270.86" x2="354.94" y1="260.742" x1="365.039" id="linearGradient1442" xlink:href="#linearGradient2371" inkscape:collect="always"/>
<linearGradient gradientUnits="userSpaceOnUse" gradientTransform="scale(0.251 1.0777)" y2="255.465" x2="378.126" y1="244.896" x1="387.589" id="linearGradient1445" xlink:href="#linearGradient2371" inkscape:collect="always"/>
<linearGradient gradientUnits="userSpaceOnUse" gradientTransform="scale(0.304 .89027)" y2="233.356" x2="332.245" y1="237.003" x1="337.88" id="linearGradient1469" xlink:href="#linearGradient2371" inkscape:collect="always"/>
<linearGradient gradientUnits="userSpaceOnUse" gradientTransform="scale(0.28 .96642)" y2="93.799" x2="357.741" y1="159.549" x1="352.236" id="linearGradient1472" xlink:href="#linearGradient640" inkscape:collect="always"/>
<linearGradient gradientUnits="userSpaceOnUse" gradientTransform="scale(0.185 1.46185)" y2="136.17" x2="487.293" y1="132.618" x1="496.53" id="linearGradient1475" xlink:href="#linearGradient2371" inkscape:collect="always"/>
<linearGradient gradientUnits="userSpaceOnUse" gradientTransform="scale(0.336 .80663)" y2="264.831" x2="320.255" y1="270.485" x1="330.532" id="linearGradient1478" xlink:href="#linearGradient2371" inkscape:collect="always"/>
<radialGradient gradientUnits="userSpaceOnUse" gradientTransform="scale(.95194 1.05048)" r="135.74774" fy="521.81042" fx="546.18005" cy="521.81042" cx="546.18005" id="radialGradient1482" xlink:href="#linearGradient662" inkscape:collect="always"/>
<linearGradient gradientUnits="userSpaceOnUse" gradientTransform="scale(0.197 1.3781)" y2="41.589" x2="337.603" y1="36.658" x1="241.548" id="linearGradient1486" xlink:href="#linearGradient640" inkscape:collect="always"/>
<radialGradient gradientUnits="userSpaceOnUse" gradientTransform="scale(.73715 1.35658)" r="130.99049" fy="480.11084" fx="686.32983" cy="480.11084" cx="686.32983" id="radialGradient1490" xlink:href="#linearGradient715" inkscape:collect="always"/>
<linearGradient y2="23.338" x2="-423.042" y1="12.21" x1="-440.169" gradientTransform="matrix(0.198 0 0 1.3659 209.44 317.666)" gradientUnits="userSpaceOnUse" id="linearGradient1520" xlink:href="#linearGradient620" inkscape:collect="always"/>
<linearGradient y2="19.27" x2="-357.829" y1="6.875" x1="-376.905" gradientTransform="matrix(0.254 0 0 1.06823 209.44 317.666)" gradientUnits="userSpaceOnUse" id="linearGradient1523" xlink:href="#linearGradient620" inkscape:collect="always"/>
<radialGradient r="51.022169" fy="60.489850" fx="-1132.7913" cy="60.489850" cx="-1132.7913" gradientTransform="matrix(1.1104 0 0 .90058 773.302 317.666)" gradientUnits="userSpaceOnUse" id="radialGradient1526" xlink:href="#linearGradient662" inkscape:collect="always"/>
<linearGradient y2="2.245" x2="-280.606" y1="20.616" x1="-306.849" gradientTransform="matrix(0.304 0 0 .89014 209.44 317.666)" gradientUnits="userSpaceOnUse" id="linearGradient1529" xlink:href="#linearGradient658" inkscape:collect="always"/>
<linearGradient y2="69.644" x2="-318.654" y1="69.644" x1="-330.397" gradientTransform="matrix(0.242 0 0 1.11746 194.366 -51.047)" gradientUnits="userSpaceOnUse" id="linearGradient1533" xlink:href="#linearGradient634" inkscape:collect="always"/>
<linearGradient y2="64.396" x2="-360.954" y1="62.942" x1="-372.727" gradientTransform="matrix(0.246 0 0 1.10209 194.366 -51.047)" gradientUnits="userSpaceOnUse" id="linearGradient1536" xlink:href="#linearGradient634" inkscape:collect="always"/>
<radialGradient r="40.434400" fy="231.10815" fx="-1199.2501" cy="231.10815" cx="-1199.2501" gradientTransform="matrix(.95013 0 0 1.0525 717.645 -51.047)" gradientUnits="userSpaceOnUse" id="radialGradient1540" xlink:href="#linearGradient614" inkscape:collect="always"/>
<linearGradient y2="67.112" x2="-332.374" y1="55.624" x1="-341.994" gradientTransform="matrix(0.242 0 0 1.1179 194.366 -51.047)" gradientUnits="userSpaceOnUse" id="linearGradient1543" xlink:href="#linearGradient620" inkscape:collect="always"/>
<radialGradient r="53.494172" fy="204.52707" fx="-1293.6401" cy="204.52707" cx="-1293.6401" gradientTransform="matrix(.93287 0 0 1.07196 717.645 -51.047)" gradientUnits="userSpaceOnUse" id="radialGradient1547" xlink:href="#linearGradient614" inkscape:collect="always"/>
<linearGradient y2="46.945" x2="-335.614" y1="61.32" x1="-328.734" gradientTransform="matrix(0.253 0 0 1.06982 194.366 -51.047)" gradientUnits="userSpaceOnUse" id="linearGradient1550" xlink:href="#linearGradient2320" inkscape:collect="always"/>
<radialGradient r="181.62982" fy="513.59534" fx="-1053.5095" cy="515.31821" cx="-1050.8364" gradientTransform="matrix(1.13268 0 0 .88286 717.645 -51.047)" gradientUnits="userSpaceOnUse" id="radialGradient1553" xlink:href="#linearGradient584" inkscape:collect="always"/>
<radialGradient r="146.15178" fy="412.00216" fx="-1356.6848" cy="412.00216" cx="-1356.6848" gradientTransform="matrix(1.0257 0 0 .97494 717.645 -51.047)" gradientUnits="userSpaceOnUse" id="radialGradient1556" xlink:href="#linearGradient584" inkscape:collect="always"/>
<radialGradient r="146.15178" fy="412.00216" fx="-1356.6848" cy="412.00216" cx="-1356.6848" gradientTransform="matrix(1.0257 0 0 .97494 717.645 -51.047)" gradientUnits="userSpaceOnUse" id="radialGradient2347" xlink:href="#linearGradient584" inkscape:collect="always"/>
<radialGradient r="181.62982" fy="513.59534" fx="-1053.5095" cy="515.31821" cx="-1050.8364" gradientTransform="matrix(1.13268 0 0 .88286 717.645 -51.047)" gradientUnits="userSpaceOnUse" id="radialGradient2349" xlink:href="#linearGradient584" inkscape:collect="always"/>
<linearGradient y2="46.945" x2="-335.614" y1="61.32" x1="-328.734" gradientTransform="matrix(0.253 0 0 1.06982 194.366 -51.047)" gradientUnits="userSpaceOnUse" id="linearGradient2351" xlink:href="#linearGradient2320" inkscape:collect="always"/>
<radialGradient r="53.494172" fy="204.52707" fx="-1293.6401" cy="204.52707" cx="-1293.6401" gradientTransform="matrix(.93287 0 0 1.07196 717.645 -51.047)" gradientUnits="userSpaceOnUse" id="radialGradient2353" xlink:href="#linearGradient614" inkscape:collect="always"/>
<linearGradient y2="67.112" x2="-332.374" y1="55.624" x1="-341.994" gradientTransform="matrix(0.242 0 0 1.1179 194.366 -51.047)" gradientUnits="userSpaceOnUse" id="linearGradient2355" xlink:href="#linearGradient620" inkscape:collect="always"/>
<radialGradient r="40.434400" fy="231.10815" fx="-1199.2501" cy="231.10815" cx="-1199.2501" gradientTransform="matrix(.95013 0 0 1.0525 717.645 -51.047)" gradientUnits="userSpaceOnUse" id="radialGradient2357" xlink:href="#linearGradient614" inkscape:collect="always"/>
<linearGradient y2="64.396" x2="-360.954" y1="62.942" x1="-372.727" gradientTransform="matrix(0.246 0 0 1.10209 194.366 -51.047)" gradientUnits="userSpaceOnUse" id="linearGradient2359" xlink:href="#linearGradient634" inkscape:collect="always"/>
<linearGradient y2="69.644" x2="-318.654" y1="69.644" x1="-330.397" gradientTransform="matrix(0.242 0 0 1.11746 194.366 -51.047)" gradientUnits="userSpaceOnUse" id="linearGradient2361" xlink:href="#linearGradient634" inkscape:collect="always"/>
<linearGradient y2="2.245" x2="-280.606" y1="20.616" x1="-306.849" gradientTransform="matrix(0.304 0 0 .89014 209.44 317.666)" gradientUnits="userSpaceOnUse" id="linearGradient2363" xlink:href="#linearGradient658" inkscape:collect="always"/>
<radialGradient r="51.022169" fy="60.489850" fx="-1132.7913" cy="60.489850" cx="-1132.7913" gradientTransform="matrix(1.1104 0 0 .90058 773.302 317.666)" gradientUnits="userSpaceOnUse" id="radialGradient2365" xlink:href="#linearGradient662" inkscape:collect="always"/>
<linearGradient y2="19.27" x2="-357.829" y1="6.875" x1="-376.905" gradientTransform="matrix(0.254 0 0 1.06823 209.44 317.666)" gradientUnits="userSpaceOnUse" id="linearGradient2367" xlink:href="#linearGradient620" inkscape:collect="always"/>
<linearGradient y2="23.338" x2="-423.042" y1="12.21" x1="-440.169" gradientTransform="matrix(0.198 0 0 1.3659 209.44 317.666)" gradientUnits="userSpaceOnUse" id="linearGradient2369" xlink:href="#linearGradient620" inkscape:collect="always"/>
</defs>
<sodipodi:namedview id="base" pagecolor="#ffffff" bordercolor="#666666" borderopacity="1.0" inkscape:pageopacity="0.0" inkscape:pageshadow="2" inkscape:zoom="0.50187824" inkscape:cx="440.78858" inkscape:cy="543.61612" inkscape:window-width="1276" inkscape:window-height="734" inkscape:window-x="0" inkscape:window-y="0" showgrid="true" gridspacingx="3mm" gridspacingy="3mm" inkscape:current-layer="svg1"/>
<g id="g2377">
<path fill="#41da30" style="font-size:12.000000;fill-rule:evenodd;stroke:#000000;stroke-width:3.7500000" d="M 68.188,2.934 L 70.029,3.731 L 72.420,4.884 L 76.692,7.359 L 79.744,9.360 L 82.508,11.344 L 85.374,13.785 L 88.595,16.871 L 90.410,18.770 L 92.122,20.703 L 93.665,22.653 L 94.750,24.298 L 95.751,25.858 L 97.226,28.418 L 98.345,30.554 L 99.769,33.844 L 100.549,35.726 L 101.532,38.676 L 102.516,42.830 L 103.313,46.323 L 103.754,48.697 L 104.381,52.122 L 105.008,55.869 L 105.687,56.836 L 106.602,58.667 L 106.992,60.634 L 106.941,61.889 L 105.788,63.126 L 103.432,64.313 L 100.990,65.059 L 98.955,65.992 L 96.242,67.484 L 93.835,69.434 L 92.376,71.587 L 91.139,73.486 L 90.053,76.301 L 89.257,79.675 L 88.985,82.642 L 89.036,86.830 L 89.901,90.035 L 90.884,92.816 L 92.699,95.580 L 95.089,98.004 L 96.700,99.259 L 99.650,101.209 L 111.839,103.730 L 145.722,115.672 L 149.798,116.894 L 151.740,118.597 L 157.040,119.508 L 165.720,119.556 L 168.669,118.957 L 171.115,118.189 L 173.681,117.158 L 175.935,115.983 L 178.956,114.233 L 181.810,112.147 L 184.184,110.180 L 186.030,108.238 L 187.157,107.135 L 189.100,104.569 L 190.970,101.956 L 192.553,99.318 L 193.056,97.855 L 193.488,96.273 L 194.375,94.378 L 195.358,92.892 L 196.605,92.172 L 198.931,92.004 L 202.048,92.220 L 203.223,92.915 L 204.686,94.138 L 205.261,95.098 L 205.285,95.841 L 207.468,97.663 L 210.753,100.277 L 212.983,102.339 L 214.397,103.538 L 216.028,105.313 L 217.850,107.447 L 219.073,109.341 L 220.488,111.739 L 222.047,114.569 L 223.150,116.655 L 223.989,118.693 L 225.140,121.666 L 226.147,124.975 L 227.010,127.997 L 227.514,130.299 L 228.233,133.320 L 229.073,136.917 L 229.648,140.897 L 229.984,143.871 L 230.391,147.803 L 230.176,152.192 L 229.145,149.842 L 228.665,148.811 L 227.538,147.300 L 226.387,145.837 L 225.284,145.022 L 224.493,144.590 L 223.150,144.278 L 219.745,144.255 L 217.371,145.022 L 215.045,146.173 L 212.959,147.588 L 210.992,149.578 L 209.913,150.945 L 209.146,152.959 L 208.379,155.093 L 207.492,157.587 L 206.700,159.769 L 205.717,162.503 L 204.734,164.709 L 203.895,165.596 L 203.823,163.582 L 204.374,161.208 L 204.902,159.313 L 204.806,155.812 L 204.302,153.367 L 203.535,151.520 L 201.701,148.830 L 199.324,146.039 L 196.682,144.521 L 194.039,144.256 L 190.352,145.036 L 186.819,147.111 L 182.792,150.872 L 181.894,150.087 L 180.984,149.692 L 184.035,146.255 L 186.642,141.341 L 187.037,138.324 L 185.746,135.623 L 184.179,132.633 L 182.726,131.268 L 179.526,129.355 L 176.597,128.282 L 173.660,127.588 L 170.787,127.355 L 166.928,127.528 L 162.914,128.005 L 168.957,134.415 L 174.853,140.825 L 179.998,148.918 L 185.647,155.549 L 186.510,156.556 L 188.668,159.601 L 190.586,161.831 L 192.864,164.397 L 195.238,167.011 L 198.284,169.960 L 203.247,173.845 L 205.237,175.595 L 210.081,180.487 L 212.599,183.772 L 215.093,186.625 L 217.059,188.280 L 220.752,191.014 L 221.687,191.661 L 223.174,194.826 L 223.845,197.128 L 222.838,198.591 L 222.574,199.238 L 222.646,201.037 L 221.255,202.619 L 221.255,204.178 L 220.632,204.514 L 219.433,203.818 L 216.148,201.085 L 214.062,199.622 L 210.465,197.728 L 208.043,196.241 L 208.139,199.190 L 208.307,202.164 L 208.043,205.449 L 207.444,208.039 L 206.604,210.317 L 205.405,213.482 L 204.974,216.191 L 203.727,217.702 L 201.689,219.237 L 199.914,220.004 L 196.509,220.220 L 194.807,220.436 L 193.823,220.100 L 193.943,215.592 L 194.855,212.403 L 196.269,209.549 L 196.701,208.590 L 194.998,210.628 L 193.320,212.115 L 191.953,213.050 L 190.370,213.002 L 188.116,211.420 L 186.965,209.765 L 187.445,207.583 L 188.692,204.178 L 189.507,202.499 L 189.675,197.943 L 188.980,195.594 L 186.246,189.767 L 183.752,184.180 L 182.721,181.518 L 181.690,176.242 L 180.851,172.646 L 179.028,169.097 L 178.669,167.994 L 178.213,166.219 L 176.774,163.725 L 175.983,162.455 L 174.305,159.697 L 172.626,157.059 L 170.852,154.446 L 168.861,151.352 L 166.751,147.755 L 164.929,144.998 L 163.226,142.360 L 161.092,139.675 L 159.605,138.188 L 158.023,136.869 L 155.769,135.670 L 152.436,134.303 L 149.031,132.505 L 146.489,131.114 L 146.153,130.778 L 144.595,130.778 L 146.585,132.217 L 149.294,134.327 L 150.925,135.670 L 153.275,138.284 L 155.193,140.826 L 156.608,142.576 L 158.023,144.111 L 160.301,146.221 L 162.147,148.115 L 163.970,150.345 L 165.768,152.623 L 167.495,155.501 L 168.861,157.779 L 170.156,160.632 L 171.235,163.390 L 172.314,166.507 L 173.297,169.025 L 173.777,170.440 L 174.616,173.509 L 175.360,177.034 L 175.935,179.647 L 176.463,183.748 L 176.559,190.606 L 176.175,194.538 L 175.911,197.584 L 175.264,200.461 L 174.616,203.075 L 173.801,205.449 L 172.986,207.415 L 171.955,209.070 L 170.132,211.372 L 168.214,213.506 L 166.487,216.167 L 165.528,217.870 L 164.929,219.764 L 164.713,221.515 L 164.761,223.745 L 165.744,226.622 L 167.183,228.589 L 170.420,232.473 L 173.058,235.758 L 173.633,236.502 L 175.456,239.451 L 177.901,243.384 L 179.052,245.014 L 180.923,247.340 L 183.656,249.834 L 185.838,251.201 L 189.699,253.095 L 194.279,255.181 L 196.101,256.620 L 196.509,257.363 L 195.886,258.682 L 193.200,260.840 L 193.056,262.399 L 192.073,261.728 L 189.915,263.454 L 187.733,265.660 L 185.191,268.705 L 184.136,270.792 L 184.040,271.391 L 186.774,272.398 L 185.647,273.022 L 183.297,273.165 L 181.043,272.326 L 180.395,270.144 L 179.796,268.178 L 177.590,264.653 L 175.959,263.190 L 174.760,263.142 L 173.393,264.030 C 173.393,264.030 172.290,265.348 172.194,265.444 C 172.098,265.540 170.348,267.986 170.348,267.986 L 169.437,270.408 L 169.341,272.326 L 172.027,274.293 L 170.300,274.293 L 159.222,270.000 L 155.145,267.962 L 151.117,265.109 L 148.311,262.255 L 146.945,260.193 L 145.362,257.291 L 142.604,249.906 L 140.614,243.983 L 138.816,239.091 L 136.682,233.768 L 135.195,229.308 L 134.427,225.112 L 134.619,222.018 L 135.866,219.884 L 137.713,218.038 L 140.326,216.623 L 142.796,216.287 L 145.266,216.575 L 145.458,216.239 L 146.249,210.005 L 146.201,206.336 L 145.338,202.332 L 143.300,197.656 L 142.317,195.498 L 139.007,197.200 L 134.046,199.590 L 129.674,201.388 L 125.008,203.039 L 120.341,204.985z" id="path632" sodipodi:nodetypes="ccccccccccccccccccccccccccccccccccccccccccccccccccccccccccccccccccccccccccccccccccccccccccccccccccccccccccccccccccccccccccccccccccccccccccccccccccccccccccccccccccccccccccccccccccccccccccccccccccccccccccccccccccccccccccccccccccccccccccccccccccccccccccccccccccccccccccccccccccccccccccccccccccccccccccccccccccccccccccccccccccccccccccccc"/>
<path fill="#3fd930" style="font-size:12.000000;fill-rule:evenodd;stroke:#000000;stroke-width:0.0000000" d="M 67.630,3.191 L 69.568,9.368 L 71.506,15.544 L 73.443,21.721 L 75.381,27.898 L 77.319,34.074 L 79.257,40.251 L 81.195,46.428 L 83.133,52.604 L 85.071,58.781 L 87.008,64.958 L 88.946,71.134 L 87.339,81.447 L 85.731,86.442 L 85.896,93.801 L 91.380,98.795 L 98.636,102.018 L 100.573,108.194 L 102.511,114.371 L 104.449,120.548 L 106.387,126.724 L 108.325,132.901 L 110.263,139.078 L 112.201,145.254 L 114.138,151.431 L 116.076,157.608 L 118.014,163.784 L 119.952,169.961 L 121.890,176.138 L 123.828,182.314 L 125.766,188.491 L 127.704,194.668 L 129.641,200.844 L 121.503,204.778 L 109.701,209.865 L 106.989,215.901 L 104.750,220.242 L 101.156,225.600 L 98.239,229.669 L 94.102,235.841 L 90.915,242.013 L 89.151,247.371 L 88.744,251.033 L 89.151,256.527 L 91.389,264.801 L 93.017,271.245 L 93.627,275.517 L 93.831,279.926 L 93.424,284.470 L 92.203,288.404 L 90.711,290.506 L 87.388,292.677 L 75.587,290.845 L 74.569,290.303 L 71.789,289.692 L 68.194,289.421 L 63.650,289.218 L 60.666,289.489 L 59.445,289.421 L 49.407,286.098 L 45.066,284.809 L 40.658,283.792 L 31.163,270.770 L 31.502,267.243 L 32.723,264.394 L 35.775,262.088 L 43.032,257.883 L 45.541,256.391 L 52.188,251.237 L 59.919,247.100 L 62.972,245.201 L 67.516,241.063 L 69.957,237.062 L 71.856,231.093 L 72.602,227.363 L 73.077,222.073 L 74.094,218.139 L 76.536,210.679 L 76.807,209.255 L 76.740,195.893 L 71.382,195.012 L 63.446,194.130 L 52.188,192.570 L 47.779,191.756 L 42.964,190.400 L 37.538,188.162 L 25.737,181.651 L 21.803,178.463 L 16.920,174.326 L 13.664,170.392 L 10.205,164.695 L 8.713,160.354 L 8.374,157.709 L 9.052,156.963 L 10.544,157.438 L 13.257,159.744 L 15.631,162.118 L 15.975,163.343 L 20.786,168.222 L 21.667,167.883 L 22.753,168.425 L 22.814,168.969 L 22.956,169.714 L 28.178,171.545 L 30.417,171.477 L 31.631,171.689 L 33.643,172.445 L 34.893,171.613 L 34.757,172.359 L 37.741,173.648 L 42.150,174.733 L 43.235,174.122 L 43.235,173.648 L 43.845,174.258 L 44.421,174.539 L 44.795,174.597 L 44.998,175.207 L 52.459,173.715 L 53.273,172.766 L 54.426,173.444 L 56.103,173.448 L 57.274,172.698 L 57.478,172.088 L 60.462,171.409 L 64.531,169.714 L 65.345,168.900 L 66.513,169.089 L 68.025,168.314 L 68.736,166.797 L 69.483,166.594 L 71.856,165.712 L 74.569,164.152 L 76.197,162.050 L 77.079,162.118 L 78.008,161.717 L 78.232,161.575 L 78.639,159.337 L 82.030,157.370 L 84.743,155.132 L 85.624,154.182 L 73.250,85.208 L 66.772,73.627 L 64.021,69.954 L 62.217,68.704 L 60.065,68.566 L 57.150,69.745 L 54.791,71.758 L 54.721,70.578 L 57.497,66.831 L 60.829,63.222 L 62.633,58.641 L 63.327,55.033 L 63.327,49.828 L 62.425,45.802 L 61.453,43.512 L 59.441,40.667 L 57.081,39.140 L 54.305,38.307 L 51.737,38.654 L 50.349,38.654 L 50.557,38.030 L 53.958,36.433 L 59.718,34.837 L 60.829,34.490 L 64.021,31.784 L 66.172,28.938 L 68.532,24.844 L 70.267,20.263 L 71.030,15.336 L 70.815,12.151 L 69.332,8.118 L 68.152,5.502 L 67.630,3.885 L 67.630,3.191z" id="path641" sodipodi:nodetypes="cccccccccccccccccccccccccccccccccccccccccccccccccccccccccccccccccccccccccccccccccccccccccccccccccccccccccccccccccccccccccccccccccccccccccccccccccccccccccccccccccccccccccccccc"/>
<path fill="" style="font-size:12.000000;fill-rule:evenodd;stroke:#000000;stroke-width:3.7500000" d="M 129.641,201.435 L 121.503,205.369 L 109.701,210.456 L 106.989,216.492 L 104.750,220.833 L 101.156,226.191 L 98.239,230.260 L 94.102,236.432 L 90.915,242.604 L 89.151,247.962 L 88.744,251.624 L 89.151,257.118 L 91.389,265.392 L 93.017,271.835 L 93.627,276.108 L 93.831,280.517 L 93.424,285.061 L 92.203,288.995 L 90.711,291.097 L 87.388,293.267 L 75.587,291.436 L 74.569,290.894 L 71.789,290.283 L 68.194,290.012 L 63.650,289.808 L 60.666,290.080 L 59.445,290.012 L 49.407,286.689 L 45.066,285.400 L 40.658,284.383 L 31.163,271.361 L 31.502,267.834 L 32.723,264.985 L 35.775,262.679 L 43.032,258.474 L 45.541,256.982 L 52.188,251.828 L 59.919,247.691 L 62.972,245.791 L 67.516,241.654 L 69.957,237.653 L 71.856,231.684 L 72.602,227.954 L 73.077,222.664 L 74.094,218.730 L 76.536,211.270 L 76.807,209.845 L 76.740,196.484 L 71.382,195.603 L 63.446,194.721 L 52.188,193.161 L 47.779,192.347 L 42.964,190.991 L 37.538,188.753 L 25.737,182.242 L 21.803,179.054 L 16.920,174.917 L 13.664,170.983 L 10.205,165.286 L 8.713,160.945 L 8.374,158.300 L 9.052,157.554 L 10.544,158.029 L 13.257,160.335 L 15.631,162.709 L 15.975,163.934 L 20.786,168.813 L 21.667,168.473 L 22.753,169.016 L 22.814,169.560 L 22.956,170.305 L 28.178,172.136 L 30.417,172.068 L 31.631,172.280 L 33.643,173.036 L 34.893,172.204 L 34.757,172.950 L 37.741,174.238 L 42.150,175.324 L 43.235,174.713 L 43.235,174.238 L 43.845,174.849 L 44.421,175.130 L 44.795,175.188 L 44.998,175.798 L 52.459,174.306 L 53.273,173.357 L 54.426,174.035 L 56.103,174.039 L 57.274,173.289 L 57.478,172.679 L 60.462,172.000 L 64.531,170.305 L 65.345,169.491 L 66.513,169.680 L 68.025,168.905 L 68.736,167.388 L 69.483,167.185 L 71.856,166.303 L 74.569,164.743 L 76.197,162.641 L 77.079,162.709 L 78.008,162.308 L 78.232,162.166 L 78.639,159.928 L 82.030,157.961 L 84.743,155.723 L 85.624,154.773 L 73.250,85.799 L 66.772,74.218 L 64.021,70.544 L 62.217,69.295 L 60.065,69.156 L 57.150,70.336 L 54.791,72.349 L 54.721,71.169 L 57.497,67.421 L 60.829,63.813 L 62.633,59.232 L 63.327,55.623 L 63.327,50.418 L 62.425,46.393 L 61.453,44.103 L 59.441,41.258 L 57.081,39.731 L 54.305,38.898 L 51.737,39.245 L 50.349,39.245 L 50.557,38.621 L 53.958,37.024 L 59.718,35.428 L 60.829,35.081 L 64.021,32.375 L 66.172,29.529 L 68.532,25.435 L 70.267,20.854 L 71.030,15.927 L 70.815,12.742 L 69.332,8.709 L 68.152,6.092 L 67.630,4.476 L 67.630,3.782z" id="path753" sodipodi:nodetypes="cccccccccccccccccccccccccccccccccccccccccccccccccccccccccccccccccccccccccccccccccccccccccccccccccccccccccccccccccccccccccccccccccccccccccccccc"/>
<path fill="url(#radialGradient1490) " style="fill-opacity:1.0;stroke-width:2.5000000;stroke:#000000;fill-rule:evenodd;font-size:12.000000" d="M 151.365,153.370 C 153.030,164.026 153.729,172.170 151.634,179.727 C 150.586,183.506 149.421,187.428 147.039,189.991 C 144.656,192.555 139.893,194.456 137.696,195.587 C 135.266,196.021 131.677,195.353 127.695,193.774 C 123.713,192.196 119.804,189.706 117.664,186.496 C 113.385,180.077 109.672,172.172 111.264,161.283 C 111.827,155.489 111.606,150.768 113.248,144.383 C 114.998,139.526 116.925,135.215 117.042,131.437 C 117.526,123.609 122.864,118.769 127.724,117.902 C 132.584,117.035 137.661,120.574 141.940,126.993 C 146.220,133.413 149.700,142.713 151.365,153.370z" id="path713" sodipodi:nodetypes="csscsscsscsc"/>
<path fill="#3fd930" style="font-size:12.000000;fill-rule:evenodd;stroke:#000000;stroke-width:3.7500000" d="M 96.900,155.161 L 100.738,153.087 L 102.366,150.529 L 103.529,147.970 L 105.157,144.946 L 107.135,145.179 L 109.693,144.539 L 112.310,142.911 L 114.752,141.167 L 117.078,139.422 L 118.532,138.259 L 119.811,138.085 L 121.032,138.085 L 122.021,138.201 L 123.126,138.492 L 116.380,130.234 L 115.857,131.630 L 115.043,132.793 L 113.880,134.072 L 112.135,135.468 L 109.868,136.843 L 107.890,137.812 L 106.320,138.568 L 103.842,139.410 L 101.237,140.030 L 100.702,143.434 L 100.702,144.734 L 100.469,146.274 L 100.216,147.854 L 100.032,149.366z" id="path700" sodipodi:nodetypes="cccccccccccccccccccccccccccccc"/>
<path fill="url(#linearGradient1486) " style="stroke-width:2.5000000;stroke:#000000;fill-rule:evenodd;fill-opacity:1.0;font-size:12.000000" d="M 103.771,101.727 L 100.261,101.307 L 96.672,100.061 L 94.287,98.116 L 92.028,95.920 L 90.459,93.159 L 89.330,90.209 L 88.577,86.570 L 88.702,81.675 L 89.267,78.036 L 90.397,74.710 L 91.777,72.200 L 93.032,70.255 L 94.997,68.866 L 97.695,67.070 L 100.069,65.709 L 102.633,64.795 L 104.892,63.791 L 106.335,62.913 L 106.814,62.043 L 106.649,60.152 L 106.041,57.960 L 104.912,56.125 L 104.366,54.175 L 103.782,50.841 L 102.986,46.096 L 101.871,41.282 L 100.911,36.997 L 99.385,33.275 L 97.754,29.969 L 96.181,26.992 L 94.647,24.309 L 92.623,21.580 L 90.737,19.317 L 88.499,17.030 L 85.705,14.182 L 82.775,11.520 L 79.530,9.261 L 76.086,6.976 L 72.200,4.736 L 67.796,2.545 L 67.144,3.120 L 67.555,4.116 L 70.693,6.500 L 77.282,11.771 L 81.800,15.913 L 85.628,20.117 L 87.949,23.129 L 90.146,26.204 L 92.342,30.220 L 93.597,33.357 L 94.664,37.499 L 95.103,40.511 L 95.730,45.029 L 93.597,42.456 L 91.087,39.695 L 88.828,37.876 L 86.255,36.056 L 82.804,34.424 L 79.102,33.232 L 76.592,32.855 L 69.187,32.918 L 65.296,33.608 L 61.845,34.299 L 57.829,35.303 L 53.750,36.683 L 50.362,38.189 L 50.236,38.880 L 52.307,38.880 L 55.884,38.127 L 60.276,37.374 L 65.798,36.558 L 71.383,36.181 L 76.403,36.558 L 80.859,37.436 L 83.055,38.378 L 85.063,39.946 L 86.883,41.766 L 88.828,43.962 L 90.397,46.347 L 92.467,49.924 L 93.534,52.685 L 93.660,54.065 L 91.087,53.375 L 88.012,52.183 L 85.063,51.367 L 81.486,50.990 L 78.035,51.116 L 74.709,52.245 L 71.258,53.814 L 68.999,55.508 L 66.740,57.579 L 64.292,59.964 L 61.343,63.038 L 58.519,66.050 L 56.009,68.749 L 54.629,70.694 L 54.378,71.886 L 55.005,71.886 L 57.766,69.000 L 60.778,66.176 L 64.041,63.352 L 67.179,60.591 L 70.630,57.956 L 74.144,56.136 L 77.596,55.006 L 80.106,54.504 L 83.118,54.944 L 85.188,55.383 L 86.883,56.073 L 89.769,57.893 L 91.714,60.528 L 91.777,62.097 L 89.518,64.733 L 87.447,67.431 L 85.628,70.443 L 84.184,73.455 L 83.243,76.404 L 82.616,79.605 L 81.863,83.432 L 81.674,86.068 L 81.737,89.519 L 82.678,93.723 L 85.502,98.367 L 88.953,102.760 L 94.664,107.591 L 99.746,110.603 L 103.871,101.718z" id="path638" sodipodi:nodetypes="cccccccccccccccccccccccccccccccccccccccccccccccccccccccccccccccccccccccccccccccccccccccccccccccccccccccccccccccccccccccccccccccc"/>
<path fill="" style="font-size:12.000000;fill-opacity:0.75000000;fill-rule:evenodd;stroke:#000000;stroke-width:3.7500000" d="M 151.498,116.417 L 153.870,119.320 L 160.526,126.275 L 166.995,132.194 L 173.456,138.963 L 177.053,143.872 L 179.367,147.192 L 182.844,152.372 L 185.688,155.598 L 186.551,156.605 L 188.709,159.650 L 190.627,161.880 L 192.905,164.446 L 195.279,167.060 L 198.325,170.009 L 203.288,173.894 L 205.279,175.644 L 210.122,180.536 L 212.640,183.821 L 215.134,186.674 L 217.100,188.329 L 220.793,191.063 L 221.728,191.710 L 223.215,194.875 L 223.886,197.177 L 222.879,198.640 L 222.615,199.287 L 222.687,201.086 L 221.297,202.668 L 221.297,204.227 L 220.673,204.563 L 219.474,203.867 L 216.189,201.134 L 214.103,199.671 L 210.506,197.777 L 208.084,196.290 L 208.180,199.239 L 208.348,202.213 L 208.084,205.498 L 207.485,208.088 L 206.645,210.366 L 205.446,213.531 L 205.015,216.240 L 203.768,217.751 L 201.730,219.286 L 199.955,220.053 L 196.550,220.269 L 194.848,220.485 L 193.865,220.149 L 193.985,215.641 L 194.896,212.452 L 196.310,209.598 L 196.742,208.639 L 195.040,210.677 L 193.361,212.164 L 191.994,213.099 L 190.412,213.051 L 188.158,211.469 L 187.007,209.814 L 187.486,207.632 L 188.733,204.227 L 189.548,202.548 L 189.716,197.992 L 189.021,195.643 L 186.287,189.816 L 183.793,184.229 L 182.762,181.567 L 181.731,176.291 L 180.892,172.695 L 179.070,169.146 L 178.710,168.043 L 178.254,166.268 L 176.816,163.774 L 176.024,162.504 L 174.346,159.746 L 172.667,157.108 L 170.893,154.495 L 168.902,151.401 L 166.792,147.804 L 164.970,145.047 L 163.267,142.409 L 161.133,139.724 L 159.647,138.237 L 158.064,136.918 L 155.810,135.719 L 152.477,134.352 L 149.072,132.554 L 146.530,131.163 L 146.194,130.827 L 143.929,130.130 L 138.705,126.186z" id="path651" sodipodi:nodetypes="ccccccccccccccccccccccccccccccccccccccccccccccccccccccccccccccccccccccccccccccccccccccccccc"/>
<path fill="url(#radialGradient1482) " style="fill-opacity:1.0;stroke-width:3.7500000;stroke:#000000;fill-rule:evenodd;font-size:12.000000" d="M 112.584,95.791 L 109.095,96.140 L 105.955,97.071 L 104.327,97.652 L 101.652,99.978 L 98.977,105.444 L 99.093,106.375 L 100.024,111.027 L 105.257,118.121 L 114.445,130.681 L 116.538,133.124 L 122.121,137.892 L 125.145,140.218 L 128.982,142.660 L 131.425,144.172 L 138.403,148.126 L 141.775,149.638 L 145.730,150.569 L 146.427,148.708 L 145.148,140.450 L 144.450,132.775 L 146.079,125.215 L 147.358,119.865 L 147.358,118.819 L 148.521,112.887 L 144.799,99.048 L 112.584,95.791z" id="path643"/>
<path fill="#ffffff" style="font-size:12.000000;fill-rule:evenodd;stroke:#000000;stroke-width:2.5000000" d="M 133.772,138.585 L 129.496,141.217 L 122.917,121.809 L 126.535,120.329 L 130.318,128.388 L 133.772,118.355 L 137.391,117.204 L 136.404,125.263 L 135.581,128.717 L 143.641,136.612 L 140.680,138.092 L 131.141,131.020 L 133.772,138.585z" id="path649"/>
<path fill="url(#linearGradient1478) " style="font-size:12.000000;fill-opacity:1.0;fill-rule:evenodd;stroke:#000000;stroke-width:2.5000000" d="M 193.273,220.479 L 193.931,220.726 L 194.959,220.561 L 196.192,220.561 L 198.536,220.520 L 199.687,220.232 L 200.962,219.739 L 201.620,219.204 L 202.977,217.930 L 202.483,219.122 L 202.113,219.739 L 201.250,220.890 L 200.345,222.165 L 199.153,223.234 L 198.207,224.056 L 197.426,224.632 L 196.110,225.125 L 195.205,225.331 L 192.880,225.714 L 191.204,225.542 L 190.650,225.213 L 191.662,224.035 L 192.546,222.542 L 192.944,221.137 L 193.273,220.479z" id="path653" sodipodi:nodetypes="ccccccccccccccccccccccccc"/>
<path fill="url(#linearGradient1475) " style="stroke-width:2.5000000;stroke:#000000;fill-rule:evenodd;fill-opacity:1.0;font-size:12.000000" d="M 220.491,205.115 L 221.478,205.732 L 222.300,206.472 L 223.081,207.417 L 223.739,208.363 L 224.191,209.103 L 224.561,208.733 L 225.137,208.075 L 225.672,207.212 L 226.247,206.225 L 226.535,204.909 L 226.576,203.635 L 226.494,202.113 L 226.206,200.838 L 225.713,199.728 L 225.055,198.495 L 224.397,197.302 L 223.780,196.398 L 223.122,195.616 L 222.917,195.329 L 223.081,196.521 L 223.122,197.590 L 222.177,199.893 L 222.300,200.797 L 222.012,201.743 L 221.025,203.059 L 220.943,204.662 L 220.491,205.115z" id="path657"/>
<path fill="url(#linearGradient1472) " style="font-size:12.000000;fill-rule:evenodd;stroke:#000000;stroke-width:1.0000000pt;fill-opacity:1.0" d="M 151.817,118.742 L 155.539,121.882 L 158.679,124.906 L 161.354,127.465 L 164.726,127.232 L 169.960,126.418 L 174.030,125.139 L 177.868,122.929 L 181.939,120.022 L 185.777,116.649 L 190.080,112.695 L 193.918,108.043 L 195.430,105.949 L 197.290,106.066 L 198.221,107.229 L 198.802,109.555 L 199.384,112.578 L 199.384,114.323 L 199.384,116.765 L 199.384,119.556 L 199.068,122.549 L 198.575,124.934 L 197.506,128.141 L 196.108,131.184 L 194.956,133.158 L 193.640,135.296 L 192.078,137.599 L 190.022,140.230 L 188.213,142.451 L 186.733,144.260 L 184.841,146.316 L 182.210,148.947 L 181.469,149.934 L 182.045,150.921 L 183.608,149.605 L 186.075,147.385 L 188.295,144.918 L 190.762,142.368 L 193.640,139.408 L 196.354,136.118 L 197.917,133.733 L 200.466,128.881 L 202.111,124.441 L 202.851,121.151 L 203.509,117.533 L 203.673,114.572 L 203.756,111.118 L 203.591,108.734 L 203.180,105.937 L 204.742,107.993 L 207.045,112.187 L 208.525,115.559 L 209.759,119.589 L 210.581,124.030 L 210.992,127.648 L 210.581,132.418 L 210.252,135.789 L 209.677,139.983 L 208.936,144.589 L 207.867,148.865 L 207.045,152.319 L 205.976,156.513 L 204.660,160.707 L 203.591,164.490 L 203.838,165.723 L 204.167,165.723 L 205.400,163.174 L 207.210,158.733 L 208.443,155.444 L 209.677,151.332 L 210.499,148.783 L 211.897,143.602 L 212.884,138.997 L 213.542,134.391 L 214.035,128.881 L 214.035,122.878 L 213.459,119.589 L 212.473,115.477 L 211.075,111.447 L 210.170,108.898 L 208.525,105.691 L 210.088,106.184 L 212.226,107.829 L 213.871,109.720 L 215.186,111.201 L 216.831,113.339 L 218.394,115.724 L 220.203,119.342 L 221.848,122.632 L 223.246,126.743 L 224.726,130.855 L 226.288,136.283 L 227.193,140.230 L 228.344,144.506 L 229.167,147.549 L 229.907,151.990 L 230.318,152.154 L 230.647,150.181 L 230.153,145.247 L 229.496,140.888 L 228.673,136.118 L 227.851,131.678 L 226.535,126.332 L 224.973,121.151 L 223.575,117.944 L 221.272,113.092 L 218.229,108.240 L 214.446,103.964 L 210.334,100.099 L 206.058,96.645 L 205.236,95.822 L 205.071,94.671 L 204.496,94.013 L 202.686,92.780 L 201.042,92.122 L 197.012,92.286 L 196.025,92.615 L 194.956,93.684 L 193.805,96.069 L 193.147,97.714 L 192.818,99.276 L 190.844,102.401 L 188.213,106.020 L 186.486,108.076 L 184.348,110.296 L 181.881,112.434 L 179.496,114.243 L 175.795,116.464 L 172.999,117.697 L 170.203,118.766 L 166.256,119.589 L 161.486,119.753 L 156.552,119.507 L 154.085,119.178 L 151.875,118.800z" id="path648"/>
<path fill="url(#linearGradient1469) " style="font-size:12.000000;fill-opacity:1.0;fill-rule:evenodd;stroke:#000000;stroke-width:2.5000000" d="M 186.442,209.715 L 186.079,211.905 L 185.541,213.650 L 185.312,215.029 L 185.705,215.678 L 187.760,215.851 L 189.964,215.632 L 191.274,214.765 L 192.381,213.615 L 193.029,212.722 L 193.232,212.505 L 191.070,213.481 L 189.907,213.455 L 188.744,212.930 L 187.607,211.741 L 187.146,210.998 L 186.442,209.715z" id="path658"/>
<path sodipodi:type="arc" style="stroke-width:1.0000000pt;stroke:#000000;fill-rule:evenodd;font-size:12.000000" id="path647" sodipodi:cx="-504.12310791" sodipodi:cy="251.30455017" sodipodi:rx="82.44602966" sodipodi:ry="17.82036591" d="M -114.207,68.063 A 22.330,4.826 0 1 0 -158.866,68.063 A 22.330,4.826 0 1 0 -114.207,68.063 L -136.536,68.063z" transform="matrix(.59896 0 0 .895 733.022 150.472)"/>
<g transform="translate(268.426 3.782)" id="g2326">
<path fill="#00c427" style="font-size:12.000000;fill-rule:evenodd;stroke:#000000;stroke-width:5.8461599" d="M -161.263,73.387 L -152.934,101.307 L -136.918,68.361 L -161.263,73.387z" id="path654"/>
<path fill="#fff845" style="font-size:12.000000;fill-rule:evenodd;stroke:#000000;stroke-width:3.7500000" d="M -111.754,42.673 L -110.328,38.569 L -109.309,34.844 L -108.500,30.403 L -107.904,26.184 L -107.765,24.351 L -108.287,23.249 L -108.732,22.821 L -109.180,23.331 L -109.685,24.256 L -110.129,24.984 L -111.214,26.378 L -112.534,28.060 L -114.746,29.825 L -117.270,32.358 L -119.206,34.858 L -116.125,37.481 L -113.613,40.071 L -111.754,42.673z" id="path595"/>
<path fill="#fff845" style="font-size:12.000000;fill-rule:evenodd;stroke:#000000;stroke-width:3.7500000" d="M -144.540,33.537 L -144.678,29.195 L -144.540,25.335 L -143.989,20.855 L -143.299,16.651 L -142.886,14.859 L -142.059,13.963 L -141.507,13.687 L -141.232,14.307 L -141.025,15.341 L -140.818,16.168 L -140.198,17.823 L -139.440,19.821 L -137.854,22.165 L -136.200,25.335 L -135.097,28.299 L -138.819,29.884 L -141.990,31.607 L -144.540,33.537z" id="path575"/>
<path fill="#5edc38" style="font-size:12.000000;fill-rule:evenodd;stroke:#000000;stroke-width:3.7500000" d="M -168.621,79.121 L -168.969,79.899 L -169.353,78.748 L -169.161,77.021 L -167.627,72.801 L -163.790,66.854 L -152.088,50.740 L -150.362,47.287 L -149.403,43.259 L -148.443,39.422 L -147.484,36.736 L -144.223,32.516 L -140.770,29.830 L -136.550,27.912 L -134.248,27.145 L -131.179,26.569 L -128.493,26.569 L -125.807,27.337 L -123.313,28.871 L -121.587,31.557 L -120.052,32.132 L -116.407,31.365 L -112.571,31.749 L -109.885,33.475 L -107.391,35.585 L -105.665,38.271 L -102.212,44.601 L -101.445,49.973 L -101.828,53.426 L -102.787,58.222 L -104.130,61.866 L -95.498,65.127 L -91.853,65.511 L -89.935,67.621 L -88.976,72.225 L -88.976,75.486 L -89.359,77.405 L -90.702,79.131 L -91.086,81.817 L -90.702,85.078 L -90.127,88.915 L -92.045,101.192 L -94.539,102.918 L -97.992,102.918 L -102.787,101.959 L -104.130,101.576 L -113.914,98.506 L -117.750,96.972 L -135.399,91.792 L -146.717,87.955 L -151.513,85.845 L -154.390,83.160 L -155.733,80.090 L -155.541,76.829 L -154.390,74.527 L -159.378,74.911 L -164.557,76.829 L -168.394,79.515 L -168.538,79.227 L -168.538,79.227 L -168.538,79.227 L -168.538,79.227z" id="path581"/>
<path fill="url(#radialGradient2347) " style="font-size:12.000000;fill-rule:evenodd;stroke:#000000;stroke-width:3.7500000" d="M -168.621,79.121 L -168.969,79.899 L -169.353,78.748 L -169.161,77.021 L -167.627,72.801 L -163.790,66.854 L -152.088,50.740 L -150.362,47.287 L -149.403,43.259 L -148.443,39.422 L -147.484,36.736 L -144.223,32.516 L -140.770,29.830 L -136.550,27.912 L -134.248,27.145 L -131.179,26.569 L -128.493,26.569 L -125.807,27.337 L -123.313,28.871 L -121.587,31.557 L -120.052,32.132 L -116.407,31.365 L -112.571,31.749 L -109.885,33.475 L -107.391,35.585 L -105.665,38.271 L -102.212,44.601 L -101.445,49.973 L -101.828,53.426 L -102.787,58.222 L -104.130,61.866 L -95.498,65.127 L -91.853,65.511 L -89.935,67.621 L -88.976,72.225 L -88.976,75.486 L -89.359,77.405 L -90.702,79.131 L -91.086,81.817 L -90.702,85.078 L -90.127,88.915 L -92.045,101.192 L -94.539,102.918 L -97.992,102.918 L -102.787,101.959 L -104.130,101.576 L -113.914,98.506 L -117.750,96.972 L -135.399,91.792 L -146.717,87.955 L -151.513,85.845 L -154.390,83.160 L -155.733,80.090 L -155.541,76.829 L -154.390,74.527 L -159.378,74.911 L -164.557,76.829 L -168.394,79.515 L -168.538,79.227 L -168.538,79.227 L -168.538,79.227 L -168.538,79.227z" id="path583"/>
<path fill="url(#radialGradient2349) " style="font-size:12.000000;fill-rule:evenodd;stroke:#000000;stroke-width:2.6250000" d="M -131.726,52.670 L -95.101,64.811 L -91.981,65.014 L -90.625,66.438 L -89.404,69.219 L -88.997,72.068 L -89.065,75.527 L -90.422,78.240 L -90.896,79.189 L -91.032,82.851 L -90.625,85.768 L -90.218,88.549 L -90.218,91.465 L -90.761,94.924 L -91.507,97.976 L -91.507,99.604 L -92.863,101.910 L -93.948,102.452 L -95.440,102.859 L -97.950,102.724 L -101.477,101.978 L -111.379,98.858 L -118.025,96.755 L -124.469,94.720 L -132.268,92.279 L -142.781,89.091 L -148.681,86.785 L -151.733,85.225 L -154.718,82.716 L -155.938,80.342 L -155.735,78.104 L -154.107,73.492 L -144.612,59.453 L -142.238,56.129 L -139.593,53.349 L -136.880,51.246 L -134.574,50.839 L -133.082,51.382 L -131.726,52.670z" id="path597"/>
<path fill="url(#linearGradient2351) " style="font-size:12.000000;fill-opacity:1.0000000;fill-rule:evenodd;stroke:#000000;stroke-width:2.5000000" d="M -132.626,28.026 L -129.844,27.978 L -128.885,28.266 L -127.926,28.458 L -126.966,28.889 L -125.720,29.465 L -124.617,30.472 L -123.466,31.335 L -122.938,32.294 L -121.883,33.781 L -121.212,35.363 L -120.636,36.946 L -120.540,38.049 L -120.540,40.879 L -120.924,45.003 L -121.547,48.024 L -122.650,51.046 L -123.753,53.635 L -124.521,55.026 L -131.379,52.868 L -133.641,51.244 L -135.263,50.933 L -137.229,51.429 L -138.764,52.628 L -139.244,52.676 L -140.635,51.381 L -142.025,49.655 L -142.841,48.264 L -143.512,46.250 L -143.896,44.667 L -144.087,42.509 L -143.896,39.296 L -142.889,36.275 L -141.642,34.212 L -141.018,33.109 L -139.723,31.767 L -138.333,30.472 L -135.839,28.985 L -133.681,28.314 L -132.626,28.026z" id="path599" sodipodi:nodetypes="cccccccccccccccccccccccccccccccccccccccc"/>
<path fill="url(#radialGradient2353) " style="font-size:12.000000;fill-rule:evenodd;stroke:#000000;stroke-width:2.5000000" d="M -138.372,42.226 L -136.790,40.159 L -135.159,38.768 L -133.337,37.905 L -131.754,37.761 L -129.980,38.193 L -128.397,39.440 L -127.246,40.687 L -126.431,42.941 L -126.191,45.531 L -126.431,47.401 L -127.150,49.607 L -128.637,52.245 L -129.644,53.348 L -131.610,52.916 L -133.864,50.614 L -135.399,50.566 L -137.269,51.429 L -138.420,52.197 L -139.092,51.046 L -139.667,49.607 L -139.619,45.866 L -139.044,43.852 L -138.324,42.269z" id="path612"/>
<path style="font-size:12.000000;fill-rule:evenodd;stroke:#000000;stroke-width:1.0000000pt" d="M -134.871,43.118 L -133.720,42.158 L -132.378,42.062 L -131.035,42.446 L -130.171,43.213 L -129.404,44.844 L -129.308,46.475 L -129.884,48.681 L -131.322,50.215 L -132.569,51.175 L -133.624,51.175 L -134.967,50.791 L -136.310,48.585 L -136.502,47.817 L -136.598,45.995 L -135.831,43.981 L -134.871,43.118z" id="path603"/>
<path fill="url(#linearGradient2355) " style="font-size:12.000000;fill-rule:evenodd;stroke:#000000;stroke-width:2.5000000" d="M -124.336,54.964 L -123.168,52.334 L -122.113,49.592 L -121.086,45.947 L -120.658,42.303 L -120.506,38.754 L -120.211,37.123 L -118.485,35.876 L -115.799,34.821 L -113.306,34.629 L -110.428,35.013 L -108.652,36.463 L -107.073,38.230 L -105.527,40.775 L -104.224,44.127 L -103.321,47.192 L -103.089,51.211 L -103.693,54.964 L -104.607,58.304 L -105.836,61.350 L -124.336,54.964z" id="path618" sodipodi:nodetypes="ccccccccccccccccccccc"/>
<path fill="url(#radialGradient2357) " style="font-size:12.000000;fill-rule:evenodd;stroke:#000000;stroke-width:2.5000000" d="M -120.874,56.401 L -121.077,54.230 L -120.772,51.755 L -119.687,49.347 L -118.602,47.685 L -116.364,45.718 L -114.533,44.871 L -113.142,44.498 L -111.345,44.939 L -109.548,46.329 L -108.462,47.719 L -107.920,49.042 L -107.547,50.127 L -107.276,51.856 L -107.682,54.434 L -108.462,56.536 L -109.310,58.198 L -110.802,59.860 L -115.957,58.062 L -120.874,56.401z" id="path628"/>
<path style="font-size:12.000000;fill-rule:evenodd;stroke:#000000;stroke-width:1.0000000pt" d="M -116.152,49.900 L -115.001,48.941 L -113.658,48.845 L -112.316,49.228 L -111.452,49.996 L -110.685,51.626 L -110.589,53.257 L -111.165,55.463 L -112.603,56.998 L -113.850,57.957 L -114.905,57.957 L -116.248,57.573 L -117.591,55.367 L -117.783,54.600 L -117.879,52.777 L -117.111,50.763 L -116.152,49.900z" id="path624"/>
<path fill="url(#linearGradient2359) " style="font-size:12.000000;fill-rule:evenodd;stroke:#000000;stroke-width:2.5000000" d="M -141.221,57.825 L -139.051,55.655 L -136.609,53.484 L -134.710,53.077 L -132.946,54.569 L -130.912,58.639 L -130.505,62.437 L -132.404,65.421 L -134.167,67.049 L -135.388,67.049 L -138.779,63.929 L -141.457,60.922 L -141.888,59.531 L -141.696,58.524 L -141.169,57.805z" id="path633"/>
<path fill="url(#linearGradient2361) " style="font-size:12.000000;fill-rule:evenodd;stroke:#000000;stroke-width:2.5000000" d="M -100.938,71.089 L -96.190,67.564 L -94.896,67.205 L -93.912,67.181 L -92.665,68.188 L -91.754,69.986 L -91.203,72.120 L -91.131,73.967 L -91.131,76.341 L -91.754,77.755 L -92.929,78.954 L -97.389,79.626 L -98.900,79.578 L -99.955,78.283 L -100.674,75.693 L -100.962,73.199 L -100.938,71.089z" id="path637"/>
<path fill="#4cc020" style="font-size:12.000000;fill-rule:evenodd;stroke:#000000;stroke-width:2.5000000" d="M -131.916,92.811 L -142.658,89.646 L -146.303,88.016 L -149.229,86.865 L -152.298,85.282 L -154.312,93.579 L -154.744,95.929 L -154.744,104.321 L -154.072,106.240 L -151.914,109.309 L -149.708,111.659 L -148.078,113.242 L -146.207,114.728 L -143.282,116.455 L -140.740,117.558 L -138.054,118.613 L -135.225,119.332 L -131.053,120.052 L -126.305,120.100 L -123.044,119.620 L -118.344,118.517 L -115.562,117.222 L -113.404,115.496 L -112.685,114.297 L -112.637,110.412 L -112.013,106.623 L -111.582,103.506 L -111.582,99.382 L -120.166,96.504 L -131.785,92.836z" id="path655" sodipodi:nodetypes="cccccccccccccccccccccccccccccc"/>
<path fill="url(#linearGradient2363) " style="font-size:12.000000;fill-rule:evenodd;stroke:#000000;stroke-width:2.5000000" d="M -151.592,86.040 L -149.655,86.876 L -147.034,87.781 L -143.503,89.036 L -140.726,89.900 L -134.680,91.763 L -128.171,93.777 L -121.323,95.999 L -114.685,98.141 L -112.547,98.809 L -112.857,103.225 L -113.248,107.460 L -114.204,112.622 L -116.132,114.702 L -120.487,116.773 L -124.515,118.067 L -129.791,118.067 L -135.546,116.581 L -142.404,114.135 L -145.952,111.353 L -148.933,109.126 L -151.226,105.865 L -152.849,103.542 L -153.146,98.549 L -152.906,94.856 L -152.139,90.875 L -151.592,86.040z" id="path656" sodipodi:nodetypes="ccccccccccccccccccccccccccc"/>
<path fill="url(#radialGradient2365) " style="font-size:12.000000;fill-rule:evenodd;stroke:#000000;stroke-width:2.5000000" d="M -145.121,88.684 L -116.228,97.399 L -116.432,99.332 L -117.144,101.977 L -118.025,104.351 L -119.755,106.759 L -124.299,112.117 L -125.554,112.829 L -126.537,112.897 L -127.249,112.694 L -129.250,109.675 L -130.912,106.759 L -133.150,103.775 L -134.540,102.317 L -135.727,102.825 L -136.745,104.283 L -136.745,107.946 L -137.796,108.895 L -138.983,108.590 L -139.898,107.709 L -141.560,105.030 L -145.663,95.873 L -146.240,94.076 L -146.172,91.363 L -145.121,88.684z" id="path661"/>
<path fill="url(#linearGradient2367) " style="font-size:12.000000;fill-rule:evenodd;stroke:#000000;stroke-width:2.5000000" d="M -142.661,88.954 L -140.767,89.697 L -138.561,90.488 L -136.235,91.280 L -133.885,91.999 L -132.158,92.622 L -133.166,93.917 L -134.317,95.284 L -135.755,96.819 L -137.266,98.497 L -138.729,100.152 L -140.407,101.710 L -141.918,103.005 L -143.548,104.156 L -145.227,105.235 L -147.625,106.698 L -145.946,103.101 L -145.059,101.183 L -144.364,99.025 L -143.524,95.979 L -143.261,94.109 L -142.901,91.400 L -142.661,88.954z" id="path666"/>
<path fill="url(#linearGradient2369) " style="font-size:12.000000;fill-rule:evenodd;stroke:#000000;stroke-width:2.5000000" d="M -105.027,101.125 L -106.998,100.616 L -109.248,99.963 L -111.596,99.240 L -113.922,98.444 L -115.686,97.936 L -115.629,99.576 L -115.499,101.358 L -115.234,103.445 L -114.994,105.690 L -114.780,107.888 L -114.335,110.135 L -113.871,112.070 L -113.225,113.958 L -112.498,115.817 L -111.414,118.408 L -110.664,114.510 L -110.258,112.436 L -109.555,110.280 L -108.449,107.322 L -107.565,105.652 L -106.268,103.246 L -105.027,101.125z" id="path668"/>
</g>
<path fill="url(#linearGradient1445) " style="font-size:12.000000;fill-opacity:1.0;fill-rule:evenodd;stroke:#000000;stroke-width:3.7500000" d="M 197.255,271.175 L 198.040,271.495 L 198.738,271.786 L 199.465,272.077 L 200.192,272.367 L 201.064,272.745 L 201.674,272.949 L 202.343,273.181 L 202.925,273.356 L 203.710,273.559 L 204.291,273.879 L 205.076,274.141 L 206.152,274.199 L 206.385,273.792 L 206.094,272.920 L 205.774,271.786 L 205.483,270.884 L 204.902,269.634 L 204.437,268.384 L 203.768,267.017 L 203.419,266.145 L 202.605,264.779 L 201.558,263.238 L 200.570,262.046 L 199.523,260.766 L 198.331,259.894 L 197.546,259.283 L 196.557,258.528 L 196.005,258.062 L 195.365,258.964 L 194.435,259.952 L 193.097,261.144 L 192.632,261.348 L 192.632,263.150 L 193.301,263.935 L 193.970,264.982 L 194.667,266.087 L 195.423,267.221 L 196.092,268.413 L 196.848,269.954 L 197.255,271.175z" id="path662"/>
<path fill="url(#linearGradient1442) " style="font-size:12.000000;fill-opacity:1.0;fill-rule:evenodd;stroke:#000000;stroke-width:3.7500000" d="M 183.735,271.742 L 183.735,270.608 L 184.723,269.358 L 185.305,268.341 L 186.061,267.294 L 186.962,266.189 L 188.009,265.084 L 189.084,264.125 L 189.957,263.165 L 191.207,262.322 L 191.992,261.857 L 192.893,262.758 L 193.562,263.543 L 195.568,266.625 L 196.469,268.108 L 197.138,269.416 L 197.516,270.725 L 198.010,272.411 L 198.476,274.272 L 198.766,276.453 L 198.825,277.179 L 198.563,277.528 L 197.545,277.528 L 196.557,276.772 L 194.609,275.900 L 193.155,275.260 L 191.207,274.417 L 189.172,273.690 L 187.776,273.196 L 185.915,272.440 L 183.735,271.742z" id="path663"/>
<path fill="url(#linearGradient1439) " style="font-size:12.000000;fill-opacity:1.0000000;fill-rule:evenodd;stroke:#000000;stroke-width:3.8873451" d="M 171.632,274.601 L 169.039,272.507 L 169.070,270.385 L 170.039,268.204 L 171.226,266.314 L 172.476,264.919 L 173.788,263.843 L 175.194,263.349 L 176.444,263.727 L 177.631,265.006 L 178.818,266.547 L 179.818,267.972 L 180.537,269.716 L 181.224,271.577 L 181.411,273.641 L 181.474,275.386 L 181.536,277.886 L 181.568,280.387 L 180.568,280.358 L 179.474,279.805 L 177.975,278.904 L 175.819,277.450 L 174.100,276.374 L 171.632,274.601z" id="path670"/>
<path fill="" style="font-size:12.000000;fill-opacity:0.75000000;fill-rule:evenodd;stroke:#000000;stroke-width:3.7500000;stroke-linecap:round" d="M 142.697,195.249 L 146.068,193.111 L 148.535,191.302 L 150.180,189.575 L 151.003,188.094 L 152.154,185.216 L 153.141,181.927 L 153.881,178.144 L 154.785,172.469 L 154.785,172.469z" id="path674"/>
<path fill="" style="font-size:12.000000;fill-opacity:0.75000000;fill-rule:evenodd;stroke:#000000;stroke-width:3.7500000;stroke-linecap:round" d="M 112.087,202.384 L 111.156,206.222 L 109.644,210.060 L 109.528,209.943z" id="path675"/>
<path fill="url(#linearGradient1434) " style="stroke-width:3.7500000;stroke:#000000;fill-rule:evenodd;fill-opacity:1.0;font-size:12.000000" d="M 82.233,279.854 L 79.791,280.436 L 78.279,281.134 L 77.290,281.831 L 76.127,283.111 L 75.488,285.204 L 75.197,286.716 L 75.081,287.646 L 74.906,288.693 L 74.790,289.914 L 74.790,292.182 L 74.964,293.810 L 75.255,295.148 L 75.895,296.834 L 76.593,298.520 L 77.349,300.149 L 78.221,301.544 L 78.860,302.475 L 79.384,302.824 L 80.314,302.300 L 81.710,301.021 L 83.164,299.160 L 84.327,297.765 L 85.722,295.322 L 86.362,293.636 L 87.002,291.659 L 87.234,288.519 L 87.118,285.204 L 86.885,283.750 L 85.955,282.064 L 84.966,281.017 L 83.687,280.203 L 82.233,279.854z" id="path676"/>
<path fill="url(#linearGradient1431) " style="font-size:12.000000;fill-opacity:1.0;fill-rule:evenodd;stroke:#000000;stroke-width:3.7500000" d="M 56.202,274.463 L 54.109,275.103 L 52.597,276.033 L 51.666,277.429 L 50.736,279.115 L 49.922,281.034 L 49.398,282.836 L 48.875,284.581 L 48.526,286.616 L 48.177,289.117 L 47.887,294.234 L 47.945,295.397 L 48.294,296.734 L 48.933,297.956 L 50.387,297.723 L 51.608,296.909 L 53.643,295.629 L 55.272,294.467 L 57.016,293.129 L 58.295,292.024 L 59.924,291.036 L 61.087,290.222 L 61.552,289.698 L 62.191,287.314 L 62.075,282.371 L 61.494,279.522 L 60.796,277.952 L 59.517,276.324 L 58.237,275.103 L 56.202,274.463z" id="path677"/>
<path fill="url(#linearGradient1428) " style="font-size:12.000000;fill-opacity:1.0;fill-rule:evenodd;stroke:#000000;stroke-width:3.7500000" d="M 24.646,289.625 L 25.984,289.276 L 28.368,287.997 L 29.996,287.532 L 33.020,286.194 L 35.695,285.090 L 38.893,283.985 L 39.824,282.880 L 40.114,282.415 L 41.161,281.542 L 41.743,280.379 L 42.033,277.879 L 41.917,274.971 L 41.452,273.227 L 40.463,271.366 L 38.486,269.331 L 36.276,267.586 L 35.055,266.889 L 32.671,267.761 L 29.705,270.901 L 27.379,274.332 L 26.158,277.123 L 25.461,278.984 L 24.879,282.008 L 24.356,286.020 L 24.646,289.625z" id="path678"/>
<path fill="#ffffff" style="font-size:12.000000;fill-rule:evenodd;stroke:#000000;stroke-width:3.7500000" d="M 85.413,154.098 L 83.436,152.702 L 81.036,151.709 L 79.031,151.715 L 77.491,152.790 L 76.923,154.098 L 76.691,155.493 L 77.621,157.238 L 78.900,159.098 L 80.063,158.517 L 82.273,157.121 L 83.901,155.958 L 85.064,155.028 L 85.413,154.098z" id="path682" sodipodi:nodetypes="cccccccccccccc"/>
<path fill="#ffffff" style="font-size:12.000000;fill-rule:evenodd;stroke:#000000;stroke-width:3.7500000" d="M 68.840,166.640 L 69.480,166.523 L 70.585,166.291 L 71.922,165.651 L 73.434,164.895 L 75.004,163.790 L 75.702,162.744 L 75.993,162.104 L 75.648,161.522 L 75.129,160.752 L 73.787,160.109 L 71.995,159.924 L 70.120,160.026 L 68.556,161.067 L 67.872,161.930 L 67.619,162.744 L 67.503,163.209 L 67.677,164.314 L 67.968,165.360 L 68.840,166.640z" id="path683" sodipodi:nodetypes="cccccccccccccccccccc"/>
<path fill="#ffffff" style="font-size:12.000000;fill-rule:evenodd;stroke:#000000;stroke-width:3.7500000" d="M 65.174,169.082 L 64.384,167.799 L 63.361,166.776 L 61.544,165.821 L 59.339,166.034 L 57.953,167.293 L 57.169,169.269 L 57.498,172.222 L 58.719,171.873 L 60.289,171.408 L 62.034,170.768 L 63.836,170.129 L 65.174,169.082z" id="path684" sodipodi:nodetypes="ccccccccccccc"/>
<path fill="#ffffff" style="font-size:12.000000;fill-rule:evenodd;stroke:#000000;stroke-width:3.7500000" d="M 45.206,175.169 L 46.835,174.879 L 48.288,174.588 L 50.324,174.123 L 52.010,173.774 L 52.882,173.367 L 53.406,172.727 L 52.301,171.099 L 51.060,169.645 L 49.335,168.889 L 47.823,168.540 L 46.089,169.393 L 45.018,171.474 L 44.974,173.948 L 45.206,175.169z" id="path685" sodipodi:nodetypes="ccccccccccccccc"/>
<path fill="#ffffff" style="font-size:12.000000;fill-rule:evenodd;stroke:#000000;stroke-width:3.7500000" d="M 43.018,173.407 L 42.786,171.546 L 41.855,169.627 L 40.634,168.231 L 38.657,167.359 L 37.378,167.359 L 36.211,168.290 L 35.266,169.463 L 34.936,170.964 L 34.587,171.430 L 34.645,172.302 L 36.215,173.058 L 38.250,173.697 L 40.751,174.395 L 42.495,174.395 L 43.018,173.407z" id="path686" sodipodi:nodetypes="cccccccccccccccc"/>
<path fill="#ffffff" style="font-size:12.000000;fill-rule:evenodd;stroke:#000000;stroke-width:3.7500000" d="M 23.249,168.965 L 23.425,167.941 L 24.414,166.312 L 25.519,165.208 L 26.507,165.208 L 27.612,165.673 L 28.717,166.603 L 29.647,167.650 L 30.461,169.627 L 30.869,170.964 L 30.520,171.604 L 28.426,171.604 L 26.682,171.081 L 25.053,170.732 L 23.193,169.860 L 23.249,168.965z" id="path687" sodipodi:nodetypes="cccccccccccccccc"/>
<path fill="#ffffff" style="font-size:12.000000;fill-rule:evenodd;stroke:#000000;stroke-width:3.7500000" d="M 15.768,162.885 L 17.919,165.269 L 20.885,168.119 L 21.757,168.060 L 22.397,167.711 L 22.746,166.548 L 22.746,164.106 L 22.164,162.652 L 21.001,161.315 L 20.362,160.559 L 18.966,160.443 L 17.338,161.548 L 16.175,162.187 L 15.768,162.594 L 15.768,162.885z" id="path688"/>
<path fill="" style="font-size:12.000000;fill-opacity:0.75000000;fill-rule:evenodd;stroke:#000000;stroke-width:4.0125499;stroke-linecap:round" d="M 76.871,197.138 L 77.036,193.089 L 77.282,189.323 L 77.776,185.086 L 78.351,181.131 L 79.174,175.294 L 79.832,170.680 L 81.148,166.067 L 82.381,161.924 L 84.273,158.252 L 85.259,156.275 L 89.371,151.002 L 92.578,147.518 L 95.046,145.164 L 95.046,145.164z" id="path689"/>
<path fill="#3fd930" style="font-size:12.000000;fill-opacity:0.99607801;fill-rule:evenodd;stroke:#000000;stroke-width:3.7500000;stroke-linecap:round" d="M 100.069,150.421 L 100.398,147.954 L 101.055,145.651 L 101.055,144.335 L 101.384,141.539 L 101.220,139.895 L 103.029,139.566 L 105.496,138.743 L 107.470,137.921 L 110.266,136.934 L 112.733,135.289 L 114.213,133.480 L 115.365,131.671 L 115.858,130.191 L 115.858,127.395 L 115.365,124.928 L 112.897,121.474 L 110.101,119.006 L 107.470,116.375 L 104.509,113.743 L 101.713,110.947 L 99.575,107.658 L 97.437,104.862 L 95.134,101.079 L 93.983,98.776 L 93.490,97.954 L 91.187,94.993 L 87.075,91.375 L 86.088,90.717 L 83.621,89.730 L 79.838,88.414 L 76.055,88.086 L 73.917,87.263 L 71.450,86.605 L 67.503,86.770 L 64.049,88.086 L 61.911,90.553 L 60.266,93.842 L 59.444,95.980 L 55.661,96.309 L 51.878,96.967 L 47.931,99.105 L 46.779,100.257 L 45.299,102.395 L 44.148,104.697 L 43.490,106.507 L 42.503,108.809 L 42.174,109.796 L 42.338,111.934 L 43.161,113.743 L 43.983,114.730 L 45.792,116.868 L 48.424,114.730 L 52.371,110.289 L 54.690,109.556 L 57.941,111.143 L 61.591,114.140 L 63.610,117.369 L 66.151,120.946 L 68.693,125.222 L 70.767,129.386 L 72.028,134.135 L 73.721,140.707 L 74.883,144.339 L 76.580,147.604 L 77.387,148.848 L 78.194,150.092 L 79.345,151.901 L 81.154,153.381 L 83.292,155.026 L 85.924,156.177 L 89.378,156.671 L 92.503,156.671 L 95.628,156.013 L 98.424,154.862 L 100.658,153.169z" id="path679" sodipodi:nodetypes="cccccccccccccccccccccccccccccccccccccccccccccccccccccccccccccccccccccccccccc"/>
<path fill="" style="font-size:12.000000;fill-opacity:0.75000000;fill-rule:evenodd;stroke:#000000;stroke-width:3.7500000" d="M 63.378,101.743 L 65.187,102.237 L 66.338,102.730 L 72.917,106.020 L 76.865,110.296 L 79.825,115.888z" id="path698" sodipodi:nodetypes="cccccc"/>
<path fill="" style="font-size:12.000000;fill-opacity:0.75000000;fill-rule:evenodd;stroke:#000000;stroke-width:3.7500000;stroke-linecap:round" d="M 106.470,122.960 L 104.167,124.934 L 102.358,126.414 L 101.207,128.224 L 100.220,130.362 L 99.233,132.171 L 98.739,133.322z" id="path680"/>
<path fill="url(#linearGradient1414) " style="font-size:12.000000;fill-rule:evenodd;stroke:#000000;stroke-width:3.7500000;fill-opacity:1.0" d="M 104.496,131.513 L 106.223,132.171 L 107.374,132.582 L 109.019,132.582 L 110.911,132.418 L 111.897,132.418 L 112.884,132.582 L 114.693,132.911 L 113.460,134.638 L 111.651,135.954 L 110.499,136.694 L 109.184,137.516 L 107.539,138.174 L 105.935,138.873 L 103.756,139.531 L 101.536,140.189 L 98.904,140.271 L 97.835,139.737 L 96.889,139.079 L 96.190,138.215 L 95.615,137.064 L 95.121,135.625 L 94.833,134.186 L 96.355,133.240 L 99.315,132.541 L 102.481,131.842 L 104.249,131.431 L 104.534,131.521z" id="path690" sodipodi:nodetypes="cccccccccccccccccccccccccccc"/>
<path fill="url(#linearGradient1411) " style="stroke-width:3.8329301;stroke:#000000;fill-rule:evenodd;fill-opacity:1.0;font-size:12.000000" d="M 59.435,94.581 L 59.900,93.731 L 61.063,91.908 L 63.157,90.207 L 65.715,89.235 L 71.414,89.235 L 73.856,90.207 L 74.321,91.908 L 73.740,93.488 L 72.693,95.675 L 72.112,97.011 L 71.298,99.441 L 69.262,100.838 L 66.587,102.418 L 65.017,103.268 L 62.750,104.605 L 61.528,103.572 L 60.482,102.418 L 59.202,99.927 L 58.853,96.829 L 59.202,95.553 L 59.435,94.581z" id="path692" sodipodi:nodetypes="cccccccccccccccccccccc"/>
<path fill="url(#linearGradient1408) " style="font-size:12.000000;fill-opacity:1.0;fill-rule:evenodd;stroke:#000000;stroke-width:3.7500000" d="M 43.366,106.642 L 44.529,105.246 L 45.226,104.374 L 46.506,103.037 L 47.494,102.048 L 49.995,100.943 L 50.983,100.769 L 51.856,101.060 L 52.321,101.641 L 52.379,102.513 L 51.914,104.258 L 51.623,105.886 L 51.739,107.049 L 52.263,108.445 L 52.670,109.142 L 52.670,110.247 L 50.867,112.050 L 49.181,114.027 L 47.552,116.062 L 45.401,117.807 L 43.598,115.481 L 42.435,113.562 L 41.970,112.050 L 41.970,109.666 L 42.726,107.863 L 43.366,106.642z" id="path694"/>
</g>
</svg>
