<?xml version="1.0" encoding="UTF-8" standalone="no"?>
<!--Created with Inkscape (http://www.inkscape.org/)-->
<svg xmlns:svg="http://www.w3.org/2000/svg" xmlns="http://www.w3.org/2000/svg" xmlns:xlink="http://www.w3.org/1999/xlink" version="1.0"    id="svg2" xml:space="preserve" width="400" height="450" >
<defs id="defs633"/>
<title id="title4">Firefox Logo</title>
<desc id="desc6">Firefox logo in SVG, authored by Jon Hicks, made in Adobe Illustrator (file format cleaned up and slightly modified by Doug Schepers)</desc>
<g  id="Firefox">
<g id="Globe">
<ellipse cx="191.409" cy="178.259" rx="178.142" ry="178.259" style="fill: #110070;" id="ellipse10"/>
<radialGradient cx="64.568802" cy="7.2266002" r="104.221" fx="64.568802" fy="7.2266002" id="XMLID_61_" gradientUnits="userSpaceOnUse">
<stop style="stop-color: #67c5d5; stop-opacity: 1;" offset="0" id="stop13"/>
<stop style="stop-color: #66c2d3; stop-opacity: 1;" offset="0.1604" id="stop15"/>
<stop style="stop-color: #62b9ce; stop-opacity: 1;" offset="0.27950001" id="stop17"/>
<stop style="stop-color: #5ca8c6; stop-opacity: 1;" offset="0.38519999" id="stop19"/>
<stop style="stop-color: #5392ba; stop-opacity: 1;" offset="0.48320001" id="stop21"/>
<stop style="stop-color: #4874aa; stop-opacity: 1;" offset="0.57590002" id="stop23"/>
<stop style="stop-color: #3a5097; stop-opacity: 1;" offset="0.66460001" id="stop25"/>
<stop style="stop-color: #2a2781; stop-opacity: 1;" offset="0.74849999" id="stop27"/>
<stop style="stop-color: #1b006d; stop-opacity: 1;" offset="0.81459999" id="stop29"/>
<stop style="stop-color: #596aad; stop-opacity: 1;" offset="1" id="stop31"/>
</radialGradient>
<ellipse cx="191.409" cy="178.259" rx="174.777" ry="174.894" style="fill: url(#XMLID_61_) #000000;" id="ellipse33"/>
<radialGradient cx="64.551804" cy="14.1748" r="52.231701" fx="64.551804" fy="14.1748" id="XMLID_62_" gradientUnits="userSpaceOnUse">
<stop style="stop-color: #0f80bc; stop-opacity: 1;" offset="0" id="stop36"/>
<stop style="stop-color: #0a5f9e; stop-opacity: 1;" offset="0.33759999" id="stop38"/>
<stop style="stop-color: #00145a; stop-opacity: 1;" offset="1" id="stop40"/>
</radialGradient>
<path d="M 166.340,268.540 C 166.124,267.591  163.767,264.838  161.963,264.223 C 160.165,263.607  158.396,266.877  157.237,261.449 C 153.436,263.628  151.797,260.848  151.797,260.848 C 151.797,260.848  147.699,261.088  146.907,266.105 C 144.955,268.414  139.953,276.811  142.610,268.078 C 145.285,259.290  139.788,267.387  139.278,271.801 C 138.323,273.761  136.711,273.959  137.726,265.142 C 134.204,263.926  132.406,255.753  134.336,255.597 C 132.093,252.472  133.856,247.692  135.723,247.948 C 137.591,248.188  140.797,243.865  140.698,242.862 C 140.599,241.862  142.145,242.577  142.049,235.848 C 141.950,229.102  144.592,227.433  144.808,233.074 C 145.036,238.695  148.393,231.234  148.047,228.373 C 147.699,225.524  148.384,219.084  150.428,222.891 C 148.047,213.473  149.927,213.100  151.356,219.369 C 154.938,219.651  155.061,221.561  155.061,221.561 C 159.027,220.585  160.927,223.572  161.233,225.248 C 164.908,220.909  168.619,225.587  168.619,225.587 C 168.619,225.587  171.180,224.737  169.955,229.189 C 168.724,233.627  175.275,231.225  173.711,228.037 C 176.932,226.406  181.715,231.345  183.222,234.714 C 184.729,238.097  180.640,242.889  183.828,244.048 C 187.035,245.201  185.630,250.779  185.630,250.779 C 185.630,250.779  192.331,254.496  187.680,257.687 L 186.095,261.485 C 186.095,261.485  189.127,264.868  190.160,262.854 C 191.193,260.836  191.559,264.904  191.559,264.904 C 191.172,264.184  192.304,269.095  196.483,270.128 C 200.680,271.152  203.337,277.784  198.678,277.868 C 194.036,277.943  193.676,277.817  192.418,280.528 C 191.166,283.227  185.239,283.323  182.171,279.829 C 178.908,280.933  173.101,279.510  174.810,276.898 C 171.993,278.541  169.333,274.130  171.534,272.164 C 173.735,270.203  170.297,267.663  169.141,270.474 C 167.997,273.281  161.924,274.665  162.347,269.888 C 162.473,268.471  165.710,267.642  165.752,268.825 C 166.343,270.191  166.583,268.717  166.340,268.540z" style="fill: url(#XMLID_62_) #000000;" id="path42"/>
<g id="g44">
<radialGradient cx="64.553703" cy="14.1758" r="52.228901" fx="64.553703" fy="14.1758" id="XMLID_63_" gradientUnits="userSpaceOnUse">
<stop style="stop-color: #0f80bc; stop-opacity: 1;" offset="0" id="stop47"/>
<stop style="stop-color: #0a5f9e; stop-opacity: 1;" offset="0.33759999" id="stop49"/>
<stop style="stop-color: #00145a; stop-opacity: 1;" offset="1" id="stop51"/>
</radialGradient>
<path d="M 310.857,131.847 C 311.785,132.766  313.610,132.562  314.622,132.280 C 315.640,131.988  315.495,131.268  316.372,130.986 C 317.234,130.694  320.566,132.280  319.696,135.741 C 317.675,136.023  316.943,138.479  316.943,138.479 C 316.943,138.479  314.922,139.341  313.901,138.912 C 312.886,138.479  312.886,138.620  311.436,138.761 C 309.986,138.912  306.504,136.894  310.274,136.894 C 314.048,136.894  309.845,135.162  308.248,135.162 C 306.657,135.162  307.957,133.577  309.845,134.009 C 308.536,131.847  309.260,130.253  310.857,131.847z" style="fill: url(#XMLID_63_) #000000;" id="path53"/>
<radialGradient cx="64.548798" cy="14.1724" r="52.237301" fx="64.548798" fy="14.1724" id="XMLID_64_" gradientUnits="userSpaceOnUse">
<stop style="stop-color: #0f80bc; stop-opacity: 1;" offset="0" id="stop56"/>
<stop style="stop-color: #0a5f9e; stop-opacity: 1;" offset="0.33759999" id="stop58"/>
<stop style="stop-color: #00145a; stop-opacity: 1;" offset="1" id="stop60"/>
</radialGradient>
<path d="M 297.788,139.677 C 296.776,140.680  297.935,143.712  299.238,143.562 C 300.538,143.421  302.571,142.847  302.571,142.847 C 302.571,142.847  303.582,144.865  302.571,145.447 C 301.559,146.018  298.611,145.766  302.430,147.174 C 306.345,148.612  307.353,148.177  307.645,147.456 C 307.936,146.741  309.236,144.292  309.965,144.436 C 310.545,143.142  307.936,141.989  309.389,141.118 C 310.827,140.254  309.677,137.086  309.677,137.086 C 309.677,137.086  307.645,137.227  306.777,138.671 C 305.906,140.112  304.753,138.530  303.883,138.530 C 303.736,139.392  303.153,140.112  303.153,140.112 L 302.574,138.809 C 302.571,138.806  298.509,138.668  297.788,139.677z" style="fill: url(#XMLID_64_) #000000;" id="path62"/>
</g>
<radialGradient cx="65.405296" cy="19.1201" r="57.382702" fx="65.405296" fy="19.1201" id="XMLID_65_" gradientUnits="userSpaceOnUse">
<stop style="stop-color: #0f80bc; stop-opacity: 1;" offset="0" id="stop65"/>
<stop style="stop-color: #0b629b; stop-opacity: 1;" offset="0.26429999" id="stop67"/>
<stop style="stop-color: #031747; stop-opacity: 1;" offset="0.84390002" id="stop69"/>
<stop style="stop-color: #00022f; stop-opacity: 1;" offset="1" id="stop71"/>
</radialGradient>
<path d="M 270.699,142.049 C 270.573,141.680  271.852,140.187  271.509,142.121 C 270.723,143.496  274.686,144.733  275.797,143.202 C 279.522,138.098  272.284,135.630  269.144,138.002 C 265.973,140.395  264.226,135.264  267.868,134.534 C 271.497,133.799  271.804,127.239  267.805,127.215 C 271.335,125.473  266.445,120.255  262.403,119.364 C 261.752,113.750  255.832,110.180  252.718,112.218 C 249.575,114.263  249.305,113.903  244.699,111.108 C 240.112,108.325  237.902,116.896  241.277,120.640 C 244.672,124.411  242.210,130.490  242.351,129.451 C 242.351,129.451  241.072,131.751  241.156,132.613 C 237.272,133.931  236.137,128.461  233.726,127.251 C 231.970,129.541  229.132,130.763  229.132,130.763 L 229.346,126.101 C 229.346,126.101  217.286,119.532  213.581,121.372 C 209.014,122.783  207.933,133.354  212.080,134.901 C 216.232,136.465  206.871,140.359  216.262,150.260 C 225.908,160.426  229.637,160.717  231.606,159.063 C 232.093,158.645  232.933,158.021  233.960,157.327 C 234.053,157.718  234.209,158.093  234.449,158.447 C 236.863,162.077  228.838,164.938  227.718,170.138 C 226.581,175.395  227.628,185.170  232.390,185.504 C 233.297,180.295  242.207,182.135  237.359,186.855 C 232.423,191.667  235.885,192.517  235.885,192.517 C 235.885,192.517  236.119,201.533  243.666,198.650 C 243.447,199.167  243.270,199.827  243.165,200.548 C 241.054,200.122  235.897,199.476  234.636,203.073 C 233.044,207.612  226.307,201.536  221.594,203.574 C 216.901,205.598  210.053,212.242  212.359,216.913 C 216.790,214.812  220.183,224.287  213.992,222.341 C 207.780,220.390  208.987,224.092  208.987,224.092 C 208.987,224.092  202.520,229.192  208.576,234.624 C 206.249,234.978  202.115,237.569  203.508,243.252 C 203.508,243.252  200.851,243.348  200.494,248.434 C 191.826,250.181  192.355,252.871  205.397,249.923 C 200.134,252.655  209.077,253.940  213.040,253.577 C 217.009,253.217  227.427,258.353  219.600,258.404 C 211.758,258.452  214.094,262.289  223.485,262.473 C 232.861,262.665  231.876,264.838  233.270,264.742 C 234.663,264.646  240.727,269.429  240.397,272.080 C 240.058,274.734  246.750,277.487  251.103,274.446 C 251.325,277.205  262.770,275.052  264.463,270.077 C 276.856,271.972  276.571,269.660  273.812,268.189 C 267.606,267.240  256.219,258.993  268.570,263.235 C 280.858,267.471  269.020,259.903  265.781,256.993 C 258.726,255.621  258.365,249.740  258.365,249.740 C 258.365,249.740  262.262,247.521  259.188,241.976 C 266.811,240.562  262.208,237.881  263.064,235.326 C 263.920,232.762  267.790,229.496  269.117,229.232 C 269.369,228.886  271.443,229.301  269.519,230.081 C 267.856,230.099  269.035,234.783  271.026,235.023 C 277.757,235.842  275.788,227.055  271.834,225.287 C 267.871,223.503  271.428,218.670  274.211,221.924 C 276.994,225.172  283.197,221.525  280.870,217.409 C 284.569,219.973  286.563,211.677  284.989,206.916 C 289.937,202.625  289.778,194.072  285.950,192.160 C 284.068,191.220  283.158,190.610  282.702,189.443 C 284.974,188.368  287.989,187.575  289.172,188.635 C 291.096,190.373  296.452,185.579  296.113,179.973 C 298.368,181.210  301.958,169.781  298.908,165.782 C 305.891,156.018  304.009,155.133  301.673,156.769 C 298.160,161.639  286.623,167.466  295.566,158.835 C 304.249,150.455  293.258,156.808  289.580,158.168 C 285.254,163.587  280.663,160.984  280.663,160.984 C 280.663,160.984  280.858,156.544  275.271,156.454 C 277.853,149.329  273.692,151.902  272.236,149.957 C 270.777,148.014  270.251,143.265  270.699,142.049z" style="fill: url(#XMLID_65_) #000000;" id="path73"/>
<radialGradient cx="64.550797" cy="14.1733" r="52.233299" fx="64.550797" fy="14.1733" id="XMLID_66_" gradientUnits="userSpaceOnUse">
<stop style="stop-color: #0f80bc; stop-opacity: 1;" offset="0" id="stop76"/>
<stop style="stop-color: #0a5f9e; stop-opacity: 1;" offset="0.33759999" id="stop78"/>
<stop style="stop-color: #00145a; stop-opacity: 1;" offset="1" id="stop80"/>
</radialGradient>
<path d="M 180.157,70.676 C 179.073,73.501  183.693,78.092  186.014,76.615 C 188.341,75.129  191.673,72.165  191.673,72.165 C 191.673,72.165  195.207,75.002  193.778,77.026 C 192.340,79.043  186.614,81.313  194.901,80.394 C 203.400,79.455  204.949,77.701  204.907,76.080 C 204.862,74.465  205.331,68.668  206.802,68.265 C 206.847,65.293  201.022,65.569  203.040,62.594 C 205.057,59.634  200.323,54.770  200.323,54.770 C 200.323,54.770  196.636,56.929  196.174,60.438 C 195.708,63.942  192.259,62.054  190.625,62.858 C 191.049,64.612  190.547,66.497  190.547,66.497 L 188.413,64.609 C 188.416,64.606  180.694,68.115  180.157,70.676z" style="fill: url(#XMLID_66_) #000000;" id="path82"/>
<radialGradient cx="64.551804" cy="14.1646" r="52.241501" fx="64.551804" fy="14.1646" id="XMLID_67_" gradientUnits="userSpaceOnUse">
<stop style="stop-color: #0f80bc; stop-opacity: 1;" offset="0" id="stop85"/>
<stop style="stop-color: #0a5f9e; stop-opacity: 1;" offset="0.33759999" id="stop87"/>
<stop style="stop-color: #00145a; stop-opacity: 1;" offset="1" id="stop89"/>
</radialGradient>
<path d="M 193.976,219.063 C 192.964,220.066  194.126,223.095  195.426,222.954 C 196.729,222.807  198.759,222.233  198.759,222.233 C 198.759,222.233  199.770,224.251  198.759,224.830 C 197.741,225.401  194.799,225.154  198.611,226.556 C 202.523,227.998  203.541,227.565  203.832,226.845 C 204.118,226.124  205.421,223.674  206.147,223.815 C 206.733,222.521  204.118,221.372  205.568,220.507 C 207.018,219.633  205.865,216.466  205.865,216.466 C 205.865,216.466  203.835,216.610  202.965,218.054 C 202.094,219.492  200.935,217.907  200.065,217.907 C 199.917,218.772  199.344,219.492  199.344,219.492 L 198.765,218.198 C 198.762,218.198  194.700,218.054  193.976,219.063z" style="fill: url(#XMLID_67_) #000000;" id="path91"/>
<g id="g93">
<defs id="defs95">
<ellipse cx="191.409" cy="178.259" rx="174.777" ry="174.894" id="XMLID_8_"/>
</defs>
<clipPath id="XMLID_68_">
<use id="use99" x="0" y="0"   xlink:href="#XMLID_8_"/>
</clipPath>
<linearGradient x1="236.349" y1="50.077" x2="286.967" y2="54.393" id="XMLID_69_" gradientUnits="userSpaceOnUse">
<stop style="stop-color: #0f80bc; stop-opacity: 1;" offset="0" id="stop102"/>
<stop style="stop-color: #0a5f9e; stop-opacity: 1;" offset="0.33759999" id="stop104"/>
<stop style="stop-color: #00145a; stop-opacity: 1;" offset="1" id="stop106"/>
</linearGradient>
<path d="M 195.330,3.008 C 192.592,3.618  197.170,13.525  197.170,13.525 C 197.170,13.525  197.005,20.178  198.134,20.517 C 199.257,20.857  206.697,22.718  210.584,27.558 C 214.490,32.403  212.461,34.952  209.209,33.553 C 205.955,32.157  206.817,36.432  206.817,36.432 C 206.817,36.432  216.634,39.624  209.218,39.420 C 201.788,39.222  214.220,44.647  213.401,45.214 C 212.581,45.787  212.113,48.910  212.113,48.910 C 212.113,48.910  205.559,49.456  211.113,51.789 C 229.907,59.706  209.104,57.568  209.104,57.568 L 206.450,60.832 L 211.701,67.419 L 215.739,70.307 C 215.739,70.307  224.245,67.470  226.896,67.025 C 229.550,66.587  236.245,61.576  236.245,61.576 C 236.245,61.576  238.253,63.011  236.752,60.084 C 235.248,57.154  242.279,58.463  244.033,60.643 L 256.444,66.248 C 256.606,66.680  256.882,67.070  257.321,67.374 C 259.740,69.070  255.132,71.982  255.600,75.065 C 256.069,78.116  258.882,83.184  261.968,82.649 C 261.428,79.740  267.525,79.389  265.403,82.631 C 263.283,85.865  265.634,85.802  265.634,85.802 C 265.634,85.802  267.594,90.368  271.740,87.831 C 271.572,89.224  272.422,92.025  275.983,92.211 C 275.983,92.211  275.604,93.731  278.529,94.808 C 278.132,100.023  279.802,100.188  280.213,92.268 C 280.948,95.742  283.191,90.854  283.638,88.516 C 284.089,86.162  288.910,80.995  287.607,85.561 C 286.313,90.089  301.823,91.746  303.543,86.339 C 305.279,80.890  311.460,78.044  311.647,77.218 C 311.833,76.374  297.887,75.080  299.427,75.738 C 300.970,76.395  303.841,72.892  302.775,69.776 C 304.504,70.124  305.267,62.867  302.526,60.988 C 305.957,53.767  304.480,53.542  303.072,54.980 C 301.361,58.598  294.299,64.056  299.088,57.331 C 303.919,50.537  297.128,56.479  294.771,57.956 C 292.702,61.982  289.070,61.198  289.070,61.198 C 289.070,61.198  288.403,58.463  284.518,59.376 C 284.971,54.536  282.558,56.860  281.156,55.911 C 280.300,55.332  279.480,54.029  278.976,52.912 C 282.323,54.269  286.818,55.713  286.043,53.224 C 285.542,51.597  292.384,55.155  292.624,54.413 L 301.175,53.224 L 309.488,47.970 C 256.357,0.492  195.330,3.008  195.330,3.008z" style="fill: url(#XMLID_69_) #000000;" clip-path="url(#XMLID_68_)" id="path108"/>
<linearGradient x1="122.623" y1="57.748" x2="94.649" y2="98.836" id="XMLID_70_" gradientUnits="userSpaceOnUse">
<stop style="stop-color: #0f80bc; stop-opacity: 1;" offset="0" id="stop111"/>
<stop style="stop-color: #0a5f9e; stop-opacity: 1;" offset="0.33759999" id="stop113"/>
<stop style="stop-color: #00145a; stop-opacity: 1;" offset="1" id="stop115"/>
</linearGradient>
<path d="M 116.344,18.299 C 84.601,32.550  60.649,61.925  60.649,61.925 C 60.649,61.925  63.465,68.364  64.446,67.890 C 65.437,67.422  57.358,84.787  63.288,85.766 C 69.247,86.741  86.393,75.023  83.214,76.098 C 80.043,77.167  85.000,69.757  85.000,69.757 C 85.000,69.757  93.923,65.801  88.645,70.364 C 83.412,74.900  95.604,70.925  95.415,71.853 C 95.223,72.787  96.991,75.297  96.991,75.297 C 96.991,75.297  92.809,79.782  98.210,77.975 C 116.740,71.745  100.648,83.316  100.648,83.316 L 100.966,87.255 L 108.982,88.648 L 113.720,88.197 C 113.720,88.197  117.866,80.884  119.466,78.896 C 121.072,76.906  122.552,69.037  122.552,69.037 C 122.552,69.037  124.963,68.785  121.913,67.632 C 118.862,66.476  124.831,62.879  127.575,63.327 L 140.494,59.316 C 140.908,59.520  141.370,59.625  141.905,59.562 C 144.862,59.220  143.373,64.374  145.790,66.317 C 148.180,68.250  153.677,70.112  155.646,67.725 C 153.292,65.942  157.670,61.687  158.228,65.470 C 158.789,69.220  160.531,67.641  160.531,67.641 C 160.531,67.641  165.163,59.673  166.643,55.100 C 167.454,56.232  175.014,45.166  172.723,39.888 C 170.408,34.544  174.161,29.512  173.744,28.735 C 173.314,27.966  171.054,30.320  172.723,29.755 C 174.407,29.179  167.952,32.073  167.097,23.568 C 166.232,14.891  164.974,24.297  164.140,27.077 C 165.271,31.605  177.019,8.785  177.019,8.785 L 192.163,2.609 C 192.163,2.621  157.694,-0.264  116.344,18.299z" style="fill: url(#XMLID_70_) #000000;" clip-path="url(#XMLID_68_)" id="path117"/>
</g>
<linearGradient x1="195.159" y1="103.981" x2="195.159" y2="35.976" id="XMLID_71_" gradientUnits="userSpaceOnUse">
<stop style="stop-color: black; stop-opacity: 0;" offset="0.0137" id="stop120"/>
<stop style="stop-color: #c4e0e3; stop-opacity: 0.2;" offset="0.64999998" id="stop122"/>
<stop style="stop-color: #c4e0e3; stop-opacity: 1;" offset="0.82239997" id="stop124"/>
<stop style="stop-color: #cde5e8; stop-opacity: 1;" offset="0.84979999" id="stop126"/>
<stop style="stop-color: #e8f4f7; stop-opacity: 1;" offset="0.9443" id="stop128"/>
<stop style="stop-color: #f2fafc; stop-opacity: 1;" offset="1" id="stop130"/>
</linearGradient>
<ellipse cx="188.098" cy="69.866" rx="92.545" ry="59.958" style="opacity: 0.5; fill: url(#XMLID_71_) #000000;" id="ellipse132"/>
</g>
<filter   y="-25%" x="-25%" id="blurshadow">
<feGaussianBlur id="feGaussianBlur135" result="blur" stdDeviation="1.5" in="SourceAlpha"/>
<feOffset id="feOffset137" result="shift" in="blur" dy="1" dx="1"/>
<feMerge id="feMerge139">
<feMergeNode id="feMergeNode141" in="shift"/>
<feMergeNode id="feMergeNode143" in="SourceGraphic"/>
</feMerge>
</filter>
<g id="Fox">
<g id="g146">
<linearGradient x1="200.639" y1="169.294" x2="242.637" y2="144.629" id="XMLID_74_" gradientUnits="userSpaceOnUse">
<stop style="stop-color: #df731b; stop-opacity: 1;" offset="0" id="stop149"/>
<stop style="stop-color: #df731b; stop-opacity: 1;" offset="0.5449" id="stop151"/>
<stop style="stop-color: #ec8811; stop-opacity: 1;" offset="0.70139998" id="stop153"/>
<stop style="stop-color: #f4950b; stop-opacity: 1;" offset="0.85930002" id="stop155"/>
<stop style="stop-color: #f79a09; stop-opacity: 1;" offset="1" id="stop157"/>
</linearGradient>
<path d="M 376.246,129.349 L 371.965,156.820 C 371.965,156.820  365.843,105.962  358.341,86.948 C 346.842,57.815  341.726,58.049  341.693,58.091 C 349.394,77.662  347.998,88.176  347.998,88.176 C 347.998,88.176  334.353,50.987  298.274,39.155 C 255.546,25.150  233.780,30.212  233.942,30.407 C 234.104,30.605  278.102,38.099  285.905,48.820 C 285.905,48.820  267.216,48.820  248.617,54.179 C 247.776,54.419  317.048,62.831  331.209,132.051 C 331.209,132.051  323.617,116.208  314.225,113.518 C 320.401,132.307  318.816,167.958  312.934,185.678 C 312.178,187.956  311.403,175.827  299.818,170.603 C 303.528,197.194  299.595,239.370  281.147,250.989 C 279.708,251.893  292.711,209.354  283.762,225.800 C 230.330,307.723  166.806,258.945  141.040,241.559 C 161.720,246.627  183.687,242.976  196.405,234.284 C 209.239,225.512  216.832,219.099  223.650,220.615 C 230.465,222.137  235.002,215.298  229.709,209.230 C 224.410,203.151  211.542,194.796  194.135,199.350 C 181.859,202.565  166.646,216.148  143.424,202.394 C 123.612,190.655  123.747,181.123  123.747,175.050 C 123.747,168.973  129.151,159.738  138.987,161.254 C 147.795,162.614  143.154,157.441  152.632,161.254 C 155.214,162.293  152.374,148.858  148.699,140.251 C 155.775,125.482  178.734,121.093  180.448,119.799 C 183.552,117.451  181.844,116.281  182.904,112.744 C 183.894,109.450  184.528,100.549  158.835,103.008 C 147.012,104.139  139.491,88.819  137.026,85.099 C 137.825,80.364  139.107,76.038  140.842,72.075 C 142.604,68.464  144.529,65.155  146.450,62.651 C 147.051,61.868  147.573,61.180  148.047,60.541 C 151.878,56.073  156.580,52.254  162.224,49.078 C 165.169,47.415  129.292,48.973  113.149,70.016 C 108.817,70.580  102.872,69.331  96.228,69.331 C 87.900,69.331  81.358,70.241  75.303,71.763 C 74.333,72.006  72.769,71.874  70.856,71.418 C 65.527,65.897  50.450,52.627  49.759,34.628 C 49.759,34.628  27.837,51.477  31.118,97.411 C 30.830,122.813  23.331,115.551  19.473,129.337 C 17.677,135.870  22.172,140.791  22.172,140.983 C 22.166,141.082  27.564,135.141  27.564,135.141 C 27.564,135.141  -6.431,194.036  37.471,269.222 C 75.312,334.037  138.812,362.682  204.706,357.104 C 216.232,356.353  227.841,354.636  239.424,351.838 C 392.939,314.721  376.246,129.349  376.246,129.349z" style="fill: url(#XMLID_74_) #000000;" id="path159"/>
</g>
<linearGradient x1="132.673" y1="111.233" x2="165.271" y2="114.026" id="XMLID_75_" gradientUnits="userSpaceOnUse">
<stop style="stop-color: #941403; stop-opacity: 1;" offset="0.0112" id="stop162"/>
<stop style="stop-color: #e85c0a; stop-opacity: 1;" offset="0.89719999" id="stop164"/>
</linearGradient>
<path d="M 136.510,82.892 C 136.510,82.892  143.145,101.023  158.027,100.963 C 186.419,100.849  186.987,101.242  187.170,104.695 C 187.734,115.203  182.546,118.646  180.562,120.141 C 178.571,121.634  151.536,137.308  150.542,141.791 C 149.549,146.270  119.346,99.165  119.346,99.165 L 136.510,82.892z" style="fill: url(#XMLID_75_) #000000;" id="path166"/>
<linearGradient x1="80.467" y1="102.199" x2="198.134" y2="116.907" id="XMLID_76_" gradientUnits="userSpaceOnUse">
<stop style="stop-color: #941403; stop-opacity: 1;" offset="0.0112" id="stop169"/>
<stop style="stop-color: #a32104; stop-opacity: 1;" offset="0.1357" id="stop171"/>
<stop style="stop-color: #c84107; stop-opacity: 1;" offset="0.49779999" id="stop173"/>
<stop style="stop-color: #df5509; stop-opacity: 1;" offset="0.78930002" id="stop175"/>
<stop style="stop-color: #e85c0a; stop-opacity: 1;" offset="0.972" id="stop177"/>
</linearGradient>
<path d="M 151.626,102.437 C 151.626,102.437  160.849,114.212  153.875,118.922 C 145.354,124.675  165.920,125.933  173.371,121.751 C 180.823,117.568  185.399,111.423  185.660,110.507 C 185.921,109.591  188.368,101.338  172.813,104.214 C 162.978,106.034  159.375,106.454  151.626,102.437z" style="fill: url(#XMLID_76_) #000000;" id="path179"/>
<linearGradient x1="153.364" y1="133.325" x2="162.748" y2="129.197" id="XMLID_77_" gradientUnits="userSpaceOnUse">
<stop style="stop-color: #f2c8a9; stop-opacity: 1;" offset="0" id="stop182"/>
<stop style="stop-color: #ffffcc; stop-opacity: 1;" offset="1" id="stop184"/>
</linearGradient>
<path d="M 180.565,120.141 C 182.072,119.007  185.417,116.728  186.695,111.102 C 185.762,111.480  185.675,110.411  184.573,110.873 C 163.692,132.655  162.894,117.487  151.497,120.541 C 141.109,123.384  138.776,127.284  138.338,127.587 C 138.491,127.806  138.650,128.031  138.803,128.251 C 141.797,129.770  144.667,134.621  146.822,138.951 C 148.930,141.460  150.344,142.697  150.548,141.788 C 151.539,137.305  178.574,121.631  180.565,120.141z" style="fill: url(#XMLID_77_) #000000;" id="path186"/>
<linearGradient x1="123.452" y1="248.198" x2="281.285" y2="254.697" id="XMLID_78_" gradientUnits="userSpaceOnUse">
<stop style="stop-color: #b30000; stop-opacity: 1;" offset="0" id="stop189"/>
<stop style="stop-color: #df731b; stop-opacity: 1;" offset="1" id="stop191"/>
</linearGradient>
<path d="M 24.558,137.449 C 20.295,146.393  -7.061,192.622  37.585,269.564 C 81.274,344.873  156.886,369.467  234.083,352.756 C 256.120,347.989  281.528,330.747  297.719,318.095 C 287.316,291.856  293.474,292.840  287.899,296.293 C 225.710,334.791  176.275,296.815  138.014,291.961 C -2.741,274.121  25.054,137.170  25.054,137.170 L 24.558,137.449z" style="fill: url(#XMLID_78_) #000000;" id="path193"/>
<linearGradient x1="161.011" y1="223.705" x2="243.306" y2="253.089" id="XMLID_79_" gradientUnits="userSpaceOnUse">
<stop style="stop-color: #941403; stop-opacity: 1;" offset="0" id="stop196"/>
<stop style="stop-color: #df731b; stop-opacity: 1;" offset="1" id="stop198"/>
</linearGradient>
<path d="M 141.764,242.982 C 155.031,246.960  183.975,243.531  196.408,234.284 C 204.784,228.058  211.113,223.362  216.436,221.399 C 207.027,215.007  206.877,224.068  187.092,228.649 C 145.877,238.211  125.867,217.556  125.867,217.556 C 128.785,233.900  138.993,241.859  143.586,244.684 C 142.367,243.603  141.728,242.970  141.764,242.982z" style="fill: url(#XMLID_79_) #000000;" id="path200"/>
<linearGradient x1="25.394" y1="261.631" x2="105.62" y2="261.631" id="XMLID_80_" gradientUnits="userSpaceOnUse" gradientTransform="rotate(8.427 27.644 286.878)">
<stop style="stop-color: #b30000; stop-opacity: 1;" offset="0.0562" id="stop203"/>
<stop style="stop-color: #de5c01; stop-opacity: 1;" offset="1" id="stop205"/>
</linearGradient>
<path d="M 97.069,317.621 C 97.069,317.621  62.759,278.904  53.182,235.545 C 39.059,222.206  29.038,210.927  22.382,202.770 C 26.225,233.624  41.957,281.525  97.069,317.621z" style="fill: url(#XMLID_80_) #000000;" id="path207"/>
<linearGradient x1="636.703" y1="-392.273" x2="680.351" y2="-257.049" id="XMLID_81_" gradientUnits="userSpaceOnUse" gradientTransform="rotate(20.451 -1626.852 -4956.142)">
<stop style="stop-color: #de7210; stop-opacity: 1;" offset="0.0562" id="stop210"/>
<stop style="stop-color: #f6c08f; stop-opacity: 1;" offset="1" id="stop212"/>
</linearGradient>
<path d="M 68.449,282.459 C 68.449,282.459  44.770,248.749  53.647,220.126 C 61.633,194.393  51.951,209.702  46.319,215.202 C 40.630,220.759  37.705,198.798  37.849,196.267 C 37.858,196.213  37.852,196.189  37.846,196.186 C 37.489,196.111  26.576,248.803  68.449,282.459z" style="fill: url(#XMLID_81_) #000000;" id="path214"/>
<linearGradient x1="44.503" y1="183.724" x2="44.503" y2="334.88" id="XMLID_82_" gradientUnits="userSpaceOnUse" gradientTransform="rotate(7.695 17.155 215.448)">
<stop style="stop-color: #de7210; stop-opacity: 1;" offset="0.0562" id="stop217"/>
<stop style="stop-color: #f6c08f; stop-opacity: 1;" offset="1" id="stop219"/>
</linearGradient>
<path d="M 33.370,253.072 C 33.370,253.072  27.972,184.657  45.034,174.987 C 72.129,159.630  47.295,163.221  39.438,167.484 C 31.497,171.786  32.232,143.466  33.355,140.776 C 34.457,138.125  5.389,167.550  33.370,253.072z" style="fill: url(#XMLID_82_) #000000;" id="path221"/>
<path d="M 151.917,51.756 C 151.917,51.756  130.466,73.543  130.625,73.618 C 130.787,73.696  131.241,101.584  131.940,109.489 C 134.510,112.525  142.520,132.271  136.390,127.887 C 130.127,123.414  134.642,123.318  135.189,125.591 C 135.204,125.666  135.204,125.702  135.189,125.702 C 134.774,125.894  119.622,92.908  151.917,51.756z" style="fill: #a40000;" id="path223"/>
<linearGradient x1="62.146" y1="92.872" x2="45.748" y2="50.851" id="XMLID_83_" gradientUnits="userSpaceOnUse">
<stop style="stop-color: #941403; stop-opacity: 1;" offset="0.0112" id="stop226"/>
<stop style="stop-color: #e85c0a; stop-opacity: 1;" offset="0.47189999" id="stop228"/>
<stop style="stop-color: #f9bd5f; stop-opacity: 1;" offset="1" id="stop230"/>
</linearGradient>
<path d="M 49.877,34.967 C 49.877,34.967  27.077,52.455  31.434,100.432 C 49.081,84.589  74.036,72.745  74.036,72.745 C 69.848,70.109  50.636,54.740  49.877,34.967z" style="fill: url(#XMLID_83_) #000000;" id="path232"/>
<linearGradient x1="132.266" y1="102.514" x2="171.562" y2="50.862" id="XMLID_84_" gradientUnits="userSpaceOnUse">
<stop style="stop-color: #de7210; stop-opacity: 1;" offset="0.19660001" id="stop235"/>
<stop style="stop-color: #f9bd5f; stop-opacity: 1;" offset="0.8427" id="stop237"/>
<stop style="stop-color: #fffccf; stop-opacity: 1;" offset="1" id="stop239"/>
</linearGradient>
<path d="M 106.064,87.432 L 140.308,130.019 C 130.427,88.197  138.023,63.104  162.344,49.417 C 165.944,47.388  111.531,50.147  106.064,87.432z" style="fill: url(#XMLID_84_) #000000;" id="path241"/>
<linearGradient x1="111.491" y1="173.019" x2="151.327" y2="252.691" id="XMLID_85_" gradientUnits="userSpaceOnUse">
<stop style="stop-color: #941403; stop-opacity: 1;" offset="0.0169" id="stop244"/>
<stop style="stop-color: #e35100; stop-opacity: 1;" offset="0.5" id="stop246"/>
<stop style="stop-color: #df731b; stop-opacity: 1;" offset="1" id="stop248"/>
</linearGradient>
<path d="M 81.938,192.637 C 87.777,155.841  138.987,161.251  138.987,161.251 C 136.702,162.948  127.929,163.962  125.416,170.982 C 117.124,194.156  125.032,244.780  176.689,266.012 C 182.138,268.258  73.309,247.014  81.938,192.637z" style="fill: url(#XMLID_85_) #000000;" id="path250"/>
<linearGradient x1="171.661" y1="124.159" x2="181.609" y2="133.174" id="XMLID_86_" gradientUnits="userSpaceOnUse">
<stop style="stop-color: #eea272; stop-opacity: 1;" offset="0" id="stop253"/>
<stop style="stop-color: #efa777; stop-opacity: 1;" offset="0.1865" id="stop255"/>
<stop style="stop-color: #f2b585; stop-opacity: 1;" offset="0.4064" id="stop257"/>
<stop style="stop-color: #f6cd9c; stop-opacity: 1;" offset="0.64300001" id="stop259"/>
<stop style="stop-color: #fceebb; stop-opacity: 1;" offset="0.88980001" id="stop261"/>
<stop style="stop-color: #ffffcc; stop-opacity: 1;" offset="1" id="stop263"/>
</linearGradient>
<path d="M 186.401,112.098 C 186.149,112.053  185.927,112.059  185.816,112.209 C 185.185,113.053  182.751,115.929  176.959,120.646 C 166.202,129.397  161.669,127.182  153.656,128.974 C 150.008,129.788  146.540,132.238  144.205,134.201 C 145.150,135.729  146.033,137.374  146.819,138.951 C 148.927,141.460  150.341,142.697  150.545,141.788 C 151.539,137.305  178.574,121.631  180.565,120.138 C 181.976,119.079  184.972,116.974  186.401,112.098z" style="fill: url(#XMLID_86_) #000000;" id="path265"/>
<linearGradient x1="113.642" y1="145.457" x2="159.34" y2="192.088" id="XMLID_87_" gradientUnits="userSpaceOnUse">
<stop style="stop-color: #df731b; stop-opacity: 1;" offset="0.19660001" id="stop268"/>
<stop style="stop-color: #f9bd5f; stop-opacity: 1;" offset="0.8427" id="stop270"/>
<stop style="stop-color: #fffccf; stop-opacity: 1;" offset="1" id="stop272"/>
</linearGradient>
<path d="M 153.385,167.721 C 153.686,159.945  153.142,141.058  145.057,132.862 C 138.882,126.602  137.431,119.430  136.603,111.243 C 69.463,136.321  59.877,169.102  66.590,168.036 C 120.289,159.525  135.384,158.483  153.385,167.721z" style="fill: url(#XMLID_87_) #000000;" id="path274"/>
<linearGradient x1="2551.388" y1="-3197.469" x2="2551.388" y2="-3026.152" id="XMLID_88_" gradientUnits="userSpaceOnUse" gradientTransform="rotate(44.112 -3854.012 -11249.82)">
<stop style="stop-color: #de7210; stop-opacity: 1;" offset="0.0562" id="stop277"/>
<stop style="stop-color: #f6c08f; stop-opacity: 1;" offset="1" id="stop279"/>
</linearGradient>
<path d="M 10.241,213.674 C 10.241,213.674  14.906,153.052  45.250,130.865 C 69.073,113.437  50.573,119.769  41.374,120.490 C 31.674,121.258  26.501,127.158  28.371,124.987 C 28.452,124.897  28.479,124.846  28.464,124.822 C 28.146,124.447  5.695,143.286  10.241,213.674z" style="fill: url(#XMLID_88_) #000000;" id="path281"/>
<linearGradient x1="54.666" y1="109.586" x2="-10.317" y2="203.916" id="XMLID_89_" gradientUnits="userSpaceOnUse" gradientTransform="matrix(2.971 -.0801 0.285 1.1727 -11.469 -4.947)">
<stop style="stop-color: #de7210; stop-opacity: 1;" offset="0.0562" id="stop284"/>
<stop style="stop-color: #f2c06e; stop-opacity: 1;" offset="1" id="stop286"/>
</linearGradient>
<path d="M 7.046,167.100 C 7.046,167.100  23.307,115.485  56.169,115.920 C 77.963,116.211  60.676,97.504  54.083,94.661 C 47.205,91.716  45.559,91.830  43.953,93.253 C 41.545,95.385  19.923,94.562  7.046,167.100z" style="fill: url(#XMLID_89_) #000000;" id="path288"/>
<linearGradient x1="250.032" y1="203.952" x2="188.497" y2="215.705" id="XMLID_90_" gradientUnits="userSpaceOnUse">
<stop style="stop-color: #fffaee; stop-opacity: 1;" offset="0.0047" id="stop291"/>
<stop style="stop-color: #f5f89b; stop-opacity: 1;" offset="0.2757" id="stop293"/>
<stop style="stop-color: #f3ed91; stop-opacity: 1;" offset="0.31020001" id="stop295"/>
<stop style="stop-color: #ecc267; stop-opacity: 1;" offset="0.4668" id="stop297"/>
<stop style="stop-color: #e6a046; stop-opacity: 1;" offset="0.6182" id="stop299"/>
<stop style="stop-color: #e2872e; stop-opacity: 1;" offset="0.76109999" id="stop301"/>
<stop style="stop-color: #e07820; stop-opacity: 1;" offset="0.89209998" id="stop303"/>
<stop style="stop-color: #df731b; stop-opacity: 1;" offset="1" id="stop305"/>
</linearGradient>
<path d="M 228.727,217.622 C 231.198,215.199  229.475,205.904  213.944,200.269 C 199.851,195.150  177.854,208.165  171.327,210.735 C 171.327,210.735  196.243,206.066  205.586,207.621 C 218.249,209.729  222.699,223.536  228.727,217.622z" style="fill: url(#XMLID_90_) #000000;" id="path307"/>
<linearGradient x1="-1234.748" y1="1284.114" x2="-1234.748" y2="1427.297" id="XMLID_91_" gradientUnits="userSpaceOnUse" gradientTransform="rotate(21.772 2864.416 10812.577)">
<stop style="stop-color: #de7210; stop-opacity: 1;" offset="0.0562" id="stop310"/>
<stop style="stop-color: #f2c06e; stop-opacity: 1;" offset="1" id="stop312"/>
</linearGradient>
<path d="M 31.049,200.617 C 31.049,200.617  28.350,149.873  51.092,128.199 C 68.947,111.177  54.302,118.427  46.757,120.021 C 38.801,121.709  35.153,127.158  36.471,125.155 C 36.528,125.071  36.540,125.026  36.528,125.008 C 36.219,124.735  19.659,142.778  31.049,200.617z" style="fill: url(#XMLID_91_) #000000;" id="path314"/>
<linearGradient x1="-1244.246" y1="1269.27" x2="-1244.246" y2="1412.438" id="XMLID_92_" gradientUnits="userSpaceOnUse" gradientTransform="rotate(63.639 832.438 4139.695)">
<stop style="stop-color: #de7210; stop-opacity: 1;" offset="0.0562" id="stop317"/>
<stop style="stop-color: #f2c06e; stop-opacity: 1;" offset="1" id="stop319"/>
</linearGradient>
<path d="M 13.534,184.498 C 13.534,184.498  23.144,134.597  50.441,119.046 C 71.871,106.829  55.914,110.336  48.204,110.066 C 40.074,109.787  35.223,114.194  36.982,112.570 C 37.057,112.504  37.081,112.459  37.072,112.444 C 36.844,112.098  16.422,125.621  13.534,184.498z" style="fill: url(#XMLID_92_) #000000;" id="path321"/>
<linearGradient x1="48.637" y1="167.782" x2="8.77" y2="227.582" id="XMLID_93_" gradientUnits="userSpaceOnUse" gradientTransform="rotate(-107.676 17.144 162.885)">
<stop style="stop-color: #de7210; stop-opacity: 1;" offset="0.0562" id="stop324"/>
<stop style="stop-color: #f2c072; stop-opacity: 1;" offset="1" id="stop326"/>
</linearGradient>
<path d="M 45.944,204.979 C 45.944,204.979  40.690,174.734  52.011,159.846 C 61.048,147.966  53.113,153.779  48.919,155.490 C 44.542,157.279  42.881,160.807  43.479,159.513 C 44.058,158.249  24.000,173.792  45.944,204.979z" style="fill: url(#XMLID_93_) #000000;" id="path328"/>
<linearGradient x1="70.213" y1="148.189" x2="30.347" y2="207.987" id="XMLID_94_" gradientUnits="userSpaceOnUse" gradientTransform="rotate(-107.676 17.144 162.885)">
<stop style="stop-color: #de7210; stop-opacity: 1;" offset="0.0562" id="stop331"/>
<stop style="stop-color: #f2c072; stop-opacity: 1;" offset="1" id="stop333"/>
</linearGradient>
<path d="M 51.948,176.458 C 51.948,176.458  46.694,146.213  58.016,131.325 C 67.052,119.445  59.117,125.257  54.923,126.969 C 50.546,128.758  48.886,132.286  49.483,130.992 C 50.063,129.728  30.005,145.270  51.948,176.458z" style="fill: url(#XMLID_94_) #000000;" id="path335"/>
<linearGradient x1="44.03" y1="113.944" x2="26.588" y2="146.501" id="XMLID_95_" gradientUnits="userSpaceOnUse">
<stop style="stop-color: #de7210; stop-opacity: 1;" offset="0.0562" id="stop338"/>
<stop style="stop-color: #eed8a5; stop-opacity: 1;" offset="1" id="stop340"/>
</linearGradient>
<path d="M 20.190,135.111 C 20.190,135.111  32.460,109.967  48.772,105.016 C 61.789,101.068  52.825,101.125  48.814,100.146 C 44.623,99.132  41.515,100.849  42.647,100.212 C 43.752,99.591  20.641,100.360  20.190,135.111z" style="fill: url(#XMLID_95_) #000000;" id="path342"/>
<linearGradient x1="42.279" y1="133.84" x2="24.838" y2="166.395" id="XMLID_96_" gradientUnits="userSpaceOnUse">
<stop style="stop-color: #de7210; stop-opacity: 1;" offset="0.0562" id="stop345"/>
<stop style="stop-color: #eed8a5; stop-opacity: 1;" offset="1" id="stop347"/>
</linearGradient>
<path d="M 18.440,155.010 C 18.440,155.010  30.710,129.866  47.021,124.915 C 60.039,120.967  51.074,121.024  47.063,120.045 C 42.872,119.031  39.765,120.748  40.897,120.111 C 41.999,119.487  18.887,120.258  18.440,155.010z" style="fill: url(#XMLID_96_) #000000;" id="path349"/>
<linearGradient x1="62.042" y1="120.028" x2="45.183" y2="161.885" id="XMLID_97_" gradientUnits="userSpaceOnUse">
<stop style="stop-color: #de7210; stop-opacity: 1;" offset="0.0562" id="stop352"/>
<stop style="stop-color: #f2c072; stop-opacity: 1;" offset="1" id="stop354"/>
</linearGradient>
<path d="M 27.348,149.522 C 27.348,149.522  48.991,105.166  77.768,96.430 C 100.735,89.464  84.919,89.563  77.840,87.843 C 70.448,86.051  64.966,89.086  66.959,87.960 C 68.911,86.858  28.140,88.215  27.348,149.522z" style="fill: url(#XMLID_97_) #000000;" id="path356"/>
<linearGradient x1="68.448" y1="99.652" x2="28.58" y2="159.454" id="XMLID_98_" gradientUnits="userSpaceOnUse">
<stop style="stop-color: #de7210; stop-opacity: 1;" offset="0.0562" id="stop359"/>
<stop style="stop-color: #f2c072; stop-opacity: 1;" offset="1" id="stop361"/>
</linearGradient>
<path d="M 42.143,125.633 C 42.143,125.633  55.605,98.045  73.501,92.611 C 87.786,88.278  77.948,88.341  73.546,87.270 C 68.947,86.156  65.539,88.041  66.779,87.342 C 67.992,86.657  42.635,87.501  42.143,125.633z" style="fill: url(#XMLID_98_) #000000;" id="path363"/>
<linearGradient x1="71.132" y1="111.725" x2="34.798" y2="166.226" id="XMLID_99_" gradientUnits="userSpaceOnUse">
<stop style="stop-color: #de7210; stop-opacity: 1;" offset="0.0562" id="stop366"/>
<stop style="stop-color: #f2c072; stop-opacity: 1;" offset="1" id="stop368"/>
</linearGradient>
<path d="M 46.532,135.378 C 46.532,135.378  58.802,110.234  75.114,105.283 C 88.131,101.335  79.167,101.392  75.156,100.414 C 70.964,99.399  67.857,101.116  68.989,100.480 C 70.091,99.855  46.979,100.627  46.532,135.378z" style="fill: url(#XMLID_99_) #000000;" id="path370"/>
<linearGradient x1="188.056" y1="103.234" x2="190.935" y2="108.364" id="XMLID_100_" gradientUnits="userSpaceOnUse">
<stop style="stop-color: #8b8b89; stop-opacity: 1;" offset="0" id="stop373"/>
<stop style="stop-color: #120500; stop-opacity: 1;" offset="1" id="stop375"/>
</linearGradient>
<path d="M 187.173,104.695 C 187.032,102.074  186.644,101.218  174.095,101.005 C 175.533,101.656  178.013,102.962  180.742,105.202 C 184.348,108.156  184.933,111.450  185.305,114.860 C 186.527,112.537  187.422,109.333  187.173,104.695z" style="fill: url(#XMLID_100_) #000000;" id="path377"/>
<linearGradient x1="74.791" y1="85.805" x2="74.791" y2="70.052" id="XMLID_101_" gradientUnits="userSpaceOnUse">
<stop style="stop-color: #de7210; stop-opacity: 1;" offset="0.0562" id="stop380"/>
<stop style="stop-color: #f6c08f; stop-opacity: 1;" offset="1" id="stop382"/>
</linearGradient>
<path d="M 113.491,69.670 L 102.608,87.183 C 102.608,87.183  59.087,80.358  22.193,116.052 C 19.142,119.001  46.325,52.936  113.491,69.670z" style="fill: url(#XMLID_101_) #000000;" id="path384"/>
<linearGradient x1="76.148" y1="104.596" x2="109.117" y2="66.068" id="XMLID_102_" gradientUnits="userSpaceOnUse" gradientTransform="rotate(6.881 33.954 73.069)">
<stop style="stop-color: #de7210; stop-opacity: 1;" offset="0.0562" id="stop387"/>
<stop style="stop-color: #f6c08f; stop-opacity: 1;" offset="1" id="stop389"/>
</linearGradient>
<path d="M 74.408,101.014 C 74.408,101.014  86.006,79.482  101.044,72.976 C 93.271,73.222  75.816,79.299  74.408,101.014z" style="fill: url(#XMLID_102_) #000000;" id="path391"/>
<linearGradient x1="53.623" y1="100.863" x2="36.182" y2="133.419" id="XMLID_103_" gradientUnits="userSpaceOnUse">
<stop style="stop-color: #de7210; stop-opacity: 1;" offset="0.0562" id="stop394"/>
<stop style="stop-color: #eed8a5; stop-opacity: 1;" offset="1" id="stop396"/>
</linearGradient>
<path d="M 29.782,122.030 C 29.782,122.030  42.053,96.886  58.364,91.935 C 71.382,87.987  62.417,88.044  58.406,87.066 C 54.215,86.051  51.107,87.768  52.239,87.132 C 53.344,86.510  30.230,87.279  29.782,122.030z" style="fill: url(#XMLID_103_) #000000;" id="path398"/>
<linearGradient x1="56.118" y1="107.759" x2="88.325" y2="70.122" id="XMLID_104_" gradientUnits="userSpaceOnUse" gradientTransform="rotate(17.884 21.63 106.025)">
<stop style="stop-color: #de7210; stop-opacity: 1;" offset="0.0562" id="stop401"/>
<stop style="stop-color: #f6c08f; stop-opacity: 1;" offset="1" id="stop403"/>
</linearGradient>
<path d="M 55.488,104.313 C 55.488,104.313  68.148,84.045  83.214,78.650 C 75.627,78.401  58.226,83.232  55.488,104.313z" style="fill: url(#XMLID_104_) #000000;" id="path405"/>
<linearGradient x1="47.208" y1="68.944" x2="85.9" y2="74.243" id="XMLID_105_" gradientUnits="userSpaceOnUse" gradientTransform="rotate(15.582 27.104 74.294)">
<stop style="stop-color: #de7210; stop-opacity: 1;" offset="0.0562" id="stop408"/>
<stop style="stop-color: #f6c08f; stop-opacity: 1;" offset="1" id="stop410"/>
</linearGradient>
<path d="M 77.194,69.694 C 77.194,69.694  67.647,73.865  50.813,66.866 L 65.822,74.411 L 77.194,69.694z" style="fill: url(#XMLID_105_) #000000;" id="path412"/>
<linearGradient x1="28.027" y1="69.645" x2="82.653" y2="77.126" id="XMLID_106_" gradientUnits="userSpaceOnUse">
<stop style="stop-color: #de7210; stop-opacity: 1;" offset="0.0562" id="stop415"/>
<stop style="stop-color: #f6c08f; stop-opacity: 1;" offset="1" id="stop417"/>
</linearGradient>
<path d="M 72.580,72.369 C 72.580,72.369  59.856,77.299  35.370,69.962 L 56.316,78.296 C 58.907,75.900  72.580,72.369  72.580,72.369z" style="fill: url(#XMLID_106_) #000000;" id="path419"/>
<linearGradient x1="54.74" y1="66.998" x2="90.297" y2="71.868" id="XMLID_107_" gradientUnits="userSpaceOnUse" gradientTransform="rotate(15.582 27.104 74.294)">
<stop style="stop-color: #de7210; stop-opacity: 1;" offset="0.0562" id="stop422"/>
<stop style="stop-color: #f6c08f; stop-opacity: 1;" offset="1" id="stop424"/>
</linearGradient>
<path d="M 81.866,68.328 C 81.866,68.328  73.420,70.898  57.821,64.864 L 72.829,72.408 C 74.414,71.006  81.866,68.328  81.866,68.328z" style="fill: url(#XMLID_107_) #000000;" id="path426"/>
<linearGradient x1="52.699" y1="81.145" x2="20.636" y2="77.854" id="XMLID_108_" gradientUnits="userSpaceOnUse">
<stop style="stop-color: #de7210; stop-opacity: 1;" offset="0.0562" id="stop429"/>
<stop style="stop-color: #f6c08f; stop-opacity: 1;" offset="1" id="stop431"/>
</linearGradient>
<path d="M 55.530,78.038 C 55.530,78.038  49.255,83.247  33.184,83.460 L 47.084,83.913 L 55.530,78.038z" style="fill: url(#XMLID_108_) #000000;" id="path433"/>
<linearGradient x1="39.922" y1="111.647" x2="84.276" y2="59.815" id="XMLID_109_" gradientUnits="userSpaceOnUse" gradientTransform="rotate(17.884 21.63 106.025)">
<stop style="stop-color: #de7210; stop-opacity: 1;" offset="0.0562" id="stop436"/>
<stop style="stop-color: #f6c08f; stop-opacity: 1;" offset="1" id="stop438"/>
</linearGradient>
<path d="M 40.263,104.692 C 40.263,104.692  61.738,76.717  79.425,70.382 C 70.514,70.091  43.473,79.947  40.263,104.692z" style="fill: url(#XMLID_109_) #000000;" id="path440"/>
</g>
<g id="Fire">
<linearGradient x1="272.253" y1="352.634" x2="359.121" y2="218.651" id="XMLID_110_" gradientUnits="userSpaceOnUse">
<stop style="stop-color: #de5c01; stop-opacity: 1;" offset="0" id="stop444"/>
<stop style="stop-color: #fefd00; stop-opacity: 1;" offset="0.736" id="stop446"/>
<stop style="stop-color: #fefe26; stop-opacity: 1;" offset="0.77829999" id="stop448"/>
<stop style="stop-color: #fffe54; stop-opacity: 1;" offset="0.8369" id="stop450"/>
<stop style="stop-color: #ffff76; stop-opacity: 1;" offset="0.889" id="stop452"/>
<stop style="stop-color: #ffff8b; stop-opacity: 1;" offset="0.93199998" id="stop454"/>
<stop style="stop-color: #ffff92; stop-opacity: 1;" offset="0.96069998" id="stop456"/>
</linearGradient>
<path d="M 372.878,152.395 C 372.878,152.395  375.192,204.298  303.093,276.400 C 295.080,284.410  251.574,325.169  253.105,337.397 C 253.643,341.717  367.254,319.969  372.878,152.395z" style="fill: url(#XMLID_110_) #000000;" id="path458"/>
<linearGradient x1="322.769" y1="68.529" x2="265.89" y2="43.548" id="XMLID_111_" gradientUnits="userSpaceOnUse">
<stop style="stop-color: #f79a09; stop-opacity: 1;" offset="0" id="stop461"/>
<stop style="stop-color: #fefd00; stop-opacity: 1;" offset="0.736" id="stop463"/>
<stop style="stop-color: #fefe26; stop-opacity: 1;" offset="0.77829999" id="stop465"/>
<stop style="stop-color: #fffe54; stop-opacity: 1;" offset="0.8369" id="stop467"/>
<stop style="stop-color: #ffff76; stop-opacity: 1;" offset="0.889" id="stop469"/>
<stop style="stop-color: #ffff8b; stop-opacity: 1;" offset="0.93199998" id="stop471"/>
<stop style="stop-color: #ffff92; stop-opacity: 1;" offset="0.96069998" id="stop473"/>
</linearGradient>
<path d="M 233.095,30.311 C 319.939,36.982  336.757,99.426  336.763,95.604 C 336.983,34.898  254.369,30.290  233.095,30.311z" style="fill: url(#XMLID_111_) #000000;" id="path475"/>
<linearGradient x1="360.975" y1="125.545" x2="281.346" y2="51.621" id="XMLID_112_" gradientUnits="userSpaceOnUse">
<stop style="stop-color: #de5c01; stop-opacity: 1;" offset="0" id="stop478"/>
<stop style="stop-color: #fefd00; stop-opacity: 1;" offset="0.736" id="stop480"/>
<stop style="stop-color: #fefe26; stop-opacity: 1;" offset="0.77829999" id="stop482"/>
<stop style="stop-color: #fffe54; stop-opacity: 1;" offset="0.8369" id="stop484"/>
<stop style="stop-color: #ffff76; stop-opacity: 1;" offset="0.889" id="stop486"/>
<stop style="stop-color: #ffff8b; stop-opacity: 1;" offset="0.93199998" id="stop488"/>
<stop style="stop-color: #ffff92; stop-opacity: 1;" offset="0.96069998" id="stop490"/>
</linearGradient>
<path d="M 259.542,54.050 C 259.542,54.050  319.747,66.356  336.727,130.169 C 338.979,138.620  329.474,78.329  332.407,84.051 C 335.334,89.804  308.176,55.956  259.542,54.050z" style="fill: url(#XMLID_112_) #000000;" id="path492"/>
<linearGradient x1="10.483" y1="436.929" x2="-29.92" y2="402.445" id="XMLID_113_" gradientUnits="userSpaceOnUse" gradientTransform="rotate(-4.867 -3656.633 -11310.603)">
<stop style="stop-color: #f79a09; stop-opacity: 1;" offset="0" id="stop495"/>
<stop style="stop-color: #fefd00; stop-opacity: 1;" offset="0.736" id="stop497"/>
<stop style="stop-color: #fefe26; stop-opacity: 1;" offset="0.77829999" id="stop499"/>
<stop style="stop-color: #fffe54; stop-opacity: 1;" offset="0.8369" id="stop501"/>
<stop style="stop-color: #ffff76; stop-opacity: 1;" offset="0.889" id="stop503"/>
<stop style="stop-color: #ffff8b; stop-opacity: 1;" offset="0.93199998" id="stop505"/>
<stop style="stop-color: #ffff92; stop-opacity: 1;" offset="0.96069998" id="stop507"/>
</linearGradient>
<path d="M 283.605,52.488 C 283.605,52.488  337.976,63.822  338.517,150.089 C 338.898,211.149  347.947,173.011  356.924,159.288 C 364.663,147.435  359.373,132.988  359.187,133.024 C 359.157,133.033  355.269,121.787  357.890,126.551 C 358.007,126.761  354.240,123.447  354.267,123.444 C 354.870,123.354  352.174,61.441  283.605,52.488z" style="fill: url(#XMLID_113_) #000000;" id="path509"/>
<linearGradient x1="347.627" y1="167.892" x2="366.393" y2="103.339" id="XMLID_114_" gradientUnits="userSpaceOnUse">
<stop style="stop-color: #f79a09; stop-opacity: 1;" offset="0" id="stop512"/>
<stop style="stop-color: #fefd00; stop-opacity: 1;" offset="0.736" id="stop514"/>
<stop style="stop-color: #fefe26; stop-opacity: 1;" offset="0.77829999" id="stop516"/>
<stop style="stop-color: #fffe54; stop-opacity: 1;" offset="0.8369" id="stop518"/>
<stop style="stop-color: #ffff76; stop-opacity: 1;" offset="0.889" id="stop520"/>
<stop style="stop-color: #ffff8b; stop-opacity: 1;" offset="0.93199998" id="stop522"/>
<stop style="stop-color: #ffff92; stop-opacity: 1;" offset="0.96069998" id="stop524"/>
</linearGradient>
<path d="M 344.830,64.176 C 344.830,64.176  364.360,115.050  343.663,140.347 C 336.908,148.603  336.151,190.902  344.404,187.017 C 352.678,183.126  350.880,209.477  349.796,212.476 C 349.772,212.533  349.766,212.560  349.778,212.569 C 350.319,212.902  390.585,147.540  344.830,64.176z" style="fill: url(#XMLID_114_) #000000;" id="path526"/>
<linearGradient x1="-156.016" y1="639.109" x2="-156.701" y2="590.01" id="XMLID_115_" gradientUnits="userSpaceOnUse" gradientTransform="rotate(-7.088 -3658.052 -11295.04)">
<stop style="stop-color: #f79a09; stop-opacity: 1;" offset="0" id="stop529"/>
<stop style="stop-color: #fefd00; stop-opacity: 1;" offset="0.736" id="stop531"/>
<stop style="stop-color: #fefe26; stop-opacity: 1;" offset="0.77829999" id="stop533"/>
<stop style="stop-color: #fffe54; stop-opacity: 1;" offset="0.8369" id="stop535"/>
<stop style="stop-color: #ffff76; stop-opacity: 1;" offset="0.889" id="stop537"/>
<stop style="stop-color: #ffff8b; stop-opacity: 1;" offset="0.93199998" id="stop539"/>
<stop style="stop-color: #ffff92; stop-opacity: 1;" offset="0.96069998" id="stop541"/>
</linearGradient>
<path d="M 317.681,117.734 C 317.681,117.734  329.975,153.728  317.102,179.460 L 326.841,201.211 C 333.983,183.666  343.077,146.561  317.681,117.734z" style="fill: url(#XMLID_115_) #000000;" id="path543"/>
<linearGradient x1="-518.554" y1="997.26" x2="-484.733" y2="930.644" id="XMLID_116_" gradientUnits="userSpaceOnUse" gradientTransform="rotate(-12.165 -3665.391 -11200.655)">
<stop style="stop-color: #f79a09; stop-opacity: 1;" offset="0" id="stop546"/>
<stop style="stop-color: #fefd00; stop-opacity: 1;" offset="0.736" id="stop548"/>
<stop style="stop-color: #fefe26; stop-opacity: 1;" offset="0.77829999" id="stop550"/>
<stop style="stop-color: #fffe54; stop-opacity: 1;" offset="0.8369" id="stop552"/>
<stop style="stop-color: #ffff76; stop-opacity: 1;" offset="0.889" id="stop554"/>
<stop style="stop-color: #ffff8b; stop-opacity: 1;" offset="0.93199998" id="stop556"/>
<stop style="stop-color: #ffff92; stop-opacity: 1;" offset="0.96069998" id="stop558"/>
</linearGradient>
<path d="M 339.303,113.452 C 339.303,113.452  347.806,170.585  317.126,222.158 C 317.600,234.086  315.507,244.882  312.634,253.778 C 313.970,255.537  315.760,256.741  318.119,256.951 C 317.078,257.912  316.042,258.813  315.039,259.665 C 313.196,260.479  311.307,261.341  309.479,262.226 C 309.089,263.136  308.695,264.019  308.311,264.865 C 310.353,263.433  312.628,261.695  315.036,259.668 C 321.302,256.900  326.940,254.751  326.928,254.739 C 326.928,254.739  325.778,255.168  323.016,256.174 C 321.158,256.849  319.533,257.077  318.116,256.951 C 341.810,235.359  374.277,187.074  339.303,113.452 M 303.555,265.337 C 300.847,266.925  298.878,268.414  298.458,269.564 C 298.148,270.401  299.995,269.918  303.186,268.126 C 303.351,267.168  303.486,266.228  303.555,265.337z" style="fill: url(#XMLID_116_) #000000;" id="path560"/>
<linearGradient x1="304.902" y1="263.702" x2="309.451" y2="189.914" id="XMLID_117_" gradientUnits="userSpaceOnUse" gradientTransform="rotate(-12.165 187.36 485.597)">
<stop style="stop-color: #de5c01; stop-opacity: 1;" offset="0" id="stop563"/>
<stop style="stop-color: #fefd00; stop-opacity: 1;" offset="0.736" id="stop565"/>
<stop style="stop-color: #fefe26; stop-opacity: 1;" offset="0.77829999" id="stop567"/>
<stop style="stop-color: #fffe54; stop-opacity: 1;" offset="0.8369" id="stop569"/>
<stop style="stop-color: #ffff76; stop-opacity: 1;" offset="0.889" id="stop571"/>
<stop style="stop-color: #ffff8b; stop-opacity: 1;" offset="0.93199998" id="stop573"/>
<stop style="stop-color: #ffff92; stop-opacity: 1;" offset="0.96069998" id="stop575"/>
</linearGradient>
<path d="M 301.463,174.326 C 301.463,174.326  325.652,243.174  248.344,307.723 C 243.783,311.532  279.723,309.902  282.870,308.473 C 292.135,304.264  303.084,276.178  301.793,279.540 C 300.511,282.900  337.691,229.895  301.463,174.326z" style="fill: url(#XMLID_117_) #000000;" id="path577"/>
<linearGradient x1="182.3" y1="342.1" x2="324.926" y2="256.852" id="XMLID_118_" gradientUnits="userSpaceOnUse">
<stop style="stop-color: #b9120d; stop-opacity: 1;" offset="0" id="stop580"/>
<stop style="stop-color: #bb180d; stop-opacity: 1;" offset="0.078" id="stop582"/>
<stop style="stop-color: #c0290c; stop-opacity: 1;" offset="0.1822" id="stop584"/>
<stop style="stop-color: #c8450a; stop-opacity: 1;" offset="0.30129999" id="stop586"/>
<stop style="stop-color: #d36c08; stop-opacity: 1;" offset="0.4314" id="stop588"/>
<stop style="stop-color: #e29e05; stop-opacity: 1;" offset="0.57059997" id="stop590"/>
<stop style="stop-color: #f4da02; stop-opacity: 1;" offset="0.71509999" id="stop592"/>
<stop style="stop-color: #fefd00; stop-opacity: 1;" offset="0.79210001" id="stop594"/>
<stop style="stop-color: #fefd07; stop-opacity: 1;" offset="0.8136" id="stop596"/>
<stop style="stop-color: #fefd1b; stop-opacity: 1;" offset="0.84549999" id="stop598"/>
<stop style="stop-color: #fefe3c; stop-opacity: 1;" offset="0.88370001" id="stop600"/>
<stop style="stop-color: #fffe69; stop-opacity: 1;" offset="0.92680001" id="stop602"/>
<stop style="stop-color: #ffffa3; stop-opacity: 1;" offset="0.97359997" id="stop604"/>
<stop style="stop-color: #ffffc7; stop-opacity: 1;" offset="1" id="stop606"/>
</linearGradient>
<path d="M 335.292,217.994 C 335.292,217.994  320.701,307.293  219.822,314.478 C 180.322,317.294  123.606,308.050  128.629,323.115 C 130.187,327.787  137.612,347.262  154.556,351.781 C 200.416,364.015  322.428,360.010  335.292,217.994z" style="fill: url(#XMLID_118_) #000000;" id="path608"/>
</g>
<g id="Layer_6">
<linearGradient x1="169.904" y1="281.223" x2="316.014" y2="301.019" id="XMLID_119_" gradientUnits="userSpaceOnUse" gradientTransform="rotate(17.035 66.469 305.345)">
<stop style="stop-color: #de7210; stop-opacity: 1;" offset="0.0562" id="stop612"/>
<stop style="stop-color: #f6c08f; stop-opacity: 1;" offset="1" id="stop614"/>
</linearGradient>
<path d="M 251.160,285.572 C 251.160,285.572  189.437,299.674  149.449,265.634 C 112.861,234.479  131.013,260.701  135.975,273.635 C 141.073,286.899  112.399,276.763  108.087,274.632 C 103.791,272.527  176.007,317.816  251.160,285.572z" style="fill: url(#XMLID_119_) #000000;" id="path616"/>
<linearGradient x1="124.188" y1="270.136" x2="293.843" y2="323.456" id="XMLID_120_" gradientUnits="userSpaceOnUse" gradientTransform="rotate(24.994 47.227 285.821)">
<stop style="stop-color: #de7210; stop-opacity: 1;" offset="0.0562" id="stop619"/>
<stop style="stop-color: #f6c08f; stop-opacity: 1;" offset="1" id="stop621"/>
</linearGradient>
<path d="M 211.383,319.215 C 211.383,319.215  137.753,304.744  114.440,254.853 C 94.520,212.230  99.792,243.507  98.894,257.741 C 97.952,272.383  77.305,252.388  74.546,248.908 C 74.468,248.824  74.414,248.767  74.408,248.782 C 73.997,249.052  112.384,309.230  211.383,319.215z" style="fill: url(#XMLID_120_) #000000;" id="path623"/>
<linearGradient x1="-1805.761" y1="1888.568" x2="-1725.09" y2="2043.014" id="XMLID_121_" gradientUnits="userSpaceOnUse" gradientTransform="rotate(-31.1 -3298.865 -9257.496)">
<stop style="stop-color: #de7210; stop-opacity: 1;" offset="0.0562" id="stop626"/>
<stop style="stop-color: #f6c08f; stop-opacity: 1;" offset="1" id="stop628"/>
</linearGradient>
<path d="M 130.950,312.763 C 130.950,312.763  95.781,285.524  79.926,248.173 C 66.602,243.543  48.886,232.960  48.535,231.150 C 54.164,260.173  83.799,294.059  130.950,312.763z" style="fill: url(#XMLID_121_) #000000;" id="path630"/>
</g>
</g>
</svg>
