<?xml version="1.0" encoding="utf-8"?>
<!--Generator: Adobe Illustrator 15.0.0, SVG Export Plug-In . SVG Version: 6.00 Build 0)-->
<!DOCTYPE svg PUBLIC "-//W3C//DTD SVG 1.1//EN" "http://www.w3.org/Graphics/SVG/1.1/DTD/svg11.dtd">
<svg version="1.1" id="Skin_x5F_01" xmlns="http://www.w3.org/2000/svg" xmlns:xlink="http://www.w3.org/1999/xlink" x="0px" y="0px"    enable-background="new 0 0 382.202 736.081" xml:space="preserve" width="400" height="736.0819" >
<g id="Fluo_pants">
<g>
<linearGradient class="color_1 yellowOrBlue" id="9430b715-8326-4ceb-a992-ab8694939a7e" >
<stop data-target="-18" stop-color="#93AB20"></stop>
</linearGradient>
<path fill="url(#9430b715-8326-4ceb-a992-ab8694939a7e)" d="M222.680,31.959 C226.804,100.688 224.399,356.357 222.337,400.687 C223.368,437.800 207.955,471.412 204.467,508.591 C200.341,552.577 209.794,607.217 212.886,632.989 C214.180,649.363 210.996,669.795 212.371,683.505 C212.922,688.986 219.317,692.077 219.819,696.885 C221.066,708.822 221.079,718.467 221.650,724.741 C249.485,721.649 297.938,710.652 330.928,710.652 C329.090,704.087 328.263,694.874 327.320,682.988 C326.954,678.387 333.634,671.006 333.505,666.493 C332.024,614.916 330.627,539.149 335.739,494.158 C339.862,465.292 346.392,444.674 353.608,424.054 C374.226,356.701 400.000,178.350 380.412,13.402 C347.165,31.959 289.948,41.580 222.680,31.959z"/>
<linearGradient class="color_1 yellowOrBlue" id="c3deb90d-3b9f-4906-a55b-57fe29bf456e" >
<stop data-target="0" stop-color="#B7D130"></stop>
</linearGradient>
<path fill="url(#c3deb90d-3b9f-4906-a55b-57fe29bf456e)" d="M227.311,715.684 C227.062,710.354 226.753,703.721 225.972,696.242 C225.531,692.032 223.032,689.062 221.024,686.676 C219.841,685.271 218.619,683.819 218.526,682.886 C217.889,676.545 218.315,668.384 218.766,659.742 C219.242,650.600 219.736,641.146 219.052,632.502 L219.028,632.252 C218.507,627.910 217.807,622.756 217.021,616.974 C213.133,588.348 207.257,545.087 210.625,509.168 C212.067,493.801 215.701,478.656 219.216,464.009 C224.075,443.755 229.100,422.815 228.526,400.746 C230.659,354.263 232.802,116.591 229.247,39.074 C244.592,40.972 259.814,41.931 274.594,41.931 C313.815,41.931 349.119,35.243 375.273,22.975 C392.139,178.594 369.117,352.149 347.729,422.126 C340.926,441.572 333.929,463.090 329.616,493.283 C324.409,539.076 325.814,614.162 327.322,666.671 C327.215,667.439 325.832,670.004 325.006,671.536 C322.949,675.352 320.820,679.298 321.153,683.478 C321.818,691.845 322.420,698.816 323.347,704.635 C302.599,705.511 277.733,709.656 255.506,713.363 C245.380,715.051 235.694,716.665 227.409,717.791 C227.378,717.111 227.345,716.407 227.311,715.684z"/>
<linearGradient class="color_1 yellowOrBlue" id="d21584de-20be-4d20-af67-f34a3861764e" >
<stop data-target="18" stop-color="#DBF74A"></stop>
</linearGradient>
<path fill="url(#d21584de-20be-4d20-af67-f34a3861764e)" d="M251.890,460.481 C242.611,528.522 243.299,659.793 255.723,713.326 C277.896,709.629 302.665,705.509 323.348,704.635 C322.421,698.817 321.818,691.845 321.153,683.478 C320.821,679.298 322.949,675.352 325.006,671.536 C325.833,670.005 327.216,667.439 327.322,666.671 C325.815,614.162 323.712,528.179 330.928,482.130 C306.873,506.529 272.508,479.037 251.890,460.481z"/>
<linearGradient class="color_2 yellowOrBlue" id="SVGID_1_" gradientUnits="userSpaceOnUse" x1="150.373" y1="541.383" x2="339.129" y2="534.641">
<stop data-target="0" offset="0" stop-color="#949FA1" style=""/>
<stop data-target="24" offset="1" stop-color="#B7C6C9" style=""/>
</linearGradient>
<path fill="url(#SVGID_1_)" d="M326.130,559.344 C326.356,544.722 326.805,530.568 327.581,517.633 C288.506,522.356 248.569,520.771 210.257,513.941 C209.260,528.040 209.578,543.082 210.540,557.813 C248.590,563.763 287.623,562.759 326.130,559.344z"/>
<linearGradient class="color_2 yellowOrBlue" id="864344d7-d3f3-44c6-b945-6d791b99f7c7" >
<stop data-target="-9" stop-color="#868F98"></stop>
</linearGradient>
<path fill="url(#864344d7-d3f3-44c6-b945-6d791b99f7c7)" d="M246.536,518.771 C234.335,517.693 222.216,516.072 210.257,513.940 C209.260,528.039 209.578,543.081 210.540,557.812 C222.356,559.659 233.745,560.868 245.704,561.512 C245.527,547.275 245.878,533.006 246.536,518.771z"/>
<linearGradient class="color_2 yellowOrBlue" id="SVGID_2_" gradientUnits="userSpaceOnUse" x1="153.01" y1="638.205" x2="322.082" y2="625.834">
<stop data-target="0" offset="0" stop-color="#949FA1" style=""/>
<stop data-target="24" offset="1" stop-color="#B7C6C9" style=""/>
</linearGradient>
<path fill="url(#SVGID_2_)" d="M326.720,643.616 C326.433,631.335 326.194,618.372 326.061,605.203 C290.169,612.765 252.772,614.498 216.534,613.369 C216.697,614.576 216.863,615.812 217.021,616.974 C217.808,622.756 218.507,627.910 219.028,632.252 L219.053,632.502 C219.452,637.553 219.431,642.884 219.265,648.262 C254.882,651.224 291.381,650.223 326.720,643.616z"/>
<linearGradient class="color_2 yellowOrBlue" id="56e33bbd-08c9-45bc-9925-5d471d98fe3d" >
<stop data-target="-9" stop-color="#868F98"></stop>
</linearGradient>
<path fill="url(#56e33bbd-08c9-45bc-9925-5d471d98fe3d)" d="M245.888,613.594 C236.054,613.760 226.252,613.672 216.534,613.369 C216.697,614.576 216.863,615.812 217.021,616.974 C217.808,622.756 218.507,627.910 219.028,632.252 L219.053,632.502 C219.452,637.553 219.431,642.884 219.265,648.262 C228.507,649.030 238.098,649.621 247.423,649.827 C246.367,637.626 245.838,625.572 245.888,613.594z"/>
<linearGradient class="color_1 yellowOrBlue" id="28041b2a-55ec-49ee-9f61-70e14663931f" >
<stop data-target="18" stop-color="#DBF74A"></stop>
</linearGradient>
<path fill="url(#28041b2a-55ec-49ee-9f61-70e14663931f)" d="M375.273,22.975 C350.136,34.765 316.535,41.385 279.140,41.883 C265.767,174.755 251.872,306.461 262.747,441.465 C276.780,465.373 302.191,502.495 328.092,490.721 C330.927,489.432 332.216,477.061 333.521,471.213 C337.594,451.962 342.711,436.470 347.729,422.126 C369.117,352.149 392.139,178.595 375.273,22.975z"/>
</g>
<g>
<linearGradient class="color_1 yellowOrBlue" id="816aaa2f-0d1b-4e7d-930c-c67ded340799" >
<stop data-target="-18" stop-color="#93AB20"></stop>
</linearGradient>
<path fill="url(#816aaa2f-0d1b-4e7d-930c-c67ded340799)" d="M118.557,0.000 C73.539,186.254 56.699,300.342 39.518,427.491 C30.240,484.193 19.931,501.374 14.776,531.271 C0.000,586.254 6.701,693.299 6.701,693.299 S9.966,703.436 12.313,708.573 C12.684,716.796 12.540,727.322 12.887,736.082 C46.907,729.897 86.944,723.539 117.525,731.443 C117.095,720.533 117.130,716.005 117.525,704.123 C117.627,701.078 121.649,688.659 121.649,688.659 S122.419,652.901 127.320,619.587 C133.505,573.196 146.391,529.553 159.793,474.914 C201.033,388.315 262.886,196.564 275.257,158.075 C281.094,156.407 297.937,152.577 297.937,152.577 S314.432,87.887 304.123,38.489 C213.917,38.144 156.701,17.526 118.557,0.000z"/>
<linearGradient class="color_1 yellowOrBlue" id="4f3f7879-92c6-4d25-8ec7-8ffd45063d49" >
<stop data-target="0" stop-color="#B7D130"></stop>
</linearGradient>
<path fill="url(#4f3f7879-92c6-4d25-8ec7-8ffd45063d49)" d="M18.881,728.721 C18.846,726.650 18.822,724.549 18.800,722.479 C18.744,717.638 18.688,712.631 18.493,708.293 L18.438,707.093 L17.938,706.001 C16.118,702.016 13.609,694.509 12.829,692.139 C12.272,682.392 7.058,583.824 20.750,532.877 L20.824,532.602 L20.873,532.323 C22.937,520.350 25.876,510.395 29.280,498.869 C34.104,482.530 40.108,462.196 45.623,428.491 C62.841,301.082 79.497,189.075 122.825,8.697 C174.904,31.536 230.670,46.650 306.443,40.206 C312.732,80.755 297.533,134.191 293.196,147.319 C287.924,148.538 277.917,150.882 273.558,152.129 L270.380,153.037 L269.369,156.183 C247.293,224.865 191.880,393.153 154.209,472.255 L153.938,472.826 L153.787,473.440 C150.627,486.326 147.495,498.596 144.467,510.462 C134.536,549.376 125.961,582.981 121.189,618.770 C116.735,649.047 115.652,681.765 115.490,687.610 C113.871,692.661 111.451,700.699 111.344,703.918 C111.058,712.528 110.956,717.411 111.091,723.717 C103.056,722.277 94.237,721.573 84.366,721.573 C62.659,721.572 39.572,725.063 18.881,728.721z"/>
<linearGradient class="color_1 yellowOrBlue" id="04f82a87-ac9a-41b4-80b6-e238e7185dfc" >
<stop data-target="18" stop-color="#DBF74A"></stop>
</linearGradient>
<path fill="url(#04f82a87-ac9a-41b4-80b6-e238e7185dfc)" d="M66.323,439.862 C32.302,517.182 27.230,645.203 25.956,727.500 C44.757,724.325 65.101,721.572 84.366,721.572 C94.237,721.572 103.055,722.276 111.091,723.716 C110.956,717.410 111.058,712.527 111.344,703.917 C111.451,700.698 113.871,692.660 115.490,687.609 C115.652,681.764 116.735,649.046 121.189,618.770 C125.961,582.981 134.536,549.375 144.467,510.461 C144.853,508.948 150.173,482.816 153.609,472.164 C127.320,484.020 92.440,471.478 66.323,439.862z"/>
<linearGradient class="color_2 yellowOrBlue" id="SVGID_3_" gradientUnits="userSpaceOnUse" x1="-3.078" y1="508.425" x2="107.262" y2="529.731">
<stop data-target="0" offset="0" stop-color="#949FA1" style=""/>
<stop data-target="24" offset="1" stop-color="#B7C6C9" style=""/>
</linearGradient>
<path fill="url(#SVGID_3_)" d="M134.452,550.546 C137.334,538.523 140.444,526.231 143.731,513.349 C105.489,514.885 66.715,507.476 31.278,492.062 C30.594,494.413 29.926,496.681 29.280,498.868 C25.963,510.103 23.093,519.858 21.037,531.429 C56.699,546.335 95.751,551.879 134.452,550.546z"/>
<linearGradient class="color_2 yellowOrBlue" id="e12d2fb6-b379-4df9-a23b-b5bf454002ba" >
<stop data-target="-9" stop-color="#868F98"></stop>
</linearGradient>
<path fill="url(#e12d2fb6-b379-4df9-a23b-b5bf454002ba)" d="M31.278,492.062 C30.594,494.413 29.926,496.681 29.280,498.868 C25.963,510.103 23.092,519.858 21.037,531.429 C26.847,533.857 33.718,536.459 39.691,538.402 C41.838,525.166 44.910,508.806 47.423,498.581 C41.868,496.604 36.691,494.417 31.278,492.062z"/>
<linearGradient class="color_2 yellowOrBlue" id="SVGID_4_" gradientUnits="userSpaceOnUse" x1="-16.167" y1="620.187" x2="79.053" y2="630.497">
<stop data-target="0" offset="0" stop-color="#949FA1" style=""/>
<stop data-target="24" offset="1" stop-color="#B7C6C9" style=""/>
</linearGradient>
<path fill="url(#SVGID_4_)" d="M117.344,653.907 C118.202,643.009 119.433,630.702 121.188,618.770 C121.472,616.651 121.780,614.545 122.090,612.439 C84.907,613.311 47.703,608.936 12.187,600.670 C11.530,615.131 11.348,629.498 11.409,642.445 C45.626,651.209 81.409,654.563 117.344,653.907z"/>
<linearGradient class="color_2 yellowOrBlue" id="4d43a9cb-6467-4205-9335-33665618676a" >
<stop data-target="-9" stop-color="#868F98"></stop>
</linearGradient>
<path fill="url(#4d43a9cb-6467-4205-9335-33665618676a)" d="M12.187,600.670 C11.530,615.131 11.348,629.499 11.409,642.446 C16.915,643.856 22.465,645.111 28.047,646.248 C28.520,632.382 29.749,618.518 31.061,604.652 C24.724,603.448 18.428,602.122 12.187,600.670z"/>
<linearGradient class="color_1 yellowOrBlue" id="6f8c2eb4-74dc-491d-a046-bf738a4fe49b" >
<stop data-target="18" stop-color="#DBF74A"></stop>
</linearGradient>
<path fill="url(#6f8c2eb4-74dc-491d-a046-bf738a4fe49b)" d="M306.186,40.549 C245.518,45.708 195.971,36.514 152.577,21.134 C147.412,39.167 142.509,63.139 138.814,81.612 C130.566,120.787 118.195,155.839 112.009,195.014 C97.468,269.542 83.736,342.467 76.447,415.203 C79.195,426.955 83.942,438.194 91.391,448.622 C105.062,469.889 126.288,487.113 153.608,473.711 C191.222,393.112 270.876,154.639 270.876,154.639 S289.058,149.414 294.330,148.196 C298.667,135.068 313.402,81.443 306.186,40.549z"/>
</g>
</g>
</svg>
