<?xml version="1.0" encoding="utf-8"?>
<!--Generator: Adobe Illustrator 15.0.0, SVG Export Plug-In . SVG Version: 6.00 Build 0)-->
<!DOCTYPE svg PUBLIC "-//W3C//DTD SVG 1.1//EN" "http://www.w3.org/Graphics/SVG/1.1/DTD/svg11.dtd">
<svg version="1.1" id="Gas_mask" xmlns="http://www.w3.org/2000/svg" xmlns:xlink="http://www.w3.org/1999/xlink" x="0px" y="0px" width="400px" height="244.72px" viewBox="0 0 400 244.72" enable-background="new 0 0 400 244.72" xml:space="preserve">
<g>
<path fill="#333333" d="M69.264,97.857 C60.673,92.702 34.549,64.100 31.114,62.038 C29.052,54.820 29.567,43.392 29.567,40.641 C36.269,46.312 71.652,78.803 74.745,80.865 C73.367,84.994 69.948,94.764 69.264,97.857z"/>
<path fill="#333333" d="M328.225,95.102 C336.816,89.947 358.134,66.678 361.570,62.553 C363.632,55.336 362.259,43.994 362.259,41.243 C355.557,46.914 325.391,77.830 322.298,79.892 C323.671,84.016 327.540,92.009 328.225,95.102z"/>
<path fill="#333333" d="M337.438,107.232 C334.964,74.266 298.715,65.300 277.636,49.492 C252.890,30.932 235.399,0.000 200.000,0.000 S147.110,30.932 122.364,49.492 C101.285,65.300 65.036,74.266 62.562,107.232 C59.468,148.475 117.860,244.720 200.000,244.720 S340.532,148.475 337.438,107.232z"/>
<path fill="#4D4D4D" d="M200.000,238.538 C168.478,238.538 136.556,222.840 110.115,194.337 C81.339,163.323 67.317,126.550 68.731,107.698 C70.307,86.726 87.877,76.910 106.473,66.521 C113.220,62.751 120.195,58.854 126.076,54.445 C133.491,48.881 140.243,42.299 146.768,35.935 C162.452,20.638 177.267,6.191 200.000,6.191 S237.548,20.638 253.232,35.935 C259.761,42.299 266.509,48.885 273.924,54.445 C279.805,58.854 286.780,62.751 293.527,66.521 C312.128,76.910 329.697,86.726 331.268,107.698 C332.683,126.554 318.656,163.327 289.885,194.337 C263.444,222.840 231.518,238.538 200.000,238.538z"/>
<linearGradient id="SVGID_1_" gradientUnits="userSpaceOnUse" x1="128.718" y1="122.364" x2="266.712" y2="122.364">
<stop offset="0.0121" style="stop-color:#4D4D4D"/>
<stop offset="0.5273" style="stop-color:#666666"/>
<stop offset="1" style="stop-color:#4D4D4D"/>
</linearGradient>
<path fill="url(#SVGID_1_)" d="M236.430,20.560 C226.734,12.703 217.772,6.191 200.000,6.191 C186.344,6.191 175.555,11.420 165.711,18.898 C143.501,83.695 153.296,181.131 180.694,236.566 C187.112,237.853 193.566,238.542 200.000,238.542 C211.235,238.542 222.515,236.513 233.584,232.656 C250.218,144.524 251.026,86.243 236.430,20.560z"/>
<circle fill="#333333" cx="200" cy="101.046" r="42.616"/>
<circle fill="#1A1A1A" cx="200" cy="109.294" r="42.616"/>
<path fill="#666666" d="M199.996,145.728 C179.906,145.728 163.566,129.384 163.566,109.294 C163.566,89.205 179.906,72.864 199.996,72.864 C220.085,72.864 236.430,89.205 236.430,109.294 C236.430,129.384 220.085,145.728 199.996,145.728z"/>
<path fill="#1A1A1A" d="M200.000,127.685 C189.862,127.685 181.614,119.436 181.614,109.294 C181.614,99.157 189.862,90.908 200.000,90.908 S218.386,99.157 218.386,109.294 C218.386,119.436 210.138,127.685 200.000,127.685z"/>
<g>
<rect x="196.767" y="69.251" fill="#1A1A1A" width="6.186" height="79.913"/>
</g>
<g>
<rect x="159.899" y="106.114" transform="rotate(45.001 199.868 109.199)" fill="#1A1A1A" width="79.913" height="6.186"/>
</g>
<g>
<rect x="159.899" y="106.114" fill="#1A1A1A" width="79.913" height="6.186"/>
</g>
<g>
<rect x="196.762" y="69.247" transform="rotate(45.001 199.868 109.199)" fill="#1A1A1A" width="6.186" height="79.917"/>
</g>
<path fill="#1A1A1A" d="M91.362,210.336 C73.920,205.968 57.720,180.071 51.422,145.559 C45.017,110.453 51.203,80.498 66.154,70.637 L65.795,68.785 L72.192,67.886 C72.761,67.701 73.235,67.564 73.730,67.474 C74.877,67.263 76.073,67.156 77.269,67.156 C77.376,67.156 77.483,67.156 77.591,67.156 C84.115,66.265 95.453,64.669 101.825,63.510 C102.992,63.296 104.192,63.189 105.388,63.189 C124.463,63.189 143.340,90.735 150.265,128.683 C155.375,156.703 152.492,182.740 142.734,196.631 C138.742,202.314 133.603,205.824 127.870,206.780 C120.933,207.943 107.950,209.634 100.476,210.587 C100.262,210.649 100.043,210.694 99.825,210.736 C99.288,210.835 98.703,210.876 98.113,210.892 L91.675,211.725 L91.362,210.336z"/>
<path fill="#333333" d="M144.173,129.796 C137.566,93.605 119.106,66.645 102.930,69.598 C96.245,70.814 84.495,72.460 77.916,73.359 C76.881,73.314 75.854,73.376 74.827,73.561 C74.394,73.640 73.986,73.821 73.565,73.945 C73.297,73.978 73.107,74.003 73.107,74.003 L73.120,74.077 C58.132,78.910 51.137,109.566 57.501,144.446 C63.799,178.958 80.869,204.999 96.463,204.801 L96.476,204.854 C96.476,204.854 96.826,204.809 97.449,204.731 C97.878,204.698 98.315,204.722 98.744,204.644 C98.893,204.619 99.029,204.549 99.173,204.516 C105.124,203.761 119.531,201.906 126.839,200.681 C143.060,197.971 150.776,165.999 144.173,129.796z"/>
<path fill="#1A1A1A" d="M67.672,230.932 C43.697,230.928 20.143,197.818 10.397,150.418 C0.000,99.837 8.562,63.593 33.296,53.463 L34.158,53.109 L35.090,53.026 C36.265,52.923 63.960,50.453 72.072,49.851 C72.666,49.809 73.264,49.785 73.870,49.785 C94.546,49.785 122.071,76.786 132.357,126.831 C142.140,174.413 131.462,214.336 106.976,221.756 C98.880,224.210 72.947,230.318 71.845,230.578 L71.553,230.648 L71.256,230.689 C70.055,230.854 68.868,230.932 67.672,230.932 C67.676,230.932 67.672,230.932 67.672,230.932z"/>
<path fill="#333333" d="M126.295,128.085 C116.866,82.222 91.085,54.651 72.526,56.025 C64.364,56.627 35.638,59.192 35.638,59.192 C12.954,68.484 7.374,104.984 16.456,149.172 C25.447,192.898 47.933,227.592 70.423,224.560 C70.423,224.560 97.173,218.267 105.178,215.842 C125.197,209.775 135.719,173.947 126.295,128.085z"/>
<path fill="#1A1A1A" d="M15.334,149.382 C24.127,191.393 46.584,224.404 66.966,224.808 C88.689,225.245 101.239,188.885 93.333,141.439 C84.998,91.477 58.305,53.719 35.638,59.192 C14.489,64.298 6.137,105.401 15.334,149.382z"/>
<path fill="#E6E6E6" d="M63.894,219.034 C45.516,218.947 25.067,188.534 17.174,149.898 C8.966,109.707 16.683,72.534 35.646,68.319 C55.765,63.848 79.463,97.961 87.019,142.759 C94.261,185.643 83.303,219.120 63.894,219.034z"/>
<path fill="#1A1A1A" d="M68.847,149.886 L90.314,147.898 L88.169,135.162 L66.603,137.566 C65.123,131.986 63.110,126.922 60.776,122.661 L70.196,88.104 L64.166,79.533 L54.973,114.450 C52.317,111.649 49.516,109.888 46.761,109.389 L38.245,64.001 L32.499,65.337 L41.090,110.379 C38.805,111.740 36.962,114.248 35.617,117.601 L15.916,89.176 L13.936,98.513 L33.432,126.703 C32.912,131.079 32.933,136.024 33.543,141.249 L15.004,143.320 L17.363,154.649 L35.832,152.938 C37.238,158.019 39.086,162.683 41.222,166.676 L33.667,195.377 L38.876,203.011 L46.617,174.607 C49.125,177.453 51.781,179.408 54.420,180.208 L61.984,219.859 L67.515,219.933 L60.025,180.022 C62.434,179.036 64.451,176.871 65.972,173.757 L85.769,202.388 L88.570,193.970 L68.550,165.092 C69.272,160.654 69.404,155.486 68.847,149.886z"/>
<path fill="#1A1A1A" d="M308.638,210.336 C326.080,205.968 342.280,180.071 348.578,145.559 C354.983,110.453 348.797,80.498 333.846,70.637 L334.205,68.785 L327.808,67.886 C327.239,67.701 326.765,67.564 326.270,67.474 C325.123,67.263 323.927,67.156 322.731,67.156 C322.624,67.156 322.517,67.156 322.409,67.156 C315.885,66.265 304.547,64.669 298.175,63.510 C297.008,63.296 295.808,63.189 294.612,63.189 C275.537,63.189 256.660,90.735 249.735,128.683 C244.625,156.703 247.508,182.740 257.266,196.631 C261.258,202.314 266.397,205.824 272.130,206.780 C279.067,207.943 292.050,209.634 299.524,210.587 C299.738,210.649 299.957,210.694 300.175,210.736 C300.712,210.835 301.297,210.876 301.887,210.892 L308.325,211.725 L308.638,210.336z"/>
<path fill="#333333" d="M255.822,129.796 C262.430,93.605 280.890,66.645 297.066,69.598 C303.751,70.814 315.501,72.460 322.080,73.359 C323.115,73.314 324.142,73.376 325.169,73.561 C325.602,73.640 326.010,73.821 326.431,73.945 C326.699,73.978 326.888,74.003 326.888,74.003 L326.876,74.077 C341.864,78.910 348.859,109.566 342.495,144.446 C336.197,178.958 319.126,204.999 303.532,204.801 L303.520,204.854 C303.520,204.854 303.169,204.809 302.547,204.731 C302.118,204.698 301.681,204.722 301.252,204.644 C301.103,204.619 300.967,204.549 300.823,204.516 C294.871,203.761 280.465,201.906 273.157,200.681 C256.940,197.971 249.219,165.999 255.822,129.796z"/>
<path fill="#1A1A1A" d="M332.328,230.932 C356.303,230.928 379.857,197.818 389.603,150.418 C400.000,99.837 391.438,63.593 366.704,53.463 L365.843,53.109 L364.910,53.026 C363.735,52.923 336.040,50.453 327.928,49.851 C327.334,49.809 326.736,49.785 326.130,49.785 C305.454,49.785 277.929,76.786 267.643,126.831 C257.860,174.413 268.538,214.336 293.024,221.756 C301.120,224.210 327.053,230.318 328.155,230.578 L328.447,230.648 L328.744,230.689 C329.945,230.854 331.132,230.932 332.328,230.932 C332.324,230.932 332.324,230.932 332.328,230.932z"/>
<path fill="#333333" d="M273.705,128.085 C283.134,82.222 308.915,54.651 327.474,56.025 C335.636,56.627 364.362,59.192 364.362,59.192 C387.046,68.484 392.626,104.984 383.544,149.172 C374.553,192.898 352.067,227.592 329.577,224.560 C329.577,224.560 302.827,218.267 294.822,215.842 C274.798,209.775 264.277,173.947 273.705,128.085z"/>
<path fill="#1A1A1A" d="M384.666,149.382 C375.873,191.393 353.416,224.404 333.034,224.808 C311.311,225.245 298.761,188.885 306.667,141.439 C315.002,91.477 341.695,53.719 364.362,59.192 C385.507,64.298 393.859,105.401 384.666,149.382z"/>
<path fill="#E6E6E6" d="M336.102,219.034 C354.480,218.947 374.928,188.534 382.822,149.898 C391.030,109.707 383.313,72.534 364.350,68.319 C344.231,63.848 320.533,97.961 312.977,142.759 C305.735,185.643 316.693,219.120 336.102,219.034z"/>
<path fill="#1A1A1A" d="M331.153,149.886 L309.686,147.898 L311.831,135.162 L333.397,137.566 C334.877,131.986 336.890,126.922 339.224,122.661 L329.804,88.104 L335.834,79.533 L345.027,114.450 C347.683,111.649 350.484,109.888 353.239,109.389 L361.755,64.001 L367.501,65.337 L358.910,110.379 C361.195,111.740 363.038,114.248 364.383,117.601 L384.084,89.176 L386.064,98.513 L366.568,126.703 C367.088,131.079 367.067,136.024 366.457,141.249 L384.996,143.320 L382.637,154.649 L364.168,152.938 C362.762,158.019 360.914,162.683 358.778,166.676 L366.333,195.377 L361.124,203.011 L353.383,174.607 C350.875,177.453 348.219,179.408 345.580,180.208 L338.016,219.859 L332.485,219.933 L339.975,180.022 C337.566,179.036 335.549,176.871 334.028,173.757 L314.231,202.388 L311.430,193.970 L331.450,165.092 C330.724,160.654 330.592,155.486 331.153,149.886z"/>
</g>
</svg>
