<?xml version="1.0" encoding="utf-8"?>
<!--Generator: Adobe Illustrator 15.0.0, SVG Export Plug-In . SVG Version: 6.00 Build 0)-->
<!DOCTYPE svg PUBLIC "-//W3C//DTD SVG 1.1//EN" "http://www.w3.org/Graphics/SVG/1.1/DTD/svg11.dtd">
<svg version="1.1" id="Helmet" xmlns="http://www.w3.org/2000/svg" xmlns:xlink="http://www.w3.org/1999/xlink" x="0px" y="0px" width="400px" height="257.432px" viewBox="0 0 400 257.432" enable-background="new 0 0 400 257.432" xml:space="preserve">
<g>
<path id="one" fill="#BF840E" d="M11.559,219.819 C10.962,209.990 12.006,180.206 13.497,171.270 C21.835,165.311 33.452,160.844 35.836,160.250 C36.433,165.612 40.007,207.906 40.007,212.078 C37.284,212.378 16.027,218.926 11.559,219.819z"/>
<linearGradient id="SVGID_1_" gradientUnits="userSpaceOnUse" x1="45" y1="206.243" x2="-11.742" y2="166.032">
<stop offset="5.000000e-006" style="stop-color:#F1991B"/>
<stop offset="0.636" style="stop-color:#F9C13B"/>
<stop offset="1" style="stop-color:#FDD349"/>
</linearGradient>
<path id="thirteen" fill="url(#SVGID_1_)" d="M16.603,211.073 C17.182,200.161 18.858,184.112 20.088,175.452 C23.212,173.482 26.614,171.745 29.599,170.376 C30.542,181.138 31.915,197.830 32.533,206.562 C30.078,207.234 26.779,208.174 22.275,209.461 C20.452,209.979 18.486,210.541 16.603,211.073z"/>
<path id="two" fill="#BF840E" d="M388.451,219.819 C389.048,209.990 388.005,180.206 386.514,171.270 C378.175,165.311 366.559,160.844 364.175,160.250 C363.578,165.612 360.004,207.906 360.004,212.078 C362.727,212.378 383.980,218.926 388.451,219.819z"/>
<linearGradient id="SVGID_2_" gradientUnits="userSpaceOnUse" x1="48.576" y1="206.245" x2="-8.165" y2="166.034" gradientTransform="matrix(-1 0 0 1 1263.165 0)">
<stop offset="5.000000e-006" style="stop-color:#F1991B"/>
<stop offset="0.636" style="stop-color:#F9C13B"/>
<stop offset="1" style="stop-color:#FDD349"/>
</linearGradient>
<path id="three" fill="url(#SVGID_2_)" d="M383.405,211.073 C382.825,200.161 381.149,184.112 379.920,175.452 C376.796,173.482 373.393,171.745 370.408,170.376 C369.465,181.138 368.092,197.830 367.474,206.562 C369.929,207.234 373.228,208.174 377.732,209.461 C379.555,209.979 381.521,210.541 383.405,211.073z"/>
<path id="four" fill="#BF840E" d="M200.000,251.284 C221.828,251.284 311.972,257.432 341.196,254.362 C365.140,252.993 376.406,246.612 399.292,245.583 C399.646,240.118 400.000,230.896 399.292,228.162 C394.013,223.723 376.174,209.601 375.241,188.098 C373.454,146.993 367.252,12.474 200.000,12.474 S25.706,150.371 25.706,183.183 C25.706,204.925 5.987,223.723 0.704,228.162 C0.000,230.896 0.354,240.118 0.704,245.583 C23.590,246.609 34.857,252.993 58.804,254.362 C88.031,257.432 178.168,251.284 200.000,251.284z"/>
<linearGradient id="SVGID_3_" gradientUnits="userSpaceOnUse" x1="200.003" y1="108.123" x2="200.003" y2="287.731">
<stop offset="5.000000e-006" style="stop-color:#F1991B"/>
<stop offset="0.636" style="stop-color:#F9C13B"/>
<stop offset="1" style="stop-color:#FDD349"/>
</linearGradient>
<path id="five" fill="url(#SVGID_3_)" d="M317.405,248.074 C294.401,248.074 263.279,246.670 238.274,245.540 C220.906,244.757 207.184,244.135 200.000,244.135 S179.090,244.754 161.723,245.540 C136.721,246.670 105.603,248.074 82.598,248.074 H82.595 C72.498,248.074 64.759,247.799 59.598,247.256 C47.949,246.580 39.793,244.797 31.157,242.913 C24.034,241.355 16.713,239.757 7.749,238.910 C7.645,235.779 7.642,233.191 7.713,231.532 C15.759,223.444 31.307,202.152 30.953,180.463 C30.907,177.596 30.353,109.795 77.988,62.840 C107.079,34.167 148.130,19.626 199.996,19.626 C251.867,19.626 292.921,34.167 322.009,62.843 C369.643,109.799 369.086,177.596 369.039,180.459 C368.686,202.152 384.244,223.455 392.287,231.540 C392.358,233.177 392.351,235.768 392.247,238.913 C383.283,239.757 375.959,241.358 368.836,242.917 C360.204,244.804 352.051,246.587 340.763,247.231 C335.241,247.799 327.502,248.074 317.405,248.074z"/>
<linearGradient id="SVGID_4_" gradientUnits="userSpaceOnUse" x1="199.653" y1="260.177" x2="200.3" y2="220.763">
<stop offset="0.0095" style="stop-color:#FDE25B"/>
<stop offset="0.8034" style="stop-color:#FFF99B"/>
<stop offset="0.9994" style="stop-color:#FFFFAB"/>
</linearGradient>
<path id="six" fill="url(#SVGID_4_)" d="M344.473,243.063 C338.804,243.653 330.862,243.935 320.500,243.935 C296.892,243.935 264.949,242.495 239.285,241.333 C221.460,240.529 207.381,239.893 200.004,239.893 S178.547,240.529 160.718,241.333 C135.055,242.491 103.119,243.935 79.510,243.935 H79.507 C69.145,243.935 61.203,243.653 55.902,243.095 C43.946,242.402 7.710,237.523 7.756,238.913 C16.721,239.757 24.041,241.358 31.164,242.917 C39.800,244.804 47.953,246.584 59.605,247.259 C64.766,247.803 72.505,248.078 82.602,248.078 H82.606 C105.610,248.078 136.728,246.673 161.730,245.544 C179.097,244.761 192.819,244.139 200.007,244.139 S220.913,244.757 238.281,245.544 C263.286,246.673 294.408,248.078 317.412,248.078 C327.510,248.078 335.244,247.803 340.770,247.231 C352.058,246.587 360.211,244.804 368.843,242.917 C375.970,241.358 383.290,239.761 392.254,238.913 C392.297,237.516 356.054,242.402 344.473,243.063z"/>
<linearGradient id="SVGID_5_" gradientUnits="userSpaceOnUse" x1="199.945" y1="-70.891" x2="199.945" y2="334.81">
<stop offset="5.000000e-006" style="stop-color:#F1991B"/>
<stop offset="0.2668" style="stop-color:#F6B836"/>
<stop offset="0.5337" style="stop-color:#FACF4A"/>
<stop offset="0.784" style="stop-color:#FCDD57"/>
<stop offset="0.9994" style="stop-color:#FDE25B"/>
</linearGradient>
<path id="seven" fill="url(#SVGID_5_)" d="M322.012,62.843 C317.062,57.964 311.740,53.529 306.103,49.468 C305.638,46.666 305.152,44.193 304.638,42.284 C299.730,37.963 280.511,28.712 269.431,24.280 C269.552,26.046 269.620,28.173 269.652,30.517 C249.247,23.272 225.982,19.623 200.000,19.623 C174.022,19.623 150.760,23.272 130.355,30.514 C130.387,28.169 130.455,26.042 130.576,24.277 C119.496,28.709 100.273,37.959 95.369,42.280 C94.855,44.189 94.369,46.659 93.904,49.461 C88.267,53.518 82.945,57.954 77.991,62.836 C30.357,109.792 30.911,177.593 30.957,180.459 C31.018,184.102 28.326,206.116 46.137,209.097 C151.750,195.990 270.785,201.476 352.540,210.287 C369.118,212.074 366.720,185.939 369.043,179.105 C368.961,168.925 366.577,106.768 322.012,62.843z"/>
<path id="eight" fill="#BF840E" d="M269.431,24.280 C280.511,28.712 299.734,37.963 304.638,42.284 C307.676,53.557 309.921,82.749 309.924,101.796 C312.801,80.979 312.984,51.724 309.402,36.640 C298.315,27.583 276.851,17.578 262.611,12.871 C258.808,16.563 256.149,21.113 256.149,21.113 S260.502,22.139 262.800,22.997 C264.084,36.780 266.482,63.194 267.722,79.124 C269.005,60.634 270.214,35.661 269.431,24.280z"/>
<path id="nine" fill="#BF840E" d="M137.393,12.867 C123.153,17.575 101.278,28.605 90.108,35.865 C86.530,50.952 87.206,80.979 90.080,101.796 C90.083,82.749 92.328,53.557 95.366,42.284 C100.273,37.963 119.493,28.712 130.573,24.280 C129.790,35.661 130.998,60.634 132.278,79.117 C133.518,63.186 135.916,36.776 137.200,22.990 C139.498,22.132 143.851,21.106 143.851,21.106 S141.199,16.556 137.393,12.867z"/>
<path id="ten" fill="#BF840E" d="M200.004,204.182 C225.084,205.126 270.689,211.037 284.243,207.992 C284.243,172.782 246.927,119.514 244.025,99.691 C240.947,78.635 238.738,26.843 233.791,11.320 C231.940,5.515 210.744,0.000 200.004,0.000 C189.263,0.000 168.064,5.515 166.212,11.320 C161.265,26.843 159.056,78.635 155.975,99.691 C153.073,119.514 115.761,171.109 115.307,207.924 C128.868,210.970 174.919,205.126 200.004,204.182z"/>
<linearGradient id="SVGID_6_" gradientUnits="userSpaceOnUse" x1="200.003" y1="-145.354" x2="200.003" y2="260.956">
<stop offset="5.000000e-006" style="stop-color:#F1991B"/>
<stop offset="0.1051" style="stop-color:#F2A223"/>
<stop offset="0.7008" style="stop-color:#FAD04B"/>
<stop offset="0.9994" style="stop-color:#FDE25B"/>
</linearGradient>
<path id="eleven" fill="url(#SVGID_6_)" d="M119.021,208.593 C121.576,189.774 134.444,158.306 145.424,138.611 C154.378,122.552 161.444,109.867 162.777,100.763 C163.964,92.660 165.008,80.336 166.112,67.283 C167.753,47.867 169.790,23.833 172.517,14.326 C175.888,11.438 190.807,7.149 200.004,7.149 C209.197,7.149 224.119,11.438 227.490,14.329 C230.217,23.837 232.251,47.871 233.895,67.286 C235.000,80.336 236.043,92.664 237.230,100.767 C238.563,109.870 245.633,122.556 254.583,138.615 C265.563,158.309 278.427,189.774 280.987,208.596 C267.161,210.351 132.842,210.351 119.021,208.593z"/>
<linearGradient id="SVGID_7_" gradientUnits="userSpaceOnUse" x1="226.86" y1="176.928" x2="226.86" y2="-128.685">
<stop offset="0.0095" style="stop-color:#FDE25B"/>
<stop offset="0.8034" style="stop-color:#FFF99B"/>
<stop offset="0.9994" style="stop-color:#FFFFAB"/>
</linearGradient>
<path id="twelve" fill="url(#SVGID_7_)" d="M194.478,9.829 C203.671,9.829 218.594,14.118 221.968,17.010 C224.695,26.518 226.729,50.551 228.369,69.967 C229.474,83.017 230.517,95.344 231.704,103.447 C233.037,112.551 240.733,124.218 250.458,139.848 C265.195,163.528 279.832,208.743 280.986,208.596 C278.431,189.777 265.563,158.309 254.583,138.615 C245.633,122.556 238.563,109.870 237.230,100.767 C236.043,92.664 235.000,80.340 233.895,67.286 C232.255,47.871 230.221,23.837 227.490,14.329 C224.119,11.438 209.197,7.149 200.004,7.149 C190.979,7.149 176.460,11.277 172.735,14.165 C178.862,11.920 188.058,9.829 194.478,9.829z"/>
</g>
</svg>
