<?xml version="1.0" encoding="UTF-8" standalone="no"?>
<svg width="1118px" height="715px" viewBox="0 0 1118 715" version="1.1" xmlns="http://www.w3.org/2000/svg" xmlns:xlink="http://www.w3.org/1999/xlink">
    <!-- Generator: Sketch 39.1 (31720) - http://www.bohemiancoding.com/sketch -->
    <title>Helmet_01</title>
    <desc>Created with Sketch.</desc>
    <defs>
        <linearGradient x1="178.258919%" y1="88.1319164%" x2="-177.922369%" y2="-10.6736343%" id="linearGradient-1">
            <stop stop-color="#F1991B" offset="0.0005%"></stop>
            <stop stop-color="#F9C13B" offset="63.6%"></stop>
            <stop stop-color="#FDD349" offset="100%"></stop>
        </linearGradient>
        <linearGradient x1="-78.2611622%" y1="88.1354295%" x2="277.917882%" y2="-10.6692429%" id="linearGradient-2">
            <stop stop-color="#F1991B" offset="0.0005%"></stop>
            <stop stop-color="#F9C13B" offset="63.6%"></stop>
            <stop stop-color="#FDD349" offset="100%"></stop>
        </linearGradient>
        <linearGradient x1="50.00084%" y1="38.7379917%" x2="50.00084%" y2="117.359264%" id="linearGradient-3">
            <stop stop-color="#F1991B" offset="0.0005%"></stop>
            <stop stop-color="#F9C13B" offset="63.6%"></stop>
            <stop stop-color="#FDD349" offset="100%"></stop>
        </linearGradient>
        <linearGradient x1="49.9084352%" y1="228.513502%" x2="50.0766%" y2="-190.132994%" id="linearGradient-4">
            <stop stop-color="#FDE25B" offset="0.95%"></stop>
            <stop stop-color="#FFF99B" offset="80.34%"></stop>
            <stop stop-color="#FFFFAB" offset="99.94%"></stop>
        </linearGradient>
        <linearGradient x1="50.0002966%" y1="-47.4512058%" x2="50.0002966%" y2="165.234604%" id="linearGradient-5">
            <stop stop-color="#F1991B" offset="0.0005%"></stop>
            <stop stop-color="#F6B836" offset="26.68%"></stop>
            <stop stop-color="#FACF4A" offset="53.37%"></stop>
            <stop stop-color="#FCDD57" offset="78.4%"></stop>
            <stop stop-color="#FDE25B" offset="99.94%"></stop>
        </linearGradient>
        <linearGradient x1="49.999338%" y1="-75.2122513%" x2="49.999338%" y2="125.174417%" id="linearGradient-6">
            <stop stop-color="#F1991B" offset="0.0005%"></stop>
            <stop stop-color="#F2A223" offset="10.51%"></stop>
            <stop stop-color="#FAD04B" offset="70.08%"></stop>
            <stop stop-color="#FDE25B" offset="99.94%"></stop>
        </linearGradient>
        <linearGradient x1="49.9993396%" y1="84.2794823%" x2="49.9993396%" y2="-67.4285539%" id="linearGradient-7">
            <stop stop-color="#FDE25B" offset="0.95%"></stop>
            <stop stop-color="#FFF99B" offset="80.34%"></stop>
            <stop stop-color="#FFFFAB" offset="99.94%"></stop>
        </linearGradient>
    </defs>
    <g id="Page-1" stroke="none" stroke-width="1" fill="none" fill-rule="evenodd">
        <g id="Helmet_01" transform="translate(-3.000000, 0.000000)">
            <g id="Group">
                <path d="M34.79,615 C33.12,587.5 36.04,504.17 40.21,479.17 C63.54,462.5 96.04,450 102.71,448.34 C104.38,463.34 114.38,581.67 114.38,593.34 C106.76,594.18 47.29,612.5 34.79,615 L34.79,615 Z" id="Shape" fill="#BF840E"></path>
                <path d="M48.9,590.53 C50.52,560 55.21,515.1 58.65,490.87 C67.39,485.36 76.91,480.5 85.26,476.67 C87.9,506.78 91.74,553.48 93.47,577.91 C86.6,579.79 77.37,582.42 64.77,586.02 C59.67,587.47 54.17,589.04 48.9,590.53 L48.9,590.53 Z" id="Shape" fill="url(#linearGradient-1)"></path>
                <path d="M1089.24,615 C1090.91,587.5 1087.99,504.17 1083.82,479.17 C1060.49,462.5 1027.99,450 1021.32,448.34 C1019.65,463.34 1009.65,581.67 1009.65,593.34 C1017.27,594.18 1076.73,612.5 1089.24,615 L1089.24,615 Z" id="Shape" fill="#BF840E"></path>
                <path d="M1075.12,590.53 C1073.5,560 1068.81,515.1 1065.37,490.87 C1056.63,485.36 1047.11,480.5 1038.76,476.67 C1036.12,506.78 1032.28,553.48 1030.55,577.91 C1037.42,579.79 1046.65,582.42 1059.25,586.02 C1064.35,587.47 1069.85,589.04 1075.12,590.53 L1075.12,590.53 Z" id="Shape" fill="url(#linearGradient-2)"></path>
                <path d="M562,703.03 C623.07,703.03 875.27,720.23 957.03,711.64 C1024.02,707.81 1055.54,689.96 1119.57,687.08 C1120.56,671.79 1121.55,645.99 1119.57,638.34 C1104.8,625.92 1054.89,586.41 1052.28,526.25 C1047.28,411.25 1029.93,34.9 562,34.9 C94.07,34.9 74.37,420.7 74.37,512.5 C74.37,573.33 19.2,625.92 4.42,638.34 C2.45,645.99 3.44,671.79 4.42,687.08 C68.45,689.95 99.97,707.81 166.97,711.64 C248.74,720.23 500.92,703.03 562,703.03 L562,703.03 Z" id="Shape" fill="#BF840E"></path>
                <path d="M890.47,694.05 C826.11,694.05 739.04,690.12 669.08,686.96 C620.49,684.77 582.1,683.03 562,683.03 C541.9,683.03 503.5,684.76 454.91,686.96 C384.96,690.12 297.9,694.05 233.54,694.05 L233.53,694.05 C205.28,694.05 183.63,693.28 169.19,691.76 C136.6,689.87 113.78,684.88 89.62,679.61 C69.69,675.25 49.21,670.78 24.13,668.41 C23.84,659.65 23.83,652.41 24.03,647.77 C46.54,625.14 90.04,565.57 89.05,504.89 C88.92,496.87 87.37,307.18 220.64,175.81 C302.03,95.59 416.88,54.91 561.99,54.91 C707.11,54.91 821.97,95.59 903.35,175.82 C1036.62,307.19 1035.06,496.87 1034.93,504.88 C1033.94,565.57 1077.47,625.17 1099.97,647.79 C1100.17,652.37 1100.15,659.62 1099.86,668.42 C1074.78,670.78 1054.29,675.26 1034.36,679.62 C1010.21,684.9 987.4,689.89 955.82,691.69 C940.37,693.28 918.72,694.05 890.47,694.05 L890.47,694.05 Z" id="Shape" fill="url(#linearGradient-3)"></path>
                <path d="M966.2,680.03 C950.34,681.68 928.12,682.47 899.13,682.47 C833.08,682.47 743.71,678.44 671.91,675.19 C622.04,672.94 582.65,671.16 562.01,671.16 C541.37,671.16 501.98,672.94 452.1,675.19 C380.3,678.43 290.95,682.47 224.9,682.47 L224.89,682.47 C195.9,682.47 173.68,681.68 158.85,680.12 C125.4,678.18 24.02,664.53 24.15,668.42 C49.23,670.78 69.71,675.26 89.64,679.62 C113.8,684.9 136.61,689.88 169.21,691.77 C183.65,693.29 205.3,694.06 233.55,694.06 L233.56,694.06 C297.92,694.06 384.98,690.13 454.93,686.97 C503.52,684.78 541.91,683.04 562.02,683.04 C582.13,683.04 620.51,684.77 669.1,686.97 C739.06,690.13 826.13,694.06 890.49,694.06 C918.74,694.06 940.38,693.29 955.84,691.69 C987.42,689.89 1010.23,684.9 1034.38,679.62 C1054.32,675.26 1074.8,670.79 1099.88,668.42 C1100,664.51 998.6,678.18 966.2,680.03 L966.2,680.03 Z" id="Shape" fill="url(#linearGradient-4)"></path>
                <path d="M903.36,175.82 C889.51,162.17 874.62,149.76 858.85,138.4 C857.55,130.56 856.19,123.64 854.75,118.3 C841.02,106.21 787.25,80.33 756.25,67.93 C756.59,72.87 756.78,78.82 756.87,85.38 C699.78,65.11 634.69,54.9 562,54.9 C489.32,54.9 424.24,65.11 367.15,85.37 C367.24,78.81 367.43,72.86 367.77,67.92 C336.77,80.32 282.99,106.2 269.27,118.29 C267.83,123.63 266.47,130.54 265.17,138.38 C249.4,149.73 234.51,162.14 220.65,175.8 C87.38,307.17 88.93,496.86 89.06,504.88 C89.23,515.07 81.7,576.66 131.53,585 C427.01,548.33 760.04,563.68 988.77,588.33 C1035.15,593.33 1028.44,520.21 1034.94,501.09 C1034.71,472.61 1028.04,298.71 903.36,175.82 L903.36,175.82 Z" id="Shape" fill="url(#linearGradient-5)"></path>
                <path d="M756.25,67.93 C787.25,80.33 841.03,106.21 854.75,118.3 C863.25,149.84 869.53,231.51 869.54,284.8 C877.59,226.56 878.1,144.71 868.08,102.51 C837.06,77.17 777.01,49.18 737.17,36.01 C726.53,46.34 719.09,59.07 719.09,59.07 C719.09,59.07 731.27,61.94 737.7,64.34 C741.29,102.9 748,176.8 751.47,221.37 C755.06,169.64 758.44,99.77 756.25,67.93 L756.25,67.93 Z" id="Shape" fill="#BF840E"></path>
                <path d="M386.84,36 C347,49.17 285.8,80.03 254.55,100.34 C244.54,142.55 246.43,226.56 254.47,284.8 C254.48,231.51 260.76,149.84 269.26,118.3 C282.99,106.21 336.76,80.33 367.76,67.93 C365.57,99.77 368.95,169.64 372.53,221.35 C376,176.78 382.71,102.89 386.3,64.32 C392.73,61.92 404.91,59.05 404.91,59.05 C404.91,59.05 397.49,46.32 386.84,36 L386.84,36 Z" id="Shape" fill="#BF840E"></path>
                <path d="M562.01,571.25 C632.18,573.89 759.77,590.43 797.69,581.91 C797.69,483.4 693.29,334.37 685.17,278.91 C676.56,220 670.38,75.1 656.54,31.67 C651.36,15.43 592.06,0 562.01,0 C531.96,0 472.65,15.43 467.47,31.67 C453.63,75.1 447.45,220 438.83,278.91 C430.71,334.37 326.32,478.72 325.05,581.72 C362.99,590.24 491.83,573.89 562.01,571.25 L562.01,571.25 Z" id="Shape" fill="#BF840E"></path>
                <path d="M335.44,583.59 C342.59,530.94 378.59,442.9 409.31,387.8 C434.36,342.87 454.13,307.38 457.86,281.91 C461.18,259.24 464.1,224.76 467.19,188.24 C471.78,133.92 477.48,66.68 485.11,40.08 C494.54,32 536.28,20 562.01,20 C587.73,20 629.48,32 638.91,40.09 C646.54,66.69 652.23,133.93 656.83,188.25 C659.92,224.76 662.84,259.25 666.16,281.92 C669.89,307.39 689.67,342.88 714.71,387.81 C745.43,442.91 781.42,530.94 788.58,583.6 C749.9,588.51 374.11,588.51 335.44,583.59 L335.44,583.59 Z" id="Shape" fill="url(#linearGradient-6)"></path>
                <path d="M546.55,27.5 C572.27,27.5 614.02,39.5 623.46,47.59 C631.09,74.19 636.78,141.43 641.37,195.75 C644.46,232.26 647.38,266.75 650.7,289.42 C654.43,314.89 675.96,347.53 703.17,391.26 C744.4,457.51 785.35,584.01 788.58,583.6 C781.43,530.95 745.43,442.91 714.71,387.81 C689.67,342.88 669.89,307.39 666.16,281.92 C662.84,259.25 659.92,224.77 656.83,188.25 C652.24,133.93 646.55,66.69 638.91,40.09 C629.48,32 587.73,20 562.01,20 C536.76,20 496.14,31.55 485.72,39.63 C502.86,33.35 528.59,27.5 546.55,27.5 L546.55,27.5 Z" id="Shape" fill="url(#linearGradient-7)"></path>
            </g>
        </g>
    </g>
</svg>