<?xml version="1.0" encoding="utf-8"?>
<!--Generator: Adobe Illustrator 15.0.0, SVG Export Plug-In . SVG Version: 6.00 Build 0)-->
<!DOCTYPE svg PUBLIC "-//W3C//DTD SVG 1.1//EN" "http://www.w3.org/Graphics/SVG/1.1/DTD/svg11.dtd">
<svg version="1.1" id="Helmet_noise" xmlns="http://www.w3.org/2000/svg" xmlns:xlink="http://www.w3.org/1999/xlink" x="0px" y="0px" width="400px" height="373.934px" viewBox="0 0 400 373.934" enable-background="new 0 0 400 373.934" xml:space="preserve">
<g>
<linearGradient id="77706ab1-1262-483a-bdc2-8ac4bcdbde44" >
<stop stop-color="#730E11"></stop>
</linearGradient>
<path fill="url(#77706ab1-1262-483a-bdc2-8ac4bcdbde44)" d="M384.100,317.661 C383.907,320.098 381.775,321.921 379.338,321.732 L361.921,320.371 C359.485,320.179 357.659,318.046 357.851,315.609 L359.711,291.816 C359.903,289.379 362.036,287.553 364.473,287.745 L381.889,289.106 C384.326,289.298 386.149,291.431 385.957,293.868 L384.100,317.661z"/>
<path d="M381.967,286.580 C381.995,286.214 382.422,285.947 382.925,285.984 L394.138,286.834 C394.640,286.871 395.021,287.203 394.993,287.569 L392.089,325.799 C392.061,326.168 391.633,326.435 391.131,326.397 L379.918,325.548 C379.418,325.508 379.034,325.176 379.062,324.810 L381.967,286.580z"/>
<linearGradient id="f1d5b6cc-879f-4769-aaa6-4e8d852317d6" >
<stop stop-color="#730E11"></stop>
</linearGradient>
<path fill="url(#f1d5b6cc-879f-4769-aaa6-4e8d852317d6)" d="M16.648,317.661 C16.840,320.098 18.973,321.921 21.409,321.732 L38.826,320.371 C41.262,320.179 43.088,318.046 42.896,315.609 L41.036,291.816 C40.844,289.379 38.711,287.553 36.274,287.745 L18.858,289.106 C16.421,289.298 14.598,291.431 14.791,293.868 L16.648,317.661z"/>
<path d="M18.777,286.580 C18.749,286.214 18.322,285.947 17.819,285.984 L6.606,286.834 C6.104,286.871 5.723,287.203 5.751,287.569 L8.655,325.799 C8.683,326.168 9.111,326.435 9.613,326.397 L20.826,325.548 C21.326,325.508 21.710,325.176 21.682,324.810 L18.777,286.580z"/>
<path d="M40.044,155.523 C39.526,146.223 39.012,119.872 40.044,109.539 C44.176,105.407 73.627,87.838 76.213,86.806 C75.181,99.724 73.113,140.025 73.113,143.126 C67.427,145.187 46.759,153.455 40.044,155.523z"/>
<g>
<path d="M12.419,336.225 C11.911,331.069 0.000,209.706 0.000,187.556 V186.697 L0.363,185.919 C7.998,169.557 36.321,125.836 48.467,111.666 L54.351,116.710 C41.836,131.308 15.197,172.989 7.753,188.418 C8.051,212.422 20.008,334.222 20.129,335.465 L12.419,336.225z"/>
</g>
<path d="M359.959,155.523 C360.477,146.223 360.991,119.872 359.959,109.539 C355.827,105.407 326.376,87.838 323.790,86.806 C324.822,99.724 326.890,140.025 326.890,143.126 C332.573,145.187 353.241,153.455 359.959,155.523z"/>
<g>
<path d="M387.581,336.225 L379.868,335.465 C379.992,334.222 391.946,212.422 392.244,188.418 C384.800,172.989 358.161,131.311 345.646,116.710 L351.530,111.666 C363.676,125.836 391.999,169.554 399.634,185.919 L399.997,186.697 V187.556 C400.000,209.710 388.089,331.069 387.581,336.225z"/>
</g>
<linearGradient id="3ff24dc8-30ca-44c2-b69d-900156636490" >
<stop stop-color="#730E11"></stop>
</linearGradient>
<path fill="url(#3ff24dc8-30ca-44c2-b69d-900156636490)" d="M341.656,228.245 C350.181,230.958 370.720,244.908 382.602,257.826 C385.702,279.139 374.595,348.247 367.619,360.647 C359.351,365.297 339.719,370.465 328.868,368.915 C329.643,363.100 340.881,232.895 341.656,228.245z"/>
<linearGradient id="39eb3149-26ed-4d52-ba5d-c73bc8e8c65d" >
<stop stop-color="#AB181D"></stop>
</linearGradient>
<path fill="url(#39eb3149-26ed-4d52-ba5d-c73bc8e8c65d)" d="M335.695,362.917 C336.600,353.229 338.314,333.924 340.689,307.146 C342.930,281.880 345.584,251.942 346.936,237.586 C355.507,242.493 367.939,251.514 376.693,260.592 C378.777,282.416 368.754,342.313 362.944,356.084 C356.503,359.159 344.642,362.387 335.695,362.917z"/>
<linearGradient id="51694dd5-3213-4a24-917a-7cb91568b774" >
<stop stop-color="#C9181E"></stop>
</linearGradient>
<path fill="url(#51694dd5-3213-4a24-917a-7cb91568b774)" d="M376.690,260.592 C367.939,251.514 355.504,242.493 346.932,237.586 C345.581,251.942 342.927,281.880 340.686,307.146 C340.621,307.865 340.559,308.559 340.497,309.266 C351.347,310.860 362.027,311.591 372.691,311.883 C375.711,292.302 377.741,271.603 376.690,260.592z"/>
<path d="M342.623,367.759 C342.183,371.383 338.804,373.934 335.084,373.460 C332.653,373.153 330.220,372.849 327.789,372.546 C324.066,372.081 321.416,368.810 321.843,365.239 C327.176,320.845 330.617,276.098 332.123,231.116 C332.244,227.501 335.366,224.658 339.114,224.767 C341.563,224.844 344.015,224.922 346.464,225.002 C350.209,225.117 353.161,228.192 353.040,231.863 C351.511,277.437 348.027,322.776 342.623,367.759z"/>
<linearGradient id="SVGID_1_" gradientUnits="userSpaceOnUse" x1="340.205" y1="278.564" x2="347.18" y2="149.135">
<stop offset="0" stop-color="#000000"/>
<stop offset="1" stop-color="#999999"/>
</linearGradient>
<path fill="url(#SVGID_1_)" d="M349.940,231.761 C349.971,230.843 349.633,229.956 348.988,229.274 C348.309,228.549 347.376,228.133 346.362,228.102 L338.903,227.867 C336.901,227.867 335.285,229.343 335.220,231.224 C334.616,249.239 333.680,267.325 332.446,285.402 L347.205,285.516 C348.421,267.579 349.341,249.636 349.940,231.761z"/>
<linearGradient id="e0afc94c-270f-43ef-8e56-89cb389aa966" >
<stop stop-color="#730E11"></stop>
</linearGradient>
<path fill="url(#e0afc94c-270f-43ef-8e56-89cb389aa966)" d="M62.390,228.245 C53.864,230.958 33.326,244.908 21.443,257.826 C18.343,279.139 29.451,348.247 36.426,360.647 C44.694,365.297 64.327,370.465 75.177,368.915 C74.402,363.100 63.165,232.895 62.390,228.245z"/>
<linearGradient id="c5b56a3f-675f-4211-82c6-8eab00b35bbe" >
<stop stop-color="#AB181D"></stop>
</linearGradient>
<path fill="url(#c5b56a3f-675f-4211-82c6-8eab00b35bbe)" d="M68.351,362.917 C67.446,353.229 65.731,333.924 63.357,307.146 C61.115,281.880 58.462,251.942 57.110,237.586 C48.538,242.493 36.107,251.514 27.352,260.592 C25.269,282.416 35.292,342.313 41.101,356.084 C47.543,359.159 59.404,362.387 68.351,362.917z"/>
<linearGradient id="45e71aa3-49c1-48c9-acea-a9a20bd79fc0" >
<stop stop-color="#C9181E"></stop>
</linearGradient>
<path fill="url(#45e71aa3-49c1-48c9-acea-a9a20bd79fc0)" d="M27.355,260.592 C36.107,251.514 48.541,242.493 57.113,237.586 C58.465,251.942 61.119,281.880 63.360,307.146 C63.425,307.865 63.487,308.559 63.549,309.266 C52.699,310.860 42.019,311.591 31.354,311.883 C28.335,292.302 26.304,271.603 27.355,260.592z"/>
<path d="M61.422,367.759 C61.863,371.383 65.242,373.934 68.962,373.460 C71.392,373.153 73.826,372.849 76.256,372.546 C79.980,372.081 82.630,368.810 82.202,365.239 C76.870,320.845 73.429,276.098 71.922,231.116 C71.801,227.501 68.680,224.658 64.932,224.767 C62.483,224.844 60.030,224.922 57.581,225.002 C53.836,225.117 50.885,228.192 51.006,231.863 C52.534,277.437 56.019,322.776 61.422,367.759z"/>
<linearGradient id="SVGID_2_" gradientUnits="userSpaceOnUse" x1="337.492" y1="278.564" x2="344.467" y2="149.138" gradientTransform="matrix(-1 0 0 1 1093.428 0)">
<stop offset="0" stop-color="#000000"/>
<stop offset="1" stop-color="#999999"/>
</linearGradient>
<path fill="url(#SVGID_2_)" d="M53.719,231.761 C53.688,230.843 54.025,229.956 54.670,229.274 C55.349,228.549 56.282,228.133 57.296,228.102 L64.755,227.867 C66.758,227.867 68.373,229.343 68.438,231.224 C69.042,249.239 69.979,267.325 71.213,285.402 L56.453,285.516 C55.238,267.579 54.317,249.636 53.719,231.761z"/>
<linearGradient id="b34af897-d99e-4566-b553-209515cee951" >
<stop stop-color="#BF840E"></stop>
</linearGradient>
<path fill="url(#b34af897-d99e-4566-b553-209515cee951)" d="M36.556,190.656 C36.039,182.131 36.944,156.298 38.237,148.548 C45.469,143.380 55.545,139.505 57.612,138.990 C58.130,143.640 61.230,180.324 61.230,183.941 C58.868,184.202 40.432,189.881 36.556,190.656z"/>
<linearGradient id="SVGID_3_" gradientUnits="userSpaceOnUse" x1="65.561" y1="178.881" x2="16.347" y2="144.005">
<stop offset="0" stop-color="#F1991B"/>
<stop offset="1" stop-color="#FDD349"/>
</linearGradient>
<path fill="url(#SVGID_3_)" d="M40.931,183.070 C41.433,173.606 42.887,159.686 43.953,152.175 C46.663,150.467 49.614,148.960 52.203,147.773 C53.021,157.107 54.211,171.584 54.748,179.158 C52.618,179.741 49.757,180.556 45.850,181.672 C44.269,182.122 42.564,182.608 40.931,183.070z"/>
<linearGradient id="1e32b20f-7524-423c-b807-6601a648e160" >
<stop stop-color="#BF840E"></stop>
</linearGradient>
<path fill="url(#1e32b20f-7524-423c-b807-6601a648e160)" d="M363.447,190.656 C363.964,182.131 363.059,156.298 361.766,148.548 C354.534,143.380 344.459,139.505 342.391,138.990 C341.873,143.640 338.773,180.324 338.773,183.941 C341.135,184.202 359.569,189.881 363.447,190.656z"/>
<linearGradient id="SVGID_4_" gradientUnits="userSpaceOnUse" x1="68.662" y1="178.882" x2="19.448" y2="144.007" gradientTransform="matrix(-1 0 0 1 1095.582 0)">
<stop offset="0" stop-color="#F1991B"/>
<stop offset="1" stop-color="#FDD349"/>
</linearGradient>
<path fill="url(#SVGID_4_)" d="M359.069,183.070 C358.567,173.606 357.113,159.686 356.047,152.175 C353.337,150.467 350.386,148.960 347.797,147.773 C346.979,157.107 345.789,171.584 345.252,179.158 C347.382,179.741 350.243,180.556 354.149,181.672 C355.731,182.122 357.436,182.608 359.069,183.070z"/>
<linearGradient id="d97d7e10-110c-4223-ba4e-414d1da81a09" >
<stop stop-color="#BF840E"></stop>
</linearGradient>
<path fill="url(#d97d7e10-110c-4223-ba4e-414d1da81a09)" d="M199.997,217.947 C218.929,217.947 297.114,223.279 322.460,220.616 C343.228,219.428 352.999,213.895 372.849,213.002 C373.156,208.262 373.463,200.264 372.849,197.892 C368.270,194.042 352.798,181.793 351.989,163.143 C350.439,127.492 345.060,10.819 199.997,10.819 S48.827,130.421 48.827,158.880 C48.827,177.738 31.723,194.042 27.141,197.892 C26.531,200.264 26.838,208.262 27.141,213.002 C46.991,213.892 56.763,219.428 77.534,220.616 C102.883,223.279 181.061,217.947 199.997,217.947z"/>
<linearGradient id="SVGID_5_" gradientUnits="userSpaceOnUse" x1="199.999" y1="93.778" x2="199.999" y2="249.558">
<stop offset="0" stop-color="#F1991B"/>
<stop offset="1" stop-color="#FDD349"/>
</linearGradient>
<path fill="url(#SVGID_5_)" d="M301.826,215.163 C281.874,215.163 254.881,213.944 233.193,212.965 C218.129,212.286 206.228,211.746 199.997,211.746 S181.861,212.283 166.798,212.965 C145.113,213.944 118.123,215.163 98.171,215.163 H98.168 C89.410,215.163 82.698,214.924 78.222,214.453 C68.118,213.867 61.044,212.320 53.554,210.686 C47.376,209.334 41.027,207.949 33.252,207.214 C33.162,204.498 33.159,202.254 33.221,200.815 C40.199,193.800 53.684,175.333 53.378,156.521 C53.337,154.035 52.857,95.229 94.172,54.503 C119.403,29.634 155.008,17.023 199.994,17.023 C244.982,17.023 280.590,29.634 305.819,54.506 C347.134,95.232 346.650,154.035 346.610,156.518 C346.303,175.332 359.798,193.809 366.773,200.822 C366.835,202.241 366.829,204.489 366.739,207.217 C358.964,207.949 352.612,209.338 346.433,210.689 C338.947,212.326 331.875,213.873 322.085,214.431 C317.296,214.924 310.584,215.163 301.826,215.163z"/>
<linearGradient id="SVGID_6_" gradientUnits="userSpaceOnUse" x1="199.696" y1="225.66" x2="200.257" y2="191.475">
<stop offset="0" stop-color="#FDE25B"/>
<stop offset="1" stop-color="#FFFFAB"/>
</linearGradient>
<path fill="url(#SVGID_6_)" d="M325.303,210.816 C320.386,211.328 313.498,211.573 304.511,211.573 C284.034,211.573 256.329,210.323 234.070,209.316 C218.610,208.618 206.399,208.067 200.000,208.067 S181.390,208.618 165.927,209.316 C143.668,210.320 115.969,211.573 95.492,211.573 H95.489 C86.502,211.573 79.614,211.328 75.016,210.844 C64.646,210.243 33.218,206.011 33.258,207.217 C41.033,207.949 47.382,209.338 53.560,210.689 C61.050,212.326 68.122,213.870 78.228,214.456 C82.704,214.927 89.416,215.166 98.174,215.166 H98.177 C118.129,215.166 145.119,213.947 166.804,212.968 C181.867,212.289 193.769,211.749 200.003,211.749 S218.136,212.286 233.199,212.968 C254.887,213.947 281.880,215.166 301.832,215.166 C310.590,215.166 317.299,214.927 322.091,214.431 C331.881,213.873 338.953,212.326 346.440,210.689 C352.621,209.338 358.970,207.952 366.745,207.217 C366.782,206.005 335.347,210.243 325.303,210.816z"/>
<linearGradient id="SVGID_7_" gradientUnits="userSpaceOnUse" x1="199.949" y1="-61.486" x2="199.949" y2="290.391">
<stop offset="0" stop-color="#F1991B"/>
<stop offset="1" stop-color="#FDE25B"/>
</linearGradient>
<path fill="url(#SVGID_7_)" d="M305.822,54.506 C301.528,50.274 296.912,46.427 292.023,42.905 C291.620,40.475 291.199,38.330 290.752,36.674 C286.496,32.926 269.827,24.903 260.216,21.059 C260.322,22.590 260.381,24.435 260.409,26.469 C242.710,20.185 222.532,17.020 199.997,17.020 C177.465,17.020 157.290,20.185 139.591,26.466 C139.619,24.432 139.678,22.587 139.784,21.056 C130.173,24.900 113.501,32.923 109.248,36.671 C108.801,38.327 108.380,40.469 107.977,42.899 C103.088,46.418 98.472,50.265 94.175,54.500 C52.860,95.226 53.340,154.032 53.381,156.518 C53.433,159.677 51.099,178.771 66.547,181.356 C158.149,169.988 261.391,174.747 332.300,182.388 C346.678,183.938 344.598,161.270 346.613,155.343 C346.542,146.514 344.474,92.603 305.822,54.506z"/>
<linearGradient id="c3d0bfad-32e1-4e83-ba96-016a70447085" >
<stop stop-color="#BF840E"></stop>
</linearGradient>
<path fill="url(#c3d0bfad-32e1-4e83-ba96-016a70447085)" d="M260.216,21.059 C269.827,24.903 286.499,32.926 290.752,36.674 C293.388,46.452 295.334,71.770 295.337,88.291 C297.833,70.236 297.991,44.862 294.885,31.779 C285.268,23.923 266.652,15.246 254.301,11.163 C251.003,14.366 248.696,18.312 248.696,18.312 S252.472,19.202 254.466,19.946 C255.579,31.900 257.659,54.810 258.735,68.627 C259.847,52.590 260.895,30.930 260.216,21.059z"/>
<linearGradient id="82881385-6f2b-47df-8889-d5195e780aad" >
<stop stop-color="#BF840E"></stop>
</linearGradient>
<path fill="url(#82881385-6f2b-47df-8889-d5195e780aad)" d="M145.696,11.160 C133.345,15.243 114.372,24.810 104.684,31.106 C101.581,44.192 102.167,70.236 104.659,88.291 C104.663,71.770 106.609,46.452 109.245,36.674 C113.501,32.926 130.170,24.903 139.781,21.059 C139.102,30.930 140.149,52.590 141.259,68.621 C142.335,54.804 144.415,31.897 145.528,19.940 C147.522,19.196 151.297,18.306 151.297,18.306 S148.997,14.360 145.696,11.160z"/>
<linearGradient id="eb767571-2157-47d7-b9fa-b7525dc2953e" >
<stop stop-color="#BF840E"></stop>
</linearGradient>
<path fill="url(#eb767571-2157-47d7-b9fa-b7525dc2953e)" d="M200.000,177.093 C221.753,177.912 261.308,183.039 273.063,180.398 C273.063,149.859 240.698,103.658 238.181,86.465 C235.512,68.202 233.596,23.282 229.305,9.818 C227.699,4.783 209.316,0.000 200.000,0.000 C190.684,0.000 172.297,4.783 170.692,9.818 C166.401,23.282 164.485,68.202 161.813,86.465 C159.296,103.658 126.934,148.408 126.540,180.339 C138.302,182.980 178.243,177.912 200.000,177.093z"/>
<linearGradient id="SVGID_8_" gradientUnits="userSpaceOnUse" x1="199.999" y1="-126.07" x2="199.999" y2="226.336">
<stop offset="0" stop-color="#F1991B"/>
<stop offset="1" stop-color="#FDE25B"/>
</linearGradient>
<path fill="url(#SVGID_8_)" d="M129.761,180.919 C131.978,164.597 143.138,137.304 152.661,120.222 C160.427,106.293 166.556,95.291 167.712,87.395 C168.742,80.367 169.647,69.678 170.605,58.356 C172.028,41.517 173.795,20.671 176.160,12.425 C179.084,9.920 192.023,6.200 200.000,6.200 C207.974,6.200 220.916,9.920 223.840,12.428 C226.205,20.675 227.969,41.520 229.395,58.359 C230.353,69.678 231.258,80.370 232.288,87.398 C233.444,95.294 239.576,106.296 247.339,120.225 C256.862,137.307 268.019,164.597 270.239,180.922 C258.248,182.444 141.749,182.444 129.761,180.919z"/>
<linearGradient id="SVGID_9_" gradientUnits="userSpaceOnUse" x1="223.294" y1="153.455" x2="223.294" y2="-111.612">
<stop offset="0" stop-color="#FDE25B"/>
<stop offset="1" stop-color="#FFFFAB"/>
</linearGradient>
<path fill="url(#SVGID_9_)" d="M195.207,8.525 C203.181,8.525 216.124,12.245 219.050,14.753 C221.416,23.000 223.179,43.845 224.602,60.685 C225.560,72.003 226.466,82.695 227.495,89.723 C228.651,97.619 235.326,107.738 243.761,121.295 C256.543,141.833 269.238,181.049 270.239,180.922 C268.022,164.600 256.862,137.307 247.339,120.225 C239.576,106.296 233.444,95.294 232.288,87.398 C231.258,80.370 230.353,69.681 229.395,58.359 C227.972,41.520 226.208,20.675 223.840,12.428 C220.916,9.920 207.973,6.200 200.000,6.200 C192.172,6.200 179.580,9.781 176.349,12.286 C181.663,10.339 189.639,8.525 195.207,8.525z"/>
</g>
</svg>
