<?xml version="1.0" encoding="utf-8"?>
<!--Generator: Adobe Illustrator 15.0.0, SVG Export Plug-In . SVG Version: 6.00 Build 0)-->
<!DOCTYPE svg PUBLIC "-//W3C//DTD SVG 1.1//EN" "http://www.w3.org/Graphics/SVG/1.1/DTD/svg11.dtd">
<svg version="1.1" id="Clothes" xmlns="http://www.w3.org/2000/svg" xmlns:xlink="http://www.w3.org/1999/xlink" x="0px" y="0px" width="400px" height="825.755px" viewBox="0 0 400 825.755" enable-background="new 0 0 400 825.755" xml:space="preserve">
<g>
<g>
<linearGradient class="color_1 yellowOrBlue" id="60e085ac-c902-4ddf-be7a-3168e9c79ac5" >
<stop data-target="-20" stop-color="#00395E"></stop>
</linearGradient>
<path fill="url(#60e085ac-c902-4ddf-be7a-3168e9c79ac5)" d="M359.090,14.773 C400.000,192.045 336.742,468.181 317.424,531.817 C297.726,693.939 308.333,762.499 312.879,781.816 C291.288,786.362 227.273,796.969 215.909,801.512 C210.226,741.287 195.455,656.059 193.181,619.696 C189.849,566.349 204.217,510.247 206.818,487.878 C210.606,418.560 181.818,38.636 182.954,26.136 C287.119,40.909 338.635,21.592 359.090,14.773z"/>
<linearGradient class="color_1 yellowOrBlue" id="3bd5e6a7-ec93-4ca0-bd98-0ca6d73d668e" >
<stop data-target="0" stop-color="#004878"></stop>
</linearGradient>
<path fill="url(#3bd5e6a7-ec93-4ca0-bd98-0ca6d73d668e)" d="M221.882,792.661 C218.936,764.205 214.260,730.910 210.091,701.224 C205.472,668.342 201.111,637.282 199.986,619.270 C197.533,580.024 204.947,538.788 209.853,511.500 C211.496,502.348 212.920,494.446 213.589,488.666 L213.624,488.251 C216.198,441.152 204.064,254.992 196.038,131.809 C193.210,88.426 190.690,49.798 189.950,33.961 C212.776,36.896 234.607,38.382 254.948,38.382 C254.951,38.382 254.958,38.382 254.962,38.382 C305.122,38.382 336.674,29.352 353.872,23.707 C392.803,209.468 325.048,483.225 310.899,529.836 L310.728,530.404 L310.654,530.993 C292.539,680.100 300.138,751.098 304.813,776.481 C298.090,777.791 289.425,779.387 280.394,781.050 C254.333,785.852 233.697,789.725 221.882,792.661z"/>
<linearGradient class="color_1 yellowOrBlue" id="b657d690-c342-43e3-96b2-55377a60a8c2" >
<stop data-target="28" stop-color="#005C99"></stop>
</linearGradient>
<path fill="url(#b657d690-c342-43e3-96b2-55377a60a8c2)" d="M246.616,77.156 C246.528,244.902 239.623,432.523 252.272,485.226 C252.272,494.317 259.090,536.363 273.862,542.044 C286.363,548.862 304.544,540.907 310.313,533.881 C310.430,532.909 310.535,531.973 310.655,530.994 L310.728,530.405 L310.899,529.837 C324.102,486.348 383.955,245.132 360.291,62.133 C324.243,74.243 285.039,76.849 246.616,77.156z"/>
<g>
<linearGradient class="color_1 yellowOrBlue" id="7d8b1ba3-2dfd-4320-8cb2-4e3ddb099b0f" >
<stop data-target="-20" stop-color="#00395E"></stop>
</linearGradient>
<path fill="url(#7d8b1ba3-2dfd-4320-8cb2-4e3ddb099b0f)" d="M337.703,95.455 L333.712,94.696 C343.749,132.387 360.038,157.763 367.612,167.612 L366.929,160.037 C357.954,146.591 343.749,118.182 337.703,95.455z"/>
</g>
</g>
<g>
<linearGradient class="color_1 yellowOrBlue" id="c593b795-6eff-4965-ae9a-469cd1a3b5c6" >
<stop data-target="-20" stop-color="#00395E"></stop>
</linearGradient>
<path fill="url(#c593b795-6eff-4965-ae9a-469cd1a3b5c6)" d="M87.117,0.000 C12.873,162.121 26.509,418.181 28.024,492.423 C24.615,537.878 4.338,601.068 2.273,656.816 C0.000,718.180 18.269,812.456 18.934,825.755 C54.160,814.390 80.681,812.497 108.327,819.695 C108.334,790.908 110.379,740.548 118.182,674.998 C123.346,631.617 125.000,569.317 136.363,526.136 C155.681,474.999 196.214,306.062 226.515,200.000 C232.198,196.970 249.242,192.425 256.817,186.364 C268.940,150.761 278.787,53.575 278.787,30.848 C186.224,32.937 126.515,16.667 87.117,0.000z"/>
<linearGradient class="color_1 yellowOrBlue" id="ebfcd007-a483-4dc9-abd9-779245bddfe1" >
<stop data-target="0" stop-color="#004878"></stop>
</linearGradient>
<path fill="url(#ebfcd007-a483-4dc9-abd9-779245bddfe1)" d="M24.765,816.823 C24.180,812.624 23.363,807.229 22.370,800.686 C17.143,766.253 7.416,702.160 9.087,657.070 C10.218,626.551 16.873,593.919 23.310,562.363 C28.438,537.223 33.282,513.478 34.823,492.934 L34.847,492.611 L34.841,492.285 C34.724,486.578 34.536,479.800 34.322,472.074 C31.696,377.305 25.590,157.080 90.631,8.828 C125.000,24.432 196.543,40.316 281.771,37.476 C282.528,74.596 260.606,148.487 250.471,182.478 C245.950,185.234 238.791,187.876 233.347,189.885 C229.241,191.401 225.695,192.709 223.308,193.983 L220.754,195.345 L219.960,198.126 C208.044,239.839 194.499,291.434 181.403,341.332 C160.931,419.328 141.592,492.999 129.985,523.723 L129.861,524.057 L129.770,524.399 C121.779,554.765 118.482,594.601 115.573,629.748 C114.249,645.748 112.998,660.860 111.411,674.192 C103.600,739.822 101.880,787.660 101.569,811.157 C92.944,809.459 84.408,808.627 75.687,808.627 C60.152,808.627 43.805,811.247 24.765,816.823z"/>
<linearGradient class="color_1 yellowOrBlue" id="1147c69e-20a1-4ff9-a9cd-e6edd017fb20" >
<stop data-target="28" stop-color="#005C99"></stop>
</linearGradient>
<path fill="url(#1147c69e-20a1-4ff9-a9cd-e6edd017fb20)" d="M113.636,58.334 C107.572,84.850 100.974,117.396 95.500,145.872 C120.321,136.282 139.088,116.708 154.545,95.455 C142.624,124.405 120.495,146.971 92.940,159.338 C78.577,235.771 67.927,307.046 67.420,322.725 C67.618,380.053 55.303,481.818 82.576,530.301 C98.864,544.318 120.454,537.500 130.149,523.282 C141.774,492.302 161.025,418.967 181.403,341.333 C194.499,291.435 208.044,239.840 219.960,198.127 L220.754,195.346 L223.308,193.983 C225.696,192.709 229.241,191.402 233.347,189.886 C238.791,187.877 245.950,185.235 250.471,182.479 C257.749,158.069 271.106,113.083 277.776,75.913 C222.931,79.846 153.788,68.940 113.636,58.334z"/>
<g>
<linearGradient class="color_1 yellowOrBlue" id="f73d804a-c9a1-4975-8c6a-8d8812565f68" >
<stop data-target="-20" stop-color="#00395E"></stop>
</linearGradient>
<path fill="url(#f73d804a-c9a1-4975-8c6a-8d8812565f68)" d="M154.592,23.640 C150.028,33.976 146.111,57.642 146.006,67.378 C151.550,69.063 165.021,70.655 166.500,71.320 C168.319,57.709 170.383,38.417 173.835,28.068 C168.281,27.034 159.397,25.315 154.592,23.640z"/>
<linearGradient class="color_1 yellowOrBlue" id="b40737a0-94fe-43f5-8854-8718983c1689" >
<stop data-target="28" stop-color="#005C99"></stop>
</linearGradient>
<path fill="url(#b40737a0-94fe-43f5-8854-8718983c1689)" d="M149.414,69.065 C149.969,59.411 154.060,36.548 157.246,26.914 C160.571,27.781 165.709,28.868 169.459,29.603 C167.110,38.652 162.706,70.704 162.601,71.521 C161.979,71.409 152.265,69.696 149.414,69.065z"/>
</g>
<g>
<linearGradient class="color_1 yellowOrBlue" id="3332b237-b923-4094-b77a-bd7bd83227b1" >
<stop data-target="-20" stop-color="#00395E"></stop>
</linearGradient>
<path fill="url(#3332b237-b923-4094-b77a-bd7bd83227b1)" d="M346.283,23.323 C348.595,34.920 349.753,58.415 348.646,68.538 C343.194,69.682 330.607,71.012 329.127,71.542 C329.089,57.207 329.517,36.945 327.527,25.820 C332.913,25.353 341.531,24.537 346.283,23.323z"/>
<linearGradient class="color_1 yellowOrBlue" id="22f0a662-15d7-4026-b6ec-00199dfb0dd3" >
<stop data-target="28" stop-color="#005C99"></stop>
</linearGradient>
<path fill="url(#22f0a662-15d7-4026-b6ec-00199dfb0dd3)" d="M345.567,71.066 C346.237,60.980 345.189,36.788 343.367,26.435 C339.203,27.282 335.266,28.648 331.629,29.002 C332.732,38.656 332.792,71.315 332.789,72.176 C333.393,72.126 342.796,71.412 345.567,71.066z"/>
</g>
<g>
<linearGradient class="color_2 yellowOrBlue" id="edc572dc-19b5-46f2-b6b7-93f2f4996b0c" >
<stop data-target="0" stop-color="#4D4D4D"></stop>
</linearGradient>
<path fill="url(#edc572dc-19b5-46f2-b6b7-93f2f4996b0c)" d="M257.037,54.964 C256.358,61.058 260.205,66.484 265.624,67.090 C271.048,67.695 275.996,63.249 276.674,57.157 C277.354,51.066 273.510,45.635 268.090,45.033 C262.666,44.427 257.716,48.875 257.037,54.964z"/>
<linearGradient class="color_2 yellowOrBlue" id="73d3a333-a91f-48bd-88fa-18175e9247af" >
<stop data-target="132" stop-color="#B3B3B3"></stop>
</linearGradient>
<path fill="url(#73d3a333-a91f-48bd-88fa-18175e9247af)" d="M266.560,65.202 C264.494,64.973 262.641,63.837 261.341,62.001 C259.994,60.097 259.403,57.687 259.677,55.213 C260.215,50.389 263.933,46.759 268.134,46.946 C268.286,46.955 268.443,46.967 268.598,46.984 C270.664,47.213 272.517,48.351 273.818,50.185 C275.167,52.088 275.758,54.500 275.483,56.976 C274.941,61.797 271.229,65.427 267.023,65.239 C267.023,65.240 266.718,65.221 266.560,65.202z"/>
</g>
<g>
<linearGradient class="color_1 yellowOrBlue" id="43348e39-c94b-488f-bf2e-4c33419fda9a" >
<stop data-target="-20" stop-color="#00395E"></stop>
</linearGradient>
<path fill="url(#43348e39-c94b-488f-bf2e-4c33419fda9a)" d="M84.524,172.665 L81.148,172.562 L81.472,161.860 L82.831,161.626 C89.053,160.549 134.686,141.448 153.876,89.160 L157.050,90.326 C138.210,141.652 95.447,161.689 84.768,164.638 L84.524,172.665z"/>
</g>
</g>
</g>
</svg>
