<svg version="1.1" id="Apron_1_" xmlns="http://www.w3.org/2000/svg" viewBox="0 0 9922 13000" xml:space="preserve">
	<g>
		<g id="Man_1_">
			<g id="Shoulders">
				<g>
					<path fill="#944D09" d="M6391.276,3290.449c-334.49-108.819-362.694-366.738-664.939-467.488
						c0.305,123.594-42.353,540.915-47.535,621.529c198.853,4.878,671.742,19.765,703.941,19.686
						C6388.006,3410.448,6391.406,3333.442,6391.276,3290.449z"/>
					<linearGradient id="SVGID_1_" gradientUnits="userSpaceOnUse" x1="5571.6377" y1="3131.1987" x2="6186.6519" y2="3150.8567">
						<stop  offset="0" style="stop-color:#F8BD9C"/>
						<stop  offset="1" style="stop-color:#FFD1AF"/>
					</linearGradient>
					<path fill="url(#SVGID_1_)" d="M6336.669,3414.796c-54.562-1.428-507.466-14.744-606.111-17.344
						c0.931-12.993,1.939-385.09,7.86-522.096c76.588,32.246,170.87,97.092,247.025,180.049
						c101.455,110.551,215.711,196.893,349.429,271.298C6335.081,3331.196,6336.588,3402.17,6336.669,3414.796z"/>
				</g>
				<g>
					<path fill="#944D09" d="M3957.171,3076.854c306.282-8.054,693.16-322.396,991.38-310.315
						c40.3,96.723,181.347,548.086,213.595,644.806c-169.269,8.056-1080.049-40.298-1128.41-40.298
						C4033.735,3258.202,3965.233,3165.506,3957.171,3076.854z"/>
					<linearGradient id="SVGID_2_" gradientUnits="userSpaceOnUse" x1="5094.6699" y1="3091.3892" x2="4033.4634" y2="3091.3892">
						<stop  offset="0" style="stop-color:#DFA182"/>
						<stop  offset="1" style="stop-color:#F3B190"/>
					</linearGradient>
					<path fill="url(#SVGID_2_)" d="M5094.67,3363.844c-185.969-1.122-605.247-20.615-858.715-32.423
						c-72.008-3.336-123-5.711-156.137-7.123c-5.302-56.694-18.898-112.957-31.218-163.893
						c-5.528-22.813-10.887-44.968-15.138-65.678c167.342-13.413,323.237-83.971,474.489-152.44
						c137.086-62.036,275.39-117.177,396.265-123.353C4949.121,2934.233,5045.209,3222.011,5094.67,3363.844z"/>
				</g>
			</g>
			<g id="left_leg">
				<g>
					<path fill="#944D09" d="M5306.063,11433.631c8.631,132.111-53.712,250.546-94.989,392.217
						c-29.84,102.449-24.399,187.475,17.279,239.452c44.582,55.624,220.186,66.066,345.385,41.295
						c72.255-14.293,224.503-16.524,293.597,0c69.082,16.508,249.161,53.969,361.413,55.22c90.673,1.012,180-13.429,180-13.429
						s148.829,35.022,231.064,16.125c116.856-26.873,154.475-157.187,130.282-185.391c-12.08-14.118-119.823-23.44-237.77-60.465
						c-117.915-37.01-225.883-129.963-289.362-187.766c-90.674-82.587-272.006-165.147-332.457-264.241
						C5763.717,11417.109,5409.684,11450.14,5306.063,11433.631z"/>
					<linearGradient id="SVGID_3_" gradientUnits="userSpaceOnUse" x1="5229.8848" y1="10920.4375" x2="5903.4248" y2="11889.6787">
						<stop  offset="0" style="stop-color:#F8BD9C"/>
						<stop  offset="1" style="stop-color:#FFD1AF"/>
					</linearGradient>
					<path fill="url(#SVGID_3_)" d="M6416.801,12105.392c0,0-97.65,18.146-188.053,18.819
						c-90.513,0.688-185.391-18.819-349.267-61.815c-57.191-14.996-204.482-12.174-315.688,1.365
						c-200.955,24.48-283.621-15.239-294.322-28.587c-30.594-38.149-33.673-109.605-8.486-196.044
						c11.134-38.179,24.08-75.287,36.561-111.209c28.171-80.727,55.027-157.828,60.225-240.527
						c18.29,0.641,39.915,0.945,65.808,0.945c24.063,0,50.069-0.258,77.247-0.494c29.356-0.275,60.144-0.55,91.267-0.55
						c96.546,0,213.817,2.535,284.999,21.272c37.316,78.289,126.322,115.976,204.243,167.278
						c48.417,31.896,94.137,61.99,125.886,90.917c131.694,119.917,284.824,209.678,502.428,233.855
						c19.156,4.025,34.269,40.957-30.21,101.402C6606.893,12150.394,6480.267,12115.468,6416.801,12105.392z"/>
				</g>
				<g>
					<path fill="#944D09" d="M5299.165,9641.72c-108.817,124.924-274.058,360.029-274.058,612.563
						c0,185.373,70.525,376.795,167.261,558.143c50.376,195.467,116.873,515.841,109.382,707.904
						c227.18,0,554.79,43.698,666.383,43.698c-161.182-616.54-14.454-1777.729,20.084-1975.923
						C5772.348,9579.858,5394.153,9658.226,5299.165,9641.72z"/>
					<linearGradient id="SVGID_4_" gradientUnits="userSpaceOnUse" x1="5127.8027" y1="10623.498" x2="6099.1318" y2="10623.498">
						<stop  offset="0" style="stop-color:#F8BD9C"/>
						<stop  offset="1" style="stop-color:#FFD1AF"/>
					</linearGradient>
					<path fill="url(#SVGID_4_)" d="M5917.103,11562.682c-94.044,26.869-448.687,96.737-564.208-10.734
						c2.564-272.13-62.07-565.152-120.243-769.745c-102.754-183.372-147.11-348.305-151.105-540.017
						c-4.043-193.446,157.155-431.215,244.282-560.761c4.301,0.129,8.825,0.175,13.558,0.175c59.501,0,147.608-8.839,249.657-19.09
						c111.947-11.229,237.913-23.873,339.176-25.411C5890.983,9886.052,5763.957,10958.188,5917.103,11562.682z"/>
					<path fill="#944D09" d="M5492.593,10024.563c92.696,294.193,48.354,530.615-80.599,761.666
						C5472.443,10572.651,5553.06,10318.757,5492.593,10024.563z"/>
					<path fill="#944D09" d="M5206.471,10737.872c44.324,79.268,90,116.873,123.577,137.023
						c-71.197-18.818-107.47-45.673-124.925-67.171C5205.123,10787.575,5202.443,10770.12,5206.471,10737.872z"/>
					<path fill="#944D09" d="M5472.443,11229.537c-36.256,90.673-68.502,253.894-64.475,282.095
						c4.861,34.075,124.941,96.724,169.248,104.775C5544.988,11499.537,5488.567,11289.989,5472.443,11229.537z"/>
					<linearGradient id="SVGID_5_" gradientUnits="userSpaceOnUse" x1="5323.2568" y1="11521.5488" x2="5640.2959" y2="11371.0938">
						<stop  offset="0" style="stop-color:#F8BD9C"/>
						<stop  offset="1" style="stop-color:#FFD1AF"/>
					</linearGradient>
					<path fill="url(#SVGID_5_)" d="M5583.941,11616.425c-56.422-22.845-127.605-92.695-141.049-116.871
						c-4.042-53.744,14.183-197.52,32.245-268.67C5493.525,11299.147,5565.572,11549.218,5583.941,11616.425z"/>
				</g>
				<g>
					<path fill="#944D09" d="M5303.931,9286.565c-4.491,111.397-50.76,375.191-75.401,455.967
						c366.736-44.342,598.509,2.504,739.539-22.285c63.339-123.85,107.953-291.769,123.786-363.304
						c-7.491-94.973-25.475-199.572-34.475-224.342C5859.221,9149.111,5388.764,9284.942,5303.931,9286.565z"/>
					<linearGradient id="SVGID_6_" gradientUnits="userSpaceOnUse" x1="5263.2061" y1="9327.2012" x2="6084.1943" y2="9631.0752">
						<stop  offset="0" style="stop-color:#F8BD9C"/>
						<stop  offset="1" style="stop-color:#FFD1AF"/>
					</linearGradient>
					<path fill="url(#SVGID_6_)" d="M6014.543,9187.821c-112.394,17.324-280.778,62.902-419.74,100.492
						c-62.055,16.796-202.253,85.476-244.334,96.063c-10.202,141.05-47.436,277.619-71.47,366.143
						c103.106,13.46,361.012,45.997,361.012,45.997c129.16,0,240.289-84.545,296.406-117.579
						c44.196-130.843,96.466-285.849,99.817-316.476C6030.828,9295.595,6021.717,9229.114,6014.543,9187.821z"/>
				</g>
				<g>
					<path fill="#944D09" d="M6399.444,6288.747c94.171,636.754,68.421,2272.925-379.508,2998.33
						c-140.344,130.236-629.761,104.214-718.315,100.396c-55.413-408.368-205.988-2846.15-228.145-3061.091
						C5356.47,6326.383,6118.807,6318.987,6399.444,6288.747z"/>
					<linearGradient id="SVGID_7_" gradientUnits="userSpaceOnUse" x1="6237.3838" y1="7895.0596" x2="4601.2231" y2="7937.0063">
						<stop  offset="0" style="stop-color:#DFA182"/>
						<stop  offset="1" style="stop-color:#F3B190"/>
					</linearGradient>
					<path fill="url(#SVGID_7_)" d="M5342.688,9469.13c3.434-26.469,7.639-81.543,9.644-102.753
						c-36.16-314.758-99.435-1365.659-144.578-2147.133c-22.396-387.21-40.765-705.177-50.68-839.295
						c408.915-2.068,1007.551-26.342,1199.26-39.24c90.662,699.851,20.778,2272.573-372.896,2911.427
						C5773.406,9389.173,5505.813,9469.13,5342.688,9469.13z"/>
					<linearGradient id="SVGID_8_" gradientUnits="userSpaceOnUse" x1="5153.1201" y1="7970.4961" x2="6245.271" y2="7970.4961">
						<stop  offset="0" style="stop-color:#F8BD9C"/>
						<stop  offset="1" style="stop-color:#FFD1AF"/>
					</linearGradient>
					<path fill="url(#SVGID_8_)" d="M6356.334,6340.709c-130.745,8.808-559.857,52.156-879.862,60.883
						c-43.511,932.968-76.558,2272.409-124.14,2964.785c-4.074,59.823-25.638,168.851-33.947,233.905
						c169.251-32.248,570.787-229.508,665.054-348.146C6377.112,8613.282,6446.996,7040.56,6356.334,6340.709z"/>
				</g>
			</g>
			<g id="Right_arm">
				<g>
					<path fill="#944D09" d="M6781.678,5047.229c80.599,185.391,199.492,385.765,241.798,580.331
						c100.249,461.103,57.258,953.984,110.149,1139.152c-42.994,10.746-426.656,16.393-448.155,21.768
						c-177.306-596.438-459.929-913.75-535.152-1558.556C6375.988,5154.715,6711.828,5063.367,6781.678,5047.229z"/>
					<linearGradient id="SVGID_9_" gradientUnits="userSpaceOnUse" x1="5832.4678" y1="5928.7549" x2="6704.3584" y2="5928.7549">
						<stop  offset="0" style="stop-color:#DFA182"/>
						<stop  offset="1" style="stop-color:#F3B190"/>
					</linearGradient>
					<path fill="url(#SVGID_9_)" d="M6725.786,6753.57c-69.545-223.282-145.171-411.449-228.049-592.283
						c-126.575-276.145-246.4-537.514-294.512-897.851c193.875-62.872,445.57-132.401,550.764-159.497
						c20.021,44.005,41.71,88.813,62.839,132.434c64.333,132.802,130.83,270.128,159.4,401.454
						c56.566,260.165,66.866,532.845,75.161,751.941c5.213,137.854,9.529,252.305,23.727,335.823
						c-58.121,5.6-154.956,12.672-220.331,17.439C6796.869,6747.267,6749.947,6751.563,6725.786,6753.57z"/>
					<linearGradient id="SVGID_10_" gradientUnits="userSpaceOnUse" x1="6259.8164" y1="5968.7456" x2="7083.187" y2="5902.876">
						<stop  offset="0" style="stop-color:#F8BD9C"/>
						<stop  offset="1" style="stop-color:#FFD1AF"/>
					</linearGradient>
					<path fill="url(#SVGID_10_)" d="M7085.448,6724.998c-14.199-83.502-28.846-197.376-34.059-335.229
						c-8.295-219.097-18.595-491.776-75.161-751.941c-28.57-131.326-95.067-268.652-159.4-401.454
						c-21.129-43.62-42.817-88.429-62.839-132.434c-28.782,7.411-24.178,233.744-96.724,362.712
						c-128.95,21.48-169.267,257.904-149.102,378.802c53.713,402.994,158.504,725.389,222.981,902.726
						C6768.747,6758.911,7027.309,6730.612,7085.448,6724.998z"/>
				</g>
				<g>
					<path fill="#944D09" d="M6698.398,4058.544c53.729,145.09,150.451,800.632,145.077,1063.925
						c-21.497,123.593-162.031,315.963-198.817,327.77c-75.24,0-333.981-164.951-382.332-261.673
						c-37.621-257.904-47.518-1173.017-47.518-1226.728C6359.883,3999.442,6655.421,4037.063,6698.398,4058.544z"/>
					<linearGradient id="SVGID_11_" gradientUnits="userSpaceOnUse" x1="6088.6934" y1="4678.5322" x2="6704.1553" y2="4678.5322">
						<stop  offset="0" style="stop-color:#DFA182"/>
						<stop  offset="1" style="stop-color:#F3B190"/>
					</linearGradient>
					<path fill="url(#SVGID_11_)" d="M6633.074,5414.255c-48.354,0-158.824-13.41-323.726-127.62
						c-30.193-245.438-44.23-1048.54-45.804-1263.835c91.461-148.01,264.771-71.438,396.608,73.926
						c53.857,176.968,139.012,776.759,135.048,1020.93C6775.871,5218.469,6671.24,5379.763,6633.074,5414.255z"/>
					<linearGradient id="SVGID_12_" gradientUnits="userSpaceOnUse" x1="6196.5117" y1="4663.3804" x2="6751.4951" y2="4681.1196">
						<stop  offset="0" style="stop-color:#F8BD9C"/>
						<stop  offset="1" style="stop-color:#FFD1AF"/>
					</linearGradient>
					<path fill="url(#SVGID_12_)" d="M6795.201,5117.655c3.964-244.171-81.19-843.962-135.048-1020.93
						c-87.816-96.835-144.416-171.737-232.604-161.486c32.247,462.097-24.16,800.632,37.637,1203.624
						c18.946,66.322,69.835,241.798,128.646,272.664c15.787,2.021,28.992,2.728,39.242,2.728
						C6671.24,5379.763,6775.871,5218.469,6795.201,5117.655z"/>
				</g>
				<g>
					<path fill="#944D09" d="M6086.338,3188.352c572.276,26.855,843.112,593.471,638.918,1141.54
						c-128.967-402.995-779.133-873.161-832.878-916.139c25.894-22.637,21.467-124.524,51.578-182.408
						C5964.107,3227.304,6050.753,3191.031,6086.338,3188.352z"/>
					<linearGradient id="SVGID_13_" gradientUnits="userSpaceOnUse" x1="6116.0215" y1="3901.5566" x2="6467.6929" y2="3514.718">
						<stop  offset="0" style="stop-color:#F8BD9C"/>
						<stop  offset="1" style="stop-color:#FFD1AF"/>
					</linearGradient>
					<path fill="url(#SVGID_13_)" d="M6704.273,4209.667c-71.248-75.08-247.011-222.321-335.68-294.866
						c-241.877-197.904-402.947-452.311-469.475-519.85c8.052-32.246-8.072-165.241-4.045-205.541
						c260.615-28.203,592.107,143.005,715.541,320.728C6743.289,3701.143,6776.623,3957.988,6704.273,4209.667z"/>
				</g>
				<g>
					<g>
						<path fill="#944D09" d="M6608.045,7134.089c-21.913,137.999-84.961,317.679-127.264,417.098
							c-21.916,118.377,127.795,188.422,165.929,86.52c60.77-113.296,130.974-430.977,140.198-476.842
							C6731.881,7137.844,6638.127,7139.96,6608.045,7134.089z"/>
						<linearGradient id="SVGID_14_" gradientUnits="userSpaceOnUse" x1="6521.3828" y1="7406.2998" x2="6741.98" y2="7413.3511">
							<stop  offset="0" style="stop-color:#F8BD9C"/>
							<stop  offset="1" style="stop-color:#FFD1AF"/>
						</linearGradient>
						<path fill="url(#SVGID_14_)" d="M6536.354,7627.164c-17.552-17.487-26.199-46.411-16.156-72.593
							c36.32-94.813,90.385-237.131,122.759-382.862c23.088,7.155,80.776,14.841,105.979,24.033
							c-23.102,103.153-116.021,400.875-137.373,434.31C6590.208,7663.483,6547.246,7637.992,6536.354,7627.164z"/>
					</g>
					<g>
						<path fill="#944D09" d="M6723.104,7124.302c-0.769,87.74-2.694,274.043-21.512,416.456
							c-21.479,51.032-75.223,155.808-96.722,212.228c-37.619,131.648,137.021,206.889,169.315,148.155
							c15.805-28.749,125.581-258.737,134.294-282.479c34.847-89.104,70.909-442.155,63.866-478.185
							C6917.852,7137.844,6757.359,7130.913,6723.104,7124.302z"/>
						<linearGradient id="SVGID_15_" gradientUnits="userSpaceOnUse" x1="6625.7266" y1="7509.7988" x2="6995.3662" y2="7550.8701">
							<stop  offset="0" style="stop-color:#F8BD9C"/>
							<stop  offset="1" style="stop-color:#FFD1AF"/>
						</linearGradient>
						<path fill="url(#SVGID_15_)" d="M6782.193,7857.762c-83.297,45.689-154.349-22.458-134.327-94.027
							c12.257-39.688,45.688-118.026,83.279-204.19c7.618-75.692,30.942-230.438,31.587-382.828
							c23.965,1.971,150.563,13.651,158.006,13.973c-4.782,137.983-12.626,284.918-35.809,374.069
							C6879.589,7577.783,6798.572,7816.276,6782.193,7857.762z"/>
					</g>
					<g>
						<path fill="#944D09" d="M6908.48,7137.747c-5.39,115.523-29.568,368.068-41.551,438.097
							c-23.021,68.165-52.478,118.041-106.218,238.939c-69.562,145.446,124.363,237.769,182.681,147.754
							c13.456-37.17,115.537-284.774,115.537-284.774s90.53-501.578,93.803-526.959
							C7089.604,7147.034,6958.149,7144.147,6908.48,7137.747z"/>
						<linearGradient id="SVGID_16_" gradientUnits="userSpaceOnUse" x1="6740.3691" y1="7543.8535" x2="7151.0547" y2="7609.5635">
							<stop  offset="0" style="stop-color:#F8BD9C"/>
							<stop  offset="1" style="stop-color:#FFD1AF"/>
						</linearGradient>
						<path fill="url(#SVGID_16_)" d="M6795.699,7828.773c12.049-45.449,70.013-133.204,105.387-234.289
							c18.128-120.915,34.844-269.053,34.251-384.193c35.407,3.128,138.929-4.33,176.02-1.797
							c-12.527,86.695-59.147,398.069-59.147,398.069s-130.413,309.111-138.369,326.439
							C6884.273,7997.479,6751.822,7932.812,6795.699,7828.773z"/>
					</g>
					<g>
						<path fill="#944D09" d="M7054.293,7142.961c-0.08,68.661-13.572,296.616-24.931,451.523
							c-29.548,72.53-60.449,138.352-73.877,173.276c-42.992,143.746,116.856,267.338,197.473,103.445
							c18.801-34.922,75.238-131.647,115.538-236.423c21.482-198.816,15.851-470.854,13.412-494.356
							C7225.133,7137.186,7109.641,7146.251,7054.293,7142.961z"/>
						<linearGradient id="SVGID_17_" gradientUnits="userSpaceOnUse" x1="6906.8037" y1="7531.8633" x2="7268.1997" y2="7556.5039">
							<stop  offset="0" style="stop-color:#F8BD9C"/>
							<stop  offset="1" style="stop-color:#FFD1AF"/>
						</linearGradient>
						<path fill="url(#SVGID_17_)" d="M6991.935,7777.166c20.136-52.398,33.563-85.285,74.502-168.579
							c16.106-145.092,20.007-313.014,12.065-413.086c18.159-1.349,72.146-5.134,90.897-6.98
							c18.771-1.828,57.336,4.269,74.905,2.967c10.748,99.422,6.049,285.453-16.076,432.549
							c-50.34,114.851-99.384,204.176-118.154,241.794C7064.434,7970.605,6966.059,7844.446,6991.935,7777.166z"/>
					</g>
					<g>
						<path fill="#944D09" d="M6661.293,6619.229c-88.669,120.896-61.795,483.591-59.952,572.292
							c203.088,58.044,628.813,55.846,704.247,61.654c-5.792-197.278-192.932-652.751-206.358-722.616
							C7024.005,6627.283,6838.615,6871.773,6661.293,6619.229z"/>
						<linearGradient id="SVGID_18_" gradientUnits="userSpaceOnUse" x1="6435.5029" y1="6917.9512" x2="7095.7051" y2="6917.9512">
							<stop  offset="0" style="stop-color:#F8BD9C"/>
							<stop  offset="1" style="stop-color:#FFD1AF"/>
						</linearGradient>
						<path fill="url(#SVGID_18_)" d="M7213.405,7272.073c-134.229-3.691-417.304-20.776-578.983-56.424
							c-0.193-12.914,5.856-92.854,5.391-107.455c-3.08-93.207,0-362.692,48.352-480.911c13.638-4.143,37.622,21.495,99.403,29.548
							c91.345-51.047,184.377-85.539,275.71-93.014c2.712,120.88,328.141,557.307,202.507,696.175
							C7259.512,7266.923,7224.316,7272.377,7213.405,7272.073z"/>
					</g>
					<g>
						<path fill="#944D09" d="M7116.684,6586.985c74.567,82.601,187.396,206.867,223.668,269.995
							c3.867,24.578,29.823,101.551,59.759,186.722c47.039,133.672,131.665,204.195,141.739,226.367
							c-24.176,68.501-161.791,131.453-235.75,70.523c-73.987-60.932-126.271-193.447-153.142-290.166
							C6787.567,6948.345,6825.555,6595.934,7116.684,6586.985z"/>
						<linearGradient id="SVGID_19_" gradientUnits="userSpaceOnUse" x1="6946.9141" y1="7151.8066" x2="7285.0493" y2="6910.2813">
							<stop  offset="0" style="stop-color:#F8BD9C"/>
							<stop  offset="1" style="stop-color:#FFD1AF"/>
						</linearGradient>
						<path fill="url(#SVGID_19_)" d="M7326.254,7304.318c-94.287-89.568-146.426-290.166-146.426-290.166
							c-173.758-20.454-291.513-110.148-295.555-255.225c-1.781-64.57,68.18-174.962,181.025-174.962
							c56.424,69.835,181.684,228.691,230.054,306.593c13.044,40.975,52.556,154.781,102.096,252.563
							c41.728,82.379,69.85,98.726,94.027,132.995C7485.429,7304.318,7379.961,7355.368,7326.254,7304.318z"/>
					</g>
					<path fill="#944D09" d="M6677.418,7215.649c120.897,28.22,417.111,52.396,497.693,56.424
						C7070.337,7310.367,6790.263,7266.04,6677.418,7215.649z"/>
				</g>
			</g>
			<g id="Torso">
				<g>
					<path fill="#944D09" d="M6303.973,5574.104c48.369,118.204,110.151,623.296,99.401,859.733
						c-91.329,5.357-685.09-16.123-781.812-8.054c0-88.668-24.176-790.172-24.176-862.428
						C5651.129,5563.356,6255.621,5574.104,6303.973,5574.104z"/>
					<linearGradient id="SVGID_20_" gradientUnits="userSpaceOnUse" x1="5634.6338" y1="5988.2407" x2="6368.1987" y2="6011.688">
						<stop  offset="0" style="stop-color:#F8BD9C"/>
						<stop  offset="1" style="stop-color:#FFD1AF"/>
					</linearGradient>
					<path fill="url(#SVGID_20_)" d="M6354.331,6386.352c-66.078,0-178.332-2.439-297.178-5.005
						c-130.843-2.825-266.147-5.761-354.271-5.761c-12.467,0-23.712,0.064-33.771,0.177c-1.959-86.63-7.156-254.903-12.226-418.78
						c-4.313-139.349-8.454-272.871-10.234-344.728c68.921,0.962,195.112,3.032,318.225,5.037
						c125.342,2.054,245.309,4.027,304.331,4.813c40.509,140.39,88.958,535.315,87.016,764.246
						C6355.599,6386.352,6354.988,6386.352,6354.331,6386.352z"/>
				</g>
				<g>
					<path fill="#944D09" d="M4466.297,5541.875c-85.973,145.075-182.688,617.919-188.069,865.106
						c214.941,37.604,1066.596,32.214,1125.714,26.856c-8.055-161.198-16.125-835.558-16.125-878.535
						C5312.594,5560.678,4525.399,5552.608,4466.297,5541.875z"/>
					<linearGradient id="SVGID_21_" gradientUnits="userSpaceOnUse" x1="4827.0073" y1="6035.5879" x2="4408.0977" y2="6232.7217">
						<stop  offset="0" style="stop-color:#DFA182"/>
						<stop  offset="1" style="stop-color:#F3B190"/>
					</linearGradient>
					<path fill="url(#SVGID_21_)" d="M5107.103,6389.271c-140.84,0-586.845-1.828-778.838-24.064
						c13.493-243.882,95.238-624.192,165.843-772.476c134.808,7.942,566.07,12.627,756.673,12.627
						c36.339,0,66.063-0.129,89.118-0.418c1.604,151.861,7.524,596.76,13.766,782.325
						C5303.769,6388.341,5217.572,6389.271,5107.103,6389.271z"/>
				</g>
				<g>
					<path fill="#944D09" d="M3687.164,3282.378c56.413,1128.4,475.532,1354.09,677.037,1708.732
						c72.537,411.048-64.485,644.792,32.237,805.99c145.083,231.047,795.257,255.239,838.235,515.838
						c11.551,86.567,32.246,679.735,32.246,789.882c40.299,0,540.016-2.677,580.315-2.677
						c21.496-107.47,80.6-612.563,112.845-784.51c37.604-166.588,435.241-317.038,459.414-437.936
						c2.696-137.021-112.841-660.93-88.648-1128.401c33.239-105.785,68.518-270.19,90.656-451.363
						c-2.504-291.529,11.439-644.79-42.305-866.438C6306.653,3431.496,3775.816,3282.378,3687.164,3282.378z"/>
					<linearGradient id="SVGID_22_" gradientUnits="userSpaceOnUse" x1="4662.0776" y1="5215.5581" x2="3665.6611" y2="5429.5132">
						<stop  offset="0" style="stop-color:#DFA182"/>
						<stop  offset="1" style="stop-color:#F3B190"/>
					</linearGradient>
					<path fill="url(#SVGID_22_)" d="M5314.665,7054.292c-3.517-181.044-380.561-732.433-461.488-872.999
						c-102.096-177.321-335.977-282.803-415.78-409.91c-39.481-65.823-30.521-154.765-18.112-277.877
						c13.387-132.866,30.048-298.234-7.46-510.802l-1.452-8.246l-4.123-7.251c-48.089-84.626-107.534-161.422-170.479-242.713
						c-199.701-257.919-447.216-577.651-497.414-1392.561c188.334,5.247,842.069,26.985,1427.671,46.444
						c554.758,18.433,1027.09,51.001,1174.877,55.139c43.698,225.257,48.369,562.172,34.587,858.835
						c-26.117,182.646-59.936,344.311-90.786,442.46l-1.844,5.854l-0.322,6.145c-17.068,330.032,23.103,648.048,47.086,838.044
						c9.562,75.77,33.321,254.87,33.449,284.79c-22.234,86.599-112.844,139.701-177.32,241.797
						c-12.241,19.397-68.197,437.855-84.625,612.563c-10.783,114.671-286.782,264.544-295.221,327.913
						C5751.541,7052.157,5369.963,7054.05,5314.665,7054.292z"/>
					<linearGradient id="SVGID_23_" gradientUnits="userSpaceOnUse" x1="4425.6665" y1="5609.0161" x2="6158.9009" y2="5518.209">
						<stop  offset="0" style="stop-color:#F8BD9C"/>
						<stop  offset="1" style="stop-color:#FFD1AF"/>
					</linearGradient>
					<path fill="url(#SVGID_23_)" d="M4404.501,4410.778c-4.035,173.295,180.793,405.146,185.382,640.782
						c8.117,417.655,10.741,844.94,100.05,949.091c63.161,52.972,123.306,111.271,163.244,180.642
						c80.928,140.566,457.972,691.955,461.488,872.999c55.298-0.242,436.876-2.135,491.243-2.374
						c8.438-63.369,284.438-213.242,295.221-327.913c16.428-174.708,72.384-593.166,84.625-612.563
						c64.477-102.096,155.086-155.198,177.32-241.797c-0.128-29.92-23.888-209.021-33.449-284.79
						c-23.983-189.996-64.154-508.012-47.086-838.044l0.322-6.145l1.844-5.854c30.851-98.149,64.669-259.813,90.786-442.46
						c3.673-78.946-0.993-218.92-0.321-300.689C5828.497,4320.49,5081.546,4576.02,4404.501,4410.778z"/>
					<path fill="#944D09" d="M5639.689,5531.11c-18.93,0-34.252,36.096-34.252,80.599c0,44.52,15.322,80.6,34.252,80.6
						c18.916,0,34.251-36.08,34.251-80.6C5673.94,5567.206,5658.605,5531.11,5639.689,5531.11z"/>
				</g>
			</g>
			<g id="Neck">
				<path fill="#944D09" d="M4761.821,2016.976c-4.949,32.181-2.68,662.692,1.949,840.477
					c72.226,272.695,204.585,638.087,200.101,673.863c117.898,23.164,626.502-32.825,701.648-26.392
					c17.195-76.348,104.646-365.92,123.225-595.395c-13.414-360.129-41.455-744.704-40.909-782.405
					C5602.759,2125.071,4831.584,2023.329,4761.821,2016.976z"/>
				<linearGradient id="SVGID_24_" gradientUnits="userSpaceOnUse" x1="5163.625" y1="2768.6494" x2="4248.7363" y2="2768.6494">
					<stop  offset="0" style="stop-color:#DFA182"/>
					<stop  offset="1" style="stop-color:#F3B190"/>
				</linearGradient>
				<path fill="url(#SVGID_24_)" d="M5759.449,3463.341c-47.503-1.172-121.396-2.229-218.681-3.608l-10.89-0.161
					c-221.295-3.112-573.764-8.086-705.885-19.188c1.749-108.385-20.542-1249.635-20.43-1366.426
					c20.398,2.118,737.046,99.37,908.944,109.654C5717.674,2392.248,5746.356,3192.01,5759.449,3463.341z"/>
				<linearGradient id="SVGID_25_" gradientUnits="userSpaceOnUse" x1="4971.957" y1="2820.7563" x2="5712.8496" y2="2820.7563">
					<stop  offset="0" style="stop-color:#F8BD9C"/>
					<stop  offset="1" style="stop-color:#FFD1AF"/>
				</linearGradient>
				<path fill="url(#SVGID_25_)" d="M5712.509,2183.612c-34.927-2.103-5.36,2.293-74.84-5.44
					c30.433,256.104-90.419,547.441-209.551,628.683c-139.701,53.727-364.026,41.632-471.514-28.22
					c9.409,128.968,84.64,431.214,116.872,652.861c134.277,3.112,343.748,26.486,456.402,28.075l10.89,0.161
					c97.284,1.379,171.178,2.437,218.681,3.608C5746.356,3192.01,5717.674,2392.248,5712.509,2183.612z"/>
			</g>
			<g id="right_arm">
				<g>
					<path fill="#944D09" d="M3379.872,3539.304c-169.259,161.196-757.636,1055.839-886.597,1289.583
						c185.376,32.245,894.659,165.239,1023.618,165.239c201.497-338.534,502.411-980.63,558.834-1230.48
						C3997.815,3602.448,3557.193,3466.758,3379.872,3539.304z"/>
					<linearGradient id="SVGID_26_" gradientUnits="userSpaceOnUse" x1="3845.2236" y1="4351.5522" x2="2757.1257" y2="3876.0134">
						<stop  offset="0" style="stop-color:#F8BD9C"/>
						<stop  offset="1" style="stop-color:#FFD1AF"/>
					</linearGradient>
					<path fill="url(#SVGID_26_)" d="M3490.68,4941.731c-159.609-9.562-701.454-85.364-943.315-123.914
						c170.584-279.835,728.485-1105.477,889.933-1265.425c72.546-13.441,615.249-111.496,701.223-106.137
						C4039.118,3878.817,3677.747,4613.593,3490.68,4941.731z"/>
				</g>
				<g>
					<path fill="#944D09" d="M4372.262,3137.304c-419.125-314.343-1148.55,44.326-1112.284,801.979
						c58.435-29.231,820.105-185.054,822.119-200.165c0,0-117.521-315.321,36.353-426.611
						C4180.688,3264.556,4294.783,3227.208,4372.262,3137.304z"/>
					<linearGradient id="SVGID_27_" gradientUnits="userSpaceOnUse" x1="4129.2158" y1="3633.5332" x2="3141.9155" y2="3354.6375">
						<stop  offset="0" style="stop-color:#F8BD9C"/>
						<stop  offset="1" style="stop-color:#FFD1AF"/>
					</linearGradient>
					<path fill="url(#SVGID_27_)" d="M3259.978,3967.485c42.32-636.738,509.798-1051.828,1109.598-843.609
						c41.912,50.357-62.92,406.668-128.96,459.418C3994.784,3792.843,3501.781,3931.212,3259.978,3967.485z"/>
				</g>
			</g>
			<g id="Chest">
				<path fill="#944D09" d="M5495.287,4397.336c85.959,21.497,842.552,161.117,986.007-64.46
					c186.593-293.375,46.139-695.903-59.295-881.039c-45.673-60.432-133.684-140.478-176.886-149.782
					c-183.451-27.376-630.884,35.093-824.953,45.697C5423.128,3509.144,5492.064,4244.03,5495.287,4397.336z"/>
				<linearGradient id="SVGID_28_" gradientUnits="userSpaceOnUse" x1="5203.6377" y1="3818.4263" x2="6286.521" y2="3853.0391">
					<stop  offset="0" style="stop-color:#F8BD9C"/>
					<stop  offset="1" style="stop-color:#FFD1AF"/>
				</linearGradient>
				<path fill="url(#SVGID_28_)" d="M6034.904,4414.63c-124.413-3.529-492.401-37.172-589.187-59.422
					c-0.37-101.52,19.346-294.515,21.464-482.921c2.07-185.165,4.17-375.674,3.882-478.685
					c124.028-5.872,644.166-143.454,791.135-106.571c31.25,7.717,143.821,106.636,182.806,155.742
					c41.07,82.91,175.652,546.032,16.335,844.541C6412.326,4379.175,6260.914,4421.063,6034.904,4414.63z"/>
				<path fill="#944D09" d="M4251.06,3143.8c422.454-22.451,989.519,142.926,1237.508,207.098
					c40.572,251.23,20.038,865.636,20.149,1049.133c-472.509,78.915-1018.139,13.315-1171.379-131.646
					c-152.439-144.209-270.017-353.294-314.344-526.589C4162.696,3564.489,4172.763,3197.817,4251.06,3143.8z"/>
				
					<linearGradient id="SVGID_29_" gradientUnits="userSpaceOnUse" x1="2653.4111" y1="3584.6157" x2="4934.0952" y2="3798.687" gradientTransform="matrix(0.9995 0.031 -0.031 0.9995 198.9639 -150.7754)">
					<stop  offset="0" style="stop-color:#DFA182"/>
					<stop  offset="1" style="stop-color:#F3B190"/>
				</linearGradient>
				<path fill="url(#SVGID_29_)" d="M4366.365,4230.267c-220.234-178.878-502.138-795.113-317.726-1020.545
					c33.225-31.222,93.811-77.728,162.954-97.092c314.743-14.376,956.807,206.438,1234.798,269.551
					c57.784,216.834,100.313,602.295,67.475,983.438C5223.139,4410.442,4586.585,4409.143,4366.365,4230.267z"/>
				<linearGradient id="SVGID_30_" gradientUnits="userSpaceOnUse" x1="3973.249" y1="3711.4814" x2="5546.3281" y2="3761.7625">
					<stop  offset="0" style="stop-color:#F8BD9C"/>
					<stop  offset="1" style="stop-color:#FFD1AF"/>
				</linearGradient>
				<path fill="url(#SVGID_30_)" d="M5512.744,4364.447c56.085-268.38-8.568-765.433-66.353-982.267
					c-277.991-63.112-920.055-283.927-1234.798-269.551c-69.144,19.364-129.729,65.87-162.954,97.092
					c-77.968,95.325-96.842,299.679-4.155,497.163c88.436,189.884,192.578,318.034,330.457,440.601
					c110.149,85.958,287.479,158.519,517.188,186.723C5162.914,4356.555,5454.362,4372.533,5512.744,4364.447z"/>
				<path fill="#944D09" d="M4619.048,4096.02c-53.575-9.931-102.769,13.107-109.868,51.448
					c-7.091,38.359,30.593,77.472,84.169,87.387c53.59,9.913,102.77-13.123,109.868-51.467
					C4710.308,4145.031,4672.632,4105.902,4619.048,4096.02z"/>
				<path fill="#944D09" d="M6342.106,4242.747c-6.753-34.62-46.797-55.925-89.536-47.582
					c-42.673,8.343-71.805,43.154-65.086,77.758c6.771,34.638,46.863,55.911,89.553,47.6
					C6319.743,4312.18,6348.894,4277.384,6342.106,4242.747z"/>
			</g>
			<g id="Forearm_right">
				<g>
					<path fill="#944D09" d="M3880.599,5257.083c-113.734,14.216-141.536-0.785-290.156,26.873
						c-346.58,64.459-697.371,138.625-926.904,13.427c-241.797-161.213-317.341-408.915-270.009-507.786
						c60.449-126.272,251.88-421.797,554.126-394.924c150.457,18.802,284.118,143.053,284.118,143.053
						s497.702,143.054,602.478,165.225C3842.313,4815.795,3896.723,5095.87,3880.599,5257.083z"/>
					<linearGradient id="SVGID_31_" gradientUnits="userSpaceOnUse" x1="2434.8135" y1="4876.0361" x2="3692.5381" y2="4876.0361">
						<stop  offset="0" style="stop-color:#DFA182"/>
						<stop  offset="1" style="stop-color:#F3B190"/>
					</linearGradient>
					<path fill="url(#SVGID_31_)" d="M3054.452,5319.538c-155.943,0-260.911-9.465-362.702-64.477
						c-151.941-101.936-236.288-245.405-251.873-332.47c-7.29-40.732-7.869-95.727,6.042-114.852
						c0,0,185.381-410.389,507.785-372.769c209.559,85.959,265.974,137.006,265.974,137.006s443.301,137.036,472.86,142.395
						c-21.497,64.493-64.484,459.434-73.885,522.562C3447.356,5269.822,3219.678,5308.79,3054.452,5319.538z"/>
					<linearGradient id="SVGID_32_" gradientUnits="userSpaceOnUse" x1="2447.3755" y1="4830.8091" x2="3692.5381" y2="4830.8091">
						<stop  offset="0" style="stop-color:#F8BD9C"/>
						<stop  offset="1" style="stop-color:#FFD1AF"/>
					</linearGradient>
					<path fill="url(#SVGID_32_)" d="M3650.891,5152.309c16.98-139.027,27.738-396.225,41.647-437.937
						c-29.56-5.358-472.86-142.395-472.86-142.395s-126.939-112.846-265.974-137.006
						c-322.404-37.62-499.726,362.694-499.726,362.694c-8.06,32.23-34.933,88.653,131.649,196.108
						C2783.097,5212.758,3075.95,5308.116,3650.891,5152.309z"/>
					<path fill="#944D09" d="M3449.395,4632.426c-88.661-21.481-319.718-87.305-499.726-116.854
						c161.199,0,253.893,28.876,275.392,29.55C3241.174,4558.55,3406.399,4613.624,3449.395,4632.426z"/>
				</g>
				<g>
					<g>
						<path fill="#944D09" d="M3449.395,4654.597c26.189-56.422,73.884-196.122,102.087-227.694
							c16.509-18.465,137.022-116.871,159.866-159.866c24.177-40.299,38.278-143.054,47.68-255.226
							c18.136-74.55,245.928-51.384,258.594,98.07c13.437,158.503-55.075,327.771-91.348,411.05
							C3881.947,4535.047,3481.633,4642.501,3449.395,4654.597z"/>
						<linearGradient id="SVGID_33_" gradientUnits="userSpaceOnUse" x1="3524.6191" y1="4298.5654" x2="3990.7578" y2="4298.5654">
							<stop  offset="0" style="stop-color:#DFA182"/>
							<stop  offset="1" style="stop-color:#F3B190"/>
						</linearGradient>
						<path fill="url(#SVGID_33_)" d="M3524.619,4584.073c17.357-46.781,38.863-107.68,57.096-132.995
							c9.265-12.865,64.766-56.31,92.688-84.626c30.248-30.689,54.938-49.94,62.895-61.171
							c33.827-47.646,59.351-172.571,62.029-277.348c28.212-32.245,159.192-14.116,177.322,74.551
							c16.5,80.665-29.552,251.198-64.477,334.492c0,0,74.454-0.112,78.586,18.146
							C3980.683,4457.928,3634.672,4555.549,3524.619,4584.073z"/>
						<linearGradient id="SVGID_34_" gradientUnits="userSpaceOnUse" x1="3658.9521" y1="4281.4727" x2="3990.7578" y2="4281.4727">
							<stop  offset="0" style="stop-color:#F8BD9C"/>
							<stop  offset="1" style="stop-color:#FFD1AF"/>
						</linearGradient>
						<path fill="url(#SVGID_34_)" d="M3808.063,4056.138c4.026,50.375-8.063,179.342-24.185,265.989
							c-54.402,58.428-99.498,109.894-124.926,227.68c138.449-38.247,324.891-92.76,331.806-94.685
							c-4.132-18.258-78.586-18.146-78.586-18.146c34.925-83.294,80.977-253.827,64.477-334.492
							c-12.305-60.176-76.565-87.786-125.424-89.277C3832.239,4011.811,3808.063,4031.962,3808.063,4056.138z"/>
					</g>
					<g>
						<path fill="#944D09" d="M3411.106,4596.169c72.539-20.149,167.247-50.374,167.247-50.374s34.251-48.367,90.675-96.738
							c58.339-50.005,106.395-75.754,134.999-85.283c143.735,6.706,222.986-4.042,378.817,22.829
							c73.829,186.496,118.444,430.94,80.608,717.337c-9.409,71.199-42.986,147.771-60.458,175.973
							c-77.911,56.423-251.871,76.588-334.483,72.546c-106.797-10.074-263.295-48.354-310.309-67.171
							C3574.318,5239.614,3610.591,4857.442,3411.106,4596.169z"/>
						<linearGradient id="SVGID_35_" gradientUnits="userSpaceOnUse" x1="4340.8608" y1="4658.2056" x2="3486.6143" y2="5073.0073">
							<stop  offset="0" style="stop-color:#DFA182"/>
							<stop  offset="1" style="stop-color:#F3B190"/>
						</linearGradient>
						<path fill="url(#SVGID_35_)" d="M3902.097,5313.505c-160.315,0-311.654-59.1-384.2-80.599
							c-76.564-76.588-161.198-382.859-77.912-593.758c80.6-69.866,321.192-229.412,360.016-231.048
							c146.118,4.973,270.072,5.343,411.058,29.551c34.267,209.213,17.47,709.267-40.301,819.432
							C4143.894,5274.554,4020.309,5302.758,3902.097,5313.505z"/>
						<linearGradient id="SVGID_36_" gradientUnits="userSpaceOnUse" x1="3802.9409" y1="4836.9063" x2="4237.7651" y2="4836.9063">
							<stop  offset="0" style="stop-color:#F8BD9C"/>
							<stop  offset="1" style="stop-color:#FFD1AF"/>
						</linearGradient>
						<path fill="url(#SVGID_36_)" d="M4211.058,4437.651c-140.985-24.208-258.892-54.145-405.009-59.118
							c-0.722,0.032-1.604,0.192-2.431,0.32c-12.498,236.15,152.879,558.514,90.417,739.861c13.436,90,13.436,141.049,2.688,175.989
							c40.299,4.01,224.334-13.443,278.068-36.289c14.776-29.551,37.612-87.305,45.676-135.673
							C4245.894,4970.159,4243.728,4637.11,4211.058,4437.651z"/>
						<path fill="#944D09" d="M3882.612,4644.523c23.512,8.053,310.981-37.62,356.656-36.272
							c24.185,6.047,65.148,31.555,81.946,38.951c21.498,48.369,25.523,155.165,2.687,229.043
							c-8.062,12.096-18.137,22.17-18.137,22.17s14.103,12.097,14.103,26.182c3.352,68.519-13.436,176.663-44.327,192.771
							c-108.81,33.593-276.722,45.689-330.465,40.299C3928.96,5117.368,3888.661,4708.998,3882.612,4644.523z"/>
						<linearGradient id="SVGID_37_" gradientUnits="userSpaceOnUse" x1="3815.3188" y1="4901.293" x2="4293.5439" y2="4901.293">
							<stop  offset="0" style="stop-color:#F8BD9C"/>
							<stop  offset="1" style="stop-color:#FFD1AF"/>
						</linearGradient>
						<path fill="url(#SVGID_37_)" d="M3899.401,5152.309c-42.979-69.866-42.979-174.643-40.965-225.69
							c-28.211-68.502-55.748-171.946-36.938-255.224c32.238,0,63.129,11.406,63.129,11.406s184.38-32.246,267.328-32.904
							c24.85,9.738,102.763,21.835,120.898,26.872c28.211,45.336,24.184,123.577,8.062,190.749
							c-10.741,17.453-64.476,29.551-64.476,29.551s26.863,8.054,53.734,10.75c13.436,48.351,8.054,145.088-24.184,185.388
							C4165.391,5128.117,3947.763,5156.318,3899.401,5152.309z"/>
						<path fill="#944D09" d="M3937.695,4912.517c-9.409,2.006,2.005,8.069,12.762,10.733
							c110.142,12.096,268.661-2.664,330.458-17.454c4.701-10.061,12.088-25.508,15.449-36.257
							C4236.59,4892.367,4051.206,4913.176,3937.695,4912.517z"/>
						<path fill="#944D09" d="M3902.097,4678.116c-6.722-1.348-29.559-13.444-34.933-13.444c3.689,15.449-2.014,39.29,4.026,68.505
							C3881.947,4706.319,3898.063,4686.17,3902.097,4678.116z"/>
						<path fill="#944D09" d="M3791.939,4367.8c72.537-17.47,292.845-21.497,360.016-16.121
							c39.288,8.053,108.473,26.854,133.661,42.994c29.566,42.641,40.964,205.507,8.727,278.053
							c-39.963,16.46-124.251,34.925-150.449,34.925c-26.19,0-233.735-12.753-276.056-18.128
							C3832.921,4655.945,3746.938,4519.598,3791.939,4367.8z"/>
						<linearGradient id="SVGID_38_" gradientUnits="userSpaceOnUse" x1="4104.5195" y1="4536.8164" x2="3521.332" y2="4534.0806">
							<stop  offset="0" style="stop-color:#F8BD9C"/>
							<stop  offset="1" style="stop-color:#FFD1AF"/>
						</linearGradient>
						<path fill="url(#SVGID_38_)" d="M4156.655,4672.726c0,0-275.382,8.054-332.478,4.043
							c-15.45-55.75-57.763-192.096-5.375-268.668c84.633-12.099,293.519-17.472,323.743-10.412
							c22.172,7.059,87.657,31.219,107.808,45.337c18.136,51.369,2.014,177.305-15.112,208.557
							C4214.08,4659.635,4156.655,4672.726,4156.655,4672.726z"/>
						<linearGradient id="SVGID_39_" gradientUnits="userSpaceOnUse" x1="4552.6284" y1="4597.103" x2="4114.5718" y2="4528.6587">
							<stop  offset="0" style="stop-color:#F8BD9C"/>
							<stop  offset="1" style="stop-color:#FFD1AF"/>
						</linearGradient>
						<path fill="url(#SVGID_39_)" d="M4251.356,4433.625c-20.149-14.119-73.548-30.899-110.824-36.948
							c57.089,54.401,40.974,234.401,16.797,274.7c34.259-2.003,73.878-10.747,98.062-18.801
							C4275.54,4593.475,4277.298,4480.63,4251.356,4433.625z"/>
					</g>
				</g>
			</g>
			<g id="Right_leg">
				<g>
					<path fill="#944D09" d="M4108.295,11247.668c40.3,185.389,139.411,364.505,135.008,405.013
						c-1.131,40.911-87.328,186.723-111.506,245.823C4129.11,11764.179,4100.233,11341.69,4108.295,11247.668z"/>
					
						<linearGradient id="SVGID_40_" gradientUnits="userSpaceOnUse" x1="5847.7021" y1="11596.291" x2="5586.3921" y2="11598.3818" gradientTransform="matrix(-1 0 0 1 9724 0)">
						<stop  offset="0" style="stop-color:#F8BD9C"/>
						<stop  offset="1" style="stop-color:#FFD1AF"/>
					</linearGradient>
					<path fill="url(#SVGID_40_)" d="M4137.171,11801.798c10.757-34.939,59.479-135.736,61.798-153.145
						c1.652-15.256-60.449-157.17-86.647-253.894c-7.637,37.751-14.11,184.026-18.152,228.036
						C4100.898,11647.26,4118.369,11752.403,4137.171,11801.798z"/>
				</g>
				<g>
					<path fill="#944D09" d="M3923.595,9099.008c-21.489,69.851-193.444,628.685-209.559,682.409
						c85.98,37.623,471.504,137.024,612.553,64.494c56.422-145.092,206.872-572.26,268.668-677.035
						C4503.909,9125.88,3993.452,9104.366,3923.595,9099.008z"/>
					<linearGradient id="SVGID_41_" gradientUnits="userSpaceOnUse" x1="4094.6792" y1="9527.3594" x2="3486.8542" y2="9428.7939">
						<stop  offset="0" style="stop-color:#DFA182"/>
						<stop  offset="1" style="stop-color:#F3B190"/>
					</linearGradient>
					<path fill="url(#SVGID_41_)" d="M3982.472,9151.066c-8.616-0.515-16.613-0.963-23.872-1.397
						c-35.383,115.014-142.78,492.948-182.783,623.699c18.786,86.805,118.74,112.476,237.962,120.414
						c70.79-244.651,144.859-487.986,234.971-724.906C4142.698,9160.339,4037.737,9154.261,3982.472,9151.066z"/>
					<linearGradient id="SVGID_42_" gradientUnits="userSpaceOnUse" x1="4005.7979" y1="9425.5029" x2="4472.6519" y2="9644.8691">
						<stop  offset="0" style="stop-color:#F8BD9C"/>
						<stop  offset="1" style="stop-color:#FFD1AF"/>
					</linearGradient>
					<path fill="url(#SVGID_42_)" d="M4248.749,9168.876c-90.111,236.92-164.181,480.255-234.971,724.906
						c96.802,6.447,205.1-13.907,289.974-62.66c35.703-197.65,151.717-480.998,210.77-631.109
						C4453.8,9187.58,4350.78,9177.087,4248.749,9168.876z"/>
				</g>
				<g>
					<path fill="#944D09" d="M4060.599,11463.246c32.247-604.489,298.228-910.765,362.704-1176.753
						c66.785-275.503-44.999-515.82-53.062-596.421c-18.803-1.332-288.145-126.29-301.58-128.969
						c-10.074,38.276-354.625,1805.437-362.688,1886.04C3762.388,11447.144,3988.07,11455.195,4060.599,11463.246z"/>
					
						<linearGradient id="SVGID_43_" gradientUnits="userSpaceOnUse" x1="3741.9814" y1="10485.4883" x2="4354.5332" y2="10558.0273">
						<stop  offset="0" style="stop-color:#F8BD9C"/>
						<stop  offset="1" style="stop-color:#FFD1AF"/>
					</linearGradient>
					<path fill="url(#SVGID_43_)" d="M4015.52,11410.946c-72.818-4.971-182.222-9.285-253.155-11.163
						c48.906-280.878,294.755-1532.518,344.406-1782.978c58.363,10.089,186.826,32.419,241.308,41.021
						c-6.04,16.123-10.075,36.27-15.729,54.866c34.563,135.577,92.422,362.487,43.956,562.411
						c-20.037,82.652-61.804,171.898-110.157,275.231C4167.099,10761.954,4044.813,11023.241,4015.52,11410.946z"/>
				</g>
				<g>
					<path fill="#944D09" d="M3852.388,9448.274c-689.125,749.583-145.074,1626.786-264.634,2336.055
						c137.021,0,556.813,11.423,605.166,19.477c-94.7-469.509-38.277-1509.242-14.1-1737.609
						C4133.145,9980.236,3773.129,9657.827,3852.388,9448.274z"/>
					
						<linearGradient id="SVGID_44_" gradientUnits="userSpaceOnUse" x1="4031.9614" y1="10675.4219" x2="3347.4836" y2="10648.0537">
						<stop  offset="0" style="stop-color:#DFA182"/>
						<stop  offset="1" style="stop-color:#F3B190"/>
					</linearGradient>
					<path fill="url(#SVGID_44_)" d="M3617.313,11832.696c47.014-252.543,21.578-604.586-13.74-871.844
						c-65.206-493.299-132.585-1003.156,292.058-1488.993c44.808,14.519,319.765,183.881,363.787,198.063
						c-201.49,781.826-202.517,1565.584-123.585,2096.936c-3.354-0.019-23.158,61.814-26.872,61.814
						c-72.554,0-174.779,10.667-284.783,13.425C3757.229,11843.78,3651.726,11885.684,3617.313,11832.696z"/>
					<linearGradient id="SVGID_45_" gradientUnits="userSpaceOnUse" x1="3536.084" y1="10675.8887" x2="4241.1211" y2="10793.1152">
						<stop  offset="0" style="stop-color:#F8BD9C"/>
						<stop  offset="1" style="stop-color:#FFD1AF"/>
					</linearGradient>
					<path fill="url(#SVGID_45_)" d="M4259.418,9669.923c-32.615-10.51-167.351-27.146-265.981-81.931
						c-288.811,623.308-334.484,1589.149-249.859,2286.337c103.589-3.322,296.535-45.656,365.384-45.656
						c3.714,0,23.518-61.833,26.872-61.814C4056.901,11235.507,4057.928,10451.749,4259.418,9669.923z"/>
				</g>
				<g>
					<path fill="#944D09" d="M3634.768,11304.748c-61.748,105.847-125.303,271.216-120.898,319.729
						c1.123,48.963,81.947,252.547,98.069,284.791C3629.401,11782.997,3672.388,11461.918,3634.768,11304.748z"/>
					
						<linearGradient id="SVGID_46_" gradientUnits="userSpaceOnUse" x1="3657.1338" y1="11592.6279" x2="3402.0728" y2="11594.6689">
						<stop  offset="0" style="stop-color:#F8BD9C"/>
						<stop  offset="1" style="stop-color:#FFD1AF"/>
					</linearGradient>
					<path fill="url(#SVGID_46_)" d="M3605.217,11766.858c-21.088-67.731-33.986-130.093-36.305-150.916
						c-1.652-18.271,28.444-111.496,72.57-197.004c7.645,45.176,25.516,101.805,29.559,154.479
						C3664.311,11602.71,3624.02,11707.741,3605.217,11766.858z"/>
				</g>
				<g>
					<path fill="#944D09" d="M4315.84,6235.035c-333.152,822.13-476.88,2447.536-455.39,3124.589
						c15.048-8.471,68.51-64.491,68.51-64.491s226.356,375.623,475.541,270.015c488.976-505.09,1163.334-2405.886,1281.536-2825.021
						C5202.443,6503.702,4530.773,6331.74,4315.84,6235.035z"/>
					<linearGradient id="SVGID_47_" gradientUnits="userSpaceOnUse" x1="4301.9429" y1="7934.4346" x2="3368.5308" y2="7962.2144">
						<stop  offset="0" style="stop-color:#DFA182"/>
						<stop  offset="1" style="stop-color:#F3B190"/>
					</linearGradient>
					<path fill="url(#SVGID_47_)" d="M3907.463,9362.302c-10.074-507.768,127.588-2257.845,435.24-3063.448
						c80.054,32.053,191.053,69.321,325.308,114.401c268.789,90.241,646.284,210.721,941.455,351.048
						c-141.162,486.899-766.091,2257.878-1229.15,2756.516C4207.03,9669.923,3931.647,9442.899,3907.463,9362.302z"/>
					<linearGradient id="SVGID_48_" gradientUnits="userSpaceOnUse" x1="4185.209" y1="7977.7539" x2="4999.8735" y2="8169.4395">
						<stop  offset="0" style="stop-color:#F8BD9C"/>
						<stop  offset="1" style="stop-color:#FFD1AF"/>
					</linearGradient>
					<path fill="url(#SVGID_48_)" d="M4517.434,6472.621c-131.407,594.135-490.066,2357.444-476.39,2976.167
						c97.18,103.588,214.459,179.424,339.271,72.03c463.06-498.638,1087.988-2269.616,1229.15-2756.516
						C5337.076,6634.805,4779.926,6560.157,4517.434,6472.621z"/>
				</g>
				<g>
					<path fill="#944D09" d="M4361.386,9530.929c-16.124,53.727-68.358,200.421-117.729,282.016
						c-116.864,59.452-281.103,11.452-318.73-26.15c38.969-146.42,71.206-382.844,76.572-415.092
						c10.074-6.051,207.545-30.224,249.858-30.224C4291.655,9375.731,4357.359,9509.767,4361.386,9530.929z"/>
					<linearGradient id="SVGID_49_" gradientUnits="userSpaceOnUse" x1="4189.1016" y1="9557.3574" x2="3636.0322" y2="9705.2061">
						<stop  offset="0" style="stop-color:#DFA182"/>
						<stop  offset="1" style="stop-color:#F3B190"/>
					</linearGradient>
					<path fill="url(#SVGID_49_)" d="M3908.811,9802.917c-28.212-104.775,25.451-354.129,64.476-423.143
						c32.246-16.125,187.396-68.521,278.07-48.369c37.283,46.348,61.459,131.984,71.534,188.406
						c-23.175,60.445-79.588,223.668-126.946,273.03C4065.981,9847.244,3949.11,9835.147,3908.811,9802.917z"/>
					<linearGradient id="SVGID_50_" gradientUnits="userSpaceOnUse" x1="3869.061" y1="9529.8867" x2="4390.4102" y2="9564.1855">
						<stop  offset="0" style="stop-color:#F8BD9C"/>
						<stop  offset="1" style="stop-color:#FFD1AF"/>
					</linearGradient>
					<path fill="url(#SVGID_50_)" d="M4251.356,9311.253c-56.342-12.51-136.284,6.787-197.471,24.179
						c-45.698,84.605-94.981,302.274-90.875,421.377c18.811,34.925,174.891,42.69,245.424,20.535
						c44.397-61.603,93.288-202.313,114.456-257.532C4312.815,9463.39,4288.64,9357.603,4251.356,9311.253z"/>
				</g>
				<g>
					<path fill="#944D09" d="M3576.333,11753.431c-17.455,271.348-53.055,455.391-70.524,628.684
						c247.179,99.402,929.582-60.432,987.353-69.851c-128.96-145.075-165.233-248.519-217.621-353.29
						c-59.101-96.727-90.008-160.528-110.157-259.271C4088.811,11842.771,3701.939,12016.739,3576.333,11753.431z"/>
					
						<linearGradient id="SVGID_51_" gradientUnits="userSpaceOnUse" x1="4131.1826" y1="12011.5996" x2="3465.8545" y2="12175.8779">
						<stop  offset="0" style="stop-color:#DFA182"/>
						<stop  offset="1" style="stop-color:#F3B190"/>
					</linearGradient>
					<path fill="url(#SVGID_51_)" d="M3565.287,12406.483c1.9-144.77,31.877-388.396,58.741-592.59
						c104.774-120.896,365.381-137.036,510.464-72.56c13.621,81.771,40.299,149.115,90,237.786
						c18.915,33.737,95.158,202.507,204.185,333.144C4208.827,12369.026,3689.843,12451.979,3565.287,12406.483z"/>
					<linearGradient id="SVGID_52_" gradientUnits="userSpaceOnUse" x1="4041.5947" y1="12902.0596" x2="3945.844" y2="11475.8574">
						<stop  offset="0" style="stop-color:#F8BD9C"/>
						<stop  offset="1" style="stop-color:#FFD1AF"/>
					</linearGradient>
					<path fill="url(#SVGID_52_)" d="M4224.492,11979.12c-49.701-88.671-83.068-187.622-96.689-269.375
						c-114.024-14.793-313.123,19.877-404.479,76.301c-120.897,274.025-225.593,502.488-81.834,630.993
						c209.567-10.155,628.588-63.835,787.188-104.775C4319.65,12181.627,4243.407,12012.857,4224.492,11979.12z"/>
					<path fill="#944D09" d="M4352.113,12116.123c30.858,81.933,193.436,193.444,197.462,233.746
						c-20.15,72.547-51.665,101.598-120.137,131.083c-70.676,20.407-208.363,20.407-276.834,0
						c-26.494-40.812-39.4-155.579-57.072-200.938C4152.965,12284.575,4362.82,12266.556,4352.113,12116.123z"/>
					<linearGradient id="SVGID_53_" gradientUnits="userSpaceOnUse" x1="4108.1006" y1="12028.5244" x2="4410.207" y2="12509.2959">
						<stop  offset="0" style="stop-color:#DFA182"/>
						<stop  offset="1" style="stop-color:#F3B190"/>
					</linearGradient>
					<path fill="url(#SVGID_53_)" d="M4165.125,12435.584c-17.277-35.966-51.752-144.017-56.157-156.914
						c72.546-26.198,160.525-96.722,220.974-104.101c44.174,84.643,169.691,152.857,172.284,165.224
						c-10.076,51.386-36.321,75.707-87.514,98.824C4363.904,12456.762,4203.685,12460.21,4165.125,12435.584z"/>
					<linearGradient id="SVGID_54_" gradientUnits="userSpaceOnUse" x1="4103.8691" y1="11939.7119" x2="4399.002" y2="12409.3848">
						<stop  offset="0" style="stop-color:#F8BD9C"/>
						<stop  offset="1" style="stop-color:#FFD1AF"/>
					</linearGradient>
					<path fill="url(#SVGID_54_)" d="M4451.851,12363.971c21.16-6.035,51.481-17.873,51.386-22.153
						c-2.592-12.387-135.161-94.688-179.335-179.344c-48.586,5.938-147.097,28.217-185.382,65.166
						C4217.105,12371.028,4371.252,12389.155,4451.851,12363.971z"/>
					<path fill="#944D09" d="M4196.05,12502.099c-264.313,22.668-612.401,18.723-672.771-44.76
						c-25.523-21.48-47.59-82.349-33.585-111.497c16.115-33.578,37.612-72.53,45.674-120.883
						c77.911,34.925,479.559,77.888,619.275,26.854c9.393,26.856,17.462,47.008,48.353,76.574
						c34.933,25.522,71.639,42.528,81.947,61.78C4284.942,12432.503,4239.123,12490.771,4196.05,12502.099z"/>
					
						<linearGradient id="SVGID_55_" gradientUnits="userSpaceOnUse" x1="3821.0708" y1="11997.6533" x2="3909.4561" y2="12512.2021">
						<stop  offset="0" style="stop-color:#DFA182"/>
						<stop  offset="1" style="stop-color:#F3B190"/>
					</linearGradient>
					<path fill="url(#SVGID_55_)" d="M3967.087,12471.856c-210.049,0-358.975-20.979-399.481-41.391
						c-25.188-21.576-29.559-65.807-25.524-84.624c13.436-20.153,21.497-37.605,32.237-112.846
						c108.811-18.128,356.655-38.278,550.1-12.08c9.568,60.836,43.661,115.524,43.661,115.524
						c14.405,21.979,42.392,33.127,64.475,52.396c5.374,36.271-29.543,64.475-56.421,73.878
						C4109.867,12469.803,4045.72,12471.856,3967.087,12471.856z"/>
					<linearGradient id="SVGID_56_" gradientUnits="userSpaceOnUse" x1="3795.2139" y1="11849.2734" x2="3901.208" y2="12466.335">
						<stop  offset="0" style="stop-color:#F8BD9C"/>
						<stop  offset="1" style="stop-color:#FFD1AF"/>
					</linearGradient>
					<path fill="url(#SVGID_56_)" d="M4231.207,12404.269c16.122-24.176-42.37-36.176-63.128-67.828
						c0,0-28.052-54.688-37.622-115.524c-193.436-26.198-447.328-14.118-556.139,4.026c-10.74,75.226-18.802,100.746-32.237,120.899
						c-0.617,2.87,0.168,34.396,0,38.276c14.783-26.183,83.294,38.298,128.96,8.744c42.995,36.275,124.924,30.883,200.077,10.847
						c67.252,26.774,147.843,37.796,198.891,1.251C4117.021,12420.005,4188.228,12431.831,4231.207,12404.269z"/>
					<path fill="#944D09" d="M4017.469,12474.587c0,0,12.521-5.184,14.895-7.783c4.789-5.199,8.929-12.61,12.033-20.583
						c3.136-7.989,5.391-16.667,6.577-25.3c1.236-8.323,1.212-18.109-0.33-22.844l0.458,1.009
						c-4.5-9.833-10.909-18.929-18.489-28.267c-7.491-9.368-34.828-49.299-39.216-59.599c-4.356-10.411-7.652-20.628-9.938-32.101
						l17.286-3.577c2.479,9,6.28,18.658,10.7,27.304c4.46,8.742,9.794,16.894,16.01,23.822c0,0,15.209,18.678,23.856,27.948
						c8.631,9.226,17.463,19.797,24.177,32.019l0.249,0.486l0.208,0.525c5.366,14.037,4.758,24.756,4.372,36.098
						c-0.738,11.152-2.729,22.01-6.073,32.807c-3.4,10.768-8.036,21.564-15.922,31.718c-3.954,5.054-8.815,9.946-14.952,13.94
						c-3.056,1.99-20.214,7.734-20.214,7.734L4017.469,12474.587z"/>
					<path fill="#944D09" d="M3839.386,12473.253c0,0,6.682-4.478,8.293-7.556c3.313-6.163,5.777-14.292,7.405-22.606
						c1.619-8.371,2.486-17.129,2.614-25.78c0.016-8.405-0.361-17.711-2.654-23.71c-5.512-15.371-16.123-34.121-21.217-53.726
						c-5.584-19.653-7.348-40.058-6.626-59.86h18.137c0.753,18.357,3.785,36.292,9.971,52.977
						c5.887,17.164,15.785,31.14,24.921,50.981c5.015,11.777,5.673,21.95,6.627,32.489c0.657,10.41,0.457,20.791-0.738,31.316
						c-1.284,10.508-3.305,21.145-8.077,32.309c-2.439,5.553-24.955,26.55-27.979,27.369c-1.587,0.466-4.82,1.123-4.82,1.123
						L3839.386,12473.253z"/>
					<path fill="#944D09" d="M3685.64,12484.644c-9.851-16.299-18.08-34.025-22.854-53.31c-4.756-19.077-5.678-40.944,2.215-60.934
						c1.9-4.954,8.35-15.752,8.35-15.752l0.057-0.095l0.104-0.179l4.572-8.277c3.569-7.201,6.513-14.935,8.911-22.94
						c4.781-15.948,7.773-33.257,8.904-49.861h17.454c0.345,18.805-1.22,36.816-4.98,55.252c-1.902,9.161-4.469,18.306-8.007,27.336
						c-0.866,2.215-9.28,19.895-10.242,23.326c-4.02,13.619-2.375,28.844,2.679,43.559c5.062,14.787,13.083,29.004,22.749,42.19
						L3685.64,12484.644z"/>
				</g>
			</g>
			<g id="Underwear">
				<path fill="#999999" d="M6427.55,7701.957c45.177-563.891,9.385-1363.51-34.747-1671.114
					c-112.829,68.504-456.915,286.123-1330.058,155.823c10.683,106.99,116.389,970.477,155.807,1660.363
					C5614.921,7856.432,6043.472,7795.261,6427.55,7701.957z"/>
				<path fill="#FFFFFF" d="M5299.646,7799.605c-11.791,0-23.551-0.044-35.308-0.157c-23.2-428.618-31.189-906.628-36.548-1226.617
					c-2.262-135.336-3.994-238.747-6.193-302.919c163.363,22.557,354.9,11.919,515.487,5.406
					c298.219-12.079,494.52-107.471,623.486-155.822c40.846,331.94,58.51,1043.887,21.467,1543.636
					c-377.968,89.325-751.509,136.474-1082.359,136.474C5299.646,7799.605,5299.664,7799.605,5299.646,7799.605z"/>
				<path fill="#999999" d="M4329.452,5978.447c-11.254,70.846-56.952,270.61-61.973,331.796
					c-88.659,292.848-208.861,801.304-274.043,1270.123c161.206,118.894,898.692,304.268,1293.633,312.338
					c87.288-237.754,137.022-350.615,205.523-531.962c153.146-12.098,265.988-52.397,362.712-104.793
					c52.38-149.101,32.229-451.349,32.229-451.349s75.399-470.646,80.599-564.207
					C5262.893,6284.735,4430.21,6055.019,4329.452,5978.447z"/>
				<path fill="#E8EBED" d="M5246.771,7844.333c-373.975-16.185-1020.611-180.783-1201.164-287.533
					c65.333-455.194,180.93-944.437,268.155-1232.533l1.492-4.926l0.417-5.134c2.977-36.177,19.083-120.803,32.029-188.808
					c3.865-20.311,10.66-52.363,13.997-70.381c161.198,64.478,949.548,326.424,1590.328,209.567
					c-20.295,214.284-117.304,782.968-177.336,922.861c-100.301,71.662-322.396,132.993-322.396,132.993
					S5279.062,7757.672,5246.771,7844.333z"/>
				<path fill="#FFFFFF" d="M4579.134,6127.549c-85.973,419.132-231.056,1152.594-287.479,1523.343
					c274.043,96.722,718.452,183.192,955.116,193.441c32.29-86.661,205.522-523.893,205.522-523.893s241.798-24.176,358.669-100.748
					c60.031-139.909,139.588-759.626,159.864-973.908C5499.316,6334.436,4933.775,6240.394,4579.134,6127.549z"/>
				<path fill="#999999" d="M5590.439,6528.074c-447.417,0-1143.802-186.29-1293.097-268.172l15.506-28.268
					c157.628,86.438,934.739,290.856,1366.708,261.352c409.315-28.042,602.277-134.422,711.801-212.005l18.643,26.31
					c-112.7,79.83-310.813,189.274-728.229,217.861C5652.78,6527.143,5622.235,6528.074,5590.439,6528.074z"/>
			</g>
			<g id="Head_1_">
				<g id="right_ear">
					<path fill="#944D09" d="M4462.238,1748.417c28.548,148.443,103.259,258.869,166.853,246.642
						c63.626-12.24,92.069-142.493,63.538-290.92c-28.556-148.444-103.252-258.866-166.852-246.642
						C4462.158,1469.737,4433.707,1599.988,4462.238,1748.417z"/>
					<linearGradient id="SVGID_57_" gradientUnits="userSpaceOnUse" x1="4626.6768" y1="1728.3584" x2="4343.292" y2="1781.7498">
						<stop  offset="0" style="stop-color:#F8BD9C"/>
						<stop  offset="1" style="stop-color:#FFD1AF"/>
					</linearGradient>
					<path fill="url(#SVGID_57_)" d="M4634.449,1963.406c-35.285-0.017-101.269-81.081-128.582-213.128
						c-13.332-64.396-14.454-129.064-3.104-177.371c10.588-45.063,28.548-63.594,40.708-65.742c1.115-0.209,2.231-0.305,3.353-0.305
						c35.271,0,101.255,81.08,128.584,213.145c13.523,65.358,14.623,128.343,3.111,177.368
						c-10.595,45.049-28.563,63.578-40.724,65.76C4636.687,1963.326,4635.58,1963.406,4634.449,1963.406L4634.449,1963.406z"/>
					<linearGradient id="SVGID_58_" gradientUnits="userSpaceOnUse" x1="4506.4966" y1="1740.3789" x2="4799.6782" y2="1740.3789">
						<stop  offset="0" style="stop-color:#DFA182"/>
						<stop  offset="1" style="stop-color:#F3B190"/>
					</linearGradient>
					<path fill="url(#SVGID_58_)" d="M4543.078,1755.315c18.056,71.422,59.085,122.662,91.692,114.416
						c32.535-8.23,44.334-72.818,26.263-144.257c-18.049-71.454-59.095-122.694-91.686-114.448
						C4536.798,1619.24,4525.006,1683.844,4543.078,1755.315z"/>
				</g>
				<g id="left_ear">
					<path fill="#944D09" d="M6085.02,1751.127c-28.555,148.428-103.249,258.853-166.859,246.627
						c-63.61-12.225-92.069-142.477-63.529-290.921c28.557-148.426,103.266-258.865,166.859-246.641
						C6085.104,1472.433,6113.545,1602.684,6085.02,1751.127z"/>
					<linearGradient id="SVGID_59_" gradientUnits="userSpaceOnUse" x1="5863.5068" y1="1734.8682" x2="6049.6108" y2="1740.8167">
						<stop  offset="0" style="stop-color:#F8BD9C"/>
						<stop  offset="1" style="stop-color:#FFD1AF"/>
					</linearGradient>
					<path fill="url(#SVGID_59_)" d="M5912.803,1966.117c35.293-0.016,101.279-81.08,128.598-213.144
						c13.316-64.396,14.455-129.049,3.113-177.371c-10.604-45.046-28.573-63.577-40.717-65.743
						c-1.124-0.191-2.246-0.287-3.353-0.287c-35.279,0-101.246,81.08-128.585,213.128c-13.523,65.373-14.629,128.357-3.128,177.369
						c10.604,45.063,28.558,63.578,40.733,65.759C5910.556,1966.021,5911.694,1966.117,5912.803,1966.117L5912.803,1966.117z"/>
					<linearGradient id="SVGID_60_" gradientUnits="userSpaceOnUse" x1="5948.2266" y1="1730.5454" x2="6225.959" y2="1730.5454">
						<stop  offset="0" style="stop-color:#DFA182"/>
						<stop  offset="1" style="stop-color:#F3B190"/>
					</linearGradient>
					<path fill="url(#SVGID_60_)" d="M5895.698,1719.123c-13.715,71.454,1.928,134.501,34.958,140.823
						c32.952,6.32,70.845-46.478,84.514-117.947c13.733-71.455-1.939-134.534-34.958-140.854
						C5947.245,1594.822,5909.385,1647.636,5895.698,1719.123z"/>
				</g>
				<g id="Head">
					<path fill="#944D09" d="M6008.433,1330.662c0-416.295-324.755-753.753-725.392-753.753
						c-400.626,0-725.404,337.458-725.404,753.753c0,23.005,63.962,208.877,60.449,412.268
						c-2.014,116.855-5.374,280.078,8.062,360.676c45.313,117.577,381.856,585.27,423.151,612.56
						c118.877,78.593,375.209,101.549,521.89,0c83.276-110.15,329.773-497.694,353.965-583.667
						c40.302-241.655,18.452-571.943,24.176-658.238C5948.896,1474.261,6008.433,1372.246,6008.433,1330.662z"/>
					<linearGradient id="SVGID_61_" gradientUnits="userSpaceOnUse" x1="5076" y1="1686.082" x2="4265.5645" y2="1686.0819">
						<stop  offset="0" style="stop-color:#DFA182"/>
						<stop  offset="1" style="stop-color:#F3B190"/>
					</linearGradient>
					<path fill="url(#SVGID_61_)" d="M5327.481,2746.902c-97.604-0.016-195.016-24.882-254.856-64.99
						c-42.803-38.564-352.86-469.954-398.83-582.67c-16.172-70.877-27.24-194.473-38.239-326.761
						c-16.805-202.074-29.558-417.498-29.558-441.819c0-388.957,303.721-705.399,677.043-705.399
						c373.317,0,677.039,316.442,677.039,705.399c0,28.781-4.733,81.466-6.737,103.973c-0.481,5.472-0.948,10.541-1.075,15.354
						l-0.145-0.434c-4.99,74.873-33.882,429.643-74.438,673.671c-18.066,77.502-241.67,467.356-333.531,568.795
						c-53.614,35.421-130.299,54.882-216.656,54.882H5327.481z"/>
					<linearGradient id="SVGID_62_" gradientUnits="userSpaceOnUse" x1="4511.9785" y1="1802.3994" x2="5547.293" y2="1802.3994">
						<stop  offset="0" style="stop-color:#F8BD9C"/>
						<stop  offset="1" style="stop-color:#FFD1AF"/>
					</linearGradient>
					<path fill="url(#SVGID_62_)" d="M5319.3,979.229c-182.008,58.461-424.604-95.839-544.042,14.117
						c-55.525,52.525-96.723,249.852-32.238,447.337c-52.388,132.978,28.21,282.097,28.21,431.198
						c0,121.509-14.614,282.996,48.361,362.697c151.789,192.094,224.334,322.393,272.704,394.938
						c56.424,80.6,357.336,104.793,454.041,13.445c104.135-141.338,315.338-451.105,331.35-519.736
						c79.717-235.222,47.182-539.15,52.169-614.039c0,0,23.007-69.08,23.488-74.552c2.004-22.507,6.737-75.191,6.737-103.973
						C5960.08,941.705,5871.412,801.925,5319.3,979.229z"/>
					<linearGradient id="SVGID_63_" gradientUnits="userSpaceOnUse" x1="5805.5869" y1="1729.8545" x2="4807.3281" y2="1729.8544">
						<stop  offset="0" style="stop-color:#DFA182"/>
						<stop  offset="1" style="stop-color:#F3B190"/>
					</linearGradient>
					<path fill="url(#SVGID_63_)" d="M5805.587,1490.385c-116.855-104.792-274.715-104.118-375.465-75.914
						c-26.181,16.139-42.306,30.225-61.107,38.294c-35.613,12.769-106.122,12.079-118.22-36.273
						c-34.249-16.106-177.977-47.679-221.644-46.331c-76.573,10.075-118.887,24.159-151.124,40.299
						c-22.171,28.204-26.198,28.204-53.062,66.482c-24.184,38.277-21.496,104.791-4.035,188.069
						c34.26-4.028,212.247-126.273,349.267-61.781c0.913,15.466-188.067,123.577-188.067,123.577s138.367,20.15,201.497-5.375
						c0.622,57.096,9.306,132.483,5.374,174.643c-19.477,31.573-116.873,115.526-83.28,147.756
						c7.061,7.058,25.525,9.4,33.581,10.748c21.48-5.374,47.02-9.401,77.902-4.026c43.78,7.621,46.025,40.957,95.39,38.952
						c50.374-2.053,45.657-9.402,61.797-16.123c22.075-9.193,28.204-12.096,64.46-16.108c6.097,1.123,28.218,20.15,49.717-2.695
						c2.005-20.485-32.231-42.978-56.423-38.952c-45.706,7.62-95.375,22.845-116.872,23.503
						c-18.802,0.594-92.694-22.154-99.401-38.297c-5.374-28.203,33.578-163.876,34.924-191.421
						c1.156-23.695,5.891-181.291,7.268-199.421c3.017-56.438,133.51-47.062,135.531-2.736c1.7,37.652,6.305,106.445,6.305,106.445
						c149.117,50.374,295.667,17.969,384.866-55.413c-5.359-15.433-17.454-47.004-23.486-67.153
						C5780.063,1579.036,5797.551,1533.379,5805.587,1490.385z"/>
					<path fill="#944D09" d="M5154.075,2043.831c20.647-12.899,64.348-6.53,83.147,1.893c19.286,8.662,41.328,27.721,78.45,28.395
						c17.6,0.321,59.438-19.893,77.329-26.984c19.104-7.572,65.998-12.705,76.762,6.096c-27.047-12.16-59.229,2.471-75.673,10.075
						c-20.809,9.642-52.621,28.396-79.654,29.744c-36.624,1.828-66.366-20.502-86.677-31.092
						C5209.053,2052.238,5182.471,2039.531,5154.075,2043.831z"/>
					<path fill="#944D09" d="M5161.47,2057.274c-96.722,14.087-70.522-58.446,15.448-96.74
						C5123.192,2004.879,5100.011,2057.274,5161.47,2057.274z"/>
					<path fill="#944D09" d="M5466.397,2066.675c56.42-28.203,2.002-94.718-16.125-110.825
						C5490.572,1986.074,5557.037,2044.505,5466.397,2066.675z"/>
					<path d="M5993.223,917.288c-53.067-222.962-313.859-424.523-673.923-431.728c-402.995-8.053-601.677,165.899-714.232,374.231
						c-88.766,164.293-68.92,494.919-46.419,602.035c7.948,4.653,19.139,13.092,29.213,19.155l26.198,261.947l47.351,47.358
						l-24.177-297.224c3.024-35.263,24.513-61.798,25.187-169.268c-48.36-158.502,26.872-319.701,59.11-357.306
						c107.462-134.342,368.068,34.909,566.887,26.855c193.348-7.845,471.705-122.405,570.916-20.149
						c65.501,67.523,71.709,221.873,44.324,334.492c10.075,98.728,20.872,133.22,22.604,194.182
						c-5.39,66.449-14.534,230.982-22.604,286.733c15.111,0.657,53.391-31.573,53.391-31.573l28.091-289.7
						c12.898-6.787,18.514-8.102,30.319-7.589C6027.539,1401.989,6053.672,1171.181,5993.223,917.288z"/>
					<linearGradient id="SVGID_64_" gradientUnits="userSpaceOnUse" x1="5489.8955" y1="2457.083" x2="5154.0752" y2="2457.083">
						<stop  offset="0" style="stop-color:#DFA182"/>
						<stop  offset="1" style="stop-color:#F3B190"/>
					</linearGradient>
					<path fill="url(#SVGID_64_)" d="M5154.075,2428.019c80.613,36.275,243.817,44.344,335.82-2.677
						C5428.118,2492.512,5254.841,2524.742,5154.075,2428.019z"/>
				</g>
				<g id="right_eye">
					<path fill="#CAD6DD" d="M4843.896,1576.726c97.308-38.886,266.433-17.166,314.109,11.505
						c20.086,53.004,16.604,91.427,16.926,114.271c-39.803,22.717-266.815,63.787-348.28-23.373
						c-8.054-12.787-11.615-27.706-11.615-27.706S4837.695,1600.342,4843.896,1576.726z"/>
					<path fill="#FFFFFF" d="M4912.278,1597.839c-43.523,14.503-86.734,68.182-36.216,114.031
						c87.031,36.032,222.44,16.909,278.799-1.25C5147.304,1593.219,5016.187,1568.159,4912.278,1597.839z"/>
					<path fill="#321908" d="M4904.063,1643.786c0,49.379,40.02,89.406,89.406,89.406c49.379,0,89.407-40.027,89.407-89.406
						c0-49.38-40.028-89.423-89.407-89.423C4944.083,1554.363,4904.063,1594.406,4904.063,1643.786z"/>
					<linearGradient id="SVGID_65_" gradientUnits="userSpaceOnUse" x1="4993.4707" y1="1559.5586" x2="4993.4707" y2="1696.5839">
						<stop  offset="0" style="stop-color:#42210B"/>
						<stop  offset="1" style="stop-color:#94561D"/>
					</linearGradient>
					<path fill="url(#SVGID_65_)" d="M4910.77,1643.786c0,45.673,37.021,82.685,82.7,82.685c45.675,0,82.701-37.012,82.701-82.685
						c0-45.69-37.026-82.7-82.701-82.7C4947.79,1561.086,4910.77,1598.096,4910.77,1643.786z"/>
					<linearGradient id="SVGID_66_" gradientUnits="userSpaceOnUse" x1="4997.5479" y1="1568.8477" x2="4997.5479" y2="1702.4078">
						<stop  offset="0" style="stop-color:#42210B"/>
						<stop  offset="1" style="stop-color:#C46C1B"/>
					</linearGradient>
					<path fill="url(#SVGID_66_)" d="M5008.743,1627.133c-63.545-35.999-101.831,22.429-86.406,58.172
						c14.351,24.513,40.668,41.166,71.133,41.166c45.675,0,82.701-37.012,82.701-82.685c0-1.877-0.417-3.627-0.545-5.456
						C5071.456,1667.031,5015.721,1701.956,5008.743,1627.133z"/>
					<path fill="#211106" d="M4953.669,1643.786c0,21.963,17.822,39.785,39.801,39.785s39.786-17.822,39.786-39.785
						c0-21.979-17.808-39.786-39.786-39.786S4953.669,1621.808,4953.669,1643.786z"/>
					<path fill="#FFFFFF" d="M4887.836,1617.251c0,15.688,12.739,28.443,28.444,28.443c15.706,0,28.445-12.755,28.445-28.443
						c0-15.722-12.739-28.461-28.445-28.461C4900.575,1588.79,4887.836,1601.529,4887.836,1617.251z"/>
					<path d="M5177.225,1599.155c1.928-5.648,3.753-11.392,5.564-16.429c-9.095-3.224-25.571-7.894-46.49-12.577
						c-91.461-36.161-236.029-33.049-280.442-15.626c-8.631,12.289-41.303,63.466-45.338,98.727
						c3.313,20.376,20.15,31.236,44.334,49.38c-15.16-23.999-23.767-39.785-25.186-47.358c5.357-21.416,23.59-55.122,51.376-71.534
						c47.72-10.958,119.23-7.813,180.577,3.642c28.059,5.936,54.176,13.106,75.852,21.016c6.48,2.632,12.625,5.358,17.887,8.216
						c7.797,21.145,19.572,69.464,18.305,90.944C5187.396,1674.395,5184.281,1629.155,5177.225,1599.155z"/>
					<path d="M4745.032,1505.145c5.262-26.278,3.746-25.412,28.212-76.557c18.802-28.203,72.536-64.492,122.912-80.599
						c157.171,16.106,301.571,55.058,350.615,76.557c2.678,34.94,4.023,80.599,1.348,94.042
						c-45.676-18.818-175.301-66.481-353.978-73.893C4849.816,1452.765,4779.292,1462.839,4745.032,1505.145z"/>
				</g>
				<g id="left_eye">
					<path fill="#CAD6DD" d="M5760.46,1578.749c-97.282-38.888-266.407-17.183-314.101,11.485
						c-20.072,53.022-15.563,90.897-6.161,113.743c39.785,22.717,256.074,64.315,337.524-22.846
						c8.052-12.769,11.613-27.688,11.613-27.688S5766.669,1602.362,5760.46,1578.749z"/>
					<path fill="#FFFFFF" d="M5707.533,1615.311c-78.513-31.396-278.067-30.899-244.492,96.721
						c63.947,18.722,199.927,38.855,282.227-6.32C5759.626,1660.117,5758.871,1628.159,5707.533,1615.311z"/>
					<path fill="#321908" d="M5507.547,1643.786c0,49.379,40.023,89.406,89.422,89.406c49.363,0,89.373-40.027,89.373-89.406
						c0-49.38-40.01-89.423-89.373-89.423C5547.57,1554.363,5507.547,1594.406,5507.547,1643.786z"/>
					<linearGradient id="SVGID_67_" gradientUnits="userSpaceOnUse" x1="5594.9443" y1="1580.2295" x2="5598.9746" y2="1707.8566">
						<stop  offset="0" style="stop-color:#42210B"/>
						<stop  offset="1" style="stop-color:#94561D"/>
					</linearGradient>
					<path fill="url(#SVGID_67_)" d="M5514.252,1643.786c0,45.673,37.026,82.685,82.717,82.685
						c45.688,0,82.684-37.012,82.684-82.685c0-45.69-36.995-82.7-82.684-82.7
						C5551.278,1561.086,5514.252,1598.096,5514.252,1643.786z"/>
					<linearGradient id="SVGID_68_" gradientUnits="userSpaceOnUse" x1="5601.0303" y1="1580.2686" x2="5601.0303" y2="1713.8287">
						<stop  offset="0" style="stop-color:#42210B"/>
						<stop  offset="1" style="stop-color:#C46C1B"/>
					</linearGradient>
					<path fill="url(#SVGID_68_)" d="M5612.238,1627.133c-63.559-35.999-101.837,22.429-86.421,58.172
						c14.359,24.513,40.67,41.166,71.151,41.166c45.688,0,82.684-37.012,82.684-82.685c0-1.877-0.417-3.627-0.546-5.456
						C5674.951,1667.031,5619.203,1701.956,5612.238,1627.133z"/>
					<path fill="#211106" d="M5557.165,1643.786c0,21.963,17.825,39.785,39.804,39.785s39.786-17.822,39.786-39.785
						c0-21.979-17.808-39.786-39.786-39.786S5557.165,1621.808,5557.165,1643.786z"/>
					<path fill="#FFFFFF" d="M5496.396,1630.085c0,15.722,12.723,28.46,28.442,28.46c15.707,0,28.444-12.738,28.444-28.46
						c0-15.723-12.737-28.443-28.444-28.443C5509.118,1601.642,5496.396,1614.362,5496.396,1630.085z"/>
					<path d="M5751.523,1557.539c-46.444-9.514-198.882-19.204-301.202,22.14c-16.186,4.14-28.83,7.957-36.306,10.62
						c5.375,7.235,9.273,15.833,13.235,22.572c-3.913,31.268-2.163,72.498,14.294,95.117c-1.251-21.465-0.322-68.214,7.476-89.357
						c5.649-3.081,12.273-5.968,19.348-8.728c13.605-4.893,28.86-9.497,45.258-13.718c67.09-15.833,156.062-21.191,211.7-8.422
						c27.801,16.428,44.02,49.123,49.364,70.523c-1.414,7.589-9.002,20.344-24.177,44.343
						c20.148-12.095,34.123-27.945,41.631-45.016C5791.47,1646.208,5771.127,1585.358,5751.523,1557.539z"/>
					<path d="M5868.731,1526.641c-10.059-22.171-24.161-68.501-24.161-68.501c-18.816-28.22-84.671-60.45-130.315-81.947
						c-149.116,12.095-251.887,38.278-306.286,56.422c-16.125,36.271-18.145,68.518-9.401,95.374
						c45.657-18.802,138.368-47.006,306.271-75.224C5737.967,1458.78,5819.786,1499.112,5868.731,1526.641z"/>
				</g>
				<g id="mouth">
					<path fill="#B46639" d="M4906.904,2155.328c19.564,3,43.661,8.728,59.776,8.728c202.844,21.498,611.886,26.198,723.126,24.85
						c-16.331,6.723-24.497,14.776-39.479,18.802c-36.741,42.979-108.914,118.22-144.305,158.518
						c-65.344,51.047-305.104,65.149-394.94-10.075c-67.365-64.973-103.398-111.257-139.702-151.123
						C4946.883,2190.238,4927.053,2171.434,4906.904,2155.328z"/>
					<path fill="#B46639" d="M4972.687,2217.124c-25.522-10.074-74.638-56.117-69.416-69.849c3.056-8.07,61.253-11.423,77.591-5.391
						c-24.514,6.048-32.343,14.439-34.38,22.508C4944.437,2172.461,4962.477,2206.038,4972.687,2217.124z"/>
					<path fill="#B46639" d="M5611.855,2172.975c26.55-7.091,93.834,0.641,98.006,14.711c2.469,8.262-42.017,45.417-58.766,50.278
						c15.932-19.363,17.069-30.721,13.797-38.374C5661.638,2191.937,5626.773,2175.766,5611.855,2172.975z"/>
					<path fill="#ADBCC7" d="M5322.316,2373.029c-64.83,0-128.744-11.905-178.333-36.354
						c-64.876-47.389-127.153-114.899-155.165-143.742c116.374,24.176,594.642,18.625,633.591,20.149
						c-43.94,47.566-111.769,110.631-153.016,136.01C5424.731,2364.765,5373.973,2373.029,5322.316,2373.029z"/>
					<path fill="#FFFFFF" d="M5449.278,2304.109c29.807-7.027,70.026-17.615,103.428-35.727c6.64-12.69,12.176-25.091,12.433-41.856
						c-113.422-0.097-377.486,5.374-503.761-6.707c2.279,18.161,3.61,24.995,13.108,47.005
						c52.06,27.081,124.925,44.343,124.925,44.343s-57.882-1.685-103.732-13.829c15.643,13.733,31.748,27.241,48.305,39.337
						c49.589,24.449,113.503,36.354,178.333,36.354c51.656,0,102.415-8.263,147.077-23.937
						c19.382-11.919,44.649-32.278,70.543-55.331c0.336-0.803,0.722-1.525,1.072-2.327
						C5515.969,2299.841,5479.823,2304.109,5449.278,2304.109z"/>
				</g>
			</g>
		</g>
	</g>
</svg>
