<svg version="1.1" id="Hand_skin01" xmlns="http://www.w3.org/2000/svg" viewBox="0 0 9922 13000" enable-background="new 0 0 9922 13000" xml:space="preserve">
	<g>
		<g>
			<g>
				<path fill="#944D09" d="M3449.395,4654.597c26.189-56.422,73.884-196.122,102.087-227.694
					c16.509-18.465,137.022-116.871,159.866-159.866c24.177-40.299,38.278-143.054,47.68-255.226
					c18.136-74.55,245.928-51.384,258.594,98.07c13.437,158.503-55.075,327.771-91.348,411.05
					C3881.947,4535.047,3481.633,4642.501,3449.395,4654.597z"/>
				<linearGradient id="SVGID_1_" gradientUnits="userSpaceOnUse" x1="3524.6191" y1="4298.5654" x2="3990.7578" y2="4298.5654">
					<stop  offset="0" style="stop-color:#DFA182"/>
					<stop  offset="1" style="stop-color:#F3B190"/>
				</linearGradient>
				<path fill="url(#SVGID_1_)" d="M3524.619,4584.073c17.357-46.781,38.863-107.68,57.096-132.995
					c9.265-12.865,64.766-56.31,92.688-84.626c30.248-30.689,54.938-49.94,62.895-61.171
					c33.827-47.646,59.351-172.571,62.029-277.348c28.212-32.245,159.192-14.116,177.322,74.551
					c16.5,80.665-29.552,251.198-64.477,334.492c0,0,74.454-0.112,78.586,18.146
					C3980.683,4457.928,3634.672,4555.549,3524.619,4584.073z"/>
				<linearGradient id="SVGID_2_" gradientUnits="userSpaceOnUse" x1="3658.9521" y1="4281.4727" x2="3990.7578" y2="4281.4727">
					<stop  offset="0" style="stop-color:#F8BD9C"/>
					<stop  offset="1" style="stop-color:#FFD1AF"/>
				</linearGradient>
				<path fill="url(#SVGID_2_)" d="M3808.063,4056.138c4.026,50.375-8.063,179.342-24.185,265.989
					c-54.402,58.428-99.498,109.894-124.926,227.68c138.449-38.247,324.891-92.76,331.806-94.685
					c-4.132-18.258-78.586-18.146-78.586-18.146c34.925-83.294,80.977-253.827,64.477-334.492
					c-12.305-60.176-76.565-87.786-125.424-89.277C3832.239,4011.811,3808.063,4031.962,3808.063,4056.138z"/>
			</g>
			<g>
				<path fill="#944D09" d="M3462.666,4581.687c72.539-20.149,115.688-35.892,115.688-35.892s34.251-48.367,90.675-96.738
					c58.339-50.005,106.395-75.754,134.999-85.283c143.735,6.706,222.986-4.042,378.817,22.829
					c73.829,186.496,118.444,430.94,80.608,717.337c-9.409,71.199-42.986,147.771-60.458,175.973
					c-77.911,56.423-251.871,76.588-334.483,72.546c-106.797-10.074-263.295-48.354-310.309-67.171
					C3574.318,5239.614,3338.171,4824.674,3462.666,4581.687z"/>
				<linearGradient id="SVGID_3_" gradientUnits="userSpaceOnUse" x1="4341.1504" y1="4658.0649" x2="3473.448" y2="5079.4004">
					<stop  offset="0" style="stop-color:#DFA182"/>
					<stop  offset="1" style="stop-color:#F3B190"/>
				</linearGradient>
				<path fill="url(#SVGID_3_)" d="M3902.097,5313.505c-160.315,0-332.878-64.313-405.424-85.813
					c-76.564-76.588-139.975-377.646-56.688-588.544c80.6-69.866,321.192-229.412,360.016-231.048
					c146.118,4.973,270.072,5.343,411.058,29.551c34.267,209.213,17.47,709.267-40.301,819.432
					C4143.894,5274.554,4020.309,5302.758,3902.097,5313.505z"/>
				<linearGradient id="SVGID_4_" gradientUnits="userSpaceOnUse" x1="3802.9409" y1="4836.9063" x2="4237.7651" y2="4836.9063">
					<stop  offset="0" style="stop-color:#F8BD9C"/>
					<stop  offset="1" style="stop-color:#FFD1AF"/>
				</linearGradient>
				<path fill="url(#SVGID_4_)" d="M4211.058,4437.651c-140.985-24.208-258.892-54.145-405.009-59.118
					c-0.722,0.032-1.604,0.192-2.431,0.32c-12.498,236.15,152.879,558.514,90.417,739.861c13.436,90,13.436,141.049,2.688,175.989
					c40.299,4.01,224.334-13.443,278.068-36.289c14.776-29.551,37.612-87.305,45.676-135.673
					C4245.894,4970.159,4243.728,4637.11,4211.058,4437.651z"/>
				<path fill="#944D09" d="M3882.612,4644.523c23.512,8.053,310.981-37.62,356.656-36.272
					c24.185,6.047,65.148,31.555,81.946,38.951c21.498,48.369,25.523,155.165,2.687,229.043
					c-8.062,12.096-18.137,22.17-18.137,22.17s14.103,12.097,14.103,26.182c3.352,68.519-13.436,176.663-44.327,192.771
					c-108.81,33.593-276.722,45.689-330.465,40.299C3928.96,5117.368,3888.661,4708.998,3882.612,4644.523z"/>
				<linearGradient id="SVGID_5_" gradientUnits="userSpaceOnUse" x1="3815.3188" y1="4901.293" x2="4293.5439" y2="4901.293">
					<stop  offset="0" style="stop-color:#F8BD9C"/>
					<stop  offset="1" style="stop-color:#FFD1AF"/>
				</linearGradient>
				<path fill="url(#SVGID_5_)" d="M3899.401,5152.309c-42.979-69.866-42.979-174.643-40.965-225.69
					c-28.211-68.502-55.748-171.946-36.938-255.224c32.238,0,63.129,11.406,63.129,11.406s184.38-32.246,267.328-32.904
					c24.85,9.738,102.763,21.835,120.898,26.872c28.211,45.336,24.184,123.577,8.062,190.749
					c-10.741,17.453-64.476,29.551-64.476,29.551s26.863,8.054,53.734,10.75c13.436,48.351,8.054,145.088-24.184,185.388
					C4165.391,5128.117,3947.763,5156.318,3899.401,5152.309z"/>
				<path fill="#944D09" d="M3937.695,4912.517c-9.409,2.006,2.005,8.069,12.762,10.733
					c110.142,12.096,268.661-2.664,330.458-17.454c4.701-10.061,12.088-25.508,15.449-36.257
					C4236.59,4892.367,4051.206,4913.176,3937.695,4912.517z"/>
				<path fill="#944D09" d="M3902.097,4678.116c-6.722-1.348-29.559-13.444-34.933-13.444c3.689,15.449-2.014,39.29,4.026,68.505
					C3881.947,4706.319,3898.063,4686.17,3902.097,4678.116z"/>
				<path fill="#944D09" d="M3791.939,4367.8c72.537-17.47,292.845-21.497,360.016-16.121
					c39.288,8.053,108.473,26.854,133.661,42.994c29.566,42.641,40.964,205.507,8.727,278.053
					c-39.963,16.46-124.251,34.925-150.449,34.925c-26.19,0-233.735-12.753-276.056-18.128
					C3832.921,4655.945,3746.938,4519.598,3791.939,4367.8z"/>
				<linearGradient id="SVGID_6_" gradientUnits="userSpaceOnUse" x1="4104.5195" y1="4536.8164" x2="3521.332" y2="4534.0806">
					<stop  offset="0" style="stop-color:#F8BD9C"/>
					<stop  offset="1" style="stop-color:#FFD1AF"/>
				</linearGradient>
				<path fill="url(#SVGID_6_)" d="M4156.655,4672.726c0,0-275.382,8.054-332.478,4.043c-15.45-55.75-57.763-192.096-5.375-268.668
					c84.633-12.099,293.519-17.472,323.743-10.412c22.172,7.059,87.657,31.219,107.808,45.337
					c18.136,51.369,2.014,177.305-15.112,208.557C4214.08,4659.635,4156.655,4672.726,4156.655,4672.726z"/>
				<linearGradient id="SVGID_7_" gradientUnits="userSpaceOnUse" x1="4552.6284" y1="4597.103" x2="4114.5718" y2="4528.6587">
					<stop  offset="0" style="stop-color:#F8BD9C"/>
					<stop  offset="1" style="stop-color:#FFD1AF"/>
				</linearGradient>
				<path fill="url(#SVGID_7_)" d="M4251.356,4433.625c-20.149-14.119-73.548-30.899-110.824-36.948
					c57.089,54.401,40.974,234.401,16.797,274.7c34.259-2.003,73.878-10.747,98.062-18.801
					C4275.54,4593.475,4277.298,4480.63,4251.356,4433.625z"/>
			</g>
		</g>
	</g>
</svg>
