<svg version="1.1" xmlns="http://www.w3.org/2000/svg" viewBox="0 0 9922 13000" xml:space="preserve">
    <g>
      <g>
        <g>
<linearGradient class="color2" id="0e21ed06-8541-4490-b0bc-4eed58305409" >
<stop data-target="-0.55" stop-color="#944D09"></stop>
</linearGradient>
          <path fill="url(#0e21ed06-8541-4490-b0bc-4eed58305409)" d="M5233.111 11471.453c11.256 121.371-41.589 232.232-74.898 363.852-24.057 95.18-16.921 173.322 21.854 219.973 41.483 49.973 199.425 54.488 311.168 28.021 64.494-15.264 201.113-21.658 263.588-8.482 62.438 13.191 225.071 42.502 325.905 40.428 81.429-1.75 161.261-17.611 161.261-17.611s134.506 27.93 207.869 8.164c104.184-28.088 134.499-149.188 112.051-174.477-11.24-12.648-108.209-18.111-215.093-48.77-106.818-30.693-206.206-113.145-264.698-164.498-83.6-73.455-248.594-144.207-305.496-233.676-133.094-41.397-450.046-.742-543.511-12.924z"/>
          <linearGradient class="color2" id="6f9b2198-fea1-4f41-b15c-389b752766e6" gradientUnits="userSpaceOnUse" x1="5045.582" y1="12090.6074" x2="6541.5781" y2="12145.1025" gradientTransform="matrix(0.9995 -0.0304 0.0287 0.9432 -193.7427 541.1089)">
<stop data-target="-0.07" offset="0" stop-color="#F8BD9C" />
<stop data-target="0.0" offset="1" stop-color="#FFD1AF" />
          </linearGradient>

          <path fill="url(#6f9b2198-fea1-4f41-b15c-389b752766e6)" d="M6248.072 12057.846s-87.17 19.508-168.324 22.707c-81.23 3.295-166.934-11.924-315.226-46.746-51.712-12.195-183.847-5.352-283.323 10.316-179.756 28.393-255.039-5.816-265.018-17.773-28.482-34.225-33.127-99.932-12.807-180.26 8.98-35.449 19.595-69.998 29.896-103.455 23.146-75.139 51.629-155.516 54.12-231.844 16.421.033 29.429 8.357 52.666 7.604 21.604-.695 44.937-1.656 69.339-2.686 26.328-1.092 53.967-2.25 81.902-3.086 86.693-2.861 173.033-11.922 237.429 3.246 45.251 49.367 135.526 111.182 206.783 156.141 44.337 27.914 86.172 54.363 115.435 80.076 121.385 106.617 261.265 184.826 457.26 200.797 17.314 3.15 31.833 36.736-24.459 94.23-63.848 46.633-178.429 18.155-235.673 10.733z"/>
<linearGradient class="color2" id="c328073d-332d-4b13-bead-5289ecd70a9b" >
<stop data-target="-0.55" stop-color="#944D09"></stop>
</linearGradient>
          <path fill="url(#c328073d-332d-4b13-bead-5289ecd70a9b)" d="M5233.801 9533.303c-103.541 125.805-220.868 388.453-214.216 642.666 5.117 194.789 59.408 372.48 125.306 598.15 61.345 217.803 92.68 456.652 88.806 740.721 254.157 0 476.703-14.879 547.039-14.879-109.93-528.912 52.69-1791.443 85.536-1990.988-205.373-8.307-542.09 41.011-632.471 24.33z"/>
          <linearGradient class="color2" id="a066b00e-3c97-473d-a5a8-8bfbb5f548bd" gradientUnits="userSpaceOnUse" x1="5352.6025" y1="10567.9092" x2="6054.6616" y2="10556.9424">
<stop data-target="-0.07" offset="0" stop-color="#F8BD9C" />
<stop data-target="0.0" offset="1" stop-color="#FFD1AF" />
          </linearGradient>

          <path fill="url(#a066b00e-3c97-473d-a5a8-8bfbb5f548bd)" d="M5732.842 11519.982c-89.481 27.064-335.539 99.035-445.45-9.191 2.449-274.01-41.821-562.303-97.121-768.326-81.76-259.336-122.399-381.541-126.223-574.596-3.809-194.789 89.15-434.506 172.026-564.922 4.107.096 8.397.129 12.918.129 56.574 0 140.406-8.904 237.512-19.219 106.512-11.313 226.339-24.072 322.713-25.582-35.439 250.678-163.309 1296.161-76.375 1961.707z"/>
<linearGradient class="color2" id="6b793b99-dbb8-4fce-a637-8469cde65bdf" >
<stop data-target="-0.55" stop-color="#944D09"></stop>
</linearGradient>
          <path fill="url(#6b793b99-dbb8-4fce-a637-8469cde65bdf)" d="M5205.503 9261.221c-8.075 121.227-51.171 361.072-67.336 431.072 329.704-85.199 626.651-108.662 703.253-29.633 72.744-134.723 108.394-298.227 123.466-370.264-7.149-95.613-24.231-200.961-32.821-225.898-188.489 16.598-645.805 193.084-726.562 194.723z"/>
          <linearGradient class="color2" id="95689bcf-696a-42be-a7e7-90b0cf9ae3d4" gradientUnits="userSpaceOnUse" x1="5417.5557" y1="9360.0703" x2="6191.6577" y2="9646.5898">
<stop data-target="-0.07" offset="0" stop-color="#F8BD9C" />
<stop data-target="0.0" offset="1" stop-color="#FFD1AF" />
          </linearGradient>

          <path fill="url(#95689bcf-696a-42be-a7e7-90b0cf9ae3d4)" d="M5191.522 9688.723c15.339-56.805 27.472-158.088 43.637-236.199 11.192-54.104 24.667-110.668 29.655-150.902 47.611-9.609 122.855-48.416 227.191-78.32 132.208-37.893 292.417-83.752 399.325-101.236 6.788 41.619 15.481 108.529 20.624 175.893-3.189 30.82-66.213 186.447-108.281 318.213-53.398 33.264-151.33 91.932-274.228 91.932.001-.002-271.082 18.751-337.923-19.381z"/>
          <linearGradient class="color2" id="1064ff45-4bae-44e7-98b8-45199051cec0" gradientUnits="userSpaceOnUse" x1="5306.8926" y1="9450.4199" x2="6233.0195" y2="9393.252">
<stop data-target="-0.07" offset="0" stop-color="#F8BD9C" />
<stop data-target="0.0" offset="1" stop-color="#FFD1AF" />
          </linearGradient>

          <path fill="url(#1064ff45-4bae-44e7-98b8-45199051cec0)" d="M5891.331 9122.064c-106.908 17.484-267.117 63.344-399.325 101.236-59.061 16.904-107.734 30.74-147.777 41.422-17.476 82.725-60.573 282.078-33.836 400.99 94.512 32.008 242.707 58.941 242.707 58.941 122.898 0 177.839-8.084 234.426-64.695 75.459-102.393 121.24-331.182 124.43-362.002-5.143-67.362-13.837-134.272-20.625-175.892z"/>
<linearGradient class="color2" id="57a15748-0a78-4159-8e83-fec604459212" >
<stop data-target="-0.55" stop-color="#944D09"></stop>
</linearGradient>
          <path fill="url(#57a15748-0a78-4159-8e83-fec604459212)" d="M6249.854 6251.507c89.608 623.784 65.056 2226.673-361.071 2937.276-231.9 147.416-595.615 147.416-679.954 126.334-52.682-400.039-176.222-2820.727-197.319-3031.296 269.213 0 971.341-2.699 1238.344-32.314z"/>
          <linearGradient class="color2" id="728a9e50-6d0d-4482-8262-74b94183fcee" gradientUnits="userSpaceOnUse" x1="5163.5791" y1="7887.8838" x2="6315.4092" y2="7865.9497">
<stop data-target="-0.07" offset="0" stop-color="#F8BD9C" />
<stop data-target="0.0" offset="1" stop-color="#FFD1AF" />
          </linearGradient>

          <path fill="url(#728a9e50-6d0d-4482-8262-74b94183fcee)" d="M5237.803 9451.977c5.295-78.945 11.947-157.121 13.869-177.898-34.414-308.301-92.633-1345.43-135.608-2110.992-21.284-379.34-38.775-690.806-48.192-822.188 389.015-2.056 958.584-25.837 1140.968-38.484 86.258 685.618 19.756 2226.284-354.798 2852.175-110.378 181.096-461.028 297.387-616.239 297.387z"/>
<linearGradient class="color2" id="278399d1-2438-4bef-a9b4-25de6f08f8ce" >
<stop data-target="-0.55" stop-color="#944D09"></stop>
</linearGradient>
          <path fill="url(#278399d1-2438-4bef-a9b4-25de6f08f8ce)" d="M5385.799 11444.492c-3.762-52.988 12.799-192.836 29.629-265.895-.502-1.977-1.074-4.26-1.516-5.994-34.51 91.303-65.17 255.643-61.344 284.066 4.635 34.311 118.846 97.414 161.027 105.51-.288-1.1-.611-2.346-.9-3.469-52.385-25.823-114.693-90.95-126.896-114.218z"/>
        </g>
        <g>
          <g>
<linearGradient class="color2" id="1505d60d-76e7-4a99-97f3-48f9a01cf35c" >
<stop data-target="-0.55" stop-color="#944D09"></stop>
</linearGradient>
            <path fill="url(#1505d60d-76e7-4a99-97f3-48f9a01cf35c)" d="M6156.445 3262.07c-278.598-175.828-513.735-327.311-733.6-500.503.322 124.471-4.012 564.071-8.934 645.269 189.172 4.868 735.744 8.629 766.379 8.549 5.023-54.104-23.716-110.026-23.845-153.315z"/>
            <linearGradient class="color2" id="53d2d988-68de-4103-8cbb-cb191de3bebd" gradientUnits="userSpaceOnUse" x1="6694.877" y1="3107.2432" x2="5445.1646" y2="3168.5786">
<stop data-target="-0.07" offset="0" stop-color="#F8BD9C" />
<stop data-target="0.0" offset="1" stop-color="#FFD1AF" />
            </linearGradient>

            <path fill="url(#53d2d988-68de-4103-8cbb-cb191de3bebd)" d="M6196.08 3467.706c-51.92-1.43-623.118-46.07-716.984-48.705.867-13.096-26.09-449.098-20.441-587.066 94.568 94.678 579.547 386.332 706.768 461.246.19 4.531 30.585 161.798 30.657 174.525z"/>
          </g>
          <g>
<linearGradient class="color2" id="dd5e5120-6271-429c-b507-242bed6103ff" >
<stop data-target="-0.55" stop-color="#944D09"></stop>
</linearGradient>
            <path fill="url(#dd5e5120-6271-429c-b507-242bed6103ff)" d="M3965.904 3015.909c256.879-28.426 715.708-240.763 866.501-316.545 38.332 97.395 209.604 557.323 240.263 654.718-161.026 8.1-1027.534-40.623-1073.532-40.623 0-113.609-25.55-208.287-33.232-297.55z"/>
            <linearGradient class="color2" id="6772e3dd-e3c2-4559-bec0-2e49e9ebb23d" gradientUnits="userSpaceOnUse" x1="4001.6826" y1="3030.8281" x2="5008.4727" y2="3030.8281">
<stop data-target="-0.19" offset="0" stop-color="#DFA182" />
<stop data-target="-0.11" offset="1" stop-color="#F3B190" />
            </linearGradient>

            <path fill="url(#6772e3dd-e3c2-4559-bec0-2e49e9ebb23d)" d="M5008.473 3306.211c-176.919-1.077-933.965-38.388-965.477-39.771-4.828-54.715-37.263-175.601-41.313-196.459 152.992-51.838 584.657-200.284 815.827-314.536 42.725 116.066 143.92 407.962 190.963 550.766z"/>
          </g>
        </g>
        <g>
<linearGradient class="color2" id="082ebca8-d7a5-40a1-ac2b-56ce33a3c8b9" >
<stop data-target="-0.55" stop-color="#944D09"></stop>
</linearGradient>
          <path fill="url(#082ebca8-d7a5-40a1-ac2b-56ce33a3c8b9)" d="M4694.266 2049.242c44.464 331.408 44.464 545.625 4.042 788.123 16.174 242.482 72.762 323.31 97.001 347.574 104.393 19.621 499.476 32.249 565.85 36.379 40.404-24.248 138.246-107.421 188.585-304.476-64.663-194.002-29.728-655.713-27.206-882.961-127.926 2.41-766.669 19.556-828.272 15.361z"/>
          <linearGradient class="color2" id="c5b74977-2ae2-41e0-a367-044ed32a5e4f" gradientUnits="userSpaceOnUse" x1="4334.2554" y1="2621.1255" x2="5185.7197" y2="2696.5693">
<stop data-target="-0.19" offset="0" stop-color="#DFA182" />
<stop data-target="-0.11" offset="1" stop-color="#F3B190" />
          </linearGradient>

          <path fill="url(#c5b74977-2ae2-41e0-a367-044ed32a5e4f)" d="M5619.818 3347.943c-41.938.306-163.43 45.958-249.223 47.611l-9.633.146c-195.143 3.791-602.533-90.55-719.232-97.604 41.045-96.863 54.28-233.114 72.751-351.621 80.827-323.327 43.54-695.357 29.536-891.062 18.06 1.511 607.393-23.926 759.158-18.93-11.21 162.844-63.247 647.552 25.669 952.028 20.561 135.302 80.169 246.258 90.974 359.432z"/>
          <linearGradient class="color2" id="0009aeca-4eb3-4449-9895-0ac805741275" gradientUnits="userSpaceOnUse" x1="4506.1387" y1="2678.9048" x2="5298.3066" y2="2711.2383">
<stop data-target="-0.07" offset="0" stop-color="#F8BD9C" />
<stop data-target="0.0" offset="1" stop-color="#FFD1AF" />
          </linearGradient>

          <path fill="url(#0009aeca-4eb3-4449-9895-0ac805741275)" d="M5528.844 2988.511c-88.916-304.476-36.879-789.184-25.669-952.028-2.483-.063-5.425-.16-8.139-.223-21.661 168.243-68.711 329.399-184.435 480.689-113.174 129.322-274.844 145.521-436.499 97.024-14.558 232.938-28.988 478.89-31.735 714.396 169.015 29.665 389.915 69.837 518.596 67.331l9.633-.146c85.793-1.654 207.284-47.306 249.223-47.611-10.806-113.174-70.414-224.13-90.975-359.432z"/>
        </g>
        <g>
          <g>
<linearGradient class="color2" id="6af616bd-8af8-4ae4-a4d3-a0d90725ba01" >
<stop data-target="-0.55" stop-color="#944D09"></stop>
</linearGradient>
            <path fill="url(#6af616bd-8af8-4ae4-a4d3-a0d90725ba01)" d="M6483.628 5026.001c76.672 186.672 113.108 299.14 153.362 495.07 95.385 464.315 89.456 995.59 162.306 1255.297-40.887 10.846-364.229 70.383-384.677 75.781-135.471-746.679-534.208-1201.193-375.734-1801.821 214.722-75.732 378.311-8.097 444.743-24.327z"/>
            <linearGradient class="color2" id="277b00f7-41fe-4d94-b0b5-c5e0e31c680f" gradientUnits="userSpaceOnUse" x1="5948.1807" y1="6000.3066" x2="6514.0107" y2="5892.5327">
<stop data-target="-0.19" offset="0" stop-color="#DFA182" />
<stop data-target="-0.11" offset="1" stop-color="#F3B190" />
            </linearGradient>

            <path fill="url(#277b00f7-41fe-4d94-b0b5-c5e0e31c680f)" d="M6450.688 6795.25c-53.063-266.439-138.982-499.12-215.254-705.769-129.252-349.966-241.293-653.334-158.594-1000.65 57.784-17.804 117.053-26.5 180.344-26.5 47.732 0 89.567 4.774 126.478 9 26.843 3.084 50.128 5.769 70.761 5.994 69.628 172.404 101.678 279.312 137.598 454.11 47.911 233.098 71.854 485.799 93 708.741 18.593 196.107 34.959 368.752 63.746 497.434-51.711 10.477-134.593 26.32-200.493 38.92-43.042 8.195-74.802 14.255-97.586 18.72z"/>
            <linearGradient class="color2" id="98cf7874-1649-4dd1-9b22-34d9d265992a" gradientUnits="userSpaceOnUse" x1="6009.4111" y1="5979.4229" x2="6539.6479" y2="5892.6567">
<stop data-target="-0.07" offset="0" stop-color="#F8BD9C" />
<stop data-target="0.0" offset="1" stop-color="#FFD1AF" />
            </linearGradient>

            <path fill="url(#98cf7874-1649-4dd1-9b22-34d9d265992a)" d="M6592.02 5531.437c-35.92-174.798-67.97-281.706-137.598-454.11-20.633-.225-17.644-46.054-44.486-49.107-13.611-1.559-64.67 142.805-80.836 175.135-78.119 164.355-76.729 338.126-70.045 525.41 28.176 281.722 199.385 918.828 239.806 1056.218 22.745-4.418 6.372-.258 49.412-8.451 65.9-12.6 148.782-28.443 200.493-38.92-28.787-128.682-45.153-301.327-63.746-497.434-21.147-222.942-45.089-475.643-93-708.741z"/>
          </g>
          <g>
<linearGradient class="color2" id="d2944ad6-f229-4c14-8cbe-4fd12e7d550b" >
<stop data-target="-0.55" stop-color="#944D09"></stop>
</linearGradient>
            <path fill="url(#d2944ad6-f229-4c14-8cbe-4fd12e7d550b)" d="M6439.695 3920.195c13.568 378.906 77.82 816.243 67.4 1216.778-17.804 124.632-118.132 135.43-150.479 147.676-66.461.707-260.729-82.434-304.404-179.364-35.715-259.321-53.237-1180.658-53.773-1234.776 128.543 36.508 403.058 28.442 441.256 49.686z"/>
            <linearGradient class="color2" id="460ce44a-1a3f-43d5-87da-88fae398add0" gradientUnits="userSpaceOnUse" x1="5857.6182" y1="4600.4175" x2="6261.7847" y2="4573.4678">
<stop data-target="-0.19" offset="0" stop-color="#DFA182" />
<stop data-target="-0.11" offset="1" stop-color="#F3B190" />
            </linearGradient>

            <path fill="url(#460ce44a-1a3f-43d5-87da-88fae398add0)" d="M6417.239 5296.185c-42.728.451-175.755 20.842-322.539-92.589-28.988-246.868-49.147-1055.383-52.626-1272.122 79.421-149.907 253.121-83.062 371.011 62.026 3.896 299.993 52.931 824.953 51.748 1070.874-2.835 73.049 19.421 166.186-47.594 231.811z"/>
            <linearGradient class="color2" id="bdbd0124-20ae-4954-b140-b155960ff840" gradientUnits="userSpaceOnUse" x1="5706.8848" y1="4689.3389" x2="6332.0254" y2="4565.3921">
<stop data-target="-0.07" offset="0" stop-color="#F8BD9C" />
<stop data-target="0.0" offset="1" stop-color="#FFD1AF" />
            </linearGradient>

            <path fill="url(#bdbd0124-20ae-4954-b140-b155960ff840)" d="M6417.239 5296.185c67.015-65.625 44.759-158.762 47.594-231.811 1.183-245.921-47.852-770.881-51.748-1070.874-91.033-112.001-215.246-177.274-303.723-132.312 3.377 508.166-29.485 1404.787 223.777 1450.633 26.966 5.383 63.337-6.09 84.1-15.636z"/>
          </g>
          <g>
<linearGradient class="color2" id="7e6e2415-142f-47af-a648-7c4699bd862f" >
<stop data-target="-0.55" stop-color="#944D09"></stop>
</linearGradient>
            <path fill="url(#7e6e2415-142f-47af-a648-7c4699bd862f)" d="M5864.092 3076.071c447.355 87.271 633.798 483.612 588.57 1162.338-119.297-405.791-720.777-879.217-770.51-922.508 23.958-22.786 19.859-125.386 47.741-183.669 18.614-4.065 101.258-53.461 134.199-56.161z"/>
            <linearGradient class="color2" id="cc5de8df-bfa2-4bd7-af09-e3bc38a6c78d" gradientUnits="userSpaceOnUse" x1="4644.5083" y1="3902.8389" x2="6304.4126" y2="3568.9785">
<stop data-target="-0.07" offset="0" stop-color="#F8BD9C" />
<stop data-target="0.0" offset="1" stop-color="#FFD1AF" />
            </linearGradient>

            <path fill="url(#cc5de8df-bfa2-4bd7-af09-e3bc38a6c78d)" d="M6418.37 4165.679c-65.939-75.636-213.644-272.16-295.653-345.194-223.809-199.336-411.457-445.064-473-513.084 7.463-32.444 48.464-206.952 95.073-245.487 228.679 75.718 708.362 178.141 673.58 1103.765z"/>
          </g>
          <g>
<linearGradient class="color2" id="852e80ca-0388-4e95-9f98-5961f8511ee4" >
<stop data-target="-0.55" stop-color="#944D09"></stop>
</linearGradient>
            <path fill="url(#852e80ca-0388-4e95-9f98-5961f8511ee4)" d="M6409.936 7167.604c-18.85 111.854-60.629 220.963-86.202 307.191-30.982 112.484 63.97 227.666 119.89 99.678 45.122-95.049 108.948-376.066 115.81-414.6-40.849-19.283-127.18 12.662-149.498 7.731z"/>
            <linearGradient class="color2" id="d3986559-b1ec-46cf-9a5b-6d55ae2b87c6" gradientUnits="userSpaceOnUse" x1="6488.3398" y1="7027.2031" x2="6431.0229" y2="7432.0034">
<stop data-target="-0.07" offset="0" stop-color="#F8BD9C" />
<stop data-target="0.0" offset="1" stop-color="#FFD1AF" />
            </linearGradient>

            <path fill="url(#d3986559-b1ec-46cf-9a5b-6d55ae2b87c6)" d="M6375.578 7587.279c-34.348-34.357-18.841-104.482-11.424-126.434 26.996-79.539 60.131-168.594 84.169-290.863 17.153 5.992 64.204 11.455 82.892 19.199-17.136 86.535-92.773 322.459-103.099 353.633-17.264 52.047-43.907 53.077-52.538 44.465z"/>
<linearGradient class="color2" id="cddc12a6-1c8a-453e-919e-d2d69da0d6db" >
<stop data-target="-0.55" stop-color="#944D09"></stop>
</linearGradient>
            <path fill="url(#cddc12a6-1c8a-453e-919e-d2d69da0d6db)" d="M6499.438 7129.246c-.528 73.596-8.444 222.059-22.12 341.5-8.395 41.748-39.087 131.988-53.895 189.967-32.338 102.375 64.662 234.432 109.439 138.307 11.135-23.959 95.145-235.074 101.435-255.049 25.368-74.736 51.64-370.922 46.488-401.178-39.658-2.203-156.414-7.988-181.347-13.547z"/>
            <linearGradient class="color2" id="dadad74a-cc36-4cea-a1b7-ff9dd4742584" gradientUnits="userSpaceOnUse" x1="6591.6836" y1="7050.9814" x2="6548.3442" y2="7477.1558">
<stop data-target="-0.07" offset="0" stop-color="#F8BD9C" />
<stop data-target="0.0" offset="1" stop-color="#FFD1AF" />
            </linearGradient>

            <path fill="url(#dadad74a-cc36-4cea-a1b7-ff9dd4742584)" d="M6542.455 7744.611c-50.295 134.258-103.131-14.061-88.539-74.064 8.879-33.311 35.914-117.463 53.806-174.525 5.536-63.488 24.683-191.334 25.142-319.229 17.458 1.656 104.953 7.859 110.378 8.115-3.462 115.795-9.185 239.076-26.049 313.861-3.929 10.944-62.83 211.036-74.738 245.842z"/>
<linearGradient class="color2" id="e34fd16f-88c0-4e42-96c5-53287d8e2f03" >
<stop data-target="-0.55" stop-color="#944D09"></stop>
</linearGradient>
            <path fill="url(#e34fd16f-88c0-4e42-96c5-53287d8e2f03)" d="M6628.184 7144.703c-3.904 96.93-23.613 317.107-32.322 375.889-16.744 57.176-35.441 121.031-54.58 165.686-72.742 157.652 54.58 272.822 94.992 198.053 19.109-44.672 107.511-290.721 107.511-290.721s65.827-420.848 68.245-442.141c-45.911-3.18-147.69-1.397-183.846-6.766z"/>
            <linearGradient class="color2" id="9bd92a4e-588d-47d7-ba21-70422e73b565" gradientUnits="userSpaceOnUse" x1="6683.2393" y1="7009.3008" x2="6661.6895" y2="7648.6079">
<stop data-target="-0.07" offset="0" stop-color="#F8BD9C" />
<stop data-target="0.0" offset="1" stop-color="#FFD1AF" />
            </linearGradient>

            <path fill="url(#9bd92a4e-588d-47d7-ba21-70422e73b565)" d="M6561.571 7724.635c16.101-40.332 45.426-120.389 60.997-170.412 13.191-101.441 31.729-256.219 31.287-352.844 25.766 2.572 101.064-3.646 128.086-1.527-9.177 72.762-43.057 333.98-43.057 333.98s-111.994 307.883-118.72 321.992c-22.287 46.696-93.023-32.105-58.593-131.189z"/>
<linearGradient class="color2" id="b05c0ebd-d9b7-450f-9242-310262ee6e56" >
<stop data-target="-0.55" stop-color="#944D09"></stop>
</linearGradient>
            <path fill="url(#b05c0ebd-d9b7-450f-9242-310262ee6e56)" d="M6741.352 7154.795c-.032 57.623-3.85 227.762-12.117 357.73-11.305 38.307-37.369 116.115-52.545 161.639-30.516 137.953 72.776 222.123 115.85 102.439 13.666-29.326 65.359-147.578 91.642-238.514 15.587-166.748 24.648-377.684 22.874-397.402-41.324-2.701-125.446 16.907-165.704 14.108z"/>
            <linearGradient class="color2" id="d0a2c128-451b-4d93-a34e-7ede30565b77" gradientUnits="userSpaceOnUse" x1="6794.9756" y1="6865.0928" x2="6781.2134" y2="7584.1846">
<stop data-target="-0.07" offset="0" stop-color="#F8BD9C" />
<stop data-target="0.0" offset="1" stop-color="#FFD1AF" />
            </linearGradient>

            <path fill="url(#d0a2c128-451b-4d93-a34e-7ede30565b77)" d="M6707.518 7655.652c14.478-44.045 34.122-101.477 41.627-120.117 11.762-121.703 10.422-202.533 17.596-344.551 13.208-1.127 43.715-6.332 57.373-7.908 13.635-1.541 26.699 21.18 39.499 20.055 7.825 83.465-3.038 228.533-14.334 334.799-23.316 81.197-61.891 183.492-75.581 215.068-39.482 107.52-94.895-10.107-66.18-97.346z"/>
<linearGradient class="color2" id="8128a495-04f2-493d-a9bb-538ca6f2174f" >
<stop data-target="-0.55" stop-color="#944D09"></stop>
</linearGradient>
            <path fill="url(#8128a495-04f2-493d-a9bb-538ca6f2174f)" d="M6401.853 6704.188c-51.179 111.775-11.433 431.76 2.714 511.93 135.398-41.779 461.729 20.438 520.396 25.26-4.508-165.512-149.948-547.666-160.401-606.287-58.474 81.149-224.869 280.952-362.709 69.097z"/>
            <linearGradient class="color2" id="cdeb0cf4-70c4-406b-81cd-3128c95c3a96" gradientUnits="userSpaceOnUse" x1="6286.9404" y1="6960.8887" x2="6732.7617" y2="6960.8887">
<stop data-target="-0.07" offset="0" stop-color="#F8BD9C" />
<stop data-target="0.0" offset="1" stop-color="#FFD1AF" />
            </linearGradient>

            <path fill="url(#cdeb0cf4-70c4-406b-81cd-3128c95c3a96)" d="M6442.273 7213.447c-.137-10.863-14.534-85.262-14.879-97.508-2.363-78.223-19.879-300.506 17.683-399.699 10.581-3.422 29.253 18.043 77.235 24.809 71.018-42.838 143.32-71.762 214.338-78.029 2.08 101.395 139.119 424.576 129.999 591.822-122.583 9.771-241.655 3.117-424.376-41.395z"/>
<linearGradient class="color2" id="5d72a3e6-7d6d-4286-8694-6df18e23c7ac" >
<stop data-target="-0.55" stop-color="#944D09"></stop>
</linearGradient>
            <path fill="url(#5d72a3e6-7d6d-4286-8694-6df18e23c7ac)" d="M6777.604 6670.891c48.318 69.307 120.854 174.287 144.388 227.25 2.53 20.648 25.323 83.865 44.776 155.34 30.498 112.146 91.393 179.732 97.925 198.342-15.685 57.428-123.739 55.182-171.777 4.016-48.024-51.115-69.114-115.584-86.54-196.717-248.221-90.886-210.515-328.036-28.772-388.231z"/>
            <linearGradient class="color2" id="6e238169-41c4-4fde-ae04-c4d9c85f9823" gradientUnits="userSpaceOnUse" x1="6668.1514" y1="7103.4268" x2="6906.9175" y2="6932.8794">
<stop data-target="-0.07" offset="0" stop-color="#F8BD9C" />
<stop data-target="0.0" offset="1" stop-color="#FFD1AF" />
            </linearGradient>

            <path fill="url(#6e238169-41c4-4fde-ae04-c4d9c85f9823)" d="M6907.303 7227.523c-61.213-75.186-83.502-198.838-83.502-198.838-112.748-17.178-189.182-92.396-191.784-214.137-1.181-54.186 31.438-146.387 104.658-146.387 36.621 58.635 130.737 191.445 162.071 256.848 8.479 34.338 34.141 129.836 66.285 211.871 27.109 69.109 45.307 82.834 60.998 111.566-3.904 23.685-83.855 21.902-118.726-20.923z"/>
<linearGradient class="color2" id="94ef536a-bdd6-4d0d-a80b-4f39889ebeb3" >
<stop data-target="-0.55" stop-color="#944D09"></stop>
</linearGradient>
            <path fill="url(#94ef536a-bdd6-4d0d-a80b-4f39889ebeb3)" d="M6436.714 7209.896c93.964 23.703 285.788 45.316 405.688 43.932-152.233 33.731-317.975-1.656-405.688-43.932z"/>
          </g>
        </g>
        <g>
<linearGradient class="color2" id="e98e9656-8089-45ab-9fa2-f2cc3d2d4b1c" >
<stop data-target="-0.55" stop-color="#944D09"></stop>
</linearGradient>
          <path fill="url(#e98e9656-8089-45ab-9fa2-f2cc3d2d4b1c)" d="M4378.326 5612.906c-84.379 162.331-294.844 622.387-340.857 987.668 204.486 37.844 1094.004-35.223 1150.23-40.623-7.674-162.328-15.345-841.391-15.345-884.665-71.549 5.401-737.788-51.58-794.028-62.38z"/>
          <linearGradient class="color2" id="f5ab4c9c-66d1-4ff7-af25-1f3b7e2523e8" gradientUnits="userSpaceOnUse" x1="4089.9751" y1="6107.9937" x2="5139.957" y2="6107.9937">
<stop data-target="-0.19" offset="0" stop-color="#DFA182" />
<stop data-target="-0.11" offset="1" stop-color="#F3B190" />
          </linearGradient>

          <path fill="url(#f5ab4c9c-66d1-4ff7-af25-1f3b7e2523e8)" d="M4235.696 6562.684c-60.483 0-109.221-1.512-145.721-4.563 50.649-324.275 236.705-720.28 326.072-904.817 132.273 19.652 554.984 57.961 710.693 69.129 1.502 150.68 7.216 606.093 13.217 792.784-151.619 12.631-616.697 47.467-904.261 47.467z"/>
<linearGradient class="color2" id="1618ff93-6272-44a6-a742-2b0d1e362291" >
<stop data-target="-0.55" stop-color="#944D09"></stop>
</linearGradient>
          <path fill="url(#1618ff93-6272-44a6-a742-2b0d1e362291)" d="M4022.155 3082.193c-117.585 941.453 61.326 1172.767 245.383 1757.134 122.662 357.135 178.271 497.32 81.141 849.073 260.729-70.383 363.594 222.234 639.659 757.912 7.674 178.558 115.031 576.267 153.355 576.267 86.902 0 232.592 83.85 360.404 24.348 92.003-162.33 690.156-754.829 701.646-1055.111 12.189-257.684-137.848-700.641-122.51-1098.334-40.928-286.785-46.174-549.996-34.669-649.335-20.472-422.038-108.53-607.025-103.413-828.825-32.171 0-862.803-36.91-862.803-36.91s-981.544-304.381-1058.193-296.219z"/>
          <linearGradient class="color2" id="65c0f7f5-527c-4aa5-af31-3aa0293a215f" gradientUnits="userSpaceOnUse" x1="4032.3799" y1="5059.3203" x2="6201.7998" y2="5059.3203">
<stop data-target="-0.19" offset="0" stop-color="#DFA182" />
<stop data-target="-0.11" offset="1" stop-color="#F3B190" />
          </linearGradient>

          <path fill="url(#65c0f7f5-527c-4aa5-af31-3aa0293a215f)" d="M5162.398 6992.467c-8.066-180.521-189.397-554.287-189.397-554.287-155.966-302.611-368.464-255.53-497.666-396.873-95.748-104.738-102.417-247.882-84.099-330.314 86.896-221.851 62.517-554.834-50.649-789.249-88.982-184.345-112.908-350.932-173.787-509.229-121.24-315.241-167.921-741.393-109.124-1301.431 141.479 50.521 624.355 161.511 1113.474 206.132 549.744 50.168 626.483-56.578 699.251-112.064 21.26 70.221 151.515 392.501 188.796 465.97 78.521 154.76 167.503 330.155 136.153 549.497-4.451 38.277-17.718 105.959-34.477 191.671-25.865 131.895-61.24 312.543-83.238 485.479l-.281 2.249-38.469 28.587c-10.06 260.335 55.791 508.6 84.354 714.237 14.775 106.457 39.081 271.325 38.332 316.511-7.672 453.148-77.693 577.892-368.654 725.952-153.598 78.127-234.424 175.152-321.75 322.248-25.85-4.321-279.37-12.356-308.769-15.086z"/>
          <linearGradient class="color2" id="d444fe20-f82d-41ae-b15d-4edad8062c5b" gradientUnits="userSpaceOnUse" x1="4047.4263" y1="5005.8535" x2="6201.7998" y2="5005.8535">
<stop data-target="-0.07" offset="0" stop-color="#F8BD9C" />
<stop data-target="0.0" offset="1" stop-color="#FFD1AF" />
          </linearGradient>

          <path fill="url(#d444fe20-f82d-41ae-b15d-4edad8062c5b)" d="M6054.262 4638.866c8.693-86.885 136.637-379.968 141.088-418.245 31.35-219.342-57.633-394.737-136.153-549.497-37.281-73.468-167.536-395.749-188.796-465.97-42.825-3.183-177.146-26.386-242.521-29.438-83.063-3.792-139.455-20.152-309.2 0-88.921 66.733-125.292 46.504-204.11-3.986-94.283-52.127-147.514-50.521-335.458-60.644-115.946-6.202-215.341-58.026-290.993-80.828-214.145-64.501-348.731 5.303-435.318 50.586-32.572 310.39 92.531 549.143 118.05 790.116 267.244 310.035 359.07 671.524 416.276 1091.231 39.097 200.75 76.794 400.135 28.306 594.138-113.184 328.756-53.864 673.566 291.008 856.848 59.474 66.719 163.834 34.645 220.96 145.49 0 0 26.932 253.279 34.998 433.801 29.398 2.73 282.919 10.766 308.768 15.088 87.326-147.096 168.152-244.121 321.75-322.248 290.961-148.061 360.982-272.804 368.654-725.952.749-45.186-23.557-210.054-38.332-316.511-28.563-205.637-94.413-453.902-84.354-714.237 0-.002 3.26-168.519 15.377-289.742z"/>
<linearGradient class="color2" id="d0d69e04-6b4b-4eee-8d3d-504b1fd7a681" >
<stop data-target="-0.55" stop-color="#944D09"></stop>
</linearGradient>
          <path fill="url(#d0d69e04-6b4b-4eee-8d3d-504b1fd7a681)" d="M5494.434 5569.777c0 44.833 14.58 81.18 32.579 81.18 18.015 0 32.597-36.347 32.597-81.18 0-44.833-14.582-81.148-32.597-81.148-17.999 0-32.579 36.315-32.579 81.148zM4332.503 2956.18c94.311 25.583 291.004 142.789 638.595 158.956 145.496 12.115 145.496 55.245 212.889 90.275-68.727-17.547-123.973-49.848-202.092-57.929-385.319-8.099-635.907-175.137-657.465-180.521-5.382-18.88 5.399-5.431 8.073-10.781zm1499.477 124.599c-22.898 19.556-101.719 74.095-160.314 80.169-58.604 6.074-270.795-15.507-307.175-5.385-48.497 14.142-63.29 24.202-91.603 48.498 30.322-12.117 39.385-23.895 82.179-26.289 36.354-2.057 292.995 18.188 319.291 14.171 57.254-8.098 162.353-71.411 172.452-82.209-6.057-6.041-9.433-24.23-14.83-28.955z"/>
        </g>
        <g>
          <g>
<linearGradient class="color2" id="524d5b7a-b79c-4edc-965a-a27b53702d7c" >
<stop data-target="-0.55" stop-color="#944D09"></stop>
</linearGradient>
            <path fill="url(#524d5b7a-b79c-4edc-965a-a27b53702d7c)" d="M3588.91 3540.771c-160.32 338.222-370.545 773.403-602.276 1150.624 164.916 12.164 562.36 137.921 674.962 123.958 168.259-404.603 360.31-786.951 487.713-1096.665-86.523-123.072-412.444-269.783-560.399-177.917z"/>
            <linearGradient class="color2" id="f8d58003-7850-48c8-99f0-325c13d79db0" gradientUnits="userSpaceOnUse" x1="4184.4683" y1="4507.4526" x2="3392.2786" y2="4046.689">
<stop data-target="-0.07" offset="0" stop-color="#F8BD9C" />
<stop data-target="0.0" offset="1" stop-color="#FFD1AF" />
            </linearGradient>

            <path fill="url(#f8d58003-7850-48c8-99f0-325c13d79db0)" d="M3620.887 4778.393c-98.054 0-542.965-67.989-595.173-73.517 237.284-373.895 446.872-814.861 599.504-1133.043 38.999-20.264 101.388-66.237 167.663-66.237 147.868 0 294.915 52.257 352 122.269-59.889 143.209-142.146 322.121-228.943 510.9-98.407 214.039-200.013 435.085-285.828 639.548-2.909.048-5.961.08-9.191.08h-.032z"/>
          </g>
          <g>
<linearGradient class="color2" id="03cd809e-7f5b-4791-9629-d557d5c93257" >
<stop data-target="-0.55" stop-color="#944D09"></stop>
</linearGradient>
            <path fill="url(#03cd809e-7f5b-4791-9629-d557d5c93257)" d="M4395.826 2957.127c-446.519-106.231-768.59 181.886-948.791 904.19 251-324.627 635.546-166.315 713.041-134.53 150.902-86.211 271.486-364.605 309.377-451.187 0-129.854-23.678-281.369-73.627-318.473z"/>
            <linearGradient class="color2" id="d4b91631-f3a8-4c42-bb47-b7316fa7f2ab" gradientUnits="userSpaceOnUse" x1="4771.0942" y1="3905.5127" x2="3714.042" y2="3261.667">
<stop data-target="-0.07" offset="0" stop-color="#F8BD9C" />
<stop data-target="0.0" offset="1" stop-color="#FFD1AF" />
            </linearGradient>

            <path fill="url(#d4b91631-f3a8-4c42-bb47-b7316fa7f2ab)" d="M3512.034 3802.214c138.798-569.873 468.848-925.544 864.435-800.655 24.336 26.706 48.955 133.083 50.289 263.034-5.802 14.22-11.683 30.13-18.238 47.998-35.12 95.161-72.697 246.595-199.29 344.134-213.099 162.33-653.391 165.799-697.196 145.489z"/>
          </g>
        </g>
        <g>
<linearGradient class="color2" id="78c6f8dc-2bfb-4f35-b648-22b8e51b2e57" >
<stop data-target="-0.55" stop-color="#944D09"></stop>
</linearGradient>
          <path fill="url(#78c6f8dc-2bfb-4f35-b648-22b8e51b2e57)" d="M4201.156 3527.371c-61.826 57.815-61.803 141.15-86.894 236.455 31.374 258.792 255.481 652.628 751.757 782.064 149.539-303.126 206.111-711.327 222.291-755.824-129.346-68.678-614.945-517.133-887.154-262.695z"/>
          <linearGradient class="color2" id="c8159b9a-d2c1-4018-9eae-e9d3a68bac89" gradientUnits="userSpaceOnUse" x1="3432.3223" y1="3133.52" x2="4327.5649" y2="3743.7852">
<stop data-target="-0.07" offset="0" stop-color="#F8BD9C" />
<stop data-target="0.0" offset="1" stop-color="#FFD1AF" />
          </linearGradient>

          <path fill="url(#c8159b9a-d2c1-4018-9eae-e9d3a68bac89)" d="M4848.586 4507.582c-421.474-121-611.691-418.084-712.092-733.664-56.586-177.837-48.385-371.115 42.423-420.319 97.009-52.529 261.797 27.896 315.258 52.545 210.158 96.994 282.004 176.343 435.398 303.111 51.342 42.406 91.449 75.572 121.435 95.868-2.933 13.256-6.613 31.511-11.747 56.998-27.542 137.165-83.793 417.473-190.675 645.461z"/>
        </g>
        <g>
<linearGradient class="color2" id="ec6a2e3a-d86e-459d-9c05-654af1fc58ff" >
<stop data-target="-0.55" stop-color="#944D09"></stop>
</linearGradient>
          <path fill="url(#ec6a2e3a-d86e-459d-9c05-654af1fc58ff)" d="M4259.784 11307.486c31.616 124.518 97.361 226.83 97.692 326.908-6.01 79.012-40.92 209.314-23.645 400.955-57.456-133.277-82.194-648.062-74.047-727.863z"/>
<linearGradient class="color2" id="e5a1c484-49eb-44d6-9b85-29a5e49ca3e5" >
<stop data-target="-0.55" stop-color="#944D09"></stop>
</linearGradient>
          <path fill="url(#e5a1c484-49eb-44d6-9b85-29a5e49ca3e5)" d="M4469.918 10301.244c32.244-283.461-26.922-471.531-10.774-794.873-16.438-.418-502.1-.676-568.313-13.08-407.085 886.145-51.854 1341.316-40.043 2353.377 130.255-6.17 471.055 65.818 517.334 71.717-45.717-141.906-107.011-619.514-47.733-938.127 48.03-301.971 123.763-452.266 149.529-679.014z"/>
<linearGradient class="color2" id="1cd564db-2c7e-409f-80b0-27d74790c20c" >
<stop data-target="-0.55" stop-color="#944D09"></stop>
</linearGradient>
          <path fill="url(#1cd564db-2c7e-409f-80b0-27d74790c20c)" d="M3930.12 8902.787c-12.478 288.1-51.125 611.426-102.215 800.785 83.093 34.58 478.254 191.107 609.69 112.676 60.845-204.076 70.313-373.043 83.553-573.891-88.42-39.787-524.414-336.839-591.028-339.57z"/>
          <linearGradient class="color2" id="85c13832-78c7-4f4c-8796-b690acaaf52b" gradientUnits="userSpaceOnUse" x1="4287.7231" y1="9382.5498" x2="3770.3733" y2="9371.7666">
<stop data-target="-0.19" offset="0" stop-color="#DFA182" />
<stop data-target="-0.11" offset="1" stop-color="#F3B190" />
          </linearGradient>

          <path fill="url(#85c13832-78c7-4f4c-8796-b690acaaf52b)" d="M3996.582 9005.596c-29.463 117.078-74.095 543.295-107.366 676.348 40.904 21.629 148.253 37.842 211.404 68.42 58.411-248.941 119.997-496.598 197.056-738.484-101.139-4.517-208.086-3.056-301.094-6.284z"/>
          <linearGradient class="color2" id="1a5867f7-4992-4b8f-8d50-309dd8814f53" gradientUnits="userSpaceOnUse" x1="3890.0684" y1="9351.251" x2="4448.8501" y2="9613.8125" gradientTransform="matrix(0.9993 -0.0382 0.0382 0.9993 -247.811 192.1069)">
<stop data-target="-0.07" offset="0" stop-color="#F8BD9C" />
<stop data-target="0.0" offset="1" stop-color="#FFD1AF" />
          </linearGradient>

          <path fill="url(#1a5867f7-4992-4b8f-8d50-309dd8814f53)" d="M4191.748 9267.922c-77.074 241.887-32.717 233.5-91.128 482.441 92.252 2.766 231.097 69.725 310.045 17.42 51.179-188.65 63.213-340.857 43.088-503.895-58.162-10.185-164.683 8.389-262.005 4.034z"/>
          <linearGradient class="color2" id="e632c5eb-e626-4517-86c0-a50a3f97230d" gradientUnits="userSpaceOnUse" x1="4007.3853" y1="10671.0098" x2="3457.7073" y2="10520.123">
<stop data-target="-0.19" offset="0" stop-color="#DFA182" />
<stop data-target="-0.11" offset="1" stop-color="#F3B190" />
          </linearGradient>

          <path fill="url(#e632c5eb-e626-4517-86c0-a50a3f97230d)" d="M4383.725 9751.586c-1.478-46.055 22.424-191.672 27.536-208.145-52.136-6.217-448.504-29.262-469.62-35.432-265.783 537.703-198.517 1048.023-103.797 1586.08 46.961 266.682 34.547 504.471 43.361 780.715 56.578-14.881 325.157-35.98 420.182-52.707-2.54-65.385 18.302-140.283 10.91-225.494-3.188-37.074-46.206-111.266-68.709-167.73-11.941-156.965-7.481-259.324 8.089-440.518 18.889-226.35 110.789-471.176 148.224-757.141 18.429-141.005 1.323-354.741-16.176-479.628z"/>
          <linearGradient class="color2" id="a4690ac5-865a-48f0-aafb-80334b03241a" gradientUnits="userSpaceOnUse" x1="3532.7539" y1="10667.9717" x2="4050.0923" y2="10678.7549">
<stop data-target="-0.07" offset="0" stop-color="#F8BD9C" />
<stop data-target="0.0" offset="1" stop-color="#FFD1AF" />
          </linearGradient>

          <path fill="url(#a4690ac5-865a-48f0-aafb-80334b03241a)" d="M4417.38 10264.863c18.473-140.992 5.399-396.453-12.123-521.346-5.553-90.355.891-183.604 6.002-200.076-29.681-3.502-217.28 18.336-337.418 10.076-436.509 844.752-48.506 1931.916-137.415 2262.055 102.174-6.252 293.188 19.17 364.96 6.525-2.54-65.385 18.302-140.283 10.91-225.494-3.188-37.074-35.392-115.281-57.903-171.75-11.964-156.992.611-263.402 16.172-444.596 18.842-226.349 109.44-429.349 146.815-715.394z"/>
<linearGradient class="color2" id="137230a5-db2c-4afd-9880-f425495ab984" >
<stop data-target="-0.55" stop-color="#944D09"></stop>
</linearGradient>
          <path fill="url(#137230a5-db2c-4afd-9880-f425495ab984)" d="M3833.585 11410.873c-33.793 90.953-62.116 228.938-53.268 266.555 6.441 38.436 85.188 191.512 100.888 214.924-1.493-101.541-1.646-362.407-47.62-481.479z"/>
          <linearGradient class="color2" id="651a5859-500f-446f-8f73-f6307dd95508" gradientUnits="userSpaceOnUse" x1="3814.0913" y1="11636.0156" x2="3523.0789" y2="11615.8066">
<stop data-target="-0.07" offset="0" stop-color="#F8BD9C" />
<stop data-target="0.0" offset="1" stop-color="#FFD1AF" />
          </linearGradient>

          <path fill="url(#651a5859-500f-446f-8f73-f6307dd95508)" d="M3864.583 11778.213c-23.421-50.715-40.189-98.182-44.303-114.316-3.342-14.139 8.38-91.256 31.357-163.967 10.903 34.645 30.667 76.971 39.715 117.896-1.63 23.897-19.531 111.57-26.769 160.387z"/>
<linearGradient class="color2" id="24dae99e-1a0f-4209-8b1f-894bd6221fc5" >
<stop data-target="-0.55" stop-color="#944D09"></stop>
</linearGradient>
          <path fill="url(#24dae99e-1a0f-4209-8b1f-894bd6221fc5)" d="M4081.932 6324.251c-339.507 925.546-191.293 2635.179-177.844 3047.431 184.063-194.773 431.164-82.273 587.413 43.096 156.264-290.98 888.055-2425.074 931-2757.736-476.384-198.935-1151.765-295.623-1340.569-332.791z"/>
          <linearGradient class="color2" id="7678a3f4-b0d2-440a-a0c1-b08af3cfd232" gradientUnits="userSpaceOnUse" x1="4371.6885" y1="7906.1641" x2="3952.0947" y2="7856.8003">
<stop data-target="-0.19" offset="0" stop-color="#DFA182" />
<stop data-target="-0.11" offset="1" stop-color="#F3B190" />
          </linearGradient>

          <path fill="url(#7678a3f4-b0d2-440a-a0c1-b08af3cfd232)" d="M3944.517 9342.051c0-620.908-132.022-2012.746 171.893-2952.061 101.733 31.687 940.085 208.895 1230.565 326.281-160.497 502.93-658.797 1996.611-883.965 2676.555-126.457-14.846-375.366-164.449-518.493-50.775z"/>
          <linearGradient class="color2" id="c73c2cf9-3d54-44e0-89c1-2d5e11a0f246" gradientUnits="userSpaceOnUse" x1="3682.4409" y1="7894.3506" x2="4436.8896" y2="7948.2349">
<stop data-target="-0.07" offset="0" stop-color="#F8BD9C" />
<stop data-target="0.0" offset="1" stop-color="#FFD1AF" />
          </linearGradient>

          <path fill="url(#c73c2cf9-3d54-44e0-89c1-2d5e11a0f246)" d="M4351.394 6499.404c-301.81 808.305-309.883 2338.752-283.047 2800.579 136.279-5.127 299.871 81.725 394.663 92.844 196.877-449.611 755.807-2165.594 916.305-2668.438-208.907-84.477-718.591-152.996-1027.921-224.985z"/>
<linearGradient class="color2" id="ba4d930b-d9b8-4a4c-b269-8bb796aee5c5" >
<stop data-target="-0.55" stop-color="#944D09"></stop>
</linearGradient>
          <path fill="url(#ba4d930b-d9b8-4a4c-b269-8bb796aee5c5)" d="M4428.574 9327.555c7.126 56.598-10.084 269.639-73.735 339.41-140.039 98.215-264.704 46.375-295.846 34.1-39.143-93.201 20.344-364.381 46.111-424.191 56.402-67.266 117.697-69.756 196.09-24.166 33.874 17.575 59.286 31.589 127.38 74.847z"/>
          <linearGradient class="color2" id="8dab1541-438e-46ed-b3b0-9d9033535c99" gradientUnits="userSpaceOnUse" x1="3277.5767" y1="9292.001" x2="3905.5583" y2="9333.3154" gradientTransform="matrix(0.9913 -0.1316 0.1316 0.9913 -833.3057 700.7988)">
<stop data-target="-0.07" offset="0" stop-color="#F8BD9C" />
<stop data-target="0.0" offset="1" stop-color="#FFD1AF" />
          </linearGradient>

          <path fill="url(#8dab1541-438e-46ed-b3b0-9d9033535c99)" d="M4049.584 9715.203c-39.682-100.848-25.847-315.307 16.182-418.98 133.388-126.66 295.037-211.535 358.95-5.207 4.485 64.871-64.767 313.988-114.587 351.205-123.113 93.199-216.804 79.314-260.545 72.982z"/>
<linearGradient class="color2" id="4657eef3-be96-4b28-8598-fc92e119a956" >
<stop data-target="-0.55" stop-color="#944D09"></stop>
</linearGradient>
          <path fill="url(#4657eef3-be96-4b28-8598-fc92e119a956)" d="M3839.892 11805.338c-18.721 251.047-51.309 421.008-68.6 581.379 205.396 95.867 779.053-41.701 827.558-49.527-105.744-136.426-133.664-245.951-177.106-340.629-33.818-73.1-82.071-121.098-89.681-254.326-46.264 135.316-391.034 308.927-492.171 63.103z"/>
          <linearGradient class="color2" id="5ebec664-cc16-4a83-9010-03e5a909db84" gradientUnits="userSpaceOnUse" x1="3954.8394" y1="12090.3867" x2="3671.9209" y2="12082.3027">
<stop data-target="-0.19" offset="0" stop-color="#DFA182" />
<stop data-target="-0.11" offset="1" stop-color="#F3B190" />
          </linearGradient>

          <path fill="url(#5ebec664-cc16-4a83-9010-03e5a909db84)" d="M3820.722 12410.193c3.794-134.098 30.804-394.318 61.408-559.574 89.56-110.395 282.317-113.766 415.272-43.451 4.581 37.283 6.878 30.838 28.699 83.045 14.085 34.006 26.296 61.354 56.266 116.34 35.312 64.918 73.219 206.904 162.523 329.611-184.924 49.264-620.596 118.059-724.168 74.029z"/>
          <linearGradient class="color2" id="3a71c14e-9efd-4a3e-95c1-706fc498949d" gradientUnits="userSpaceOnUse" x1="4023.2578" y1="12808.7344" x2="4043.8894" y2="12071.2607" gradientTransform="matrix(0.9996 -0.0267 0.0267 0.9996 -181.4141 134.061)">
<stop data-target="-0.07" offset="0" stop-color="#F8BD9C" />
<stop data-target="0.0" offset="1" stop-color="#FFD1AF" />
          </linearGradient>

          <path fill="url(#3a71c14e-9efd-4a3e-95c1-706fc498949d)" d="M4382.366 12006.553c-29.97-54.986-42.181-82.334-56.266-116.34-21.821-52.207-24.312-53.846-28.924-91.111-133.783-89.406-306.219-12.035-365.192 50.217-35.794 73.738-52.201 161.559-71.677 243.143-15.964 129.709-37.118 230.17-39.585 317.732 103.572 44.029 539.244-24.766 724.168-74.029-89.305-122.708-127.212-264.694-162.524-329.612z"/>
<linearGradient class="color2" id="ce1a75cb-d190-4d23-b6a2-b95848b0b373" >
<stop data-target="-0.55" stop-color="#944D09"></stop>
</linearGradient>
          <path fill="url(#ce1a75cb-d190-4d23-b6a2-b95848b0b373)" d="M4483.786 12153.328c24.553 76.346 158.957 182.158 161.72 219.537-17.998 66.943-44.793 93.379-102.546 119.617-59.479 17.771-174.742 15.682-231.771-4.242-21.533-38.277-30.555-144.783-44.671-187.061 47.988 5.094 223.953-8.337 217.268-147.851z"/>
          <linearGradient class="color2" id="9d09cc49-ce4b-49e4-b8a2-1f9436cf2754" gradientUnits="userSpaceOnUse" x1="4506.0786" y1="12587.2041" x2="4526.2881" y2="12259.8096" gradientTransform="matrix(0.9561 0.0166 -0.0174 0.9998 333.7173 -80.4185)">
<stop data-target="-0.19" offset="0" stop-color="#DFA182" />
<stop data-target="-0.11" offset="1" stop-color="#F3B190" />
          </linearGradient>

          <path fill="url(#9d09cc49-ce4b-49e4-b8a2-1f9436cf2754)" d="M4322.381 12446.396c-13.908-33.617-41.121-134.211-44.592-146.26 61.127-23.189 135.815-87.127 186.52-93.01 35.755 79.061 139.747 144.174 141.715 155.676-9.201 47.469-31.536 69.58-74.745 90.197-42.817 16.116-176.984 16.776-208.898-6.603z"/>
          <linearGradient class="color2" id="131bccda-effd-4617-b7be-dae6dcd18518" gradientUnits="userSpaceOnUse" x1="4510.8457" y1="12862.334" x2="4430.0132" y2="12048.6201" gradientTransform="matrix(1 -1.000000e-004 1.000000e-004 1 -2.0679 0.3779)">
<stop data-target="-0.07" offset="0" stop-color="#F8BD9C" />
<stop data-target="0.0" offset="1" stop-color="#FFD1AF" />
          </linearGradient>

          <path fill="url(#131bccda-effd-4617-b7be-dae6dcd18518)" d="M4563.488 12384.467c17.805-5.242 43.348-15.781 43.348-19.766-1.962-11.473-111.672-89.826-147.394-168.918-40.767 4.758-123.531 23.877-156.176 57.559 63.627 134.015 192.373 153.187 260.222 131.125z"/>
<linearGradient class="color2" id="0d6ba56a-d9e5-442e-b9a9-b1f857d57e4e" >
<stop data-target="-0.55" stop-color="#944D09"></stop>
</linearGradient>
          <path fill="url(#0d6ba56a-d9e5-442e-b9a9-b1f857d57e4e)" d="M4347.263 12508.473c-221.614 16.92-512.93 7.951-562.496-51.824-21.025-20.297-38.598-77.02-26.401-103.836 13.988-30.857 32.589-66.625 40.077-111.297 64.686 33.584 400.239 79.572 517.952 34.436 7.473 25.018 13.892 43.836 39.321 71.668 28.868 24.219 59.318 40.545 67.675 58.541-.675 39.237-39.908 92.491-76.128 102.312z"/>
          <linearGradient class="color2" id="43daf229-1553-468a-8b79-a21ff97bc7d3" gradientUnits="userSpaceOnUse" x1="4144.8574" y1="12564.8691" x2="4165.0635" y2="12237.5273" gradientTransform="matrix(0.9561 0.0166 -0.0174 0.9998 333.7173 -80.4185)">
<stop data-target="-0.19" offset="0" stop-color="#DFA182" />
<stop data-target="-0.11" offset="1" stop-color="#F3B190" />
          </linearGradient>

          <path fill="url(#43daf229-1553-468a-8b79-a21ff97bc7d3)" d="M4156.068 12476.928c-175.822-3.246-300.196-24.939-333.79-44.479-20.75-20.408-23.748-61.449-20.061-78.834 11.554-18.434 18.575-34.486 28.691-104.033 91.336-15.137 299.134-29.969 460.668-2.73 7.103 56.529 34.772 107.756 34.772 107.756 11.756 20.541 35.015 31.32 53.204 49.541 3.963 33.604-25.727 59.248-48.367 67.539-55.572 5.529-109.276 6.46-175.117 5.24z"/>
          <linearGradient class="color2" id="5f82d8b0-475f-4162-81b2-f1d2e930f724" gradientUnits="userSpaceOnUse" x1="4078.6987" y1="12759.9922" x2="4100.1968" y2="12125.6387" gradientTransform="matrix(1 -1.000000e-004 1.000000e-004 1 -2.0679 0.3779)">
<stop data-target="-0.07" offset="0" stop-color="#F8BD9C" />
<stop data-target="0.0" offset="1" stop-color="#FFD1AF" />
          </linearGradient>

          <path fill="url(#5f82d8b0-475f-4162-81b2-f1d2e930f724)" d="M4378.157 12418.42c13.867-22.191-34.917-34.178-51.808-63.813 0 0-22.609-51.162-29.712-107.629-161.55-27.254-371.748-18.125-463.084-2.971-10.141 69.529-19.782 91.174-31.336 109.607-.545 2.682-1.783 12.053-2.017 15.68 12.165 23.238 75.501 45.895 114.22 19.156 35.416 34.26 104.031 50.539 162.329 23.814 55.888 25.902 123.17 37.344 166.466 4.244 39.146 14.687 98.576 26.738 134.942 1.912z"/>
<linearGradient class="color2" id="a14bac08-2423-4c0e-a391-671b79deef31" >
<stop data-target="-0.55" stop-color="#944D09"></stop>
</linearGradient>
          <path fill="url(#a14bac08-2423-4c0e-a391-671b79deef31)" d="M4198.191 12480.238s10.574-4.629 12.59-6.975c4.083-4.758 7.674-11.57 10.39-18.896 2.748-7.328 4.772-15.33 5.903-23.348 1.142-7.664 1.271-16.729.033-21.148l.379.947c-3.586-9.158-8.847-17.709-15.034-26.48-6.113-8.809-28.409-46.168-31.93-55.824-3.469-9.738-6.081-19.252-7.816-29.857l14.526-3.102c1.951 8.375 4.95 17.389 8.524 25.471 3.633 8.178 7.955 15.795 13.082 22.305 0 0 12.428 17.547 19.532 26.256 7.078 8.645 14.301 18.578 19.741 30.082l.193.385.152.529c4.259 13.1 3.606 23.029 3.093 33.521-.796 10.363-2.595 20.391-5.562 30.275-3.004 9.977-7.037 19.908-13.794 29.164-3.398 4.629-7.543 9.094-12.767 12.695-2.579 1.83-17.01 6.828-17.01 6.828l-4.225-32.828zm-149.039-3.986s5.654-4.018 7.044-6.846c2.869-5.654 5.055-13.145 6.557-20.855 1.463-7.746 2.322-15.828 2.565-23.865.174-7.758-.026-16.438-1.866-21.998-4.362-14.299-12.935-31.832-16.929-50.135-4.395-18.223-5.519-37.166-4.642-55.535l14.974-4.564c.339 17.004 2.821 38.553 7.763 54.076 4.666 16.002 12.727 29.133 20.045 47.609 4.057 11.023 4.427 20.473 5.109 30.178.362 9.771.017 19.346-1.116 29.053-1.238 9.674-3.093 19.508-7.232 29.826-2.16 5.107-21.348 24.199-23.878 24.904-1.324.373-4.034.951-4.034.951l-4.36-32.799zm-121.064 12.92c-7.956-15.186-14.584-31.818-18.296-49.686-3.671-17.803-4.12-38.051 2.789-56.434 1.647-4.596 7.238-14.496 7.238-14.496l.032-.063.088-.162 3.952-7.648c3.127-6.588 5.682-13.656 7.818-21.066 4.242-14.719 7.021-30.742 8.22-46.135l14.624.291c0 17.451-1.585 34.195-5.031 51.131-1.728 8.436-4.008 16.871-7.102 25.211-.78 2.072-8.09 18.318-8.935 21.453-3.6 12.596-2.417 26.723 1.583 40.381 4.008 13.836 10.516 27.078 18.423 39.451l-25.403 17.772z"/>
        </g>
        <g>
<linearGradient class="color1" id="9d3e4d30-c861-4b6e-834f-de47a749c777" >
<stop data-target="-0.4" stop-color="#999999"></stop>
</linearGradient>
          <path fill="url(#9d3e4d30-c861-4b6e-834f-de47a749c777)" d="M6230.99 6057.12c-237.347 77.163-451.549 101.412-743.16 97.827-743.073-44.928-1102.779-178.317-1256.359-255.096-76.796 137.407-199.057 512.876-218.251 622.436 173.82 50.068 828.417 239.141 1248.872 738.277 177.836-134.725 716.742-480.947 1030.256-692.129 10.23-129.837-58.803-476.141-61.358-511.315z"/>
<linearGradient class="color1" id="8260ba52-b6a4-46b6-90a0-bbaa68afa8ab" >
<stop data-target="-0.08" stop-color="#E8EBED"></stop>
</linearGradient>
          <path fill="url(#8260ba52-b6a4-46b6-90a0-bbaa68afa8ab)" d="M5267.496 7216.117c-379.918-433.803-985.03-665.613-1193.654-730.18 27.75-132.793 134.891-396.101 181.869-525.474 185.925 88.942 638.591 222.316 1228.84 243.076l1.67.146h1.672c263.243 3.357 457.254-20.906 705.584-87.24 1.173 6.974 2.467 14.735 3.905 23.334 16.999 100.431 51.043 301.743 49.958 403.268-322.402 204.238-816.862 532.978-979.844 673.07z"/>
<linearGradient class="color1" id="42a937ec-c204-4d7c-a84b-ec76a13e0f23" >
<stop data-target="0.0" stop-color="#FFFFFF"></stop>
</linearGradient>
          <path fill="url(#42a937ec-c204-4d7c-a84b-ec76a13e0f23)" d="M6197.382 6139.779c-1.438-8.599-2.732-16.36-3.905-23.334-248.33 66.334-442.341 90.597-705.584 87.24h-1.672l-1.67-.146c-427.718-15.041-715.859-50.97-949.955-124.486-67.361 115.826-140.105 307.161-177.834 458.064 312.558 123.957 770.598 520.012 905.33 676.299 42.92-25.711 687.104-485.012 985.248-670.369 1.085-101.525-32.959-302.837-49.958-403.268z"/>
        </g>
        <g>
<linearGradient class="color1" id="c59bd208-0e2e-4951-99db-e9c42db1c28c" >
<stop data-target="-0.4" stop-color="#999999"></stop>
</linearGradient>
          <path fill="url(#c59bd208-0e2e-4951-99db-e9c42db1c28c)" d="M5995.796 3458.868c-60.444-145.41-119.555-291.027-140.966-396.954-21.75-16.262-157.043-101.477-222.387-146.116 15.007 40.22 136.215 336.422 159.781 502.093-7.648 157.22-110.097 372.625-516.45 293.292-303.007-59.182-547.088-256.8-684.261-419.69-56.917-109.672-108.449-413.795-113.127-436.548-50.905 15.649-179.088 61.368-223.679 77.324 16.228 90.661 43.032 363.128 48.977 468.156-40.541 517.903-154.728 701.093-271.302 730.08 50.804 211.02 184.097 639.549 270.797 865.737 246.772-59.519 1630.677-43.29 1795.208 10.798 4.821-37.859-2.449-270.49 4.821-340.857 111.27-75.733 188.732-235.346 188.732-422.037-11.586-259.259-217.719-618.176-296.144-785.278z"/>
<linearGradient class="color1" id="cb55371c-8079-4f38-b8f5-479588e4a40c" >
<stop data-target="-0.08" stop-color="#E8EBED"></stop>
</linearGradient>
          <path fill="url(#cb55371c-8079-4f38-b8f5-479588e4a40c)" d="M6056.584 4948.79c-166.13-25.695-587.475-39.048-964.078-39.048-178.069 0-589.044 3.261-763.086 31.913-53.493-129.02-211.445-649.929-252.863-794.519 137.423-61.993 232.905-262.182 270.547-742.453l.24-3.646-2.724-47.438c-4.241-75.236-33.769-378.122-38.75-401.275 17.965-2.105 107.036-37.78 139.809-43.323 19.226 81.036 44.327 289.677 108.651 407.8l2.378 4.355 3.117 3.711c69.964 83.078 327.849 359.996 708.469 434.283 60.243 11.746 116.854 17.74 168.218 17.74 354.412 0 395.146-272.771 399.188-356.347l.247-5.157-.722-5.11c-15.05-106.12-90.966-285.691-114.595-388.951 21.54 12.035 89.601 52.866 103.556 60.869 5.576 28.86 80.506 275.97 129.573 389.515l1.261 5.142 2.217 4.66c14.246 30.338 32.074 65.835 52.733 106.924 91.19 181.354 228.894 455.299 238.431 656.933-.354 161.237-66.123 310.005-167.817 379.213l-18.204 12.374-2.42 23.669c-4.308 41.685-3.896 127.493-3.52 210.506.144 25.323.225 53.748.144 77.66z"/>
<linearGradient class="color1" id="c91eb64d-d2a3-477b-81b5-fd0e593bf49c" >
<stop data-target="0.0" stop-color="#FFFFFF"></stop>
</linearGradient>
          <path fill="url(#c91eb64d-d2a3-477b-81b5-fd0e593bf49c)" d="M6059.67 4640.183c-215.566 86.258-377.253-211.5-571.246-211.5-344.135 0-618.369 290.994-1285.251 129.339 34.001 105.397 107.895 339.428 126.247 383.633 174.042-28.651 585.018-31.913 763.086-31.913 376.604 0 797.948 13.353 964.078 39.048.081-23.912 0-52.337-.145-77.662-.377-83.014-.788-168.822 3.52-210.506l-.289-20.439z"/>
<linearGradient class="color1" id="2afeee1c-e3ad-445b-873e-29921a28f383" >
<stop data-target="0.0" stop-color="#FFFFFF"></stop>
</linearGradient>
          <path fill="url(#2afeee1c-e3ad-445b-873e-29921a28f383)" d="M5396.83 4451.597c261.354 45.796 499.812 98.343 689.771 5.399 63.216-30.949 141.463-72.792 161.549-214.361-10.62-201.345-147.4-473.62-238.181-654.202-20.659-41.089-38.487-76.586-52.733-106.924l-2.217-4.66-1.261-5.142c-49.067-113.545-123.997-360.654-129.573-389.515-13.955-8.003-82.016-48.834-103.556-60.869 23.629 103.26 99.545 282.831 114.595 388.951l.722 5.11-.247 5.157c-4.041 83.576-44.775 356.347-399.188 356.347-51.363 0-107.975-5.994-168.218-17.74-380.62-74.287-638.505-351.205-708.469-434.283l-3.117-3.711-2.378-4.355c-64.324-118.123-89.425-326.764-108.651-407.8-29.301 7.103-124.888 38.566-147.523 46.472 6.068 33.345 42.224 322.891 46.464 398.126l2.724 47.438-.24 3.646c-13.241 168.789-36.125 369.234-42.88 458.176-48.513 363.755 128.006 545.626 412.249 602.188 254.559 50.699 444.576 12.134 680.358-13.448z"/>
        </g>
        <g>
          <g>
<linearGradient class="color2" id="68bbae2d-2e8a-4cc9-966e-52abd56cf1ac" >
<stop data-target="-0.55" stop-color="#944D09"></stop>
</linearGradient>
            <path fill="url(#68bbae2d-2e8a-4cc9-966e-52abd56cf1ac)" d="M4259.753 5204.688c-32.322 0-135.824 10.059-237.1 14.832-373.155 17.516-708.653 53.88-840.668 2.684-97.596-37.843-168.203-97.988-207.484-134.722-89.07-83.27-126.904-150.663-115.086-226.349 12.605-80.812 175.7-367.787 462.766-301.101 150.107 2.539 376.513 107.084 376.513 107.084s231.386 44.479 458.974 53.38c19.995 112.131 100.791 321.076 102.085 484.192z"/>
            <linearGradient class="color2" id="52b5506d-d904-42eb-aee1-e8ea2b2db972" gradientUnits="userSpaceOnUse" x1="3558.5806" y1="5664.0498" x2="3525.7671" y2="4624.9351">
<stop data-target="-0.07" offset="0" stop-color="#F8BD9C" />
<stop data-target="0.0" offset="1" stop-color="#FFD1AF" />
            </linearGradient>

            <path fill="url(#52b5506d-d904-42eb-aee1-e8ea2b2db972)" d="M3217 5189.842c-81.269-24.619-178.68-106.893-214.553-140.766-78.989-74.448-105.06-126.368-95.292-182.544 7.329-42.101 119.514-314.663 402.402-320.642 136.876 2.716 365.364 149.506 367.188 150.536 0 0 157.565 45.505 447.682 59.166 14.021 83.784 41.675 264.433 47.484 413.617-5.865.835-52.063-.482-181.588 9.899-317.502 25.371-634.897 49.137-773.323 10.734z"/>
          </g>
          <g>
<linearGradient class="color2" id="7f1b87f5-efb1-4547-a094-4ea574c404e5" >
<stop data-target="-0.55" stop-color="#944D09"></stop>
</linearGradient>
            <path fill="url(#7f1b87f5-efb1-4547-a094-4ea574c404e5)" d="M4043.367 4741.194c20.727-44.4 47.869-126.496 68.863-150.856 12.325-14.207 109.542-117.851 127.33-151.547 18.632-31.497 39.033-108.321 50.513-198.052 15.94-59.198 164.605 2.635 165.712 127.299 1.136 127.846-51.909 231.508-80.842 297.085-31.441 9.737-308.622 67.49-331.576 76.071z"/>
            <linearGradient class="color2" id="1cd8b733-e7a7-4389-93e8-c8ad70dc9a70" gradientUnits="userSpaceOnUse" x1="4066.8154" y1="4494.6523" x2="4232.6064" y2="4548.5347" gradientTransform="matrix(0.9986 0.053 -0.053 0.9986 345.3267 -250.1558)">
<stop data-target="-0.07" offset="0" stop-color="#F8BD9C" />
<stop data-target="0.0" offset="1" stop-color="#FFD1AF" />
            </linearGradient>

            <path fill="url(#1cd8b733-e7a7-4389-93e8-c8ad70dc9a70)" d="M4098.773 4687.202c14.196-36.927 39.617-74.144 53.413-93.845 7.046-10.026 39.047-46.343 59.744-68.083 22.376-23.573 41.104-45.668 47.139-54.393 25.638-37.056 50.513-119.715 57.013-203.757 21.067-24.906 93.916 18.608 102.593 90.454 7.866 65.352-15.9 159.63-43.853 225.256 0 0 51.75 2.539 53.832 17.338-7.135 1.927-252.06 68.003-329.881 87.03z"/>
<linearGradient class="color2" id="5ba3755e-51c4-4825-9cb7-43f10c5d0dd0" >
<stop data-target="-0.55" stop-color="#944D09"></stop>
</linearGradient>
            <path fill="url(#5ba3755e-51c4-4825-9cb7-43f10c5d0dd0)" d="M3960.667 4707.544c52.521-35.062 153.596-107.774 153.596-107.774s26.956-8.051 47.637-17.869c48.922-23.075 85.392-19.909 139.327-30.644 113.222 11.184 177.948-15.233 299.832 12.581 50.016 152.737 38.775 309.571 40.639 541.801.434 55.116-7.184 125.595-22.241 147.529-70.029 48.513-246.122 59.119-311.193 52.562-83.913-12.405-303.167-71.925-339.507-88.925 60.629-40.43 137.866-291.38-8.09-509.261z"/>
            <linearGradient class="color2" id="1bcfbc9a-0f2c-47f2-8539-507176b5946a" gradientUnits="userSpaceOnUse" x1="4590.6089" y1="4919.5737" x2="3774.1663" y2="4869.2446">
<stop data-target="-0.07" offset="0" stop-color="#F8BD9C" />
<stop data-target="0.0" offset="1" stop-color="#FFD1AF" />
            </linearGradient>

            <path fill="url(#1bcfbc9a-0f2c-47f2-8539-507176b5946a)" d="M4324.43 5265.3c-129.332-21.532-272.369-63.311-328.7-83.495-51.213-48.495-102.407-320.673-21.572-436.532 66.751-52.834 293.308-206.118 324.063-205.86 115.192 9.899 213.027 15.218 323.302 40.318 17.764 169.398-17.675 570.226-68.196 656.388-22.009 12.905-135.062 25.325-228.897 29.181z"/>
            <linearGradient class="color2" id="a6076063-d178-47e6-98ab-a4b6d1f76392" gradientUnits="userSpaceOnUse" x1="4596.0103" y1="4878.957" x2="4106.0269" y2="4972.2891" gradientTransform="matrix(0.9986 0.053 -0.053 0.9986 345.3267 -250.1558)">
<stop data-target="-0.07" offset="0" stop-color="#F8BD9C" />
<stop data-target="0.0" offset="1" stop-color="#FFD1AF" />
            </linearGradient>

            <path fill="url(#a6076063-d178-47e6-98ab-a4b6d1f76392)" d="M4621.522 4579.732c-110.274-25.1-165.614-21.951-280.783-31.849-.594 0-42.429 16.631-43.064 16.679-20.36 189.133 5.205 334.333 21.372 567.383-10.774 44.43-21.558 101.057 1.34 133.355 31.666 4.869 220.459-3.278 273.632-49.332 4.281-29.583 5.214-45.764 4.515-85.712-2.184-124.375 39.943-389.047 22.988-550.524z"/>
<linearGradient class="color2" id="e80a207c-479b-4bda-9433-e5487af5461e" >
<stop data-target="-0.55" stop-color="#944D09"></stop>
</linearGradient>
            <path fill="url(#e80a207c-479b-4bda-9433-e5487af5461e)" d="M4352.936 4732.613c18.215 7.392 247.254-17.677 283.306-14.768 18.809 5.833 61.375 32.829 73.492 48.288 14.84 39.723 4.718 115.214-11.455 167.744-6.879 9.417-18.183 20.231-18.183 20.231s14.782 10.895 14.141 22.208c-.361 55.164-21.349 143.946-46.471 155.628-87.41 22.561-223.867 19.956-266.072 13.48-16.842-29.629-26.798-360.812-28.758-412.811z"/>
            <linearGradient class="color2" id="59bfae50-9a5c-4238-a9a4-ad7a24101a39" gradientUnits="userSpaceOnUse" x1="4810.7314" y1="4963.6147" x2="4112.6958" y2="4977.3018" gradientTransform="matrix(0.9986 0.053 -0.053 0.9986 345.3267 -250.1558)">
<stop data-target="-0.07" offset="0" stop-color="#F8BD9C" />
<stop data-target="0.0" offset="1" stop-color="#FFD1AF" />
            </linearGradient>

            <path fill="url(#59bfae50-9a5c-4238-a9a4-ad7a24101a39)" d="M4327.145 5138.677c2.685-75.46-6.419-123.474-8.097-175.152-4.878-70.575-13.474-142.806-24.241-218.25 25.445 1.318 58.04 18.143 58.04 18.143s140.477 3.293 206.006 6.123c19.193 8.805 86.766-.096 100.85 4.66 20.28 37.536 21.75 109.847-2.499 158.328-15.891 8.21-51.847 16.325-51.847 16.325s20.866 7.537 41.956 10.814c8.478 39.338 6.836 116.983-20.432 148.028-65.192 24.778-261.733 36.187-299.736 30.981z"/>
<linearGradient class="color2" id="b374f54a-db1e-4cc9-b63b-735ec984c563" >
<stop data-target="-0.55" stop-color="#944D09"></stop>
</linearGradient>
            <path fill="url(#b374f54a-db1e-4cc9-b63b-735ec984c563)" d="M4376.968 4962.19c-10.767 1.334-3.037 10.124 3.037 13.113 80.826 0 202.084 3.052 275.898-16.857 4.136-7.874 10.668-19.988 13.802-28.489-93.682 29.197-207.861 32.233-292.737 32.233zm-10.108-201.843c-5.263-1.349-22.762-11.972-27.005-12.18-3.302 15.973-1.686 34.725 1.753 58.394 6.058-22.222 14.141-40.428 25.252-46.214z"/>
<linearGradient class="color2" id="72750662-7591-4f40-bcf1-d1ce71bdec43" >
<stop data-target="-0.55" stop-color="#944D09"></stop>
</linearGradient>
            <path fill="url(#72750662-7591-4f40-bcf1-d1ce71bdec43)" d="M4292.091 4540.522c64.671-16.841 250.58-16.841 313.933-8.099 41.741 11.441 75.076 25.598 82.154 33.681 21.477 35.448 35.358 130.336 7.07 193.021-28.299 22.176-64.565 35.336-88.918 35.336-20.721 0-233.838-20.279-267.028-26.337-26.096-28.361-89.497-107.502-47.211-227.602z"/>
            <linearGradient class="color2" id="04b04977-b9c8-4f1d-95c7-112fffef6b53" gradientUnits="userSpaceOnUse" x1="4705.9727" y1="4671.7061" x2="4327.6577" y2="4657.5898">
<stop data-target="-0.07" offset="0" stop-color="#F8BD9C" />
<stop data-target="0.0" offset="1" stop-color="#FFD1AF" />
            </linearGradient>

            <path fill="url(#04b04977-b9c8-4f1d-95c7-112fffef6b53)" d="M4610.049 4766.839s-238.136 3.342-305.826-9.77c-26.749-51.244-46.761-133.582-2.033-192.99 66.027-6.058 247.688-4.932 298.868-.241 22.891 7.44 37.609 13.354 58.828 22.449 12.026 42.005 16.914 135.27 2.018 159.661-18.19 12.166-51.855 20.891-51.855 20.891z"/>
            <linearGradient class="color2" id="2894ab79-9034-41ae-97ca-d5bc58b8b999" gradientUnits="userSpaceOnUse" x1="4742.4395" y1="4673.1045" x2="4632.4976" y2="4666.7036">
<stop data-target="-0.07" offset="0" stop-color="#F8BD9C" />
<stop data-target="0.0" offset="1" stop-color="#FFD1AF" />
            </linearGradient>

            <path fill="url(#2894ab79-9034-41ae-97ca-d5bc58b8b999)" d="M4659.887 4586.288c-21.533-13.466-57.189-22.754-57.913-22.883 26.265 37.714 28.957 149.555 6.734 203.435 14.558-1.381 35.006-8.726 53.196-20.891 14.897-24.392 10.009-117.657-2.017-159.661z"/>
          </g>
        </g>
        <g>
          <g>
            <path d="M4498.627 1636.172c.536-25.421-30.027-93.537-36.911-119.264-9.425-21.211-1.751-47.34-4.114-76.81-8.459-7.843-20.335-15.459-28.796-23.3-6.877-28.924 19.75-25.421 8.227-53.478-9.367-8.276-29.887-11.603-30.007-36.991-1.053-26.449 8.115-61.833 16.165-72.76-2.104-15.219-14.584-31.464-16.326-46.568-2.82-24.603 42.406-33.136 2.747-58.974-21.348-13.885-29.181-27.849-28.794-50.714.207-15.298 26.884-23.091 23.523-37.73-11.184-48.657 31.73-55.084 18.978-85.679-20.568-49.365 6.861-58.973 45.693-81.375 25.838-14.896-25.116-14.622 3.681-39.304-8.229-23.301 7.535-47.083 19.192-56.209 14.424-2.78 17.01-11.346 31.536-13.723 8.534-12.935-16.399-28.378-7.462-40.911 9.575-13.401 49.331-10.317 63.414-27.125 10.358-3.921 1.343-19.105 11.925-22.464 11.071-11.956 4.997-25.984 16.456-37.022 14.621 1.06 26.907 5.783 39.079 14.396 34.886 16.103-3.302-30.209 12.615-41.361 15.185-10.669 38.397-3.31 58.572-17.032 11.521-7.858 4.139-40.012 16.575-39.643 45.251 1.365 30.169-27.429 58.967-42.502 34.659-18.159 48.325 13.499 74.045 6.845 14.886-3.824 27.652-17.195 32.9-31.527 10.348-28.443 39.771-5.496 71.307-2.748 20.649 1.798 26.306-14.253 53.478-17.821 29.985-3.952 15.428 20.698 38.396 20.569 21.99-.162 17.131-25.903 50.738-12.342 7.648 3.086 59.367-4.29 67.185-4.113 35.819.803 27.801 26.256 47.997 27.414 20.248 1.189 41.651-8.372 54.155-6.974 13.329 1.542 23.435 26.401 43.199 30.273 15.421 3.021 30.437-28.426 45.253-24.682 6.916 12.374 9.6 21.951 22.062 23.011 28.966 9.288 26.747-10.734 60.21 5.785 22.844 11.313 72.271 35.513 80.9 66.719 12.133 44.093 56.369-9.095 81.084 4.628 28.894 16.069 41.941 77.485 81.221 67.682 46.439-11.602 11.105 40.96 46.602 63.922 26.135 16.906 36.629 58.043 36.901 57.335-15.868 40.252 20.159 29.826 29.809 52.37 19.637 45.298-28.796 59.648 24.683 87.753 26.063 13.69-25.711 10.974-3.086 43.192 9.111 12.985 20.607 14.11 22.626 29.824-16.802 12.341 13.023 27.768 7.2 48.337-5.145 12.34-13.371 9.255-13.371 32.908 4.114 20.569 15.29 7.842 25.196 17.484-4.86 10.251-16.833 23.895-22.111 33.937.064 52.129-19.058 50.553-11.674 96.045 1.544 9.4 19.636 35.463 21.96 43.82 10.282 37.022-26.411 71.539-30.854 100.785-3.762 24.6-18.343 59.021-20.568 76.103-5.487 42.02-5.543 75.702-29.809 116.115-7.311 12.229-9.304 76.794-10.767 80.858-11.513 5.753-1219.64 147.161-1226.896 143.272-24.764-13.305-45.068-162.667-44.906-170.236z"/>
            <g>
<linearGradient class="color2" id="5f639f02-05a0-4b75-8178-d9d4a1084d8e" >
<stop data-target="-0.55" stop-color="#944D09"></stop>
</linearGradient>
              <path fill="url(#5f639f02-05a0-4b75-8178-d9d4a1084d8e)" d="M5793.614 1753.732c-30.138 131.252-101.548 227.523-159.526 215.117-58.032-12.455-80.682-128.923-50.543-260.239 30.088-131.22 101.547-227.521 159.477-215.099 58.041 12.421 80.681 128.937 50.592 260.221z"/>
              <linearGradient class="color2" id="b12e062b-296c-4b1e-8431-8fbd716a4a58" gradientUnits="userSpaceOnUse" x1="5588.3389" y1="1744.5898" x2="5775.1436" y2="1744.5898">
<stop data-target="-0.07" offset="0" stop-color="#F8BD9C" />
<stop data-target="0.0" offset="1" stop-color="#FFD1AF" />
              </linearGradient>

              <path fill="url(#b12e062b-296c-4b1e-8431-8fbd716a4a58)" d="M5634.275 1956.235c33.566.997 98.403-72.809 127.756-195.175 14.316-59.68 17.064-119.971 7.479-165.318-8.903-42.294-25.509-60.065-37-62.444-1.075-.226-2.169-.322-3.198-.354-33.518-.98-98.382 72.841-127.747 195.175-14.528 60.579-17.177 119.297-7.505 165.319 8.927 42.326 25.526 60.097 37.024 62.476 1.052.192 2.121.289 3.191.321z"/>
              <linearGradient class="color2" id="d8c0c2d7-90e5-4707-8c0a-e4e3d904888f" gradientUnits="userSpaceOnUse" x1="5618.2334" y1="1737.771" x2="5743.4717" y2="1737.771">
<stop data-target="-0.19" offset="0" stop-color="#DFA182" />
<stop data-target="-0.11" offset="1" stop-color="#F3B190" />
              </linearGradient>

              <path fill="url(#d8c0c2d7-90e5-4707-8c0a-e4e3d904888f)" d="M5624.326 1725.484c-14.855 66.219-1.615 125.467 29.624 132.28 31.175 6.765 68.583-41.394 83.424-107.694 14.87-66.205 1.614-125.5-29.648-132.282-31.166-6.829-68.55 41.395-83.4 107.696z"/>
            </g>
            <g>
<linearGradient class="color2" id="7346ca59-5a7f-4929-a901-3d3b6db84fec" >
<stop data-target="-0.55" stop-color="#944D09"></stop>
</linearGradient>
              <path fill="url(#7346ca59-5a7f-4929-a901-3d3b6db84fec)" d="M4457.836 1767.521c26.482 131.058 95.233 228.565 153.555 217.927 58.349-10.67 84.13-125.5 57.688-256.526-26.498-130.962-95.241-228.55-153.548-217.848-58.34 10.638-84.153 125.484-57.695 256.447z"/>
              <linearGradient class="color2" id="49ab9273-bc95-43c7-a078-4f01aa454646" gradientUnits="userSpaceOnUse" x1="4553.4404" y1="1759.4932" x2="4329.2441" y2="1728.6406">
<stop data-target="-0.07" offset="0" stop-color="#F8BD9C" />
<stop data-target="0.0" offset="1" stop-color="#FFD1AF" />
              </linearGradient>

              <path fill="url(#49ab9273-bc95-43c7-a078-4f01aa454646)" d="M4611.55 1972.948c-33.566 0-96.348-75.044-122.364-197.201-12.654-59.551-13.731-119.392-2.916-164.097 10.057-41.715 27.132-58.813 38.693-60.836 1.069-.194 2.152-.258 3.182-.258 33.575 0 96.34 75.011 122.357 197.199 12.864 60.453 13.9 118.751 2.965 164.098-10.099 41.682-27.181 58.844-38.766 60.837-1.044.208-2.082.258-3.151.258z"/>
              <linearGradient class="color2" id="cabe1742-7c8c-4b4a-bb86-eb630f6c4ee8" gradientUnits="userSpaceOnUse" x1="4509.4087" y1="1755.0024" x2="4632.5693" y2="1755.0024">
<stop data-target="-0.19" offset="0" stop-color="#DFA182" />
<stop data-target="-0.11" offset="1" stop-color="#F3B190" />
              </linearGradient>

              <path fill="url(#cabe1742-7c8c-4b4a-bb86-eb630f6c4ee8)" d="M4627.846 1744.43c13.047 66.091-1.864 124.422-33.288 130.304-31.359 5.849-67.387-43.001-80.434-109.173-13.032-66.092 1.873-124.471 33.279-130.289 31.368-5.85 67.387 43.001 80.443 109.158z"/>
            </g>
<linearGradient class="color2" id="5f28877e-e371-4343-b539-d4ea8251ab24" >
<stop data-target="-0.55" stop-color="#944D09"></stop>
</linearGradient>
            <path fill="url(#5f28877e-e371-4343-b539-d4ea8251ab24)" d="M5737.243 1293.483c-10.122-365.347-212.745-624.315-567.444-633.859-311.468-8.356-640.634 172.534-656.896 565.436-2.435 58.494 11.426 92.816 37.079 316.947 10.832 94.744-37.545 265.253 16.602 435.214 67.696 183.943 130.343 310.39 253.038 476.062 65.811 88.862 179.161 164.82 317.179 168.757 118.887 3.408 243.856-72.745 345.564-208.125 157.188-248.556 190.939-346.256 221.639-522.051 41.361-199.707 4.39-226.96 17.927-355.143 5.438-100.319 18.02-145.699 15.312-243.238z"/>
            <linearGradient class="color2" id="44d93723-c5e2-434a-b9d3-4f646cad7e59" gradientUnits="userSpaceOnUse" x1="4251.4463" y1="1617.8418" x2="4868.4746" y2="1628.6171">
<stop data-target="-0.19" offset="0" stop-color="#DFA182" />
<stop data-target="-0.11" offset="1" stop-color="#F3B190" />
            </linearGradient>

            <path fill="url(#44d93723-c5e2-434a-b9d3-4f646cad7e59)" d="M5138.825 2583.65c-95.892 0-201.038-44.333-262.014-117.866-118.854-143.337-201.546-297.502-269.334-467.48-40.894-102.585-39.514-221.239-38.332-286.673.626-33.712.297-69.611-3.542-103.195-20.746-181.581-29.777-310.181-26.772-382.155 14.59-352.698 325.229-543.004 610.094-543.004 5.696 0 11.374.032 17.023.208 316.143 8.517 543.881 263.5 553.805 620.121 1.396 50.456-5.336 92.397-12.473 136.716-5.879 36.477-11.93 74.142-14.461 119.713-5.84 56.402 3.545 88.444 2.975 127.91-.771 48.851-.25 80.056-23.349 191.543-24.964 142.918-69.772 318.52-262.142 564.715-67.377 86.243-167.93 139.447-271.478 139.447z"/>
            <linearGradient class="color2" id="e2c3cdca-0031-4214-9f6b-f36d81c2d42d" gradientUnits="userSpaceOnUse" x1="4645.2603" y1="1618.5586" x2="5719.9395" y2="1618.5586">
<stop data-target="-0.07" offset="0" stop-color="#F8BD9C" />
<stop data-target="0.0" offset="1" stop-color="#FFD1AF" />
            </linearGradient>

            <path fill="url(#e2c3cdca-0031-4214-9f6b-f36d81c2d42d)" d="M5707.281 1440.323c7.137-44.318 13.869-86.26 12.473-136.716-9.924-356.62-237.662-611.604-553.805-620.121-5.649-.176-11.327-.208-17.023-.208-109.391 0 60.418 131.333-18.737 262.504-71.989 119.297-255.048 78.159-296.186 113.125-51.878 44.095-91.834 88.509-123.41 129.582-14.398 30.853-34.966 207.74 16.455 271.502-16.455 82.274-47.838 129.709-63.127 216.321-16.156 64.63-32.323 199.386 0 299.078 59.311 185.885 121.249 264.046 202.1 409.566 97.532 181.131 339.483 204.769 458.049 126.625 40.422-26.933 51.195-35.063 86.235-67.377 192.369-246.195 237.178-421.797 262.142-564.715 23.099-111.487 22.577-142.692 23.349-191.543.57-39.466-8.814-71.508-2.975-127.91 2.531-45.571 8.581-83.236 14.46-119.713z"/>
            <linearGradient class="color2" id="c3679d01-b76e-4576-a186-4cd1083c0b6c" gradientUnits="userSpaceOnUse" x1="5140.9375" y1="1360.3057" x2="5140.9375" y2="1690.4615">
<stop data-target="-0.19" offset="0" stop-color="#DFA182" />
<stop data-target="-0.11" offset="1" stop-color="#F3B190" />
            </linearGradient>

            <path fill="url(#c3679d01-b76e-4576-a186-4cd1083c0b6c)" d="M5589.473 1494.411c-143.48-52.514-151.557-32.347-250.58-16.181-28.5 18.045-74.545 26.882-103.075 34.37-50.514 10.108-111.134 30.307-189.953-10.091-52.569-6.75-146.99-31.608-201.393-41.746-83.605-14.688-43.547-15.332-81.526-10.815-25.244 8.709-48.495 2.04-86.885 32.346-21.911 52.963-31.325 88.91 32.323 119.232 37.264-4.498 94.727-65.368 243.678 6.798 1.014 17.29-161.316 111.887-161.316 111.887s156.89 47.196 270.625-18.318c-2.023 69.676 11.059 130.482 2.941 214.04-21.186 35.353-98.15 80.988-61.633 117.08 7.633 7.874 27.872 6.7 36.621 8.196 16.069 3.005.042-21.034 33.602-15.024 47.621 8.531 34.387 35.834 87.607 28.553 21.92-3.02 30.7-3.02 48.224-10.524 23.999-10.284 42.751-11.746 56.908-3.647 6.62 1.269 22.73-6.589 29.793-13.659 11.216-34.742-22.608-31.399-48.498-25.775-44.519 9.802-56.192 8.838-93.714 10.026-20.456.628-59.046-12.163-64.912-25.662-5.814-31.575 18.804-165.768 20.2-189.967 2.056-34.838-3.495-109.045-2.024-129.34 9.48-55.713 101.049-47.485 101.049-2.009 0 18.399 4.051 50.52 4.051 50.52 162.104 56.322 268.793 3.247 365.77-78.818 21.968-22.626 82.049-109.271 12.117-141.472z"/>
<linearGradient class="color2" id="f5cac0e2-4cc6-4a0a-b353-4c66b6502b71" >
<stop data-target="-0.55" stop-color="#944D09"></stop>
</linearGradient>
            <path fill="url(#f5cac0e2-4cc6-4a0a-b353-4c66b6502b71)" d="M5047.038 2026.36c12.276-10.734 54.804-4.58 65.964 2.281 11.417 7.135 24.465 16.181 46.535 16.568 10.438.256 35.361-9.963 46.03-15.894 11.419-6.299 52.698-14.332 59.056 1.174-16.039-9.979-48.635 5.833-58.414 12.212-12.403 8.051-28.793 21.324-44.881 22.514-21.739 1.655-41.954-14.398-54.016-23.107-11.078-7.953-43.417-19.379-60.274-15.748z"/>
<linearGradient class="color2" id="7369df09-f587-406e-bf53-927362690de5" >
<stop data-target="-0.55" stop-color="#944D09"></stop>
</linearGradient>
            <path fill="url(#7369df09-f587-406e-bf53-927362690de5)" d="M5069.617 2040.276c-105.166 15.781-64.293-49.589-2.934-76.616-45.29 40.557-63.891 76.616 2.934 76.616zm181.458 3.279c50.866-14.527 42.116-52.29 1.454-81.375 49.412 24.715 85.721 77.052-1.454 81.375z"/>
            <path d="M5776.363 1130.448c-20.455-262.986-224.947-562.803-639.018-547.024-357.6 13.596-565.396 231.958-613.443 457.6-40.912 192.009-5.037 414.404-.546 474.262 8.139-3.005 14.286-3.198 19.139-1.72 1.061 45.637 13.659 102.456 52.938 168.146-13.473-110.506 13.491-106.473 8.083-179.202-6.708-72.76 30.974-48.528 20.207-157.638 18.24-40.14 13.676-78.464 6.935-123.168 4.941-14.414 11.554-29.487 19.211-43.886 15.571-6.523 30.306-12.79 42.211-17.45 32.405-12.662 113.457-110.458 160.436-134.368 72.922-37.088 120.814 18.833 271.662-53.656 24.908 21.95 69.443 35.979 97.193 39.949 31.625 4.515 109.703-21.935 148.092 19.202 46.906 50.265 155.991 93.152 195.16 107.614 12.912 31.48 19.844 61.353 42.6 73.759 2.642 1.446 5.615 3.502 8.7 5.833 2.297 24.183 7.11 45.458 18.247 61.512 24.24 35.03 54.843 110.17 49.147 142.147-14.144 79.477 18.189 169.046 22.224 225.641 17.531-41.779 18.197-82.481 22.938-126.624.619-5.818.234-11.57-.514-17.291 4.114-5.833 10.34-9.673 20.721-9.673 1.252-59.843 40.984-193.055 27.677-363.965z"/>
          </g>
          <g>
            <g>
<linearGradient class="color1" id="ac9f714f-b6de-42f5-b613-b113ac8fb14c" >
<stop data-target="-0.17" stop-color="#CAD6DD"></stop>
</linearGradient>
              <path fill="url(#ac9f714f-b6de-42f5-b613-b113ac8fb14c)" d="M4720.669 1603.922c90.998-38.276 234.422 1.686 280.387 26.079 20.528 47.308 11.617 54.555 12.574 75.236-36.975 21.822-214.908 47.966-295.59-10.958-7.986-11.281-10.558-25.953-10.558-25.953s7.979-42.823 13.187-64.404z"/>
<linearGradient class="color1" id="562c2ed8-b59a-48a2-82d2-0addb9b71890" >
<stop data-target="0.0" stop-color="#FFFFFF"></stop>
</linearGradient>
              <path fill="url(#562c2ed8-b59a-48a2-82d2-0addb9b71890)" d="M4788.824 1620.777c-38.758 14.414-79.293 55.213-32.507 95.177 97.192 32.348 193.56 13.835 243.8-4.323-10.244-105.974-118.662-120.902-211.293-90.854z"/>
              <g>
<linearGradient class="color3" id="5e6311db-6c26-461b-b1c5-ff66dbeb8faf" >
<stop data-target="-0.23" stop-color="#321908"></stop>
</linearGradient>
                <path fill="url(#5e6311db-6c26-461b-b1c5-ff66dbeb8faf)" d="M4795.479 1663.039c1.316 40.911 34.668 73.083 74.536 71.7 39.795-1.366 71.056-35.641 69.732-76.585-1.305-40.975-34.71-73.114-74.488-71.764-39.885 1.382-71.09 35.705-69.78 76.649z"/>
                <linearGradient class="color3" id="dad2117e-f828-42c4-bf18-88055e39dcf6" gradientUnits="userSpaceOnUse" x1="5017.0469" y1="1590.2261" x2="5017.0469" y2="1703.9768" gradientTransform="matrix(0.9995 -0.033 0.033 0.9995 -201.7192 166.8179)">
<stop data-target="0.0" offset="0" stop-color="#42210B" />
<stop data-target="-0.53" offset="1" stop-color="#94561D" />
                </linearGradient>

                <path fill="url(#dad2117e-f828-42c4-bf18-88055e39dcf6)" d="M4800.869 1662.847c1.222 37.89 32.073 67.554 68.961 66.333 36.854-1.269 65.714-32.974 64.508-70.896-1.206-37.827-32.089-67.555-68.903-66.333-36.87 1.268-65.755 33.006-64.566 70.896z"/>
                <linearGradient class="color3" id="5a7d4521-e92c-4552-8e35-b8d61c6da1a3" gradientUnits="userSpaceOnUse" x1="5020.3379" y1="1597.9746" x2="5020.3379" y2="1708.8169" gradientTransform="matrix(0.9995 -0.033 0.033 0.9995 -201.7192 166.8179)">
<stop data-target="0.0" offset="0" stop-color="#42210B" />
<stop data-target="-0.39" offset="1" stop-color="#C46C1B" />
                </linearGradient>

                <path fill="url(#5a7d4521-e92c-4552-8e35-b8d61c6da1a3)" d="M4879.496 1646.327c-52.224-28.088-81.551 21.404-68.183 50.635 12.263 19.973 33.923 33.054 58.518 32.217 36.854-1.269 65.714-32.974 64.508-70.896-.056-1.543-.426-2.941-.603-4.467-2.555 23.879-46.609 54.393-54.24-7.489z"/>
<linearGradient class="color4" id="f2627d2f-223e-45f0-9fb0-ecc87aac5cd7" >
<stop data-target="0.0" stop-color="#211106"></stop>
</linearGradient>
                <path fill="url(#f2627d2f-223e-45f0-9fb0-ecc87aac5cd7)" d="M4835.482 1661.689c.601 18.191 15.434 32.508 33.199 31.881 17.715-.61 31.623-15.875 31.053-34.099-.595-18.222-15.442-32.555-33.158-31.945-17.772.676-31.656 15.909-31.094 34.163z"/>
              </g>
<linearGradient class="color1" id="3289fd6d-cdc4-484b-a4bb-b77588e70fac" >
<stop data-target="0.0" stop-color="#FFFFFF"></stop>
</linearGradient>
              <path fill="url(#3289fd6d-cdc4-484b-a4bb-b77588e70fac)" d="M4781.698 1641.458c.386 13 11.031 23.252 23.694 22.803 12.662-.451 22.608-11.313 22.191-24.361-.409-13.048-11.063-23.299-23.677-22.866-12.695.466-22.649 11.392-22.208 24.424z"/>
              <path d="M5015.366 1632.186c-14.173-12.019-28.162-21.435-45.098-29.438-75.958-31.575-131.92-31.495-206.238-18.664-28.048 3.424-50.593 8.887-65.979 7.496-1.159 17.226 4.346 29.551 11.536 37.658-4.17 17.982-8 37.545-7.735 53.085 5.72 9.529 8.523 15.057 35.896 25.838-12.323-10.348-23.493-20.632-25.004-27.461-1.71-18.353 23.109-53.961 46.247-63.521 88.661-28.041 175.169-3.327 203.106 9.577 16.575 7.97 32.242 20.633 36.386 27.703 7.111 12.615 12.994 43.243 15.332 58.75 5.617-21.631 7.578-61.723 1.551-81.023z"/>
            </g>
            <g>
<linearGradient class="color1" id="68c2c247-0d24-4e03-b2fd-51fd48b0431c" >
<stop data-target="-0.17" stop-color="#CAD6DD"></stop>
</linearGradient>
              <path fill="url(#68c2c247-0d24-4e03-b2fd-51fd48b0431c)" d="M5552.723 1603.922c-91.008-38.276-234.422 1.686-280.405 26.079-20.511 47.308-11.601 54.555-12.565 75.236 36.983 21.822 214.916 47.966 295.583-10.958 7.994-11.281 10.572-25.953 10.572-25.953s-8.01-42.823-13.185-64.404z"/>
<linearGradient class="color1" id="9f175321-97b0-458f-9598-19c341267b52" >
<stop data-target="0.0" stop-color="#FFFFFF"></stop>
</linearGradient>
              <path fill="url(#9f175321-97b0-458f-9598-19c341267b52)" d="M5484.574 1620.777c38.744 14.414 79.285 55.213 32.533 95.177-97.229 32.348-193.594 13.835-243.832-4.323 10.235-105.974 118.62-120.902 211.299-90.854z"/>
              <g>
<linearGradient class="color3" id="646c0dcd-e79e-4a4d-89be-ef1deab5d74d" >
<stop data-target="-0.23" stop-color="#321908"></stop>
</linearGradient>
                <path fill="url(#646c0dcd-e79e-4a4d-89be-ef1deab5d74d)" d="M5477.882 1663.039c-1.294 40.911-34.644 73.083-74.521 71.7-39.77-1.366-71.049-35.641-69.707-76.585 1.294-40.975 34.693-73.114 74.48-71.764 39.85 1.382 71.075 35.705 69.748 76.649z"/>
                <linearGradient class="color3" id="cafcab8b-c20a-4e52-b9de-3efd0ab55ea4" gradientUnits="userSpaceOnUse" x1="4700.8418" y1="1579.7861" x2="4700.8418" y2="1693.5369" gradientTransform="matrix(-0.9995 -0.033 -0.033 0.9995 10158.7207 166.8179)">
<stop data-target="0.0" offset="0" stop-color="#42210B" />
<stop data-target="-0.53" offset="1" stop-color="#94561D" />
                </linearGradient>

                <path fill="url(#cafcab8b-c20a-4e52-b9de-3efd0ab55ea4)" d="M5472.523 1662.847c-1.239 37.89-32.092 67.554-68.97 66.333-36.837-1.269-65.704-32.974-64.499-70.896 1.197-37.827 32.073-67.555 68.895-66.333 36.87 1.268 65.764 33.006 64.574 70.896z"/>
                <linearGradient class="color3" id="d6364e49-05dd-40b5-aec6-9282c92157b7" gradientUnits="userSpaceOnUse" x1="4704.1367" y1="1587.5352" x2="4704.1367" y2="1698.3774" gradientTransform="matrix(-0.9995 -0.033 -0.033 0.9995 10158.7207 166.8179)">
<stop data-target="0.0" offset="0" stop-color="#42210B" />
<stop data-target="-0.39" offset="1" stop-color="#C46C1B" />
                </linearGradient>

                <path fill="url(#d6364e49-05dd-40b5-aec6-9282c92157b7)" d="M5393.865 1646.327c52.257-28.088 81.589 21.404 68.197 50.635-12.221 19.973-33.908 33.054-58.509 32.217-36.837-1.269-65.704-32.974-64.499-70.896.056-1.543.434-2.941.586-4.467 2.573 23.879 46.624 54.393 54.225-7.489z"/>
<linearGradient class="color4" id="64c865fa-52ea-4ba7-8d02-044955608174" >
<stop data-target="0.0" stop-color="#211106"></stop>
</linearGradient>
                <path fill="url(#64c865fa-52ea-4ba7-8d02-044955608174)" d="M5437.879 1661.689c-.572 18.191-15.403 32.508-33.176 31.881-17.717-.61-31.615-15.875-31.046-34.099.586-18.222 15.443-32.555 33.159-31.945 17.748.676 31.664 15.909 31.063 34.163z"/>
              </g>
<linearGradient class="color1" id="537b6f12-10c1-4831-9bf9-4001971d0cce" >
<stop data-target="0.0" stop-color="#FFFFFF"></stop>
</linearGradient>
              <path fill="url(#537b6f12-10c1-4831-9bf9-4001971d0cce)" d="M5491.726 1641.458c-.459 13-11.056 23.252-23.751 22.803-12.631-.451-22.623-11.313-22.158-24.361.426-13.048 11.047-23.299 23.67-22.866 12.695.466 22.64 11.392 22.239 24.424z"/>
              <path d="M5575.333 1591.58c-15.387 1.391-37.946-4.081-66.028-7.503-74.287-12.824-130.256-12.896-206.182 18.671-16.92 8.003-30.924 17.42-45.107 29.438-6.023 19.3-4.055 59.392 1.553 81.021 2.307-15.507 8.228-46.134 15.346-58.75 4.137-7.069 19.79-19.733 36.38-27.703 27.913-12.903 114.42-37.618 203.097-9.577 23.139 9.56 47.999 45.168 46.263 63.521-1.534 6.829-12.687 17.113-25.011 27.461 27.374-10.781 30.178-16.309 35.898-25.838.256-15.54-3.567-35.104-7.747-53.085 7.183-8.112 12.679-20.431 11.538-37.656z"/>
            </g>
            <path d="M5043.849 1486.329c-115.189-2.009-293.027-99.001-402.054 3.695-3.818 3.617-5.874 16.519 3.004 12.71 75.058-32.491 135.629-28.538 214.986-16.551 57.953 8.709 132.113 48.562 190.13 38.535 15.907-2.717 17.314-37.955-6.066-38.389zm180.639 3.003c120.695 1.287 287.396-90.757 393.242 12.535 3.673 3.567 5.703 16.117-2.939 12.357-73.22-31.704-132.369-27.815-209.75-16.133-56.556 8.5-122.703 38.438-179.314 28.667-15.499-2.684-24.081-37.682-1.239-37.426z"/>
          </g>
          <g>
<linearGradient class="color2" id="a8fe07d0-4eb3-445a-8aef-01d274133089" >
<stop data-target="-0.55" stop-color="#944D09"></stop>
</linearGradient>
            <path fill="url(#a8fe07d0-4eb3-445a-8aef-01d274133089)" d="M4857.769 2161.629c24.811.466 49.036-2.121 64.614-3.455 30.516-3.744 118.1-16.084 219.992-15.008 105.727 1.109 214.305 16.037 242.645 18.109 24.633-.193 45.9 4.757 45.9 4.757s-12.888 13.579-24.232 20.392c-18.576 26.724-63.28 85.6-86.113 118.51-43.99 67.233-259.974 106.055-345.565-6.91-22.955-26.69-61.119-82.193-82.176-109.333-9.05-3.73-14.544-13.339-35.065-27.062z"/>
<linearGradient class="color1" id="5c2c5d13-be9e-47f3-92e0-092144c64915" >
<stop data-target="-0.27" stop-color="#ADBCC7"></stop>
</linearGradient>
            <path fill="url(#5c2c5d13-be9e-47f3-92e0-092144c64915)" d="M5164.109 2314.189c-57.062 3.118-148.131-22.56-169.713-39.69-30.378-32.331-65.691-68.069-78.697-83.815 96.518 7.921 320.906 9.014 464.869-2.314-9.192 11.023-60.187 72.503-80.875 89.439-31.047 19.701-90.212 33.841-135.584 36.38z"/>
<linearGradient class="color1" id="7eff0322-eb0c-4c43-b028-a8e098c9e3b5" >
<stop data-target="0.0" stop-color="#FFFFFF"></stop>
</linearGradient>
            <path fill="url(#7eff0322-eb0c-4c43-b028-a8e098c9e3b5)" d="M5333.262 2205.628c.176-4.533-98.425-1.592-193.57-.773-85.533.787-168.346-.98-173.737 3.872.845 9.578 2.483 16.487 4.684 22.907 16.745 12.333 37.482 21.019 57.594 28.274-19.622-.643-39.458-6.468-50.105-10.068 1.696 3.898 3.496 8.132 5.424 13.186 3.632 3.856 7.279 7.664 10.847 11.473 21.582 17.13 112.651 42.808 169.713 39.69 45.372-2.539 104.537-16.679 135.584-36.38 3.526-2.925 7.978-7.166 12.958-12.196a438.777 438.777 0 0 1 5.527-15.201c-10.974 3.615-29.39 8.395-47.347 10.685 22.923-8.662 42.077-20.463 54.387-28.635 3.211-8.315 5.846-16.061 8.041-26.834z"/>
          </g>
        </g>
      </g>
    </g>
</svg>
