<svg version="1.1" id="Apron_1_" xmlns="http://www.w3.org/2000/svg" viewBox="0 0 9922 13000" xml:space="preserve">
    <g>
      <g id="Apron">
        <g>
<linearGradient class="color1" id="8b2746f3-3d0f-4dd8-92f7-c97df0cfa7ee" >
<stop data-target="0.0" stop-color="#3C3B40"></stop>
</linearGradient>
          <path fill="url(#8b2746f3-3d0f-4dd8-92f7-c97df0cfa7ee)" d="M3874.968 2984.38c115.469-32.769 657.088-176.12 756.062-208.892 28.288 101.15 258.399 561.128 802.795 561.128 367.031 0 494.872-294.897 507.25-458.729 149.834 126.973 446.751 305.819 526.482 348.143 148.467 240.287 270.806 694.93 28.872 1688.843-5.503 141.985-10.999 486.034.007 955.693 76.976 1108.595 14.248 2938.627 0 3019.97-516.864 305.819-1600.105 273.062-2468.88 98.303-33.177-256.989-22-1567.33 192.448-2910.754 41.24-884.693-192.448-1299.739-324.416-1611.021 252.939-649.865 67.354-1215.089-20.62-1482.684z"/>
<linearGradient class="color2" id="52357d99-877b-47e1-b075-64e6e37cb4b4" >
<stop data-target="-0.09" stop-color="#806B56"></stop>
</linearGradient>
          <path fill="url(#52357d99-877b-47e1-b075-64e6e37cb4b4)" d="M5301.229 9071.6c-384.117 0-818.846-43.909-1228.284-123.881-29.735-338.052.388-1607.887 201.434-2867.403l.44-2.697.119-2.726c37.088-795.636-149.347-1212.655-285.476-1517.147-14.253-31.87-27.841-62.271-40.52-91.66 249.071-654.753 156.882-1224.799 85.82-1467.288l34.549-9.754c148.793-41.967 408.05-115.086 530.202-152.154 53.593 141.064 243.139 598.027 768.332 598.027 323.276 0 585.598-139.256 601.412-471.481 154.274 117.33 382.317 254.955 462.844 299.359 202.206 338.339 199.159 889.01 16.229 1640.525l-1.164 4.77-.185 4.894c-6.467 166.763-10.344 517.908-.018 958.728l.107 2.239c72.171 1039.336 20.773 2758.469 2.832 2986.525-248.522 138.196-644.798 211.124-1148.673 211.124z"/>
<linearGradient class="color2" id="12356d69-5b0d-49c7-93fa-4a4008522f05" >
<stop data-target="0.0" stop-color="#8C785F"></stop>
</linearGradient>
          <path fill="url(#12356d69-5b0d-49c7-93fa-4a4008522f05)" d="M6446.963 5871.711c-10.326-440.819-6.449-791.964.018-958.728l.185-4.894 1.164-4.77c182.931-751.515 185.978-1302.187-16.229-1640.525-80.526-44.404-308.569-182.029-462.844-299.359-36.437 217.541-208.027 418.237-531.308 418.237-525.192 0-784.843-403.719-838.436-544.783-122.152 37.068-654.438 180.257-654.438 180.257 59.38 202.621 193.826 618.467 100.087 1136.45 70.019 491.083 315.427 942.31 592.739 1361.994 15.359 23.247-25.742 154.96-31.069 184.732-11.05 61.808-22.744 123.511-34.946 185.105-107.2 541.097-190.241 1082.872-220.714 1634.037-24.556 444.404-31.557 894.664-21.712 1339.758.217 9.75-3.569 132.744 10.775 134.951 327.059 50.279 659.592 77.426 960.994 77.426 503.875 0 900.151-72.928 1148.674-211.124 17.941-228.057 69.339-1947.189-2.832-2986.525l-.108-2.239z"/>
<linearGradient class="color2" id="abc7821b-0f29-4853-a053-5ea28bcccd3a" >
<stop data-target="-0.09" stop-color="#806B56"></stop>
</linearGradient>
          <path fill="url(#abc7821b-0f29-4853-a053-5ea28bcccd3a)" d="M4412.46 4636.358c632.341 169.287 1517.619 147.451 1973.999 81.915-247.438 229.37-1190.448 385.006-1973.999-81.915z"/>
<linearGradient class="color2" id="b8d9e831-0757-4263-8472-3d6d681cca52" >
<stop data-target="-0.09" stop-color="#806B56"></stop>
</linearGradient>
          <path fill="url(#b8d9e831-0757-4263-8472-3d6d681cca52)" d="M5380.213 4816.575c185.579-5.464 822.046 69.628 863.284 81.916-329.915 103.753-835.793 38.222-967.76 16.382 16.495-32.767 83.859-90.105 104.476-98.298zM4841.353 5548.356c384.896 43.687 948.511 58.708 1220.686 21.85-218.566 151.544-886.648 187.036-1220.686-21.85z"/>
        </g>
        <g>
          <g>
<linearGradient class="color1" id="0c37b3c7-3071-4dbd-b9db-38db526e18e8" >
<stop data-target="0.0" stop-color="#3C3B40"></stop>
</linearGradient>
            <path fill="url(#0c37b3c7-3071-4dbd-b9db-38db526e18e8)" d="M4186.328 5497.161c8.764-14.851 26.292-21.505 26.292-21.505s3.089 53.757 5.61 65.43c118.622 124.002 362.859 242.923 708.346 302.17 269.434 46.42 332.662 701.751 2.745 723.599-441.954 34.124-691.441-170.665-764.299-324.939 50.866-238.914 37.8-589.117 21.306-744.755z"/>
<linearGradient class="color2" id="e653717e-4084-450d-80b8-657dda3f54e8" >
<stop data-target="-0.09" stop-color="#806B56"></stop>
</linearGradient>
            <path fill="url(#e653717e-4084-450d-80b8-657dda3f54e8)" d="M4863.736 6527.578c-328.87 0-554.091-134.43-638.6-272.838 27.859-165.735 41.841-438.689 31.928-621.107 138.942 117.914 366.734 207.573 661.097 258.053 128.06 24.711 191.868 228.83 179.586 404.586-8.269 118.35-61.886 228.934-234.011 231.306z"/>
<linearGradient class="color2" id="3feea3dc-09b3-4eb4-845a-d62ca6cbfa30" >
<stop data-target="0.0" stop-color="#8C785F"></stop>
</linearGradient>
            <path fill="url(#3feea3dc-09b3-4eb4-845a-d62ca6cbfa30)" d="M5097.747 6296.272c12.281-175.757-51.526-379.875-179.586-404.586-127.263-21.824-241.806-51.102-342.351-86.709-34.628 70.55-92.863 415.7-102.864 584.391 134.007 69.996 391.774 137.886 542.265 91.859 55.381-43.616 77.494-112.765 82.536-184.955z"/>
          </g>
<linearGradient class="color1" id="3eaaa2a2-334d-407f-b084-421d09b5f758" >
<stop data-target="0.0" stop-color="#3C3B40"></stop>
</linearGradient>
          <path fill="url(#3eaaa2a2-334d-407f-b084-421d09b5f758)" d="M6507.429 5548.356c-6.184-12.967-17.874-26.623-17.874-26.623s1.927 80.877-1.666 91.003c-39.571 101.5-105.079 169.703-324.125 230.52-310.664 76.457-365.653 699.021-46.73 753.627 384.906-32.767 450.881-169.294 450.881-333.126-27.491-202.064-60.486-529.72-60.486-715.401z"/>
<linearGradient class="color2" id="a49e956b-fc1e-4121-a272-81eef0da2de5" >
<stop data-target="0.0" stop-color="#8C785F"></stop>
</linearGradient>
          <path fill="url(#a49e956b-fc1e-4121-a272-81eef0da2de5)" d="M6119.463 6547.336c-147.053-29.737-164.926-206.058-166.88-259.981-6.052-166.369 75.736-360.127 223.088-396.39 150.742-41.837 235.82-81.932 290.195-141.05 11.987 181.122 35.17 388.678 52.549 517.086-.547 124.46-34.119 247.821-398.952 280.335z"/>
        </g>
      </g>
    </g>
</svg>
