<svg version="1.1" id="Body_coberage" xmlns="http://www.w3.org/2000/svg" viewBox="0 0 9922 13000" xml:space="preserve">
    <g>
      <g>
        <path fill="#BA7C29" d="M6363.423 3209.226c222.188 0 429.052 306.466 475.022 467.36 45.97 160.895 38.309 582.285 53.633 681.887 15.32 99.603 45.971 344.775 45.971 429.052 0 84.279 53.631 398.407 76.615 475.024 22.983 76.616 49.412 350.094 61.293 421.391 31.798 190.795 33.93 326.142 22.985 452.037-2.741 31.47 114.923 298.805 76.616 398.407-30.648 99.601-206.866 84.277-291.144 107.263-84.276 22.986-264.178 44.301-291.141 38.308-68.957-15.321-122.587-45.97-222.19-114.925-22.983-206.865-38.307-3041.677-7.66-3355.804z"/>
        <path fill="#E9BD40" d="M6608.453 6638.838c-4.054 0-6.127-.142-6.899-.21-54.386-12.216-98.957-34.712-190.158-97.016-9.831-146.01-19.163-819.165-22.114-1614.418-3.097-834.908 2.01-1471.516 13.103-1672.055 66.388 55.603 156.185 68.097 233.015 155.291 85.025 96.489 142.899 209.016 162.531 277.732 28.372 99.307 35.705 314.972 41.056 472.443 3.167 93.167 5.671 166.753 11.442 204.274 16.036 104.222 45.48 343.847 45.48 422.646 0 92.199 55.049 409.318 78.393 487.131 14.42 48.063 31.571 189.769 44.096 293.236 6.415 52.958 11.951 98.692 15.994 122.975 28.08 168.472 34.828 300.498 22.57 441.458-1.49 17.133 5.137 38.522 24.51 97.853 24.732 75.737 76.197 233.333 54.759 289.078l-.52 1.352-.427 1.383c-14.254 46.318-101.564 56.402-171.719 64.505-33.081 3.822-64.334 7.432-90.236 14.497-71.559 19.514-217.441 37.845-264.876 37.845z"/>
        <path fill="#F6D973" d="M7056.961 6132.325c12.258-140.96 5.51-272.985-22.57-441.458-4.043-24.283-9.579-70.018-15.994-122.975-12.524-103.467-29.676-245.173-44.096-293.236-23.344-77.813-78.393-394.932-78.393-487.131 0-78.798-29.444-318.423-45.48-422.646-5.771-37.521-8.275-111.107-11.442-204.274-5.351-157.472-12.684-373.137-41.056-472.443-19.632-68.716-77.506-181.244-162.531-277.732-47.7-54.136-132.15-118.842-181.951-137.996 29.88 16.578 42.854 418.875 52.104 471.756 18.597 106.334 77.278 212.238 103.426 316.027 27.684 109.889 19.941 173.015 14.941 282.933-6.489 142.799 8.523 286.04-3.008 428.607-11.624 143.731-52.097 294.18-1.369 435.049 26.877 74.633 27.131 149.838 46.899 226.693 24.363 94.743 9.946 177.276 5.743 275.806-5.461 128.003-1.563 188.343 5.748 316.027 8.583 150.17-68.14 418.596 114.919 453.933 41.681 8.044 333.266 74.696 344.933-37.986 7.241-69.911-39.427-159.396-56.313-211.102-19.373-59.33-26-80.719-24.51-97.852z"/>
        <path fill="#BA7C29" d="M4693.182 2741.864c-183.879 76.617-423.17 164.116-518.438 191.542-51.538 14.836-260.495 56.186-344.773 79.171 30.646 145.571 107.139 1323.448 101.393 1559.03 137.904 396.472 148.887 664.132 148.887 813.528 0 104.21-22.986 452.037-30.648 582.285-7.661 130.248-22.983 413.73-30.646 482.685s-206.865 1087.957-222.188 1241.188c-15.323 153.233-38.308 452.038-38.308 520.992 0 68.955-15.323 183.881-38.308 268.157-22.986 84.278-45.971 176.218-30.646 214.526 15.323 38.309-61.293 199.203-61.293 229.851s-38.309 183.879-61.294 283.481-291.142 1164.572-291.142 1356.113 23.531 291.341 46.515 482.881c22.986 191.542 49.8 191.527 34.477 298.791-15.324 107.262-44.054 141.729-28.729 218.346 15.323 76.614 55.544 153.221 40.221 206.854-15.322 53.633-34.475 178.121-34.475 247.076s-17.239 229.83 5.747 344.756c22.983 114.927 172.373 273.895 241.329 281.555 68.955 7.662 158.964 19.154 304.535 11.49 145.572-7.66 317.442-30.764 394.058-23.102 76.617 7.66 240.375-4.066 271.021-34.713 30.647-30.646 91.95-124.01 91.95-206.885 0-132.155-157.532-319.47-188.178-396.085-30.647-76.616-91.938-225.998-91.938-402.214 0-176.22-19.153-377.316 11.493-476.916 30.647-99.604 36.392-243.239 51.714-373.488 15.325-130.248 95.767-390.713 114.919-574.593 11.227-107.769 137.424-266.486 191.057-389.072 53.631-122.587 137.908-432.885 168.556-509.501 30.645-76.617 130.248-406.068 130.248-406.068s30.647-99.601 84.278-187.71c15.322 157.064 11.492 367.761 11.492 444.376 0 76.616-61.292 183.879-84.277 329.449-22.985 145.573-95.773 409.9-103.432 655.074-7.664 245.173 0 597.608-15.323 743.18s91.94 367.758 114.923 520.992c22.986 153.231 30.647 268.156 0 390.744-30.647 122.586-53.63 191.541-45.971 268.158 7.661 76.619 37.404 252.568 167.653 260.232 130.247 7.66 1524.036-5.346 1524.036-5.346 149.395-5.744 196.177-101.938 211.5-178.556 15.323-76.614-11.506-199.228-149.417-275.845-136.602-75.891-279.68-130.267-333.311-183.898-53.633-53.63-186.936-145.24-209.919-206.533-22.985-61.294 15.324-214.529 0-275.822-15.323-61.292 0-153.234-30.646-298.805-30.646-145.57-22.984-245.172-22.984-367.758s-7.661-206.866 22.984-367.759c30.646-160.896 68.958-352.438 91.939-551.642 22.984-199.202-15.322-337.111 38.308-551.638 53.632-214.524 145.572-835.122 153.233-934.722 7.661-99.604 30.648-628.256 61.294-804.475 30.647-176.218 45.971-283.48 7.661-559.3-38.307-275.82 15.323-1195.218 0-1325.467-15.322-130.248 30.646-812.136 38.31-934.722 7.661-122.585-99.213-334.642-114.535-549.167-15.324-214.527 51.716-607.153 28.729-683.769-178.125-80.444-310.281-224.092-356.253-247.077-45.971-22.986-155.139-132.155-247.072-241.329-153.235 275.823-827.88 388.218-1180.316-2.526z"/>
        <path fill="#E9BD40" d="M3792.471 12616.555c-84.345 0-145.933-6.918-195.42-12.475l-11.537-1.289c-15.749-1.75-60.61-29.785-111.032-86.637-48.875-55.105-84.751-116.91-93.629-161.301-16.154-80.762-11.067-188.25-7.357-266.729 1.304-27.537 2.43-51.32 2.43-69.764 0-63.773 18.372-184.815 32.853-235.503 13.569-47.489-2.455-99.107-19.417-153.751-7.485-24.119-15.225-49.057-20-72.941-7.835-39.162-1.567-64.102 8.819-105.41 6.398-25.461 14.366-57.148 20.302-98.711 10.116-70.807 3.303-102.179-7.988-154.158-7.251-33.376-17.182-79.097-26.362-155.612-6.203-51.677-12.314-95.785-18.221-138.44-15.641-112.904-27.996-202.082-27.996-339.42 0-158.65 200.198-978.018 265.985-1247.268 12.005-49.14 20.681-84.641 24.08-99.37 5.056-21.907 10.855-46.415 16.822-71.641 27.901-117.925 45.012-192.125 45.537-220.028 1.471-9.567 13.075-41.449 21.587-64.841 32.45-89.175 51.117-145.921 36.706-181.946-7.512-18.778 3.313-81.962 32.175-187.789 22.685-83.182 39.794-203.232 39.794-279.246 0-65.574 22.362-359.422 38.099-516.8 9.238-92.407 90.022-523.778 149.004-838.754 44.712-238.763 70.154-375.155 73.135-401.972 6.308-56.769 17.488-252.281 25.654-395.04 1.937-33.885 3.7-64.705 5.176-89.824 1.48-25.146 3.532-58.41 5.878-96.466 9.891-160.453 24.842-402.929 24.842-488.294 0-167.512-15.474-434.355-148.745-820.216 3.723-236.572-62.666-1270.75-96.041-1520.976 44.714-10.802 104.549-23.817 158.857-35.632 66.771-14.526 124.438-27.07 149.942-34.412 97.323-28.017 322.679-110.842 495.979-181.973 154.36 158.223 1098.173 27.644 1186.864 22.723 79.835 90.536 182.865 183.954 232.479 208.76 10.374 5.187 36.453 27.064 61.674 48.226 64.238 53.888 207.685 161.954 324.914 218.622 11.676 67.828-27.65 226.549-20.5 379.481 4.721 100.915 9.181 196.23 14.471 270.344 5.566 77.898 12.966 151.143 20.128 221.975 12.258 121.3 22.844 226.061 18.157 301.05-.649 10.434-1.582 24.929-2.732 42.794-21.39 333.355-48.333 789.279-35.37 899.479 5.634 47.893 1.028 221.605-4.299 422.743-8.646 326.185-19.399 732.13 4.411 903.598 37.151 267.486 22.996 371.271-7.443 546.283-23.685 136.215-42.51 472.69-53.756 673.729-3.475 62.124-6.221 111.196-8.033 134.733-7.103 92.348-97.682 710.076-152.1 927.735-33.462 133.856-32.514 240.484-31.595 343.602.597 66.993 1.21 136.268-7.693 213.428-20.591 178.438-53.428 349.897-82.407 501.175a61410.122 61410.122 0 0 0-9.065 47.406c-26.186 137.485-25.25 220.184-24.17 315.939.217 19.149.441 38.951.441 59.707 0 20.529-.219 40.688-.436 60.178-1.072 98.133-2.087 190.822 24.325 316.26 17.083 81.158 19.268 145.389 21.016 196.992 1.343 39.394 2.502 73.416 9.982 103.355 5.335 21.334 1 69.156-2.829 111.348-5.917 65.307-11.512 126.996 4.257 169.045 19.646 52.398 87.851 109.213 153.804 164.154 25.821 21.504 50.201 41.813 65.769 57.383 39.047 39.049 112.387 74.963 197.3 116.547 47.452 23.234 96.519 47.268 145.348 74.39 116.06 64.477 141.795 164.597 128.563 230.747-18.691 93.455-74.701 140.792-171.202 144.689-27.044.25-840.893 7.752-1269.111 7.752-140.396 0-224.986-.789-251.43-2.349-14.709-.862-59.458-3.493-93.878-79.563-16.829-37.183-28.694-86.558-34.317-142.792-5.695-56.957 8.073-110.32 30.882-198.723 4.424-17.139 9.132-35.398 14.042-55.021 32.343-129.376 24.779-247.279.791-407.217-9.416-62.76-31.227-133.182-54.316-207.736-33.842-109.264-68.83-222.246-60.378-302.594 9.452-89.793 10.342-252.073 11.278-423.881.604-110.855 1.23-225.48 4.254-322.395 5.321-170.155 42.674-349.692 72.689-493.95 12.555-60.364 23.406-112.493 30.25-155.863 10.947-69.341 31.226-130.165 49.115-183.83 19.146-57.441 35.681-107.048 35.681-152.194 0-10.686.075-23.986.165-39.399.532-95.016-7.22-312.476-20.607-449.668 0 0 79.49-236.074 125.139-347.329 45.655-111.253 270.724-531.209 270.724-531.209l-89.583-20.704-331.808 415.279-43.657 506.743c-55.728 91.551-87.239 192.958-88.561 197.228-1.049 3.477-99.475 328.763-129.094 402.813-12.928 32.314-33.998 101.108-58.39 180.76-34.964 114.162-78.473 256.238-109.647 327.498-19.134 43.733-48.21 92.654-78.992 144.448-52.807 88.851-107.41 180.728-115.37 257.149-10.381 99.65-40.054 225.846-66.234 337.184-21.366 90.869-41.548 176.697-48.626 236.854-4.218 35.857-7.746 72.999-11.158 108.919-8.814 92.761-17.927 188.677-38.981 257.096-24.041 78.14-20.313 204.437-16.366 338.155 1.481 50.149 3.011 102.01 3.011 151.156 0 180.724 60.518 331.87 93.031 413.07l1.919 4.793c11.142 27.853 34.569 64.805 61.698 107.588 52.105 82.179 123.466 194.723 123.466 272.848 0 64.404-50.249 147.221-78.94 176.413-15.457 10.427-95.356 25.317-187.827 25.317-19.116 0-36.362-.711-49.872-2.063-11.74-1.174-25.265-1.746-41.345-1.746-51.411 0-121.104 5.994-194.889 12.34-54.7 4.709-111.263 9.575-164.231 12.361-31.122 1.637-61.64 2.471-90.711 2.471z"/>
        <path fill="#F3C91F" d="M3911.693 3408.428h-.197c.371 4.802.741 9.631 1.115 14.48.354-4.826.288-9.654-.918-14.48z"/>
        <path fill="#F6D973" d="M6725.293 11865.11c-48.829-27.122-97.896-51.155-145.348-74.39-84.913-41.584-158.253-77.498-197.3-116.547-15.567-15.57-39.947-35.879-65.769-57.383-65.953-54.941-134.158-111.756-153.804-164.154-15.769-42.049-10.174-103.738-4.257-169.045 3.829-42.191 8.164-90.014 2.829-111.348-7.48-29.939-8.64-63.962-9.982-103.355-1.748-51.604-3.933-115.834-21.016-196.992-26.412-125.438-25.397-218.127-24.325-316.26.217-19.49.436-39.648.436-60.178 0-20.756-.225-40.558-.441-59.707-1.08-95.756-2.016-178.454 24.17-315.939 2.96-15.521 5.986-31.331 9.065-47.406 28.979-151.277 61.816-322.736 82.407-501.175 8.903-77.16 8.29-146.435 7.693-213.428-.919-103.117-1.867-209.745 31.595-343.602 54.418-217.659 144.997-835.388 152.1-927.735 1.813-23.537 4.559-72.609 8.033-134.733 11.246-201.038 30.071-537.514 53.756-673.729 30.439-175.013 44.595-278.797 7.443-546.283-23.811-171.468-13.057-577.413-4.411-903.598 5.327-201.138 9.933-374.851 4.299-422.743-12.963-110.2 13.98-566.123 35.37-899.479 1.15-17.865 2.083-32.36 2.732-42.794 4.687-74.989 25.971-183.91 13.711-305.209-7.157-70.832-.186-140.447-5.746-218.346-5.295-74.114-6.775-140.417-11.493-241.332-7.148-152.931-17.052-340.135-28.728-407.963-117.229-56.668-260.676-164.734-324.914-218.622-25.221-21.161-51.3-43.039-61.674-48.226-49.614-24.807-152.645-118.224-232.479-208.76-72.583 4.026-717.838 92.202-1034.454 37.387a93.886 93.886 0 0 1-3.701 4.751c-7.657 11.485 1072.411 127.337 1025.168 186.394-45.974 57.46-649.294 0-1186.062 43.456-29.412 2.381-174.162-8.44-204.459 2.512-33.317 12.043-123.078 35.624-155.639 39.627-155.786 19.153-194.093 67.68-206.863 256.666-10.35 153.144-20.756 307.528-15.325 375.42 11.493 143.65 61.376 222.853 76.617 344.775 22.984 183.88 26.723 181.713 61.292 321.79 9.261 37.519 113.441 223.418 245.175 337.112 115.015 99.267 296.529 199.811 283.479 291.144-15.323 107.263-359.935 14.881-352.437 76.616 7.094 58.401 154.742 353.381 153.235 398.406-5.203 155.304-167.213 108.18-191.537 306.424-19.396 158.067-2.428 304.72 31.956 459.04 22.827 102.46 26.723 189.713 10.953 292.455-6.412 41.768-21.443 103.683 1.226 143.188 32.236 56.185-29.359 220.154-21.154 277.593 15.322 107.262 60.602 268.328 76.616 306.465 29.547 70.374 334.743 361.091 291.143 429.053-46.085 71.84-160.893 38.309-275.82 7.662-92.452-24.653 106.937 291.98 76.618 352.437-17.879 35.651-283.602-204.213-283.482-153.233.172 73.369 91.211 233.127 91.939 306.467 3.517 354.68-186.903 399.187-290.006 730.061-52.707 169.131-173.248 614.885-192.678 794.607-30.646 283.482 166.537 485.314 130.248 566.964-30.646 68.953-372.654 123.323-337.113 436.714 19.081 168.232-25.646 481.475 22.985 643.578 23.63 78.771 266.642 214.264 260.497 283.483-7.608 85.726-270.631 42.018-314.127 107.263-107.262 160.895-6.068 287.492 84.278 390.742 53.631 61.295 441.083 70.782 589.948 45.972 137.909-22.987 268.156 68.953 243.174 4.645-20.214-52.038-57.032-100.948-84.117-143.669-27.129-42.783-50.557-79.735-61.698-107.588l-1.919-4.793c-32.514-81.2-93.031-232.347-93.031-413.07 0-49.146-1.53-101.007-3.011-151.156-3.947-133.719-7.675-260.016 16.366-338.155 21.054-68.419 30.167-164.335 38.981-257.096 3.412-35.92 6.94-73.062 11.158-108.919 7.078-60.156 27.26-145.984 48.626-236.854 26.18-111.338 55.853-237.533 66.234-337.184 7.96-76.422 62.563-168.299 115.37-257.149 30.782-51.794 59.858-100.715 78.992-144.448 31.174-71.26 74.683-213.336 109.647-327.498 24.392-79.651 45.461-148.445 58.39-180.76 29.619-74.051 128.045-399.337 129.094-402.813 1.321-4.27 32.833-105.677 88.561-197.228 0 0 76.025-195.046 124.104-319.032 48.079-123.987 298.806-601.439 317.96-601.439 6.336 0-59.551 162.251-73.168 199.037-4.237 11.428 66.923 37.927 34.857 98.491-22.983 43.416-56.181 33.198-63.845 66.399-10.216 40.863 214.524 198.563 197.925 229.849-9.87 18.606-219.202-23.559-131.524 43.419 81.398 62.18 153.235 148.123 137.91 183.88-15.322 35.758-289.866-173.671-274.543-104.714 13.766 61.966 2.858 135.136 10.271 198.809 24.729 212.444 134.425 271.776 111.438 547.625-23.918 287.045-189.037 448.511-22.983 724.099 55.613 92.306 252.857 528.701 241.364 620.654-19.214 153.675-167.111 160.479-229.873 275.849-88.16 162.112 65.939 247.04 68.963 425.263 2.781 164.041-181.084 548.721-21.68 632.623 218.347 114.92 592.341 196.336 936.59 206.854 141.09 4.311 373.49 0 387.454-117.632-20.525-35.87-53.931-70.734-104.505-98.829z"/>
        <path fill="#BA7C29" d="M4606 2789c34.478-226.019 72.945-554.691 60.79-648.617 66.789 153.393 249.025 411.041 393.039 567.057 90.37 97.901 452.345 72.901 504.051 12.001 135.013-159.016 258.164-396.135 330.164-536.135-20.539 244.881-2.725 512.7 25.498 644.968C5528.797 2866.582 4824.356 2850.293 4606 2789z"/>
        <path fill="#E9BD40" d="M5846 2377c0-13 4-27 4-40-.403-24.991.819-49.82 2.684-74.551-72.17 138.04-173.976 321.75-288.804 456.993-51.706 60.899-413.681 85.9-504.051-12.001-121.018-131.103-269.014-333.963-352.828-486.429-7.465 99.593-5.596 172.935-13.001 271.99-3 32-4 72-14 121-7.471 36.608-26 164-31 191 241 111 867.063 74.271 1230.045 30.773-29.999-149.994-33.74-299.656-33.045-458.775z"/>
        <path fill="#F6D973" d="M5846 2377c0-13 4-27 4-40-.403-24.991.819-49.82 2.684-74.551-72.17 138.04-173.976 321.75-288.804 456.993-36.965 43.537-232.497 68.722-374.007 43.776 0 12.782 6.121 32.244 8.127 45.782 2.667 18 16.105 57.152 22.333 71.667 0 .285 362.334 21.667 658.712-44.893-29.999-149.993-33.74-299.655-33.045-458.774z"/>
        <path fill="#BA7C29" d="M3931.362 2997.215c-239.302 2.593-522.783 191.58-584.076 291.183-61.294 99.601-163.451 296.248-209.42 342.219-45.97 45.97-168.557 291.142-222.188 344.774-53.631 53.632-245.173 222.188-275.819 337.113-10.63 39.867-275.82 452.037-329.452 536.316 168.557 45.97 1095.617 160.895 1287.158 183.88 122.587-160.895 275.819-543.978 360.098-635.917 84.278-91.94 81.726-319.236 104.709-388.192 38.309-306.467-45.968-674.226-131.01-1011.376z"/>
        <path fill="#E9BD40" d="M3578.089 4987.907c-276.506-33.447-963.58-120.594-1199.834-167.049 242.269-379.334 295.504-471.939 302.319-497.499 23.193-86.971 165.193-222.586 233.435-287.758 12.564-12.001 23.417-22.366 31.466-30.413 31.693-31.695 77.273-109.715 125.529-192.317 36.75-62.904 78.404-134.203 96.659-152.458 32.537-32.538 79.117-112.629 146.464-231.104 25.406-44.69 49.402-86.902 69.046-118.827 22.953-37.297 98.396-105.525 209.803-167.185 106.282-58.824 264.604-106.321 357.024-114.12 82.506 329.797 161.123 652.662 126.417 938.552-14.81 49.006-18.61 107.891-22.983 141.74-11.549 89.378-77.364 204.87-126.835 258.837-45.135 49.241-102.041 162.219-167.93 293.035-58.133 115.418-123.432 245.058-180.58 326.566z"/>
        <path fill="#F6D973" d="M3454.458 4542.882c61.294-68.954-11.495-91.93 11.492-172.377 28.704-74.636 107.128-76.609 114.899-80.434 47.854-23.549 45.444-53.464 70.637-96.684 37.772-64.795 103.417-73.9 162.616-109.325 84.474-50.551 45.462-105.417 58.196-186.903 10.023-64.115 66.435-99.005 90.861-155.188 11.407-26.239 27.832-124.184 51.968-256.927 17.696-97.336 49.032-256.083 49.801-352.436.446-56.471-109.694-92.536-160.895-88.108-70.145 6.066-204.774 39.973-311.056 98.797-111.406 61.66-186.85 129.887-209.803 167.185-19.644 31.925-43.64 74.137-69.046 118.827-67.347 118.476-113.927 198.566-146.464 231.104-18.255 18.255-59.909 89.554-96.659 152.458-48.255 82.602-93.835 160.622-125.529 192.317-8.049 8.046-18.902 18.412-31.466 30.413-68.242 65.172-210.242 200.788-233.435 287.758-6.815 25.56-60.05 118.165-302.319 497.499 154.123 30.307 500.095 77.926 798.79 116.661 8.653-91.208.021-186.396 60.423-264.918 53.63-65.124 159.527-64.595 216.989-129.719z"/>
        <path fill="#BA7C29" d="M5477.613 4748.196c0-92.806-8.936-249.633-20.24-448.188-12.465-218.877-27.982-491.277-35.914-764.232-.77-26.621-1.871-60.823-3.095-98.817-3.73-115.941-8.371-260.232-8.371-330.572l-.425-337.737-103.955 4.29-2.883 333.448c0 72.139 4.675 217.441 8.433 334.193 1.215 37.697 2.307 71.782 3.077 98.313 7.977 274.342 23.536 547.602 36.053 767.393 11.205 196.767 20.056 352.184 20.056 441.911 0 113.508 7.766 334.541 17.606 614.511 21.622 615.57 54.296 1545.825 28.423 2118.551-.65 14.313 4.317 28.021 13.975 38.596 9.67 10.578 22.871 16.758 37.131 17.401.835.041 1.661.059 2.492.059 28.736 0 52.26-22.494 53.553-51.211 26.075-577.132-6.694-1509.998-28.385-2127.291-9.794-278.816-17.531-499.039-17.531-610.618z"/>
        <path fill="#FFFFFF" d="M5454.629 4748.196c0-92.151-8.917-248.691-20.203-446.881-12.479-219.057-28.004-491.681-35.94-764.871-.773-26.603-1.875-60.778-3.088-98.575-3.74-116.166-8.392-260.738-8.392-331.482l-3.19-336.135-58.102 2.687v333.448c0 71.729 4.668 216.848 8.422 333.455 1.21 37.723 2.312 71.832 3.083 98.384 7.958 274.042 23.516 547.139 36.01 766.576 11.23 197.215 20.104 352.988 20.104 443.395 0 113.034 7.76 333.919 17.583 613.572 21.64 615.973 54.343 1546.838 28.425 2120.529-.768 16.91 12.324 31.236 29.232 32 .472.022.936.032 1.402.032 16.289 0 29.851-12.827 30.591-29.265 26.036-576.148-6.719-1508.495-28.395-2125.448-9.8-279.052-17.542-499.463-17.542-611.421z"/>
      </g>
      <g>
        <path fill="#BA7C29" d="M4679.774 2240.025c-13.408-249.003-5.744-344.773-17.236-455.867-11.493-111.095-10.708-203.478 3.829-247.088 15.324-45.971 39.673-67.277 47.886-178.134 15.323-206.865 270.074-298.804 568.878-298.804 256.921 0 597.61 122.585 601.438 279.649 3.047 124.745 16.603 231.128 19.156 279.651 2.551 48.522-15.323 141.74-22.984 233.68-6.643 79.69 7.661 193.458 3.828 360.098 45.972-3.831 87.927-93.487 113.011-143.657 45.97-91.939 72.218-122.696 84.279-160.895 22.983-72.785 24.899-157.701 24.899-231.765 0-74.063-3.831-357.544-3.831-398.406 0-69.887-47.892-307.93-53.633-340.945-10.21-58.739-94.939-224.574-164.726-298.804-30.944-32.921-330.729-187.71-356.264-203.033-25.537-15.324-179.152-55.996-279.651-53.632-106.516 2.507-320.512 99.602-363.929 122.586-43.419 22.985-190.579 85.726-249.004 160.895-27.728 35.675-174.646 230.994-183.88 406.068-10.927 207.207-17.877 550.361-15.323 616.763 2.555 66.4 27.928 134.471 88.111 294.973 22.983 61.295 68.954 226.021 155.146 256.667z"/>
        <path fill="#E9BD40" d="M4656.79 2182.563c-42.14-44.055-68.547-141.54-81.085-179.965-3.94-12.073-7.661-23.475-11.62-34.034-57.091-152.253-83.148-221.742-85.461-281.798-2.51-65.285 4.372-405.778 15.299-612.925 8.463-160.5 147.319-346.723 175.069-382.426 42.87-55.156 148.619-106.796 205.429-134.538 11.972-5.846 22.313-10.894 30.019-14.976 44.093-23.339 250.177-115.465 345.204-117.699a316.67 316.67 0 0 1 7.602-.089c93.381 0 229.232 36.634 249.585 47.844 6.597 3.966 24.467 13.524 61.007 33.036 71.724 38.292 262.074 139.919 286.224 162.816 64.298 68.545 145.052 227.113 153.716 276.954 1.02 5.833 3.149 17.047 6.099 32.568 12.833 67.527 46.914 246.899 46.914 301.156 0 17.654.694 78.956 1.494 149.941 1.092 96.654 2.337 206.205 2.337 248.464 0 70.84-1.774 152.032-22.946 219.075-5.144 16.293-14.742 32.903-29.273 58.042-13.758 23.803-30.876 53.426-52.514 96.697l-4.386 8.814c-8.232 16.565-45.05 93.182-55.609 111.548-.628-43.744 16.639-138.087 15.325-172.387-2.207-57.686-3.065-108.799 0-145.572 3.031-36.381 7.018-79.895 11.492-114.925 6.792-53.195 9.38-82.299 7.661-114.925-.859-16.371 8.632-43.827 6.174-70.932-4.987-54.973-23.292-136.896-25.327-220.211-2.186-89.706-86.654-159.415-233.682-222.188-123.654-52.792-256.307-80.448-390.744-80.448-162.786 0-309.073 19.305-413.729 68.955-123.873 58.768-196.494 144.792-204.833 257.384-5.508 74.327-18.371 103.026-30.812 130.781-5.081 11.335-10.333 23.056-15.029 37.14-22.015 66.044-3.712 191.801 3.584 262.329 5.632 54.458 12.19 113.749 13.407 183.88.794 45.744 10.935 145.941 13.409 212.614z"/>
        <path fill="#F6D973" d="M6062.283 1428.43c-.8-70.985-1.494-132.288-1.494-149.941 0-54.256-34.081-233.628-46.914-301.156-2.949-15.521-5.079-26.735-6.099-32.568-8.664-49.841-89.418-208.409-153.716-276.954-24.149-22.897-214.5-124.524-286.224-162.816-36.54-19.511-54.41-29.069-61.007-33.036-20.353-11.209-156.204-47.844-249.585-47.844-2.574 0-5.099.029-7.602.089-80.531 1.893-240.799 68.337-314.665 102.771 40.648-3.005 88.623-.739 102.977 35.149 11.495 34.477-3.831 88.109 22.986 107.263 65.123 45.97 155.787 112.367 109.818 177.491-30.646 38.309-25.541 89.387-79.172 114.929-71.508 35.751-168.556 66.398-245.172 102.151-89.385 51.075-145.572 97.052-176.219 188.993-22.985 68.955-33.2 127.695-48.523 196.649-11.493 49.801-31.925 112.37-20.433 162.171 3.182 17.502 9.674 33.678 16.445 49.636-3.303-51.256-2.925-102.785 8.702-137.663 4.696-14.083 9.948-25.805 15.029-37.14 12.441-27.755 25.304-56.455 30.812-130.781 8.339-112.591 80.96-198.616 204.833-257.384 104.656-49.65 250.943-68.955 413.729-68.955 134.438 0 267.09 12.332 390.744 65.125 68.146 29.096 74.702 42.14 128.333 55.547 28.732-11.493 60.942-50.634 101.518-65.124 7.661 34.477-26.817 68.955-7.661 82.362 15.322 5.747 70.868-38.308 80.447-19.154 5.744 26.815-49.802 55.547-80.447 88.109 38.308 0 72.784-11.492 111.093-7.661-3.83 15.322-19.153 22.984-30.646 26.815-18.071 9.033-33.932 20.703-48.821 33.344 61.967 189.534 21.925 386.262-21.459 586.313-1.371 34.042-.472 76.608 1.325 123.523 1.313 34.3-15.953 128.643-15.325 172.387 10.56-18.366 47.377-94.983 55.609-111.548l4.386-8.814c21.638-43.271 38.756-72.894 52.514-96.697 14.531-25.139 24.13-41.75 29.273-58.042 21.172-67.043 22.946-148.235 22.946-219.075.002-42.259-1.243-151.81-2.335-248.464z"/>
      </g>
      <g>
        <path fill="#BA7C29" d="M2275.931 4856.482c-7.408-77.783 214.526-333.284 291.143-394.577 76.616-61.292 277.097-57.461 353.714-57.461 76.616 0 201.756-15.323 289.865 19.153 88.109 34.479 287.312 91.941 287.312 91.941-11.491 34.477-45.969 111.092-61.293 153.233-15.323 42.139-15.323 149.401-11.493 218.357 3.832 68.955 22.986 164.725 30.647 195.372 7.663 30.646 61.294 157.064 80.449 180.049 19.153 22.985 53.63 57.462 88.109 68.955-19.155 42.139-107.264 91.94-168.558 141.741-61.294 49.799-283.482 114.924-402.237 84.277-117.297-30.271-176.218 7.663-294.973-15.323-118.755-22.986-218.357-99.601-260.497-145.571-42.139-45.97-111.094-107.263-137.91-172.387-26.816-65.125-76.618-287.313-84.278-367.759z"/>
        <path fill="#E9BD40" d="M3125.554 5523.271c-23.915.001-44.584-2.201-61.436-6.551-36.156-9.332-70.56-13.677-108.273-13.677-20.648 0-40.097 1.265-58.909 2.486-18.8 1.222-36.558 2.374-55.556 2.374-26.06 0-49.816-2.249-74.757-7.075-111.377-21.559-204.017-96.212-237.441-132.675-9.115-9.943-19.149-20.287-29.776-31.237-36.552-37.666-82.042-84.546-100.232-128.72-24.212-58.802-73.597-274.888-81.296-355.711-.553-13.226 21.05-67.113 106.84-175.453 66.349-83.786 136.428-156.421 168.68-182.222 66.629-53.301 271.997-113.351 341.435-113.351 57.367 0 144.048 34.787 220.525 65.48 13.683 5.491 27.056 10.859 39.94 15.899 64.057 25.065 182.624 61.165 246.956 80.266-4.613 11.297-9.663 23.408-14.642 35.354-11.322 27.159-23.028 55.242-30.544 75.91-22.313 61.362-15.547 206.603-13.962 235.096 4.136 74.453 24.784 175.037 31.84 203.255 7.62 30.486 63.016 165.677 88.954 196.805 12.03 14.434 31.529 35.624 55.392 53.583-18.958 16.116-44.229 34.159-64.972 48.97-21.986 15.697-44.721 31.929-65.066 48.461-40.049 32.541-188.506 82.728-303.7 82.733z"/>
        <path fill="#F6D973" d="M2445.765 5106.762c43.339 21.672 66.345-85.057 100.822-69.733 26.815 15.324 65.12 166.63 91.935 201.107 97.684 45.967 82.356-143.648 143.65-143.648 19.154 0 103.426 34.475 114.918 103.427 34.478 49.801 120.663 84.274 166.632 91.936 76.617 11.492 162.799-11.491 235.584-34.475-120.666-241.332-104.795-346.16-57.459-482.66 22.983-68.951-17.24-120.664 17.237-166.634 25.536-36.887 86.318-72.946 130.383-78.854-64.146-19.544-145.127-45.196-194.171-64.389-12.885-5.041-26.258-10.408-39.94-15.899-76.477-30.693-163.158-65.48-220.525-65.48-69.438 0-274.806 60.05-341.435 113.351-32.252 25.801-106.846 95.052-168.68 182.222-53.017 74.738-58.123 151.357-63.232 192.219 2.555 43.415 48.525 219.631 84.281 237.51z"/>
      </g>
    </g>
</svg>
