<svg version="1.1" id="Dust_mask" xmlns="http://www.w3.org/2000/svg" viewBox="0 0 9922 13000" xml:space="preserve">
    <g>
      <g>
        <path fill="#B4C7CF" d="M4751.382 2198.123c-34.236-20.541-114.683-95.515-128.379-103.732-8.217-28.757-5.136-66.084-5.136-77.028 26.704 22.595 144.813 111.948 157.138 120.164-5.481 16.433-20.887 48.271-23.623 60.596zM5806.8 2226.126c34.247-20.541 119.17-113.249 132.876-129.681 8.216-28.758 2.728-73.947 2.728-84.891-26.703 22.595-146.899 145.76-159.224 153.976 5.487 16.433 20.894 48.271 23.62 60.596z"/>
        <path fill="#B4C7CF" d="M5892.4 2189.618c-9.854-131.35-189.025-157.893-285.521-199.248-110.247-47.243-169.351-143.144-310.394-143.144-141.058 0-202.432 95.901-312.671 143.144-96.493 41.355-275.665 67.897-285.518 199.248-12.325 164.327 269.768 632.66 597.051 632.66 327.292 0 609.378-468.333 597.053-632.66z"/>
        <linearGradient id="SVGID_1_" gradientUnits="userSpaceOnUse" x1="5318.3887" y1="2334.7512" x2="4500.8613" y2="2334.7512">
          <stop offset="0" style="stop-color:#B4C7CF"/>
          <stop offset="1" style="stop-color:#FFFFFF"/>
        </linearGradient>
        <path fill="url(#SVGID_1_)" d="M5295.349 2797.628c-117.693 0-245.803-68.217-360.734-192.089-134.368-144.83-217.967-331.03-211.74-414.076 6.578-87.652 109.299-122.203 199.928-152.693 25.555-8.602 49.691-16.721 70.722-25.74 41.228-17.668 75.431-41.37 108.521-64.302 57.034-39.526 110.905-76.853 194.44-76.853 83.16 0 136.083 37.103 192.14 76.386 32.945 23.093 67.03 46.972 108.545 64.768 21.038 9.019 45.175 17.139 70.724 25.74 90.635 30.49 193.34 65.041 199.92 152.693 6.226 83.046-77.367 269.246-211.732 414.076-114.935 123.873-243.04 192.09-360.734 192.09z"/>
        <linearGradient id="SVGID_2_" gradientUnits="userSpaceOnUse" x1="3651.79" y1="2334.7515" x2="5354.752" y2="2334.7515">
          <stop offset="0" style="stop-color:#B4C7CF"/>
          <stop offset="0.2681" style="stop-color:#CCD9DE"/>
          <stop offset="0.7467" style="stop-color:#F1F4F6"/>
          <stop offset="1" style="stop-color:#FFFFFF"/>
        </linearGradient>
        <path fill="url(#SVGID_2_)" d="M5867.814 2191.463c-6.58-87.652-109.285-122.203-199.92-152.693-25.549-8.602-49.686-16.721-70.724-25.74-41.515-17.797-75.6-41.675-108.545-64.768-56.057-39.284-108.979-76.386-192.14-76.386-83.535 0-137.406 37.327-194.44 76.853-33.091 22.932-67.294 46.634-108.521 64.302-20.068 8.602-43.008 16.401-67.255 24.553-240.538 186.216 96.334 699.74 305.834 753.612 21.319 4.188 42.447 6.434 63.245 6.434 117.694 0 245.8-68.217 360.733-192.089 134.366-144.832 217.959-331.031 211.733-414.078z"/>
        <g>
          <path fill="#808080" d="M5493.682 2010.173c-38.26 0-69.921-20.894-100.538-41.098-29.865-19.707-58.076-38.322-91.183-38.322-43.562 0-78.5 20.525-112.287 40.376-29.391 17.267-57.152 33.571-87.644 33.571-11.346 0-20.54-9.195-20.54-20.541s9.194-20.541 20.54-20.541c19.321 0 41.339-12.934 66.839-27.908 34.912-20.508 78.361-46.04 133.092-46.04 45.445 0 81.761 23.959 113.808 45.11 26.737 17.652 51.979 34.309 77.913 34.309 11.328 0 20.541 9.194 20.541 20.541 0 11.348-9.213 20.543-20.541 20.543z"/>
        </g>
        <linearGradient id="SVGID_3_" gradientUnits="userSpaceOnUse" x1="5301.9629" y1="2626.3687" x2="5301.9629" y2="2264.8013">
          <stop offset="0" style="stop-color:#B4C7CF"/>
          <stop offset="1" style="stop-color:#FFFFFF"/>
        </linearGradient>
        <path fill="url(#SVGID_3_)" d="M5671.519 2373.651c.402-.337-162.881 48.497-369.558 48.24-206.687.257-369.962-48.577-369.554-48.24.193-.225 169.327-1.894 372.297-2.423 202.97.113 366.623 2.135 366.815 2.423z"/>
        <linearGradient id="SVGID_4_" gradientUnits="userSpaceOnUse" x1="5301.9551" y1="2737.3296" x2="5301.9551" y2="2461.7964">
          <stop offset="0" style="stop-color:#B4C7CF"/>
          <stop offset="1" style="stop-color:#FFFFFF"/>
        </linearGradient>
        <path fill="url(#SVGID_4_)" d="M5634.001 2488.52c1.523-1.315-138.718 80.463-332.04 79.966-193.318.498-333.574-81.281-332.052-79.966.187-.545 152.115 36.686 334.507 34.952 182.38.545 329.377-35.69 329.585-34.952z"/>
        <linearGradient id="SVGID_5_" gradientUnits="userSpaceOnUse" x1="5301.9629" y1="2429.1841" x2="5301.9629" y2="2108.7898">
          <stop offset="0" style="stop-color:#B4C7CF"/>
          <stop offset="1" style="stop-color:#FFFFFF"/>
        </linearGradient>
        <path fill="url(#SVGID_5_)" d="M5671.519 2250.598c.402.337-162.881-48.496-369.558-48.239-206.687-.257-369.962 48.576-369.554 48.239.193.225 169.327 1.894 372.297 2.424 202.97-.113 366.623-2.135 366.815-2.424z"/>
        <linearGradient id="SVGID_6_" gradientUnits="userSpaceOnUse" x1="5301.9551" y1="2371.6963" x2="5301.9551" y2="1952.5748">
          <stop offset="0" style="stop-color:#B4C7CF"/>
          <stop offset="1" style="stop-color:#FFFFFF"/>
        </linearGradient>
        <path fill="url(#SVGID_6_)" d="M5634.001 2135.729c1.523 1.316-138.718-80.463-332.04-79.965-193.318-.498-333.574 81.281-332.052 79.965.187.546 152.115-36.685 334.507-34.951 182.38-.546 329.377 35.69 329.585 34.951z"/>
      </g>
    </g>
</svg>
