<svg version="1.1" id="Fluo_no_sleeves" xmlns="http://www.w3.org/2000/svg" viewBox="0 0 9922 13000" xml:space="preserve">
    <g>
      <g id="Fluo_x5F_no_x5F_sleeves">
        <g>
<linearGradient class="color1" id="ca49c462-6194-4484-87f9-8e49e76fb3bf" >
<stop data-target="-0.31" stop-color="#93AB20"></stop>
</linearGradient>
          <path fill="url(#ca49c462-6194-4484-87f9-8e49e76fb3bf)" d="M3957.632 2997.892c150.816-30.164 674.526-190.568 707.43-201.533 104.195 180.966 881.542 1170.823 1013.157 1285.986 38.386 411.297 60.322 2500.668 60.322 2588.416-10.97 104.197-106.938 222.102-287.908 238.553-361.939 32.904-1176.302-170.004-1439.531-411.296 65.807-551.134 8.224-1620.505-123.391-1982.448 153.547-115.162 398.957-1117.35 69.921-1517.678z"/>
<linearGradient class="color1" id="3e678010-7c7d-4a80-a0ee-8336246ac8f3" >
<stop data-target="-0.15" stop-color="#B7D130"></stop>
</linearGradient>
          <path fill="url(#3e678010-7c7d-4a80-a0ee-8336246ac8f3)" d="M5365.879 6863.465c-379.344 0-1053.996-179.667-1302.805-385.628 57.596-528.395 10.434-1548.776-118.642-1948.903 87.288-102.259 174.152-375.843 209.594-670.626 25.166-209.382 40.604-580.096-113.532-829.063 172.881-43.696 491.763-139.979 602.847-174.337 158.604 243.494 829.779 1094.308 987.353 1250.436 36.974 446.551 58.138 2437.513 58.488 2562.677-10.102 83.288-89.949 178.224-243.018 192.139-24.169 2.199-51.175 3.305-80.285 3.305z"/>
<linearGradient class="color1" id="5c58fb1a-e0c7-433f-b786-c72d840b665d" >
<stop data-target="0.0" stop-color="#DBF74A"></stop>
</linearGradient>
          <path fill="url(#5c58fb1a-e0c7-433f-b786-c72d840b665d)" d="M5630.694 4105.343c-157.573-156.128-828.749-1006.942-987.353-1250.436-111.084 34.358-429.966 130.641-602.847 174.337 154.136 248.968 138.698 619.682 113.532 829.063-7.893 65.625-18.339 130.177-30.767 192.043 205.759 852.92 253.815 1731.432 272.785 2606.961 305.999 120.642 708.162 206.153 969.834 206.153 29.11 0 56.116-1.105 80.286-3.307 153.068-13.915 232.916-108.851 243.018-192.139-.35-125.163-21.514-2116.124-58.488-2562.675z"/>
          <linearGradient class="color2" id="37eb427f-baf8-4948-804a-58939185d927" gradientUnits="userSpaceOnUse" x1="3261.6519" y1="4941.7632" x2="4961.6768" y2="4031.4246">
<stop data-target="-0.19" offset="0" stop-color="#949FA1" />
<stop data-target="0.0" offset="1" stop-color="#B7C6C9" />
          </linearGradient>

          <path fill="url(#37eb427f-baf8-4948-804a-58939185d927)" d="M5656.073 4701.338c-242.437 8.62-484.292 6.543-724.748-10.115-18.361-634.368-93.154-1398.218-325.905-1829.06-75.79 23.176-199.999 62.335-318.752 96.655 221.546 440.686 248.779 1273.553 250.747 1690.912-198.547-28.394-395.825-68.365-591.264-122.923-.568.695-1.148 1.449-1.719 2.126 32.979 102.219 60.596 244.917 82.493 409.552 538.587 141.389 1089.047 181.097 1638.626 150.087-2.904-134.694-6.07-265.685-9.478-387.234z"/>
<linearGradient class="color2" id="3e9c3dbe-fcf3-4ef2-aa11-96b188588974" >
<stop data-target="-0.27" stop-color="#868F98"></stop>
</linearGradient>
          <path fill="url(#3e9c3dbe-fcf3-4ef2-aa11-96b188588974)" d="M3946.151 4526.808c-.568.695-1.148 1.449-1.719 2.126 32.979 102.219 60.596 244.917 82.493 409.552 91.933 24.129 171.298 41.996 263.857 60.357-20.566-127.5-37.019-265.286-54.169-401.695-97.209-20.236-194.071-43.434-290.462-70.34z"/>
          <linearGradient class="color2" id="f1d31e38-0e2f-459f-b03a-03943b0964b4" gradientUnits="userSpaceOnUse" x1="4081.021" y1="6009.9277" x2="5684.8164" y2="6009.9277">
<stop data-target="-0.19" offset="0" stop-color="#949FA1" />
<stop data-target="0.0" offset="1" stop-color="#B7C6C9" />
          </linearGradient>

          <path fill="url(#f1d31e38-0e2f-459f-b03a-03943b0964b4)" d="M5684.816 6254.814c-1.254-99.926-10.313-244.514-12.082-365.518-535.602 43.984-1070.548 25.154-1591.713-148.061 2.922 126.784 4.211 252.208 1.374 368.79 517.623 165.244 1061.785 198.763 1602.421 144.789z"/>
<linearGradient class="color2" id="060f1bf9-5b83-47b6-b028-e02e7ebd828d" >
<stop data-target="-0.27" stop-color="#868F98"></stop>
</linearGradient>
          <path fill="url(#060f1bf9-5b83-47b6-b028-e02e7ebd828d)" d="M4081.021 5741.235c2.922 126.784 4.211 252.208 1.374 368.79 99.232 31.677 199.457 58.423 300.429 80.733-3.936-123.173-12.645-247.731-20.066-371.38-95.997-21.89-186.575-46.519-281.737-78.143z"/>
        </g>
        <g>
<linearGradient class="color1" id="2b3e85bf-5c86-4ae2-84d7-9148b3ff335f" >
<stop data-target="-0.31" stop-color="#93AB20"></stop>
</linearGradient>
          <path fill="url(#2b3e85bf-5c86-4ae2-84d7-9148b3ff335f)" d="M5944.188 2923.857c-49.355 320.813-315.319 969.282-381.13 1180.417-8.229 238.551 24.676 2445.837 32.907 2511.644 41.126 98.714 159.028 268.715 331.771 260.492 189.194-24.68 559.365-189.195 641.629-246.778-32.906-419.525-90.493-1595.828-32.906-1834.379 115.16-394.845 115.16-1217.436-131.616-1562.924-176.855-123.388-378.393-242.661-460.655-308.472z"/>
<linearGradient class="color1" id="e7b578e0-b5fb-4df9-b9f3-a338c74c6f1d" >
<stop data-target="0.0" stop-color="#DBF74A"></stop>
</linearGradient>
          <path fill="url(#e7b578e0-b5fb-4df9-b9f3-a338c74c6f1d)" d="M5915.672 6827.343c-136.9-.007-235.22-142.259-271.148-223.437-7.754-139.767-40.451-2207.308-32.343-2491.291 19.358-60.988 54.836-157.734 95.691-269.144 94.172-256.8 219.482-598.507 270.386-833.773 42.961 29.491 96.044 63.759 154.101 101.234 74.433 48.055 158.518 102.324 237.12 156.917 229.121 331.738 231.097 1131.305 119.597 1513.586l-.59 2.234c-58.788 243.544-4.267 1372.044 29.393 1820.087-109.367 63.66-427.904 200.926-594.464 223.43-2.591.108-5.172.157-7.743.157z"/>
          <linearGradient class="color2" id="b4bebe8d-d29e-4141-a1f3-2cd395709914" gradientUnits="userSpaceOnUse" x1="8300.9561" y1="4010.9419" x2="6239.0044" y2="4065.7749">
<stop data-target="-0.19" offset="0" stop-color="#949FA1" />
<stop data-target="0.0" offset="1" stop-color="#B7C6C9" />
          </linearGradient>

          <path fill="url(#b4bebe8d-d29e-4141-a1f3-2cd395709914)" d="M6401.818 4646.56c56.922-454.613 38.646-956.215-56.618-1401.89-70.166-47.927-258.302-169.115-279.677-183.028 110.71 589.268 60.183 1294.459 31.705 1613.321-161.287 13.055-322.559 22.757-483.573 27.667 1.193 121.015 2.694 252.625 4.414 388.404 283.635-13.889 567.13-46.763 848.722-94.498 3.994-94.146 10.939-168.331 21.694-212.865l.59-2.234c12.887-44.174 24.171-94.117 33.85-148.067-40.358 4.56-80.733 8.946-121.107 13.19z"/>
          <linearGradient class="color2" id="ec2f1db6-fab8-4a3d-bb29-73387ec2d087" gradientUnits="userSpaceOnUse" x1="7616.9551" y1="5896.0952" x2="6355.6563" y2="5994.8052">
<stop data-target="-0.19" offset="0" stop-color="#949FA1" />
<stop data-target="0.0" offset="1" stop-color="#B7C6C9" />
          </linearGradient>

          <path fill="url(#ec2f1db6-fab8-4a3d-bb29-73387ec2d087)" d="M6478.871 5776.881c-239.326 50.031-569.826 97.759-852.742 117.904 2.052 123.027 8.254 266.54 10.129 364.602 285.224-25.7 570.426-76.041 852.047-144.589-5.204-104.488-5.366-227.446-9.434-337.917z"/>
        </g>
      </g>
    </g>
</svg>
