<svg version="1.1" id="Fluo_tshirt" xmlns="http://www.w3.org/2000/svg" viewBox="0 0 9922 13000" xml:space="preserve">
    <g>
      <g id="Fluo_x5F_Tshirt">
        <g>
          <path fill="#93AB20" d="M6460.099 3275.344c148.492 71.447 372.643 330.621 383.844 605.193 5.604 263.369 15.407 683.647 21.013 840.542-140.092 95.258-400.662 114.879-596.786 75.65 33.62-222.742 186.328-1358.883 191.929-1521.385z"/>
          <path fill="#DBF74A" d="M6413.796 4767.358c-36.538 0-70.317-2.066-100.903-6.148-27.099-210.938 71.01-747.605 137.113-1109.186 21.881-119.716 39.865-218.082 50.413-287.468 129.612 102.128 284.213 294.164 293.095 511.778 3.287 155.181 16.67 755.495 21.013 819.53-104.535 58.762-235.914 71.494-400.731 71.494z"/>
        </g>
        <g>
          <path fill="#93AB20" d="M3764.754 3056.804c168.111-33.621 914.789-235.35 961.018-277.375 226.946 353.025 1007.26 402.058 1078.702 53.229 130.288 105.064 522.534 362.837 694.844 459.499 44.171 80.806 5.938 195.689 29.424 306.8 95.18 292.073 110.691 748.79-51.832 1323.853-24.002 752.806 41.092 1413.141 51.832 1559.208-72.852 179.314-1519.99 437.083-2349.32-67.241 22.408-207.33 127.484-738.274 54.634-1214.586-280.179-470.709-666.827-1197.773-469.302-2143.387z"/>
          <path fill="#B7D130" d="M5458.152 6657.647c-342.464 0-827.31-47.527-1213.592-270.919 3.95-31.316 9.18-68.264 14.982-109.297 36.544-258.292 87.168-687.276 26.434-1084.335l-1.49-9.717-5.021-8.447c-234.804-394.473-659.08-1128.289-473.208-2080.034 168.201-38.087 725.188-180.304 902.719-252.104 147.674 189.217 433.81 274.408 663.227 274.408 227.783 0 398.124-78.126 465.708-208.445 154.356 120.765 450.918 340.976 620.929 418.369 195.98 385.303 163.415 895.948-30.455 1581.969l-1.685 5.945-.196 6.165c-21.097 661.591 54.685 1535.978 56.003 1552.411-55.264 62.728-465.098 184.031-1024.355 184.031z"/>
          <path fill="#DBF74A" d="M6426.505 4921.203l.196-6.165 1.685-5.945c193.87-686.021 250.256-1185.461 30.455-1581.969-170.011-77.393-466.572-297.604-620.929-418.369-67.584 130.319-237.925 208.445-465.708 208.445-229.417 0-515.553-85.191-663.227-274.408-151.845 61.415-581.122 174.291-807.445 229.52-5.689 350.655 29.229 701.073 143.403 1043.575 117.673 369.84 420.268 655.628 504.323 1059.09 103.939 460.275-14.987 894.327-32.618 1336.904 324.544 117.103 675.856 145.766 941.512 145.766 559.257 0 969.091-121.304 1024.355-184.034-1.318-16.432-77.099-890.819-56.002-1552.41z"/>
          <g>
            <path fill="#93AB20" d="M5352.768 3276.824c-4.492 0-8.988-.025-13.537-.073-383.354-4.308-764.272-301.814-777.281-416.048l25.052-2.854c11.968 105.044 388.522 389.597 752.508 393.684 365.736 3.975 559.662-171.549 580.001-297.604l24.886 4.022c-20.034 124.233-198.408 318.873-591.629 318.873z"/>
          </g>
          <path fill="#B7D130" d="M4095.366 4410.079c302.599 350.229 1269.224 521.136 1613.843 479.11-462.299 168.106-1098.313 131.688-1266.42 123.285-151.3-210.138-288.587-518.341-347.423-602.395z"/>
          <linearGradient id="SVGID_1_" gradientUnits="userSpaceOnUse" x1="3976.1772" y1="4327.1392" x2="5522.7749" y2="3884.4597">
            <stop offset="0" style="stop-color:#949FA1"/>
            <stop offset="1" style="stop-color:#B7C6C9"/>
          </linearGradient>
          <path fill="url(#SVGID_1_)" d="M6447.631 4541.161c20.987-459.574 25.801-1017.948-99.606-1275.613-106.971-63.259-231.738-152.82-341.825-233.959 129.373 321.663 118.208 996.246 106.766 1541.699-357.219 21.773-826.309 18.68-1288.335-25.568-15.359-565.268-98.196-1331.21-320.195-1639.413-105.362 31.533-228.934 64.429-346.028 95.266 233.958 459.803 254.634 1069.959 264.903 1494.239-184.552-28.77-361.973-65.324-523.892-110.847 51.103 151.945 111.543 290.19 172.849 413.778 755.596 206.526 1836.911 240.753 2362.62 94.053 36.278-129.092 67.423-249.374 91.754-366.34-24.429 4.44-50.871 8.673-79.011 12.705z"/>
          <linearGradient id="SVGID_2_" gradientUnits="userSpaceOnUse" x1="4295.4575" y1="5890.7207" x2="6452.0361" y2="5890.7207">
            <stop offset="0" style="stop-color:#949FA1"/>
            <stop offset="1" style="stop-color:#B7C6C9"/>
          </linearGradient>
          <path fill="url(#SVGID_2_)" d="M4311.11 5596.652c.008 120.669-6.346 238.016-15.652 346.214 633.211 291.211 1582.912 322.189 2156.579 78.429-6.109-104.466-12.456-221.365-17.335-344.095-491.717 214.339-1598.494 153.415-2123.592-80.548z"/>
          <path fill="#868F98" d="M4311.11 5596.652c.008 120.669-6.346 238.016-15.652 346.214 83.048 38.192 171.7 71.765 264.181 100.921 8.868-116.808 19.52-235.059 26.658-353.24-102.367-27.072-195.597-58.436-275.187-93.895zM4828.561 4941.174c-165.974-45.451-317.424-104.585-456.611-181.828-60.014-96.667-113.998-196.771-164.121-299.573-107.277-21.186-210.724-45.344-308.412-72.81 51.103 151.945 111.543 290.19 172.849 413.778 120.584 32.957 249.66 61.451 383.499 85.53-.048-.071-.094-.145-.155-.22 118.614 22.425 242.373 40.043 372.951 55.123z"/>
        </g>
        <g>
          <path fill="#93AB20" d="M2873.78 4127.092c180.716 147.094 823.73 392.258 907.785 409.067 62.255-114.914 201.731-487.512 246.557-913.39 72.85-302.599 85.452-466.494 91.055-547.749-284.379-123.285-624.799 28.015-784.504 330.611-159.703 336.215-402.057 637.408-460.893 721.461z"/>
          <path fill="#DBF74A" d="M3759.146 4474.522c-151.864-49.469-614.126-220.721-812.523-353.026 9.546-12.061 305.885-425.741 433.144-693.235 115.139-217.247 369.639-368.889 619.292-368.889 43.587 0 85.54 4.75 125.07 14.16 46.256 199.253-241.73 1130.168-364.983 1400.99z"/>
        </g>
      </g>
    </g>
</svg>
