<svg version="1.1" id="Fluo_Tshirt_Long" xmlns="http://www.w3.org/2000/svg" viewBox="0 0 9922 13000" xml:space="preserve">
    <g>
      <g id="Fluo_x5F_Tshirt_x5F_Long">
        <g>
          <path fill="#93AB20" d="M6430.311 3261.693c172.705 36.765 396.75 298.257 407.844 570.149 5.551 260.796 52.712 1116.723 58.264 1272.085 122.08 377.327 213.629 574.317 252.475 1484.336-137.338 49.938-443.714 49.981-541.017 30.521-142.925-350.467-347.924-836.887-371.775-1348.389-43.737-938.17 190.624-1904.562 194.209-2008.702z"/>
          <path fill="#B7D130" d="M6837.758 6597.911c-77.986 0-144.417-4.609-185.902-10.086-144.352-354.213-334.645-831.281-357.548-1322.527-34.228-734.212 105.432-1498.077 165.063-1824.254 8.357-45.688 14.814-81.22 19.52-108.788 141.791 80.468 308.781 280.596 317.686 498.846 3.579 168.377 24.909 592.684 40.48 902.5 8.493 168.913 15.825 314.784 17.78 369.333l.247 6.967s16.6 51.136 23.646 72.728c108.363 332.12 186.01 565.73 222.998 1383.435-63.066 15.468-155.67 31.846-263.97 31.846z"/>
          <path fill="#DBF74A" d="M7101.729 6566.065c-36.988-817.705-114.635-1051.314-222.998-1383.435-7.047-21.592-23.646-72.728-23.646-72.728l-.247-6.967c-1.955-54.55-9.287-200.421-17.78-369.333-15.571-309.816-36.901-734.123-40.48-902.5-8.904-218.25-175.895-418.378-317.686-498.846-4.705 27.568-11.162 63.1-19.52 108.788-33.759 184.683-31.692 452.853-70.677 833.327 28.725 272.367 19.427 776.853 110.981 1093.138 33.294 393.974 138.716 799.041 289.44 1229.76 15.632.391 31.798.642 48.642.642 108.3 0 200.904-16.378 263.971-31.846z"/>
          <linearGradient id="SVGID_1_" gradientUnits="userSpaceOnUse" x1="6289.1025" y1="4801.6079" x2="6845.9766" y2="4801.6079">
            <stop offset="0" style="stop-color:#949FA1"/>
            <stop offset="1" style="stop-color:#B7C6C9"/>
          </linearGradient>
          <path fill="url(#SVGID_1_)" d="M6830.081 4594.627c-173.43 39.989-351.144 63.893-530.051 73.744-6.489 111.641-10.49 225.602-10.928 340.217 187.71-20.027 374.378-51.695 556.874-96.862-2.661-53.624-5.71-114.204-8.92-178.124-2.229-44.333-4.576-91.05-6.975-138.975z"/>
          <linearGradient id="SVGID_2_" gradientUnits="userSpaceOnUse" x1="6364.126" y1="5824.4014" x2="7054.3125" y2="5824.4014">
            <stop offset="0" style="stop-color:#949FA1"/>
            <stop offset="1" style="stop-color:#B7C6C9"/>
          </linearGradient>
          <path fill="url(#SVGID_2_)" d="M6364.126 5743.167c25.97 110.831 57.268 218.928 91.224 322.774 206.341-16.729 403.958-65.652 598.963-125.411-17.131-142.457-37.116-256.859-59.771-357.668-207.313 70.933-415.953 131.883-630.416 160.305z"/>
          <path fill="#868F98" d="M6364.126 5743.167c25.97 110.831 57.268 218.928 91.224 322.774 53.738-4.356 106.868-10.988 159.529-19.337-28.009-110.959-51.539-222.414-71.082-334.865-59.506 12.635-119.335 23.428-179.671 31.428z"/>
        </g>
        <g>
          <g id="T_shirt_long_HV">
            <g>
              <path fill="#93AB20" d="M3780.71 3042.513c166.47-33.292 905.857-233.052 951.631-274.667 224.734 349.577 997.427 398.131 1068.17 52.709 129.018 104.04 517.432 359.295 688.06 455.012 43.741 80.015 5.882 193.779 29.137 303.803 94.252 289.222 109.611 741.48-51.325 1310.927-23.768 745.455 40.691 1399.341 51.325 1543.981-72.14 177.564-1505.147 432.817-2326.381-66.584 22.193-205.304 126.241-731.064 54.102-1202.725-277.442-466.109-660.319-1186.074-464.719-2122.456z"/>
              <path fill="#B7D130" d="M5457.571 6608.196c-339.119 0-819.229-47.065-1201.741-268.274 3.911-31.011 9.091-67.598 14.834-108.23 36.189-255.77 86.319-680.565 26.175-1073.747l-1.472-9.622-4.971-8.364c-232.513-390.621-652.647-1117.272-468.591-2059.722 166.561-37.716 718.109-178.544 893.908-249.645 146.231 187.37 429.573 271.729 656.751 271.729 225.557 0 394.236-77.363 461.157-206.409 152.849 119.585 446.516 337.647 614.868 414.285 194.064 381.54 161.815 887.198-30.158 1566.52l-1.671 5.889-.193 6.104c-20.89 655.131 54.149 1520.979 55.457 1537.251-54.726 62.116-460.555 182.235-1014.353 182.235z"/>
              <path fill="#DBF74A" d="M6416.468 4888.708l.193-6.104 1.671-5.889c191.974-679.322 247.81-1173.886 30.158-1566.52-168.353-76.637-462.02-294.699-614.868-414.285-66.921 129.046-235.601 206.409-461.157 206.409-227.178 0-510.52-84.358-656.751-271.729-150.362 60.816-575.448 172.59-799.564 227.279-5.632 347.231 28.948 694.228 142.003 1033.384 116.526 366.229 416.167 649.226 499.399 1048.749 102.924 455.78-14.84 885.595-32.3 1323.85 321.379 115.959 669.259 144.343 932.319 144.343 553.798 0 959.627-120.12 1014.354-182.237-1.308-16.27-76.347-882.119-55.457-1537.25z"/>
              <g>
                <path fill="#93AB20" d="M5353.216 3260.385c-4.448 0-8.901-.024-13.404-.072-379.61-4.266-756.81-298.867-769.689-411.984l24.805-2.827c11.85 104.019 384.729 385.792 745.158 389.84 362.165 3.938 554.198-169.874 574.34-294.698l24.642 3.983c-19.838 123.019-196.468 315.758-585.852 315.758z"/>
              </g>
              <path fill="#B7D130" d="M4108.093 4382.574c299.643 346.81 1256.829 516.047 1598.084 474.434-457.785 166.463-1087.588 130.402-1254.055 122.08-149.822-208.086-285.768-513.279-344.029-596.514z"/>
              <linearGradient id="SVGID_3_" gradientUnits="userSpaceOnUse" x1="3360.3657" y1="4204.0029" x2="5491.1411" y2="3882.1643">
                <stop offset="0" style="stop-color:#949FA1"/>
                <stop offset="1" style="stop-color:#B7C6C9"/>
              </linearGradient>
              <path fill="url(#SVGID_3_)" d="M6437.389 4512.377c20.782-455.086 25.546-1008.008-98.634-1263.158-105.926-62.639-229.476-151.327-338.488-231.673 128.108 318.521 117.055 986.517 105.724 1526.643-353.73 21.562-818.238 18.499-1275.752-25.317-15.21-559.749-97.237-1318.211-317.071-1623.405-104.333 31.226-226.702 63.8-342.648 94.336 231.671 455.313 252.146 1059.511 262.315 1479.646-182.749-28.488-358.439-64.686-518.776-109.765 50.605 150.462 110.454 287.356 171.161 409.739 748.213 204.509 1818.975 238.4 2339.549 93.133 35.926-127.832 66.766-246.939 90.856-362.763-24.187 4.398-50.37 8.591-78.236 12.584z"/>
              <linearGradient id="SVGID_4_" gradientUnits="userSpaceOnUse" x1="4306.229" y1="5848.7578" x2="6441.75" y2="5848.7578">
                <stop offset="0" style="stop-color:#949FA1"/>
                <stop offset="1" style="stop-color:#B7C6C9"/>
              </linearGradient>
              <path fill="url(#SVGID_4_)" d="M4321.729 5557.56c.007 119.492-6.285 235.693-15.5 342.833 627.032 288.368 1567.457 319.043 2135.521 77.664-6.05-103.447-12.334-219.204-17.163-340.736-486.917 212.246-1582.885 151.918-2102.858-79.761z"/>
              <path fill="#868F98" d="M4321.729 5557.56c.007 119.492-6.285 235.693-15.5 342.833 82.239 37.819 170.026 71.064 261.603 99.936 8.779-115.667 19.328-232.765 26.398-349.791-101.367-26.808-193.686-57.865-272.501-92.978zM4834.131 4908.483c-164.355-45.006-314.326-103.563-452.153-180.052-59.432-95.723-112.888-194.85-162.522-296.646-106.224-20.979-208.664-44.901-305.397-72.1 50.605 150.462 110.454 287.356 171.161 409.739 119.404 32.634 247.224 60.85 379.753 84.695-.046-.07-.091-.145-.15-.218 117.452 22.204 240.002 39.649 369.308 54.582z"/>
            </g>
          </g>
          <g>
            <path fill="#93AB20" d="M2584.918 4557.367c245.54 66.587 965.513 299.641 1048.743 316.286 54.104-120.687 387.038-615.931 407.847-1270.701 72.139-299.645 94.325-457.778 99.877-538.237-316.286-188.669-674.19 61.031-804.593 355.129-155.363 294.09-706.093 1008.511-751.874 1137.523z"/>
            <path fill="#DBF74A" d="M3607.007 4815.274c-77.331-21.667-247.871-74.631-413.783-126.165-189.536-58.867-400.839-124.5-535.879-163.299 46.923-77.728 147.136-218.063 244.739-354.732 180.691-253.02 405.496-567.818 497.395-760.744 110.534-208.709 323.113-367.821 529.661-367.821 57.245 0 183.368-7.485 237.215 12.487-8.904 85.736-33.552 187.069-95.716 445.297l-12.485 108.208c-83.237 420.329-322.451 970.383-424.386 1157.279-10.322 18.929-19.248 35.29-26.761 49.49z"/>
            <linearGradient id="SVGID_5_" gradientUnits="userSpaceOnUse" x1="2994.8442" y1="4094.209" x2="3910.8872" y2="4094.209">
              <stop offset="0" style="stop-color:#949FA1"/>
              <stop offset="1" style="stop-color:#B7C6C9"/>
            </linearGradient>
            <path fill="url(#SVGID_5_)" d="M2994.844 4035.073c284.627 71.915 565.297 203.753 802.24 378.373 37.875-90.924 77.005-190.982 113.803-294.145-209.243-173.118-470.141-297.479-735.01-344.33-57.587 85.555-120.477 174.697-181.033 260.102z"/>
          </g>
        </g>
      </g>
      <g>
        <path fill="#93AB20" d="M2779.907 4391.878c-190.261 36.99-443.922 316.287-455.016 482.756 27.752 183.112 105.432 360.674 327.392 482.755 255.244 105.431 843.434-22.192 893.369-33.293-94.328-77.693-210.852-399.524-83.228-743.55-83.237-16.653-194.467-39.227-266.352-77.686-127.467-68.177-216.405-149.817-416.165-110.982z"/>
        <path fill="#DBF74A" d="M2935.65 5348.899c-113.293 0-201.346-12.329-261.794-36.649-173.662-96.31-266-232.078-298.699-439.366 14.398-138.595 243.972-398.871 414.281-431.986 31.579-6.135 60.349-9.127 87.932-9.127 95.146 0 159.47 37.343 233.948 80.582 19.542 11.339 39.741 23.062 61.199 34.546 63.093 33.751 149.298 55.33 224.546 71.271-85.066 280.244-23.002 540.049 58.522 673.389-114.378 21.909-328.897 57.339-519.919 57.339l-.016.001z"/>
        <linearGradient id="SVGID_6_" gradientUnits="userSpaceOnUse" x1="2915.3306" y1="5787.6724" x2="2856.9197" y2="4327.3921">
          <stop offset="0" style="stop-color:#949FA1"/>
          <stop offset="1" style="stop-color:#B7C6C9"/>
        </linearGradient>
        <path fill="url(#SVGID_6_)" d="M2674.476 4708.166c-88.412 198.935-67.136 461.022 64.504 626.333 54.381 12.535 247.618 22.891 301.812 11.191-93.148-186.646-95.163-435.559-33.387-620.877 27.68-71.966 68.313-142.035 119.312-203.581-23.592-21.152-119.312-87.737-214.857-87.741-104.013 65.738-189.242 160.343-237.384 274.675z"/>
      </g>
    </g>
</svg>
