<svg version="1.1" id="Fluo_pants_1_" xmlns="http://www.w3.org/2000/svg" viewBox="0 0 9922 13000" xml:space="preserve">
    <g>
      <g id="Fluo_pants">
        <g>
<linearGradient class="color1" id="7bafa791-f1a0-4a6c-aa35-480a2f2704dc" >
<stop data-target="-0.31" stop-color="#93AB20"></stop>
</linearGradient>
          <path fill="url(#7bafa791-f1a0-4a6c-aa35-480a2f2704dc)" d="M5149.742 6163.601c32.666 544.463 13.614 2569.835-2.72 2921.009 8.164 294.006-113.934 560.273-141.56 854.795-32.687 348.456 42.198 781.296 66.693 985.465 10.245 129.706-14.981 291.571-4.079 400.177 4.361 43.424 55.024 67.905 59.001 105.999 9.878 94.565 9.974 170.969 14.499 220.671 220.505-24.501 604.344-111.612 865.683-111.612-14.562-52.007-21.11-124.993-28.58-219.151-2.903-36.449 50.025-94.92 48.998-130.668-11.734-408.589-22.803-1008.802 17.693-1365.212 32.673-228.672 84.394-392.007 141.559-555.351 163.336-533.56 367.513-1946.434 212.341-3253.125-263.381 147.003-716.639 223.225-1249.528 147.003z"/>
<linearGradient class="color1" id="f224b271-d00b-477d-9655-e834bd50df1b" >
<stop data-target="-0.15" stop-color="#B7D130"></stop>
</linearGradient>
          <path fill="url(#f224b271-d00b-477d-9655-e834bd50df1b)" d="M5186.428 11579.965c-1.977-42.223-4.424-94.771-10.612-154.019-3.489-33.349-23.288-56.881-39.201-75.778-9.362-11.133-19.042-22.635-19.786-30.026-5.039-50.23-1.668-114.882 1.901-183.34 3.776-72.423 7.684-147.312 2.275-215.796l-.193-1.977c-4.131-34.398-9.673-75.226-15.899-121.033-30.803-226.771-77.352-569.478-50.668-854.014 11.419-121.738 40.211-241.715 68.058-357.748 38.491-160.445 78.298-326.33 73.751-501.156 16.896-368.232 33.867-2251.034 5.706-2865.11 121.568 15.034 242.151 22.638 359.236 22.638 310.699 0 590.368-52.988 797.563-150.172 133.61 1232.794-48.767 2607.666-218.195 3162.013-53.897 154.046-109.325 324.511-143.493 563.694-41.248 362.766-30.115 957.589-18.172 1373.55-.84 6.09-11.802 26.412-18.349 38.543-16.294 30.23-33.152 61.484-30.521 94.598 5.267 66.287 10.044 121.514 17.384 167.602-164.361 6.938-361.35 39.783-537.433 69.146-80.214 13.366-156.938 26.152-222.569 35.075-.255-5.387-.52-10.964-.783-16.69z"/>
<linearGradient class="color1" id="abc7a156-3f73-46cf-b997-b460ac81dd7e" >
<stop data-target="0.0" stop-color="#DBF74A"></stop>
</linearGradient>
          <path fill="url(#abc7a156-3f73-46cf-b997-b460ac81dd7e)" d="M5381.133 9558.282c-73.501 539.015-68.054 1578.92 30.37 2003.004 175.65-29.285 371.87-61.927 535.708-68.853-7.34-46.088-12.117-101.314-17.384-167.602-2.631-33.113 14.228-64.367 30.521-94.598 6.547-12.131 17.509-32.453 18.349-38.543-11.943-415.961-28.604-1097.111 28.563-1461.9-190.556 193.284-462.789-24.504-626.127-171.508z"/>
          <linearGradient class="color2" id="6907dc62-5680-4bce-8b2f-8769b5166276" gradientUnits="userSpaceOnUse" x1="4576.9414" y1="10199.1768" x2="6072.2349" y2="10145.7734">
<stop data-target="-0.19" offset="0" stop-color="#949FA1" />
<stop data-target="0.0" offset="1" stop-color="#B7C6C9" />
          </linearGradient>

          <path fill="url(#6907dc62-5680-4bce-8b2f-8769b5166276)" d="M5969.25 10341.465c1.796-115.839 5.35-227.962 11.498-330.433-309.541 37.414-625.917 24.855-929.423-29.246-7.895 111.692-5.379 230.851 2.243 347.547 301.43 47.136 610.644 39.187 915.682 12.132z"/>
<linearGradient class="color2" id="8462708c-5316-4d6c-90ac-0e1d6932582f" >
<stop data-target="-0.27" stop-color="#868F98"></stop>
</linearGradient>
          <path fill="url(#8462708c-5316-4d6c-90ac-0e1d6932582f)" d="M5338.721 10020.047c-96.653-8.539-192.656-21.373-287.396-38.261-7.895 111.692-5.379 230.851 2.243 347.547 93.603 14.628 183.822 24.21 278.567 29.306-1.404-112.785 1.378-225.82 6.586-338.592z"/>
          <linearGradient class="color2" id="878ab1a7-8a1c-46cb-b72b-65bae53f23f5" gradientUnits="userSpaceOnUse" x1="4597.8198" y1="10966.1846" x2="5937.1895" y2="10868.1816">
<stop data-target="-0.19" offset="0" stop-color="#949FA1" />
<stop data-target="0.0" offset="1" stop-color="#B7C6C9" />
          </linearGradient>

          <path fill="url(#878ab1a7-8a1c-46cb-b72b-65bae53f23f5)" d="M5973.931 11009.056c-2.271-97.292-4.172-199.978-5.221-304.307-284.331 59.913-580.584 73.642-867.661 64.69 1.298 9.565 2.611 19.355 3.863 28.557 6.227 45.808 11.769 86.635 15.899 121.033l.193 1.977c3.157 40.012 2.993 82.244 1.678 124.848 282.154 23.468 571.3 15.539 851.249-36.798z"/>
<linearGradient class="color2" id="6b9ce5f2-8ae4-4cdd-ad9c-6a983ca69099" >
<stop data-target="-0.27" stop-color="#868F98"></stop>
</linearGradient>
          <path fill="url(#6b9ce5f2-8ae4-4cdd-ad9c-6a983ca69099)" d="M5333.587 10771.219c-77.897 1.322-155.547.618-232.538-1.779 1.298 9.565 2.611 19.355 3.863 28.557 6.227 45.808 11.769 86.635 15.899 121.033l.193 1.977c3.157 40.012 2.993 82.244 1.678 124.848 73.212 6.088 149.199 10.771 223.063 12.404-8.364-96.657-12.55-192.149-12.158-287.04z"/>
<linearGradient class="color1" id="cb91643b-95fd-4950-9e88-0566494e0fbf" >
<stop data-target="0.0" stop-color="#DBF74A"></stop>
</linearGradient>
          <path fill="url(#cb91643b-95fd-4950-9e88-0566494e0fbf)" d="M6358.558 6092.435c-199.131 93.398-465.314 145.841-761.554 149.788-105.93 1052.59-216.006 2095.943-129.862 3165.424 111.168 189.396 312.47 483.467 517.659 390.197 22.459-10.206 32.672-108.209 43.004-154.537 32.268-152.501 72.805-275.232 112.558-388.859 169.428-554.347 351.805-1929.219 218.195-3162.013z"/>
        </g>
        <g>
<linearGradient class="color1" id="b3b492ed-79be-4f4a-8463-6f5e32d49f5b" >
<stop data-target="-0.31" stop-color="#93AB20"></stop>
</linearGradient>
          <path fill="url(#b3b492ed-79be-4f4a-8463-6f5e32d49f5b)" d="M4324.893 5910.432c-356.623 1475.473-490.026 2379.262-626.127 3386.514-73.502 449.18-155.17 585.286-196.006 822.122-117.054 435.57-63.967 1283.565-63.967 1283.565s25.864 80.303 44.454 120.99c2.941 65.142 1.8 148.525 4.546 217.924 269.504-48.997 586.671-99.361 828.931-36.749-3.414-86.428-3.131-122.301 0-216.423.809-24.121 32.669-122.5 32.669-122.5s6.099-283.273 44.918-547.18c49.001-367.502 151.082-713.23 257.254-1146.074 326.696-686.021 816.683-2205.044 914.685-2509.945 46.242-13.212 179.67-43.555 179.67-43.555s130.669-512.462 49.001-903.792c-714.597-2.727-1167.856-166.062-1470.028-304.897z"/>
<linearGradient class="color1" id="f5cddc2f-0028-42b4-a865-631d8a899314" >
<stop data-target="-0.15" stop-color="#B7D130"></stop>
</linearGradient>
          <path fill="url(#f5cddc2f-0028-42b4-a865-631d8a899314)" d="M3535.276 11683.242c-.279-16.408-.465-33.055-.645-49.447-.439-38.352-.886-78.018-2.433-112.387l-.431-9.501-3.96-8.649c-14.424-31.572-34.298-91.043-40.472-109.816-4.417-77.216-45.717-858.054 62.744-1261.646l.587-2.178.386-2.217c16.351-94.846 39.637-173.705 66.602-265.016 38.211-129.434 85.775-290.519 129.469-557.523 136.392-1009.31 268.347-1896.609 611.578-3325.54 412.56 180.933 854.332 300.658 1454.595 249.614 49.825 321.218-70.581 744.53-104.935 848.528-41.768 9.651-121.041 28.224-155.571 38.103l-25.18 7.195-8.008 24.922c-174.883 544.084-613.86 1877.23-912.277 2503.867l-2.155 4.529-1.195 4.867c-25.034 102.079-49.844 199.274-73.827 293.275-78.67 308.27-146.605 574.488-184.41 858.001-35.283 239.846-43.857 499.032-45.146 545.332-12.822 40.016-31.993 103.69-32.844 129.192-2.264 68.209-3.072 106.891-2.003 156.849-63.653-11.408-133.51-16.987-211.708-16.987-171.957 0-354.849 27.653-518.761 56.633z"/>
<linearGradient class="color1" id="7c7ff8cd-204b-422c-b4b6-ab952c671fb0" >
<stop data-target="0.0" stop-color="#DBF74A"></stop>
</linearGradient>
          <path fill="url(#7c7ff8cd-204b-422c-b4b6-ab952c671fb0)" d="M3911.103 9394.949c-269.503 612.514-309.683 1626.678-319.777 2278.619 148.934-25.152 310.093-46.959 462.712-46.959 78.198 0 148.055 5.579 211.708 16.987-1.068-49.958-.261-88.64 2.003-156.849.851-25.502 20.021-89.177 32.844-129.192 1.289-46.3 9.863-305.486 45.146-545.332 37.805-283.513 105.739-549.731 184.41-858.001 3.055-11.988 45.197-218.997 72.418-303.385-208.255 93.919-484.565-5.438-691.464-255.888z"/>
          <linearGradient class="color2" id="a46031b9-5184-4d42-befe-0e5e9e214e60" gradientUnits="userSpaceOnUse" x1="3402.4004" y1="9938.0879" x2="4235.4136" y2="10106.8711">
<stop data-target="-0.19" offset="0" stop-color="#949FA1" />
<stop data-target="0.0" offset="1" stop-color="#B7C6C9" />
          </linearGradient>

          <path fill="url(#a46031b9-5184-4d42-befe-0e5e9e214e60)" d="M4450.811 10271.766c22.832-95.247 47.465-192.62 73.506-294.667-302.944 12.169-610.111-46.527-890.835-168.634a14210.744 14210.744 0 0 1-15.827 53.92c-26.278 89.002-49.018 166.277-65.295 257.938 282.507 118.079 591.871 161.999 898.451 151.443z"/>
<linearGradient class="color2" id="b516de60-433d-4429-ad60-bcf20379b1d8" >
<stop data-target="-0.27" stop-color="#868F98"></stop>
</linearGradient>
          <path fill="url(#b516de60-433d-4429-ad60-bcf20379b1d8)" d="M3633.481 9808.465a14210.744 14210.744 0 0 1-15.827 53.92c-26.278 89.002-49.018 166.277-65.295 257.938 46.021 19.231 100.461 39.848 147.771 55.238 17.01-104.854 41.349-234.447 61.248-315.45-44.005-15.661-85.017-32.992-127.897-51.646z"/>
          <linearGradient class="color2" id="445822b3-4077-4bfa-ae7a-99f1bd1c29ef" gradientUnits="userSpaceOnUse" x1="3298.7114" y1="10823.4561" x2="4011.9478" y2="10905.125">
<stop data-target="-0.19" offset="0" stop-color="#949FA1" />
<stop data-target="0.0" offset="1" stop-color="#B7C6C9" />
          </linearGradient>

          <path fill="url(#445822b3-4077-4bfa-ae7a-99f1bd1c29ef)" d="M4315.289 11090.576c6.794-86.33 16.542-183.822 30.451-278.353 2.245-16.786 4.69-33.462 7.146-50.147-294.557 6.908-589.28-27.754-870.637-93.232-5.206 114.558-6.645 228.373-6.167 330.937 271.062 69.425 554.532 95.99 839.207 90.795z"/>
<linearGradient class="color2" id="2c83baa6-73d0-42c7-aa19-fe55e30a5735" >
<stop data-target="-0.27" stop-color="#868F98"></stop>
</linearGradient>
          <path fill="url(#2c83baa6-73d0-42c7-aa19-fe55e30a5735)" d="M3482.249 10668.844c-5.206 114.558-6.645 228.373-6.167 330.937 43.621 11.17 87.585 21.116 131.803 30.12 3.75-109.847 13.485-219.671 23.877-329.512-50.196-9.539-100.075-20.041-149.513-31.545z"/>
<linearGradient class="color1" id="4a1bccf4-b11a-4e4c-a571-0c9a0f32f7e4" >
<stop data-target="0.0" stop-color="#DBF74A"></stop>
</linearGradient>
          <path fill="url(#4a1bccf4-b11a-4e4c-a571-0c9a0f32f7e4)" d="M5811.257 6231.65c-480.602 40.87-873.102-31.967-1216.859-153.803-40.922 142.86-79.759 332.757-109.032 479.102-65.334 310.339-163.337 588.012-212.338 898.354-115.196 590.396-223.974 1168.095-281.715 1744.296 21.764 93.099 59.37 182.129 118.379 264.741 108.298 168.47 276.451 304.916 492.877 198.753 297.968-638.494 928.974-2527.643 928.974-2527.643s144.031-41.389 185.796-51.041c34.36-103.995 151.083-528.797 93.918-852.759z"/>
        </g>
      </g>
    </g>
</svg>
