<svg version="1.1" id="Fluo_Warmer" xmlns="http://www.w3.org/2000/svg" viewBox="0 0 9922 13000" xml:space="preserve">
    <g>
      <g>
        <g>
          <g>
            <g>
              <path fill="#93AB20" d="M4005.942 6360.134c32.683 142.708 37.932 241.466 76.353 301.924 308.138 198.302 1770.298 318.087 2405.083 1.681 47.38-32.428 78.294-218.111 89.548-300.367-292.183 15.656-2378.031-8.17-2570.984-3.238z"/>
              <path fill="#B7D130" d="M5294.853 6802.511c-506.817-1.398-1006.629-76.568-1175.835-175.91-17.465-33.554-27.135-85.767-39.093-150.361-3.866-20.858-8.034-43.288-12.813-67.228 11.651 0 24.7 0 39.059.045 146.159.407 416.452 3.229 729.466 6.503 427.879 4.459 912.867 9.556 1270.458 10.529 187.596.525 319.812-.151 400.474-2.065-8.518 61.059-19.29 127.132-39.612 193.076-256.067 121.031-670.917 186.795-1172.104 185.411z"/>
              <path fill="#DBF74A" d="M4331.909 6594.162c-.099 32.907 12.204 69.974 23.05 114.656 236.876 55.867 586.611 92.715 939.894 93.692 501.188 1.384 916.037-64.38 1172.104-185.41 37.594-56.313 39.935-138.274 39.612-193.076-873.015 395.856-2034.156 191.086-2174.66 170.138z"/>
            </g>
            <polygon fill="#333333" points="5562.995,6629.02 5565.093,6799.282 5642.873,6792.975 5636.559,6626.91"/>
          </g>
          <polygon fill="#333333" points="5565.093,6776.153 5542.574,6856.729 5661.79,6845.547 5638.665,6771.969"/>
        </g>
        <g>
          <g id="Fluo_body-warmer_2_">
            <g>
              <path fill="#93AB20" d="M3767.716 2948.058c39.941-16.813 816.315-223.964 847.876-229.835 63.884 138.986 321.734 492.395 724.895 558.951 105.741 532.477 295.213 2452.986 277.582 3369.159-489.075 39.15-1432.026-25.731-1640.144-183.392-25.226-23.113-36.745-71.772-39.938-98.802-55.821-473.361-107.508-1433.216-103.003-2003.398 151.352-340.537 155.558-891.333-42.052-1343.291-7.146-16.38-46.24-54.664-25.216-69.392z"/>
              <path fill="#B7D130" d="M4034.688 6439.827c-31.529-16.823-37.277-67.38-39.932-90.419-54.733-471.573-109.04-1419.13-105.119-1988.668 137.42-316.924 176.596-891.333-54.652-1383.239 157.324-42.931 626.684-172.099 755.981-205.532 41.615 76.32 119.727 185.897 228.396 286.788 144.646 134.291 341.271 220.04 512.388 255.092 52.048 279.285 133.565 866.71 189.194 1496.771 64.227 727.528 56.365 1383.784 51.539 1792.529-107.808 17.909-1100.009 28.42-1537.795-163.322z"/>
              <linearGradient id="SVGID_1_" gradientUnits="userSpaceOnUse" x1="3963.3535" y1="3935.8135" x2="5101.3257" y2="3850.8901">
                <stop offset="0" style="stop-color:#949FA1"/>
                <stop offset="1" style="stop-color:#B7C6C9"/>
              </linearGradient>
              <path fill="url(#SVGID_1_)" d="M5499.106 4549.663c-209.294 10.386-423.631 15.054-635.52 14.401-23.753-573.306-191.927-1439.409-372.729-1767.347-81.18 22.052-347.898 94.324-365.776 98.78 210.222 403.631 316.823 1216.175 332.147 1650.226-219.248-.991-382.592 8.426-569.683-6.303-1.075 87.774 8.399 296.938 10.494 355.267 387.74 47.021 1109.789 50.439 1626.76 24.329-2.931-125.302-10.285-255.816-25.693-369.353z"/>
              <linearGradient id="SVGID_2_" gradientUnits="userSpaceOnUse" x1="3923.2705" y1="5802.7646" x2="5664.0371" y2="5802.7646">
                <stop offset="0" style="stop-color:#949FA1"/>
                <stop offset="1" style="stop-color:#B7C6C9"/>
              </linearGradient>
              <path fill="url(#SVGID_2_)" d="M5664.037 6021.309c-1.332-95.104-10.862-271.438-12.769-386.631-310.541 16.239-1187.164 44.997-1727.998-71.482 0 16.308 27.328 340.553 29.429 363.683 407.834 115.628 1286.552 138.743 1711.338 94.43z"/>
              <path fill="#DBF74A" d="M5520.943 4810.62c-55.629-630.06-137.146-1217.486-189.194-1496.771-171.116-35.052-367.741-120.801-512.388-255.092-108.669-100.891-186.78-210.468-228.396-286.788-129.297 33.434-598.657 162.602-755.981 205.532 135.531 288.32 178.146 604.962 162.549 881.504 26.969 539.054 60.253 1076.667 102.313 1620.107 12.62 206.012 25.235 407.814 63.082 618.043 4.198 21.024 8.403 42.055 12.621 63.059 20.479 117.065 36.917 244.277 84.71 351.948 485.953 116.151 1220.33 106.261 1312.223 90.986 4.827-408.745 12.688-1065.001-51.539-1792.528z"/>
              <linearGradient id="SVGID_3_" gradientUnits="userSpaceOnUse" x1="3962.5483" y1="3941.3032" x2="5101.7397" y2="3856.2891">
                <stop offset="0" style="stop-color:#949FA1"/>
                <stop offset="1" style="stop-color:#B7C6C9"/>
              </linearGradient>
              <path fill="url(#SVGID_3_)" d="M5499.106 4549.663c-209.294 10.386-423.631 15.054-635.52 14.401-23.753-573.306-191.927-1439.409-372.729-1767.347-81.18 22.052-347.898 94.324-365.776 98.78 210.222 403.631 316.823 1216.175 332.147 1650.226-219.248-.991-382.592 8.426-569.683-6.303-1.075 87.774 8.399 315.16 10.494 373.506 387.74 46.964 1111.544 42.906 1628.496 16.819-2.922-125.301-12.021-266.545-27.429-380.082z"/>
              <linearGradient id="SVGID_4_" gradientUnits="userSpaceOnUse" x1="3923.2705" y1="5802.7646" x2="5664.0371" y2="5802.7646">
                <stop offset="0" style="stop-color:#949FA1"/>
                <stop offset="1" style="stop-color:#B7C6C9"/>
              </linearGradient>
              <path fill="url(#SVGID_4_)" d="M5664.037 6021.309c-1.332-95.104-10.862-271.438-12.769-386.631-310.541 16.239-1187.164 44.997-1727.998-71.482 0 16.308 27.328 340.553 29.429 363.683 407.834 115.628 1286.552 138.743 1711.338 94.43z"/>
              <path fill="#868F98" d="M3887.546 4539.421c-1.075 87.774 8.399 315.16 10.494 373.506 49.002 5.931 103.378 11.044 162.005 15.412a59138.546 59138.546 0 0 1-24.465-381.6c-48.661-1.13-97.493-3.343-148.034-7.318zM3923.271 5563.195c0 16.308 27.328 340.553 29.429 363.683 55.386 15.695 119.531 29.677 189.973 42.037-17.305-125.578-27.289-249.043-35.481-373.157-64.392-9.338-126.089-20.12-183.921-32.563z"/>
            </g>
            <g>
              <path fill="#93AB20" d="M5941.898 2850.395c-26.436 324.991-277.567 379.798-436.195 426.779-3.789 97.768 27.537 718.608 44.065 1405.61 21.861 908.583 31.7 1928.538 36.728 1964.202 364.214-10.421 891.655-120.507 1013.3-196.178 44.153-42.042 40.082-115.528 37.852-163.967-21.034-451.975.685-1428.016 6.302-1677.456 5.604-249.463 33.674-1133.515-195.496-1463.087-189.466-117.44-418.434-233.253-506.556-295.903z"/>
              <path fill="#DBF74A" d="M5636.352 6597.979c-18.306-372.92-118.723-2940.254-117.421-3312.969 148.402-42.395 335.951-133.935 396.532-399.366 45.309 27.525 167.63 108.202 228.011 142.868 79.745 45.731 190.919 105.128 275.104 157.105 195.569 341.999 182.89 1145.691 172.379 1400.059-10.501 254.012-10.505 1278.121-4.203 1736.42.566 40.746-10.509 92.489-81.989 119.819-140.954 62.984-533.531 139.209-868.413 156.064z"/>
              <linearGradient id="SVGID_5_" gradientUnits="userSpaceOnUse" x1="4609.7241" y1="3912.166" x2="6447.0161" y2="3949.7896">
                <stop offset="0" style="stop-color:#949FA1"/>
                <stop offset="1" style="stop-color:#B7C6C9"/>
              </linearGradient>
              <path fill="url(#SVGID_5_)" d="M6432.119 4490.407c9.576-390.337-30.357-1037.816-103.93-1357.341-75.178-45.647-288.227-173.858-311.129-187.097 88.289 548.651 96.69 1267.621 88.718 1572.149-185.807 13.998-372.423 24.806-549.399 29.587 1.27 115.215 15.968 249.965 17.813 379.227 433.93-18.883 839.329-62.315 1011.862-88.305 4.28-89.608 8.403-283.079 9.805-362.96-42.694 4.286-120.046 10.612-163.74 14.74z"/>
              <linearGradient id="SVGID_6_" gradientUnits="userSpaceOnUse" x1="4225.8115" y1="5925.2661" x2="7111.6353" y2="5698.9268">
                <stop offset="0" style="stop-color:#949FA1"/>
                <stop offset="1" style="stop-color:#B7C6C9"/>
              </linearGradient>
              <path fill="url(#SVGID_6_)" d="M6582.553 5529.553c-283.362 42.568-676.443 95.114-990.126 105.125 2.187 117.122 17.595 297.647 19.607 391 292.916-16.814 679.716-56.041 972.608-125.075 2.111-98.808-2.089-310.083-2.089-371.05z"/>
            </g>
          </g>
          <g>
            <path fill="#93AB20" d="M5364.721 3343.735c-14.762-151.396-52.35-274.084-56.381-301.469-12.07-58.742-115.492-98.492-189.232-129.221-258.928-107.891-346.543-280.304-358.116-339.165-6.52-33.177 3.154-78.825-5.245-79.898-50.463 39.253-131.886 195.895-164.116 258.542 7.326 100.217 336.875 540.327 773.09 591.211z"/>
            <path fill="#DBF74A" d="M5323.118 3315.034c-383.871-24.807-663.043-343.257-681.333-555.661 7.171-15.263 50.539-101.056 89.783-148.701 24.178 98.8 114.758 239.822 368.507 345.555l8.538 3.572c49.544 20.57 140.811 50.483 148.745 82.467 9.379 18.271 54.771 170.111 65.76 272.768z"/>
          </g>
          <g>
            <path fill="#93AB20" d="M5488.086 3338.519c-1.472-91.363-10.259-339.368 4.398-358.898 17.627-23.509 127.779-57.429 182.115-112.245 81.831-82.56 97.001-147.184 101.397-272.472 70.506-15.671 148.274 228.09 183.529 294.66-4.389 58.715-129.973 356.94-471.439 448.955z"/>
            <path fill="#DBF74A" d="M5532.149 3303.292c-1.462-80.93-8.813-284.527 7.356-294.954 41.111-19.584 126.237-62.157 155.669-91.368 65.524-65.087 105.176-143.597 117.484-225.792 25.948 47.46 95.323 210.162 102.804 225.792 13.231 113.538-92.524 321.066-383.313 386.322z"/>
          </g>
          <g>
            <g>
              <path fill="#333333" d="M5562.995 6652.126c-.256-14.938-22.501-1519.156-64.51-1991.653l70.269-4.94c42.198 474.458 71.742 1975.328 72.014 1990.287l-77.773 6.306z"/>
            </g>
            <g>
              <path fill="#333333" d="M5501.42 4698.959c-5.287-40.354-17.631-139.644-33.683-268.566-48.558-390.062-138.938-1116.137-155.494-1183.826l34.436-6.655c16.969 69.292 104.05 768.986 156.084 1187.055 16.04 128.828 28.396 228.044 33.663 268.361l-35.006 3.631z"/>
            </g>
            <g>
              <path fill="#333333" d="M5571.804 4690.618h-35.252c0-42.409-8.905-286.915-19.188-570-14.235-391.683-30.383-835.627-27.789-879.495l35.201 1.647c-2.518 42.547 14.297 505.13 27.837 876.847 10.286 283.364 19.191 528.09 19.191 571.001z"/>
            </g>
            <path fill="#333333" d="M5607.109 4846.297c6.015 25.276-12.828 46.322-41.904 46.761l-24.271.367c-29.068.427-51.466-20.313-49.775-46.121l9.278-141.103c1.681-25.802 16.438-46.461 32.812-45.924 16.36.537 34.658 21.67 40.701 46.945l33.159 139.075z"/>
          </g>
        </g>
      </g>
    </g>
</svg>
