<svg version="1.1" id="Fluo_Jacket" xmlns="http://www.w3.org/2000/svg" viewBox="0 0 9922 13000" xml:space="preserve">
    <g>
      <g id="Fluo_x5F_Jacket">
        <g>
<linearGradient class="color1" id="43af3a5f-7922-481e-b03d-0af046c9b1ee" >
<stop data-target="-0.31" stop-color="#93AB20"></stop>
</linearGradient>
          <path fill="url(#43af3a5f-7922-481e-b03d-0af046c9b1ee)" d="M3794.683 2969.191c-143.556 12.305-317.812 91.749-451.177 299.421-287.117 447.078-725.998 1168.971-840.844 1341.242 94.338 36.914 1004.907 377.352 1086.939 397.861 82.032-135.357 315.83-545.521 365.049-635.757 266.611-467.594 266.611-1476.6-159.967-1402.767z"/>
<linearGradient class="color1" id="db8e2505-f115-4f58-a43c-db242f09ebd5" >
<stop data-target="0.0" stop-color="#DBF74A"></stop>
</linearGradient>
          <path fill="url(#db8e2505-f115-4f58-a43c-db242f09ebd5)" d="M3567.229 4949.304c-163.457-54.417-784.935-285.923-990.052-363.645 65.006-101.261 174.827-278.311 298.707-478.039 167.961-270.802 358.326-577.736 509.038-812.412 142.792-222.363 320.658-268.981 413.97-276.973l2.104-.188 2.087-.357c11.965-2.075 23.688-3.125 34.847-3.125 65.737 0 118.45 35.728 161.147 109.229 149.759 257.773 104.939 886.825-87.178 1223.786-46.821 85.799-250.851 443.893-344.67 601.724z"/>
          <linearGradient class="color2" id="df4a3ce0-369a-4949-9186-7e96827ffe78" gradientUnits="userSpaceOnUse" x1="2927.1836" y1="4115.603" x2="3975.1592" y2="4115.603">
<stop data-target="-0.19" offset="0" stop-color="#949FA1" />
<stop data-target="0.0" offset="1" stop-color="#B7C6C9" />
          </linearGradient>

          <path fill="url(#df4a3ce0-369a-4949-9186-7e96827ffe78)" d="M3911.898 4347.579c27.641-48.483 41.857-81.085 63.261-139.688-223.555-258.211-522.616-451.525-857.249-500.404-70.917 113.479-120.976 202.378-190.727 314.804 331.555 69.385 637.807 266.267 867.499 501.43 55.342-97.139 97.548-140.092 117.216-176.142z"/>
        </g>
        <g>
          <g>
            <g>
<linearGradient class="color1" id="f5ca5a48-d4db-4abe-9c21-ceecdc2d3339" >
<stop data-target="-0.31" stop-color="#93AB20"></stop>
</linearGradient>
              <path fill="url(#f5ca5a48-d4db-4abe-9c21-ceecdc2d3339)" d="M6477.17 6271.026c25.979 157.232 95.709 385.556 106.645 401.962 169.526 71.088 514.075-13.674 574.23-123.053-16.406-120.315-27.342-325.398-32.813-369.149-139.454 16.409-525.011 82.036-648.062 90.24z"/>
<linearGradient class="color1" id="99f08a25-8382-4fce-a5ca-3a2073609fc9" >
<stop data-target="0.0" stop-color="#DBF74A"></stop>
</linearGradient>
              <path fill="url(#99f08a25-8382-4fce-a5ca-3a2073609fc9)" d="M6740.415 6649.924c-46.104 0-86.908-5.39-119.409-15.694-17.309-48.995-60.393-194.314-85.667-319.3 85.575-9.688 215.599-29.438 342.157-48.655 75.667-11.496 148.207-22.512 203.211-30.092 1.02 13.339 2.122 28.328 3.285 44.127 5.632 76.7 13.188 179.568 22.822 257.329-46.053 53.395-208.041 112.286-366.394 112.286.001-.001.009-.001-.005-.001z"/>
            </g>
            <g>
<linearGradient class="color1" id="bc1b439a-2f52-48e1-bbf0-aa602d75db78" >
<stop data-target="-0.31" stop-color="#93AB20"></stop>
</linearGradient>
              <path fill="url(#bc1b439a-2f52-48e1-bbf0-aa602d75db78)" d="M6263.884 3112.747c221.488 49.222 451.184 213.286 557.823 500.403 65.626 319.931 161.34 1315.268 161.34 1386.359 27.336 164.067 229.701 1093.782 202.349 1323.478-60.164 142.187-661.743 248.831-749.239 144.92-65.627-131.255-180.479-385.557-213.289-467.592 5.472-492.199 13.676-2728.974 41.016-2887.568z"/>
<linearGradient class="color1" id="8547aebb-064f-45c2-826c-079c93de25bf" >
<stop data-target="0.0" stop-color="#DBF74A"></stop>
</linearGradient>
              <path fill="url(#8547aebb-064f-45c2-826c-079c93de25bf)" d="M6650.955 6468.817c-109.249 0-159.621-18.159-174.217-29.834-61.447-123.681-167.678-357.922-204.553-447.992 1.174-109.063 2.449-292.563 4.053-523.049 4.966-715.315 13.873-1996.946 31.336-2292.709 211.614 65.555 383.518 230.768 466.68 451.538 65.536 323.5 159.573 1304.199 159.573 1372.739v4.069l.668 4.026c3.854 23.157 10.808 62.267 19.828 113.021 50.089 281.759 194.468 988.591 176.38 1191.417-34.726 56.005-262.251 156.774-479.748 156.774z"/>
              <linearGradient class="color2" id="a819d9f7-9cc8-42b5-8284-420108fd77a1" gradientUnits="userSpaceOnUse" x1="6282.332" y1="4387.9546" x2="6885.749" y2="4387.9546">
<stop data-target="-0.19" offset="0" stop-color="#949FA1" />
<stop data-target="0.0" offset="1" stop-color="#B7C6C9" />
              </linearGradient>

              <path fill="url(#a819d9f7-9cc8-42b5-8284-420108fd77a1)" d="M6846.32 4113.551c-83.589 58.316-366.411 169.537-560.503 179.936a211281.796 211281.796 0 0 0-3.485 368.871c212.264-26.357 427.271-67.542 603.417-186.6-11.56-109.656-26.014-249.767-39.429-362.207z"/>
              <linearGradient class="color2" id="f4ba4bdb-a682-41be-9e6d-5f9bfee0dd5c" gradientUnits="userSpaceOnUse" x1="6276.1846" y1="5948.8174" x2="7109.8076" y2="5948.8174">
<stop data-target="-0.19" offset="0" stop-color="#949FA1" />
<stop data-target="0.0" offset="1" stop-color="#B7C6C9" />
              </linearGradient>

              <path fill="url(#f4ba4bdb-a682-41be-9e6d-5f9bfee0dd5c)" d="M7059.605 5677.653c-200.984 113.477-516.305 203-783.419 228.325-.365 45.133 55.175 222.32 97.034 313.84 292.629 4.727 582.479-93.711 736.587-202.849-12.608-94.202-31.969-233.113-50.202-339.316z"/>
            </g>
          </g>
          <g>
<linearGradient class="color1" id="6402c951-cb1b-4c62-8161-124f9a465680" >
<stop data-target="-0.31" stop-color="#93AB20"></stop>
</linearGradient>
            <path fill="url(#6402c951-cb1b-4c62-8161-124f9a465680)" d="M4007.971 6366.732c32.813 142.189 38.291 240.627 76.571 300.789 306.255 196.881 1777.387 300.793 2406.3-16.405 32.816-98.439 43.756-196.878 54.693-278.91-289.845 16.405-2346.146-10.935-2537.564-5.474z"/>
<linearGradient class="color1" id="d65e7e1c-5f8c-4c4a-b8e3-6500cb3c973a" >
<stop data-target="-0.15" stop-color="#B7D130"></stop>
</linearGradient>
            <path fill="url(#d65e7e1c-5f8c-4c4a-b8e3-6500cb3c973a)" d="M5287.947 6804.247c-502.833 0-998.925-73.592-1167.058-172.165-17.426-33.405-27.164-85.428-39.209-149.804-3.888-20.8-8.074-43.141-12.896-66.998 11.568-.04 24.497-.064 38.761-.064 144.999 0 413.191 2.083 723.742 4.496 424.527 3.291 905.703 7.027 1260.475 7.027 186.134 0 317.296-1.038 397.318-3.15-8.279 60.883-18.783 126.793-38.772 192.603-253.724 121.37-665.126 188.055-1162.361 188.055z"/>
<linearGradient class="color1" id="a70fe9aa-8a60-4c32-8a60-0c2636d94348" >
<stop data-target="0.0" stop-color="#DBF74A"></stop>
</linearGradient>
            <path fill="url(#a70fe9aa-8a60-4c32-8a60-0c2636d94348)" d="M4332.003 6599.155c0 32.818 12.306 69.732 23.182 114.255 235.167 55.056 582.253 90.837 932.762 90.837 497.234 0 908.637-66.686 1162.36-188.057 19.989-65.81 30.493-131.72 38.772-192.603-865.057 397.059-2017.617 196.076-2157.076 175.568z"/>
<linearGradient class="color1" id="257f34a1-9df2-4984-93a7-101f1037e647" >
<stop data-target="-0.31" stop-color="#93AB20"></stop>
</linearGradient>
            <path fill="url(#257f34a1-9df2-4984-93a7-101f1037e647)" d="M5433.387 3683.791c-146.92-106.774-247.342-263.773-350.064-417.313-212.013-119.806-348.442-297.568-476.504-518.781-175.007 30.081-652.167 155.863-861.351 233.798 147.659 103.908 410.164 762.909 65.626 1427.376 8.202 401.961 32.813 1780.12 123.052 2034.423 131.252 98.438 899.634 218.756 1657.069 205.083-7.348-550.921-34.451-2035.766-157.828-2964.586z"/>
<linearGradient class="color1" id="22abf901-23af-4eb0-8e25-0bbf6a29f635" >
<stop data-target="-0.15" stop-color="#B7D130"></stop>
</linearGradient>
            <path fill="url(#22abf901-23af-4eb0-8e25-0bbf6a29f635)" d="M5471.598 6600.221c-724.654-.007-1360.795-110.549-1495.943-188.508-80.519-273.327-105.954-1536.862-114.42-1957.577l-.681-33.832c188.709-370.925 186.455-717.04 150.917-942.975-33.211-211.201-106.351-381.026-177.484-474.735 212.621-71.016 572.168-165.931 747.793-200.227 110.036 185.979 244.917 372.269 467.035 501.076l10.356 15.511c94.075 140.944 191.233 286.507 328.117 391.82 109.44 840.911 143.469 2148.569 154.028 2889.09-23.236.238-46.474.357-69.718.357z"/>
          </g>
          <g>
<linearGradient class="color1" id="0dbfbc68-3839-4c2f-ac2d-4f785c4029cc" >
<stop data-target="-0.31" stop-color="#93AB20"></stop>
</linearGradient>
            <path fill="url(#0dbfbc68-3839-4c2f-ac2d-4f785c4029cc)" d="M6589.283 6432.355c-27.342-694.547 60.155-2409.04-161.336-3253.98-184.574-135.356-440.236-296.679-538.675-350.001.709 96.827-49.063 226.611-122.744 337.887-47.241 226.547-131.636 447.034-255.726 645.076 3.226 847.295 67.866 2637.332 72.206 2837.041 426.573-8.202 913.31-123.05 1006.275-216.023z"/>
<linearGradient class="color1" id="8e562e65-1127-4e22-b197-92389c92722e" >
<stop data-target="0.0" stop-color="#DBF74A"></stop>
</linearGradient>
            <path fill="url(#8e562e65-1127-4e22-b197-92389c92722e)" d="M5630.896 6597.795c-1.855-63.993-5.27-170.123-9.579-304.115-18.955-589.301-58.242-1810.948-61.233-2468.397 118.136-191.765 203.102-406.896 252.688-639.802 59.861-92.335 101.212-190.477 117.723-276.709 114.934 68.397 305.178 190.734 454.198 298.969 156.351 616.282 152.657 1696.15 149.961 2486.595-.96 284.31-1.815 531.514 4.547 715.593-103.029 70.854-500.878 172.885-908.305 187.866z"/>
          </g>
          <g>
            <linearGradient class="color2" id="64a2f839-59e5-4cdc-a1d1-c387059fd759" gradientUnits="userSpaceOnUse" x1="4956.4346" y1="3938.3364" x2="6241.6265" y2="3807.0833">
<stop data-target="-0.19" offset="0" stop-color="#949FA1" />
<stop data-target="0.0" offset="1" stop-color="#B7C6C9" />
            </linearGradient>

            <path fill="url(#64a2f839-59e5-4cdc-a1d1-c387059fd759)" d="M6515.445 4298.311c-51.401 8.396-102.924 16.142-154.483 23.599-8.536-390.793-37.283-835.59-117.141-1212.696-114.753-77.756-232.728-152.481-313.482-200.529-3.764 19.426-8.91 39.458-15.065 59.792 64.002 441.962 137.602 945.086 128.736 1393.24-158.275 16.647-317.001 28.568-475.848 35.307 2.619 129.145 5.739 264.189 9.143 400.984 319.413-17.048 638.127-59.881 951.146-125.299-2.99-125.608-7.154-251.084-13.006-374.398z"/>
            <linearGradient class="color2" id="6cb08a96-3870-4fa7-b26c-26c5ea4cb4a1" gradientUnits="userSpaceOnUse" x1="3915.0063" y1="6193.0137" x2="5538.5801" y2="6193.0137">
<stop data-target="-0.19" offset="0" stop-color="#949FA1" />
<stop data-target="0.0" offset="1" stop-color="#B7C6C9" />
            </linearGradient>

            <path fill="url(#6cb08a96-3870-4fa7-b26c-26c5ea4cb4a1)" d="M5538.58 6427.142c-2.022-115.663-4.533-239.423-7.701-369.141-541.986 12.483-1088.135-11.2-1615.873-106.906 5.466 112.115 19.943 251.789 31.439 344.541 547.751 126.066 1070.534 155.862 1592.135 131.506z"/>
            <linearGradient class="color2" id="5ca1d5bb-564b-437c-9335-912cb17ea34f" gradientUnits="userSpaceOnUse" x1="4753.6646" y1="6297.1846" x2="6197.4458" y2="6182.3384">
<stop data-target="-0.19" offset="0" stop-color="#949FA1" />
<stop data-target="0.0" offset="1" stop-color="#B7C6C9" />
            </linearGradient>

            <path fill="url(#5ca1d5bb-564b-437c-9335-912cb17ea34f)" d="M6534.002 5956.616c-303.964 55.04-611.626 88.04-920.297 99.05 2.809 88.455 5.392 168.774 7.621 238.183 1.503 46.984 2.91 90.452 4.164 129.972 308.445-14.27 614.857-54.94 910.895-122.549-1.935-101.819-2.465-217.643-2.383-344.656z"/>
            <linearGradient class="color2" id="cdf927f0-d97a-45bd-81d3-26794d3750d9" gradientUnits="userSpaceOnUse" x1="3860.5537" y1="3805.9751" x2="5481.6025" y2="3805.9751">
<stop data-target="-0.19" offset="0" stop-color="#949FA1" />
<stop data-target="0.0" offset="1" stop-color="#B7C6C9" />
            </linearGradient>

            <path fill="url(#cdf927f0-d97a-45bd-81d3-26794d3750d9)" d="M5455.236 4401.008c-208.042 5.586-416.117 1.958-623.531-11.454-47.874-519.546-91.376-1089.061-266.379-1583.845-80.447 16.325-192.977 43.369-311.759 74.587 89.877 467.286 161.349 990.744 178.96 1470.809-168.547-21.726-336.348-50.329-502.959-86.624-19.517 51.27-42.29 103.288-69.015 155.823l.681 33.832c.887 44.128 1.962 97.635 3.275 158.201 522.907 153.019 1070.238 210.202 1617.093 189.983-7.817-135.977-16.546-270.485-26.366-401.312z"/>
<linearGradient class="color1" id="4360f026-4a86-48c2-a5ad-aa7272434244" >
<stop data-target="0.0" stop-color="#DBF74A"></stop>
</linearGradient>
            <path fill="url(#4360f026-4a86-48c2-a5ad-aa7272434244)" d="M5541.317 6599.863c-10.56-740.521-44.588-2048.179-154.028-2889.09-136.884-105.313-234.042-250.876-328.117-391.82l-10.356-15.511c-222.118-128.807-356.999-315.097-467.035-501.076-175.625 34.296-535.172 129.211-747.793 200.227 71.133 93.709 144.272 263.534 177.484 474.735 14.653 93.154 23.605 206.775 15.888 334.109 75.672 900.007 46.98 1817.083 261.43 2688.832 283.037 53.729 714.312 99.944 1182.808 99.951 23.244.001 46.482-.118 69.719-.357z"/>
            <linearGradient class="color2" id="5a04fb29-af4c-4f87-8f1a-1732d7d145fc" gradientUnits="userSpaceOnUse" x1="3915.0063" y1="6193.0137" x2="5538.5801" y2="6193.0137">
<stop data-target="-0.19" offset="0" stop-color="#949FA1" />
<stop data-target="0.0" offset="1" stop-color="#B7C6C9" />
            </linearGradient>

            <path fill="url(#5a04fb29-af4c-4f87-8f1a-1732d7d145fc)" d="M5538.58 6427.142c-2.022-115.663-4.533-239.423-7.701-369.141-541.986 12.483-1088.135-11.2-1615.873-106.906 5.466 112.115 19.943 251.789 31.439 344.541 547.751 126.066 1070.534 155.862 1592.135 131.506z"/>
            <linearGradient class="color2" id="fd233221-3a60-4fad-86d0-1748d891fd7e" gradientUnits="userSpaceOnUse" x1="3860.5537" y1="3805.9751" x2="5481.6025" y2="3805.9751">
<stop data-target="-0.19" offset="0" stop-color="#949FA1" />
<stop data-target="0.0" offset="1" stop-color="#B7C6C9" />
            </linearGradient>

            <path fill="url(#fd233221-3a60-4fad-86d0-1748d891fd7e)" d="M5455.236 4401.008c-208.042 5.586-416.117 1.958-623.531-11.454-47.874-519.546-91.376-1089.061-266.379-1583.845-80.447 16.325-192.977 43.369-311.759 74.587 89.877 467.286 161.349 990.744 178.96 1470.809-168.547-21.726-336.348-50.329-502.959-86.624-19.517 51.27-42.29 103.288-69.015 155.823l.681 33.832c.887 44.128 1.962 97.635 3.275 158.201 522.907 153.019 1070.238 210.202 1617.093 189.983-7.817-135.977-16.546-270.485-26.366-401.312z"/>
<linearGradient class="color2" id="9fca1b02-a659-4bd3-9318-2696741404aa" >
<stop data-target="-0.27" stop-color="#868F98"></stop>
</linearGradient>
            <path fill="url(#9fca1b02-a659-4bd3-9318-2696741404aa)" d="M3915.006 5951.095c5.466 112.115 19.943 251.789 31.439 344.541 104.011 23.934 207.106 44.363 309.487 61.651-25.932-120.287-47.772-241.334-66.156-363.036-92.051-12.41-183.704-26.635-274.77-43.156zM3929.568 4264.481c-19.517 51.27-42.29 103.288-69.015 155.823l.681 33.832c.887 44.128 1.962 97.635 3.275 158.201 71.008 20.783 142.503 39.63 214.342 56.926-6.184-126.037-12.306-252.124-19.216-378.098-43.431-8.404-86.79-17.257-130.067-26.684z"/>
<linearGradient class="color1" id="a4027435-1500-4f35-b54d-bb3d88fb15c7" >
<stop data-target="-0.31" stop-color="#93AB20"></stop>
</linearGradient>
            <path fill="url(#a4027435-1500-4f35-b54d-bb3d88fb15c7)" d="M5758.018 6831.591c-5.209-328.197-90.603-2655.602-107.629-3037.215-19.151-1.557-57.495 7.666-65.74-1.03-84.809 159.231-224.541 347.021-227.694 542.513 12.03 629.068 47.89 1709.116 61.989 2542.213 128.515-8.206 215.802-23.004 339.074-46.481z"/>
<linearGradient class="color1" id="7b57c6f9-7cd1-4c58-9013-bd193238f4ce" >
<stop data-target="0.0" stop-color="#DBF74A"></stop>
</linearGradient>
            <path fill="url(#7b57c6f9-7cd1-4c58-9013-bd193238f4ce)" d="M5468.163 6828.852c-16.984-960.879-67.678-2247.709-67.678-2633.266 12.55-27.552 140.624-262.753 213.295-351.934 2.064.098 4.061.178 6.038.255 33.463 448.965 101.279 2520.854 110.85 2946.666-79.29 16.406-196.797 29.322-262.505 38.279z"/>
            <linearGradient class="color2" id="14f1c64b-4be2-4d2f-a85d-57488e397b85" gradientUnits="userSpaceOnUse" x1="4740.269" y1="4604.1328" x2="5595.0742" y2="4598.5063">
<stop data-target="-0.19" offset="0" stop-color="#949FA1" />
<stop data-target="0.0" offset="1" stop-color="#B7C6C9" />
            </linearGradient>

            <path fill="url(#14f1c64b-4be2-4d2f-a85d-57488e397b85)" d="M5655.466 4393.836c-81.975 4.374-173.637 5.222-255.662 6.832 2.243 111.906 5.224 249.448 9.568 403.333 84.411-2.124 176.801-6.532 261.139-12.304-5.882-141.637-9.449-274.799-15.045-397.861z"/>
            <linearGradient class="color2" id="a49fd0eb-f637-4941-b72e-cb635acc34fc" gradientUnits="userSpaceOnUse" x1="4993.459" y1="6263.2861" x2="5807.772" y2="6230.9292">
<stop data-target="-0.19" offset="0" stop-color="#949FA1" />
<stop data-target="0.0" offset="1" stop-color="#B7C6C9" />
            </linearGradient>

            <path fill="url(#a49fd0eb-f637-4941-b72e-cb635acc34fc)" d="M5709.137 6053.637c-88.059 4.502-172.254 4.183-260.46 5.125 3.389 124.236 6.322 249.539 9.231 371.203 89.232-1.381 174.582-5.482 263.534-11.283-3.56-109.459-7.636-231.51-12.305-365.045z"/>
          </g>
          <g>
<linearGradient class="color1" id="e9b70192-d25a-41e0-b166-a2ddc0d30edd" >
<stop data-target="-0.31" stop-color="#93AB20"></stop>
</linearGradient>
            <path fill="url(#e9b70192-d25a-41e0-b166-a2ddc0d30edd)" d="M5361.521 4343.246c-53.326-572.869 453.923-1091.052 410.162-1498.477 0-82.032-2.729-248.83-2.729-325.394 144.921 62.89 456.656 273.442 566.027 503.137-91.609 254.3-448.453 594.739-717.793 903.73-122.637 140.703-246.106 217.385-255.667 417.004z"/>
<linearGradient class="color1" id="b7d7400e-2723-42a5-b211-d528b22fa9ea" >
<stop data-target="0.0" stop-color="#DBF74A"></stop>
</linearGradient>
            <path fill="url(#b7d7400e-2723-42a5-b211-d528b22fa9ea)" d="M5399.804 4205.16c10.935-202.351 140.056-520.136 240.62-737.836 102.849-222.634 200.014-432.971 180.481-625.127-.033-41.872-.724-104.423-1.404-165.91-.294-26.459-.584-52.717-.825-77.033 146.081 81.099 366.947 246.22 461.889 424.633-98.811 214.112-376.367 539.378-570.403 741.025-157.246 163.406-300.656 423.045-310.358 440.248z"/>
          </g>
          <g fill="#1A1A1A">
            <path d="M5539.468 6708.388c-.296 31.713 25.179 57.659 56.895 57.937 31.716.297 57.656-25.178 57.948-56.888.285-31.712-25.182-57.657-56.898-57.95-31.714-.292-57.647 25.182-57.945 56.901zM5509.192 5830.315c-.286 31.714 25.187 57.649 56.895 57.951 31.726.286 57.665-25.186 57.948-56.903.299-31.719-25.171-57.655-56.889-57.944-31.716-.281-57.652 25.186-57.954 56.896zM5488.021 4955.058c-.299 31.716 25.187 57.664 56.894 57.954 31.718.287 57.658-25.185 57.957-56.898.275-31.715-25.186-57.662-56.907-57.941-31.713-.298-57.653 25.169-57.944 56.885zM5467.359 4222.012c-.283 31.716 25.18 57.658 56.896 57.953 31.716.289 57.664-25.186 57.949-56.903.281-31.712-25.191-57.644-56.893-57.941-31.711-.288-57.653 25.177-57.952 56.891z"/>
          </g>
          <g>
<linearGradient class="color2" id="5e12f2a9-b1c4-4200-aaf4-b13395526970" >
<stop data-target="-0.34" stop-color="#808080"></stop>
</linearGradient>
            <path fill="url(#5e12f2a9-b1c4-4200-aaf4-b13395526970)" d="M5725.719 3533.05c-.22 24.936 19.808 45.339 44.746 45.574 24.941.223 45.345-19.815 45.568-44.751.223-24.937-19.806-45.334-44.735-45.565-24.937-.227-45.338 19.803-45.579 44.742z"/>
<linearGradient class="color3" id="52861479-eecb-4684-a579-1d3d858820af" >
<stop data-target="0.0" stop-color="#1A1A1A"></stop>
</linearGradient>
            <path fill="url(#52861479-eecb-4684-a579-1d3d858820af)" d="M5770.608 3562.215c-15.843-.145-28.62-13.159-28.477-29.026.149-15.7 13.043-28.477 28.753-28.477 16.109.144 28.888 13.163 28.741 29.016-.138 15.711-13.03 28.487-28.741 28.487h-.276z"/>
          </g>
          <g>
<linearGradient class="color2" id="f24ca03e-5cbb-4704-a1aa-0aa33c005cf9" >
<stop data-target="-0.34" stop-color="#808080"></stop>
</linearGradient>
            <path fill="url(#f24ca03e-5cbb-4704-a1aa-0aa33c005cf9)" d="M6042.353 3022.095c-.224 24.941 19.807 45.344 44.743 45.571 24.934.226 45.342-19.808 45.563-44.745.23-24.941-19.8-45.336-44.727-45.568-24.941-.227-45.344 19.801-45.579 44.742z"/>
<linearGradient class="color3" id="6a35348f-8070-4595-91c8-6ca3540efddb" >
<stop data-target="0.0" stop-color="#1A1A1A"></stop>
</linearGradient>
            <path fill="url(#6a35348f-8070-4595-91c8-6ca3540efddb)" d="M6087.239 3051.262c-15.846-.144-28.626-13.16-28.477-29.021.143-15.704 13.04-28.483 28.751-28.483 16.106.147 28.891 13.163 28.742 29.018-.144 15.715-13.034 28.487-28.742 28.487h-.274z"/>
          </g>
          <g>
<linearGradient class="color1" id="2adc5bb2-7d26-473e-ba2d-c0902bdb5258" >
<stop data-target="-0.09" stop-color="#C3E02D"></stop>
</linearGradient>
            <path fill="url(#2adc5bb2-7d26-473e-ba2d-c0902bdb5258)" d="M6501.778 5617.489c-10.381 49.221-93.393 304.895-93.393 304.895-141.774-158.594-419.313-423.841-534.158-533.215 38.281-76.561 165.998-274.811 176.371-299.42 158.595 153.129 319.931 360.942 451.18 527.74z"/>
<linearGradient class="color1" id="e8d62b97-b1ae-4c70-af67-edb5f85364fc" >
<stop data-target="0.0" stop-color="#DBF74A"></stop>
</linearGradient>
            <path fill="url(#e8d62b97-b1ae-4c70-af67-edb5f85364fc)" d="M6395.476 5859.305c-136.409-148.535-355.564-366.394-472.032-478.34 20.582-39.302 135.355-233.795 135.355-233.795 138.672 133.513 293.642 335.846 410.165 481.263-12.173 44.095-49.137 159.853-73.488 230.872z"/>
          </g>
          <g>
<linearGradient class="color1" id="3e2ed353-ab91-4444-9ba0-8190430c16ca" >
<stop data-target="-0.09" stop-color="#C3E02D"></stop>
</linearGradient>
            <path fill="url(#3e2ed353-ab91-4444-9ba0-8190430c16ca)" d="M4191.175 5640.732c16.407 49.22 147.661 287.113 147.661 287.113 237.896-123.047 656.264-393.759 812.131-525.008-57.424-114.851-172.271-295.322-188.678-319.932-295.318 246.1-483.992 377.353-771.114 557.827z"/>
<linearGradient class="color1" id="ffa8027b-ead2-4c68-904b-6635e9175238" >
<stop data-target="0.0" stop-color="#DBF74A"></stop>
</linearGradient>
            <path fill="url(#ffa8027b-ead2-4c68-904b-6635e9175238)" d="M4352.088 5883.811c-42.79-78.274-96.977-180.178-119.977-230.084 254.976-160.912 443.87-291.318 722.63-521.909 35.489 55.944 107.932 172.888 154.958 262.478-161.89 130.419-528.09 367.047-757.611 489.515z"/>
          </g>
          <g>
<linearGradient class="color1" id="4fd7aa56-111d-4225-8a79-3d1f8d7500e3" >
<stop data-target="-0.31" stop-color="#93AB20"></stop>
</linearGradient>
            <path fill="url(#4fd7aa56-111d-4225-8a79-3d1f8d7500e3)" d="M5429.875 3714.33c-355.472-216.027-1142.987-782.056-1372.684-937.915 172.271-131.256 502.448-286.438 702.065-313.781.687 69.045 6.157 349.323 8.889 393.079 64.261 121.681 367.781 416.997 661.73 858.617z"/>
<linearGradient class="color1" id="fa3c9bcb-e587-456c-860e-80871d7781bd" >
<stop data-target="0.0" stop-color="#DBF74A"></stop>
</linearGradient>
            <path fill="url(#fa3c9bcb-e587-456c-860e-80871d7781bd)" d="M5312.297 3600.844c-255.856-168.909-656.244-465.81-916.895-648.734-98.231-68.938-186.431-130.834-252.224-176.36 154.313-102.704 394.356-216.307 566.631-255.082.937 34.473 1.996 78.292 3.089 123.581 2.351 97.531 4.572 189.654 6.128 214.533l.656 10.561 4.94 9.354c28.929 54.777 96.29 134.729 189.543 245.393 92.456 109.73 275.624 310.982 398.132 476.754z"/>
          </g>
          <g>
<linearGradient class="color2" id="4eaca548-b503-4e26-b681-58d493e3d4f9" >
<stop data-target="-0.34" stop-color="#808080"></stop>
</linearGradient>
            <path fill="url(#4eaca548-b503-4e26-b681-58d493e3d4f9)" d="M4267.581 2790.645c-.219 24.941 19.808 45.344 44.746 45.579 24.941.221 45.343-19.817 45.568-44.753.224-24.938-19.807-45.336-44.738-45.564-24.934-.225-45.336 19.801-45.576 44.738z"/>
<linearGradient class="color3" id="6e6d816d-ed10-4cfc-a5fe-4a4fd1b7a681" >
<stop data-target="0.0" stop-color="#1A1A1A"></stop>
</linearGradient>
            <path fill="url(#6e6d816d-ed10-4cfc-a5fe-4a4fd1b7a681)" d="M4312.469 2819.814c-15.842-.146-28.619-13.159-28.478-29.021.146-15.701 13.042-28.484 28.754-28.484 16.112.147 28.889 13.165 28.743 29.019-.143 15.708-13.038 28.486-28.743 28.486h-.276z"/>
          </g>
        </g>
      </g>
      <g>
        <g>
<linearGradient class="color1" id="58c84f26-edcc-4d5d-acb3-3a83948e9154" >
<stop data-target="-0.31" stop-color="#93AB20"></stop>
</linearGradient>
          <path fill="url(#58c84f26-edcc-4d5d-acb3-3a83948e9154)" d="M2322.05 4833.296c-7.173-102.372 205.08-430.672 471.689-467.583 183.75-25.445 399.257 62.075 492.199 127.146 41.91 29.345 69.728 69.73 61.521 90.239-164.065 127.15-159.961 600.889-4.101 764.957-106.64 45.123-963.888 305.574-1021.308-514.759z"/>
<linearGradient class="color1" id="49c1c4c4-798a-45aa-a4a8-ac270c9ae6fb" >
<stop data-target="-0.15" stop-color="#B7D130"></stop>
</linearGradient>
          <path fill="url(#49c1c4c4-798a-45aa-a4a8-ac270c9ae6fb)" d="M2932.247 5373.627c-347.062 0-535.84-182.948-561.098-543.762-4.84-69.099 179.271-380.774 429.344-415.399 19.402-2.686 40.037-4.048 61.328-4.048 160.683 0 328.095 75.295 395.885 122.763 17.007 11.906 28.383 24.06 35.042 32.956-84.15 86.006-107.542 231.878-113.902 315.629-10.826 142.382 12.578 321.95 84.891 441.802-74.302 22.239-198.175 50.059-331.49 50.059z"/>
<linearGradient class="color1" id="c7b3a7f5-23dd-4fce-9fa0-435096e5a05b" >
<stop data-target="0.0" stop-color="#DBF74A"></stop>
</linearGradient>
          <path fill="url(#c7b3a7f5-23dd-4fce-9fa0-435096e5a05b)" d="M3214.278 5210.778c-33.148-104.871-43.222-226.524-35.433-329.012 6.36-83.75 29.752-229.623 113.902-315.629-6.659-8.896-18.034-21.05-35.042-32.956-67.79-47.468-235.203-122.763-395.885-122.763-21.291 0-41.926 1.362-61.328 4.048-250.072 34.625-434.184 346.3-429.344 415.399.594 8.507 1.369 16.81 2.146 25.128 33.646 81.816 80.607 157.168 137.433 220.302 189.983 176.42 458.541 184.4 703.551 135.483z"/>
          <linearGradient class="color2" id="1e8a05ea-e3ac-481e-bd1d-836535dc3222" gradientUnits="userSpaceOnUse" x1="2746.8198" y1="5675.6733" x2="2788.1519" y2="4460.521">
<stop data-target="-0.19" offset="0" stop-color="#949FA1" />
<stop data-target="0.0" offset="1" stop-color="#B7C6C9" />
          </linearGradient>

          <path fill="url(#1e8a05ea-e3ac-481e-bd1d-836535dc3222)" d="M2707.605 4517.469c-240.542 174.939-281.766 503.475-153.134 746.503 84.723 71.703 202.058 106.147 344.536 112.113-35.164-43.042-70.679-92.159-92.966-136.72-114.846-246.099-114.846-557.829 147.659-738.303 37.799-22.045 83.298-39.901 123.052-54.69-51.925-16.576-112.162-33.871-169.536-38.274-67.454 25.368-136.215 63.259-199.611 109.371z"/>
<linearGradient class="color2" id="6e15ac2c-8523-4aa0-8ba5-56c94f916603" >
<stop data-target="-0.27" stop-color="#868F98"></stop>
</linearGradient>
          <path fill="url(#6e15ac2c-8523-4aa0-8ba5-56c94f916603)" d="M2487.42 5047.835c8.978 75.215 31.492 148.95 67.051 216.137 84.723 71.703 202.058 106.147 344.536 112.113-35.164-43.042-70.679-92.159-92.966-136.72-3.063-6.588-6.021-13.238-8.925-19.899-104.802-22.032-203.16-66.879-286.389-144.171-8-8.879-15.705-18.11-23.307-27.46z"/>
        </g>
        <g>
<linearGradient class="color1" id="5de351a4-f75f-4bdc-9962-a7938dc5e397" >
<stop data-target="-0.31" stop-color="#93AB20"></stop>
</linearGradient>
          <path fill="url(#5de351a4-f75f-4bdc-9962-a7938dc5e397)" d="M3536.137 5324.129c-116.896-82.037-179.102-542.446-61.52-774.872-37.599-2.74-131.259-15.378-175.015-18.119-21.881-4.79-69.038 9.917-79.98 21.88-207.294 226.565-176.368 637.141 22.167 783.886 9.972 7.377 31.831 13.203 56.447 15.936 51.954-4.102 200.987-20.509 237.901-28.711z"/>
<linearGradient class="color1" id="b0295b40-f117-4abc-b20a-1bd919fdcb09" >
<stop data-target="-0.15" stop-color="#B7D130"></stop>
</linearGradient>
          <path fill="url(#b0295b40-f117-4abc-b20a-1bd919fdcb09)" d="M3299.198 5303.379c-16.633-2.186-26.252-5.447-29.142-6.786-77.379-57.815-130.433-170.01-142.031-300.468-13.861-155.919 32.953-307.842 125.313-407.109 7.093-3.908 25.659-9.604 36.196-9.604 26.859 5.625 68.066 7.466 107.932 9.247 1.501.066 3.004.127 4.504.196-72.234 215.892-39.862 540.476 44.284 698.772-51.847 6.394-114.078 12.991-147.056 15.752z"/>
<linearGradient class="color1" id="54c08321-ab6d-4102-bf6d-76f8deea909b" >
<stop data-target="0.0" stop-color="#DBF74A"></stop>
</linearGradient>
          <path fill="url(#54c08321-ab6d-4102-bf6d-76f8deea909b)" d="M3408.989 4590.277c-1.5-.071-85.634-13.749-114.851-14.361-15.902-1.44-30.759 4.106-40.8 13.101-92.36 99.267-139.174 251.19-125.313 407.109 7.913 89.034 35.167 169.529 76.256 230.068 69.327-6.193 139.507-12.061 209.543-15.11-58.746-171.573-66.842-435.482-4.835-620.807z"/>
        </g>
      </g>
    </g>
</svg>
