<svg version="1.1" id="Gas_mask" xmlns="http://www.w3.org/2000/svg" viewBox="0 0 9922 13000" xml:space="preserve">
    <g>
      <g>
        <path fill="#333333" d="M4775.005 2237.102c-34.239-20.541-138.306-134.495-152.002-142.711-8.217-28.757-6.164-74.301-6.164-85.244 26.705 22.595 167.674 152.067 179.999 160.283-5.481 16.432-19.097 55.347-21.833 67.672zM5806.8 2226.126c34.247-20.541 119.17-113.249 132.876-129.681 8.216-28.758 2.728-73.947 2.728-84.891-26.703 22.595-146.899 145.76-159.224 153.976 5.487 16.433 20.894 48.271 23.62 60.596z"/>
        <path fill="#333333" d="M5843.519 2274.477c-9.854-131.366-154.283-167.087-238.276-230.058-98.596-73.947-168.272-197.193-309.333-197.193-141.051 0-210.737 123.246-309.333 197.193-83.986 62.97-228.421 98.692-238.275 230.058-12.326 164.329 220.326 547.801 547.608 547.801 327.273 0 559.933-383.472 547.609-547.801z"/>
        <path fill="#4D4D4D" d="M5295.909 2797.628c-125.589 0-252.78-62.536-358.141-176.105-114.646-123.566-170.522-270.081-164.89-345.216 6.274-83.544 76.273-122.668 150.382-164.055 26.88-15.021 54.674-30.539 78.104-48.127 29.544-22.146 56.439-48.384 82.444-73.755 62.489-60.948 121.512-118.495 212.101-118.495s149.612 57.547 212.103 118.495c26.012 25.371 52.908 51.61 82.436 73.755 23.431 17.588 51.224 33.106 78.119 48.127 74.109 41.386 144.107 80.511 150.368 164.055 5.646 75.135-50.23 221.649-164.874 345.216-105.37 113.569-232.561 176.105-358.152 176.105z"/>
        <linearGradient id="SVGID_1_" gradientUnits="userSpaceOnUse" x1="5011.8984" y1="2334.7515" x2="5561.7231" y2="2334.7515">
          <stop offset="0.0121" style="stop-color:#4D4D4D"/>
          <stop offset="0.5273" style="stop-color:#666666"/>
          <stop offset="1" style="stop-color:#4D4D4D"/>
        </linearGradient>
        <path fill="url(#SVGID_1_)" d="M5441.076 1929.133c-38.643-31.324-74.363-57.258-145.167-57.258-54.408 0-97.4 20.83-136.63 50.614-88.484 258.174-49.458 646.397 59.707 867.276 25.57 5.121 51.278 7.863 76.923 7.863 44.757 0 89.707-8.087 133.804-23.461 66.279-351.121 69.518-583.33 11.363-845.034z"/>
        <path fill="#333333" d="M5126.103 2249.812c0 93.798 76.024 169.815 169.807 169.815 93.783 0 169.815-76.017 169.815-169.815 0-93.766-76.032-169.8-169.815-169.8s-169.807 76.034-169.807 169.8z"/>
        <path fill="#1A1A1A" d="M5126.103 2282.678c0 93.798 76.024 169.816 169.807 169.816 93.783 0 169.815-76.018 169.815-169.816 0-93.767-76.032-169.8-169.815-169.8-93.783-.001-169.807 76.033-169.807 169.8z"/>
        <path fill="#666666" d="M5295.909 2427.845c-80.045 0-145.158-65.122-145.158-145.167 0-80.03 65.113-145.151 145.158-145.151 80.046 0 145.167 65.122 145.167 145.151 0 80.045-65.121 145.167-145.167 145.167z"/>
        <path fill="#1A1A1A" d="M5295.909 2355.951c-40.399 0-73.265-32.865-73.265-73.273 0-40.392 32.865-73.258 73.265-73.258 40.409 0 73.274 32.866 73.274 73.258.001 40.407-32.865 73.273-73.274 73.273z"/>
        <g>
          <rect x="5283.023" y="2123.116" fill="#1A1A1A" width="24.649" height="318.416"/>
        </g>
        <g>
          <rect x="5136.145" y="2270.002" transform="matrix(0.7071 0.7071 -0.7071 0.7071 3164.822 -3075.9006)" fill="#1A1A1A" width="318.408" height="24.646"/>
        </g>
        <g>
          <rect x="5136.141" y="2270" fill="#1A1A1A" width="318.415" height="24.649"/>
        </g>
        <g>
          <rect x="5283.022" y="2123.119" transform="matrix(0.7071 0.7071 -0.7071 0.7071 3164.8933 -3075.927)" fill="#1A1A1A" width="24.647" height="318.412"/>
        </g>
        <path fill="#1A1A1A" d="M4863.058 2685.263c-69.494-17.411-134.038-120.597-159.136-258.109-25.524-139.871-.875-259.217 58.702-298.501l-1.437-7.382 25.483-3.578c2.263-.739 4.165-1.284 6.123-1.638 4.565-.834 9.332-1.251 14.107-1.251h1.275c25.997-3.563 71.164-9.901 96.559-14.539a80.673 80.673 0 0 1 14.193-1.284c76.008 0 151.208 109.765 178.801 260.966 20.365 111.644 8.867 215.375-30.007 270.723-15.913 22.627-36.389 36.621-59.217 40.439-27.643 4.622-79.371 11.362-109.14 15.149-.859.257-1.726.449-2.599.61-2.143.385-4.478.544-6.821.61l-25.652 3.322-1.234-5.537z"/>
        <path fill="#333333" d="M5073.482 2364.376c-26.318-144.204-99.882-251.627-164.328-239.847-26.631 4.846-73.45 11.394-99.663 14.972-4.125-.176-8.224.064-12.301.818-1.725.305-3.346 1.027-5.023 1.509-1.075.145-1.822.24-1.822.24l.057.29c-59.721 19.257-87.588 141.411-62.233 280.367 25.099 137.529 93.108 241.276 155.236 240.489l.048.209s1.405-.178 3.876-.498c1.716-.128 3.458-.033 5.167-.354.595-.096 1.132-.385 1.709-.498 23.719-3 81.104-10.414 110.239-15.292 64.592-10.783 95.348-138.17 69.038-282.405z"/>
        <path fill="#1A1A1A" d="M4768.667 2767.332c-95.533-.033-189.379-131.943-228.207-320.792-41.419-201.527-7.317-345.955 91.231-386.298l3.442-1.412 3.707-.337c4.687-.417 115.022-10.254 147.349-12.646a96.492 96.492 0 0 1 7.158-.257c82.372 0 192.041 107.6 233.036 306.975 38.971 189.586-3.564 348.65-101.132 378.226-32.264 9.772-135.594 34.117-139.976 35.145l-1.171.273-1.188.159c-4.75.642-9.484.964-14.234.964h-.015z"/>
        <path fill="#333333" d="M5002.238 2357.54c-37.566-182.734-140.28-292.58-214.228-287.108-32.519 2.407-146.98 12.614-146.98 12.614-90.387 37.022-112.613 182.445-76.426 358.52 35.818 174.212 125.413 312.448 215.021 300.378 0 0 106.588-25.082 138.475-34.742 79.773-24.185 121.698-166.928 84.138-349.662z"/>
        <path fill="#1A1A1A" d="M4560.135 2442.399c35.032 167.377 124.514 298.902 205.714 300.524 86.545 1.748 136.55-143.13 105.056-332.17-33.219-199.071-139.559-349.518-229.875-327.708-84.258 20.365-117.531 184.115-80.895 359.354z"/>
        <path fill="#E6E6E6" d="M4753.621 2719.927c-73.226-.337-154.699-121.513-186.152-275.474-32.706-160.122-1.95-308.242 73.609-325.028 80.159-17.829 174.574 118.094 204.681 296.592 28.853 170.859-14.804 304.262-92.138 303.91z"/>
        <path fill="#1A1A1A" d="M4773.351 2444.405l85.525-7.928-8.537-50.759-85.927 9.597c-5.905-22.241-13.914-42.398-23.221-59.376l37.528-137.688-24.023-34.149-36.621 139.101c-10.575-11.154-21.737-18.166-32.714-20.156l-33.94-180.841-22.884 5.328 34.239 179.461c-9.108 5.424-16.449 15.421-21.81 28.789l-78.504-113.264-7.888 37.214 77.67 112.317c-2.069 17.428-1.982 37.134.441 57.964l-73.866 8.248 9.404 45.158 73.578-6.837c5.608 20.253 12.967 38.835 21.48 54.739l-30.105 114.354 20.75 30.411 30.843-113.168c9.998 11.346 20.581 19.129 31.093 22.338l30.137 157.973 22.042.289-29.85-159c9.598-3.932 17.637-12.565 23.694-24.97l78.882 114.082 11.162-33.523-79.765-115.061c2.888-17.732 3.41-38.32 1.187-60.643zM5728.762 2685.263c69.502-17.411 134.044-120.597 159.143-258.109 25.516-139.871.868-259.217-58.7-298.501l1.428-7.382-25.483-3.578c-2.263-.739-4.157-1.284-6.115-1.638-4.573-.834-9.338-1.251-14.12-1.251h-1.271c-25.994-3.563-71.17-9.901-96.557-14.539a80.732 80.732 0 0 0-14.186-1.284c-76.02 0-151.216 109.765-178.803 260.966-20.382 111.644-8.874 215.375 30.009 270.723 15.902 22.627 36.38 36.621 59.216 40.439 27.635 4.622 79.371 11.362 109.124 15.149.867.257 1.732.449 2.599.61 2.151.385 4.494.544 6.838.61l25.644 3.322 1.234-5.537z"/>
        <path fill="#333333" d="M5518.328 2364.376c26.319-144.204 99.881-251.627 164.328-239.847 26.639 4.846 73.466 11.394 99.673 14.972 4.124-.176 8.231.064 12.31.818 1.715.305 3.336 1.027 5.006 1.509 1.091.145 1.828.24 1.828.24l-.063.29c59.728 19.257 87.587 141.411 62.232 280.367-25.099 137.529-93.109 241.276-155.229 240.489l-.048.209s-1.413-.178-3.884-.498c-1.701-.128-3.449-.033-5.167-.354-.576-.096-1.124-.385-1.702-.498-23.718-3-81.104-10.414-110.246-15.292-64.575-10.783-95.339-138.17-69.038-282.405z"/>
        <path fill="#1A1A1A" d="M5823.152 2767.332c95.532-.033 189.379-131.943 228.215-320.792 41.403-201.527 7.317-345.955-91.247-386.298l-3.435-1.412-3.707-.337c-4.687-.417-115.014-10.254-147.35-12.646a96.243 96.243 0 0 0-7.156-.257c-82.372 0-192.043 107.6-233.027 306.975-38.979 189.586 3.563 348.65 101.133 378.226 32.255 9.772 135.586 34.117 139.967 35.145l1.17.273 1.188.159c4.75.642 9.484.964 14.233.964h.016z"/>
        <path fill="#333333" d="M5589.58 2357.54c37.568-182.734 140.29-292.58 214.234-287.108 32.514 2.407 146.966 12.614 146.966 12.614 90.396 37.022 112.622 182.445 76.434 358.52-35.818 174.212-125.411 312.448-215.021 300.378 0 0-106.588-25.082-138.475-34.742-79.773-24.185-121.689-166.928-84.138-349.662z"/>
        <path fill="#1A1A1A" d="M6031.692 2442.399c-35.048 167.377-124.53 298.902-205.732 300.524-86.527 1.748-136.532-143.13-105.046-332.17 33.218-199.071 139.549-349.518 229.866-327.708 84.266 20.365 117.532 184.115 80.912 359.354z"/>
        <path fill="#E6E6E6" d="M5838.19 2719.927c73.24-.337 154.698-121.513 186.151-275.474 32.706-160.122 1.959-308.242-73.595-325.028-80.173-17.829-174.582 118.094-204.687 296.592-28.852 170.859 14.814 304.262 92.131 303.91z"/>
        <path fill="#1A1A1A" d="M5818.468 2444.405l-85.519-7.928 8.537-50.759 85.92 9.597c5.906-22.241 13.913-42.398 23.221-59.376l-37.535-137.688 24.039-34.149 36.62 139.101c10.562-11.154 21.729-18.166 32.707-20.156l33.939-180.841 22.885 5.328-34.231 179.461c9.1 5.424 16.436 15.421 21.793 28.789l78.506-113.264 7.895 37.214-77.67 112.317c2.069 17.428 1.989 37.134-.45 57.964l73.885 8.248-9.405 45.158-73.595-6.837c-5.599 20.253-12.965 38.835-21.471 54.739l30.106 114.354-20.75 30.411-30.844-113.168c-9.998 11.346-20.589 19.129-31.084 22.338l-30.137 157.973-22.052.289 29.849-159c-9.595-3.932-17.635-12.565-23.685-24.97l-78.892 114.082-11.168-33.523 79.772-115.061c-2.887-17.732-3.418-38.32-1.186-60.643z"/>
      </g>
    </g>
</svg>
