<svg version="1.1" id="glasses" xmlns="http://www.w3.org/2000/svg" viewBox="0 0 9922 13000" xml:space="preserve">
    <g>
      <g>
        <g>
<linearGradient class="color1" id="7f7d0f83-7d76-47fd-8235-53b8af76f015" >
<stop data-target="-0.2" stop-color="#CCCCCC"></stop>
</linearGradient>
          <path fill="url(#7f7d0f83-7d76-47fd-8235-53b8af76f015)" d="M5681.053 1934.733c-118.561 0-248.289-44.243-277.591-94.665l-1.396-3.146c-17.863-54.53-51.498-81.024-102.881-81.024-51.401 0-85.061 26.495-102.923 81.024l-1.403 3.128c-28.766 49.556-170.659 94.682-297.699 94.682h-.024c-86.921 0-161.038-19.802-214.325-57.274-86.151-69.101-111.867-198.332-119.602-269.278-12.212-111.964 3.017-230.5 34.662-269.849 43.016-54.738 389.475-66.26 672.523-66.26 296.208 0 658.353 11.522 701.505 66.397 29.625 36.853 45.03 141.523 36.509 248.753-6.115 76.868-29.93 216.723-120.758 289.612-54.129 38.098-125.269 57.9-206.597 57.9zm-248.386-109.91c20.283 31.181 127.611 77.044 248.386 77.044 51.961 0 126.55-8.906 186.858-51.288 58.477-46.971 98.05-144.14 107.727-265.957 8.457-106.267-8.714-199.889-29.463-225.702-21.199-26.936-238.291-53.984-675.781-53.984-417.567 0-625.736 27.041-646.798 53.848-23.245 28.902-39.862 134.496-27.721 245.834 7.188 65.891 30.602 185.542 106.675 246.586 59.456 41.756 138.715 50.663 194.593 50.663 128.125 0 247.775-45.542 268.508-77.044 22.45-66.597 68.579-101.791 133.534-101.791 64.927.001 111.047 35.195 133.482 101.791z"/>
        </g>
<linearGradient class="color1" id="ce96bbbf-29ad-4b26-ae23-3273d4337b85" >
<stop data-target="0.0" stop-color="#FFFFFF"></stop>
</linearGradient>
        <path fill="url(#ce96bbbf-29ad-4b26-ae23-3273d4337b85)" d="M5204.992 1765.062c52.043-83.543 134.215-90.38 190.814 4.108-73.032-57.515-125.082-56.166-190.814-4.108z"/>
<linearGradient class="color1" id="ab064c7a-cfe8-42d1-9b5d-e00dc1a17f50" >
<stop data-target="0.0" stop-color="#FFFFFF"></stop>
</linearGradient>
        <path opacity="0.4" fill="url(#ab064c7a-cfe8-42d1-9b5d-e00dc1a17f50)" d="M5299.633 1732.871c58.252 0 97.409 30.812 116.826 88.326 36.074 60.243 300.618 134.879 453.152 30.812 144.203-112.301 130.354-432.732 80.445-492.982-44.386-54.778-553.978-57.514-678.772-57.514-124.801 0-605.965 2.736-650.329 57.514-49.932 60.25-63.796 380.681 80.414 492.982 152.542 104.068 445.378 29.431 481.438-30.812 19.425-57.515 58.59-88.326 116.826-88.326z"/>
<linearGradient class="color1" id="e0499d44-f5ff-4745-bb27-82ca4577c791" >
<stop data-target="0.0" stop-color="#FFFFFF"></stop>
</linearGradient>
        <path opacity="0.4" fill="url(#e0499d44-f5ff-4745-bb27-82ca4577c791)" d="M5949.401 1597.991c11.008-103.86-6.387-196.768-22.806-216.747-27.634-22.57-244.484-46.867-655.312-46.867-394.73 0-599.193 23.437-626.001 45.959-17.308 20.887-34.686 113.778-23.694 217.606.466 4.333 1.02 8.954 1.637 13.736h1324.537a512.691 512.691 0 0 0 1.639-13.687z"/>
<linearGradient class="color1" id="d83c74de-d7c8-486f-999e-fd889fa8fbbc" >
<stop data-target="0.0" stop-color="#FFFFFF"></stop>
</linearGradient>
        <path fill="url(#d83c74de-d7c8-486f-999e-fd889fa8fbbc)" d="M5676.092 1912.155c-122.844 0-242.043-45.768-266.532-86.689l-.739-1.605c-18.551-54.915-55.268-82.773-109.188-82.773-53.904 0-90.628 27.858-109.173 82.773l-.745 1.605c-24.49 40.921-152.155 86.689-286.37 86.689h-.024c-58.534 0-141.868-9.26-206.459-53.326-83.215-64.785-107.745-187.95-114.99-255.623-11.161-104.148 3.282-213.738 32.898-249.476 42.591-52.572 429.61-60.436 656.515-60.436 237.515 0 642.362 7.864 685.001 60.508 29.574 35.674 44.019 145.271 32.831 249.436-7.269 67.673-31.789 190.806-114.579 255.285-51.561 35.193-120.02 53.632-198.446 53.632zm-252.282-94.521c22.852 36.268 137.271 78.087 252.282 78.087 75.201 0 140.563-17.476 189.01-50.534 77.607-60.45 100.972-178.658 107.951-243.715 11.829-110.438-5.936-209.084-29.172-237.151-27.314-33.701-285.006-54.594-672.597-54.594-370.05 0-616.862 20.893-644.086 54.521-23.317 28.131-41.09 126.751-29.255 237.175 6.974 65.073 30.313 183.295 108.345 244.068 60.804 41.451 140.754 50.229 197.033 50.229 124.065 0 249.581-42.542 272.153-78.087 20.846-60.837 63.756-92.98 124.159-92.98s103.347 32.161 124.177 92.981z"/>
      </g>
    </g>
</svg>
