<svg version="1.1" id="Helmet_noise" xmlns="http://www.w3.org/2000/svg" viewBox="0 0 9922 13000" xml:space="preserve">
    <g>
      <g>
<linearGradient class="color1" id="ceb1a6e5-fb91-4188-bc46-28a6a0211380" >
<stop data-target="-0.43" stop-color="#730E11"></stop>
</linearGradient>
        <path fill="url(#ceb1a6e5-fb91-4188-bc46-28a6a0211380)" d="M6251.606 1783.693c-1.009 12.919-12.323 22.578-25.225 21.567l-92.322-7.222c-12.919-1.009-22.578-12.308-21.566-25.242l9.851-126.102c1.013-12.935 12.326-22.595 25.245-21.584l92.306 7.222c12.935 1.011 22.595 12.309 21.566 25.243l-9.855 126.118z"/>
        <path d="M6240.311 1618.949c.145-1.941 2.424-3.354 5.071-3.161l59.44 4.525c2.663.192 4.685 1.941 4.541 3.883l-15.389 202.649c-.161 1.941-2.423 3.354-5.086 3.177l-59.442-4.525c-2.648-.209-4.669-1.958-4.541-3.916l15.406-202.632z"/>
<linearGradient class="color1" id="48c50908-bf39-411e-aae2-4fa3a3389d54" >
<stop data-target="-0.43" stop-color="#730E11"></stop>
</linearGradient>
        <path fill="url(#48c50908-bf39-411e-aae2-4fa3a3389d54)" d="M4303.847 1783.693c1.011 12.919 12.317 22.578 25.235 21.567l92.313-7.222c12.919-1.009 22.587-12.308 21.568-25.242l-9.853-126.102c-1.02-12.935-12.325-22.595-25.234-21.584l-92.322 7.222c-12.919 1.011-22.581 12.309-21.561 25.243l9.854 126.118z"/>
        <path d="M4315.144 1618.949c-.144-1.941-2.422-3.354-5.07-3.161l-59.44 4.525c-2.665.192-4.686 1.941-4.542 3.883l15.397 202.649c.145 1.941 2.416 3.354 5.08 3.177l59.44-4.525c2.64-.209 4.678-1.958 4.534-3.916l-15.399-202.632zM4427.862 924.248c-2.736-49.298-5.479-188.978 0-243.755 21.913-21.913 178.024-115.029 191.713-120.51-5.48 68.468-16.432 282.102-16.432 298.534-30.122 10.952-139.679 54.778-175.281 65.731z"/>
        <g>
          <path d="M4281.436 1882.098c-2.687-27.33-65.827-670.629-65.827-788.051v-4.557l1.926-4.125c40.472-86.737 190.604-318.48 254.989-393.591l31.196 26.735c-66.341 77.39-207.544 298.317-246.997 380.104 1.572 127.241 64.952 772.876 65.603 779.455l-40.89 4.03z"/>
        </g>
        <path d="M6123.645 924.248c2.729-49.298 5.489-188.978 0-243.755-21.921-21.913-178.032-115.029-191.704-120.51 5.473 68.468 16.433 282.102 16.433 298.534 30.104 10.952 139.678 54.778 175.271 65.731z"/>
        <g>
          <path d="M6270.063 1882.098l-40.89-4.029c.66-6.579 64.032-652.222 65.604-779.455-39.445-81.787-180.648-302.714-246.99-380.104l31.197-26.735c64.383 75.111 214.509 306.854 254.98 393.591l1.926 4.125v4.557c.001 117.421-63.131 760.72-65.827 788.05z"/>
        </g>
<linearGradient class="color1" id="39f39dbf-6420-413f-80ed-6efb5592246a" >
<stop data-target="-0.43" stop-color="#730E11"></stop>
</linearGradient>
        <path fill="url(#39f39dbf-6420-413f-80ed-6efb5592246a)" d="M6026.62 1309.728c45.19 14.379 154.059 88.325 217.061 156.8 16.432 112.975-42.462 479.295-79.436 545.025-43.809 24.649-147.895 52.026-205.408 43.81 4.106-30.811 63.676-720.986 67.783-745.635z"/>
<linearGradient class="color1" id="f36c8c40-6ef5-45d9-ba79-8b87cff96863" >
<stop data-target="-0.14" stop-color="#AB181D"></stop>
</linearGradient>
        <path fill="url(#f36c8c40-6ef5-45d9-ba79-8b87cff96863)" d="M5995.023 2023.589c4.798-51.353 13.881-153.688 26.479-295.63 11.876-133.933 25.949-292.619 33.106-368.717 45.431 26.005 111.338 73.834 157.731 121.937 11.04 115.688-42.076 433.189-72.872 506.19-34.148 16.289-97.007 33.395-144.444 36.22z"/>
<linearGradient class="color1" id="741d1721-1631-421b-8eb2-13a6d7af03b0" >
<stop data-target="0.0" stop-color="#C9181E"></stop>
</linearGradient>
        <path fill="url(#741d1721-1631-421b-8eb2-13a6d7af03b0)" d="M6212.34 1481.18c-46.394-48.103-112.301-95.932-157.731-121.937-7.157 76.098-21.23 234.784-33.106 368.717-.336 3.82-.658 7.478-.995 11.235 57.53 8.456 114.114 12.323 170.651 13.864 15.983-103.781 26.749-213.498 21.181-271.879z"/>
        <path d="M6031.757 2049.249c-2.344 19.209-20.251 32.721-39.959 30.218-12.902-1.605-25.79-3.242-38.677-4.846-19.736-2.472-33.794-19.802-31.517-38.739 28.278-235.306 46.507-472.506 54.499-710.933.641-19.161 17.186-34.239 37.053-33.652 12.983.41 25.981.827 38.947 1.245 19.869.609 35.499 16.914 34.857 36.371a8400.18 8400.18 0 0 1-55.203 720.336z"/>
        <linearGradient class="color3" id="4b6ca355-a663-4ab4-840c-aa39d5318b1b" gradientUnits="userSpaceOnUse" x1="6018.9219" y1="1576.4487" x2="6055.895" y2="890.3864">
<stop data-target="0.0" offset="0" stop-color="#000000" />
<stop data-target="-0.38" offset="1" stop-color="#999999" />
        </linearGradient>

        <path fill="url(#4b6ca355-a663-4ab4-840c-aa39d5318b1b)" d="M6070.544 1328.367c.16-4.871-1.621-9.557-5.04-13.183-3.611-3.843-8.537-6.05-13.912-6.218l-39.543-1.251c-10.622 0-19.192 7.815-19.529 17.788-3.192 95.492-8.167 191.352-14.714 287.172l78.246.609c6.42-95.066 11.315-190.172 14.492-284.917z"/>
<linearGradient class="color1" id="9371516b-9105-4a46-9539-0a68711e3245" >
<stop data-target="-0.43" stop-color="#730E11"></stop>
</linearGradient>
        <path fill="url(#9371516b-9105-4a46-9539-0a68711e3245)" d="M4546.318 1309.728c-45.19 14.379-154.057 88.325-217.052 156.8-16.434 112.975 42.454 479.295 79.428 545.025 43.817 24.649 147.894 52.026 205.409 43.81-4.108-30.811-63.676-720.986-67.785-745.635z"/>
<linearGradient class="color1" id="dcda3c30-9d4f-4dde-be59-4ca523bfd6e1" >
<stop data-target="-0.14" stop-color="#AB181D"></stop>
</linearGradient>
        <path fill="url(#dcda3c30-9d4f-4dde-be59-4ca523bfd6e1)" d="M4577.924 2023.589c-4.791-51.353-13.889-153.688-26.479-295.63-11.875-133.933-25.94-292.619-33.106-368.717-45.431 26.005-111.338 73.834-157.732 121.937-11.041 115.688 42.077 433.189 72.874 506.19 34.14 16.289 97.005 33.395 144.443 36.22z"/>
<linearGradient class="color1" id="1922b7cc-6aaa-4f58-ae80-0b22d0c8cbc8" >
<stop data-target="0.0" stop-color="#C9181E"></stop>
</linearGradient>
        <path fill="url(#1922b7cc-6aaa-4f58-ae80-0b22d0c8cbc8)" d="M4360.607 1481.18c46.394-48.103 112.301-95.932 157.732-121.937 7.166 76.098 21.231 234.784 33.106 368.717.338 3.82.667 7.478.996 11.235-57.523 8.456-114.123 12.323-170.652 13.864-15.983-103.781-26.75-213.498-21.182-271.879z"/>
        <path d="M4541.2 2049.249c2.326 19.209 20.251 32.721 39.958 30.218 12.885-1.605 25.78-3.242 38.667-4.846 19.73-2.472 33.788-19.802 31.517-38.739a8288.899 8288.899 0 0 1-54.49-710.933c-.641-19.161-17.194-34.239-37.061-33.652-12.982.41-25.972.827-38.957 1.245-19.858.609-35.497 16.914-34.855 36.371 8.104 241.572 26.576 481.901 55.221 720.336z"/>
        <linearGradient class="color3" id="fa6bbfee-d6c0-4484-bd55-dfb4a1288c09" gradientUnits="userSpaceOnUse" x1="4168.5293" y1="1576.4487" x2="4205.5024" y2="890.3881" gradientTransform="matrix(-1 0 0 1 8720.5 0)">
<stop data-target="0.0" offset="0" stop-color="#000000" />
<stop data-target="-0.38" offset="1" stop-color="#999999" />
        </linearGradient>

        <path fill="url(#fa6bbfee-d6c0-4484-bd55-dfb4a1288c09)" d="M4500.349 1328.367c-.159-4.871 1.629-9.557 5.039-13.183 3.603-3.843 8.537-6.05 13.921-6.218l39.542-1.251c10.615 0 19.185 7.815 19.522 17.788 3.202 95.492 8.169 191.352 14.708 287.172l-78.232.609c-6.434-95.066-11.322-190.172-14.5-284.917z"/>
<linearGradient class="color2" id="04a70857-5bf6-4569-867c-82b002e7044d" >
<stop data-target="-0.42" stop-color="#BF840E"></stop>
</linearGradient>
        <path fill="url(#04a70857-5bf6-4569-867c-82b002e7044d)" d="M4409.376 1110.48c-2.736-45.19 2.054-182.132 8.898-223.214 38.346-27.384 91.753-47.926 102.704-50.662 2.737 24.649 19.17 219.106 19.17 238.274-12.501 1.389-110.223 31.494-130.772 35.602z"/>
        <linearGradient class="color2" id="35b1b05b-993f-41e2-8698-85cab68d4b10" gradientUnits="userSpaceOnUse" x1="4563.1406" y1="1048.0811" x2="4302.2617" y2="863.2065">
<stop data-target="-0.3" offset="0" stop-color="#F1991B" />
<stop data-target="-0.14" offset="1" stop-color="#FDD349" />
        </linearGradient>

        <path fill="url(#35b1b05b-993f-41e2-8698-85cab68d4b10)" d="M4432.573 1070.273c2.655-50.165 10.375-123.96 16.015-163.773 14.355-9.051 30.009-17.034 43.721-23.333 4.341 49.475 10.656 126.215 13.497 166.357-11.282 3.098-26.454 7.406-47.163 13.327-8.37 2.391-17.405 4.975-26.07 7.422z"/>
<linearGradient class="color2" id="bc6a2c97-5972-491a-a938-319b8c0ac670" >
<stop data-target="-0.42" stop-color="#BF840E"></stop>
</linearGradient>
        <path fill="url(#bc6a2c97-5972-491a-a938-319b8c0ac670)" d="M6142.131 1110.48c2.729-45.19-2.054-182.132-8.89-223.214-38.353-27.384-91.76-47.926-102.706-50.662-2.743 24.649-19.175 219.106-19.175 238.274 12.501 1.389 110.232 31.494 130.771 35.602z"/>
        <linearGradient class="color2" id="153de633-a391-4778-8102-acaa65c5d3a6" gradientUnits="userSpaceOnUse" x1="2732.8286" y1="1048.0791" x2="2471.9626" y2="863.2136" gradientTransform="matrix(-1 0 0 1 8721.1953 0)">
<stop data-target="-0.3" offset="0" stop-color="#F1991B" />
<stop data-target="-0.14" offset="1" stop-color="#FDD349" />
        </linearGradient>

        <path fill="url(#153de633-a391-4778-8102-acaa65c5d3a6)" d="M6118.928 1070.273c-2.648-50.165-10.367-123.96-16.016-163.773-14.349-9.051-30.01-17.034-43.715-23.333-4.332 49.475-10.654 126.215-13.496 166.357 11.281 3.098 26.464 7.406 47.164 13.327 8.377 2.391 17.398 4.975 26.063 7.422z"/>
<linearGradient class="color2" id="2c288ee8-2dac-4dfb-9ff9-76c7d8c186c8" >
<stop data-target="-0.42" stop-color="#BF840E"></stop>
</linearGradient>
        <path fill="url(#2c288ee8-2dac-4dfb-9ff9-76c7d8c186c8)" d="M5275.736 1255.142c100.363 0 514.793 28.267 649.144 14.145 110.086-6.291 161.888-35.633 267.112-40.351 1.619-25.124 3.258-67.52 0-80.093-24.28-20.413-106.283-85.333-110.585-184.203-8.215-188.977-36.734-807.419-805.671-807.419-768.936 0-801.311 633.968-801.311 784.824 0 99.969-90.662 186.385-114.941 206.798-3.234 12.573-1.612 54.97 0 80.093 105.224 4.718 157.018 34.06 267.112 40.351 134.367 14.122 548.772-14.145 649.14-14.145z"/>
        <linearGradient class="color2" id="aa3b83a8-7ed8-4273-b8d7-15f53207aa46" gradientUnits="userSpaceOnUse" x1="5275.7471" y1="596.958" x2="5275.7471" y2="1422.7036">
<stop data-target="-0.3" offset="0" stop-color="#F1991B" />
<stop data-target="-0.14" offset="1" stop-color="#FDD349" />
        </linearGradient>

        <path fill="url(#aa3b83a8-7ed8-4273-b8d7-15f53207aa46)" d="M5815.498 1240.378c-105.751 0-248.834-6.459-363.798-11.651-79.853-3.603-142.92-6.452-175.964-6.452-33.042 0-96.124 2.849-175.978 6.452-114.948 5.191-258.012 11.651-363.766 11.651h-.017c-46.424-.007-81.995-1.268-105.728-3.763-53.559-3.105-91.054-11.298-130.749-19.971-32.745-7.157-66.397-14.516-107.615-18.398-.473-14.395-.489-26.294-.16-33.925 36.99-37.19 108.474-135.073 106.853-234.792-.217-13.175-2.761-324.9 216.233-540.772 133.74-131.823 322.468-198.669 560.926-198.669 238.486 0 427.203 66.846 560.945 198.693 219.002 215.88 216.434 527.573 216.226 540.739-1.637 99.737 69.903 197.667 106.877 234.833.321 7.534.289 19.433-.192 33.893-41.211 3.883-74.878 11.241-107.633 18.398-39.685 8.673-77.171 16.874-129.069 19.834-25.387 2.632-60.965 3.9-107.391 3.9z"/>
        <linearGradient class="color2" id="b106ad6d-70d8-484a-b495-5134176a66cf" gradientUnits="userSpaceOnUse" x1="5274.1338" y1="1296.0254" x2="5277.106" y2="1114.8174">
<stop data-target="-0.09" offset="0" stop-color="#FDE25B" />
<stop data-target="0.0" offset="1" stop-color="#FFFFAB" />
        </linearGradient>

        <path fill="url(#b106ad6d-70d8-484a-b495-5134176a66cf)" d="M5939.933 1217.341c-26.063 2.705-62.571 4.004-110.216 4.004-108.546 0-255.381-6.627-373.379-11.956-81.957-3.698-146.69-6.627-180.602-6.627-33.915 0-98.649 2.929-180.605 6.627-117.99 5.329-264.818 11.956-373.356 11.956h-.015c-47.646-.009-84.155-1.299-108.522-3.868-54.963-3.185-221.561-25.62-221.353-19.232 41.218 3.883 74.871 11.241 107.615 18.398 39.694 8.673 77.19 16.866 130.749 19.971 23.733 2.495 59.304 3.756 105.728 3.763h.017c105.754 0 248.818-6.459 363.766-11.651 79.854-3.603 142.936-6.452 175.978-6.452 33.044 0 96.111 2.849 175.964 6.452 114.964 5.191 258.047 11.651 363.798 11.651 46.426 0 82.004-1.268 107.392-3.9 51.898-2.96 89.385-11.161 129.069-19.834 32.755-7.157 66.422-14.516 107.633-18.398.221-6.403-166.401 16.055-219.661 19.096z"/>
        <linearGradient class="color2" id="4683bbc1-4853-4791-b6a7-2952ec76bd39" gradientUnits="userSpaceOnUse" x1="5275.4834" y1="-226.0518" x2="5275.4834" y2="1639.1486">
<stop data-target="-0.3" offset="0" stop-color="#F1991B" />
<stop data-target="-0.09" offset="1" stop-color="#FDE25B" />
        </linearGradient>

        <path fill="url(#4683bbc1-4853-4791-b6a7-2952ec76bd39)" d="M5836.682 388.78c-22.756-22.435-47.229-42.831-73.144-61.494-2.121-12.887-4.366-24.248-6.742-33.026-22.546-19.868-110.92-62.393-161.856-82.766.547 8.121.867 17.894 1.027 28.677-93.828-33.307-200.786-50.084-320.23-50.084-119.434 0-226.375 16.777-320.197 50.076.154-10.775.467-20.557 1.021-28.669-50.936 20.373-139.31 62.898-161.866 82.766-2.366 8.778-4.605 20.132-6.731 33.009-25.917 18.655-50.389 39.053-73.152 61.487-218.995 215.872-216.45 527.597-216.233 540.772.273 16.746-12.092 117.958 69.783 131.654 485.561-60.25 1032.809-35.04 1408.675 5.48 76.227 8.216 65.186-111.932 75.873-143.362-.389-46.81-11.348-332.569-216.228-534.52z"/>
<linearGradient class="color2" id="a4a94ec6-27f8-4347-88c9-f4b172a66c2b" >
<stop data-target="-0.42" stop-color="#BF840E"></stop>
</linearGradient>
        <path fill="url(#a4a94ec6-27f8-4347-88c9-f4b172a66c2b)" d="M5594.939 211.494c50.937 20.373 139.311 62.898 161.856 82.766 13.979 51.825 24.297 186.032 24.313 273.603 13.224-95.7 14.073-230.202-2.392-299.56-50.968-41.636-149.659-87.645-215.119-109.285-17.49 16.971-29.702 37.896-29.702 37.896s20.011 4.718 30.569 8.658c5.906 63.372 16.931 184.804 22.643 258.038 5.876-84.981 11.428-199.793 7.832-252.116zM4987.899 159.018c-65.466 21.64-166.028 72.359-217.38 105.729-16.458 69.358-13.343 207.416-.129 303.116.016-87.571 10.334-221.778 24.303-273.603 22.556-19.868 110.93-62.393 161.866-82.766-3.596 52.324 1.959 167.136 7.838 252.116 5.706-73.233 16.729-194.666 22.636-258.038 10.56-3.94 30.579-8.658 30.579-8.658s-12.22-20.925-29.713-37.896zM5275.754 1038.587c115.316 4.333 324.979 31.518 387.293 17.517 0-161.874-171.565-406.784-184.9-497.917-14.154-96.799-24.313-334.914-47.054-406.285-8.504-26.672-105.976-52.035-155.339-52.035-49.387 0-146.843 25.363-155.35 52.035-22.747 71.372-32.896 309.486-47.058 406.285-13.337 91.134-184.894 328.35-186.972 497.604 62.329 14.001 274.054-12.871 389.38-17.204z"/>
        <linearGradient class="color2" id="b7e2ef67-1157-4f94-bdba-de93248ceca2" gradientUnits="userSpaceOnUse" x1="5275.7461" y1="-568.3931" x2="5275.7461" y2="1299.6014">
<stop data-target="-0.3" offset="0" stop-color="#F1991B" />
<stop data-target="-0.09" offset="1" stop-color="#FDE25B" />
        </linearGradient>

        <path fill="url(#b7e2ef67-1157-4f94-bdba-de93248ceca2)" d="M4903.434 1058.872c11.755-86.521 70.913-231.19 121.385-321.731 41.161-73.834 73.658-132.152 79.778-174.011 5.451-37.247 10.248-93.919 15.326-153.921 7.551-89.256 16.908-199.753 29.44-243.467 15.509-13.295 84.113-33.01 126.391-33.01 42.27 0 110.858 19.714 126.375 33.01 12.533 43.714 21.888 154.21 29.447 243.467 5.072 60.002 9.867 116.674 15.31 153.921 6.129 41.859 38.643 100.177 79.788 174.011 50.485 90.541 109.639 235.21 121.385 321.731-63.549 8.071-681.076 8.071-744.625 0z"/>
        <linearGradient class="color2" id="596ba4dd-9ae7-475d-b18e-e179169642da" gradientUnits="userSpaceOnUse" x1="5399.2246" y1="913.2891" x2="5399.2246" y2="-491.7601">
<stop data-target="-0.09" offset="0" stop-color="#FDE25B" />
<stop data-target="0.0" offset="1" stop-color="#FFFFAB" />
        </linearGradient>

        <path fill="url(#596ba4dd-9ae7-475d-b18e-e179169642da)" d="M5250.343 145.057c42.261 0 110.864 19.714 126.382 33.009 12.551 43.714 21.89 154.209 29.432 243.466 5.071 60.002 9.887 116.675 15.325 153.921 6.116 41.86 41.516 95.491 86.226 167.344 67.754 108.867 135.055 316.748 140.352 316.074-11.746-86.521-70.899-231.19-121.385-321.731-41.146-73.834-73.659-132.152-79.788-174.011-5.442-37.247-10.237-93.919-15.31-153.921-7.56-89.256-16.914-199.753-29.447-243.467-15.517-13.295-84.105-33.01-126.375-33.01-41.499 0-108.242 18.984-125.364 32.256 28.154-10.318 70.439-19.93 99.952-19.93z"/>
      </g>
    </g>
</svg>
