<svg version="1.1" id="Helmet" xmlns="http://www.w3.org/2000/svg" viewBox="0 0 9922 13000" xml:space="preserve">
    <g>
      <g>
<linearGradient class="color1" id="ba1732a8-87f2-4291-ba58-5ee5f86a8f6b" >
<stop data-target="-0.42" stop-color="#BF840E"></stop>
</linearGradient>
        <path fill="url(#ba1732a8-87f2-4291-ba58-5ee5f86a8f6b)" d="M4409.376 1110.48c-2.736-45.19 2.054-182.132 8.898-223.214 38.346-27.384 91.753-47.926 102.704-50.662 2.737 24.649 19.17 219.106 19.17 238.274-12.501 1.389-110.223 31.494-130.772 35.602z"/>
        <linearGradient class="color1" id="ec4d40e4-fa67-4faa-9de8-85fedcfb43ee" gradientUnits="userSpaceOnUse" x1="4563.1406" y1="1048.0811" x2="4302.2617" y2="863.2065">
<stop data-target="-0.3" offset="0" stop-color="#F1991B" />
<stop data-target="-0.14" offset="1" stop-color="#FDD349" />
        </linearGradient>

        <path fill="url(#ec4d40e4-fa67-4faa-9de8-85fedcfb43ee)" d="M4432.573 1070.273c2.655-50.165 10.375-123.96 16.015-163.773 14.355-9.051 30.009-17.034 43.721-23.333 4.341 49.475 10.656 126.215 13.497 166.357-11.282 3.098-26.454 7.406-47.163 13.327-8.37 2.391-17.405 4.975-26.07 7.422z"/>
<linearGradient class="color1" id="bfc23769-0bbb-4422-bc42-9b8a44b487d3" >
<stop data-target="-0.42" stop-color="#BF840E"></stop>
</linearGradient>
        <path fill="url(#bfc23769-0bbb-4422-bc42-9b8a44b487d3)" d="M6142.131 1110.48c2.729-45.19-2.054-182.132-8.89-223.214-38.353-27.384-91.76-47.926-102.706-50.662-2.743 24.649-19.175 219.106-19.175 238.274 12.501 1.389 110.232 31.494 130.771 35.602z"/>
        <linearGradient class="color1" id="c9a8c54e-54d2-4cfb-ba5b-ccef8a5f0bb7" gradientUnits="userSpaceOnUse" x1="2732.8286" y1="1048.0791" x2="2471.9626" y2="863.2136" gradientTransform="matrix(-1 0 0 1 8721.1953 0)">
<stop data-target="-0.3" offset="0" stop-color="#F1991B" />
<stop data-target="-0.14" offset="1" stop-color="#FDD349" />
        </linearGradient>

        <path fill="url(#c9a8c54e-54d2-4cfb-ba5b-ccef8a5f0bb7)" d="M6118.928 1070.273c-2.648-50.165-10.367-123.96-16.016-163.773-14.349-9.051-30.01-17.034-43.715-23.333-4.332 49.475-10.654 126.215-13.496 166.357 11.281 3.098 26.464 7.406 47.164 13.327 8.377 2.391 17.398 4.975 26.063 7.422z"/>
<linearGradient class="color1" id="6b952fc5-26c2-47e7-9471-ac611823fe02" >
<stop data-target="-0.42" stop-color="#BF840E"></stop>
</linearGradient>
        <path fill="url(#6b952fc5-26c2-47e7-9471-ac611823fe02)" d="M5275.736 1255.142c100.363 0 514.793 28.267 649.144 14.145 110.086-6.291 161.888-35.633 267.112-40.351 1.619-25.124 3.258-67.52 0-80.093-24.28-20.413-106.283-85.333-110.585-184.203-8.215-188.977-36.734-807.419-805.671-807.419-768.936 0-801.311 633.968-801.311 784.824 0 99.969-90.662 186.385-114.941 206.798-3.234 12.573-1.612 54.97 0 80.093 105.224 4.718 157.018 34.06 267.112 40.351 134.367 14.122 548.772-14.145 649.14-14.145z"/>
        <linearGradient class="color1" id="7af7ba73-1e4f-42cd-8953-dbdcc66be6ee" gradientUnits="userSpaceOnUse" x1="5275.7471" y1="596.958" x2="5275.7471" y2="1422.7036">
<stop data-target="-0.3" offset="0" stop-color="#F1991B" />
<stop data-target="-0.14" offset="1" stop-color="#FDD349" />
        </linearGradient>

        <path fill="url(#7af7ba73-1e4f-42cd-8953-dbdcc66be6ee)" d="M5815.498 1240.378c-105.751 0-248.834-6.459-363.798-11.651-79.853-3.603-142.92-6.452-175.964-6.452-33.042 0-96.124 2.849-175.978 6.452-114.948 5.191-258.012 11.651-363.766 11.651h-.017c-46.424-.007-81.995-1.268-105.728-3.763-53.559-3.105-91.054-11.298-130.749-19.971-32.745-7.157-66.397-14.516-107.615-18.398-.473-14.395-.489-26.294-.16-33.925 36.99-37.19 108.474-135.073 106.853-234.792-.217-13.175-2.761-324.9 216.233-540.772 133.74-131.823 322.468-198.669 560.926-198.669 238.486 0 427.203 66.846 560.945 198.693 219.002 215.88 216.434 527.573 216.226 540.739-1.637 99.737 69.903 197.667 106.877 234.833.321 7.534.289 19.433-.192 33.893-41.211 3.883-74.878 11.241-107.633 18.398-39.685 8.673-77.171 16.874-129.069 19.834-25.387 2.632-60.965 3.9-107.391 3.9z"/>
        <linearGradient class="color1" id="e414e762-fffa-40b7-8ee4-84feb3ae1401" gradientUnits="userSpaceOnUse" x1="5274.1338" y1="1296.0254" x2="5277.106" y2="1114.8174">
<stop data-target="-0.09" offset="0" stop-color="#FDE25B" />
<stop data-target="0.0" offset="1" stop-color="#FFFFAB" />
        </linearGradient>

        <path fill="url(#e414e762-fffa-40b7-8ee4-84feb3ae1401)" d="M5939.933 1217.341c-26.063 2.705-62.571 4.004-110.216 4.004-108.546 0-255.381-6.627-373.379-11.956-81.957-3.698-146.69-6.627-180.602-6.627-33.915 0-98.649 2.929-180.605 6.627-117.99 5.329-264.818 11.956-373.356 11.956h-.015c-47.646-.009-84.155-1.299-108.522-3.868-54.963-3.185-221.561-25.62-221.353-19.232 41.218 3.883 74.871 11.241 107.615 18.398 39.694 8.673 77.19 16.866 130.749 19.971 23.733 2.495 59.304 3.756 105.728 3.763h.017c105.754 0 248.818-6.459 363.766-11.651 79.854-3.603 142.936-6.452 175.978-6.452 33.044 0 96.111 2.849 175.964 6.452 114.964 5.191 258.047 11.651 363.798 11.651 46.426 0 82.004-1.268 107.392-3.9 51.898-2.96 89.385-11.161 129.069-19.834 32.755-7.157 66.422-14.516 107.633-18.398.221-6.403-166.401 16.055-219.661 19.096z"/>
        <linearGradient class="color1" id="a55d6f0a-6f3c-4f36-898e-5c489c1d0580" gradientUnits="userSpaceOnUse" x1="5275.4834" y1="-226.0518" x2="5275.4834" y2="1639.1486">
<stop data-target="-0.3" offset="0" stop-color="#F1991B" />
<stop data-target="-0.09" offset="1" stop-color="#FDE25B" />
        </linearGradient>

        <path fill="url(#a55d6f0a-6f3c-4f36-898e-5c489c1d0580)" d="M5836.682 388.78c-22.756-22.435-47.229-42.831-73.144-61.494-2.121-12.887-4.366-24.248-6.742-33.026-22.546-19.868-110.92-62.393-161.856-82.766.547 8.121.867 17.894 1.027 28.677-93.828-33.307-200.786-50.084-320.23-50.084-119.434 0-226.375 16.777-320.197 50.076.154-10.775.467-20.557 1.021-28.669-50.936 20.373-139.31 62.898-161.866 82.766-2.366 8.778-4.605 20.132-6.731 33.009-25.917 18.655-50.389 39.053-73.152 61.487-218.995 215.872-216.45 527.597-216.233 540.772.273 16.746-12.092 117.958 69.783 131.654 485.561-60.25 1032.809-35.04 1408.675 5.48 76.227 8.216 65.186-111.932 75.873-143.362-.389-46.81-11.348-332.569-216.228-534.52z"/>
<linearGradient class="color1" id="eedf957c-9631-4ba8-86cb-164c1e96acee" >
<stop data-target="-0.42" stop-color="#BF840E"></stop>
</linearGradient>
        <path fill="url(#eedf957c-9631-4ba8-86cb-164c1e96acee)" d="M5594.939 211.494c50.937 20.373 139.311 62.898 161.856 82.766 13.979 51.825 24.297 186.032 24.313 273.603 13.224-95.7 14.073-230.202-2.392-299.56-50.968-41.636-149.659-87.645-215.119-109.285-17.49 16.971-29.702 37.896-29.702 37.896s20.011 4.718 30.569 8.658c5.906 63.372 16.931 184.804 22.643 258.038 5.876-84.981 11.428-199.793 7.832-252.116zM4987.899 159.018c-65.466 21.64-166.028 72.359-217.38 105.729-16.458 69.358-13.343 207.416-.129 303.116.016-87.571 10.334-221.778 24.303-273.603 22.556-19.868 110.93-62.393 161.866-82.766-3.596 52.324 1.959 167.136 7.838 252.116 5.706-73.233 16.729-194.666 22.636-258.038 10.56-3.94 30.579-8.658 30.579-8.658s-12.22-20.925-29.713-37.896zM5275.754 1038.587c115.316 4.333 324.979 31.518 387.293 17.517 0-161.874-171.565-406.784-184.9-497.917-14.154-96.799-24.313-334.914-47.054-406.285-8.504-26.672-105.976-52.035-155.339-52.035-49.387 0-146.843 25.363-155.35 52.035-22.747 71.372-32.896 309.486-47.058 406.285-13.337 91.134-184.894 328.35-186.972 497.604 62.329 14.001 274.054-12.871 389.38-17.204z"/>
        <linearGradient class="color1" id="947a6408-3f08-4dca-b8a1-69455aa8c6f1" gradientUnits="userSpaceOnUse" x1="5275.7461" y1="-568.3931" x2="5275.7461" y2="1299.6014">
<stop data-target="-0.3" offset="0" stop-color="#F1991B" />
<stop data-target="-0.09" offset="1" stop-color="#FDE25B" />
        </linearGradient>

        <path fill="url(#947a6408-3f08-4dca-b8a1-69455aa8c6f1)" d="M4903.434 1058.872c11.755-86.521 70.913-231.19 121.385-321.731 41.161-73.834 73.658-132.152 79.778-174.011 5.451-37.247 10.248-93.919 15.326-153.921 7.551-89.256 16.908-199.753 29.44-243.467 15.509-13.295 84.113-33.01 126.391-33.01 42.27 0 110.858 19.714 126.375 33.01 12.533 43.714 21.888 154.21 29.447 243.467 5.072 60.002 9.867 116.674 15.31 153.921 6.129 41.859 38.643 100.177 79.788 174.011 50.485 90.541 109.639 235.21 121.385 321.731-63.549 8.071-681.076 8.071-744.625 0z"/>
        <linearGradient class="color1" id="803a108d-d170-47ba-a9b7-abf9389e7197" gradientUnits="userSpaceOnUse" x1="5399.2246" y1="913.2891" x2="5399.2246" y2="-491.7601">
<stop data-target="-0.09" offset="0" stop-color="#FDE25B" />
<stop data-target="0.0" offset="1" stop-color="#FFFFAB" />
        </linearGradient>

        <path fill="url(#803a108d-d170-47ba-a9b7-abf9389e7197)" d="M5250.343 145.057c42.261 0 110.864 19.714 126.382 33.009 12.551 43.714 21.89 154.209 29.432 243.466 5.071 60.002 9.887 116.675 15.325 153.921 6.116 41.86 41.516 95.491 86.226 167.344 67.754 108.867 135.055 316.748 140.352 316.074-11.746-86.521-70.899-231.19-121.385-321.731-41.146-73.834-73.659-132.152-79.788-174.011-5.442-37.247-10.237-93.919-15.31-153.921-7.56-89.256-16.914-199.753-29.447-243.467-15.517-13.295-84.105-33.01-126.375-33.01-41.499 0-108.242 18.984-125.364 32.256 28.154-10.318 70.439-19.93 99.952-19.93z"/>
      </g>
    </g>
</svg>
