<svg version="1.1" id="Helmet_eyes" xmlns="http://www.w3.org/2000/svg" viewBox="0 0 9922 13000" xml:space="preserve">
    <g>
      <g>
<linearGradient class="color2" id="68bb081c-93a1-460c-832b-7a0e16c4b8da" >
<stop data-target="0.0" stop-color="#333333"></stop>
</linearGradient>
        <path fill="url(#68bb081c-93a1-460c-832b-7a0e16c4b8da)" d="M4327.998 1178.097c0 31.004 25.139 56.143 56.143 56.143s56.143-25.138 56.143-56.143c0-31.003-25.139-56.142-56.143-56.142s-56.143 25.139-56.143 56.142zM6240.135 1178.097c0 31.004-25.147 56.143-56.151 56.143-31.003 0-56.134-25.138-56.134-56.143 0-31.003 25.131-56.142 56.134-56.142s56.151 25.139 56.151 56.142z"/>
<linearGradient class="color3" id="a7a595ce-a0a0-4a6a-b8ab-2b7811cbde8d" >
<stop data-target="0.0" stop-color="#FFFFFF"></stop>
</linearGradient>
        <path opacity="0.4" fill="url(#a7a595ce-a0a0-4a6a-b8ab-2b7811cbde8d)" d="M6136.965 1178.137c-8.219 134.094-60.355 927.199-65.813 987.12-35.576 156.914-429.609 470.74-788.072 470.74-358.455 0-740.116-310.97-775.693-467.884-5.457-59.922-53.414-855.874-61.623-989.968l1691.201-.008z"/>
<linearGradient class="color3" id="6a0a966a-f833-4757-b54a-e7f39770a567" >
<stop data-target="0.0" stop-color="#FFFFFF"></stop>
</linearGradient>
        <path opacity="0.59" fill="url(#6a0a966a-f833-4757-b54a-e7f39770a567)" d="M4445.764 1178.146c8.209 134.094 56.166 930.046 61.623 989.968 15.277 67.368 94.48 163.14 208.146 250.504V1178.146h-269.769zM5828.852 1178.137v1260.235c131.782-93.429 225.771-200.21 242.301-273.115 5.457-59.921 57.594-853.026 65.813-987.12h-308.114z"/>
<linearGradient class="color1" id="ecfb47e2-bbb6-4daa-9893-564c7e22a4bc" >
<stop data-target="0.0" stop-color="#808080"></stop>
</linearGradient>
        <path fill="url(#ecfb47e2-bbb6-4daa-9893-564c7e22a4bc)" d="M5283.08 2653.104c-373.565 0-754.823-318.512-791.677-481.059l-.369-2.327c-4.59-50.39-38.515-609.344-54.818-877.964l-6.844-112.518 32.785-2.174 6.844 112.533c16.168 266.43 49.69 818.725 54.634 875.694 35.554 150.125 407.649 453.586 759.445 453.586 351.257 0 736.864-309.222 771.817-456.442 5.872-67.175 57.548-852.593 65.666-985.379l32.801 2.174c-9.035 147.365-60.468 928.434-65.859 987.634l-.367 2.327c-36.123 159.336-431.12 483.915-804.058 483.915z"/>
<linearGradient class="color2" id="539fac4d-b3c8-4433-ae69-1a0b45581fdf" >
<stop data-target="0.0" stop-color="#333333"></stop>
</linearGradient>
        <path fill="url(#539fac4d-b3c8-4433-ae69-1a0b45581fdf)" d="M6210.045 1272.416a15705.27 15705.27 0 0 1-1850.111 0c2.615-69.525 5.239-139.036 7.862-208.562a15573.919 15573.919 0 0 0 1834.385 0c2.633 69.526 5.248 139.037 7.864 208.562z"/>
        <linearGradient class="color2" id="b16bccd1-2059-4784-ae4d-2daccca64c4f" gradientUnits="userSpaceOnUse" x1="4385.7129" y1="1182.4619" x2="6184.2734" y2="1182.4619">
<stop data-target="0.0" offset="0" stop-color="#333333" />
<stop data-target="-0.2" offset="1" stop-color="#666666" />
        </linearGradient>

        <path fill="url(#b16bccd1-2059-4784-ae4d-2daccca64c4f)" d="M5284.989 1268.854c-298.477 0-600.895-8.673-899.276-25.796l5.545-146.988c296.551 17.018 597.083 25.644 893.731 25.644s597.173-8.625 893.73-25.644l5.554 146.988c-298.389 17.123-600.807 25.796-899.284 25.796z"/>
      </g>
    </g>
</svg>
