<svg version="1.1" id="Noise_protection" xmlns="http://www.w3.org/2000/svg" viewBox="0 0 9922 13000" xml:space="preserve">
    <g>
      <g>
        <g>
          <path d="M4286.17 1890.249c-1.428-23.14-34.872-568.116-20.429-685.729l.827-3.772c36.598-114.082 345.657-466.263 424.925-536.961l27.344 30.667c-72.623 64.768-376.428 411.3-412.551 517.046-13.369 118.223 20.541 670.614 20.886 676.214l-41.002 2.535z"/>
        </g>
        <g>
          <path d="M6285.727 1890.249l-41.02-2.535c.354-5.601 34.263-558.064 20.896-676.239-36.943-109.524-315.304-469.199-387.342-533.455l27.345-30.666c79.052 70.505 363.446 440.322 399.716 553.393l.817 3.772c14.442 117.614-19.002 662.59-20.412 685.73z"/>
        </g>
        <path fill="#730E11" d="M6259.824 1783.693c-1.011 12.919-12.323 22.578-25.227 21.567l-92.321-7.222c-12.917-1.009-22.579-12.308-21.569-25.242l9.855-126.102c1.01-12.935 12.324-22.595 25.241-21.584l92.307 7.222c12.935 1.011 22.596 12.309 21.568 25.243l-9.854 126.118z"/>
        <path d="M6248.527 1618.949c.144-1.941 2.422-3.354 5.071-3.161l59.44 4.525c2.664.192 4.686 1.941 4.541 3.883l-15.39 202.649c-.161 1.941-2.424 3.354-5.087 3.177l-59.439-4.525c-2.648-.209-4.671-1.958-4.543-3.916l15.407-202.632z"/>
        <path fill="#730E11" d="M6026.62 1309.728c45.19 14.379 154.059 88.325 217.061 156.8 16.432 112.975-42.462 479.295-79.436 545.025-43.809 24.649-147.895 52.026-205.408 43.81 4.106-30.811 63.676-720.986 67.783-745.635z"/>
        <path fill="#AB181D" d="M5995.023 2023.589c4.798-51.353 13.881-153.688 26.479-295.63 11.876-133.933 25.949-292.619 33.106-368.717 45.431 26.005 111.338 73.834 157.731 121.937 11.04 115.688-42.076 433.189-72.872 506.19-34.148 16.289-97.007 33.395-144.444 36.22z"/>
        <path fill="#C9181E" d="M6212.34 1481.18c-46.394-48.103-112.301-95.932-157.731-121.937-7.157 76.098-21.23 234.784-33.106 368.717-.336 3.82-.658 7.478-.995 11.235 57.53 8.456 114.114 12.323 170.651 13.864 15.983-103.781 26.749-213.498 21.181-271.879z"/>
        <path d="M6031.757 2049.249c-2.344 19.209-20.251 32.721-39.959 30.218-12.902-1.605-25.79-3.242-38.677-4.846-19.736-2.472-33.794-19.802-31.517-38.739 28.278-235.306 46.507-472.506 54.499-710.933.641-19.161 17.186-34.239 37.053-33.652 12.983.41 25.981.827 38.947 1.245 19.869.609 35.499 16.914 34.857 36.371a8400.18 8400.18 0 0 1-55.203 720.336z"/>
        <linearGradient id="SVGID_1_" gradientUnits="userSpaceOnUse" x1="6018.9219" y1="1576.4487" x2="6055.895" y2="890.3864">
          <stop offset="0.0095" style="stop-color:#000000"/>
          <stop offset="0.4394" style="stop-color:#404040"/>
          <stop offset="0.9994" style="stop-color:#999999"/>
        </linearGradient>
        <path fill="url(#SVGID_1_)" d="M6070.544 1328.367c.16-4.871-1.621-9.557-5.04-13.183-3.611-3.843-8.537-6.05-13.912-6.218l-39.543-1.251c-10.622 0-19.192 7.815-19.529 17.788-3.192 95.492-8.167 191.352-14.714 287.172l78.246.609c6.42-95.066 11.315-190.172 14.492-284.917z"/>
        <path fill="#730E11" d="M4312.063 1783.693c1.012 12.919 12.316 22.578 25.235 21.567l92.314-7.222c12.919-1.009 22.588-12.308 21.568-25.242l-9.854-126.102c-1.019-12.935-12.324-22.595-25.234-21.584l-92.322 7.222c-12.917 1.011-22.579 12.309-21.559 25.243l9.852 126.118z"/>
        <path fill="#730E11" d="M4546.318 1309.728c-45.19 14.379-154.057 88.325-217.052 156.8-16.434 112.975 42.454 479.295 79.428 545.025 43.817 24.649 147.894 52.026 205.409 43.81-4.108-30.811-63.676-720.986-67.785-745.635z"/>
        <path fill="#AB181D" d="M4577.924 2023.589c-4.791-51.353-13.889-153.688-26.479-295.63-11.875-133.933-25.94-292.619-33.106-368.717-45.431 26.005-111.338 73.834-157.732 121.937-11.041 115.688 42.077 433.189 72.874 506.19 34.14 16.289 97.005 33.395 144.443 36.22z"/>
        <path fill="#C9181E" d="M4360.607 1481.18c46.394-48.103 112.301-95.932 157.732-121.937 7.166 76.098 21.231 234.784 33.106 368.717.338 3.82.667 7.478.996 11.235-57.523 8.456-114.123 12.323-170.652 13.864-15.983-103.781-26.75-213.498-21.182-271.879z"/>
        <path d="M4541.2 2049.249c2.326 19.209 20.251 32.721 39.958 30.218 12.885-1.605 25.78-3.242 38.667-4.846 19.73-2.472 33.788-19.802 31.517-38.739a8288.899 8288.899 0 0 1-54.49-710.933c-.641-19.161-17.194-34.239-37.061-33.652-12.982.41-25.972.827-38.957 1.245-19.858.609-35.497 16.914-34.855 36.371 8.104 241.572 26.576 481.901 55.221 720.336z"/>
        <linearGradient id="SVGID_2_" gradientUnits="userSpaceOnUse" x1="4168.5293" y1="1576.4487" x2="4205.5024" y2="890.3881" gradientTransform="matrix(-1 0 0 1 8720.5 0)">
          <stop offset="0.0095" style="stop-color:#000000"/>
          <stop offset="0.4394" style="stop-color:#404040"/>
          <stop offset="0.9994" style="stop-color:#999999"/>
        </linearGradient>
        <path fill="url(#SVGID_2_)" d="M4500.349 1328.367c-.159-4.871 1.629-9.557 5.039-13.183 3.603-3.843 8.537-6.05 13.921-6.218l39.542-1.251c10.615 0 19.185 7.815 19.522 17.788 3.202 95.492 8.169 191.352 14.708 287.172l-78.232.609c-6.434-95.066-11.322-190.172-14.5-284.917z"/>
        <g>
          <path d="M4616.831 822.908c-12.012 0-24.047-4.815-33.54-14.564-19.947-20.477-21.102-54.947-2.575-77.004 98.315-117.012 281.322-334.858 697.013-339.792 304.919 3.619 538.281 107.334 714.501 317.084 18.536 22.058 17.381 56.536-2.581 77.013-19.934 20.485-51.131 19.201-69.665-2.849-100.057-119.098-275.489-277.92-642.255-282.277-343.422 4.093-502.605 159.57-624.767 304.977-9.708 11.554-22.908 17.412-36.131 17.412z"/>
          <linearGradient id="SVGID_3_" gradientUnits="userSpaceOnUse" x1="5286.4727" y1="362.79" x2="5286.4727" y2="864.2599">
            <stop offset="0.0095" style="stop-color:#000000"/>
            <stop offset="0.9995" style="stop-color:#333333"/>
          </linearGradient>
          <path fill="url(#SVGID_3_)" d="M4616.831 806.475c-8.017 0-15.743-3.41-21.768-9.596-13.953-14.322-14.764-39.494-1.766-54.972 96.646-115.021 276.508-329.08 684.624-333.927 299.111 3.556 528.768 105.353 701.729 311.22 12.998 15.478 12.18 40.656-1.767 54.978-6.018 6.186-13.752 9.597-21.759 9.597-8.94 0-17.301-4.101-23.558-11.546-102.129-121.568-281.106-283.706-654.646-288.143-350.849 4.181-513.034 162.643-637.54 310.842-6.257 7.447-14.618 11.547-23.549 11.547z"/>
        </g>
        <path d="M4323.36 1618.949c-.144-1.941-2.423-3.354-5.07-3.161l-59.441 4.525c-2.664.192-4.686 1.941-4.541 3.883l15.397 202.649c.145 1.941 2.415 3.354 5.079 3.177l59.44-4.525c2.64-.209 4.678-1.958 4.534-3.916l-15.398-202.632z"/>
      </g>
    </g>
</svg>
