<svg version="1.1" id="Pants_1_" xmlns="http://www.w3.org/2000/svg" viewBox="0 0 9922 13000" xml:space="preserve">
    <g>
      <g id="Pants">
<linearGradient class="color1" id="607374c2-a668-41f9-9a3c-7ab84334a02f" >
<stop data-target="-0.38" stop-color="#00395E"></stop>
</linearGradient>
        <path fill="url(#607374c2-a668-41f9-9a3c-7ab84334a02f)" d="M5145.165 6163.295c32.575 542.952 32.575 2551.852 16.29 2902.059 8.143 293.192-116.337 575.011-143.886 868.718-32.593 347.49 51.588 795.422 76.021 999.031 24.427 309.48 40.711 578.236 51.574 697.678 219.896-24.43 578.239-122.166 838.856-122.166-76.01-271.467-10.855-1237.917 43.433-1715.705 32.572-228.037 73.299-369.211 130.307-532.094 162.889-532.093 380.069-1928.149 225.328-3231.224-262.649 146.593-706.511 209.712-1237.923 133.703z"/>
<linearGradient class="color1" id="48fd1272-b926-4c7c-b748-6e5a03c36b34" >
<stop data-target="-0.22" stop-color="#004878"></stop>
</linearGradient>
        <path fill="url(#48fd1272-b926-4c7c-b748-6e5a03c36b34)" d="M5189.572 11575.802c-4.427-56.026-9.639-130.187-15.806-218.144-8.454-120.324-18.964-270.082-31.47-428.396l-.193-1.982c-4.815-40.107-11.78-88.679-19.854-144.907-32.549-226.789-81.749-569.513-56.027-843.733 11.367-121.224 40.55-243.885 68.777-362.5 39.274-165.08 79.885-335.756 75.351-510.313 15.5-338.061 43.057-2214.876 14.218-2840.769 198.066 20.111 336.856 27.205 470.33 16.286 223.97-18.325 503.586-61.766 639.324-132.342 149.954 1369.174-97.345 2725.828-222.902 3136.588-58.933 168.461-99.479 311.057-132.238 540.41-45.025 396.036-115.594 1320.917-55.274 1675.292-155.771 7.575-335.792 41.868-496.823 72.556-85.478 16.285-167.157 31.845-237.413 41.954z"/>
<linearGradient class="color1" id="3a1e6350-c2ac-4737-ade4-a59dd7b81c87" >
<stop data-target="0.0" stop-color="#005C99"></stop>
</linearGradient>
        <path fill="url(#3a1e6350-c2ac-4737-ade4-a59dd7b81c87)" d="M6376.813 6729.637c-45.301 6.467-88.74 3.757-118.602-7.101 24.435-27.154 65.153-103.163 81.442-165.606-33.937 9.502-105.873 38.008-160.173 54.298 109.948-73.298 130.31-127.596 178-250.037-6.331-83.869-14.042-168.008-23.258-252.191-135.738 70.577-415.354 114.018-639.324 132.342-39.239 3.211-78.989 4.822-120.523 5.042 66.443 856.192 70.299 1902.903 101.723 2804.088 53.643 151.316 136.659 290.049 242.771 405.803-66.43 0-139.489-3.504-207.169-20.797 158.757 165.842 304.501 154.016 337.476 20.797 2.005-5.785 60.1-204.857 62.146-210.688 106.447-348.289 300.352-1376.596 265.491-2515.95z"/>
<linearGradient class="color1" id="2db898d6-0cde-4970-bbd5-82cec54e83bd" >
<stop data-target="-0.38" stop-color="#00395E"></stop>
</linearGradient>
        <path fill="url(#2db898d6-0cde-4970-bbd5-82cec54e83bd)" d="M4330.741 5921.683c-333.914 1465.956-475.09 2350.951-610.815 3355.421-73.298 447.932-162.888 586.379-203.607 822.567-89.588 553.802-48.862 985.445-24.432 1604.41 274.191-40.722 578.24-84.153 819.833-21.708-8.146-206.332-16.29-325.775 65.154-879.58 48.863-366.494 154.739-719.402 260.612-1151.043 325.795-684.127 825.305-2193.524 923.035-2497.578 46.114-13.181 179.172-43.433 179.172-43.433s195.462-527.339 114.019-917.588c-724.835 40.722-1221.633-133.019-1522.971-271.468z"/>
<linearGradient class="color1" id="a411a1ed-af8a-471d-b54a-e5641532642e" >
<stop data-target="-0.22" stop-color="#004878"></stop>
</linearGradient>
        <path fill="url(#a411a1ed-af8a-471d-b54a-e5641532642e)" d="M3538.042 11647.074c-2.992-71.244-6.237-153.074-9.299-219.961-21.858-478.494-39.114-856.417 35.812-1319.641 16.204-93.938 40.828-173.092 69.337-264.739 40.405-129.88 90.696-291.537 134.255-557.742 139.843-1034.787 283.042-1909.258 597.209-3295.111 281.984 115.54 834.782 322.724 1531.791 230.424-11.081 125.855-33.252 536.158-151.152 839.142-54.69 12.497-163.554 37.634-198.899 47.747l-25.108 7.175-7.986 24.854c-5.52 17.175-562.099 1738.65-920.629 2491.507l-2.149 4.521-1.193 4.852c-26.479 107.938-52.969 210.99-78.584 310.668-78.342 304.811-146.008 568.044-183.008 845.566-71.389 485.401-79.563 656.389-73.703 826.305-88.864-32.846-578.139 2.148-716.694 24.433z"/>
<linearGradient class="color1" id="69aa0ea4-34d9-4df2-8503-8c8fa0405468" >
<stop data-target="0.0" stop-color="#005C99"></stop>
</linearGradient>
        <path fill="url(#69aa0ea4-34d9-4df2-8503-8c8fa0405468)" d="M4618.591 6085.201c-17.386 90.112-35.913 182.608-55.149 277.133 87.639 132.16 302.106 202.752 307.531 224.459-21.709 40.721-276.896-2.71-396.345-84.155 27.142 119.445 124.877 203.609 124.877 241.609-27.148 21.722-48.871 27.151-135.744-40.719-7.977 98.661-17.504 218.239-24.651 308.214 165.82-50.312 456.304-221.342 583.889-373.37-176.448 312.193-594.527 507.665-594.527 507.665l-85.513 29.854 4.072 73.3s24.43 20.359 93.66-4.073c-21.721 126.237-240.829 1034.23-270.454 1484.548 30.648 252.407 127.926 487.718 277.236 645.167-62.441-10.856-218.376-111.76-292.508-227.896-.5 92.47.913 184.786 4.748 276.763 15.496 185.961 291.66 180.18 491.549 80.987 357.463-802.626 844.305-2301.661 849.536-2317.94l14.928-80.082c27.219-190.528 42.488-288.729 81.445-527.336 8.145 226.001-12.216 307.445-38.688 498.832 45.653-11.801 146.022-40.07 193.427-50.902 118.09-301.337 134.156-681.098 145.237-806.954-526.834 69.763-971.171-31.567-1278.556-135.104z"/>
<linearGradient class="color1" id="d1cb3ccb-c21a-497c-b3a6-870c837c3e06" >
<stop data-target="-0.22" stop-color="#004878"></stop>
</linearGradient>
        <path fill="url(#d1cb3ccb-c21a-497c-b3a6-870c837c3e06)" d="M6359.888 6394.641c-6.768-94.946-15.216-190.26-25.665-285.642-114.8 59.688-369.636 101.698-570.099 118.09-647.465 52.939-1129.773-126.992-1398.768-237.209-22.448 99.009-43.918 195.138-64.686 289.166 262.179 114.997 846.242 282.156 1300.572 265.667 333.108-12.09 595.938-78.054 758.646-150.072z"/>
<linearGradient class="color1" id="df71ce1c-ee7c-4359-a5a1-f4da662cc331" >
<stop data-target="-0.38" stop-color="#00395E"></stop>
</linearGradient>
        <path fill="url(#df71ce1c-ee7c-4359-a5a1-f4da662cc331)" d="M4919.836 6142.934c-32.575 86.865-55.649 283.69-55.649 365.133 40.722 13.574 135.733 27.144 146.597 32.577 12.215-114.02 25.795-275.554 50.227-362.419-40.72-8.146-105.876-21.725-141.175-35.291z"/>
<linearGradient class="color1" id="0114e11b-e00e-4348-aef5-8b7de7cc5df4" >
<stop data-target="0.0" stop-color="#005C99"></stop>
</linearGradient>
        <path fill="url(#0114e11b-e00e-4348-aef5-8b7de7cc5df4)" d="M4885.566 6523.337c3.302-80.792 31.4-272.387 53.957-353.258 24.395 6.957 62.094 15.566 89.586 21.382-16.452 75.894-46.126 344.368-46.827 351.214-4.567-.879-75.782-14.313-96.716-19.338z"/>
<linearGradient class="color1" id="0e758398-ce82-479b-a6fd-485f6cf507c4" >
<stop data-target="-0.38" stop-color="#00395E"></stop>
</linearGradient>
        <path fill="url(#0e758398-ce82-479b-a6fd-485f6cf507c4)" d="M6183.556 6129.359c16.284 109.944 36.647 280.975 28.501 374.637-40.719 13.571-127.585 23.071-138.449 28.501 4.071-122.163 0-264.688-16.291-374.634 40.717-8.145 90.939-14.938 126.239-28.504z"/>
<linearGradient class="color1" id="555506f3-8cc6-48f2-a523-79a84577edc9" >
<stop data-target="0.0" stop-color="#005C99"></stop>
</linearGradient>
        <path fill="url(#555506f3-8cc6-48f2-a523-79a84577edc9)" d="M6103.474 6537.93c2.044-111.465 1.029-265.915-9.735-353.748.222-.042.444-.08.667-.131 20.892-3.783 51.438-13.137 71.503-18.042 11.395 82.498 22.278 264.238 19.002 352.909-20.833 4.824-79.448 18.678-81.437 19.012z"/>
<linearGradient class="color1" id="723355cf-e076-4f86-9906-90618f0199de" >
<stop data-target="-0.1" stop-color="#4D4D4D"></stop>
</linearGradient>
        <path fill="url(#723355cf-e076-4f86-9906-90618f0199de)" d="M5607.54 6390.402c-3.434 51.618 31.032 95.933 76.982 98.991 45.953 3.051 85.99-36.301 89.426-87.918 3.438-51.621-31.032-95.936-76.991-98.987-45.943-3.055-85.982 36.298-89.417 87.914z"/>
<linearGradient class="color2" id="7b8a34dc-b533-4722-88b7-798e22572735" >
<stop data-target="0.0" stop-color="#B3B3B3"></stop>
</linearGradient>
        <path fill="url(#7b8a34dc-b533-4722-88b7-798e22572735)" d="M5691.71 6473.132c-17.522-1.161-33.584-10.054-45.231-25.028-12.083-15.53-17.974-35.646-16.579-56.618 2.718-40.864 32.663-72.877 68.168-72.877 1.296 0 2.607.047 3.918.133 17.531 1.162 33.596 10.055 45.243 25.03 12.084 15.532 17.969 35.649 16.58 56.622-2.723 40.86-32.661 72.875-68.165 72.875 0 0-2.623-.045-3.934-.137z"/>
<linearGradient class="color1" id="5f142b05-fe0f-4378-8431-c7f2615a99e8" >
<stop data-target="-0.38" stop-color="#00395E"></stop>
</linearGradient>
        <path fill="none" stroke="url(#5f142b05-fe0f-4378-8431-c7f2615a99e8)" stroke-width="8.5879" stroke-miterlimit="10" d="M5897.147 6193.151l25.787 314.916s-40.72 12.216-59.039 18.323c-10.185 256.541-141.507 566.022-141.507 566.022M5086.118 6501.957c-217.179 496.798-665.786 657.646-739.087 665.792l-8.145 89.591M6387.158 7029.293c-57.008-32.574-285.049-205.639-350.202-535.484"/>
      </g>
    </g>
</svg>
