<svg version="1.1" id="Tshirt_Long" xmlns="http://www.w3.org/2000/svg" viewBox="0 0 9922 13000" xml:space="preserve">
    <g>
      <g id="Tshirt_x5F_Long">
        <g>
          <path fill="#999999" d="M6420.897 3265.207c172.153 36.648 395.48 297.304 406.538 568.329 5.536 259.963 52.547 1113.154 58.079 1268.021 121.69 376.122 212.945 572.482 251.668 1479.593-136.897 49.78-442.295 49.823-539.285 30.424-142.471-349.346-346.814-834.212-370.59-1344.08-43.594-935.175 190.017-1898.48 193.59-2002.287z"/>
          <path fill="#E8EBED" d="M6827.043 6590.766c-77.736 0-143.956-4.595-185.31-10.054-143.888-353.082-333.575-828.625-356.403-1318.301-34.119-731.866 105.093-1493.29 164.535-1818.427 8.328-45.54 14.767-80.959 19.457-108.441 141.338 80.213 307.793 279.701 316.669 497.253 3.57 167.839 24.833 590.79 40.354 899.617 8.464 168.373 15.775 313.778 17.722 368.153l.245 6.944s16.549 50.973 23.571 72.497c108.02 331.058 185.416 563.922 222.286 1379.015-62.863 15.418-155.173 31.744-263.126 31.744z"/>
          <path fill="#FFFFFF" d="M7090.169 6559.022c-36.87-815.092-114.267-1047.957-222.286-1379.015a81043.87 81043.87 0 0 1-23.571-72.497l-.245-6.944c-1.946-54.375-9.258-199.78-17.722-368.153-15.521-308.827-36.783-731.778-40.354-899.617-8.876-217.552-175.331-417.041-316.669-497.253-4.69 27.481-11.129 62.901-19.457 108.441-32.274 176.532-15.065 432.761-53.859 791.955 44.508 256.459-16.59 580.761 74.672 951.354 24.889 414.837 224.011 1161.548 296.98 1402.54 18.831.585 38.658.933 59.385.933 107.953 0 200.263-16.326 263.126-31.744z"/>
        </g>
        <g>
          <path fill="#999999" d="M3779.762 3046.727c165.938-33.185 902.963-232.306 948.593-273.788 224.014 348.459 994.238 396.859 1064.756 52.541 128.604 103.707 515.778 374.741 683.789 459.782 43.6 79.757 7.933 186.937 31.115 296.609 93.95 288.298 109.26 739.11-51.162 1306.738-23.691 743.073 40.563 1394.87 51.162 1539.048-71.91 176.998-1500.339 431.433-2318.947-66.372 22.12-204.648 125.837-728.728 53.929-1198.882-276.556-464.622-658.207-1182.287-463.235-2115.676z"/>
          <path fill="#E8EBED" d="M5451.267 6601.019c-338.036 0-816.612-46.913-1197.9-267.418 3.898-30.912 9.06-67.382 14.787-107.883 36.072-254.954 86.042-678.392 26.093-1070.317l-1.47-9.59-4.957-8.338c-231.768-389.374-650.557-1113.702-467.089-2053.142 166.027-37.594 715.813-177.973 891.049-248.845 145.764 186.77 428.2 270.86 654.653 270.86 224.836 0 392.977-77.116 459.685-205.75 152.36 119.203 445.088 336.568 612.902 412.958 193.447 380.323 161.301 884.365-30.062 1561.518l-1.664 5.868-.193 6.085c-20.823 653.037 53.978 1516.119 55.28 1532.338-54.553 61.917-459.087 181.656-1011.114 181.656z"/>
          <path fill="#FFFFFF" d="M6407.1 4887.023l.193-6.085 1.664-5.868c191.362-677.152 223.509-1181.195 30.062-1561.518-167.814-76.391-460.542-293.756-612.902-412.958-66.708 128.634-234.849 205.75-459.685 205.75-226.453 0-508.889-84.09-654.653-270.86-149.883 60.621-573.609 172.037-797.006 226.551-5.616 346.122 28.851 692.009 141.549 1030.083 116.152 365.059 414.834 647.152 497.803 1045.397 102.594 454.324-14.794 882.764-32.197 1319.62 320.349 115.588 667.119 143.882 929.339 143.882 552.027 0 956.562-119.738 1011.113-181.657-1.303-16.217-76.104-879.3-55.28-1532.337z"/>
          <g>
            <path fill="#999999" d="M5347.245 3263.903c-4.435 0-8.872-.025-13.362-.071-378.397-4.254-754.392-297.914-767.232-410.669l24.729-2.818c11.813 103.686 383.498 384.561 742.778 388.595 361.008 3.925 552.426-169.331 572.502-293.756l24.563 3.971c-19.773 122.625-195.84 314.748-583.978 314.748z"/>
          </g>
          <path fill="#E8EBED" d="M4106.099 4382.506c315.278 306.98 1252.815 439.728 1592.98 398.247-456.323 165.937-1111.764 149.343-1277.702 141.043-149.34-207.42-257.201-456.321-315.278-539.29z"/>
        </g>
        <g>
          <path fill="#999999" d="M2587.792 4556.74c244.755 66.375 962.426 298.683 1045.393 315.276 53.93-120.302 385.8-613.962 406.541-1266.641 71.909-298.688 94.027-456.315 99.562-536.519-304.218-176.994-644.385 55.313-802.024 353.995-154.867 293.152-703.837 1005.291-749.472 1133.889z"/>
          <path fill="#FFFFFF" d="M3606.618 4813.824c-77.088-21.597-247.079-74.393-412.463-125.763-188.931-58.679-399.559-124.102-534.167-162.776 46.772-77.48 146.666-217.368 243.957-353.599 180.115-252.21 404.203-566.003 495.808-758.313 110.18-208.043 322.081-366.646 527.967-366.646 57.06 0 182.782-7.46 236.457 12.447-8.878 85.464-33.446 186.472-95.41 443.875l-12.443 107.862c-82.972 418.986-321.423 967.283-423.033 1153.581-10.29 18.868-19.187 35.177-26.673 49.332z"/>
        </g>
      </g>
      <g>
        <path fill="#999999" d="M2791.862 4388.508c-187.313 36.873-437.045 315.277-447.968 481.213 27.322 182.528 103.799 359.522 322.324 481.213 251.29 105.094 830.375-22.122 879.537-33.187-92.87-77.445-207.587-398.248-81.941-741.175-81.948-16.6-191.456-39.1-262.227-77.437-125.494-67.959-213.057-149.338-409.725-110.627z"/>
        <path fill="#FFFFFF" d="M2945.196 5342.473c-111.539 0-198.226-12.291-257.741-36.533-170.974-96.001-261.881-231.335-294.073-437.961 14.174-138.152 240.195-397.596 407.866-430.605 31.091-6.116 59.414-9.097 86.569-9.097 93.675 0 157.003 37.223 230.327 80.324 19.24 11.303 39.124 22.988 60.252 34.437 62.114 33.643 146.985 55.152 221.069 71.044-83.749 279.347-22.646 538.322 57.617 671.236-112.609 21.839-323.806 57.157-511.871 57.157-.015-.002 0-.002-.015-.002z"/>
      </g>
    </g>
</svg>
