<svg version="1.1" id="Tshirt_1_" xmlns="http://www.w3.org/2000/svg" viewBox="0 0 9922 13000" xml:space="preserve">
    <g>
      <g id="Tshirt">
        <g>
          <path fill="#999999" d="M6447.196 3271.886c167.185 58.034 371.686 330.242 382.734 601.057 5.532 259.768 19.342 670.149 24.874 824.896-138.179 93.955-402.085 121.598-595.525 82.905-66.323-276.346 182.393-1348.579 187.917-1508.858z"/>
          <path fill="#FFFFFF" d="M6401.526 4743.485c-36.038 0-69.354-2.038-99.521-6.063-26.729-208.052 70.037-737.377 135.235-1094.009 21.583-118.078 39.319-215.098 49.724-283.535 127.84 100.731 280.324 290.14 289.085 504.776 3.243 153.059 16.441 745.158 20.725 808.317-103.105 57.957-232.685 70.514-395.248 70.514z"/>
        </g>
        <g>
          <path fill="#999999" d="M3788.73 3056.336c165.811-33.16 902.272-232.13 947.869-273.581 223.84 348.194 993.478 396.556 1063.942 52.501 128.506 103.628 502.947 374.454 681.193 449.067 43.565 79.697 10.001 197.156 33.165 306.745 93.877 288.078 109.177 738.547-51.122 1305.741-23.675 742.504 40.529 1393.804 51.122 1537.873-71.854 176.861-1499.193 431.103-2317.174-66.321 22.101-204.492 125.739-728.171 53.886-1197.966-276.346-464.267-657.704-1181.384-462.881-2114.059z"/>
          <path fill="#E8EBED" d="M5458.959 6607.91c-337.777 0-815.99-46.875-1196.987-267.211 3.896-30.889 9.055-67.331 14.776-107.802 36.045-254.759 85.976-677.874 26.073-1069.498l-1.469-9.584-4.954-8.332c-231.59-389.076-650.06-1112.851-466.733-2051.573 165.901-37.566 715.266-177.837 890.369-248.655 145.653 186.627 427.874 270.653 654.153 270.653 224.664 0 392.675-77.058 459.334-205.594 152.244 119.113 444.748 336.312 612.435 412.645 193.298 380.032 161.177 883.689-30.04 1560.324l-1.663 5.864-.192 6.081c-20.808 652.538 53.938 1514.961 55.237 1531.168-54.509 61.87-458.735 181.514-1010.339 181.514z"/>
          <path fill="#FFFFFF" d="M6414.061 4895.227l.192-6.081 1.663-5.864c191.217-676.634 223.338-1180.292 30.04-1560.324-167.687-76.333-460.19-293.532-612.435-412.645-66.659 128.536-234.67 205.594-459.334 205.594-226.279 0-508.5-84.026-654.153-270.653-149.767 60.574-573.17 171.906-796.397 226.378-5.61 345.858 28.83 691.481 141.441 1029.297 116.063 364.779 414.518 646.656 497.421 1044.598 102.517 453.978-14.782 882.09-32.171 1318.612 320.103 115.5 666.609 143.771 928.63 143.771 551.604 0 955.83-119.644 1010.339-181.516-1.299-16.206-76.044-878.629-55.236-1531.167z"/>
          <g>
            <path fill="#999999" d="M5355.016 3273.346c-4.43 0-8.866-.024-13.353-.071-378.108-4.25-753.814-297.686-766.645-410.355l24.708-2.815c11.805 103.606 383.207 384.267 742.212 388.298 360.731 3.922 552.006-169.203 572.066-293.532l24.544 3.967c-19.758 122.531-195.692 314.508-583.532 314.508z"/>
          </g>
          <path fill="#E8EBED" d="M4114.819 4391.096c315.037 306.744 1251.857 439.391 1591.761 397.941-455.974 165.81-1110.914 149.229-1276.725 140.935-149.227-207.261-257.006-455.972-315.036-538.876z"/>
        </g>
        <g>
          <path fill="#999999" d="M2909.947 4111.979c178.243 145.082 812.46 386.891 895.364 403.47 61.404-113.341 198.971-480.842 243.184-900.893 71.854-298.458 93.955-455.966 99.484-536.108-292.923-132.647-625.926 23.486-783.446 321.942-157.516 331.615-396.554 628.688-454.586 711.589z"/>
          <path fill="#FFFFFF" d="M3783.199 4454.656c-149.786-48.792-605.724-217.701-801.406-348.195 9.415-11.896 301.7-419.917 427.218-683.75 113.563-214.274 364.581-363.841 610.817-363.841 42.991 0 84.369 4.686 123.359 13.965 45.626 196.527-238.421 1114.705-359.988 1381.821z"/>
        </g>
      </g>
    </g>
</svg>
