<?xml version="1.0" encoding="utf-8"?>
<!--Generator: Adobe Illustrator 15.1.0, SVG Export Plug-In . SVG Version: 6.00 Build 0)-->
<!DOCTYPE svg PUBLIC "-//W3C//DTD SVG 1.1//EN" "http://www.w3.org/Graphics/SVG/1.1/DTD/svg11.dtd">
<svg version="1.1" id="Livello_1" xmlns="http://www.w3.org/2000/svg" xmlns:xlink="http://www.w3.org/1999/xlink" x="0px" y="0px" enable-background="new 20.267 102.757 588 588" xml:space="preserve">
<g>
<path fill="#FFFFFF" stroke="#F1F2F2" stroke-width="3" stroke-miterlimit="10" d="M 314.267,104.257 h -0.006 H 314.267 z "/>
<path fill="#FFFFFF" stroke="#F1F2F2" stroke-width="3" stroke-miterlimit="10" d="M 593.641,309.856 c 7.779,25.038 12.282,51.518 13.015,78.938 C 606.627,360.895 602.006,334.259 593.641,309.856 z "/>
<path fill="#FFFFFF" stroke="#F1F2F2" stroke-width="3" stroke-miterlimit="10" d="M 320.269,689.182 c -1.997,0.04 -3.995,0.076 -6.002,0.076 C 316.274,689.258 318.274,689.229 320.269,689.182 z "/>
<path fill="#FFFFFF" stroke="#F1F2F2" stroke-width="3" stroke-miterlimit="10" d="M 314.267,689.258 c -2.007,0 -4.005,-0.036 -6.002,-0.076 C 310.259,689.229 312.259,689.258 314.267,689.258 z "/>
<path fill="#FFFFFF" stroke="#F1F2F2" stroke-width="3" stroke-miterlimit="10" d="M 308.266,104.333 c 1.995,-0.04 3.991,-0.076 5.995,-0.076 C 312.256,104.257 310.258,104.286 308.266,104.333 z "/>
<path fill="#FFFFFF" stroke="#F1F2F2" stroke-width="3" stroke-miterlimit="10" d="M 314.268,104.257 C 314.268,104.257 314.268,104.257 314.268,104.257 c 2.007,0 4.005,0.036 6.003,0.076 C 318.275,104.286 316.275,104.257 314.268,104.257 z "/>
<linearGradient id="SVGID_1_" gradientUnits="userSpaceOnUse" x1="241.3174" y1="737.666" x2="389.318" y2="5.6631" gradientTransform="matrix(1 0 0 -1 -6 797)">
<stop offset="0.1" style="stop-color:#E62725"/>
<stop offset="0.3093" style="stop-color:#ED1C24"/>
<stop offset="1" style="stop-color:#1C1B1C"/>
</linearGradient>
<path fill="url(#SVGID_1_)" stroke="#F1F2F2" stroke-width="3" stroke-miterlimit="10" d="M 497.885,194.197 c -35.951,-52.42 -101.821,-88.07 -177.614,-89.864 c -1.998,-0.041 -3.996,-0.076 -6.004,-0.076 c -0.002,0 -0.004,0 -0.006,0 c -2.004,0 -4,0.036 -5.995,0.076 c -127.188,2.562 -234.438,86.301 -272.078,201.532 c 18.136,-49.932 52.107,-90.06 94.523,-111.756 c 22.219,-11.365 46.75,-17.683 72.544,-17.683 c 41.792,0 80.278,16.559 110.958,44.369 c 31.15,28.237 54.245,68.078 64.56,113.999 c 3.892,17.322 5.973,35.505 5.973,54.259 c 0,24.827 -3.645,48.653 -10.319,70.803 c 43.404,-10.909 81.033,-33.316 108.05,-63.098 c 27.84,-30.689 44.418,-69.196 44.418,-111.013 C 526.894,252.353 516.317,221.074 497.885,194.197 z "/>
<path fill="#FFF200" stroke="#F1F2F2" stroke-width="3" stroke-miterlimit="10" d="M 606.655,388.794 c -0.732,-27.42 -5.235,-53.9 -13.015,-78.938 c -36.443,-117.287 -144.715,-202.931 -273.37,-205.523 c 75.793,1.793 141.663,37.444 177.614,89.864 c 18.433,26.877 29.009,58.156 29.009,91.548 c 0,41.817 -16.578,80.324 -44.418,111.013 c -27.017,29.781 -64.646,52.188 -108.05,63.098 c -19.077,4.795 -39.263,7.38 -60.159,7.38 c -20.939,0 -41.165,-2.596 -60.276,-7.41 c 11.732,38.949 32.869,72.69 60.221,97.485 c 30.68,27.81 69.165,44.369 110.956,44.369 c 31.125,0 60.417,-9.186 86.018,-25.359 c 56.843,-35.912 95.473,-106.302 95.473,-187.267 C 606.658,388.967 606.655,388.881 606.655,388.794 z "/>
<g>
<linearGradient id="SVGID_2_" gradientUnits="userSpaceOnUse" x1="309.9668" y1="107.8887" x2="314.2646" y2="107.8887" gradientTransform="matrix(1 0 0 -1 -6 797)">
<stop offset="0" style="stop-color:#0090C7"/>
<stop offset="0.8326" style="stop-color:#2E3192"/>
</linearGradient>
<path fill="url(#SVGID_2_)" stroke="#F1F2F2" stroke-width="3" stroke-miterlimit="10" d="M 303.966,689.041 c 1.429,0.059 2.862,0.106 4.298,0.141 C 306.828,689.152 305.398,689.091 303.966,689.041 z "/>
<linearGradient id="SVGID_3_" gradientUnits="userSpaceOnUse" x1="27.7671" y1="364.2666" x2="384.7725" y2="364.2666" gradientTransform="matrix(1 0 0 -1 -6 797)">
<stop offset="0" style="stop-color:#0090C7"/>
<stop offset="0.8326" style="stop-color:#2E3192"/>
</linearGradient>
<path fill="url(#SVGID_3_)" stroke="#F1F2F2" stroke-width="3" stroke-miterlimit="10" d="M 249.646,334.825 c 20.38,-5.543 42.089,-8.545 64.622,-8.545 c 22.49,0 44.159,2.99 64.505,8.513 c -10.314,-45.92 -33.409,-85.761 -64.56,-113.999 c -30.68,-27.81 -69.166,-44.369 -110.958,-44.369 c -25.794,0 -50.325,6.318 -72.544,17.683 c -42.417,21.696 -76.387,61.824 -94.523,111.756 c -8.998,27.543 -14.013,56.882 -14.375,87.344 c -0.014,1.183 -0.045,2.361 -0.045,3.547 c 0,158.094 125.431,286.855 282.199,292.285 c -84.513,-3.441 -156.088,-48.998 -186.572,-112.624 c -10.147,-21.179 -15.754,-44.354 -15.754,-68.649 c 0,-41.816 16.579,-80.322 44.418,-111.01 C 172.146,368.001 208.125,346.119 249.646,334.825 z "/>
</g>
<linearGradient id="SVGID_4_" gradientUnits="userSpaceOnUse" x1="282.7324" y1="647.4258" x2="404.7324" y2="161.4258" gradientTransform="matrix(1 0 0 -1 -6 797)">
<stop offset="0.6047" style="stop-color:#006838"/>
<stop offset="1" style="stop-color:#538B2E"/>
</linearGradient>
<path fill="url(#SVGID_4_)" stroke="#F1F2F2" stroke-width="3" stroke-miterlimit="10" d="M 606.767,396.756 c 0,-2.662 -0.04,-5.315 -0.111,-7.961 c 0,0.086 0.003,0.172 0.003,0.259 c 0,80.965 -38.63,151.355 -95.473,187.267 c -25.601,16.174 -54.893,25.359 -86.018,25.359 c -41.791,0 -80.276,-16.56 -110.956,-44.369 c -27.353,-24.795 -48.489,-58.536 -60.221,-97.485 c -6.669,-22.141 -10.311,-45.956 -10.311,-70.772 c 0,-18.743 2.079,-36.915 5.965,-54.228 c -41.521,11.294 -77.5,33.176 -103.587,61.933 c -27.84,30.688 -44.418,69.193 -44.418,111.01 c 0,24.296 5.607,47.471 15.754,68.649 c 31,64.702 104.491,110.721 190.87,112.765 c 1.997,0.04 3.995,0.076 6.002,0.076 s 4.005,-0.036 6.002,-0.076 c 1.438,-0.034 2.87,-0.082 4.301,-0.141 C 481.337,683.61 606.767,554.849 606.767,396.756 z "/>
<linearGradient id="SVGID_5_" gradientUnits="userSpaceOnUse" x1="249.6802" y1="400.2422" x2="390.7451" y2="400.2422" gradientTransform="matrix(1 0 0 -1 -6 797)">
<stop offset="0" style="stop-color:#FFFFFF"/>
<stop offset="1" style="stop-color:#000000"/>
</linearGradient>
<path fill="url(#SVGID_5_)" fill-opacity="0" d="M 378.772,334.793 c -20.346,-5.523 -42.015,-8.513 -64.505,-8.513 c -22.533,0 -44.242,3.002 -64.622,8.545 c -3.887,17.313 -5.965,35.485 -5.965,54.228 c 0,24.816 3.641,48.631 10.311,70.772 c 19.111,4.814 39.337,7.41 60.276,7.41 c 20.896,0 41.082,-2.585 60.159,-7.38 c 6.675,-22.15 10.319,-45.977 10.319,-70.803 C 384.745,370.298 382.664,352.115 378.772,334.793 z "/>
</g>
</svg>
