<?xml version="1.0" encoding="utf-8"?>
<!--Generator: Adobe Illustrator 15.1.0, SVG Export Plug-In . SVG Version: 6.00 Build 0)-->
<!DOCTYPE svg PUBLIC "-//W3C//DTD SVG 1.1//EN" "http://www.w3.org/Graphics/SVG/1.1/DTD/svg11.dtd">
<svg version="1.1" id="Livello_1" xmlns="http://www.w3.org/2000/svg" xmlns:xlink="http://www.w3.org/1999/xlink" x="0px" y="0px" enable-background="new 20.267 102.757 588 588" xml:space="preserve">
<g>
<path fill="#FFFFFF" stroke="#F1F2F2" stroke-width="3" stroke-miterlimit="10" d="M 314.267,104.257 H314.261 H 314.267 "/>
<path fill="#FFFFFF" stroke="#F1F2F2" stroke-width="3" stroke-miterlimit="10" d="M 593.641,309.856 C601.42,334.89398 605.923,361.374 606.656,388.794 C 606.627,360.895 602.006,334.259 593.641,309.856 "/>
<path fill="#FFFFFF" stroke="#F1F2F2" stroke-width="3" stroke-miterlimit="10" d="M 320.269,689.182 C318.272,689.222 316.27402,689.258 314.267,689.258 C 316.274,689.258 318.274,689.229 320.269,689.182 "/>
<path fill="#FFFFFF" stroke="#F1F2F2" stroke-width="3" stroke-miterlimit="10" d="M 314.267,689.258 C312.26,689.258 310.262,689.222 308.26498,689.182 C 310.259,689.229 312.259,689.258 314.267,689.258 "/>
<path fill="#FFFFFF" stroke="#F1F2F2" stroke-width="3" stroke-miterlimit="10" d="M 308.266,104.333 C310.261,104.293 312.257,104.257 314.261,104.257 C 312.256,104.257 310.258,104.286 308.266,104.333 "/>
<path fill="#FFFFFF" stroke="#F1F2F2" stroke-width="3" stroke-miterlimit="10" d="M 314.268,104.257 C 314.268,104.257 314.268,104.257 314.268,104.257 C316.275,104.257 318.273,104.29301 320.271,104.333 C 318.275,104.286 316.275,104.257 314.268,104.257 "/>
<linearGradient id="SVGID_1_" gradientUnits="userSpaceOnUse" x1="219.54941" y1="633.409" x2="367.55" y2="-98.5939" gradientTransform="matrix(1 0 0 -1 -6 797)">
<stop offset="0.1" style="stop-color:#E62725"/>
<stop offset="0.3093" style="stop-color:#ED1C24"/>
<stop offset="1" style="stop-color:#1C1B1C"/>
</linearGradient>
<path fill="url(#SVGID_1_)" stroke="#F1F2F2" stroke-width="3" stroke-miterlimit="10" d="M 497.885,194.197 C461.93402,141.77701 396.06403,106.12701 320.271,104.33301 C318.273,104.29201 316.275,104.25701 314.267,104.25701 C314.26498,104.25701 314.263,104.25701 314.261,104.25701 C312.257,104.25701 310.261,104.293015 308.266,104.33301 C181.07799,106.895004 73.82799,190.634 36.18799,305.865 C54.32399,255.93298 88.29498,215.805 130.711,194.109 C152.93,182.74399 177.461,176.426 203.255,176.426 C245.047,176.426 283.53302,192.985 314.213,220.795 C345.363,249.032 368.458,288.873 378.773,334.794 C382.665,352.116 384.746,370.299 384.746,389.053 C384.746,413.88 381.101,437.706 374.427,459.85602 C417.831,448.94702 455.46,426.54 482.477,396.75803 C510.317,366.06903 526.895,327.562 526.895,285.74503 C 526.894,252.353 516.317,221.074 497.885,194.197 "/>
<path fill="#FFF200" stroke="#F1F2F2" stroke-width="3" stroke-miterlimit="10" d="M 606.655,388.794 C605.92303,361.374 601.42004,334.894 593.64,309.85602 C557.197,192.56902 448.92502,106.92502 320.27002,104.33302 C396.06302,106.12602 461.933,141.77702 497.88403,194.19702 C516.317,221.07402 526.893,252.35303 526.893,285.74503 C526.893,327.562 510.315,366.06903 482.475,396.75803 C455.458,426.53903 417.829,448.946 374.425,459.85602 C355.348,464.65103 335.162,467.23602 314.266,467.23602 C293.327,467.23602 273.10098,464.64 253.98999,459.82602 C265.722,498.77502 286.85898,532.516 314.211,557.31104 C344.891,585.12103 383.376,601.68005 425.167,601.68005 C456.292,601.68005 485.58398,592.4941 511.185,576.32104 C568.028,540.40906 606.658,470.01904 606.658,389.05405 C 606.658,388.967 606.655,388.881 606.655,388.794 "/>
<g>
<linearGradient id="SVGID_2_" gradientUnits="userSpaceOnUse" x1="288.1988" y1="3.6316986" x2="292.49658" y2="3.6316986" gradientTransform="matrix(1 0 0 -1 -6 797)">
<stop offset="0" style="stop-color:#0090C7"/>
<stop offset="0.8326" style="stop-color:#2E3192"/>
</linearGradient>
<path fill="url(#SVGID_2_)" stroke="#F1F2F2" stroke-width="3" stroke-miterlimit="10" d="M 303.966,689.041 C305.395,689.10004 306.828,689.14703 308.264,689.182 C 306.828,689.152 305.398,689.091 303.966,689.041 "/>
<linearGradient id="SVGID_3_" gradientUnits="userSpaceOnUse" x1="5.9991035" y1="260.00958" x2="363.0045" y2="260.00958" gradientTransform="matrix(1 0 0 -1 -6 797)">
<stop offset="0" style="stop-color:#0090C7"/>
<stop offset="0.8326" style="stop-color:#2E3192"/>
</linearGradient>
<path fill="url(#SVGID_3_)" stroke="#F1F2F2" stroke-width="3" stroke-miterlimit="10" d="M 249.646,334.825 C270.026,329.282 291.735,326.28 314.268,326.28 C336.758,326.28 358.427,329.27 378.773,334.793 C368.459,288.873 345.364,249.032 314.213,220.794 C283.53302,192.98401 245.04701,176.425 203.255,176.425 C177.461,176.425 152.93001,182.743 130.711,194.108 C88.294,215.804 54.323997,255.932 36.187996,305.864 C27.189995,333.407 22.174995,362.746 21.812996,393.208 C21.798996,394.39102 21.767996,395.569 21.767996,396.755 C21.767996,554.849 147.19899,683.61 303.967,689.04004 C219.45401,685.59906 147.87901,640.04205 117.395004,576.416 C107.248,555.237 101.64101,532.062 101.64101,507.76703 C101.64101,465.95102 118.22001,427.44504 146.059,396.75702 C 172.146,368.001 208.125,346.119 249.646,334.825 "/>
</g>
<linearGradient id="SVGID_4_" gradientUnits="userSpaceOnUse" x1="260.9644" y1="543.16876" x2="382.9644" y2="57.168793" gradientTransform="matrix(1 0 0 -1 -6 797)">
<stop offset="0.6047" style="stop-color:#006838"/>
<stop offset="1" style="stop-color:#538B2E"/>
</linearGradient>
<path fill="url(#SVGID_4_)" stroke="#F1F2F2" stroke-width="3" stroke-miterlimit="10" d="M 606.767,396.756 C606.767,394.09402 606.72705,391.441 606.656,388.795 C606.656,388.881 606.659,388.967 606.659,389.05402 C606.659,470.019 568.029,540.409 511.186,576.32104 C485.585,592.49506 456.293,601.68005 425.168,601.68005 C383.377,601.68005 344.892,585.12006 314.212,557.31104 C286.859,532.51605 265.72302,498.77502 253.991,459.82605 C247.32199,437.68506 243.68,413.87006 243.68,389.05405 C243.68,370.31104 245.75899,352.13904 249.64499,334.82605 C208.124,346.12006 172.14499,368.00204 146.05798,396.75903 C118.21799,427.44702 101.639984,465.95203 101.639984,507.76904 C101.639984,532.06506 107.24699,555.24005 117.39398,576.418 C148.39398,641.12006 221.88498,687.13904 308.26398,689.18304 C310.261,689.223 312.25897,689.25903 314.266,689.25903 S318.271,689.223 320.268,689.18304 C321.706,689.14905 323.138,689.1011 324.569,689.04205 C 481.337,683.61 606.767,554.849 606.767,396.756 "/>
<linearGradient id="SVGID_5_" gradientUnits="userSpaceOnUse" x1="227.91222" y1="295.98517" x2="368.97708" y2="295.98517" gradientTransform="matrix(1 0 0 -1 -6 797)">
<stop offset="0" style="stop-color:#FFFFFF"/>
<stop offset="1" style="stop-color:#000000"/>
</linearGradient>
<path fill="url(#SVGID_5_)" fill-opacity="0" d="M 378.772,334.793 C358.426,329.27 336.75702,326.28 314.267,326.28 C291.734,326.28 270.025,329.282 249.64499,334.825 C245.758,352.138 243.68,370.31 243.68,389.053 C243.68,413.86902 247.321,437.68402 253.991,459.825 C273.102,464.639 293.328,467.23502 314.267,467.23502 C335.163,467.23502 355.349,464.65002 374.426,459.855 C381.10098,437.70502 384.745,413.87802 384.745,389.052 C 384.745,370.298 382.664,352.115 378.772,334.793 "/>
</g>
</svg>
