<?xml version="1.0" encoding="utf-8"?>
<!--Generator: Adobe Illustrator 15.0.0, SVG Export Plug-In . SVG Version: 6.00 Build 0)-->
<!DOCTYPE svg PUBLIC "-//W3C//DTD SVG 1.1//EN" "http://www.w3.org/Graphics/SVG/1.1/DTD/svg11.dtd">
<svg version="1.1" id="Skin_x5F_01" xmlns="http://www.w3.org/2000/svg" xmlns:xlink="http://www.w3.org/1999/xlink" x="0px" y="0px"    enable-background="new 0 0 795.962 1532.941" xml:space="preserve">
<g id="Fluo_pants">
<g>
<path fill="#93AB20" d="M452.948,66.556 C461.536,209.689 456.527,742.13904 452.233,834.459 C454.38,911.75 422.281,981.74896 415.018,1059.176 C406.426,1150.781 426.112,1264.571 432.552,1318.244 C435.245,1352.343 428.614,1394.895 431.479,1423.446 C432.625,1434.862 445.944,1441.2991 446.99,1451.312 C449.58698,1476.172 449.61298,1496.258 450.802,1509.324 C508.771,1502.884 609.678,1479.983 678.381,1479.983 C674.553,1466.311 672.831,1447.124 670.867,1422.3711 C670.105,1412.7881 684.018,1397.4171 683.749,1388.019 C680.664,1280.605 677.754,1122.8151 688.4,1029.119 C696.98804,969.004 710.586,926.064 725.614,883.12305 C768.55304,742.85504 822.229,371.42606 781.435,27.910034 C712.196,66.556 593.039,86.594 452.948,66.556 "/>
<path fill="#B7D130" d="M462.593,1490.462 C462.073,1479.362 461.43,1465.5481 459.80298,1449.972 C458.886,1441.2051 453.68,1435.019 449.498,1430.051 C447.03598,1427.124 444.491,1424.1011 444.296,1422.157 C442.97098,1408.952 443.858,1391.9559 444.796,1373.959 C445.788,1354.92 446.81598,1335.2319 445.39297,1317.229 L445.34198,1316.709 C444.257,1307.666 442.8,1296.933 441.162,1284.891 C433.065,1225.275 420.828,1135.181 427.843,1060.379 C430.845,1028.375 438.414,996.835 445.73398,966.33105 C455.85297,924.15106 466.318,880.54205 465.123,834.58203 C469.564,737.77704 474.02698,242.80902 466.623,81.37402 C498.58197,85.32603 530.282,87.32503 561.062,87.32503 C642.742,87.32503 716.265,73.39503 770.73303,47.846027 C805.85706,371.93503 757.913,733.374 713.372,879.107 C699.203,919.604 684.631,964.41797 675.649,1027.296 C664.805,1122.663 667.732,1279.036 670.872,1388.3881 C670.65,1389.989 667.769,1395.331 666.04803,1398.5211 C661.76404,1406.4681 657.33203,1414.685 658.02405,1423.3901 C659.40906,1440.8162 660.66406,1455.3341 662.59406,1467.4512 C619.3851,1469.2751 567.59906,1477.9092 521.3091,1485.6292 C500.22107,1489.1432 480.0511,1492.5042 462.7971,1494.8501 C462.731,1493.434 462.662,1491.968 462.593,1490.462 "/>
<path fill="#DBF74A" d="M513.779,958.983 C494.456,1100.684 495.888,1374.065 521.763,1485.552 C567.939,1477.853 619.523,1469.272 662.595,1467.451 C660.665,1455.3351 659.409,1440.816 658.02496,1423.39 C657.334,1414.685 661.76495,1406.468 666.04895,1398.521 C667.76996,1395.332 670.65094,1389.989 670.8729,1388.388 C667.7329,1279.0359 663.3529,1099.969 678.3809,1004.06995 C628.286,1054.883 556.719,997.628 513.779,958.983 "/>
<linearGradient id="SVGID_1_" gradientUnits="userSpaceOnUse" x1="302.3643" y1="1127.4673" x2="695.4619" y2="1113.4281">
<stop offset="0" style="stop-color:#949FA1"/>
<stop offset="1" style="stop-color:#B7C6C9"/>
</linearGradient>
<path fill="url(#SVGID_1_)" d="M668.389,1164.874 C668.86096,1134.421 669.795,1104.9451 671.41095,1078.0071 C590.03595,1087.8431 506.86395,1084.5411 427.07593,1070.3191 C424.99994,1099.6812 425.66092,1131.0071 427.66492,1161.685 C506.908,1174.076 588.197,1171.986 668.389,1164.874 "/>
<path fill="#868F98" d="M502.629,1080.376 C477.22,1078.131 451.982,1074.757 427.076,1070.317 C425.0,1099.679 425.66098,1131.005 427.66498,1161.683 C452.27197,1165.5289 475.99097,1168.047 500.89697,1169.387 C500.528,1139.739 501.26,1110.023 502.629,1080.376 "/>
<linearGradient id="SVGID_2_" gradientUnits="userSpaceOnUse" x1="307.8545" y1="1329.106" x2="659.9594" y2="1303.3422">
<stop offset="0" style="stop-color:#949FA1"/>
<stop offset="1" style="stop-color:#B7C6C9"/>
</linearGradient>
<path fill="url(#SVGID_2_)" d="M669.619,1340.376 C669.021,1314.799 668.52203,1287.804 668.24603,1260.377 C593.499,1276.127 515.61707,1279.736 440.148,1277.3829 C440.488,1279.898 440.834,1282.4719 441.16302,1284.891 C442.80103,1296.933 444.25803,1307.666 445.34302,1316.709 L445.394,1317.229 C446.225,1327.748 446.181,1338.85 445.83502,1350.05 C520.01,1356.22 596.023,1354.135 669.619,1340.376 "/>
<path fill="#868F98" d="M501.279,1277.852 C480.8,1278.1991 460.387,1278.014 440.14798,1277.383 C440.48798,1279.8981 440.83398,1282.472 441.163,1284.8911 C442.801,1296.9331 444.258,1307.6661 445.343,1316.7091 L445.39398,1317.2291 C446.22498,1327.7482 446.18097,1338.8501 445.835,1350.0502 C465.082,1351.6511 485.057,1352.8812 504.47598,1353.3112 C502.277,1327.901 501.176,1302.797 501.279,1277.852 "/>
<path fill="#DBF74A" d="M770.734,47.847 C718.383,72.401 648.407,86.187 570.529,87.225 C542.68,363.94 513.743,638.227 536.389,919.38196 C565.615,969.17194 618.534,1046.481 672.47595,1021.96094 C678.37994,1019.2769 681.06494,993.5139 683.78094,981.3339 C692.2639,941.2429 702.92096,908.97894 713.37195,879.10693 C757.914,733.375 805.858,371.936 770.734,47.847 "/>
</g>
<g>
<path fill="#93AB20" d="M236.104,0 C142.352,387.887 107.281,625.484 71.501,890.28 C52.178,1008.36505 30.709,1044.146 19.973,1106.4081 C-10.799,1220.915 3.1569996,1443.8441 3.1569996,1443.8441 S9.955999,1464.9551 14.844,1475.6521 C15.617,1492.7771 15.316999,1514.6981 16.039,1532.9421 C86.889,1520.0612 170.268,1506.8212 233.95601,1523.2811 C233.059,1500.5602 233.13301,1491.1301 233.95601,1466.3851 C234.16801,1460.0442 242.544,1434.1812 242.544,1434.1812 S244.147,1359.7122 254.35301,1290.3331 C267.23502,1193.7212 294.071,1102.8322 321.982,989.0421 C407.867,808.6941 536.68,409.3581 562.443,329.20312 C574.599,325.72913 609.676,317.7531 609.676,317.7531 S644.028,183.03111 622.55804,80.155106 C434.699,79.438 315.542,36.499 236.104,0 "/>
<path fill="#B7D130" d="M28.522,1517.613 C28.449,1513.3 28.4,1508.9241 28.352999,1504.614 C28.237,1494.532 28.119999,1484.104 27.713,1475.069 L27.599998,1472.5709 L26.558998,1470.2969 C22.766998,1461.9968 17.541998,1446.3629 15.918998,1441.4279 C14.7579975,1421.1289 3.8999977,1215.8549 32.413998,1109.7539 L32.567997,1109.1819 L32.67,1108.5989 C36.968,1083.6649 43.089996,1062.9338 50.179,1038.9288 C60.224,1004.90283 72.728,962.5548 84.215,892.3618 C120.071,627.0248 154.76,393.76282 244.99199,18.111816 C353.44998,65.67682 469.58698,97.15182 627.39,83.73282 C640.48804,168.17783 608.835,279.46182 599.80304,306.80283 C588.82306,309.3398 567.98303,314.22284 558.905,316.81882 L552.286,318.71082 L550.181,325.26282 C504.20602,468.2968 388.80402,818.7678 310.35303,983.50385 L309.78702,984.69385 L309.47302,985.97284 C302.89203,1012.80884 296.36902,1038.3608 290.06403,1063.0729 C269.38202,1144.1139 251.52303,1214.0989 241.58502,1288.6328 C232.30902,1351.6858 230.05502,1419.8228 229.71602,1431.9949 C226.34502,1442.5149 221.30502,1459.2539 221.08202,1465.9579 C220.48701,1483.8899 220.27402,1494.0588 220.55502,1507.1919 C203.82202,1504.1929 185.45703,1502.726 164.89902,1502.726 C119.693,1502.725 71.613,1509.995 28.522,1517.613 "/>
<path fill="#DBF74A" d="M127.323,916.044 C56.473,1077.067 45.909996,1343.681 43.256996,1515.0691 C82.409996,1508.457 124.778,1502.7241 164.89899,1502.7241 C185.45699,1502.7241 203.82098,1504.1912 220.555,1507.1901 C220.27399,1494.056 220.487,1483.8871 221.08199,1465.956 C221.30598,1459.2521 226.34598,1442.5131 229.71599,1431.993 C230.055,1419.821 232.30899,1351.6831 241.58499,1288.6311 C251.523,1214.0981 269.382,1144.112 290.064,1063.071 C290.867,1059.92 301.94598,1005.499 309.102,983.314 C254.354,1008.005 181.714,981.885 127.323,916.044 "/>
<linearGradient id="SVGID_3_" gradientUnits="userSpaceOnUse" x1="-6.4092" y1="1058.8296" x2="212.5815" y2="1103.201">
<stop offset="0" style="stop-color:#949FA1"/>
<stop offset="1" style="stop-color:#B7C6C9"/>
</linearGradient>
<path fill="url(#SVGID_3_)" d="M269.207,1146.55 C275.209,1121.5111 281.685,1095.9121 288.531,1069.0851 C208.89001,1072.284 128.139,1056.8541 54.34001,1024.753 C52.91601,1029.65 51.52401,1034.373 50.179012,1038.9281 C43.27101,1062.3251 37.293015,1082.6411 33.013012,1106.738 C107.281,1137.78 188.61,1149.326 269.207,1146.55 "/>
<path fill="#868F98" d="M54.339,1024.753 C52.915,1029.65 51.523003,1034.373 50.178,1038.9281 C43.27,1062.3251 37.292,1082.6411 33.012,1106.738 C45.111,1111.7941 59.422,1117.214 71.86,1121.259 C76.332,1093.6941 82.73,1059.625 87.962,1038.3301 C76.393,1034.213 65.612,1029.657 54.339,1024.753 "/>
<linearGradient id="SVGID_4_" gradientUnits="userSpaceOnUse" x1="-33.6685" y1="1291.5835" x2="153.834" y2="1313.0533">
<stop offset="0" style="stop-color:#949FA1"/>
<stop offset="1" style="stop-color:#B7C6C9"/>
</linearGradient>
<path fill="url(#SVGID_4_)" d="M233.579,1361.807 C235.36499,1339.112 237.928,1313.482 241.584,1288.631 C242.174,1284.218 242.817,1279.834 243.462,1275.447 C166.026,1277.2631 88.546005,1268.151 14.581009,1250.937 C13.212009,1281.053 12.834009,1310.974 12.960009,1337.937 C84.22,1356.189 158.741,1363.173 233.579,1361.807 "/>
<path fill="#868F98" d="M14.582,1250.938 C13.212999,1281.054 12.835,1310.975 12.9609995,1337.938 C24.428,1340.875 35.986,1343.489 47.609997,1345.856 C48.595997,1316.979 51.155,1288.1069 53.886997,1259.231 C40.691,1256.723 27.578,1253.962 14.582,1250.938 "/>
<path fill="#DBF74A" d="M626.854,84.446 C500.509,95.19 397.324,76.042 306.954,44.012 C296.196,81.568 285.98602,131.491 278.29,169.963 C261.114,251.548 235.35101,324.546 222.46802,406.13098 C192.18402,561.33997 163.58801,713.21094 148.40802,864.68896 C154.13002,889.16394 164.01602,912.569 179.52902,934.287 C208.00003,978.576 252.20502,1014.446 309.101,986.537 C387.435,818.683 553.32,322.046 553.32,322.046 S591.184,311.16498 602.163,308.628 C611.196,281.288 641.882,169.611 626.854,84.446 "/>
</g>
</g>
</svg>
