<?xml version="1.0" encoding="utf-8"?>
<!--Generator: Adobe Illustrator 15.0.0, SVG Export Plug-In . SVG Version: 6.00 Build 0)-->
<!DOCTYPE svg PUBLIC "-//W3C//DTD SVG 1.1//EN" "http://www.w3.org/Graphics/SVG/1.1/DTD/svg11.dtd">
<svg version="1.1" id="Skin_x5F_01" xmlns="http://www.w3.org/2000/svg" xmlns:xlink="http://www.w3.org/1999/xlink" x="0px" y="0px"    enable-background="new 0 0 795.962 1532.941" xml:space="preserve">
<g id="Fluo_pants">
<g>
<path fill="#93AB20" d="M463.747,66.556 C472.33502,209.689 467.32602,742.13904 463.032,834.459 C465.17902,911.75 433.08002,981.74896 425.81702,1059.176 C417.225,1150.781 436.911,1264.571 443.351,1318.244 C446.044,1352.343 439.41302,1394.895 442.278,1423.446 C443.424,1434.862 456.743,1441.2991 457.789,1451.312 C460.386,1476.172 460.412,1496.258 461.601,1509.324 C519.57,1502.884 620.477,1479.983 689.18,1479.983 C685.352,1466.311 683.63,1447.124 681.666,1422.3711 C680.904,1412.7881 694.817,1397.4171 694.54803,1388.019 C691.463,1280.605 688.55304,1122.8151 699.19904,1029.119 C707.78705,969.004 721.385,926.064 736.413,883.12305 C779.35205,742.85504 833.028,371.42606 792.234,27.910034 C722.995,66.556 603.838,86.594 463.747,66.556 "/>
<path fill="#B7D130" d="M473.392,1490.462 C472.872,1479.362 472.229,1465.5481 470.602,1449.972 C469.685,1441.2051 464.479,1435.019 460.297,1430.051 C457.835,1427.124 455.29,1424.1011 455.095,1422.157 C453.77,1408.952 454.657,1391.9559 455.595,1373.959 C456.587,1354.92 457.615,1335.2319 456.192,1317.229 L456.141,1316.709 C455.056,1307.666 453.599,1296.933 451.961,1284.891 C443.864,1225.275 431.627,1135.181 438.642,1060.379 C441.644,1028.375 449.213,996.835 456.533,966.33105 C466.65198,924.15106 477.117,880.54205 475.922,834.58203 C480.363,737.77704 484.826,242.80902 477.422,81.37402 C509.38098,85.32603 541.081,87.32503 571.861,87.32503 C653.541,87.32503 727.064,73.39503 781.53204,47.846027 C816.65607,371.93503 768.71204,733.374 724.171,879.107 C710.002,919.604 695.43,964.41797 686.448,1027.296 C675.604,1122.663 678.531,1279.036 681.671,1388.3881 C681.44904,1389.989 678.568,1395.331 676.84705,1398.5211 C672.56305,1406.4681 668.13104,1414.685 668.82306,1423.3901 C670.20807,1440.8162 671.4631,1455.3341 673.39307,1467.4512 C630.1841,1469.2751 578.3981,1477.9092 532.1081,1485.6292 C511.02008,1489.1432 490.8501,1492.5042 473.5961,1494.8501 C473.53,1493.434 473.461,1491.968 473.392,1490.462 "/>
<path fill="#DBF74A" d="M524.578,958.983 C505.255,1100.684 506.687,1374.065 532.562,1485.552 C578.73804,1477.853 630.322,1469.272 673.394,1467.451 C671.464,1455.3351 670.208,1440.816 668.824,1423.39 C668.133,1414.685 672.56396,1406.468 676.84796,1398.521 C678.569,1395.332 681.44995,1389.989 681.67194,1388.388 C678.5319,1279.0359 674.1519,1099.969 689.17993,1004.06995 C639.085,1054.883 567.518,997.628 524.578,958.983 "/>
<linearGradient id="SVGID_1_" gradientUnits="userSpaceOnUse" x1="313.1633" y1="1127.4673" x2="706.2609" y2="1113.4281">
<stop offset="0" style="stop-color:#949FA1"/>
<stop offset="1" style="stop-color:#B7C6C9"/>
</linearGradient>
<path fill="url(#SVGID_1_)" d="M679.188,1164.874 C679.66,1134.421 680.594,1104.9451 682.20996,1078.0071 C600.83496,1087.8431 517.66296,1084.5411 437.87494,1070.3191 C435.79895,1099.6812 436.45993,1131.0071 438.46393,1161.685 C517.707,1174.076 598.99603,1171.986 679.188,1164.874 "/>
<path fill="#868F98" d="M513.428,1080.376 C488.019,1078.131 462.781,1074.757 437.875,1070.317 C435.799,1099.679 436.46,1131.005 438.464,1161.683 C463.07098,1165.5289 486.78998,1168.047 511.69598,1169.387 C511.32703,1139.739 512.059,1110.023 513.428,1080.376 "/>
<linearGradient id="SVGID_2_" gradientUnits="userSpaceOnUse" x1="318.6535" y1="1329.106" x2="670.7584" y2="1303.3422">
<stop offset="0" style="stop-color:#949FA1"/>
<stop offset="1" style="stop-color:#B7C6C9"/>
</linearGradient>
<path fill="url(#SVGID_2_)" d="M680.418,1340.376 C679.82,1314.799 679.32104,1287.804 679.04504,1260.377 C604.29803,1276.127 526.4161,1279.736 450.94702,1277.3829 C451.28702,1279.898 451.63303,1282.4719 451.96204,1284.891 C453.60004,1296.933 455.05704,1307.666 456.14203,1316.709 L456.19302,1317.229 C457.02402,1327.748 456.98,1338.85 456.63403,1350.05 C530.809,1356.22 606.822,1354.135 680.418,1340.376 "/>
<path fill="#868F98" d="M512.078,1277.852 C491.599,1278.1991 471.186,1278.014 450.947,1277.383 C451.287,1279.8981 451.633,1282.472 451.962,1284.8911 C453.6,1296.9331 455.057,1307.6661 456.142,1316.7091 L456.193,1317.2291 C457.024,1327.7482 456.97998,1338.8501 456.634,1350.0502 C475.881,1351.6511 495.85602,1352.8812 515.27496,1353.3112 C513.076,1327.901 511.975,1302.797 512.078,1277.852 "/>
<path fill="#DBF74A" d="M781.533,47.847 C729.182,72.401 659.206,86.187 581.328,87.225 C553.479,363.94 524.542,638.227 547.188,919.38196 C576.414,969.17194 629.333,1046.481 683.27496,1021.96094 C689.17896,1019.2769 691.86395,993.5139 694.57996,981.3339 C703.0629,941.2429 713.72,908.97894 724.17096,879.10693 C768.713,733.375 816.657,371.936 781.533,47.847 "/>
</g>
<g>
<path fill="#93AB20" d="M246.903,0.0 C153.151,387.887 118.08,625.484 82.3,890.28 C62.977,1008.36505 41.508,1044.146 30.772,1106.4081 C0.0,1220.915 13.955999,1443.8441 13.955999,1443.8441 S20.755,1464.9551 25.643,1475.6521 C26.416,1492.7771 26.116,1514.6981 26.838,1532.9421 C97.688,1520.0612 181.067,1506.8212 244.755,1523.2811 C243.858,1500.5602 243.932,1491.1301 244.755,1466.3851 C244.96701,1460.0442 253.343,1434.1812 253.343,1434.1812 S254.946,1359.7122 265.152,1290.3331 C278.03403,1193.7212 304.87003,1102.8322 332.781,989.0421 C418.66602,808.6941 547.479,409.3581 573.242,329.20312 C585.398,325.72913 620.47504,317.7531 620.47504,317.7531 S654.827,183.03111 633.35706,80.155106 C445.49802,79.438 326.341,36.499 246.903,0.0 "/>
<path fill="#B7D130" d="M39.321,1517.613 C39.248,1513.3 39.198997,1508.9241 39.152,1504.614 C39.036,1494.532 38.919,1484.104 38.512,1475.069 L38.399,1472.5709 L37.357998,1470.2969 C33.565998,1461.9968 28.340998,1446.3629 26.717999,1441.4279 C25.556997,1421.1289 14.6989975,1215.8549 43.212997,1109.7539 L43.366997,1109.1819 L43.468998,1108.5989 C47.767,1083.6649 53.888996,1062.9338 60.978,1038.9288 C71.022995,1004.90283 83.52699,962.5548 95.01399,892.3618 C130.87,627.0248 165.55899,393.76282 255.79099,18.111816 C364.249,65.67682 480.386,97.15182 638.189,83.73282 C651.28705,168.17783 619.63403,279.46182 610.60205,306.80283 C599.6221,309.3398 578.78204,314.22284 569.70404,316.81882 L563.085,318.71082 L560.98004,325.26282 C515.005,468.2968 399.60303,818.7678 321.15204,983.50385 L320.58603,984.69385 L320.27203,985.97284 C313.69104,1012.80884 307.16803,1038.3608 300.86304,1063.0729 C280.18103,1144.1139 262.32202,1214.0989 252.38402,1288.6328 C243.10802,1351.6858 240.85402,1419.8228 240.51501,1431.9949 C237.14401,1442.5149 232.10402,1459.2539 231.88101,1465.9579 C231.28601,1483.8899 231.07301,1494.0588 231.35402,1507.1919 C214.62102,1504.1929 196.25603,1502.726 175.69801,1502.726 C130.492,1502.725 82.412,1509.995 39.321,1517.613 "/>
<path fill="#DBF74A" d="M138.122,916.044 C67.272,1077.067 56.708996,1343.681 54.055996,1515.0691 C93.209,1508.457 135.577,1502.7241 175.69798,1502.7241 C196.25598,1502.7241 214.61998,1504.1912 231.35399,1507.1901 C231.07298,1494.056 231.286,1483.8871 231.88098,1465.956 C232.10498,1459.2521 237.14497,1442.5131 240.51498,1431.993 C240.85399,1419.821 243.10799,1351.6831 252.38399,1288.6311 C262.322,1214.0981 280.181,1144.112 300.863,1063.071 C301.66602,1059.92 312.745,1005.499 319.901,983.314 C265.153,1008.005 192.513,981.885 138.122,916.044 "/>
<linearGradient id="SVGID_3_" gradientUnits="userSpaceOnUse" x1="-6.4092" y1="1058.8296" x2="223.3805" y2="1103.201">
<stop offset="0" style="stop-color:#949FA1"/>
<stop offset="1" style="stop-color:#B7C6C9"/>
</linearGradient>
<path fill="url(#SVGID_3_)" d="M280.006,1146.55 C286.00803,1121.5111 292.484,1095.9121 299.33002,1069.0851 C219.68901,1072.284 138.938,1056.8541 65.13901,1024.753 C63.71501,1029.65 62.32301,1034.373 60.978012,1038.9281 C54.07001,1062.3251 48.092014,1082.6411 43.81201,1106.738 C118.08,1137.78 199.409,1149.326 280.006,1146.55 "/>
<path fill="#868F98" d="M65.138,1024.753 C63.714,1029.65 62.322002,1034.373 60.977,1038.9281 C54.069,1062.3251 48.091,1082.6411 43.811,1106.738 C55.91,1111.7941 70.221,1117.214 82.659,1121.259 C87.131,1093.6941 93.52901,1059.625 98.761,1038.3301 C87.192,1034.213 76.410995,1029.657 65.138,1024.753 "/>
<linearGradient id="SVGID_4_" gradientUnits="userSpaceOnUse" x1="-33.6685" y1="1291.5835" x2="164.633" y2="1313.0533">
<stop offset="0" style="stop-color:#949FA1"/>
<stop offset="1" style="stop-color:#B7C6C9"/>
</linearGradient>
<path fill="url(#SVGID_4_)" d="M244.37799,1361.807 C246.16399,1339.112 248.72699,1313.482 252.383,1288.631 C252.97299,1284.218 253.616,1279.834 254.261,1275.447 C176.825,1277.2631 99.345,1268.151 25.380009,1250.937 C24.01101,1281.053 23.633009,1310.974 23.759008,1337.937 C95.019,1356.189 169.54,1363.173 244.37799,1361.807 "/>
<path fill="#868F98" d="M25.381,1250.938 C24.012,1281.054 23.633999,1310.975 23.759998,1337.938 C35.226997,1340.875 46.785,1343.489 58.408997,1345.856 C59.394997,1316.979 61.954,1288.1069 64.686,1259.231 C51.49,1256.723 38.377,1253.962 25.381,1250.938 "/>
<path fill="#DBF74A" d="M637.653,84.446 C511.308,95.19 408.12302,76.042 317.75302,44.012 C306.99503,81.568 296.78503,131.491 289.08902,169.963 C271.91302,251.548 246.15001,324.546 233.26701,406.13098 C202.98302,561.33997 174.38701,713.21094 159.20702,864.68896 C164.92902,889.16394 174.81502,912.569 190.32802,934.287 C218.79903,978.576 263.00403,1014.446 319.90002,986.537 C398.234,818.683 564.119,322.046 564.119,322.046 S601.98303,311.16498 612.96204,308.628 C621.995,281.288 652.681,169.611 637.653,84.446 "/>
</g>
</g>
</svg>
