<?xml version="1.0" encoding="utf-8"?>
<!--Generator: Adobe Illustrator 15.0.0, SVG Export Plug-In . SVG Version: 6.00 Build 0)-->
<!DOCTYPE svg PUBLIC "-//W3C//DTD SVG 1.1//EN" "http://www.w3.org/Graphics/SVG/1.1/DTD/svg11.dtd">
<svg version="1.1" id="Gas_mask" xmlns="http://www.w3.org/2000/svg" xmlns:xlink="http://www.w3.org/1999/xlink" x="0px" y="0px" width="314.207px" height="755.63px" viewBox="0 0 314.207 755.63" enable-background="new 0 0 314.207 755.63" xml:space="preserve">
<g>
<path fill="#333333" d="M145.729,130.06 C143.64601,128.81 137.31201,121.875 136.479,121.375 C135.979,119.625 136.104,116.854004 136.104,116.187 C137.729,117.562 146.308,125.439995 147.058,125.939995 C146.724,126.941 145.895,129.31 145.729,130.06 "/>
<path fill="#333333" d="M208.518,129.392 C210.601,128.142 215.77,122.5 216.60301,121.5 C217.10301,119.75 216.77002,117.0 216.77002,116.333 C215.14502,117.708 207.83102,125.204 207.08102,125.704 C207.414,126.704 208.352,128.642 208.518,129.392 "/>
<path fill="#333333" d="M210.752,132.333 C210.152,124.34 201.363,122.16599 196.252,118.33299 C190.252,113.83299 186.011,106.33299 177.428,106.33299 S164.60399,113.83299 158.60399,118.33299 C153.49298,122.16599 144.704,124.34 144.10399,132.333 C143.35399,142.333 157.512,165.66899 177.428,165.66899 S211.502,142.333 210.752,132.333 "/>
<path fill="#4D4D4D" d="M177.428,164.17 C169.78499,164.17 162.045,160.364 155.63399,153.453 C148.65698,145.933 145.25699,137.017 145.59999,132.446 C145.982,127.361 150.24199,124.981 154.75099,122.462 C156.387,121.548 158.07799,120.603 159.504,119.534 C161.302,118.185 162.939,116.589 164.521,115.046 C168.32399,111.337 171.916,107.834 177.428,107.834 S186.532,111.337 190.33499,115.046 C191.91798,116.589 193.55399,118.186 195.35199,119.534 C196.77798,120.603 198.469,121.548 200.105,122.462 C204.61499,124.980995 208.875,127.361 209.256,132.446 C209.599,137.018 206.198,145.934 199.222,153.453 C192.811,160.364 185.07,164.17 177.428,164.17 "/>
<linearGradient id="SVGID_1_" gradientUnits="userSpaceOnUse" x1="160.1445" y1="136.002" x2="193.6033" y2="136.002">
<stop offset="0.0121" style="stop-color:#4D4D4D"/>
<stop offset="0.5273" style="stop-color:#666666"/>
<stop offset="1" style="stop-color:#4D4D4D"/>
</linearGradient>
<path fill="url(#SVGID_1_)" d="M186.261,111.318 C183.91,109.413 181.737,107.834 177.42801,107.834 C174.117,107.834 171.501,109.102 169.11401,110.915 C163.72902,126.626 166.10402,150.251 172.74701,163.692 C174.30301,164.004 175.86801,164.171 177.42801,164.171 C180.15201,164.171 182.88701,163.679 185.57101,162.744 C189.604,141.375 189.8,127.244 186.261,111.318 "/>
<circle fill="#333333" cx="177.428" cy="130.833" r="10.333"/>
<circle fill="#1A1A1A" cx="177.428" cy="132.833" r="10.333"/>
<path fill="#666666" d="M177.427,141.667 C172.556,141.667 168.594,137.70401 168.594,132.83301 C168.594,127.962006 172.556,124.00001 177.427,124.00001 C182.298,124.00001 186.261,127.962006 186.261,132.83301 C186.261,137.704 182.298,141.667 177.427,141.667 "/>
<path fill="#1A1A1A" d="M177.428,137.292 C174.97,137.292 172.97,135.292 172.97,132.83301 C172.97,130.37502 174.97,128.375 177.42801,128.375 S181.88602,130.375 181.88602,132.83301 C181.886,135.292 179.886,137.292 177.428,137.292 "/>
<g>
<rect x="176.644" y="123.124" fill="#1A1A1A" width="1.5" height="19.376"/>
</g>
<g>
<rect x="167.705" y="132.062" transform="rotate(45.001 177.396 132.81)" fill="#1A1A1A" width="19.376" height="1.5"/>
</g>
<g>
<rect x="167.705" y="132.062" fill="#1A1A1A" width="19.376" height="1.5"/>
</g>
<g>
<rect x="176.643" y="123.123" transform="rotate(45.001 177.396 132.81)" fill="#1A1A1A" width="1.5" height="19.377"/>
</g>
<path fill="#1A1A1A" d="M151.087,157.332 C146.858,156.273 142.93001,149.994 141.403,141.626 C139.85,133.11401 141.35,125.851006 144.975,123.46001 L144.888,123.01101 L146.439,122.79301 C146.577,122.74801 146.692,122.715004 146.812,122.69301 C147.09,122.642006 147.37999,122.616005 147.67,122.616005 C147.696,122.616005 147.722,122.616005 147.748,122.616005 C149.33,122.4 152.079,122.01301 153.62401,121.732 C153.90701,121.68 154.19801,121.654 154.488,121.654 C159.113,121.654 163.69,128.333 165.369,137.534 C166.608,144.328 165.909,150.64099 163.543,154.009 C162.575,155.38701 161.329,156.238 159.939,156.47 C158.25699,156.752 155.109,157.162 153.297,157.393 C153.245,157.408 153.192,157.419 153.13899,157.429 C153.00899,157.453 152.86699,157.463 152.724,157.467 L151.163,157.66899 L151.087,157.332 "/>
<path fill="#333333" d="M163.892,137.804 C162.29,129.029 157.814,122.492004 153.892,123.208 C152.271,123.503 149.422,123.902 147.827,124.12 C147.57599,124.109 147.327,124.124 147.078,124.16901 C146.973,124.188 146.87401,124.23201 146.772,124.26201 C146.707,124.27001 146.66101,124.27601 146.66101,124.27601 L146.66402,124.29401 C143.03001,125.466 141.33401,132.899 142.87701,141.356 C144.404,149.724 148.54301,156.03801 152.32402,155.99 L152.32703,156.003 C152.32703,156.003 152.41203,155.992 152.56302,155.973 C152.66702,155.96501 152.77303,155.97101 152.87701,155.95201 C152.91301,155.94601 152.94601,155.92902 152.98102,155.921 C154.42401,155.738 157.91702,155.28801 159.68903,154.99101 C163.622,154.334 165.493,146.582 163.892,137.804 "/>
<path fill="#1A1A1A" d="M145.343,162.326 C139.53,162.325 133.819,154.297 131.45601,142.804 C128.93501,130.54001 131.011,121.752 137.00801,119.296005 L137.21701,119.21001 L137.44301,119.19001 C137.72801,119.16501 144.44301,118.56601 146.41,118.42001 C146.554,118.41001 146.699,118.404015 146.84601,118.404015 C151.85901,118.404015 158.533,124.95101 161.02701,137.08502 C163.399,148.62202 160.81001,158.30202 154.873,160.10103 C152.91,160.69603 146.622,162.17703 146.355,162.24002 L146.284,162.25702 L146.21199,162.26701 C145.921,162.307 145.633,162.326 145.343,162.326 C145.344,162.326 145.343,162.326 145.343,162.326 "/>
<path fill="#333333" d="M159.557,137.389 C157.27101,126.269005 151.02,119.58401 146.52,119.91701 C144.541,120.06301 137.576,120.685005 137.576,120.685005 C132.076,122.938 130.723,131.78801 132.925,142.502 C135.105,153.104 140.557,161.51599 146.01001,160.781 C146.01001,160.781 152.496,159.255 154.43701,158.667 C159.291,157.196 161.842,148.509 159.557,137.389 "/>
<path fill="#1A1A1A" d="M132.653,142.553 C134.785,152.739 140.23,160.743 145.172,160.84099 C150.439,160.94699 153.482,152.13098 151.565,140.62698 C149.544,128.51299 143.072,119.35799 137.576,120.68498 C132.448,121.923 130.423,131.889 132.653,142.553 "/>
<path fill="#E6E6E6" d="M144.427,159.441 C139.97101,159.42 135.013,152.04599 133.099,142.678 C131.109,132.933 132.98,123.92 137.578,122.897995 C142.45601,121.813995 148.202,130.08499 150.034,140.94699 C151.79,151.345 149.133,159.462 144.427,159.441 "/>
<path fill="#1A1A1A" d="M145.628,142.675 L150.83301,142.19301 L150.313,139.10501 L145.084,139.688 C144.725,138.335 144.237,137.10701 143.671,136.074 L145.955,127.69501 L144.493,125.617004 L142.26399,134.08301 C141.62,133.404 140.941,132.977 140.273,132.856 L138.208,121.851006 L136.81499,122.175 L138.89798,133.09601 C138.34398,133.42601 137.89697,134.03401 137.57098,134.84702 L132.79399,127.95502 L132.314,130.21902 L137.041,137.05403 C136.915,138.11504 136.92,139.31403 137.068,140.58102 L132.573,141.08302 L133.145,143.83002 L137.623,143.41502 C137.964,144.64702 138.412,145.77803 138.93001,146.74602 L137.098,153.70502 L138.36101,155.55602 L140.238,148.66902 C140.84601,149.35902 141.49,149.83302 142.13,150.02702 L143.964,159.64102 L145.30501,159.65903 L143.48901,149.98203 C144.07301,149.74303 144.56201,149.21802 144.93102,148.46303 L149.73102,155.40503 L150.41002,153.36403 L145.55602,146.36203 C145.731,145.286 145.763,144.033 145.628,142.675 "/>
<path fill="#1A1A1A" d="M203.769,157.332 C207.998,156.273 211.926,149.994 213.453,141.626 C215.006,133.11401 213.506,125.851006 209.881,123.46001 L209.968,123.01101 L208.417,122.79301 C208.279,122.74801 208.164,122.715004 208.044,122.69301 C207.766,122.642006 207.47601,122.616005 207.186,122.616005 C207.16,122.616005 207.134,122.616005 207.108,122.616005 C205.526,122.4 202.77701,122.01301 201.232,121.732 C200.94899,121.68 200.65799,121.654 200.368,121.654 C195.743,121.654 191.166,128.333 189.487,137.534 C188.248,144.328 188.947,150.64099 191.313,154.009 C192.281,155.38701 193.52701,156.238 194.917,156.47 C196.59901,156.752 199.74701,157.162 201.559,157.393 C201.61101,157.408 201.664,157.419 201.71701,157.429 C201.84702,157.453 201.98901,157.463 202.132,157.467 L203.69301,157.66899 L203.769,157.332 "/>
<path fill="#333333" d="M190.963,137.804 C192.565,129.029 197.041,122.492004 200.963,123.208 C202.584,123.503 205.433,123.902 207.028,124.12 C207.279,124.109 207.528,124.124 207.777,124.16901 C207.88199,124.188 207.98099,124.23201 208.083,124.26201 C208.148,124.27001 208.19398,124.27601 208.19398,124.27601 L208.19098,124.29401 C211.82498,125.466 213.52098,132.899 211.97798,141.356 C210.45099,149.724 206.31198,156.03801 202.53098,155.99 L202.52797,156.003 C202.52797,156.003 202.44296,155.992 202.29198,155.973 C202.18797,155.96501 202.08197,155.97101 201.97798,155.95201 C201.94199,155.94601 201.90898,155.92902 201.87398,155.921 C200.43098,155.738 196.93797,155.28801 195.16599,154.99101 C191.234,154.334 189.362,146.582 190.963,137.804 "/>
<path fill="#1A1A1A" d="M209.513,162.326 C215.326,162.325 221.037,154.297 223.4,142.804 C225.92099,130.54001 223.845,121.752 217.84799,119.296005 L217.63899,119.21001 L217.413,119.19001 C217.12799,119.16501 210.413,118.56601 208.446,118.42001 C208.302,118.41001 208.157,118.404015 208.01,118.404015 C202.997,118.404015 196.323,124.95101 193.829,137.08502 C191.457,148.62202 194.04599,158.30202 199.983,160.10103 C201.946,160.69603 208.23401,162.17703 208.501,162.24002 L208.572,162.25702 L208.64401,162.26701 C208.935,162.307 209.223,162.326 209.513,162.326 C209.512,162.326 209.512,162.326 209.513,162.326 "/>
<path fill="#333333" d="M195.299,137.389 C197.58499,126.269005 203.836,119.58401 208.336,119.91701 C210.315,120.06301 217.28,120.685005 217.28,120.685005 C222.78,122.938 224.133,131.78801 221.931,142.502 C219.751,153.104 214.299,161.51599 208.846,160.781 C208.846,160.781 202.35999,159.255 200.41899,158.667 C195.564,157.196 193.013,148.509 195.299,137.389 "/>
<path fill="#1A1A1A" d="M222.203,142.553 C220.071,152.739 214.626,160.743 209.684,160.84099 C204.417,160.94699 201.37401,152.13098 203.291,140.62698 C205.312,128.51299 211.784,119.35799 217.28,120.68498 C222.407,121.923 224.432,131.889 222.203,142.553 "/>
<path fill="#E6E6E6" d="M210.428,159.441 C214.88399,159.42 219.842,152.04599 221.756,142.678 C223.746,132.933 221.875,123.92 217.277,122.897995 C212.39899,121.813995 206.653,130.08499 204.821,140.94699 C203.065,151.345 205.722,159.462 210.428,159.441 "/>
<path fill="#1A1A1A" d="M209.228,142.675 L204.023,142.19301 L204.543,139.10501 L209.772,139.688 C210.131,138.335 210.619,137.10701 211.185,136.074 L208.901,127.69501 L210.363,125.617004 L212.59201,134.08301 C213.23601,133.404 213.91501,132.977 214.58301,132.856 L216.64801,121.851006 L218.04102,122.175 L215.95802,133.09601 C216.51202,133.42601 216.95903,134.03401 217.28502,134.84702 L222.06201,127.95502 L222.542,130.21902 L217.815,137.05403 C217.94101,138.11504 217.936,139.31403 217.78801,140.58102 L222.283,141.08302 L221.711,143.83002 L217.233,143.41502 C216.892,144.64702 216.444,145.77803 215.926,146.74602 L217.758,153.70502 L216.495,155.55602 L214.618,148.66902 C214.01,149.35902 213.366,149.83302 212.726,150.02702 L210.892,159.64102 L209.551,159.65903 L211.36699,149.98203 C210.78299,149.74303 210.29399,149.21802 209.92499,148.46303 L205.12498,155.40503 L204.44598,153.36403 L209.29999,146.36203 C209.124,145.286 209.092,144.033 209.228,142.675 "/>
</g>
</svg>
