<?xml version="1.0" encoding="utf-8"?>
<!--Generator: Adobe Illustrator 15.0.0, SVG Export Plug-In . SVG Version: 6.00 Build 0)-->
<!DOCTYPE svg PUBLIC "-//W3C//DTD SVG 1.1//EN" "http://www.w3.org/Graphics/SVG/1.1/DTD/svg11.dtd">
<svg version="1.1" id="Gas_mask" xmlns="http://www.w3.org/2000/svg" xmlns:xlink="http://www.w3.org/1999/xlink" x="0px" y="0px" width="96.98598px" height="59.336px" viewBox="0 0 96.98598 59.336" enable-background="new 0 0 96.98598 59.336" xml:space="preserve">
<g>
<path fill="#333333" d="M16.793991,23.727005 C14.710999,22.477005 8.376999,15.542007 7.543991,15.042007 C7.043991,13.292007 7.168991,10.521011 7.168991,9.854004 C8.793991,11.229004 17.372986,19.107002 18.122986,19.607002 C17.788986,20.60801 16.959991,22.977005 16.793991,23.727005 "/>
<path fill="#333333" d="M79.58299,23.059006 C81.665985,21.809006 86.83499,16.167007 87.668,15.167007 C88.168,13.417007 87.83501,10.667007 87.83501,10.000008 C86.21001,11.375008 78.89601,18.87101 78.14601,19.37101 C78.47899,20.37101 79.41699,22.309006 79.58299,23.059006 "/>
<path fill="#333333" d="M81.816986,26.0 C81.21698,18.007004 72.42799,15.833 67.316986,12.0 C61.316986,7.5 57.07599,0.0 48.49298,0.0 S35.668976,7.5 29.668976,12.0 C24.557968,15.833 15.768982,18.007004 15.168976,26.0 C14.418976,36.0 28.57698,59.336 48.49298,59.336 S82.566986,36.0 81.816986,26.0 "/>
<path fill="#4D4D4D" d="M48.49298,57.837006 C40.849976,57.837006 33.109985,54.031006 26.698975,47.12001 C19.72197,39.600006 16.321976,30.684006 16.664978,26.113007 C17.046982,21.028008 21.306976,18.64801 25.815979,16.129005 C27.45198,15.215004 29.142975,14.270004 30.568985,13.201004 C32.36699,11.852005 34.003983,10.256004 35.585983,8.713005 C39.388977,5.0040054 42.980988,1.5010071 48.49298,1.5010071 S57.596985,5.0040054 61.39998,8.713005 C62.98297,10.256004 64.61897,11.853004 66.41698,13.201004 C67.84297,14.270004 69.53398,15.215004 71.16998,16.129005 C75.67998,18.648003 79.93999,21.028008 80.320984,26.113007 C80.66399,30.685013 77.262985,39.601013 70.28699,47.12001 C63.87599,54.031006 56.134995,57.837006 48.49298,57.837006 "/>
<linearGradient id="SVGID_1_" gradientUnits="userSpaceOnUse" x1="31.209488" y1="29.669006" x2="64.66829" y2="29.669006">
<stop offset="0.0121" style="stop-color:#4D4D4D"/>
<stop offset="0.5273" style="stop-color:#666666"/>
<stop offset="1" style="stop-color:#4D4D4D"/>
</linearGradient>
<path fill="url(#SVGID_1_)" d="M57.32599,4.9850082 C54.97499,3.0800095 52.801987,1.5010071 48.492996,1.5010071 C45.18199,1.5010071 42.565994,2.7690048 40.179,4.5820084 C34.794006,20.293007 37.169006,43.918015 43.811996,57.35901 C45.367996,57.671005 46.933,57.838013 48.492996,57.838013 C51.216995,57.838013 53.951996,57.34601 56.636,56.41101 C60.66899,35.042007 60.86499,20.91101 57.32599,4.9850082 "/>
<circle fill="#333333" cx="48.49298" cy="24.5" r="10.333"/>
<circle fill="#1A1A1A" cx="48.49298" cy="26.5" r="10.333"/>
<path fill="#666666" d="M48.49199,35.334015 C43.620987,35.334015 39.65898,31.371017 39.65898,26.500015 C39.65898,21.629013 43.620987,17.667015 48.49199,17.667015 C53.36299,17.667015 57.32599,21.629013 57.32599,26.500015 C57.32599,31.371002 53.36299,35.334015 48.49199,35.334015 "/>
<path fill="#1A1A1A" d="M48.49298,30.959015 C46.03499,30.959015 44.03499,28.959015 44.03499,26.500015 C44.03499,24.042023 46.03499,22.042007 48.492996,22.042007 S52.951004,24.042007 52.951004,26.500015 C52.95099,28.959015 50.95099,30.959015 48.49298,30.959015 "/>
<g>
<rect x="47.708984" y="16.791008" fill="#1A1A1A" width="1.5" height="19.376"/>
</g>
<g>
<rect x="38.76999" y="25.729004" transform="rotate(45.001 48.460983 26.477005)" fill="#1A1A1A" width="19.376" height="1.5"/>
</g>
<g>
<rect x="38.76999" y="25.729004" fill="#1A1A1A" width="19.376" height="1.5"/>
</g>
<g>
<rect x="47.707993" y="16.790009" transform="rotate(45.001 48.460983 26.477005)" fill="#1A1A1A" width="1.5" height="19.377"/>
</g>
<path fill="#1A1A1A" d="M22.151993,50.99901 C17.922989,49.940002 13.994995,43.66101 12.467987,35.293015 C10.914993,26.781021 12.414993,19.518013 16.039993,17.127014 L15.952988,16.678017 L17.503983,16.460014 C17.641983,16.415016 17.756989,16.382011 17.876984,16.360016 C18.154984,16.309013 18.444977,16.283012 18.734985,16.283012 C18.760986,16.283012 18.786987,16.283012 18.812988,16.283012 C20.394989,16.067009 23.143982,15.680016 24.688995,15.39901 C24.972,15.347008 25.263,15.321007 25.552994,15.321007 C30.177994,15.321007 34.75499,22.0 36.43399,31.201004 C37.67299,37.99501 36.973984,44.308 34.607986,47.67601 C33.639984,49.054016 32.393982,49.905014 31.003983,50.13701 C29.321976,50.419006 26.17398,50.82901 24.361984,51.060013 C24.309982,51.075012 24.256989,51.086014 24.20398,51.09601 C24.073975,51.12001 23.931976,51.130005 23.788986,51.134003 L22.227982,51.336 L22.151993,50.99901 "/>
<path fill="#333333" d="M34.956985,31.471008 C33.35498,22.696014 28.878983,16.159012 24.956985,16.875008 C23.335983,17.170006 20.486984,17.569008 18.891983,17.78701 C18.640976,17.776009 18.391983,17.791008 18.14299,17.836014 C18.037994,17.855011 17.938995,17.899017 17.83699,17.929016 C17.771988,17.93702 17.725998,17.943016 17.725998,17.943016 L17.729004,17.961014 C14.095001,19.13301 12.399002,26.56601 13.942001,35.02301 C15.468994,43.391006 19.608002,49.705017 23.389008,49.657013 L23.392014,49.670013 C23.392014,49.670013 23.47702,49.65901 23.628006,49.640015 C23.73201,49.63202 23.838013,49.638016 23.942001,49.61902 C23.977997,49.61302 24.011002,49.596024 24.046005,49.588013 C25.488998,49.405014 28.98201,48.955017 30.754013,48.65802 C34.68698,48.001007 36.557983,40.24901 34.956985,31.471008 "/>
<path fill="#1A1A1A" d="M16.40799,55.99301 C10.594986,55.992004 4.8839874,47.964005 2.520996,36.47101 C0.0,24.207016 2.0759888,15.419006 8.072998,12.963013 L8.281998,12.877014 L8.507996,12.8570175 C8.792999,12.832016 15.507996,12.233017 17.47499,12.087021 C17.618988,12.077019 17.763992,12.071022 17.910995,12.071022 C22.923996,12.071022 29.597992,18.61802 32.091995,30.75203 C34.46399,42.289032 31.875,51.969025 25.937988,53.768036 C23.97499,54.363037 17.686981,55.84404 17.419983,55.90703 L17.348984,55.924026 L17.276978,55.93402 C16.985992,55.974014 16.697983,55.99301 16.40799,55.99301 C16.408981,55.99301 16.40799,55.99301 16.40799,55.99301 "/>
<path fill="#333333" d="M30.621994,31.056015 C28.335999,19.936012 22.084991,13.251015 17.584991,13.584015 C15.605988,13.730019 8.640991,14.352013 8.640991,14.352013 C3.1409912,16.605011 1.7879944,25.455017 3.9899902,36.169006 C6.169983,46.77101 11.621994,55.183 17.074997,54.448013 C17.074997,54.448013 23.56099,52.922012 25.501999,52.334015 C30.355988,50.863007 32.906982,42.17601 30.621994,31.056015 "/>
<path fill="#1A1A1A" d="M3.717987,36.22 C5.849991,46.406006 11.294983,54.410004 16.236984,54.507996 C21.503983,54.614 24.546982,45.79799 22.62999,34.29399 C20.608994,22.179993 14.136993,13.024994 8.640991,14.35199 C3.5129852,15.590004 1.4879913,25.556015 3.717987,36.22 "/>
<path fill="#E6E6E6" d="M15.491989,53.108 C11.0359955,53.087006 6.0779877,45.712997 4.163986,36.345 C2.1739807,26.600006 4.044983,17.587006 8.64299,16.565002 C13.520996,15.481003 19.266983,23.751999 21.098984,34.614 C22.85498,45.01201 20.197983,53.129013 15.491989,53.108 "/>
<path fill="#1A1A1A" d="M16.692993,36.34201 L21.897995,35.860016 L21.37799,32.77202 L16.148987,33.35501 C15.789993,32.002014 15.301987,30.774017 14.735992,29.741013 L17.019989,21.362015 L15.557983,19.284012 L13.3289795,27.750015 C12.684982,27.071014 12.005981,26.644012 11.337982,26.52301 L9.27298,15.518013 L7.8799744,15.8420105 L9.962967,26.763016 C9.408966,27.093018 8.96196,27.70102 8.635971,28.514023 L3.8589783,21.622025 L3.3789825,23.886032 L8.105988,30.721039 C7.9799805,31.782043 7.9849854,32.981033 8.13298,34.24803 L3.6379852,34.75003 L4.2099915,37.497025 L8.687988,37.08203 C9.028992,38.314026 9.47699,39.445038 9.994995,40.413025 L8.162994,47.372025 L9.425995,49.223022 L11.302994,42.33603 C11.9109955,43.02603 12.554993,43.50003 13.194992,43.69403 L15.028992,53.30803 L16.369995,53.326035 L14.554001,43.649033 C15.1380005,43.410034 15.626999,42.885025 15.996002,42.130035 L20.796005,49.072037 L21.475006,47.031036 L16.621002,40.029037 C16.79599,38.953003 16.827988,37.700012 16.692993,36.34201 "/>
<path fill="#1A1A1A" d="M74.833984,50.99901 C79.06299,49.940002 82.99098,43.66101 84.51799,35.293015 C86.070984,26.781021 84.570984,19.518013 80.945984,17.127014 L81.03299,16.678017 L79.481995,16.460014 C79.343994,16.415016 79.22899,16.382011 79.10899,16.360016 C78.83099,16.309013 78.541,16.283012 78.25099,16.283012 C78.22499,16.283012 78.19899,16.283012 78.17299,16.283012 C76.59099,16.067009 73.841995,15.680016 72.29698,15.39901 C72.01398,15.347008 71.72298,15.321007 71.43298,15.321007 C66.80798,15.321007 62.230988,22.0 60.551987,31.201004 C59.31299,37.99501 60.011993,44.308 62.37799,47.67601 C63.345993,49.054016 64.591995,49.905014 65.981995,50.13701 C67.664,50.419006 70.812,50.82901 72.62399,51.060013 C72.675995,51.075012 72.72899,51.086014 72.782,51.09601 C72.912,51.12001 73.054,51.130005 73.19699,51.134003 L74.757996,51.336 L74.833984,50.99901 "/>
<path fill="#333333" d="M62.027985,31.471008 C63.62999,22.696014 68.10599,16.159012 72.027985,16.875008 C73.64899,17.170006 76.497986,17.569008 78.09299,17.78701 C78.343994,17.776009 78.59299,17.791008 78.84198,17.836014 C78.946976,17.855011 79.045975,17.899017 79.14798,17.929016 C79.21298,17.93702 79.25897,17.943016 79.25897,17.943016 L79.25597,17.961014 C82.88997,19.13301 84.58597,26.56601 83.04297,35.02301 C81.515976,43.391006 77.37697,49.705017 73.59596,49.657013 L73.59296,49.670013 C73.59296,49.670013 73.50795,49.65901 73.356964,49.640015 C73.25296,49.63202 73.14696,49.638016 73.04297,49.61902 C73.00697,49.61302 72.97397,49.596024 72.938965,49.588013 C71.49597,49.405014 68.00296,48.955017 66.23097,48.65802 C62.29898,48.001007 60.426987,40.24901 62.027985,31.471008 "/>
<path fill="#1A1A1A" d="M80.57799,55.99301 C86.39099,55.992004 92.10199,47.964005 94.46498,36.47101 C96.98598,24.207016 94.90999,15.419006 88.91298,12.963013 L88.70398,12.877014 L88.47798,12.8570175 C88.19298,12.832016 81.47798,12.233017 79.51099,12.087021 C79.36699,12.077019 79.221985,12.071022 79.07498,12.071022 C74.06198,12.071022 67.387985,18.61802 64.89398,30.75203 C62.521988,42.289032 65.11098,51.969025 71.04799,53.768036 C73.01099,54.363037 79.298996,55.84404 79.565994,55.90703 L79.63699,55.924026 L79.709,55.93402 C79.999985,55.974014 80.287994,55.99301 80.57799,55.99301 C80.57698,55.99301 80.57698,55.99301 80.57799,55.99301 "/>
<path fill="#333333" d="M66.36398,31.056015 C68.64998,19.936012 74.900986,13.251015 79.400986,13.584015 C81.37999,13.730019 88.344986,14.352013 88.344986,14.352013 C93.844986,16.605011 95.19798,25.455017 92.99599,36.169006 C90.815994,46.77101 85.36398,55.183 79.91098,54.448013 C79.91098,54.448013 73.42497,52.922012 71.48398,52.334015 C66.62898,50.863007 64.07799,42.17601 66.36398,31.056015 "/>
<path fill="#1A1A1A" d="M93.26799,36.22 C91.13599,46.406006 85.690994,54.410004 80.74899,54.507996 C75.481995,54.614 72.438995,45.79799 74.35599,34.29399 C76.37698,22.179993 82.84898,13.024994 88.344986,14.35199 C93.471985,15.590004 95.496994,25.556015 93.26799,36.22 "/>
<path fill="#E6E6E6" d="M81.49298,53.108 C85.948975,53.087006 90.90698,45.712997 92.820984,36.345 C94.81099,26.600006 92.93999,17.587006 88.34198,16.565002 C83.463974,15.481003 77.71799,23.751999 75.88599,34.614 C74.12999,45.01201 76.78699,53.129013 81.49298,53.108 "/>
<path fill="#1A1A1A" d="M80.292984,36.34201 L75.08798,35.860016 L75.60799,32.77202 L80.83699,33.35501 C81.195984,32.002014 81.68399,30.774017 82.249985,29.741013 L79.96599,21.362015 L81.42799,19.284012 L83.657,27.750015 C84.300995,27.071014 84.979996,26.644012 85.647995,26.52301 L87.713,15.518013 L89.106,15.8420105 L87.02301,26.763016 C87.57701,27.093018 88.02402,27.70102 88.350006,28.514023 L93.127,21.622025 L93.606995,23.886032 L88.87999,30.721039 C89.006,31.782043 89.00099,32.981033 88.853,34.24803 L93.34799,34.75003 L92.775986,37.497025 L88.29799,37.08203 C87.956985,38.314026 87.50899,39.445038 86.99098,40.413025 L88.82298,47.372025 L87.55998,49.223022 L85.68298,42.33603 C85.07498,43.02603 84.430984,43.50003 83.790985,43.69403 L81.956985,53.30803 L80.61598,53.326035 L82.43198,43.649033 C81.84798,43.410034 81.35898,42.885025 80.989975,42.130035 L76.18997,49.072037 L75.51097,47.031036 L80.364975,40.029037 C80.18898,38.953003 80.15698,37.700012 80.292984,36.34201 "/>
</g>
</svg>
