<?xml version="1.0" encoding="utf-8"?>
<!--Generator: Adobe Illustrator 15.0.0, SVG Export Plug-In . SVG Version: 6.00 Build 0)-->
<!DOCTYPE svg PUBLIC "-//W3C//DTD SVG 1.1//EN" "http://www.w3.org/Graphics/SVG/1.1/DTD/svg11.dtd">
<svg version="1.1" id="Helmet" xmlns="http://www.w3.org/2000/svg" xmlns:xlink="http://www.w3.org/1999/xlink" x="0px" y="0px" width="111.91px" height="72.023px" viewBox="0 0 111.91 72.023" enable-background="new 0 0 111.91 72.023" xml:space="preserve">
<g>
<path id="one" fill="#BF840E" d="M3.2340012,61.5 C3.0670013,58.75 3.3590012,50.417 3.776001,47.917 C6.109001,46.25 9.359009,45.0 10.026001,44.834 C10.193008,46.334 11.193008,58.167 11.193008,59.334 C10.431,59.418 4.484001,61.25 3.2340012,61.5 "/>
<linearGradient id="SVGID_1_" gradientUnits="userSpaceOnUse" x1="12.590012" y1="57.7017" x2="-3.284996" y2="46.4517">
<stop offset="5.000000e-006" style="stop-color:#F1991B"/>
<stop offset="0.636" style="stop-color:#F9C13B"/>
<stop offset="1" style="stop-color:#FDD349"/>
</linearGradient>
<path id="thirteen" fill="url(#SVGID_1_)" d="M4.6450043,59.053 C4.807007,56.0 5.276001,51.510002 5.6200027,49.087 C6.4940033,48.536003 7.445999,48.050003 8.281006,47.667004 C8.545013,50.678005 8.929001,55.348003 9.102005,57.791004 C8.415009,57.979004 7.4920044,58.242004 6.2320023,58.602005 C5.7220078,58.747 5.1720047,58.904 4.6450043,59.053 "/>
<path id="two" fill="#BF840E" d="M108.679,61.5 C108.84601,58.75 108.554,50.417 108.13699,47.917 C105.804,46.25 102.553986,45.0 101.88699,44.834 C101.719986,46.334 100.719986,58.167 100.719986,59.334 C101.48201,59.418 107.42801,61.25 108.679,61.5 "/>
<linearGradient id="SVGID_2_" gradientUnits="userSpaceOnUse" x1="13.590408" y1="57.7021" x2="-2.2844925" y2="46.4522" gradientTransform="matrix(-1 0 0 1 353.402 0)">
<stop offset="5.000000e-006" style="stop-color:#F1991B"/>
<stop offset="0.636" style="stop-color:#F9C13B"/>
<stop offset="1" style="stop-color:#FDD349"/>
</linearGradient>
<path id="three" fill="url(#SVGID_2_)" d="M107.267,59.053 C107.104996,56.0 106.636,51.510002 106.29199,49.087 C105.418,48.536003 104.46599,48.050003 103.631,47.667004 C103.36699,50.678005 102.983,55.348003 102.81,57.791004 C103.496994,57.979004 104.42,58.242004 105.67999,58.602005 C106.19,58.747 106.740005,58.904 107.267,59.053 "/>
<path id="four" fill="#BF840E" d="M55.955,70.303 C62.061996,70.303 87.282,72.023 95.45801,71.164 C102.15701,70.781 105.309006,68.996 111.712006,68.708 C111.811005,67.179 111.91,64.599 111.712006,63.834 C110.235,62.592 105.244,58.641 104.983,52.625 C104.483,41.125 102.748,3.4900017 55.955,3.4900017 S7.1920013,42.070004 7.1920013,51.25 C7.1920013,57.333 1.675003,62.592 0.1969986,63.834 C0.0,64.599 0.09899902,67.179 0.1969986,68.708 C6.5999985,68.995 9.751999,70.781 16.451996,71.164 C24.628998,72.023 49.847,70.303 55.955,70.303 "/>
<linearGradient id="SVGID_3_" gradientUnits="userSpaceOnUse" x1="55.955704" y1="30.25" x2="55.955704" y2="80.5">
<stop offset="5.000000e-006" style="stop-color:#F1991B"/>
<stop offset="0.636" style="stop-color:#F9C13B"/>
<stop offset="1" style="stop-color:#FDD349"/>
</linearGradient>
<path id="five" fill="url(#SVGID_3_)" d="M88.802,69.405 C82.366,69.405 73.659,69.012 66.662994,68.696 C61.804,68.477 57.964996,68.303 55.954987,68.303 S50.10498,68.476 45.245987,68.696 C38.25099,69.012 29.544983,69.405 23.108994,69.405 H23.107986 C20.28299,69.405 18.117981,69.327995 16.67398,69.176 C13.414978,68.987 11.13298,68.488 8.71698,67.961006 C6.723984,67.52501 4.6759796,67.078 2.167984,66.841 C2.1389847,65.965004 2.1379852,65.241005 2.1579819,64.777 C4.4089813,62.514 8.758987,56.557 8.659988,50.489 C8.646988,49.687 8.491989,30.717999 21.818985,17.580997 C29.957977,9.558997 41.442993,5.4909973 55.95398,5.4909973 C70.46597,5.4909973 81.95198,9.558997 90.08998,17.581997 C103.41698,30.718998 103.26099,49.686996 103.247986,50.487995 C103.14899,56.556995 107.50198,62.516994 109.75198,64.77899 C109.77199,65.23699 109.76999,65.96199 109.74098,66.841995 C107.23299,67.077995 105.183975,67.52599 103.19098,67.962 C100.775986,68.49 98.49498,68.989 95.336975,69.169 C93.79201,69.328 91.627,69.405 88.802,69.405 "/>
<linearGradient id="SVGID_4_" gradientUnits="userSpaceOnUse" x1="55.858" y1="72.791" x2="56.03891" y2="61.764">
<stop offset="0.0095" style="stop-color:#FDE25B"/>
<stop offset="0.8034" style="stop-color:#FFF99B"/>
<stop offset="0.9994" style="stop-color:#FFFFAB"/>
</linearGradient>
<path id="six" fill="url(#SVGID_4_)" d="M96.375,68.003 C94.789,68.168 92.567,68.247 89.668,68.247 C83.063,68.247 74.12601,67.844 66.946,67.519005 C61.959,67.29401 58.020004,67.116005 55.955994,67.116005 S49.952988,67.29401 44.964996,67.519005 C37.785004,67.843 28.84999,68.247 22.244995,68.247 H22.243988 C19.344986,68.247 17.122986,68.168 15.639984,68.012 C12.294983,67.818 2.1569824,66.453 2.169983,66.842 C4.677986,67.078 6.7259827,67.526 8.718979,67.962006 C11.134979,68.490005 13.415985,68.98801 16.67598,69.177 C18.11998,69.329 20.284973,69.406 23.109985,69.406 H23.110992 C29.546997,69.406 38.25299,69.013 45.247986,68.697 C50.10698,68.478 53.945984,68.304 55.956985,68.304 S61.805984,68.477 66.66498,68.697 C73.66098,69.013 82.36798,69.406 88.803986,69.406 C91.62898,69.406 93.792984,69.328995 95.33899,69.169 C98.496994,68.989 100.777985,68.49 103.19299,67.962 C105.187,67.526 107.234985,67.078995 109.743,66.841995 C109.755005,66.451 99.615005,67.818 96.375,68.003 "/>
<linearGradient id="SVGID_5_" gradientUnits="userSpaceOnUse" x1="55.939606" y1="-19.8335" x2="55.939606" y2="93.6715">
<stop offset="5.000000e-006" style="stop-color:#F1991B"/>
<stop offset="0.2668" style="stop-color:#F6B836"/>
<stop offset="0.5337" style="stop-color:#FACF4A"/>
<stop offset="0.784" style="stop-color:#FCDD57"/>
<stop offset="0.9994" style="stop-color:#FDE25B"/>
</linearGradient>
<path id="seven" fill="url(#SVGID_5_)" d="M90.091,17.582 C88.70601,16.217001 87.21701,14.976001 85.64,13.84 C85.509995,13.056 85.37399,12.364 85.229996,11.83 C83.856995,10.621 78.479996,8.033 75.37999,6.7929997 C75.41399,7.2869997 75.43298,7.882 75.441986,8.538 C69.733,6.511 63.224,5.49 55.955,5.49 C48.686996,5.49 42.179,6.5109997 36.47,8.537 C36.479004,7.8809996 36.498,7.286 36.531998,6.792 C33.43199,8.032 28.054,10.62 26.681992,11.829 C26.537994,12.363001 26.401993,13.054001 26.271988,13.838 C24.694992,14.973001 23.205994,16.214 21.819992,17.58 C8.492996,30.717 8.647995,49.685997 8.6609955,50.488 C8.677994,51.507 7.925003,57.666 12.9079895,58.5 C42.455994,54.833 75.75899,56.368 98.63199,58.833 C103.26999,59.333 102.59898,52.021 103.24899,50.109 C103.226,47.261 102.559006,29.871 90.091,17.582 "/>
<path id="eight" fill="#BF840E" d="M75.380005,6.793 C78.48001,8.033 83.858,10.621 85.23001,11.83 C86.08002,14.984 86.70801,23.151001 86.709015,28.48 C87.51401,22.656 87.56502,14.471 86.56302,10.250999 C83.46101,7.7169995 77.456024,4.9179993 73.472015,3.6009994 C72.40802,4.6339993 71.66402,5.9069996 71.66402,5.9069996 S72.88202,6.194 73.52501,6.4339995 C73.884,10.289999 74.55501,17.68 74.90201,22.137 C75.261,16.964 75.599,9.977 75.380005,6.793 "/>
<path id="nine" fill="#BF840E" d="M38.43901,3.6 C34.455017,4.917 28.335007,8.003 25.210007,10.034 C24.209,14.255001 24.39801,22.656 25.202011,28.48 C25.203018,23.151 25.831009,14.983999 26.681015,11.83 C28.054016,10.621 33.431015,8.033 36.53102,6.7929997 C36.312027,9.976999 36.650024,16.963999 37.008026,22.135 C37.355026,17.678001 38.02603,10.2890005 38.385025,6.432 C39.02803,6.1920004 40.246017,5.905 40.246017,5.905 S39.503998,4.632 38.43901,3.6 "/>
<path id="ten" fill="#BF840E" d="M55.95601,57.125 C62.973007,57.389 75.73201,59.043 79.52402,58.191 C79.52402,48.340004 69.084015,33.437004 68.27202,27.891003 C67.41101,22.0 66.793,7.51 65.40901,3.167 C64.89101,1.543 58.961,0.0 55.95601,0.0 C52.951004,0.0 47.020004,1.543 46.502014,3.167 C45.11801,7.51 44.500015,22.0 43.638016,27.891 C42.82602,33.437 32.38701,47.872 32.26001,58.172 C36.054,59.024 48.938004,57.389 55.95601,57.125 "/>
<linearGradient id="SVGID_6_" gradientUnits="userSpaceOnUse" x1="55.955704" y1="-40.6665" x2="55.955704" y2="73.0091">
<stop offset="5.000000e-006" style="stop-color:#F1991B"/>
<stop offset="0.1051" style="stop-color:#F2A223"/>
<stop offset="0.7008" style="stop-color:#FAD04B"/>
<stop offset="0.9994" style="stop-color:#FDE25B"/>
</linearGradient>
<path id="eleven" fill="url(#SVGID_6_)" d="M33.29901,58.359 C34.014008,53.094 37.614014,44.29 40.686005,38.78 C43.19101,34.287 45.168,30.737999 45.541,28.190998 C45.873,25.923998 46.164993,22.475998 46.474,18.823997 C46.933,13.391997 47.503006,6.6679974 48.266006,4.0079975 C49.209,3.2 53.38301,2.0 55.95601,2.0 C58.528015,2.0 62.703003,3.2 63.64601,4.009 C64.40901,6.6689997 64.97801,13.393 65.43802,18.825 C65.747025,22.476002 66.03902,25.925001 66.37102,28.192001 C66.74402,30.739002 68.722015,34.288002 71.22601,38.781002 C74.29802,44.291 77.89702,53.094 78.61301,58.36 C74.74501,58.851 37.166,58.851 33.29901,58.359 "/>
<linearGradient id="SVGID_7_" gradientUnits="userSpaceOnUse" x1="63.469803" y1="49.5" x2="63.469803" y2="-36.0028">
<stop offset="0.0095" style="stop-color:#FDE25B"/>
<stop offset="0.8034" style="stop-color:#FFF99B"/>
<stop offset="0.9994" style="stop-color:#FFFFAB"/>
</linearGradient>
<path id="twelve" fill="url(#SVGID_7_)" d="M54.410004,2.75 C56.98201,2.75 61.156998,3.95 62.100998,4.759 C62.864,7.4189997 63.433,14.143 63.892,19.575 C64.201004,23.226002 64.493,26.675001 64.825,28.942001 C65.198,31.489002 67.351,34.753002 70.07199,39.126 C74.19499,45.751 78.28999,58.401 78.61299,58.36 C77.897995,53.095 74.29799,44.291 71.226,38.781 C68.722,34.288 66.744,30.738998 66.371,28.191998 C66.039,25.924997 65.74701,22.476997 65.438,18.824997 C64.979004,13.392997 64.41,6.668997 63.645996,4.008997 C62.703003,3.2 58.528,2.0 55.95601,2.0 C53.431015,2.0 49.369003,3.155 48.32701,3.963 C50.041,3.335 52.614,2.75 54.410004,2.75 "/>
</g>
</svg>
