<?xml version="1.0" encoding="utf-8"?>
<!-- Generator: Adobe Illustrator 15.0.0, SVG Export Plug-In . SVG Version: 6.00 Build 0)  -->
<!DOCTYPE svg PUBLIC "-//W3C//DTD SVG 1.1//EN" "http://www.w3.org/Graphics/SVG/1.1/DTD/svg11.dtd">
<svg version="1.1" id="Helmet" xmlns="http://www.w3.org/2000/svg" xmlns:xlink="http://www.w3.org/1999/xlink" x="0px" y="0px" width="314.207px" height="755.63px" viewBox="0 0 314.207 755.63" enable-background="new 0 0 314.207 755.63" xml:space="preserve">
<g>
<path id="one" fill="#BF840E" d="M3.0370026,61.5 C2.8700027,58.75 3.1620026,50.417 3.5790024,47.917 C5.9120026,46.25 9.16201,45.0 9.829002,44.834 C9.99601,46.334 10.99601,58.167 10.99601,59.334 C10.234001,59.418 4.2870026,61.25 3.0370026,61.5 "/>
<linearGradient id="SVGID_1_" gradientUnits="userSpaceOnUse" x1="132.835" y1="57.7017" x2="116.96" y2="46.4517">
<stop  offset="5.000000e-006" style="stop-color:#F1991B"/>
<stop  offset="0.636" style="stop-color:#F9C13B"/>
<stop  offset="1" style="stop-color:#FDD349"/>
</linearGradient>
<path id="thirteen" fill="url(#SVGID_1_)" d="M4.4480057,59.053 C4.6100082,56.0 5.0790024,51.510002 5.423004,49.087 C6.2970047,48.536003 7.2490005,48.050003 8.084007,47.667004 C8.348015,50.678005 8.732002,55.348003 8.905006,57.791004 C8.21801,57.979004 7.295006,58.242004 6.0350037,58.602005 C5.525009,58.747 4.975006,58.904 4.4480057,59.053 "/>
<path id="two" fill="#BF840E" d="M108.482,61.5 C108.64901,58.75 108.357,50.417 107.939995,47.917 C105.607,46.25 102.35699,45.0 101.689995,44.834 C101.52299,46.334 100.52299,58.167 100.52299,59.334 C101.28501,59.418 107.23101,61.25 108.482,61.5 "/>
<linearGradient id="SVGID_2_" gradientUnits="userSpaceOnUse" x1="133.8354" y1="57.7021" x2="117.9605" y2="46.4522" gradientTransform="matrix(-1 0 0 1 353.4023 0)">
<stop  offset="5.000000e-006" style="stop-color:#F1991B"/>
<stop  offset="0.636" style="stop-color:#F9C13B"/>
<stop  offset="1" style="stop-color:#FDD349"/>
</linearGradient>
<path id="three" fill="url(#SVGID_2_)" d="M107.07,59.053 C106.908,56.0 106.439,51.510002 106.09499,49.087 C105.221,48.536003 104.26899,48.050003 103.434,47.667004 C103.16999,50.678005 102.786,55.348003 102.613,57.791004 C103.299995,57.979004 104.223,58.242004 105.482994,58.602005 C105.993004,58.747 106.54301,58.904 107.07,59.053 "/>
<path id="four" fill="#BF840E" d="M55.758003,70.303 C61.864998,70.303 87.085,72.023 95.26101,71.164 C101.960014,70.781 105.11201,68.996 111.51501,68.708 C111.614006,67.179 111.713005,64.599 111.51501,63.834 C110.038,62.592 105.047005,58.641 104.786,52.625 C104.286,41.125 102.551,3.4900017 55.758003,3.4900017 S6.9950027,42.070004 6.9950027,51.25 C6.9950027,57.333 1.4780045,62.592 0.0,63.834 C-0.1969986,64.599 -0.09799957,67.179 0.0,68.708 C6.403,68.995 9.555,70.781 16.254997,71.164 C24.432,72.023 49.65,70.303 55.758003,70.303 "/>
<linearGradient id="SVGID_3_" gradientUnits="userSpaceOnUse" x1="176.2007" y1="30.25" x2="176.2007" y2="80.5">
<stop  offset="5.000000e-006" style="stop-color:#F1991B"/>
<stop  offset="0.636" style="stop-color:#F9C13B"/>
<stop  offset="1" style="stop-color:#FDD349"/>
</linearGradient>
<path id="five" fill="url(#SVGID_3_)" d="M88.605,69.405 C82.169,69.405 73.462,69.012 66.465996,68.696 C61.607002,68.477 57.767998,68.303 55.757988,68.303 S49.90798,68.476 45.04899,68.696 C38.053993,69.012 29.347984,69.405 22.911995,69.405 H22.910988 C20.08599,69.405 17.920982,69.327995 16.476982,69.176 C13.217979,68.987 10.935982,68.488 8.519981,67.961006 C6.526985,67.52501 4.478981,67.078 1.9709854,66.841 C1.9419861,65.965004 1.9409866,65.241005 1.9609833,64.777 C4.2119827,62.514 8.561989,56.557 8.46299,50.489 C8.449989,49.687 8.294991,30.717999 21.621986,17.580997 C29.760979,9.558997 41.245995,5.4909973 55.75698,5.4909973 C70.268974,5.4909973 81.75498,9.558997 89.89298,17.581997 C103.21998,30.718998 103.06399,49.686996 103.05099,50.487995 C102.95199,56.556995 107.304985,62.516994 109.554985,64.77899 C109.57499,65.23699 109.57299,65.96199 109.54398,66.841995 C107.03599,67.077995 104.98698,67.52599 102.99398,67.962 C100.57899,68.49 98.29798,68.989 95.13998,69.169 C93.59501,69.328 91.43,69.405 88.605,69.405 "/>
<linearGradient id="SVGID_4_" gradientUnits="userSpaceOnUse" x1="176.103" y1="72.791" x2="176.2839" y2="61.764">
<stop  offset="0.0095" style="stop-color:#FDE25B"/>
<stop  offset="0.8034" style="stop-color:#FFF99B"/>
<stop  offset="0.9994" style="stop-color:#FFFFAB"/>
</linearGradient>
<path id="six" fill="url(#SVGID_4_)" d="M96.178,68.003 C94.592,68.168 92.37,68.247 89.471,68.247 C82.866005,68.247 73.92901,67.844 66.749,67.519005 C61.762,67.29401 57.823006,67.116005 55.758995,67.116005 S49.75599,67.29401 44.767998,67.519005 C37.588005,67.843 28.652992,68.247 22.047997,68.247 H22.04699 C19.147987,68.247 16.925987,68.168 15.442986,68.012 C12.097984,67.818 1.9599838,66.453 1.9729843,66.842 C4.4809875,67.078 6.528984,67.526 8.52198,67.962006 C10.937981,68.490005 13.2189865,68.98801 16.478981,69.177 C17.922981,69.329 20.087975,69.406 22.912987,69.406 H22.913994 C29.349998,69.406 38.055992,69.013 45.050987,68.697 C49.90998,68.478 53.748985,68.304 55.759987,68.304 S61.608986,68.477 66.46798,68.697 C73.46398,69.013 82.17098,69.406 88.60699,69.406 C91.431984,69.406 93.595985,69.328995 95.14199,69.169 C98.299995,68.989 100.580986,68.49 102.995995,67.962 C104.99,67.526 107.03799,67.078995 109.546,66.841995 C109.55801,66.451 99.41801,67.818 96.178,68.003 "/>
<linearGradient id="SVGID_5_" gradientUnits="userSpaceOnUse" x1="176.1846" y1="-19.8335" x2="176.1846" y2="93.6715">
<stop  offset="5.000000e-006" style="stop-color:#F1991B"/>
<stop  offset="0.2668" style="stop-color:#F6B836"/>
<stop  offset="0.5337" style="stop-color:#FACF4A"/>
<stop  offset="0.784" style="stop-color:#FCDD57"/>
<stop  offset="0.9994" style="stop-color:#FDE25B"/>
</linearGradient>
<path id="seven" fill="url(#SVGID_5_)" d="M89.894005,17.582 C88.50901,16.217001 87.02001,14.976001 85.443,13.84 C85.312996,13.056 85.176994,12.364 85.033,11.83 C83.659996,10.621 78.283,8.033 75.18299,6.7929997 C75.21699,7.2869997 75.235985,7.882 75.24499,8.538 C69.536,6.511 63.027,5.49 55.758003,5.49 C48.489998,5.49 41.982002,6.5109997 36.273003,8.537 C36.282005,7.8809996 36.301003,7.286 36.335,6.792 C33.234993,8.032 27.857002,10.62 26.484993,11.829 C26.340996,12.363001 26.204994,13.054001 26.07499,13.838 C24.497993,14.973001 23.008995,16.214 21.622993,17.58 C8.295998,30.717 8.450996,49.685997 8.463997,50.488 C8.480995,51.507 7.7280045,57.666 12.710991,58.5 C42.258995,54.833 75.56199,56.368 98.43499,58.833 C103.07299,59.333 102.401985,52.021 103.051994,50.109 C103.029,47.261 102.36201,29.871 89.894005,17.582 "/>
<path id="eight" fill="#BF840E" d="M75.18301,6.793 C78.28301,8.033 83.661,10.621 85.03301,11.83 C85.88302,14.984 86.51101,23.151001 86.51202,28.48 C87.31701,22.656 87.36802,14.471 86.36602,10.250999 C83.264015,7.7169995 77.259026,4.9179993 73.27502,3.6009994 C72.21102,4.6339993 71.46702,5.9069996 71.46702,5.9069996 S72.68502,6.194 73.32801,6.4339995 C73.687004,10.289999 74.35801,17.68 74.70501,22.137 C75.064,16.964 75.402,9.977 75.18301,6.793 "/>
<path id="nine" fill="#BF840E" d="M38.242012,3.6 C34.25802,4.917 28.138008,8.003 25.013008,10.034 C24.012001,14.255001 24.201012,22.656 25.005013,28.48 C25.00602,23.151 25.63401,14.983999 26.484016,11.83 C27.857018,10.621 33.234016,8.033 36.334023,6.7929997 C36.11503,9.976999 36.453026,16.963999 36.811028,22.135 C37.158028,17.678001 37.829033,10.2890005 38.188026,6.432 C38.83103,6.1920004 40.04902,5.905 40.04902,5.905 S39.307,4.632 38.242012,3.6 "/>
<path id="ten" fill="#BF840E" d="M55.75901,57.125 C62.77601,57.389 75.53501,59.043 79.32702,58.191 C79.32702,48.340004 68.88702,33.437004 68.07502,27.891003 C67.21401,22.0 66.596,7.51 65.21201,3.167 C64.69401,1.543 58.764,0.0 55.75901,0.0 C52.754005,0.0 46.823006,1.543 46.305016,3.167 C44.921013,7.51 44.303017,22.0 43.441017,27.891 C42.62902,33.437 32.19001,47.872 32.06301,58.172 C35.857002,59.024 48.741005,57.389 55.75901,57.125 "/>
<linearGradient id="SVGID_6_" gradientUnits="userSpaceOnUse" x1="176.2007" y1="-40.6665" x2="176.2007" y2="73.0091">
<stop  offset="5.000000e-006" style="stop-color:#F1991B"/>
<stop  offset="0.1051" style="stop-color:#F2A223"/>
<stop  offset="0.7008" style="stop-color:#FAD04B"/>
<stop  offset="0.9994" style="stop-color:#FDE25B"/>
</linearGradient>
<path id="eleven" fill="url(#SVGID_6_)" d="M33.102013,58.359 C33.81701,53.094 37.417015,44.29 40.489006,38.78 C42.99401,34.287 44.971,30.737999 45.344,28.190998 C45.676003,25.923998 45.967995,22.475998 46.277,18.823997 C46.736,13.391997 47.306007,6.6679974 48.069008,4.0079975 C49.012,3.2 53.186012,2.0 55.75901,2.0 C58.331017,2.0 62.506004,3.2 63.449013,4.009 C64.21201,6.6689997 64.78101,13.393 65.24102,18.825 C65.550026,22.476002 65.84202,25.925001 66.17402,28.192001 C66.54702,30.739002 68.52502,34.288002 71.029015,38.781002 C74.10102,44.291 77.70002,53.094 78.41601,58.36 C74.54801,58.851 36.969,58.851 33.102013,58.359 "/>
<linearGradient id="SVGID_7_" gradientUnits="userSpaceOnUse" x1="183.7148" y1="49.5" x2="183.7148" y2="-36.0028">
<stop  offset="0.0095" style="stop-color:#FDE25B"/>
<stop  offset="0.8034" style="stop-color:#FFF99B"/>
<stop  offset="0.9994" style="stop-color:#FFFFAB"/>
</linearGradient>
<path id="twelve" fill="url(#SVGID_7_)" d="M54.213005,2.75 C56.78501,2.75 60.96,3.95 61.904,4.759 C62.667,7.4189997 63.236,14.143 63.695,19.575 C64.004005,23.226002 64.296,26.675001 64.628,28.942001 C65.001,31.489002 67.154,34.753002 69.87499,39.126 C73.99799,45.751 78.092995,58.401 78.41599,58.36 C77.701,53.095 74.10099,44.291 71.029,38.781 C68.525,34.288 66.547005,30.738998 66.174,28.191998 C65.842,25.924997 65.55001,22.476997 65.241005,18.824997 C64.782005,13.392997 64.213005,6.668997 63.448997,4.008997 C62.506004,3.2 58.331,2.0 55.75901,2.0 C53.234016,2.0 49.172005,3.155 48.130013,3.963 C49.844,3.335 52.417,2.75 54.213005,2.75 "/>
</g>
</svg>
