<?xml version="1.0" encoding="utf-8"?>
<!--Generator: Adobe Illustrator 15.0.0, SVG Export Plug-In . SVG Version: 6.00 Build 0)-->
<!DOCTYPE svg PUBLIC "-//W3C//DTD SVG 1.1//EN" "http://www.w3.org/Graphics/SVG/1.1/DTD/svg11.dtd">
<svg version="1.1" id="Helmet_noise" xmlns="http://www.w3.org/2000/svg" xmlns:xlink="http://www.w3.org/1999/xlink" x="0px" y="0px" width="314.207px" height="755.63px" viewBox="0 0 314.207 755.63" enable-background="new 0 0 314.207 755.63" xml:space="preserve">
<g>
<path fill="#730E11" d="M235.586,102.468 C235.524,103.254005 234.836,103.842 234.05,103.781006 L228.432,103.342 C227.64601,103.28001 227.057,102.592 227.119,101.806 L227.71901,94.131 C227.781,93.34499 228.46901,92.756 229.255,92.81799 L234.873,93.256996 C235.659,93.31899 236.247,94.006996 236.185,94.793 L235.586,102.468 "/>
<path d="M234.898,92.442 C234.907,92.324005 235.045,92.238 235.207,92.25 L238.824,92.524 C238.98601,92.536 239.10901,92.643005 239.1,92.761 L238.16301,105.093 C238.154,105.212006 238.016,105.298004 237.854,105.286 L234.237,105.012 C234.076,104.999 233.952,104.892 233.961,104.774 L234.898,92.442 "/>
<path fill="#730E11" d="M117.057,102.468 C117.118996,103.254005 117.807,103.842 118.593,103.781006 L124.211,103.342 C124.997,103.28001 125.586,102.592 125.524,101.806 L124.924,94.131 C124.86201,93.34499 124.174,92.756 123.388,92.81799 L117.770004,93.256996 C116.984,93.31899 116.396,94.006996 116.45801,94.793 L117.057,102.468 "/>
<path d="M117.744,92.442 C117.735,92.324005 117.597,92.238 117.435005,92.25 L113.81801,92.524 C113.656006,92.536 113.533005,92.643005 113.54201,92.761 L114.479004,105.093 C114.48801,105.212006 114.62601,105.298004 114.788,105.286 L118.405,105.012 C118.566,104.999 118.69,104.892 118.681,104.774 L117.744,92.442 "/>
<path d="M124.604,50.167 C124.437,47.167 124.270996,38.667 124.604,35.334 C125.937,34.001 135.437,28.334 136.271,28.001 C135.938,32.168 135.271,45.168 135.271,46.168 C133.437,46.833 126.77,49.5 124.604,50.167 "/>
<g>
<path d="M115.693,108.456 C115.529,106.793 111.687004,67.645004 111.687004,60.5 V60.223 L111.804,59.972 C114.267,54.694 123.403,40.591 127.321,36.02 L129.219,37.647 C125.18199,42.356 116.589,55.801 114.187996,60.778 C114.284,68.520996 118.141,107.81 118.17999,108.211 L115.693,108.456 "/>
</g>
<path d="M227.799,50.167 C227.966,47.167 228.13199,38.667 227.799,35.334 C226.466,34.001 216.966,28.334 216.13199,28.001 C216.46498,32.168 217.13199,45.168 217.13199,46.168 C218.965,46.833 225.632,49.5 227.799,50.167 "/>
<g>
<path d="M236.709,108.456 L234.221,108.211 C234.26099,107.81 238.11699,68.520996 238.213,60.778 C235.812,55.801 227.219,42.357002 223.18199,37.647 L225.07999,36.02 C228.99799,40.591 238.13399,54.693 240.59698,59.972 L240.71399,60.223 V60.5 C240.715,67.646 236.873,106.793 236.709,108.456 "/>
</g>
<path fill="#730E11" d="M221.895,73.625 C224.645,74.5 231.27,79.0 235.103,83.167 C236.103,90.042 232.52,112.334 230.26999,116.334 C227.60298,117.834 221.26999,119.501 217.76999,119.001 C218.02,117.125 221.645,75.125 221.895,73.625 "/>
<path fill="#AB181D" d="M219.972,117.066 C220.264,113.941 220.817,107.714005 221.583,99.076004 C222.306,90.926 223.16199,81.269005 223.59799,76.638 C226.36299,78.221 230.37299,81.131 233.19699,84.059 C233.86899,91.099 230.63599,110.42 228.762,114.862 C226.684,115.854 222.858,116.895 219.972,117.066 "/>
<path fill="#C9181E" d="M233.196,84.059 C230.373,81.131 226.362,78.221 223.597,76.638 C223.161,81.269 222.305,90.926 221.582,99.076004 C221.561,99.30801 221.541,99.532005 221.521,99.76 C225.021,100.274 228.466,100.51 231.90599,100.604004 C232.88,94.288 233.535,87.611 233.196,84.059 "/>
<path d="M222.207,118.628 C222.065,119.797 220.975,120.619995 219.775,120.466995 C218.991,120.368 218.206,120.27 217.422,120.172 C216.221,120.021996 215.366,118.966995 215.504,117.814995 C217.224,103.494995 218.334,89.061 218.81999,74.550995 C218.859,73.384995 219.866,72.467995 221.075,72.503 C221.86499,72.528 222.65599,72.553 223.446,72.578995 C224.65399,72.616 225.606,73.607994 225.567,74.79199 C225.074,89.493 223.95,104.118 222.207,118.628 "/>
<linearGradient id="SVGID_1_" gradientUnits="userSpaceOnUse" x1="221.4268" y1="89.8564" x2="223.6767" y2="48.1064">
<stop offset="0.0095" style="stop-color:#000000"/>
<stop offset="0.4394" style="stop-color:#404040"/>
<stop offset="0.9994" style="stop-color:#999999"/>
</linearGradient>
<path fill="url(#SVGID_1_)" d="M224.567,74.759 C224.577,74.463005 224.468,74.177 224.26,73.957 C224.041,73.723 223.73999,73.589005 223.413,73.579 L221.00699,73.503006 C220.361,73.503006 219.83998,73.979004 219.81898,74.586006 C219.62398,80.397 219.32199,86.231 218.92398,92.062004 L223.68498,92.09901 C224.077,86.313 224.374,80.525 224.567,74.759 "/>
<path fill="#730E11" d="M131.812,73.625 C129.062,74.5 122.437,79.0 118.604,83.167 C117.604,90.042 121.187,112.334 123.437,116.334 C126.104,117.834 132.437,119.501 135.937,119.001 C135.687,117.125 132.062,75.125 131.812,73.625 "/>
<path fill="#AB181D" d="M133.735,117.066 C133.443,113.941 132.89,107.714005 132.12401,99.076004 C131.401,90.926 130.54501,81.269005 130.10901,76.638 C127.34401,78.221 123.33401,81.131 120.51001,84.059 C119.83801,91.099 123.07101,110.42 124.94501,114.862 C127.023,115.854 130.849,116.895 133.735,117.066 "/>
<path fill="#C9181E" d="M120.511,84.059 C123.334,81.131 127.345,78.221 130.11,76.638 C130.546,81.269 131.40201,90.926 132.125,99.076004 C132.146,99.30801 132.166,99.532005 132.186,99.76 C128.686,100.274 125.241005,100.51 121.801,100.604004 C120.827,94.288 120.172,87.611 120.511,84.059 "/>
<path d="M131.5,118.628 C131.642,119.797 132.732,120.619995 133.932,120.466995 C134.716,120.368 135.501,120.27 136.285,120.172 C137.48601,120.021996 138.341,118.966995 138.203,117.814995 C136.483,103.494995 135.373,89.061 134.88701,74.550995 C134.848,73.384995 133.841,72.467995 132.632,72.503 C131.84201,72.528 131.05101,72.553 130.261,72.578995 C129.05301,72.616 128.101,73.607994 128.14,74.79199 C128.633,89.493 129.757,104.118 131.5,118.628 "/>
<linearGradient id="SVGID_2_" gradientUnits="userSpaceOnUse" x1="220.5518" y1="89.8564" x2="222.8017" y2="48.1075" gradientTransform="matrix(-1 0 0 1 352.707 0)">
<stop offset="0.0095" style="stop-color:#000000"/>
<stop offset="0.4394" style="stop-color:#404040"/>
<stop offset="0.9994" style="stop-color:#999999"/>
</linearGradient>
<path fill="url(#SVGID_2_)" d="M129.015,74.759 C129.005,74.463005 129.114,74.177 129.322,73.957 C129.541,73.723 129.84201,73.589005 130.169,73.579 L132.57501,73.503006 C133.22101,73.503006 133.74202,73.979004 133.76302,74.586006 C133.95802,80.397 134.26001,86.231 134.65802,92.062004 L129.89702,92.09901 C129.505,86.313 129.208,80.525 129.015,74.759 "/>
<path fill="#BF840E" d="M123.479,61.5 C123.312,58.75 123.604,50.417 124.020996,47.917 C126.354,46.25 129.604,45.0 130.271,44.834 C130.438,46.334 131.438,58.167 131.438,59.334 C130.676,59.418 124.729,61.25 123.479,61.5 "/>
<linearGradient id="SVGID_3_" gradientUnits="userSpaceOnUse" x1="132.835" y1="57.7017" x2="116.96" y2="46.4517">
<stop offset="5.000000e-006" style="stop-color:#F1991B"/>
<stop offset="0.636" style="stop-color:#F9C13B"/>
<stop offset="1" style="stop-color:#FDD349"/>
</linearGradient>
<path fill="url(#SVGID_3_)" d="M124.89,59.053 C125.052,56.0 125.520996,51.510002 125.865,49.087 C126.739,48.536003 127.690994,48.050003 128.526,47.667004 C128.79001,50.678005 129.174,55.348003 129.347,57.791004 C128.66,57.979004 127.737,58.242004 126.477,58.602005 C125.967,58.747 125.417,58.904 124.89,59.053 "/>
<path fill="#BF840E" d="M228.924,61.5 C229.091,58.75 228.799,50.417 228.38199,47.917 C226.049,46.25 222.79898,45.0 222.13199,44.834 C221.96498,46.334 220.96498,58.167 220.96498,59.334 C221.727,59.418 227.673,61.25 228.924,61.5 "/>
<linearGradient id="SVGID_4_" gradientUnits="userSpaceOnUse" x1="133.8354" y1="57.7021" x2="117.9605" y2="46.4522" gradientTransform="matrix(-1 0 0 1 353.402 0)">
<stop offset="5.000000e-006" style="stop-color:#F1991B"/>
<stop offset="0.636" style="stop-color:#F9C13B"/>
<stop offset="1" style="stop-color:#FDD349"/>
</linearGradient>
<path fill="url(#SVGID_4_)" d="M227.512,59.053 C227.34999,56.0 226.881,51.510002 226.53699,49.087 C225.663,48.536003 224.71098,48.050003 223.87599,47.667004 C223.61198,50.678005 223.228,55.348003 223.055,57.791004 C223.74199,57.979004 224.665,58.242004 225.92499,58.602005 C226.435,58.747 226.985,58.904 227.512,59.053 "/>
<path fill="#BF840E" d="M176.2,70.303 C182.30699,70.303 207.527,72.023 215.703,71.164 C222.40201,70.781 225.554,68.996 231.957,68.708 C232.056,67.179 232.155,64.599 231.957,63.834 C230.48,62.592 225.489,58.641 225.228,52.625 C224.728,41.125 222.993,3.4900017 176.2,3.4900017 S127.437,42.070004 127.437,51.25 C127.437,57.333 121.92,62.592 120.44199,63.834 C120.244995,64.599 120.343994,67.179 120.44199,68.708 C126.84499,68.995 129.997,70.781 136.69699,71.164 C144.874,72.023 170.092,70.303 176.2,70.303 "/>
<linearGradient id="SVGID_5_" gradientUnits="userSpaceOnUse" x1="176.2007" y1="30.25" x2="176.2007" y2="80.5">
<stop offset="5.000000e-006" style="stop-color:#F1991B"/>
<stop offset="0.636" style="stop-color:#F9C13B"/>
<stop offset="1" style="stop-color:#FDD349"/>
</linearGradient>
<path fill="url(#SVGID_5_)" d="M209.047,69.405 C202.611,69.405 193.90399,69.012 186.90799,68.696 C182.049,68.477 178.20999,68.303 176.19998,68.303 S170.34998,68.476 165.49098,68.696 C158.49599,69.012 149.78998,69.405 143.35399,69.405 H143.35298 C140.52798,69.405 138.36298,69.327995 136.91898,69.176 C133.65997,68.987 131.37798,68.488 128.96198,67.961006 C126.96898,67.52501 124.920975,67.078 122.41298,66.841 C122.38398,65.965004 122.38298,65.241005 122.40298,64.777 C124.65398,62.514 129.00398,56.557 128.90498,50.489 C128.89198,49.687 128.73698,30.717999 142.06398,17.580997 C150.20297,9.558997 161.68799,5.4909973 176.19897,5.4909973 C190.71097,5.4909973 202.19698,9.558997 210.33498,17.581997 C223.66197,30.718998 223.50598,49.686996 223.49298,50.487995 C223.39398,56.556995 227.74698,62.516994 229.99698,64.77899 C230.01698,65.23699 230.01498,65.96199 229.98598,66.841995 C227.47798,67.077995 225.42897,67.52599 223.43597,67.962 C221.02098,68.49 218.73997,68.989 215.58197,69.169 C214.037,69.328 211.872,69.405 209.047,69.405 "/>
<linearGradient id="SVGID_6_" gradientUnits="userSpaceOnUse" x1="176.103" y1="72.791" x2="176.2839" y2="61.764">
<stop offset="0.0095" style="stop-color:#FDE25B"/>
<stop offset="0.8034" style="stop-color:#FFF99B"/>
<stop offset="0.9994" style="stop-color:#FFFFAB"/>
</linearGradient>
<path fill="url(#SVGID_6_)" d="M216.62,68.003 C215.034,68.168 212.812,68.247 209.913,68.247 C203.308,68.247 194.371,67.844 187.191,67.519005 C182.204,67.29401 178.265,67.116005 176.20099,67.116005 S170.19798,67.29401 165.20999,67.519005 C158.03,67.843 149.09499,68.247 142.48999,68.247 H142.48898 C139.58998,68.247 137.36798,68.168 135.88498,68.012 C132.53998,67.818 122.40198,66.453 122.41498,66.842 C124.92298,67.078 126.97098,67.526 128.96397,67.962006 C131.37997,68.490005 133.66098,68.98801 136.92097,69.177 C138.36497,69.329 140.52997,69.406 143.35498,69.406 H143.35599 C149.79199,69.406 158.49799,69.013 165.49298,68.697 C170.35197,68.478 174.19098,68.304 176.20198,68.304 S182.05098,68.477 186.90997,68.697 C193.90598,69.013 202.61298,69.406 209.04898,69.406 C211.87398,69.406 214.03798,69.328995 215.58398,69.169 C218.74199,68.989 221.02298,68.49 223.43799,67.962 C225.43199,67.526 227.47998,67.078995 229.98799,66.841995 C230,66.451 219.86,67.818 216.62,68.003 "/>
<linearGradient id="SVGID_7_" gradientUnits="userSpaceOnUse" x1="176.1846" y1="-19.8335" x2="176.1846" y2="93.6715">
<stop offset="5.000000e-006" style="stop-color:#F1991B"/>
<stop offset="0.2668" style="stop-color:#F6B836"/>
<stop offset="0.5337" style="stop-color:#FACF4A"/>
<stop offset="0.784" style="stop-color:#FCDD57"/>
<stop offset="0.9994" style="stop-color:#FDE25B"/>
</linearGradient>
<path fill="url(#SVGID_7_)" d="M210.336,17.582 C208.951,16.217001 207.462,14.976001 205.885,13.84 C205.75499,13.056 205.61899,12.364 205.47499,11.83 C204.10199,10.621 198.72499,8.033 195.62498,6.7929997 C195.65898,7.2869997 195.67798,7.882 195.68698,8.538 C189.978,6.511 183.469,5.49 176.2,5.49 C168.93199,5.49 162.424,6.5109997 156.715,8.537 C156.724,7.8809996 156.743,7.286 156.777,6.792 C153.67699,8.032 148.299,10.62 146.92699,11.829 C146.78299,12.363001 146.64699,13.054001 146.51698,13.838 C144.93999,14.973001 143.45099,16.214 142.06499,17.58 C128.73799,30.717 128.89299,49.685997 128.90599,50.488 C128.92299,51.507 128.17,57.666 133.15298,58.5 C162.70099,54.833 196.00398,56.368 218.87698,58.833 C223.51498,59.333 222.84398,52.021 223.49399,50.109 C223.471,47.261 222.804,29.871 210.336,17.582 "/>
<path fill="#BF840E" d="M195.625,6.793 C198.725,8.033 204.103,10.621 205.475,11.83 C206.32501,14.984 206.953,23.151001 206.95401,28.48 C207.759,22.656 207.81001,14.471 206.80801,10.250999 C203.70601,7.7169995 197.70102,4.9179993 193.71701,3.6009994 C192.65302,4.6339993 191.90901,5.9069996 191.90901,5.9069996 S193.12701,6.194 193.77,6.4339995 C194.129,10.289999 194.8,17.68 195.147,22.137 C195.506,16.964 195.844,9.977 195.625,6.793 "/>
<path fill="#BF840E" d="M158.684,3.6 C154.70001,4.917 148.58,8.003 145.455,10.034 C144.454,14.255001 144.643,22.656 145.447,28.48 C145.44801,23.151 146.076,14.983999 146.92601,11.83 C148.29901,10.621 153.67601,8.033 156.77602,6.7929997 C156.55702,9.976999 156.89502,16.963999 157.25302,22.135 C157.60002,17.678001 158.27103,10.2890005 158.63002,6.432 C159.27303,6.1920004 160.49101,5.905 160.49101,5.905 S159.749,4.632 158.684,3.6 "/>
<path fill="#BF840E" d="M176.201,57.125 C183.218,57.389 195.977,59.043 199.76901,58.191 C199.76901,48.340004 189.32901,33.437004 188.51701,27.891003 C187.656,22 187.038,7.51 185.654,3.167 C185.136,1.543 179.206,0 176.201,0 C173.196,0.0 167.265,1.543 166.74701,3.167 C165.363,7.51 164.74501,22.0 163.88301,27.891 C163.07101,33.437 152.632,47.872 152.505,58.172 C156.299,59.024 169.183,57.389 176.201,57.125 "/>
<linearGradient id="SVGID_8_" gradientUnits="userSpaceOnUse" x1="176.2007" y1="-40.6665" x2="176.2007" y2="73.0091">
<stop offset="5.000000e-006" style="stop-color:#F1991B"/>
<stop offset="0.1051" style="stop-color:#F2A223"/>
<stop offset="0.7008" style="stop-color:#FAD04B"/>
<stop offset="0.9994" style="stop-color:#FDE25B"/>
</linearGradient>
<path fill="url(#SVGID_8_)" d="M153.544,58.359 C154.259,53.094 157.85901,44.29 160.931,38.78 C163.436,34.287 165.413,30.737999 165.786,28.190998 C166.118,25.923998 166.40999,22.475998 166.719,18.823997 C167.178,13.391997 167.748,6.6679974 168.511,4.0079975 C169.454,3.2 173.628,2 176.201,2 C178.77301,2.0 182.948,3.2 183.891,4.009 C184.654,6.6689997 185.223,13.393 185.68301,18.825 C185.99202,22.476002 186.28401,25.925001 186.61601,28.192001 C186.98901,30.739002 188.96701,34.288002 191.47101,38.781002 C194.54301,44.291 198.14201,53.094 198.858,58.36 C194.99,58.851 157.411,58.851 153.544,58.359 "/>
<linearGradient id="SVGID_9_" gradientUnits="userSpaceOnUse" x1="183.7148" y1="49.5" x2="183.7148" y2="-36.0028">
<stop offset="0.0095" style="stop-color:#FDE25B"/>
<stop offset="0.8034" style="stop-color:#FFF99B"/>
<stop offset="0.9994" style="stop-color:#FFFFAB"/>
</linearGradient>
<path fill="url(#SVGID_9_)" d="M174.655,2.75 C177.227,2.75 181.402,3.95 182.346,4.759 C183.109,7.4189997 183.678,14.143 184.137,19.575 C184.446,23.226002 184.73799,26.675001 185.06999,28.942001 C185.443,31.489002 187.596,34.753002 190.31699,39.126 C194.43999,45.751 198.53499,58.401 198.85799,58.36 C198.14299,53.095 194.54298,44.291 191.471,38.781 C188.967,34.288 186.989,30.738998 186.616,28.191998 C186.284,25.924997 185.992,22.476997 185.683,18.824997 C185.224,13.392997 184.655,6.668997 183.89099,4.008997 C182.948,3.2 178.773,2 176.201,2 C173.67601,2.0 169.614,3.155 168.572,3.963 C170.286,3.335 172.859,2.75 174.655,2.75 "/>
</g>
</svg>
