<?xml version="1.0" encoding="utf-8"?>
<!--Generator: Adobe Illustrator 15.0.0, SVG Export Plug-In . SVG Version: 6.00 Build 0)-->
<!DOCTYPE svg PUBLIC "-//W3C//DTD SVG 1.1//EN" "http://www.w3.org/Graphics/SVG/1.1/DTD/svg11.dtd">
<svg version="1.1" id="Helmet" xmlns="http://www.w3.org/2000/svg" xmlns:xlink="http://www.w3.org/1999/xlink" x="0px" y="0px" width="314.207px" height="755.63px" viewBox="0 0 314.207 755.63" enable-background="new 0 0 314.207 755.63" xml:space="preserve">
<g>
<path id="one" fill="#BF840E" d="M123.479,61.5 C123.312,58.75 123.604,50.417 124.020996,47.917 C126.354,46.25 129.604,45.0 130.271,44.834 C130.438,46.334 131.438,58.167 131.438,59.334 C130.676,59.418 124.729,61.25 123.479,61.5 "/>
<linearGradient id="SVGID_1_" gradientUnits="userSpaceOnUse" x1="132.835" y1="57.7017" x2="116.96" y2="46.4517">
<stop offset="5.000000e-006" style="stop-color:#F1991B"/>
<stop offset="0.636" style="stop-color:#F9C13B"/>
<stop offset="1" style="stop-color:#FDD349"/>
</linearGradient>
<path id="thirteen" fill="url(#SVGID_1_)" d="M124.89,59.053 C125.052,56.0 125.520996,51.510002 125.865,49.087 C126.739,48.536003 127.690994,48.050003 128.526,47.667004 C128.79001,50.678005 129.174,55.348003 129.347,57.791004 C128.66,57.979004 127.737,58.242004 126.477,58.602005 C125.967,58.747 125.417,58.904 124.89,59.053 "/>
<path id="two" fill="#BF840E" d="M228.924,61.5 C229.091,58.75 228.799,50.417 228.38199,47.917 C226.049,46.25 222.79898,45.0 222.13199,44.834 C221.96498,46.334 220.96498,58.167 220.96498,59.334 C221.727,59.418 227.673,61.25 228.924,61.5 "/>
<linearGradient id="SVGID_2_" gradientUnits="userSpaceOnUse" x1="133.8354" y1="57.7021" x2="117.9605" y2="46.4522" gradientTransform="matrix(-1 0 0 1 353.402 0)">
<stop offset="5.000000e-006" style="stop-color:#F1991B"/>
<stop offset="0.636" style="stop-color:#F9C13B"/>
<stop offset="1" style="stop-color:#FDD349"/>
</linearGradient>
<path id="three" fill="url(#SVGID_2_)" d="M227.512,59.053 C227.34999,56.0 226.881,51.510002 226.53699,49.087 C225.663,48.536003 224.71098,48.050003 223.87599,47.667004 C223.61198,50.678005 223.228,55.348003 223.055,57.791004 C223.74199,57.979004 224.665,58.242004 225.92499,58.602005 C226.435,58.747 226.985,58.904 227.512,59.053 "/>
<path id="four" fill="#BF840E" d="M176.2,70.303 C182.30699,70.303 207.527,72.023 215.703,71.164 C222.40201,70.781 225.554,68.996 231.957,68.708 C232.056,67.179 232.155,64.599 231.957,63.834 C230.48,62.592 225.489,58.641 225.228,52.625 C224.728,41.125 222.993,3.4900017 176.2,3.4900017 S127.437,42.070004 127.437,51.25 C127.437,57.333 121.92,62.592 120.44199,63.834 C120.244995,64.599 120.343994,67.179 120.44199,68.708 C126.84499,68.995 129.997,70.781 136.69699,71.164 C144.874,72.023 170.092,70.303 176.2,70.303 "/>
<linearGradient id="SVGID_3_" gradientUnits="userSpaceOnUse" x1="176.2007" y1="30.25" x2="176.2007" y2="80.5">
<stop offset="5.000000e-006" style="stop-color:#F1991B"/>
<stop offset="0.636" style="stop-color:#F9C13B"/>
<stop offset="1" style="stop-color:#FDD349"/>
</linearGradient>
<path id="five" fill="url(#SVGID_3_)" d="M209.047,69.405 C202.611,69.405 193.90399,69.012 186.90799,68.696 C182.049,68.477 178.20999,68.303 176.19998,68.303 S170.34998,68.476 165.49098,68.696 C158.49599,69.012 149.78998,69.405 143.35399,69.405 H143.35298 C140.52798,69.405 138.36298,69.327995 136.91898,69.176 C133.65997,68.987 131.37798,68.488 128.96198,67.961006 C126.96898,67.52501 124.920975,67.078 122.41298,66.841 C122.38398,65.965004 122.38298,65.241005 122.40298,64.777 C124.65398,62.514 129.00398,56.557 128.90498,50.489 C128.89198,49.687 128.73698,30.717999 142.06398,17.580997 C150.20297,9.558997 161.68799,5.4909973 176.19897,5.4909973 C190.71097,5.4909973 202.19698,9.558997 210.33498,17.581997 C223.66197,30.718998 223.50598,49.686996 223.49298,50.487995 C223.39398,56.556995 227.74698,62.516994 229.99698,64.77899 C230.01698,65.23699 230.01498,65.96199 229.98598,66.841995 C227.47798,67.077995 225.42897,67.52599 223.43597,67.962 C221.02098,68.49 218.73997,68.989 215.58197,69.169 C214.037,69.328 211.872,69.405 209.047,69.405 "/>
<linearGradient id="SVGID_4_" gradientUnits="userSpaceOnUse" x1="176.103" y1="72.791" x2="176.2839" y2="61.764">
<stop offset="0.0095" style="stop-color:#FDE25B"/>
<stop offset="0.8034" style="stop-color:#FFF99B"/>
<stop offset="0.9994" style="stop-color:#FFFFAB"/>
</linearGradient>
<path id="six" fill="url(#SVGID_4_)" d="M216.62,68.003 C215.034,68.168 212.812,68.247 209.913,68.247 C203.308,68.247 194.371,67.844 187.191,67.519005 C182.204,67.29401 178.265,67.116005 176.20099,67.116005 S170.19798,67.29401 165.20999,67.519005 C158.03,67.843 149.09499,68.247 142.48999,68.247 H142.48898 C139.58998,68.247 137.36798,68.168 135.88498,68.012 C132.53998,67.818 122.40198,66.453 122.41498,66.842 C124.92298,67.078 126.97098,67.526 128.96397,67.962006 C131.37997,68.490005 133.66098,68.98801 136.92097,69.177 C138.36497,69.329 140.52997,69.406 143.35498,69.406 H143.35599 C149.79199,69.406 158.49799,69.013 165.49298,68.697 C170.35197,68.478 174.19098,68.304 176.20198,68.304 S182.05098,68.477 186.90997,68.697 C193.90598,69.013 202.61298,69.406 209.04898,69.406 C211.87398,69.406 214.03798,69.328995 215.58398,69.169 C218.74199,68.989 221.02298,68.49 223.43799,67.962 C225.43199,67.526 227.47998,67.078995 229.98799,66.841995 C230,66.451 219.86,67.818 216.62,68.003 "/>
<linearGradient id="SVGID_5_" gradientUnits="userSpaceOnUse" x1="176.1846" y1="-19.8335" x2="176.1846" y2="93.6715">
<stop offset="5.000000e-006" style="stop-color:#F1991B"/>
<stop offset="0.2668" style="stop-color:#F6B836"/>
<stop offset="0.5337" style="stop-color:#FACF4A"/>
<stop offset="0.784" style="stop-color:#FCDD57"/>
<stop offset="0.9994" style="stop-color:#FDE25B"/>
</linearGradient>
<path id="seven" fill="url(#SVGID_5_)" d="M210.336,17.582 C208.951,16.217001 207.462,14.976001 205.885,13.84 C205.75499,13.056 205.61899,12.364 205.47499,11.83 C204.10199,10.621 198.72499,8.033 195.62498,6.7929997 C195.65898,7.2869997 195.67798,7.882 195.68698,8.538 C189.978,6.511 183.469,5.49 176.2,5.49 C168.93199,5.49 162.424,6.5109997 156.715,8.537 C156.724,7.8809996 156.743,7.286 156.777,6.792 C153.67699,8.032 148.299,10.62 146.92699,11.829 C146.78299,12.363001 146.64699,13.054001 146.51698,13.838 C144.93999,14.973001 143.45099,16.214 142.06499,17.58 C128.73799,30.717 128.89299,49.685997 128.90599,50.488 C128.92299,51.507 128.17,57.666 133.15298,58.5 C162.70099,54.833 196.00398,56.368 218.87698,58.833 C223.51498,59.333 222.84398,52.021 223.49399,50.109 C223.471,47.261 222.804,29.871 210.336,17.582 "/>
<path id="eight" fill="#BF840E" d="M195.625,6.793 C198.725,8.033 204.103,10.621 205.475,11.83 C206.32501,14.984 206.953,23.151001 206.95401,28.48 C207.759,22.656 207.81001,14.471 206.80801,10.250999 C203.70601,7.7169995 197.70102,4.9179993 193.71701,3.6009994 C192.65302,4.6339993 191.90901,5.9069996 191.90901,5.9069996 S193.12701,6.194 193.77,6.4339995 C194.129,10.289999 194.8,17.68 195.147,22.137 C195.506,16.964 195.844,9.977 195.625,6.793 "/>
<path id="nine" fill="#BF840E" d="M158.684,3.6 C154.70001,4.917 148.58,8.003 145.455,10.034 C144.454,14.255001 144.643,22.656 145.447,28.48 C145.44801,23.151 146.076,14.983999 146.92601,11.83 C148.29901,10.621 153.67601,8.033 156.77602,6.7929997 C156.55702,9.976999 156.89502,16.963999 157.25302,22.135 C157.60002,17.678001 158.27103,10.2890005 158.63002,6.432 C159.27303,6.1920004 160.49101,5.905 160.49101,5.905 S159.749,4.632 158.684,3.6 "/>
<path id="ten" fill="#BF840E" d="M176.201,57.125 C183.218,57.389 195.977,59.043 199.76901,58.191 C199.76901,48.340004 189.32901,33.437004 188.51701,27.891003 C187.656,22 187.038,7.51 185.654,3.167 C185.136,1.543 179.206,0 176.201,0 C173.196,0.0 167.265,1.543 166.74701,3.167 C165.363,7.51 164.74501,22.0 163.88301,27.891 C163.07101,33.437 152.632,47.872 152.505,58.172 C156.299,59.024 169.183,57.389 176.201,57.125 "/>
<linearGradient id="SVGID_6_" gradientUnits="userSpaceOnUse" x1="176.2007" y1="-40.6665" x2="176.2007" y2="73.0091">
<stop offset="5.000000e-006" style="stop-color:#F1991B"/>
<stop offset="0.1051" style="stop-color:#F2A223"/>
<stop offset="0.7008" style="stop-color:#FAD04B"/>
<stop offset="0.9994" style="stop-color:#FDE25B"/>
</linearGradient>
<path id="eleven" fill="url(#SVGID_6_)" d="M153.544,58.359 C154.259,53.094 157.85901,44.29 160.931,38.78 C163.436,34.287 165.413,30.737999 165.786,28.190998 C166.118,25.923998 166.40999,22.475998 166.719,18.823997 C167.178,13.391997 167.748,6.6679974 168.511,4.0079975 C169.454,3.2 173.628,2 176.201,2 C178.77301,2.0 182.948,3.2 183.891,4.009 C184.654,6.6689997 185.223,13.393 185.68301,18.825 C185.99202,22.476002 186.28401,25.925001 186.61601,28.192001 C186.98901,30.739002 188.96701,34.288002 191.47101,38.781002 C194.54301,44.291 198.14201,53.094 198.858,58.36 C194.99,58.851 157.411,58.851 153.544,58.359 "/>
<linearGradient id="SVGID_7_" gradientUnits="userSpaceOnUse" x1="183.7148" y1="49.5" x2="183.7148" y2="-36.0028">
<stop offset="0.0095" style="stop-color:#FDE25B"/>
<stop offset="0.8034" style="stop-color:#FFF99B"/>
<stop offset="0.9994" style="stop-color:#FFFFAB"/>
</linearGradient>
<path id="twelve" fill="url(#SVGID_7_)" d="M174.655,2.75 C177.227,2.75 181.402,3.95 182.346,4.759 C183.109,7.4189997 183.678,14.143 184.137,19.575 C184.446,23.226002 184.73799,26.675001 185.06999,28.942001 C185.443,31.489002 187.596,34.753002 190.31699,39.126 C194.43999,45.751 198.53499,58.401 198.85799,58.36 C198.14299,53.095 194.54298,44.291 191.471,38.781 C188.967,34.288 186.989,30.738998 186.616,28.191998 C186.284,25.924997 185.992,22.476997 185.683,18.824997 C185.224,13.392997 184.655,6.668997 183.89099,4.008997 C182.948,3.2 178.773,2 176.201,2 C173.67601,2.0 169.614,3.155 168.572,3.963 C170.286,3.335 172.859,2.75 174.655,2.75 "/>
</g>
</svg>
