<?xml version="1.0" encoding="utf-8"?>
<!--Generator: Adobe Illustrator 15.0.0, SVG Export Plug-In . SVG Version: 6.00 Build 0)-->
<!DOCTYPE svg PUBLIC "-//W3C//DTD SVG 1.1//EN" "http://www.w3.org/Graphics/SVG/1.1/DTD/svg11.dtd">
<svg version="1.1" id="Helmet_noise" xmlns="http://www.w3.org/2000/svg" xmlns:xlink="http://www.w3.org/1999/xlink" x="0px" y="0px" width="129.02798px" height="120.619995px" viewBox="0 0 129.02798 120.619995" enable-background="new 0 0 129.02798 120.619995" xml:space="preserve">
<g>
<path fill="#730E11" d="M123.898994,102.468 C123.837,103.254005 123.148994,103.842 122.363,103.781006 L116.745,103.342 C115.95901,103.28001 115.37,102.592 115.432,101.806 L116.032005,94.131 C116.094,93.34499 116.782005,92.756 117.568,92.81799 L123.186,93.256996 C123.97199,93.31899 124.55999,94.006996 124.49799,94.793 L123.898994,102.468 "/>
<path d="M123.21099,92.442 C123.21999,92.324005 123.357994,92.238 123.52,92.25 L127.137,92.524 C127.299,92.536 127.422005,92.643005 127.413,92.761 L126.476006,105.093 C126.467,105.212006 126.329,105.298004 126.167,105.286 L122.549995,105.012 C122.389,104.999 122.26499,104.892 122.273994,104.774 L123.21099,92.442 "/>
<path fill="#730E11" d="M5.369995,102.468 C5.4319916,103.254005 6.119995,103.842 6.905998,103.781006 L12.523994,103.342 C13.309998,103.28001 13.898994,102.592 13.836998,101.806 L13.2369995,94.131 C13.175003,93.34499 12.4869995,92.756 11.700996,92.81799 L6.083,93.256996 C5.296997,93.31899 4.7089996,94.006996 4.7710037,94.793 L5.369995,102.468 "/>
<path d="M6.056999,92.442 C6.0479965,92.324005 5.909996,92.238 5.748001,92.25 L2.1310043,92.524 C1.9690018,92.536 1.8460007,92.643005 1.8550034,92.761 L2.7919998,105.093 C2.8010025,105.212006 2.939003,105.298004 3.100998,105.286 L6.7179947,105.012 C6.878998,104.999 7.0029984,104.892 6.9939957,104.774 L6.056999,92.442 "/>
<path d="M12.916992,50.167 C12.749992,47.167 12.583992,38.667 12.916992,35.334 C14.249992,34.001 23.749992,28.334 24.583992,28.001 C24.251,32.168 23.583992,45.168 23.583992,46.168 C21.749992,46.833 15.082993,49.5 12.916992,50.167 "/>
<g>
<path d="M4.0059967,108.456 C3.8419952,106.793 0.0,67.645004 0.0,60.5 V60.223 L0.116996765,59.972 C2.5799942,54.694 11.715996,40.591 15.633995,36.02 L17.53199,37.647 C13.4949875,42.356 4.901993,55.801 2.5009918,60.778 C2.5969925,68.520996 6.4539948,107.81 6.4929886,108.211 L4.0059967,108.456 "/>
</g>
<path d="M116.11199,50.167 C116.279,47.167 116.444984,38.667 116.11199,35.334 C114.779,34.001 105.279,28.334 104.444984,28.001 C104.77798,32.168 105.444984,45.168 105.444984,46.168 C107.27799,46.833 113.945,49.5 116.11199,50.167 "/>
<g>
<path d="M125.021996,108.456 L122.53399,108.211 C122.57398,107.81 126.429985,68.520996 126.52599,60.778 C124.12499,55.801 115.53199,42.357002 111.49499,37.647 L113.39298,36.02 C117.31098,40.591 126.44698,54.693 128.90997,59.972 L129.02698,60.223 V60.5 C129.02798,67.646 125.186,106.793 125.021996,108.456 "/>
</g>
<path fill="#730E11" d="M110.208,73.625 C112.958,74.5 119.583,79.0 123.41599,83.167 C124.41599,90.042 120.833,112.334 118.582985,116.334 C115.91598,117.834 109.582985,119.501 106.082985,119.001 C106.333,117.125 109.958,75.125 110.208,73.625 "/>
<path fill="#AB181D" d="M108.284996,117.066 C108.577,113.941 109.13,107.714005 109.89599,99.076004 C110.618996,90.926 111.47498,81.269005 111.91099,76.638 C114.67599,78.221 118.68598,81.131 121.50999,84.059 C122.181984,91.099 118.94898,110.42 117.07499,114.862 C114.997,115.854 111.171,116.895 108.284996,117.066 "/>
<path fill="#C9181E" d="M121.508995,84.059 C118.686,81.131 114.674995,78.221 111.909996,76.638 C111.47399,81.269 110.61799,90.926 109.895,99.076004 C109.874,99.30801 109.854,99.532005 109.83399,99.76 C113.33399,100.274 116.779,100.51 120.21899,100.604004 C121.193,94.288 121.848,87.611 121.508995,84.059 "/>
<path d="M110.52,118.628 C110.378,119.797 109.288,120.619995 108.08799,120.466995 C107.30399,120.368 106.51899,120.27 105.73499,120.172 C104.53399,120.021996 103.67899,118.966995 103.81699,117.814995 C105.536995,103.494995 106.646996,89.061 107.13299,74.550995 C107.17199,73.384995 108.17899,72.467995 109.38799,72.503 C110.177986,72.528 110.96899,72.553 111.758995,72.578995 C112.96699,72.616 113.919,73.607994 113.88,74.79199 C113.387,89.493 112.26299,104.118 110.52,118.628 "/>
<linearGradient id="SVGID_1_" gradientUnits="userSpaceOnUse" x1="109.7398" y1="89.8564" x2="111.98969" y2="48.1064">
<stop offset="0.0095" style="stop-color:#000000"/>
<stop offset="0.4394" style="stop-color:#404040"/>
<stop offset="0.9994" style="stop-color:#999999"/>
</linearGradient>
<path fill="url(#SVGID_1_)" d="M112.88,74.759 C112.88999,74.463005 112.781,74.177 112.57299,73.957 C112.354,73.723 112.052986,73.589005 111.72599,73.579 L109.319984,73.503006 C108.67399,73.503006 108.15298,73.979004 108.13198,74.586006 C107.93697,80.397 107.63499,86.231 107.23698,92.062004 L111.99798,92.09901 C112.38999,86.313 112.68699,80.525 112.88,74.759 "/>
<path fill="#730E11" d="M20.124992,73.625 C17.374992,74.5 10.749992,79.0 6.916992,83.167 C5.916992,90.042 9.499992,112.334 11.749992,116.334 C14.416992,117.834 20.749992,119.501 24.249992,119.001 C23.999992,117.125 20.374992,75.125 20.124992,73.625 "/>
<path fill="#AB181D" d="M22.047997,117.066 C21.75599,113.941 21.202995,107.714005 20.437004,99.076004 C19.713997,90.926 18.85801,81.269005 18.422005,76.638 C15.657005,78.221 11.647003,81.131 8.823006,84.059 C8.151009,91.099 11.384003,110.42 13.258003,114.862 C15.335999,115.854 19.161995,116.895 22.047997,117.066 "/>
<path fill="#C9181E" d="M8.8239975,84.059 C11.646996,81.131 15.657997,78.221 18.422997,76.638 C18.859001,81.269 19.715004,90.926 20.437996,99.076004 C20.458992,99.30801 20.478996,99.532005 20.499,99.76 C16.999,100.274 13.554001,100.51 10.113998,100.604004 C9.139999,94.288 8.484993,87.611 8.8239975,84.059 "/>
<path d="M19.812996,118.628 C19.954994,119.797 21.04499,120.619995 22.245003,120.466995 C23.029,120.368 23.814003,120.27 24.598,120.172 C25.799004,120.021996 26.654,118.966995 26.515999,117.814995 C24.795998,103.494995 23.685997,89.061 23.200005,74.550995 C23.161003,73.384995 22.154,72.467995 20.945,72.503 C20.155006,72.528 19.364006,72.553 18.573997,72.578995 C17.366005,72.616 16.413994,73.607994 16.452995,74.79199 C16.945992,89.493 18.07,104.118 19.812996,118.628 "/>
<linearGradient id="SVGID_2_" gradientUnits="userSpaceOnUse" x1="108.8648" y1="89.8564" x2="111.11469" y2="48.1075" gradientTransform="matrix(-1 0 0 1 352.707 0)">
<stop offset="0.0095" style="stop-color:#000000"/>
<stop offset="0.4394" style="stop-color:#404040"/>
<stop offset="0.9994" style="stop-color:#999999"/>
</linearGradient>
<path fill="url(#SVGID_2_)" d="M17.327995,74.759 C17.318,74.463005 17.426994,74.177 17.635002,73.957 C17.853996,73.723 18.155006,73.589005 18.482002,73.579 L20.888008,73.503006 C21.534004,73.503006 22.055016,73.979004 22.076012,74.586006 C22.271019,80.397 22.573006,86.231 22.971016,92.062004 L18.210014,92.09901 C17.818,86.313 17.520988,80.525 17.327995,74.759 "/>
<path fill="#BF840E" d="M11.791992,61.5 C11.624992,58.75 11.916992,50.417 12.333992,47.917 C14.666992,46.25 17.917,45.0 18.583992,44.834 C18.751,46.334 19.751,58.167 19.751,59.334 C18.98899,59.418 13.041992,61.25 11.791992,61.5 "/>
<linearGradient id="SVGID_3_" gradientUnits="userSpaceOnUse" x1="21.148003" y1="57.7017" x2="5.272995" y2="46.4517">
<stop offset="5.000000e-006" style="stop-color:#F1991B"/>
<stop offset="0.636" style="stop-color:#F9C13B"/>
<stop offset="1" style="stop-color:#FDD349"/>
</linearGradient>
<path fill="url(#SVGID_3_)" d="M13.202995,59.053 C13.364998,56.0 13.833992,51.510002 14.177994,49.087 C15.051994,48.536003 16.00399,48.050003 16.838997,47.667004 C17.103004,50.678005 17.486992,55.348003 17.659996,57.791004 C16.973,57.979004 16.049995,58.242004 14.789993,58.602005 C14.279999,58.747 13.729996,58.904 13.202995,59.053 "/>
<path fill="#BF840E" d="M117.23699,61.5 C117.404,58.75 117.11199,50.417 116.694984,47.917 C114.36199,46.25 111.11198,45.0 110.444984,44.834 C110.27798,46.334 109.27798,58.167 109.27798,59.334 C110.04,59.418 115.986,61.25 117.23699,61.5 "/>
<linearGradient id="SVGID_4_" gradientUnits="userSpaceOnUse" x1="22.1484" y1="57.7021" x2="6.2734985" y2="46.4522" gradientTransform="matrix(-1 0 0 1 353.402 0)">
<stop offset="5.000000e-006" style="stop-color:#F1991B"/>
<stop offset="0.636" style="stop-color:#F9C13B"/>
<stop offset="1" style="stop-color:#FDD349"/>
</linearGradient>
<path fill="url(#SVGID_4_)" d="M115.82499,59.053 C115.66299,56.0 115.19399,51.510002 114.84998,49.087 C113.97599,48.536003 113.02398,48.050003 112.18899,47.667004 C111.92498,50.678005 111.54099,55.348003 111.36799,57.791004 C112.054985,57.979004 112.97799,58.242004 114.23798,58.602005 C114.74799,58.747 115.298,58.904 115.82499,59.053 "/>
<path fill="#BF840E" d="M64.51299,70.303 C70.61999,70.303 95.83999,72.023 104.016,71.164 C110.715004,70.781 113.867,68.996 120.27,68.708 C120.368996,67.179 120.467995,64.599 120.27,63.834 C118.79299,62.592 113.801994,58.641 113.54099,52.625 C113.04099,41.125 111.30599,3.4900017 64.51299,3.4900017 S15.749992,42.070004 15.749992,51.25 C15.749992,57.333 10.232994,62.592 8.75499,63.834 C8.557991,64.599 8.65699,67.179 8.75499,68.708 C15.1579895,68.995 18.30999,70.781 25.009987,71.164 C33.18699,72.023 58.40499,70.303 64.51299,70.303 "/>
<linearGradient id="SVGID_5_" gradientUnits="userSpaceOnUse" x1="64.513695" y1="30.25" x2="64.513695" y2="80.5">
<stop offset="5.000000e-006" style="stop-color:#F1991B"/>
<stop offset="0.636" style="stop-color:#F9C13B"/>
<stop offset="1" style="stop-color:#FDD349"/>
</linearGradient>
<path fill="url(#SVGID_5_)" d="M97.35999,69.405 C90.92399,69.405 82.21699,69.012 75.220985,68.696 C70.36199,68.477 66.52299,68.303 64.51298,68.303 S58.66297,68.476 53.803978,68.696 C46.808983,69.012 38.102974,69.405 31.666985,69.405 H31.665977 C28.84098,69.405 26.675972,69.327995 25.231972,69.176 C21.97297,68.987 19.690971,68.488 17.274971,67.961006 C15.281975,67.52501 13.233971,67.078 10.725975,66.841 C10.696976,65.965004 10.695976,65.241005 10.715973,64.777 C12.966972,62.514 17.316978,56.557 17.21798,50.489 C17.204979,49.687 17.04998,30.717999 30.376976,17.580997 C38.51597,9.558997 50.000984,5.4909973 64.51197,5.4909973 C79.023964,5.4909973 90.50997,9.558997 98.64797,17.581997 C111.97497,30.718998 111.81898,49.686996 111.80598,50.487995 C111.70698,56.556995 116.059975,62.516994 118.309975,64.77899 C118.32998,65.23699 118.32798,65.96199 118.29897,66.841995 C115.79098,67.077995 113.74197,67.52599 111.74897,67.962 C109.33398,68.49 107.05297,68.989 103.894966,69.169 C102.35,69.328 100.18499,69.405 97.35999,69.405 "/>
<linearGradient id="SVGID_6_" gradientUnits="userSpaceOnUse" x1="64.41599" y1="72.791" x2="64.5969" y2="61.764">
<stop offset="0.0095" style="stop-color:#FDE25B"/>
<stop offset="0.8034" style="stop-color:#FFF99B"/>
<stop offset="0.9994" style="stop-color:#FFFFAB"/>
</linearGradient>
<path fill="url(#SVGID_6_)" d="M104.93299,68.003 C103.34699,68.168 101.12499,68.247 98.22599,68.247 C91.620995,68.247 82.684,67.844 75.50399,67.519005 C70.51699,67.29401 66.577995,67.116005 64.513985,67.116005 S58.51098,67.29401 53.522987,67.519005 C46.342995,67.843 37.40798,68.247 30.802986,68.247 H30.80198 C27.902977,68.247 25.680977,68.168 24.197975,68.012 C20.852974,67.818 10.714973,66.453 10.727974,66.842 C13.235977,67.078 15.283974,67.526 17.27697,67.962006 C19.69297,68.490005 21.973976,68.98801 25.23397,69.177 C26.67797,69.329 28.842964,69.406 31.667976,69.406 H31.668983 C38.10499,69.406 46.81098,69.013 53.805977,68.697 C58.66497,68.478 62.503975,68.304 64.51498,68.304 S70.363976,68.477 75.22297,68.697 C82.21897,69.013 90.92597,69.406 97.36198,69.406 C100.18697,69.406 102.350975,69.328995 103.89698,69.169 C107.054985,68.989 109.335976,68.49 111.750984,67.962 C113.74499,67.526 115.79298,67.078995 118.30099,66.841995 C118.312996,66.451 108.173,67.818 104.93299,68.003 "/>
<linearGradient id="SVGID_7_" gradientUnits="userSpaceOnUse" x1="64.4976" y1="-19.8335" x2="64.4976" y2="93.6715">
<stop offset="5.000000e-006" style="stop-color:#F1991B"/>
<stop offset="0.2668" style="stop-color:#F6B836"/>
<stop offset="0.5337" style="stop-color:#FACF4A"/>
<stop offset="0.784" style="stop-color:#FCDD57"/>
<stop offset="0.9994" style="stop-color:#FDE25B"/>
</linearGradient>
<path fill="url(#SVGID_7_)" d="M98.648994,17.582 C97.264,16.217001 95.775,14.976001 94.19799,13.84 C94.067986,13.056 93.931984,12.364 93.78799,11.83 C92.414986,10.621 87.03799,8.033 83.93798,6.7929997 C83.97198,7.2869997 83.990974,7.882 83.99998,8.538 C78.29099,6.511 71.78199,5.49 64.51299,5.49 C57.244987,5.49 50.73699,6.5109997 45.027992,8.537 C45.036995,7.8809996 45.055992,7.286 45.08999,6.792 C41.989983,8.032 36.61199,10.62 35.239983,11.829 C35.095985,12.363001 34.959984,13.054001 34.82998,13.838 C33.252983,14.973001 31.763985,16.214 30.377983,17.58 C17.050987,30.717 17.205986,49.685997 17.218987,50.488 C17.235985,51.507 16.482994,57.666 21.46598,58.5 C51.013985,54.833 84.31698,56.368 107.18998,58.833 C111.82798,59.333 111.156975,52.021 111.806984,50.109 C111.78399,47.261 111.117,29.871 98.648994,17.582 "/>
<path fill="#BF840E" d="M83.937996,6.793 C87.038,8.033 92.41599,10.621 93.788,11.83 C94.63801,14.984 95.266,23.151001 95.267006,28.48 C96.072,22.656 96.12301,14.471 95.12101,10.250999 C92.019005,7.7169995 86.014015,4.9179993 82.03001,3.6009994 C80.96601,4.6339993 80.22201,5.9069996 80.22201,5.9069996 S81.44001,6.194 82.083,6.4339995 C82.44199,10.289999 83.113,17.68 83.46,22.137 C83.81899,16.964 84.15699,9.977 83.937996,6.793 "/>
<path fill="#BF840E" d="M46.997,3.6 C43.01301,4.917 36.892998,8.003 33.767998,10.034 C32.76699,14.255001 32.956,22.656 33.760002,28.48 C33.76101,23.151 34.389,14.983999 35.239006,11.83 C36.612007,10.621 41.989006,8.033 45.089012,6.7929997 C44.870018,9.976999 45.208015,16.963999 45.566017,22.135 C45.913017,17.678001 46.584023,10.2890005 46.943016,6.432 C47.58602,6.1920004 48.80401,5.905 48.80401,5.905 S48.06199,4.632 46.997,3.6 "/>
<path fill="#BF840E" d="M64.514,57.125 C71.531,57.389 84.29,59.043 88.08201,58.191 C88.08201,48.340004 77.642006,33.437004 76.83001,27.891003 C75.969,22.0 75.35099,7.51 73.967,3.167 C73.449,1.543 67.51899,0.0 64.514,0.0 C61.508995,0.0 55.577995,1.543 55.060005,3.167 C53.676003,7.51 53.058006,22.0 52.196007,27.891 C51.38401,33.437 40.945,47.872 40.818,58.172 C44.61199,59.024 57.495995,57.389 64.514,57.125 "/>
<linearGradient id="SVGID_8_" gradientUnits="userSpaceOnUse" x1="64.513695" y1="-40.6665" x2="64.513695" y2="73.0091">
<stop offset="5.000000e-006" style="stop-color:#F1991B"/>
<stop offset="0.1051" style="stop-color:#F2A223"/>
<stop offset="0.7008" style="stop-color:#FAD04B"/>
<stop offset="0.9994" style="stop-color:#FDE25B"/>
</linearGradient>
<path fill="url(#SVGID_8_)" d="M41.857002,58.359 C42.572,53.094 46.172005,44.29 49.243996,38.78 C51.749,34.287 53.72599,30.737999 54.09899,28.190998 C54.430992,25.923998 54.722984,22.475998 55.03199,18.823997 C55.49099,13.391997 56.060997,6.6679974 56.823997,4.0079975 C57.76699,3.2 61.941,2.0 64.514,2.0 C67.086006,2.0 71.260994,3.2 72.204,4.009 C72.967,6.6689997 73.536,13.393 73.99601,18.825 C74.305016,22.476002 74.59701,25.925001 74.92901,28.192001 C75.30201,30.739002 77.28001,34.288002 79.784004,38.781002 C82.85601,44.291 86.45501,53.094 87.171,58.36 C83.303,58.851 45.72399,58.851 41.857002,58.359 "/>
<linearGradient id="SVGID_9_" gradientUnits="userSpaceOnUse" x1="72.027794" y1="49.5" x2="72.027794" y2="-36.0028">
<stop offset="0.0095" style="stop-color:#FDE25B"/>
<stop offset="0.8034" style="stop-color:#FFF99B"/>
<stop offset="0.9994" style="stop-color:#FFFFAB"/>
</linearGradient>
<path fill="url(#SVGID_9_)" d="M62.967995,2.75 C65.54,2.75 69.71499,3.95 70.65899,4.759 C71.42199,7.4189997 71.99099,14.143 72.44999,19.575 C72.758995,23.226002 73.05099,26.675001 73.38299,28.942001 C73.75599,31.489002 75.90899,34.753002 78.62998,39.126 C82.75298,45.751 86.847984,58.401 87.17098,58.36 C86.455986,53.095 82.85598,44.291 79.78399,38.781 C77.27999,34.288 75.301994,30.738998 74.92899,28.191998 C74.59699,25.924997 74.305,22.476997 73.995995,18.824997 C73.536995,13.392997 72.967995,6.668997 72.20399,4.008997 C71.260994,3.2 67.08599,2.0 64.514,2.0 C61.989006,2.0 57.926994,3.155 56.885002,3.963 C58.59899,3.335 61.17199,2.75 62.967995,2.75 "/>
</g>
</svg>
