<?xml version="1.0" encoding="utf-8"?>
<!--Generator: Adobe Illustrator 15.0.0, SVG Export Plug-In . SVG Version: 6.00 Build 0)-->
<!DOCTYPE svg PUBLIC "-//W3C//DTD SVG 1.1//EN" "http://www.w3.org/Graphics/SVG/1.1/DTD/svg11.dtd">
<svg version="1.1" id="Clothes" xmlns="http://www.w3.org/2000/svg" xmlns:xlink="http://www.w3.org/1999/xlink" x="0px" y="0px" width="852.724px" height="1760.352px" viewBox="0 0 852.724 1760.352" enable-background="new 0 0 852.724 1760.352" xml:space="preserve">
<g>
<g>
<path fill="#00395E" d="M765.511,31.493002 C852.724,409.403 717.87,998.072 676.687,1133.732 C634.695,1479.3451 657.308,1625.5021 666.998,1666.6831 C620.971,1676.3741 484.50198,1698.9861 460.27698,1708.6711 C448.162,1580.2821 416.67197,1398.5931 411.826,1321.0731 C404.72098,1207.3481 435.35098,1087.7491 440.896,1040.0631 C448.972,892.2901 387.601,82.36508 390.023,55.71707 C612.083,87.211 721.905,46.029 765.511,31.493002 "/>
<path fill="#004878" d="M473.01102,1689.802 C466.73,1629.14 456.76102,1558.161 447.87402,1494.876 C438.028,1424.778 428.73102,1358.565 426.333,1320.165 C421.103,1236.501 436.909,1148.593 447.366,1090.421 C450.87,1070.911 453.905,1054.066 455.331,1041.743 L455.405,1040.858 C460.893,940.452 435.026,543.59503 417.915,280.991 C411.888,188.50699 406.515,106.159 404.93802,72.399 C453.59802,78.656006 500.13702,81.824005 543.50104,81.824005 C543.507,81.824005 543.52106,81.824005 543.53,81.824005 C650.46204,81.824005 717.72504,62.572006 754.387,50.539005 C837.38104,446.547 692.94104,1030.144 662.77704,1129.509 L662.41205,1130.7201 L662.25604,1131.9761 C623.637,1449.843 639.8381,1601.1991 649.80304,1655.31 C635.47107,1658.103 617.00006,1661.505 597.74603,1665.05 C542.189,1675.287 498.198,1683.543 473.01102,1689.802 "/>
<path fill="#005C99" d="M525.739,164.482 C525.551,522.084 510.83102,922.057 537.796,1034.41 C537.796,1053.7891 552.331,1143.4241 583.82104,1155.535 C610.47205,1170.0701 649.231,1153.1111 661.528,1138.133 C661.778,1136.061 662.00104,1134.0651 662.257,1131.979 L662.413,1130.723 L662.778,1129.512 C690.92303,1036.802 818.519,522.575 768.073,132.455 C691.224,158.272 607.649,163.827 525.739,164.482 "/>
<g>
<path fill="#00395E" d="M719.919,203.491 L711.411,201.874 C732.807,282.223 767.532,336.321 783.679,357.318 L782.22205,341.169 C763.089,312.504 732.808,251.94199 719.919,203.491 "/>
</g>
</g>
<g>
<path fill="#00395E" d="M185.717,0.0 C27.441998,345.611 56.511997,891.48206 59.742,1049.7521 C52.475002,1146.654 9.247,1281.363 4.845,1400.207 C0.0,1531.0231 38.945,1732.0021 40.363003,1760.352 C115.459,1736.125 171.997,1732.0901 230.933,1747.4341 C230.948,1686.0651 235.308,1578.707 251.942,1438.967 C262.95102,1346.487 266.47702,1213.676 290.7,1121.6211 C331.883,1012.6071 418.29102,652.4651 482.888,426.36105 C495.001,419.90204 531.337,410.21304 547.485,397.29205 C573.329,321.39304 594.321,114.21106 594.321,65.76105 C396.995,70.215 269.70502,35.531 185.717,0.0 "/>
<path fill="#004878" d="M52.795,1741.312 C51.547997,1732.361 49.804996,1720.859 47.688,1706.91 C36.545002,1633.506 15.809998,1496.8711 19.370998,1400.748 C21.781998,1335.687 35.971,1266.123 49.691998,1198.852 C60.624996,1145.258 70.951,1094.6371 74.23599,1050.842 L74.287994,1050.1531 L74.273994,1049.4581 C74.02599,1037.2921 73.62399,1022.84314 73.16799,1006.37213 C67.56999,804.34204 54.552,334.865 193.209,18.820002 C266.476,52.085 418.993,85.947 600.683,79.891 C602.29596,159.025 555.562,316.547 533.956,389.009 C524.319,394.883 509.056,400.517 497.452,404.799 C488.698,408.03 481.139,410.819 476.05,413.534 L470.60498,416.439 L468.912,422.367 C443.50998,511.291 414.63498,621.28204 386.71698,727.655 C343.07397,893.927 301.84796,1050.98 277.10297,1116.478 L276.83795,1117.191 L276.64496,1117.92 C259.60895,1182.654 252.58194,1267.576 246.37894,1342.5021 C243.55693,1376.6111 240.89093,1408.8281 237.50793,1437.2501 C220.85594,1577.1602 217.18794,1679.1411 216.52594,1729.2322 C198.13895,1725.6132 179.94093,1723.8392 161.35094,1723.8392 C128.233,1723.8401 93.383995,1729.4241 52.795,1741.312 "/>
<path fill="#005C99" d="M242.25099,124.356995 C229.32399,180.884 215.258,250.26498 203.58699,310.97202 C256.502,290.527 296.509,248.79901 329.461,203.492 C304.048,265.207 256.873,313.314 198.13098,339.679 C167.51099,502.61798 144.80698,654.564 143.72598,687.989 C144.14899,810.2 117.89598,1027.144 176.03598,1130.501 C210.75899,1160.382 256.78598,1145.8469 277.453,1115.538 C302.236,1049.495 343.274,893.157 386.717,727.657 C414.635,621.284 443.51,511.29294 468.91202,422.36896 L470.605,416.44095 L476.05002,413.53595 C481.14,410.81995 488.69803,408.03195 497.45203,404.80096 C509.05603,400.51895 524.31903,394.88498 533.95605,389.01096 C549.47205,336.97296 577.94604,241.07095 592.16504,161.83296 C475.247,170.217 327.84702,146.967 242.25099,124.356995 "/>
<g>
<path fill="#00395E" d="M329.561,50.395 C319.832,72.43 311.48,122.881 311.256,143.638 C323.07602,147.229 351.793,150.624 354.946,152.041 C358.825,123.025 363.224,81.897 370.584,59.836 C358.743,57.632 339.80402,53.966 329.561,50.395 "/>
<path fill="#005C99" d="M318.523,147.234 C319.70602,126.65399 328.427,77.913994 335.21802,57.374992 C342.30603,59.22399 353.26102,61.541992 361.255,63.108994 C356.247,82.398994 346.858,150.728 346.634,152.469 C345.308,152.23 324.601,148.579 318.523,147.234 "/>
</g>
<g>
<path fill="#00395E" d="M738.21,49.721 C743.138,74.442 745.606,124.53 743.247,146.11 C731.624,148.549 704.792,151.385 701.636,152.513 C701.55597,121.955 702.46796,78.76 698.226,55.044 C709.708,54.048 728.07904,52.309 738.21,49.721 "/>
<path fill="#005C99" d="M736.683,151.5 C738.112,129.998 735.878,78.424 731.99396,56.353996 C723.11694,58.159996 714.72394,61.072998 706.97095,61.825996 C709.32196,82.407 709.44995,152.031 709.44196,153.86499 C710.73,153.759 730.776,152.237 736.683,151.5 "/>
</g>
<g>
<path fill="#4D4D4D" d="M547.95404,117.172 C546.507,130.163 554.70807,141.731 566.25903,143.023 C577.82306,144.31299 588.37006,134.83499 589.817,121.84799 C591.265,108.86199 583.07104,97.28499 571.516,96.00199 C559.95404,94.709 549.401,104.192 547.95404,117.172 "/>
<path fill="#B3B3B3" d="M568.255,138.999 C563.851,138.51099 559.901,136.088 557.13,132.174 C554.257,128.116 552.997,122.977 553.581,117.702995 C554.729,107.41899 562.65497,99.681 571.61,100.079994 C571.93396,100.09899 572.26996,100.12399 572.6,100.159996 C577.00397,100.649994 580.954,103.075 583.729,106.98499 C586.604,111.04199 587.864,116.18299 587.278,121.46099 C586.122,131.73898 578.208,139.478 569.24304,139.07799 C569.243,139.079 568.593,139.039 568.255,138.999 "/>
</g>
<g>
<path fill="#00395E" d="M180.19,368.089 L172.992,367.87 L173.682,345.055 L176.58,344.556 C189.845,342.26 287.126,301.54 328.034,190.073 L334.801,192.558 C294.63702,301.975 203.474,344.69 180.709,350.976 L180.19,368.089 "/>
</g>
</g>
</g>
</svg>
