<?xml version="1.0" encoding="utf-8"?>
<!--Generator: Adobe Illustrator 15.0.0, SVG Export Plug-In . SVG Version: 6.00 Build 0)-->
<!DOCTYPE svg PUBLIC "-//W3C//DTD SVG 1.1//EN" "http://www.w3.org/Graphics/SVG/1.1/DTD/svg11.dtd">
<svg version="1.1" id="Clothes" xmlns="http://www.w3.org/2000/svg" xmlns:xlink="http://www.w3.org/1999/xlink" x="0px" y="0px" width="795.781px" height="1766.813px" viewBox="0 0 795.781 1766.813" enable-background="new 0 0 795.781 1766.813" xml:space="preserve">
<g>
<g>
<path fill="#00395E" d="M763.988,36.338 C851.201,414.24802 716.347,1002.917 675.164,1138.577 C633.172,1484.1901 655.785,1630.347 665.475,1671.5281 C619.448,1681.2191 482.97897,1703.831 458.75397,1713.5161 C446.63898,1585.1271 415.14896,1403.4381 410.30298,1325.9181 C403.19797,1212.1931 433.82797,1092.5941 439.373,1044.9081 C447.44897,897.1351 386.078,87.21008 388.5,60.562073 C610.56,92.056 720.382,50.874 763.988,36.338 "/>
<path fill="#004878" d="M471.488,1694.647 C465.207,1633.985 455.238,1563.006 446.351,1499.721 C436.505,1429.6229 427.208,1363.4099 424.81,1325.01 C419.58,1241.346 435.386,1153.438 445.843,1095.266 C449.347,1075.756 452.382,1058.911 453.80798,1046.588 L453.882,1045.703 C459.37,945.297 433.503,548.44 416.392,285.836 C410.365,193.35199 404.992,111.004 403.415,77.244 C452.075,83.50101 498.614,86.66901 541.978,86.66901 C541.984,86.66901 541.99805,86.66901 542.007,86.66901 C648.939,86.66901 716.202,67.41701 752.864,55.384007 C835.85803,451.392 691.418,1034.989 661.254,1134.354 L660.88904,1135.5651 L660.73303,1136.821 C622.114,1454.688 638.31506,1606.0441 648.28,1660.155 C633.94806,1662.948 615.47705,1666.35 596.223,1669.895 C540.666,1680.132 496.675,1688.388 471.488,1694.647 "/>
<path fill="#005C99" d="M524.216,169.327 C524.028,526.92896 509.308,926.902 536.273,1039.255 C536.273,1058.634 550.808,1148.269 582.29803,1160.38 C608.94904,1174.915 647.708,1157.956 660.005,1142.978 C660.255,1140.906 660.478,1138.91 660.734,1136.824 L660.89,1135.568 L661.255,1134.3569 C689.4,1041.647 816.996,527.42 766.55,137.3 C689.701,163.117 606.126,168.672 524.216,169.327 "/>
<g>
<path fill="#00395E" d="M718.396,208.336 L709.888,206.719 C731.284,287.068 766.009,341.16602 782.156,362.163 L780.69904,346.014 C761.566,317.349 731.285,256.787 718.396,208.336 "/>
</g>
</g>
<g>
<path fill="#00395E" d="M184.194,4.845 C25.919,350.456 54.989,896.327 58.219,1054.597 C50.952003,1151.499 7.724003,1286.208 3.3220024,1405.052 C-1.5229974,1535.868 37.422,1736.847 38.840004,1765.197 C113.936005,1740.97 170.474,1736.935 229.41,1752.279 C229.425,1690.91 233.785,1583.552 250.419,1443.812 C261.428,1351.332 264.954,1218.521 289.177,1126.4661 C330.36,1017.4521 416.768,657.31006 481.365,431.20605 C493.478,424.74704 529.81396,415.05804 545.962,402.13705 C571.80597,326.23804 592.798,119.05606 592.798,70.60605 C395.472,75.06 268.182,40.376 184.194,4.845 "/>
<path fill="#004878" d="M51.272,1746.157 C50.024998,1737.2059 48.281998,1725.704 46.165,1711.755 C35.022003,1638.351 14.287001,1501.7161 17.848001,1405.593 C20.259,1340.532 34.448,1270.968 48.169,1203.697 C59.101997,1150.103 69.428,1099.482 72.713,1055.687 L72.765,1054.998 L72.751,1054.3031 C72.503,1042.1371 72.101,1027.6881 71.645,1011.2171 C66.047,809.187 53.029,339.71 191.686,23.665 C264.953,56.93 417.47,90.792 599.16,84.736 C600.77295,163.87 554.039,321.392 532.433,393.854 C522.79596,399.728 507.533,405.362 495.929,409.644 C487.175,412.875 479.616,415.664 474.52698,418.379 L469.08197,421.284 L467.38898,427.212 C441.98697,516.136 413.11197,626.127 385.19397,732.5 C341.55096,898.772 300.32495,1055.825 275.57996,1121.323 L275.31494,1122.036 L275.12195,1122.765 C258.08594,1187.499 251.05894,1272.421 244.85594,1347.347 C242.03394,1381.456 239.36794,1413.6731 235.98494,1442.0951 C219.33295,1582.0051 215.66495,1683.9861 215.00294,1734.0771 C196.61595,1730.4581 178.41794,1728.6842 159.82794,1728.6842 C126.71,1728.685 91.861,1734.269 51.272,1746.157 "/>
<path fill="#005C99" d="M240.728,129.202 C227.801,185.729 213.735,255.10999 202.064,315.81702 C254.979,295.372 294.986,253.64401 327.938,208.337 C302.525,270.052 255.34999,318.159 196.60799,344.524 C165.98799,507.46298 143.28398,659.409 142.20299,692.834 C142.62599,815.045 116.372986,1031.989 174.51299,1135.346 C209.236,1165.2269 255.26299,1150.6919 275.93,1120.3829 C300.71298,1054.34 341.75098,898.00195 385.194,732.50195 C413.112,626.12897 441.987,516.13794 467.389,427.21396 L469.082,421.28595 L474.527,418.38095 C479.617,415.66495 487.17502,412.87695 495.92902,409.64597 C507.53302,405.36395 522.796,399.72998 532.43304,393.85596 C547.94904,341.81796 576.42303,245.91595 590.642,166.67796 C473.724,175.062 326.324,151.812 240.728,129.202 "/>
<g>
<path fill="#00395E" d="M328.038,55.24 C318.309,77.275 309.957,127.726 309.733,148.483 C321.553,152.074 350.27,155.469 353.423,156.886 C357.302,127.87 361.701,86.742004 369.061,64.681 C357.22,62.477 338.281,58.811 328.038,55.24 "/>
<path fill="#005C99" d="M317,152.079 C318.183,131.499 326.904,82.758995 333.695,62.219994 C340.78302,64.06899 351.738,66.38699 359.732,67.953995 C354.724,87.243996 345.335,155.573 345.111,157.314 C343.785,157.075 323.078,153.424 317,152.079 "/>
</g>
<g>
<path fill="#00395E" d="M736.687,54.566 C741.615,79.287 744.083,129.375 741.724,150.955 C730.101,153.394 703.269,156.23 700.113,157.358 C700.03296,126.8 700.94495,83.605 696.703,59.889 C708.185,58.893 726.556,57.154 736.687,54.566 "/>
<path fill="#005C99" d="M735.16,156.345 C736.589,134.843 734.355,83.269005 730.47095,61.198997 C721.59393,63.004997 713.2009,65.918 705.44794,66.671 C707.79895,87.252 707.92694,156.876 707.91895,158.70999 C709.207,158.604 729.253,157.082 735.16,156.345 "/>
</g>
<g>
<path fill="#4D4D4D" d="M546.431,122.017 C544.984,135.008 553.18506,146.576 564.736,147.868 C576.30005,149.15799 586.84705,139.68 588.294,126.69299 C589.742,113.70699 581.54803,102.12999 569.993,100.84699 C558.431,99.554 547.878,109.037 546.431,122.017 "/>
<path fill="#B3B3B3" d="M566.732,143.844 C562.328,143.35599 558.378,140.933 555.607,137.019 C552.734,132.961 551.474,127.822 552.058,122.548 C553.206,112.26399 561.13196,104.526 570.087,104.924995 C570.41095,104.94399 570.74695,104.968994 571.07697,105.005 C575.48096,105.494995 579.43097,107.92 582.206,111.829994 C585.081,115.88699 586.341,121.02799 585.755,126.30599 C584.599,136.58398 576.685,144.323 567.72003,143.92299 C567.72,143.924 567.07,143.884 566.732,143.844 "/>
</g>
<g>
<path fill="#00395E" d="M178.667,372.934 L171.46901,372.715 L172.15901,349.9 L175.057,349.401 C188.322,347.105 285.603,306.385 326.511,194.918 L333.27798,197.403 C293.114,306.82 201.951,349.535 179.186,355.821 L178.667,372.934 "/>
</g>
</g>
</g>
</svg>
