<svg version="1.1" id="Hand_skin01" xmlns="http://www.w3.org/2000/svg" viewBox="0 0 9922 13000" xml:space="preserve">
  <g>
    <g>
      <g>
        <path fill="#944D09" d="M3449.395 4654.597c26.189-56.422 73.884-196.122 102.087-227.694 16.509-18.465 137.022-116.871 159.866-159.866 24.177-40.299 38.278-143.054 47.68-255.226 18.136-74.55 245.928-51.384 258.594 98.07 13.437 158.503-55.075 327.771-91.348 411.05-44.327 14.116-444.641 121.57-476.879 133.666z"/>
        <linearGradient id="SSVVGGIIDD_1_" gradientUnits="userSpaceOnUse" x1="3524.6191" y1="4298.5654" x2="3990.7578" y2="4298.5654">
          <stop offset="0" style="stop-color:#DFA182"/>
          <stop offset="1" style="stop-color:#F3B190"/>
        </linearGradient>
        <path fill="url(#SSVVGGIIDD_1_)" d="M3524.619 4584.073c17.357-46.781 38.863-107.68 57.096-132.995 9.265-12.865 64.766-56.31 92.688-84.626 30.248-30.689 54.938-49.94 62.895-61.171 33.827-47.646 59.351-172.571 62.029-277.348 28.212-32.245 159.192-14.116 177.322 74.551 16.5 80.665-29.552 251.198-64.477 334.492 0 0 74.454-.112 78.586 18.146-10.075 2.806-356.086 100.427-466.139 128.951z"/>
        <linearGradient id="SSVVGGIIDD_2_" gradientUnits="userSpaceOnUse" x1="3658.9521" y1="4281.4727" x2="3990.7578" y2="4281.4727">
          <stop offset="0" style="stop-color:#F8BD9C"/>
          <stop offset="1" style="stop-color:#FFD1AF"/>
        </linearGradient>
        <path fill="url(#SSVVGGIIDD_2_)" d="M3808.063 4056.138c4.026 50.375-8.063 179.342-24.185 265.989-54.402 58.428-99.498 109.894-124.926 227.68 138.449-38.247 324.891-92.76 331.806-94.685-4.132-18.258-78.586-18.146-78.586-18.146 34.925-83.294 80.977-253.827 64.477-334.492-12.305-60.176-76.565-87.786-125.424-89.277-18.986-1.396-43.162 18.755-43.162 42.931z"/>
      </g>
      <g>
        <path fill="#944D09" d="M3462.666 4581.687c72.539-20.149 115.688-35.892 115.688-35.892s34.251-48.367 90.675-96.738c58.339-50.005 106.395-75.754 134.999-85.283 143.735 6.706 222.986-4.042 378.817 22.829 73.829 186.496 118.444 430.94 80.608 717.337-9.409 71.199-42.986 147.771-60.458 175.973-77.911 56.423-251.871 76.588-334.483 72.546-106.797-10.074-263.295-48.354-310.309-67.171 16.115-45.674-220.032-460.614-95.537-703.601z"/>
        <linearGradient id="SSVVGGIIDD_3_" gradientUnits="userSpaceOnUse" x1="4341.1504" y1="4658.0649" x2="3473.448" y2="5079.4004">
          <stop offset="0" style="stop-color:#DFA182"/>
          <stop offset="1" style="stop-color:#F3B190"/>
        </linearGradient>
        <path fill="url(#SSVVGGIIDD_3_)" d="M3902.097 5313.505c-160.315 0-332.878-64.313-405.424-85.813-76.564-76.588-139.975-377.646-56.688-588.544 80.6-69.866 321.192-229.412 360.016-231.048 146.118 4.973 270.072 5.343 411.058 29.551 34.267 209.213 17.47 709.267-40.301 819.432-26.864 17.471-150.449 45.675-268.661 56.422z"/>
        <linearGradient id="SSVVGGIIDD_4_" gradientUnits="userSpaceOnUse" x1="3802.9409" y1="4836.9063" x2="4237.7651" y2="4836.9063">
          <stop offset="0" style="stop-color:#F8BD9C"/>
          <stop offset="1" style="stop-color:#FFD1AF"/>
        </linearGradient>
        <path fill="url(#SSVVGGIIDD_4_)" d="M4211.058 4437.651c-140.985-24.208-258.892-54.145-405.009-59.118-.722.032-1.604.192-2.431.32-12.498 236.15 152.879 558.514 90.417 739.861 13.436 90 13.436 141.049 2.688 175.989 40.299 4.01 224.334-13.443 278.068-36.289 14.776-29.551 37.612-87.305 45.676-135.673 25.427-152.582 23.261-485.631-9.409-685.09z"/>
        <path fill="#944D09" d="M3882.612 4644.523c23.512 8.053 310.981-37.62 356.656-36.272 24.185 6.047 65.148 31.555 81.946 38.951 21.498 48.369 25.523 155.165 2.687 229.043-8.062 12.096-18.137 22.17-18.137 22.17s14.103 12.097 14.103 26.182c3.352 68.519-13.436 176.663-44.327 192.771-108.81 33.593-276.722 45.689-330.465 40.299-16.115-40.299-56.414-448.669-62.463-513.144z"/>
        <linearGradient id="SSVVGGIIDD_5_" gradientUnits="userSpaceOnUse" x1="3815.3188" y1="4901.293" x2="4293.5439" y2="4901.293">
          <stop offset="0" style="stop-color:#F8BD9C"/>
          <stop offset="1" style="stop-color:#FFD1AF"/>
        </linearGradient>
        <path fill="url(#SSVVGGIIDD_5_)" d="M3899.401 5152.309c-42.979-69.866-42.979-174.643-40.965-225.69-28.211-68.502-55.748-171.946-36.938-255.224 32.238 0 63.129 11.406 63.129 11.406s184.38-32.246 267.328-32.904c24.85 9.738 102.763 21.835 120.898 26.872 28.211 45.336 24.184 123.577 8.062 190.749-10.741 17.453-64.476 29.551-64.476 29.551s26.863 8.054 53.734 10.75c13.436 48.351 8.054 145.088-24.184 185.388-80.598 34.91-298.226 63.111-346.588 59.102z"/>
        <path fill="#944D09" d="M3937.695 4912.517c-9.409 2.006 2.005 8.069 12.762 10.733 110.142 12.096 268.661-2.664 330.458-17.454 4.701-10.061 12.088-25.508 15.449-36.257-59.774 22.828-245.158 43.637-358.669 42.978zM3902.097 4678.116c-6.722-1.348-29.559-13.444-34.933-13.444 3.689 15.449-2.014 39.29 4.026 68.505 10.757-26.858 26.873-47.007 30.907-55.061z"/>
        <path fill="#944D09" d="M3791.939 4367.8c72.537-17.47 292.845-21.497 360.016-16.121 39.288 8.053 108.473 26.854 133.661 42.994 29.566 42.641 40.964 205.507 8.727 278.053-39.963 16.46-124.251 34.925-150.449 34.925-26.19 0-233.735-12.753-276.056-18.128-34.917-33.578-120.9-169.925-75.899-321.723z"/>
        <linearGradient id="SSVVGGIIDD_6_" gradientUnits="userSpaceOnUse" x1="4104.5195" y1="4536.8164" x2="3521.332" y2="4534.0806">
          <stop offset="0" style="stop-color:#F8BD9C"/>
          <stop offset="1" style="stop-color:#FFD1AF"/>
        </linearGradient>
        <path fill="url(#SSVVGGIIDD_6_)" d="M4156.655 4672.726s-275.382 8.054-332.478 4.043c-15.45-55.75-57.763-192.096-5.375-268.668 84.633-12.099 293.519-17.472 323.743-10.412 22.172 7.059 87.657 31.219 107.808 45.337 18.136 51.369 2.014 177.305-15.112 208.557-21.161 8.052-78.586 21.143-78.586 21.143z"/>
        <linearGradient id="SSVVGGIIDD_7_" gradientUnits="userSpaceOnUse" x1="4552.6284" y1="4597.103" x2="4114.5718" y2="4528.6587">
          <stop offset="0" style="stop-color:#F8BD9C"/>
          <stop offset="1" style="stop-color:#FFD1AF"/>
        </linearGradient>
        <path fill="url(#SSVVGGIIDD_7_)" d="M4251.356 4433.625c-20.149-14.119-73.548-30.899-110.824-36.948 57.089 54.401 40.974 234.401 16.797 274.7 34.259-2.003 73.878-10.747 98.062-18.801 20.149-59.101 21.907-171.946-4.035-218.951z"/>
      </g>
    </g>
  </g>
</svg>
